####
#
# OBJ File Generated by Meshlab
#
####
# Object m1225.obj
#
# Vertices: 183
# Faces: 340
#
####
vn 0.000000 1.815967 0.000000
v 0.088407 0.378164 0.048009
vn 0.000000 3.184169 -0.000000
v 0.111810 0.378164 0.060970
vn 0.000000 1.315274 0.000000
v 0.135213 0.378164 0.064211
vn 0.000000 1.147147 0.000000
v 0.158616 0.378164 0.067451
vn 0.000000 0.358128 0.000000
v 0.182020 0.378164 0.068261
vn -0.000000 0.183511 0.000000
v 0.228826 0.378164 0.069071
vn 0.000000 -0.176230 0.000000
v 0.369245 0.378164 0.067451
vn -0.000000 -0.536007 0.000000
v 0.556471 0.378164 0.048009
vn 0.000000 0.413858 0.000000
v 0.369245 0.378164 0.028566
vn 0.000000 0.752741 0.000000
v 0.228826 0.378164 0.026946
vn 0.000000 0.922603 0.000000
v 0.182020 0.378164 0.027756
vn 0.000000 1.653231 0.000000
v 0.158616 0.378164 0.028566
vn 0.000000 1.821762 0.000000
v 0.135213 0.378164 0.031806
vn 0.000000 3.399888 0.000000
v 0.111810 0.378164 0.035047
vn -0.010065 0.110712 0.007130
v 0.674241 0.731328 0.064283
vn -0.012543 0.253419 0.012868
v 0.680480 0.731328 0.064283
vn -0.005333 0.313350 0.015833
v 0.686719 0.731328 0.064283
vn -0.003423 0.350006 0.016518
v 0.692958 0.731328 0.064283
vn -0.001482 0.365054 0.017180
v 0.699197 0.731328 0.064283
vn 0.001193 0.359379 0.015763
v 0.711674 0.731328 0.064283
vn 0.035143 0.196522 0.004779
v 0.749107 0.731328 0.064283
vn 0.029182 0.017808 0.000406
v 0.799017 0.731328 0.064283
vn 0.010065 0.110712 -0.007130
v 0.674241 0.025000 0.064283
vn 0.012543 0.253419 -0.012868
v 0.680480 0.025000 0.064283
vn 0.005333 0.313350 -0.015833
v 0.686719 0.025000 0.064283
vn 0.003423 0.350006 -0.016518
v 0.692958 0.025000 0.064283
vn 0.001482 0.365054 -0.017180
v 0.699197 0.025000 0.064283
vn -0.001193 0.359379 -0.015763
v 0.711674 0.025000 0.064283
vn -0.035143 0.196522 -0.004779
v 0.749107 0.025000 0.064283
vn -0.029182 0.017808 -0.000406
v 0.799017 0.025000 0.064283
vn 0.000000 1.888932 -0.000000
v 0.381102 0.378164 0.047216
vn 0.000000 3.859921 0.000000
v 0.403561 0.378164 0.059655
vn 0.000000 2.179465 -0.000000
v 0.426020 0.378164 0.062765
vn 0.000000 2.007553 -0.000000
v 0.448479 0.378164 0.065875
vn -0.000000 1.217332 -0.000000
v 0.470939 0.378164 0.066652
vn -0.000000 1.046733 0.000000
v 0.515857 0.378164 0.067430
vn 0.000000 0.775648 0.000000
v 0.650613 0.378164 0.065875
vn 0.000000 0.326355 -0.000000
v 0.830287 0.378164 0.047216
vn -0.000000 0.809053 0.000000
v 0.650613 0.378164 0.028558
vn 0.000000 1.043400 0.000000
v 0.515857 0.378164 0.027003
vn 0.000000 1.213269 -0.000000
v 0.470939 0.378164 0.027780
vn 0.000000 1.993989 0.000000
v 0.448479 0.378164 0.028558
vn 0.000000 2.165417 0.000000
v 0.426020 0.378164 0.031668
vn 0.000000 3.840950 -0.000000
v 0.403561 0.378164 0.034777
vn -0.018480 0.294627 0.014107
v 0.657729 0.507662 0.047216
vn -0.023416 0.667537 0.008100
v 0.660281 0.507662 0.047216
vn -0.011070 0.818702 0.009608
v 0.662833 0.507662 0.047216
vn -0.007530 0.911565 0.002865
v 0.665385 0.507662 0.047216
vn -0.003792 0.949185 0.002735
v 0.667937 0.507662 0.047216
vn 0.006017 0.938329 -0.004342
v 0.673041 0.507662 0.047216
vn 0.122203 0.763370 -0.014050
v 0.688352 0.507662 0.047216
vn 0.121239 0.278133 -0.016179
v 0.708768 0.507662 0.047216
vn 0.018480 0.294627 -0.014107
v 0.657729 0.248666 0.047216
vn 0.023416 0.667537 -0.008100
v 0.660281 0.248666 0.047216
vn 0.011070 0.818702 -0.009608
v 0.662833 0.248666 0.047216
vn 0.007530 0.911565 -0.002865
v 0.665385 0.248666 0.047216
vn 0.003792 0.949185 -0.002735
v 0.667937 0.248666 0.047216
vn -0.006017 0.938329 0.004342
v 0.673041 0.248666 0.047216
vn -0.122203 0.763370 0.014050
v 0.688352 0.248666 0.047216
vn -0.121239 0.278133 0.016179
v 0.708768 0.248666 0.047216
vn -0.441238 -0.000000 -0.071078
v 0.025000 0.378164 0.029806
vn -0.424197 7.768846 -3.966507
v 0.254669 0.423725 0.033764
vn -1.014314 10.505426 5.446666
v 0.254669 0.407300 0.098218
vn -0.889914 -0.001723 6.655751
v 0.254669 0.378164 0.134553
vn -1.005868 -10.503444 5.446684
v 0.254669 0.349028 0.098218
vn -0.421928 -7.768812 -3.964159
v 0.254669 0.332603 0.033764
vn -0.013722 -2.766332 -12.141341
v 0.254669 0.349028 0.028160
vn 0.050626 0.000444 -12.467749
v 0.254669 0.378164 0.025000
vn -0.011824 2.766584 -12.141083
v 0.254669 0.407300 0.028160
vn 0.333578 4.439205 -2.358277
v 0.828090 0.384572 0.043195
vn 0.442477 5.793194 2.254058
v 0.828090 0.382262 0.054900
vn 0.483122 -0.012391 3.548603
v 0.828090 0.378164 0.061499
vn 0.395220 -5.788504 2.259015
v 0.828090 0.374067 0.054900
vn 0.323084 -4.442512 -2.343267
v 0.828090 0.371757 0.043195
vn 0.228234 -1.683263 -6.008006
v 0.828090 0.374067 0.042177
vn 0.185408 0.003061 -6.236105
v 0.828090 0.378164 0.041603
vn 0.215453 1.684914 -6.006808
v 0.828090 0.382262 0.042177
vn -0.621487 1.483855 -1.705679
v 0.139817 0.384164 0.058826
vn -1.156273 2.346237 1.827599
v 0.139817 0.382287 0.067131
vn -1.029231 0.216494 2.743319
v 0.139817 0.377756 0.070571
vn -1.617945 -2.333843 1.715765
v 0.139817 0.373226 0.067131
vn -0.750766 -1.422602 -1.835300
v 0.139817 0.371349 0.058826
vn 0.221884 -0.063533 -3.129961
v 0.139817 0.373226 0.058742
vn 0.241288 -0.002684 -3.131039
v 0.139817 0.377756 0.058708
vn 0.211784 0.060956 -3.130854
v 0.139817 0.382287 0.058742
vn -0.562092 1.985407 -0.696568
v 0.255660 0.458391 0.068100
vn -0.919974 2.598801 4.818584
v 0.255660 0.434774 0.092341
vn -0.508169 0.050935 5.930731
v 0.255660 0.377756 0.102382
vn -0.979055 -2.606861 4.898212
v 0.255660 0.320739 0.092341
vn -0.638278 -2.050668 -0.750658
v 0.255660 0.297121 0.068100
vn 0.076243 -0.041119 -6.271264
v 0.255660 0.320739 0.067856
vn 0.086760 -0.000575 -6.270171
v 0.255660 0.377756 0.067754
vn 0.076073 0.040363 -6.271084
v 0.255660 0.434774 0.067856
vn -0.019206 0.162666 -0.013040
v 0.669400 0.507431 0.047109
vn 0.204512 0.263963 3.125871
v 0.669400 0.469450 0.051349
vn 0.341447 0.021307 3.126389
v 0.669400 0.377756 0.053104
vn 0.318901 -0.232996 3.122754
v 0.669400 0.286062 0.051349
vn 0.045434 -0.211841 -0.022677
v 0.669400 0.248081 0.047109
vn -0.158716 -0.002677 -3.137532
v 0.669400 0.286062 0.047067
vn -0.157334 -0.000217 -3.137631
v 0.669400 0.377756 0.047049
vn -0.157557 0.002366 -3.137591
v 0.669400 0.469450 0.047067
vn -0.621486 1.483901 -1.705836
v 0.139817 0.384979 0.058826
vn -1.156280 2.346327 1.827443
v 0.139817 0.383103 0.067131
vn -1.029188 0.216616 2.743376
v 0.139817 0.378572 0.070571
vn -1.617969 -2.333818 1.715780
v 0.139817 0.374041 0.067131
vn -0.750761 -1.422628 -1.835465
v 0.139817 0.372165 0.058826
vn 0.221872 -0.063558 -3.129959
v 0.139817 0.374041 0.058742
vn 0.241288 -0.002681 -3.131039
v 0.139817 0.378572 0.058708
vn 0.211768 0.060979 -3.130853
v 0.139817 0.383103 0.058742
vn -0.562096 1.985403 -0.696566
v 0.255660 0.459207 0.068100
vn -0.919982 2.598802 4.818578
v 0.255660 0.435590 0.092341
vn -0.508168 0.050943 5.930733
v 0.255660 0.378572 0.102382
vn -0.979058 -2.606888 4.898161
v 0.255660 0.321554 0.092341
vn -0.638291 -2.050716 -0.750699
v 0.255660 0.297937 0.068100
vn 0.076243 -0.041121 -6.271264
v 0.255660 0.321554 0.067856
vn 0.086760 -0.000575 -6.270171
v 0.255660 0.378572 0.067754
vn 0.076073 0.040363 -6.271084
v 0.255660 0.435590 0.067856
vn -0.019206 0.162666 -0.013040
v 0.669400 0.508247 0.047109
vn 0.204512 0.263963 3.125871
v 0.669400 0.470266 0.051349
vn 0.341447 0.021307 3.126389
v 0.669400 0.378572 0.053104
vn 0.318901 -0.232996 3.122754
v 0.669400 0.286878 0.051349
vn 0.045434 -0.211842 -0.022677
v 0.669400 0.248897 0.047109
vn -0.158716 -0.002677 -3.137532
v 0.669400 0.286878 0.047067
vn -0.157334 -0.000217 -3.137631
v 0.669400 0.378572 0.047049
vn -0.157557 0.002366 -3.137591
v 0.669400 0.470266 0.047067
vn 0.872996 0.000023 -2.084369
v 0.634967 0.378164 0.061488
vn 1.894272 -3.678556 -3.536285
v 0.644578 0.384079 0.061488
vn 0.758867 -4.934135 -1.218845
v 0.654189 0.385557 0.061488
vn 0.663295 -4.939584 -1.004751
v 0.663800 0.387036 0.061488
vn 0.174478 -4.962199 -0.374680
v 0.673412 0.387406 0.061488
vn 0.066650 -4.961976 -0.224516
v 0.692634 0.387775 0.061488
vn -0.167913 -4.955798 0.099607
v 0.750301 0.387036 0.061488
vn -0.852982 0.000009 0.498174
v 0.827190 0.378164 0.061488
vn -0.167913 4.955808 0.099599
v 0.750301 0.369292 0.061488
vn 0.066860 4.961977 -0.224741
v 0.692634 0.368553 0.061488
vn 0.174097 4.962209 -0.374283
v 0.673412 0.368923 0.061488
vn 0.663209 4.939594 -1.004581
v 0.663800 0.369292 0.061488
vn 0.759286 4.934084 -1.219433
v 0.654189 0.370771 0.061488
vn 1.894292 3.678935 -3.536193
v 0.644578 0.372250 0.061488
vn 1.780645 -1.125972 -3.244897
v 0.909507 0.470382 0.180143
vn 0.594418 -2.837879 0.768707
v 0.912782 0.472397 0.180143
vn 0.445033 -2.891081 1.145995
v 0.916057 0.472901 0.180143
vn 0.148728 -2.630586 1.594505
v 0.919331 0.473405 0.180143
vn 0.057732 -2.589545 1.758356
v 0.922606 0.473531 0.180143
vn -0.017813 -2.512432 1.853980
v 0.929155 0.473656 0.180143
vn -0.212292 -2.298139 2.027956
v 0.948803 0.473405 0.180143
vn -0.143998 -0.024326 0.198288
v 0.975000 0.470382 0.180143
vn -0.253867 2.651062 -1.766377
v 0.948803 0.467359 0.180143
vn -0.017119 2.448798 -1.999835
v 0.929155 0.467107 0.180143
vn 0.053872 2.371973 -2.078405
v 0.922606 0.467233 0.180143
vn 0.138229 2.325907 -2.220003
v 0.919331 0.467359 0.180143
vn 0.314476 2.042979 -2.365740
v 0.916057 0.467863 0.180143
vn 0.487724 2.020451 -2.739106
v 0.912782 0.468367 0.180143
vn 1.780713 1.126291 -3.244813
v 0.909507 0.285946 0.180143
vn 0.487435 -2.021156 -2.739029
v 0.912782 0.287962 0.180143
vn 0.314352 -2.042974 -2.365463
v 0.916057 0.288465 0.180143
vn 0.138229 -2.325899 -2.220012
v 0.919331 0.288969 0.180143
vn 0.053872 -2.371965 -2.078415
v 0.922606 0.289095 0.180143
vn -0.017122 -2.448803 -1.999828
v 0.929155 0.289221 0.180143
vn -0.253868 -2.651068 -1.766368
v 0.948803 0.288969 0.180143
vn -0.143973 0.024324 0.198255
v 0.975000 0.285946 0.180143
vn -0.212261 2.298210 2.027974
v 0.948803 0.282924 0.180143
vn -0.017851 2.512305 1.853944
v 0.929155 0.282672 0.180143
vn 0.058070 2.589937 1.757928
v 0.922606 0.282798 0.180143
vn 0.148727 2.630588 1.594502
v 0.919331 0.282924 0.180143
vn 0.444915 2.891110 1.146266
v 0.916057 0.283428 0.180143
vn 0.593571 2.837314 0.770160
v 0.912782 0.283931 0.180143
vn -6.283185 -6.283185 -6.283185
v 0.201997 0.376562 0.029268
vn 6.283185 -6.283185 -6.283185
v 0.221219 0.376562 0.029268
vn 6.283185 6.283185 -6.283185
v 0.221219 0.386173 0.029268
vn -6.283185 6.283185 -6.283185
v 0.201997 0.386173 0.029268
vn -6.283185 -6.283185 6.283185
v 0.201997 0.376562 0.045287
vn 6.283185 -6.283185 6.283185
v 0.221219 0.376562 0.045287
vn 6.283185 6.283185 6.283185
v 0.221219 0.386173 0.045287
vn -6.283185 6.283185 6.283185
v 0.201997 0.386173 0.045287
vn -1.570796 -1.570796 -1.570796
v 0.201997 0.366310 0.029268
vn 1.570796 -1.570796 -1.570796
v 0.285294 0.366310 0.029268
vn 1.570796 1.570796 -1.570796
v 0.285294 0.396425 0.029268
vn -1.570796 1.570796 -1.570796
v 0.201997 0.396425 0.029268
vn -1.570796 -1.570796 1.570796
v 0.201997 0.366310 0.044646
vn 1.570796 -1.570796 1.570796
v 0.285294 0.366310 0.044646
vn 1.570796 1.570796 1.570796
v 0.285294 0.396425 0.044646
vn -1.570796 1.570796 1.570796
v 0.201997 0.396425 0.044646
# 183 vertices, 0 vertices normals

f 1//1 16//16 15//15
f 2//2 17//17 16//16
f 3//3 18//18 17//17
f 4//4 19//19 18//18
f 5//5 20//20 19//19
f 6//6 21//21 20//20
f 7//7 22//22 21//21
f 8//8 21//21 22//22
f 9//9 20//20 21//21
f 10//10 19//19 20//20
f 11//11 18//18 19//19
f 12//12 17//17 18//18
f 13//13 16//16 17//17
f 14//14 15//15 16//16
f 1//1 2//2 16//16
f 2//2 3//3 17//17
f 3//3 4//4 18//18
f 4//4 5//5 19//19
f 5//5 6//6 20//20
f 6//6 7//7 21//21
f 7//7 8//8 22//22
f 8//8 9//9 21//21
f 9//9 10//10 20//20
f 10//10 11//11 19//19
f 11//11 12//12 18//18
f 12//12 13//13 17//17
f 13//13 14//14 16//16
f 14//14 1//1 15//15
f 1//1 24//24 23//23
f 2//2 25//25 24//24
f 3//3 26//26 25//25
f 4//4 27//27 26//26
f 5//5 28//28 27//27
f 6//6 29//29 28//28
f 7//7 30//30 29//29
f 8//8 29//29 30//30
f 9//9 28//28 29//29
f 10//10 27//27 28//28
f 11//11 26//26 27//27
f 12//12 25//25 26//26
f 13//13 24//24 25//25
f 14//14 23//23 24//24
f 1//1 2//2 24//24
f 2//2 3//3 25//25
f 3//3 4//4 26//26
f 4//4 5//5 27//27
f 5//5 6//6 28//28
f 6//6 7//7 29//29
f 7//7 8//8 30//30
f 8//8 9//9 29//29
f 9//9 10//10 28//28
f 10//10 11//11 27//27
f 11//11 12//12 26//26
f 12//12 13//13 25//25
f 13//13 14//14 24//24
f 14//14 1//1 23//23
f 31//31 46//46 45//45
f 32//32 47//47 46//46
f 33//33 48//48 47//47
f 34//34 49//49 48//48
f 35//35 50//50 49//49
f 36//36 51//51 50//50
f 37//37 52//52 51//51
f 38//38 51//51 52//52
f 39//39 50//50 51//51
f 40//40 49//49 50//50
f 41//41 48//48 49//49
f 42//42 47//47 48//48
f 43//43 46//46 47//47
f 44//44 45//45 46//46
f 31//31 32//32 46//46
f 32//32 33//33 47//47
f 33//33 34//34 48//48
f 34//34 35//35 49//49
f 35//35 36//36 50//50
f 36//36 37//37 51//51
f 37//37 38//38 52//52
f 38//38 39//39 51//51
f 39//39 40//40 50//50
f 40//40 41//41 49//49
f 41//41 42//42 48//48
f 42//42 43//43 47//47
f 43//43 44//44 46//46
f 44//44 31//31 45//45
f 31//31 54//54 53//53
f 32//32 55//55 54//54
f 33//33 56//56 55//55
f 34//34 57//57 56//56
f 35//35 58//58 57//57
f 36//36 59//59 58//58
f 37//37 60//60 59//59
f 38//38 59//59 60//60
f 39//39 58//58 59//59
f 40//40 57//57 58//58
f 41//41 56//56 57//57
f 42//42 55//55 56//56
f 43//43 54//54 55//55
f 44//44 53//53 54//54
f 31//31 32//32 54//54
f 32//32 33//33 55//55
f 33//33 34//34 56//56
f 34//34 35//35 57//57
f 35//35 36//36 58//58
f 36//36 37//37 59//59
f 37//37 38//38 60//60
f 38//38 39//39 59//59
f 39//39 40//40 58//58
f 40//40 41//41 57//57
f 41//41 42//42 56//56
f 42//42 43//43 55//55
f 43//43 44//44 54//54
f 44//44 31//31 53//53
f 61//61 63//63 62//62
f 61//61 64//64 63//63
f 61//61 65//65 64//64
f 61//61 66//66 65//65
f 61//61 67//67 66//66
f 61//61 68//68 67//67
f 61//61 69//69 68//68
f 61//61 62//62 69//69
f 62//62 71//71 70//70
f 63//63 72//72 71//71
f 64//64 73//73 72//72
f 65//65 74//74 73//73
f 66//66 75//75 74//74
f 67//67 76//76 75//75
f 68//68 77//77 76//76
f 69//69 70//70 77//77
f 62//62 63//63 71//71
f 63//63 64//64 72//72
f 64//64 65//65 73//73
f 65//65 66//66 74//74
f 66//66 67//67 75//75
f 67//67 68//68 76//76
f 68//68 69//69 77//77
f 69//69 62//62 70//70
f 61//61 63//63 62//62
f 61//61 64//64 63//63
f 61//61 65//65 64//64
f 61//61 66//66 65//65
f 61//61 67//67 66//66
f 61//61 68//68 67//67
f 61//61 69//69 68//68
f 61//61 62//62 69//69
f 62//62 71//71 70//70
f 63//63 72//72 71//71
f 64//64 73//73 72//72
f 65//65 74//74 73//73
f 66//66 75//75 74//74
f 67//67 76//76 75//75
f 68//68 77//77 76//76
f 69//69 70//70 77//77
f 62//62 63//63 71//71
f 63//63 64//64 72//72
f 64//64 65//65 73//73
f 65//65 66//66 74//74
f 66//66 67//67 75//75
f 67//67 68//68 76//76
f 68//68 69//69 77//77
f 69//69 62//62 70//70
f 78//78 87//87 86//86
f 79//79 88//88 87//87
f 80//80 89//89 88//88
f 81//81 90//90 89//89
f 82//82 91//91 90//90
f 83//83 92//92 91//91
f 84//84 93//93 92//92
f 85//85 86//86 93//93
f 86//86 95//95 94//94
f 87//87 96//96 95//95
f 88//88 97//97 96//96
f 89//89 98//98 97//97
f 90//90 99//99 98//98
f 91//91 100//100 99//99
f 92//92 101//101 100//100
f 93//93 94//94 101//101
f 78//78 79//79 87//87
f 79//79 80//80 88//88
f 80//80 81//81 89//89
f 81//81 82//82 90//90
f 82//82 83//83 91//91
f 83//83 84//84 92//92
f 84//84 85//85 93//93
f 85//85 78//78 86//86
f 86//86 87//87 95//95
f 87//87 88//88 96//96
f 88//88 89//89 97//97
f 89//89 90//90 98//98
f 90//90 91//91 99//99
f 91//91 92//92 100//100
f 92//92 93//93 101//101
f 93//93 86//86 94//94
f 102//102 111//111 110//110
f 103//103 112//112 111//111
f 104//104 113//113 112//112
f 105//105 114//114 113//113
f 106//106 115//115 114//114
f 107//107 116//116 115//115
f 108//108 117//117 116//116
f 109//109 110//110 117//117
f 110//110 119//119 118//118
f 111//111 120//120 119//119
f 112//112 121//121 120//120
f 113//113 122//122 121//121
f 114//114 123//123 122//122
f 115//115 124//124 123//123
f 116//116 125//125 124//124
f 117//117 118//118 125//125
f 102//102 103//103 111//111
f 103//103 104//104 112//112
f 104//104 105//105 113//113
f 105//105 106//106 114//114
f 106//106 107//107 115//115
f 107//107 108//108 116//116
f 108//108 109//109 117//117
f 109//109 102//102 110//110
f 110//110 111//111 119//119
f 111//111 112//112 120//120
f 112//112 113//113 121//121
f 113//113 114//114 122//122
f 114//114 115//115 123//123
f 115//115 116//116 124//124
f 116//116 117//117 125//125
f 117//117 110//110 118//118
f 126//126 141//141 140//140
f 127//127 142//142 141//141
f 128//128 143//143 142//142
f 129//129 144//144 143//143
f 130//130 145//145 144//144
f 131//131 146//146 145//145
f 132//132 147//147 146//146
f 133//133 148//148 147//147
f 134//134 149//149 148//148
f 135//135 150//150 149//149
f 136//136 151//151 150//150
f 137//137 152//152 151//151
f 138//138 153//153 152//152
f 139//139 140//140 153//153
f 126//126 127//127 141//141
f 127//127 128//128 142//142
f 128//128 129//129 143//143
f 129//129 130//130 144//144
f 130//130 131//131 145//145
f 131//131 132//132 146//146
f 132//132 133//133 147//147
f 133//133 134//134 148//148
f 134//134 135//135 149//149
f 135//135 136//136 150//150
f 136//136 137//137 151//151
f 137//137 138//138 152//152
f 138//138 139//139 153//153
f 139//139 126//126 140//140
f 126//126 155//155 154//154
f 127//127 156//156 155//155
f 128//128 157//157 156//156
f 129//129 158//158 157//157
f 130//130 159//159 158//158
f 131//131 160//160 159//159
f 132//132 161//161 160//160
f 133//133 162//162 161//161
f 134//134 163//163 162//162
f 135//135 164//164 163//163
f 136//136 165//165 164//164
f 137//137 166//166 165//165
f 138//138 167//167 166//166
f 139//139 154//154 167//167
f 126//126 127//127 155//155
f 127//127 128//128 156//156
f 128//128 129//129 157//157
f 129//129 130//130 158//158
f 130//130 131//131 159//159
f 131//131 132//132 160//160
f 132//132 133//133 161//161
f 133//133 134//134 162//162
f 134//134 135//135 163//163
f 135//135 136//136 164//164
f 136//136 137//137 165//165
f 137//137 138//138 166//166
f 138//138 139//139 167//167
f 139//139 126//126 154//154
f 168//168 171//171 169//169
f 169//169 171//171 170//170
f 168//168 173//173 172//172
f 168//168 169//169 173//173
f 168//168 172//172 171//171
f 171//171 172//172 175//175
f 171//171 175//175 174//174
f 171//171 174//174 170//170
f 169//169 174//174 173//173
f 169//169 170//170 174//174
f 173//173 175//175 172//172
f 173//173 174//174 175//175
f 176//176 179//179 177//177
f 177//177 179//179 178//178
f 176//176 181//181 180//180
f 176//176 177//177 181//181
f 176//176 180//180 179//179
f 179//179 180//180 183//183
f 179//179 183//183 182//182
f 179//179 182//182 178//178
f 177//177 182//182 181//181
f 177//177 178//178 182//182
f 181//181 183//183 180//180
f 181//181 182//182 183//183
f 168//168 171//171 169//169
f 169//169 171//171 170//170
f 168//168 173//173 172//172
f 168//168 169//169 173//173
f 168//168 172//172 171//171
f 171//171 172//172 175//175
f 171//171 175//175 174//174
f 171//171 174//174 170//170
f 169//169 174//174 173//173
f 169//169 170//170 174//174
f 173//173 175//175 172//172
f 173//173 174//174 175//175
f 168//168 171//171 169//169
f 169//169 171//171 170//170
f 168//168 173//173 172//172
f 168//168 169//169 173//173
f 168//168 172//172 171//171
f 171//171 172//172 175//175
f 171//171 175//175 174//174
f 171//171 174//174 170//170
f 169//169 174//174 173//173
f 169//169 170//170 174//174
f 173//173 175//175 172//172
f 173//173 174//174 175//175
f 168//168 171//171 169//169
f 169//169 171//171 170//170
f 168//168 173//173 172//172
f 168//168 169//169 173//173
f 168//168 172//172 171//171
f 171//171 172//172 175//175
f 171//171 175//175 174//174
f 171//171 174//174 170//170
f 169//169 174//174 173//173
f 169//169 170//170 174//174
f 173//173 175//175 172//172
f 173//173 174//174 175//175
# 340 faces, 0 coords texture

# End of File
