####
#
# OBJ File Generated by Meshlab
#
####
# Object m1235.obj
#
# Vertices: 193
# Faces: 376
#
####
vn -6.083344 1.263451 -0.306110
v 0.461978 0.117024 0.339646
vn -4.239001 3.561915 -0.005850
v 0.468039 0.144026 0.339095
vn -4.238615 3.391899 -0.701800
v 0.470795 0.130800 0.172680
vn -5.281504 -1.394333 -0.550028
v 0.464182 0.099391 0.173231
vn -5.447609 -1.454617 -0.093846
v 0.458672 0.099391 0.339646
vn 0.050284 5.455315 -2.289652
v 0.500000 0.144026 0.173231
vn 0.002290 5.240482 -1.752809
v 0.500000 0.123086 0.072390
vn -4.055061 3.220852 -1.640406
v 0.485673 0.116473 0.072390
vn -2.179106 3.595541 1.816211
v 0.493387 0.140719 0.173231
vn -5.157258 -1.389666 -1.375682
v 0.482367 0.099391 0.072390
vn -0.619889 -6.251189 0.001764
v 0.471897 0.083962 0.541328
vn -1.805574 -5.855209 -0.136738
v 0.471897 0.083962 0.513225
vn 0.005680 -6.263484 0.006974
v 0.500000 0.081757 0.541328
vn -2.612982 -5.141058 -0.296513
v 0.478509 0.083411 0.173231
vn -2.648677 -5.154817 -0.044746
v 0.471897 0.083962 0.339646
vn 0.001412 -6.259121 -0.087624
v 0.500000 0.081757 0.173231
vn -0.000192 -6.263963 0.000280
v 0.500000 0.081757 0.339646
vn -2.468869 -5.021934 -1.085811
v 0.495041 0.085064 0.072390
vn 0.007121 -6.045571 -1.011399
v 0.500000 0.084513 0.072390
vn -0.000000 -0.062457 -0.745918
v 0.500000 0.099391 0.025000
vn 0.000000 0.000000 0.000000
v 0.612964 0.129147 0.689559
vn 1.441443 0.668083 0.244860
v 0.612964 0.129147 0.654292
vn 0.358754 0.013545 -0.027138
v 0.666415 0.129147 0.541328
vn 0.000000 0.000000 0.000000
v 0.965632 0.129147 0.654292
vn 0.000000 0.000000 0.000000
v 0.971694 0.129147 0.665864
vn 0.000000 -0.000000 0.000000
v 0.975000 0.129147 0.707744
vn -0.770958 -5.627035 0.123363
v 0.569432 0.047593 0.701682
vn -0.001303 0.005244 0.003231
v 0.574391 0.025000 0.725377
vn -0.014434 0.052746 -0.021226
v 0.567778 0.043185 0.864240
vn -0.748401 -5.455844 0.528873
v 0.565023 0.052001 0.885731
vn 2.386923 5.777076 0.299889
v 0.523144 0.117024 0.674681
vn 1.665922 1.579466 1.725577
v 0.535818 0.099391 0.915487
vn 0.509159 5.612455 0.655618
v 0.535267 0.101044 0.885731
vn 0.397539 6.100082 0.287961
v 0.531410 0.115371 0.658701
vn -1.036461 6.190693 0.274219
v 0.573840 0.119780 0.724275
vn -0.098733 5.751038 0.756785
v 0.565023 0.111514 0.885731
vn -2.253284 5.688308 -0.032961
v 0.595331 0.122535 0.737500
vn 5.978890 1.755769 0.173174
v 0.602494 0.081207 0.736398
vn 0.015789 0.000054 -0.006890
v 0.734745 0.081757 0.891241
vn 0.006364 0.000008 0.002025
v 0.743562 0.081757 0.927059
vn 0.001557 0.000003 0.003790
v 0.729785 0.081757 0.948550
vn -0.004780 0.000016 0.008444
v 0.620679 0.081757 0.912181
vn 5.616453 0.070905 0.612050
v 0.600841 0.081757 0.885731
vn 5.164420 -1.760520 -0.174887
v 0.609658 0.066879 0.636108
vn 0.004955 5.286639 1.096969
v 0.500000 0.170476 0.387036
vn -4.554918 3.566213 0.788998
v 0.484020 0.161108 0.386485
vn 0.000000 5.752641 0.799819
v 0.500000 0.135209 0.541328
vn -4.407018 3.651930 0.532594
v 0.479060 0.144026 0.386485
vn -4.485142 3.662692 0.142552
v 0.476305 0.147883 0.339095
vn -0.817406 5.935139 0.308558
v 0.463080 0.121433 0.513225
vn -2.536279 5.698500 0.570524
v 0.483469 0.127494 0.541328
vn -3.348506 -4.981398 -0.566425
v 0.458672 0.099391 0.428364
vn 1.570796 -1.570796 1.570796
v 0.514878 0.090574 0.935876
vn 0.000000 -3.410210 3.141593
v 0.500000 0.090574 0.935876
vn 0.000000 -1.436488 1.267934
v 0.497245 0.090574 0.915487
vn 1.568951 -1.643340 4.681346
v 0.514878 0.090574 0.915487
vn 0.342151 0.026606 -0.499563
v 0.452610 0.123086 0.322013
vn -0.310149 0.145543 -0.560412
v 0.416792 0.129147 0.322013
vn 0.416872 6.231619 0.042415
v 0.404118 0.131352 0.513225
vn 1.095362 6.183507 0.066817
v 0.450957 0.123637 0.513225
vn 5.564860 -1.244015 -0.409875
v 0.451508 0.119780 0.347912
vn 2.249704 -3.747434 -0.534786
v 0.446549 0.102697 0.430017
vn 3.570349 -3.260419 -2.180140
v 0.440487 0.079553 0.452059
vn 0.003842 -6.257045 0.005142
v 0.500000 0.081757 0.636108
vn 2.658678 -4.190516 -0.172773
v 0.458121 0.085615 0.635557
vn 1.570695 1.572314 1.581823
v 0.514878 0.099391 0.935876
vn 0.000000 3.141593 3.141593
v 0.500000 0.099391 0.935876
vn 1.051715 -5.658098 -0.478653
v 0.428915 0.045940 0.636108
vn -2.092957 -5.139241 0.071054
v 0.409629 0.045940 0.661456
vn -2.242172 -1.299372 -1.785293
v 0.401914 0.081757 0.449304
vn 1.768585 -3.040108 -1.794167
v 0.438834 0.072941 0.455365
vn 4.526740 -3.693295 -0.291084
v 0.448753 0.058063 0.636108
vn -5.164420 -1.760520 -0.174887
v 0.390342 0.066879 0.636108
vn -3.921095 -1.611917 -2.635789
v 0.405220 0.087268 0.446549
vn -3.452250 -2.795762 -0.274298
v 0.401914 0.122535 0.530858
vn -0.358754 0.013545 -0.027138
v 0.333585 0.129147 0.541328
vn -4.320576 -2.430434 0.337403
v 0.399159 0.120331 0.636108
vn -1.439416 0.667563 0.249005
v 0.387036 0.129147 0.654292
vn -0.449770 6.083367 0.312813
v 0.468590 0.115371 0.658701
vn -2.381433 5.778663 0.301907
v 0.476856 0.117024 0.674681
vn -1.665805 1.545536 1.685076
v 0.464182 0.099391 0.915487
vn -1.567542 4.598601 1.943606
v 0.484571 0.099391 0.915487
vn 0.000000 6.268889 0.299374
v 0.500000 0.099391 0.915487
vn -0.000000 -3.141247 3.702596
v 0.500000 0.081757 0.915487
vn 1.487909 6.083432 0.340733
v 0.456468 0.113718 0.737500
vn 0.088605 5.939578 0.786125
v 0.434977 0.111514 0.885731
vn -2.167001 2.184075 0.476700
v 0.464733 0.101044 0.885731
vn 0.993782 6.198768 0.226909
v 0.426160 0.119780 0.724275
vn -0.429064 6.077302 0.557384
v 0.404669 0.122535 0.737500
vn -3.935944 4.032696 0.717005
v 0.407976 0.102146 0.885731
vn -5.979503 1.755774 0.174742
v 0.397506 0.081207 0.736398
vn -5.637678 0.066624 0.610404
v 0.399159 0.081757 0.885731
vn -3.771528 -4.105198 0.633765
v 0.407976 0.060818 0.885731
vn 3.940881 -4.848858 0.021629
v 0.430568 0.047593 0.701682
vn 0.755091 -5.459241 0.524348
v 0.434977 0.052001 0.885731
vn 4.351685 -4.157660 0.470239
v 0.452610 0.063573 0.885731
vn 2.602082 -4.668545 0.428512
v 0.463631 0.082309 0.885731
vn -1.552130 -1.556303 1.533841
v 0.464182 0.081757 0.915487
vn 1.565487 1.445944 1.675516
v 0.515429 0.099391 0.915487
vn 3.452250 -2.795762 -0.274298
v 0.598086 0.122535 0.530858
vn 2.239330 -1.298628 -1.785627
v 0.598086 0.081757 0.449304
vn 3.920189 -1.615658 -2.632181
v 0.594780 0.087268 0.446549
vn 1.552015 -1.589036 1.570105
v 0.535818 0.081757 0.915487
vn -2.584205 -4.711029 0.424990
v 0.536369 0.082309 0.885731
vn -2.662453 -4.190873 -0.176943
v 0.541879 0.085615 0.635557
vn -4.526740 -3.693295 -0.291084
v 0.551247 0.058063 0.636108
vn -4.359437 -4.135615 0.497783
v 0.547390 0.063573 0.885731
vn -1.052205 -5.658240 -0.478250
v 0.571085 0.045940 0.636108
vn -1.570223 1.597814 1.613231
v 0.485122 0.099391 0.935876
vn -1.567738 -1.668771 4.649976
v 0.485122 0.090574 0.915487
vn -1.570419 -1.596298 1.602208
v 0.485122 0.090574 0.935876
vn 0.000000 -1.436488 1.267934
v 0.502755 0.090574 0.915487
vn 0.015788 -0.000054 0.006890
v 0.265255 0.081757 0.891241
vn 0.006364 -0.000008 -0.002025
v 0.256439 0.081757 0.927059
vn 0.001557 -0.000003 -0.003790
v 0.270215 0.081757 0.948550
vn -0.004780 -0.000016 -0.008444
v 0.379321 0.081757 0.912181
vn -0.001303 -0.005244 -0.003231
v 0.425609 0.025000 0.725377
vn -0.014434 -0.052746 0.021226
v 0.432222 0.043185 0.864240
vn 0.000000 -0.000000 0.000000
v 0.387036 0.129147 0.689559
vn 0.000000 0.000000 0.000000
v 0.034368 0.129147 0.654292
vn 0.000000 0.000000 0.000000
v 0.028306 0.129147 0.665864
vn 0.000000 -0.000000 0.000000
v 0.025000 0.129147 0.707744
vn 5.442475 -1.420418 -0.110847
v 0.541328 0.099391 0.339646
vn 5.282861 -1.392635 -0.549144
v 0.535818 0.099391 0.173231
vn 4.221129 3.397798 -0.705505
v 0.529205 0.130800 0.172680
vn 4.235351 3.543617 -0.007319
v 0.531961 0.144026 0.339095
vn 4.514462 0.915044 -2.924217
v 0.538022 0.117024 0.339646
vn 2.920097 5.252878 -1.579247
v 0.506613 0.140719 0.173231
vn 4.051503 3.226184 -1.642987
v 0.514327 0.116473 0.072390
vn 5.156399 -1.395043 -1.378890
v 0.517633 0.099391 0.072390
vn 1.805574 -5.855209 -0.136738
v 0.528103 0.083962 0.513225
vn 0.613973 -6.251624 0.010403
v 0.528103 0.083962 0.541328
vn 2.647092 -5.157051 -0.040179
v 0.528103 0.083962 0.339646
vn 2.610378 -5.141953 -0.304628
v 0.521491 0.083411 0.173231
vn 2.462816 -5.022247 -1.072046
v 0.504959 0.085064 0.072390
vn 3.762887 -4.111109 0.635492
v 0.592024 0.060818 0.885731
vn 2.092974 -5.139248 0.071121
v 0.590371 0.045940 0.661456
vn 3.936004 4.031399 0.723734
v 0.592024 0.102146 0.885731
vn 4.320576 -2.430434 0.337403
v 0.600841 0.120331 0.636108
vn 1.214709 5.666477 -0.081933
v 0.543532 0.113718 0.737500
vn 4.545972 3.581096 0.800536
v 0.515980 0.161108 0.386485
vn 2.550607 5.692823 0.576593
v 0.516531 0.127494 0.541328
vn 0.802712 5.940209 0.310145
v 0.536920 0.121433 0.513225
vn 4.498137 3.639062 0.154383
v 0.523695 0.147883 0.339095
vn 5.050495 3.217777 0.533575
v 0.520940 0.144026 0.386485
vn 3.332419 -4.991134 -0.544076
v 0.541328 0.099391 0.428364
vn -1.091308 6.184319 0.075205
v 0.549043 0.123637 0.513225
vn -0.417247 6.231501 0.045039
v 0.595882 0.131352 0.513225
vn 0.312382 0.146516 -0.563697
v 0.583208 0.129147 0.322013
vn -0.344514 0.026682 -0.502255
v 0.547390 0.123086 0.322013
vn -5.499072 -1.282568 -0.461774
v 0.548492 0.119780 0.347912
vn -2.236503 -3.750102 -0.517439
v 0.553451 0.102697 0.430017
vn -3.567977 -3.262193 -2.178358
v 0.559513 0.079553 0.452059
vn -1.766626 -3.037971 -1.795445
v 0.561166 0.072941 0.455365
vn 4.554461 3.498264 -0.333495
v 0.523695 0.144026 0.292256
vn 4.103150 3.866638 -0.698868
v 0.523695 0.137413 0.223927
vn 0.000000 0.000000 -0.000000
v 0.428364 0.119229 0.731439
vn 0.000032 0.000025 0.000979
v 0.428364 0.128596 0.776073
vn -0.000518 0.003204 -0.001094
v 0.416792 0.236050 0.891241
vn 0.000075 -0.000497 0.000049
v 0.418445 0.238805 0.944693
vn -0.001724 0.009312 -0.011768
v 0.435528 0.113718 0.915487
vn 0.000000 0.000000 0.000000
v 0.571636 0.119229 0.731439
vn 0.000032 -0.000025 -0.000979
v 0.571636 0.128596 0.776073
vn -0.000518 -0.003204 0.001094
v 0.583208 0.236050 0.891241
vn 0.000075 0.000497 -0.000049
v 0.581555 0.238805 0.944693
vn -0.001724 -0.009312 0.011768
v 0.564472 0.113718 0.915487
vn -4.441980 3.563234 -0.305131
v 0.476305 0.144026 0.292256
vn -3.841014 3.952190 -0.739250
v 0.476305 0.137413 0.223927
vn -2.970404 -1.005205 3.060537
v 0.541879 0.082309 0.920447
vn -2.061043 -1.984006 3.205096
v 0.551798 0.067430 0.920998
vn -0.359099 -2.852949 2.741099
v 0.566125 0.058063 0.920998
vn 1.972269 -2.175045 2.853067
v 0.587065 0.065226 0.920998
vn 2.950232 0.006038 2.888322
v 0.594229 0.081757 0.920998
vn 1.972454 2.173162 2.828817
v 0.587065 0.098289 0.920998
vn 0.059438 2.992685 3.027909
v 0.566125 0.105452 0.920998
vn -2.118015 1.458762 2.365309
v 0.541328 0.097738 0.920998
vn 2.145545 1.533143 2.344266
v 0.458672 0.097738 0.920998
vn -0.036928 3.041720 3.004162
v 0.433875 0.105452 0.920998
vn -1.996277 2.191271 2.833022
v 0.412935 0.098289 0.920998
vn -2.973555 -0.000436 2.881736
v 0.405771 0.081757 0.920998
vn -2.005366 -2.184275 2.857445
v 0.412935 0.065226 0.920998
vn 0.365115 -2.902638 2.753787
v 0.433875 0.058063 0.920998
vn 2.189348 -2.192555 3.247536
v 0.448202 0.067430 0.920998
vn 3.282150 -1.070299 3.085694
v 0.458121 0.082309 0.920447
vn -0.000504 4.702301 -1.746039
v 0.500000 0.170476 0.215110
vn 4.348955 3.108577 -1.306179
v 0.517633 0.161108 0.219519
vn -4.347685 3.110782 -1.308155
v 0.482367 0.161108 0.219519
vn -4.532012 3.442812 0.449209
v 0.481816 0.168823 0.339646
vn 0.005836 5.307477 0.673174
v 0.500000 0.179292 0.339646
vn -4.421634 3.551087 -0.176603
v 0.483469 0.173231 0.292256
vn 0.001723 5.242496 -0.216214
v 0.500000 0.182599 0.292256
vn 4.418339 3.557203 -0.181006
v 0.516531 0.173231 0.292256
vn 4.521421 3.464622 0.455054
v 0.518184 0.168823 0.339646
# 193 vertices, 0 vertices normals

f 1//1 2//2 3//3
f 6//6 7//7 8//8
f 3//3 8//8 10//10
f 11//11 12//12 13//13
f 5//5 4//4 14//14
f 15//15 14//14 16//16
f 4//4 10//10 18//18
f 14//14 18//18 19//19
f 20//20 8//8 7//7
f 20//20 10//10 8//8
f 20//20 18//18 10//10
f 20//20 19//19 18//18
f 31//31 32//32 33//33
f 35//35 36//36 37//37
f 43//43 44//44 38//38
f 45//45 46//46 47//47
f 48//48 49//49 2//2
f 48//48 51//51 46//46
f 51//51 47//47 46//46
f 50//50 2//2 1//1
f 1//1 5//5 52//52
f 52//52 5//5 15//15
f 12//12 15//15 17//17
f 53//53 54//54 55//55
f 57//57 58//58 59//59
f 1//1 61//61 60//60
f 60//60 61//61 57//57
f 52//52 62//62 61//61
f 62//62 63//63 57//57
f 64//64 65//65 11//11
f 53//53 66//66 67//67
f 68//68 69//69 70//70
f 72//72 68//68 71//71
f 62//62 52//52 12//12
f 65//65 12//12 11//11
f 12//12 65//65 62//62
f 69//69 73//73 70//70
f 58//58 74//74 75//75
f 58//58 76//76 59//59
f 58//58 75//75 76//76
f 73//73 77//77 75//75
f 59//59 76//76 78//78
f 76//76 75//75 77//77
f 76//76 77//77 78//78
f 51//51 50//50 79//79
f 78//78 79//79 60//60
f 50//50 60//60 79//79
f 47//47 81//81 82//82
f 84//84 65//65 64//64
f 85//85 86//86 87//87
f 85//85 88//88 86//86
f 89//89 78//78 90//90
f 78//78 77//77 90//90
f 91//91 92//92 90//90
f 73//73 69//69 93//93
f 73//73 93//93 92//92
f 93//93 69//69 68//68
f 68//68 94//94 95//95
f 96//96 68//68 72//72
f 72//72 97//97 96//96
f 97//97 72//72 65//65
f 87//87 97//97 98//98
f 66//66 53//53 56//56
f 67//67 66//66 99//99
f 100//100 101//101 102//102
f 100//100 44//44 101//101
f 32//32 103//103 104//104
f 105//105 106//106 104//104
f 107//107 104//104 106//106
f 70//70 73//73 75//75
f 74//74 70//70 75//75
f 106//106 108//108 107//107
f 83//83 82//82 109//109
f 82//82 110//110 111//111
f 54//54 67//67 109//109
f 110//110 112//112 54//54
f 91//91 73//73 92//92
f 89//89 86//86 88//88
f 79//79 87//87 81//81
f 123//123 124//124 125//125
f 128//128 125//125 129//129
f 124//124 130//130 129//129
f 13//13 131//131 132//132
f 133//133 134//134 124//124
f 17//17 16//16 134//134
f 134//134 135//135 130//130
f 16//16 19//19 135//135
f 7//7 129//129 20//20
f 129//129 130//130 20//20
f 130//130 135//135 20//20
f 135//135 19//19 20//20
f 136//136 30//30 27//27
f 108//108 137//137 136//136
f 43//43 136//136 44//44
f 136//136 137//137 44//44
f 138//138 43//43 38//38
f 138//138 139//139 22//22
f 36//36 138//138 22//22
f 36//36 35//35 140//140
f 47//47 141//141 45//45
f 142//142 143//143 126//126
f 141//141 142//142 145//145
f 141//141 47//47 142//142
f 127//127 126//126 143//143
f 146//146 123//123 127//127
f 131//131 133//133 123//123
f 13//13 17//17 133//133
f 34//34 33//33 36//36
f 147//147 148//148 149//149
f 143//143 147//147 151//151
f 150//150 151//151 147//147
f 127//127 151//151 152//152
f 151//151 150//150 153//153
f 13//13 132//132 105//105
f 64//64 105//105 84//84
f 154//154 101//101 137//137
f 154//154 108//108 106//106
f 131//131 146//146 152//152
f 132//132 131//131 105//105
f 152//152 105//105 131//131
f 101//101 44//44 137//137
f 100//100 102//102 149//149
f 148//148 23//23 149//149
f 23//23 100//100 149//149
f 100//100 139//139 44//44
f 22//22 23//23 148//148
f 139//139 100//100 23//23
f 22//22 139//139 23//23
f 31//31 34//34 143//143
f 148//148 147//147 34//34
f 34//34 147//147 143//143
f 83//83 99//99 32//32
f 105//105 104//104 84//84
f 104//104 103//103 84//84
f 32//32 31//31 47//47
f 31//31 142//142 47//47
f 152//152 153//153 105//105
f 153//153 154//154 105//105
f 154//154 106//106 105//105
f 138//138 38//38 139//139
f 38//38 44//44 139//139
f 144//144 126//126 155//155
f 126//126 125//125 156//156
f 125//125 128//128 156//156
f 85//85 79//79 88//88
f 79//79 78//78 89//89
f 84//84 110//110 98//98
f 110//110 82//82 81//81
f 84//84 112//112 110//110
f 108//108 27//27 107//107
f 27//27 30//30 107//107
f 96//96 94//94 68//68
f 96//96 95//95 94//94
f 77//77 91//91 90//90
f 77//77 73//73 91//91
f 84//84 97//97 65//65
f 84//84 98//98 97//97
f 47//47 80//80 81//81
f 47//47 51//51 80//80
f 65//65 63//63 62//62
f 65//65 71//71 63//63
f 65//65 72//72 71//71
f 103//103 56//56 84//84
f 103//103 32//32 99//99
f 56//56 55//55 84//84
f 35//35 34//34 140//140
f 35//35 37//37 22//22
f 167//167 2//2 49//49
f 168//168 9//9 3//3
f 167//167 168//168 3//3
f 169//169 170//170 171//171
f 177//177 178//178 179//179
f 96//96 97//97 184//184
f 95//95 96//96 183//183
f 93//93 95//95 182//182
f 176//176 175//175 36//36
f 175//175 174//174 138//138
f 174//174 173//173 43//43
f 173//173 172//172 136//136
f 172//172 171//171 30//30
f 171//171 170//170 107//107
f 87//87 86//86 178//178
f 86//86 90//90 179//179
f 104//104 169//169 176//176
f 90//90 92//92 180//180
f 92//92 93//93 181//181
f 87//87 177//177 184//184
f 170//170 169//169 104//104
f 185//185 186//186 128//128
f 186//186 156//156 128//128
f 9//9 168//168 187//187
f 9//9 187//187 185//185
f 6//6 9//9 185//185
f 49//49 48//48 46//46
f 188//188 46//46 45//45
f 167//167 49//49 188//188
f 190//190 188//188 189//189
f 168//168 167//167 190//190
f 187//187 190//190 191//191
f 185//185 191//191 192//192
f 186//186 192//192 155//155
f 191//191 189//189 193//193
f 192//192 193//193 144//144
f 189//189 45//45 141//141
f 193//193 141//141 145//145
f 185//185 128//128 6//6
f 71//71 70//70 74//74
f 63//63 74//74 58//58
f 150//150 149//149 102//102
f 153//153 102//102 101//101
f 21//21 22//22 23//23
f 26//26 25//25 24//24
f 27//27 28//28 29//29
f 30//30 29//29 28//28
f 38//38 39//39 40//40
f 43//43 42//42 41//41
f 91//91 113//113 114//114
f 92//92 116//116 115//115
f 94//94 117//117 118//118
f 95//95 118//118 117//117
f 119//119 78//78 76//76
f 122//122 121//121 120//120
f 157//157 158//158 86//86
f 86//86 158//158 157//157
f 158//158 159//159 160//160
f 86//86 161//161 160//160
f 162//162 163//163 36//36
f 36//36 163//163 162//162
f 163//163 164//164 165//165
f 36//36 166//166 165//165
f 1//1 3//3 4//4
f 1//1 4//4 5//5
f 6//6 8//8 3//3
f 6//6 3//3 9//9
f 3//3 10//10 4//4
f 5//5 14//14 15//15
f 15//15 16//16 17//17
f 4//4 18//18 14//14
f 14//14 19//19 16//16
f 31//31 33//33 34//34
f 48//48 2//2 50//50
f 48//48 50//50 51//51
f 52//52 15//15 12//12
f 12//12 17//17 13//13
f 53//53 55//55 56//56
f 57//57 59//59 60//60
f 1//1 60//60 50//50
f 52//52 61//61 1//1
f 62//62 57//57 61//61
f 64//64 11//11 13//13
f 53//53 67//67 54//54
f 68//68 70//70 71//71
f 51//51 79//79 80//80
f 78//78 60//60 59//59
f 47//47 82//82 83//83
f 85//85 87//87 79//79
f 89//89 90//90 86//86
f 68//68 95//95 93//93
f 87//87 98//98 81//81
f 66//66 56//56 99//99
f 67//67 99//99 83//83
f 32//32 104//104 33//33
f 83//83 109//109 67//67
f 82//82 111//111 109//109
f 54//54 109//109 111//111
f 110//110 54//54 111//111
f 79//79 81//81 80//80
f 123//123 125//125 126//126
f 123//123 126//126 127//127
f 128//128 129//129 7//7
f 128//128 7//7 6//6
f 124//124 129//129 125//125
f 133//133 124//124 123//123
f 17//17 134//134 133//133
f 134//134 130//130 124//124
f 16//16 135//135 134//134
f 136//136 27//27 108//108
f 36//36 22//22 37//37
f 142//142 126//126 144//144
f 142//142 144//144 145//145
f 131//131 123//123 146//146
f 13//13 133//133 131//131
f 34//34 36//36 140//140
f 147//147 149//149 150//150
f 143//143 151//151 127//127
f 127//127 152//152 146//146
f 151//151 153//153 152//152
f 13//13 105//105 64//64
f 154//154 137//137 108//108
f 31//31 143//143 142//142
f 148//148 34//34 22//22
f 83//83 32//32 47//47
f 126//126 156//156 155//155
f 79//79 89//89 88//88
f 110//110 81//81 98//98
f 103//103 99//99 56//56
f 35//35 22//22 34//34
f 167//167 3//3 2//2
f 169//169 171//171 172//172
f 169//169 172//172 173//173
f 169//169 173//173 174//174
f 169//169 174//174 175//175
f 169//169 175//175 176//176
f 177//177 179//179 180//180
f 177//177 180//180 181//181
f 177//177 181//181 182//182
f 177//177 182//182 183//183
f 177//177 183//183 184//184
f 96//96 184//184 183//183
f 95//95 183//183 182//182
f 93//93 182//182 181//181
f 176//176 36//36 33//33
f 175//175 138//138 36//36
f 174//174 43//43 138//138
f 173//173 136//136 43//43
f 172//172 30//30 136//136
f 171//171 107//107 30//30
f 87//87 178//178 177//177
f 86//86 179//179 178//178
f 104//104 176//176 33//33
f 90//90 180//180 179//179
f 92//92 181//181 180//180
f 87//87 184//184 97//97
f 170//170 104//104 107//107
f 49//49 46//46 188//188
f 188//188 45//45 189//189
f 167//167 188//188 190//190
f 190//190 189//189 191//191
f 168//168 190//190 187//187
f 187//187 191//191 185//185
f 185//185 192//192 186//186
f 186//186 155//155 156//156
f 191//191 193//193 192//192
f 192//192 144//144 155//155
f 189//189 141//141 193//193
f 193//193 145//145 144//144
f 71//71 74//74 63//63
f 63//63 58//58 57//57
f 150//150 102//102 153//153
f 153//153 101//101 154//154
f 21//21 23//23 24//24
f 21//21 24//24 25//25
f 21//21 25//25 26//26
f 26//26 24//24 23//23
f 26//26 23//23 22//22
f 26//26 22//22 21//21
f 27//27 29//29 30//30
f 30//30 28//28 27//27
f 38//38 40//40 41//41
f 38//38 41//41 42//42
f 38//38 42//42 43//43
f 43//43 41//41 40//40
f 43//43 40//40 39//39
f 43//43 39//39 38//38
f 91//91 114//114 115//115
f 91//91 115//115 116//116
f 91//91 116//116 92//92
f 92//92 115//115 114//114
f 92//92 114//114 113//113
f 92//92 113//113 91//91
f 94//94 118//118 95//95
f 95//95 117//117 94//94
f 119//119 76//76 120//120
f 119//119 120//120 121//121
f 119//119 121//121 122//122
f 122//122 120//120 76//76
f 122//122 76//76 78//78
f 122//122 78//78 119//119
f 158//158 160//160 161//161
f 158//158 161//161 86//86
f 86//86 160//160 159//159
f 86//86 159//159 158//158
f 163//163 165//165 166//166
f 163//163 166//166 36//36
f 36//36 165//165 164//164
f 36//36 164//164 163//163
# 376 faces, 0 coords texture

# End of File
