####
#
# OBJ File Generated by Meshlab
#
####
# Object m1245.obj
#
# Vertices: 215
# Faces: 426
#
####
vn -0.000220 4.500018 -3.176516
v 0.500000 0.069113 0.041434
vn -0.000046 4.830618 -3.754858
v 0.500000 0.089735 0.090691
vn 4.237318 2.894238 -2.705775
v 0.533825 0.074895 0.088370
vn 3.057155 2.622750 -3.236427
v 0.516207 0.061738 0.039704
vn 5.586963 -0.576186 -1.787544
v 0.538514 0.059371 0.090737
vn 4.745483 -0.622684 -2.991899
v 0.519257 0.051677 0.041343
vn 3.640826 2.764733 -3.239129
v 0.534644 0.089690 0.101936
vn 5.939413 1.485789 -1.200406
v 0.541837 0.089690 0.123514
vn 5.645881 -0.524212 -0.831713
v 0.548165 0.064515 0.123514
vn 0.000366 5.863699 0.074598
v 0.500000 0.136307 0.215974
vn 0.000398 5.841845 -0.022885
v 0.500000 0.136671 0.186884
vn -4.151047 3.680148 -0.059744
v 0.463763 0.122741 0.187066
vn -4.174262 3.700337 0.038277
v 0.463672 0.122331 0.216020
vn -5.907873 -0.529607 -0.000561
v 0.451198 0.072846 0.260224
vn -4.199241 -1.703588 -1.315389
v 0.459392 0.105396 0.260907
vn -3.686868 3.779383 -1.513659
v 0.463581 0.121967 0.241923
vn -6.089768 1.534878 -0.192953
v 0.455933 0.089690 0.171861
vn -6.091429 1.533800 -0.099735
v 0.455432 0.089690 0.187066
vn -4.173541 3.697849 -0.155900
v 0.463899 0.122695 0.182423
vn 4.150647 3.680823 -0.059175
v 0.536237 0.122741 0.187066
vn 4.173707 3.701147 0.038291
v 0.536328 0.122331 0.216020
vn 5.907970 -0.529595 0.000086
v 0.548802 0.072846 0.260224
vn 5.918470 -0.456211 0.022987
v 0.548802 0.072846 0.187021
vn 0.092029 0.023904 0.675037
v 0.544568 0.089690 0.187066
vn -0.001270 5.856770 0.155858
v 0.500000 0.131026 0.477784
vn -0.006980 5.797194 -0.139547
v 0.500000 0.130753 0.486434
vn 4.168392 3.584931 -0.288501
v 0.506738 0.127156 0.518984
vn 4.161276 3.697170 0.241404
v 0.533506 0.118188 0.476464
vn 4.111218 3.646881 0.071852
v 0.528225 0.117141 0.576071
vn 3.599963 -2.443402 0.428341
v 0.526359 0.113590 0.624873
vn 5.762778 -0.462221 0.946985
v 0.531457 0.093377 0.624828
vn 5.858247 -0.590427 0.453365
v 0.544932 0.072846 0.475872
vn 2.971397 -4.332854 -0.885450
v 0.523900 0.027458 0.091283
vn 2.487848 -3.673609 -2.324323
v 0.510926 0.033695 0.041343
vn -0.000667 -6.179110 -0.430383
v 0.500000 0.025000 0.090691
vn 0.000190 -5.400375 -2.416327
v 0.500000 0.032511 0.041434
vn 3.248889 -4.212544 -0.248832
v 0.531913 0.028778 0.124835
vn -0.001592 -6.250545 0.068979
v 0.500000 0.025455 0.123514
vn 5.878926 -0.510313 -0.043213
v 0.548802 0.067064 0.140176
vn 3.194874 -4.402351 0.152955
v 0.531503 0.028870 0.138993
vn -0.001439 -6.248822 0.050205
v 0.500000 0.025546 0.135578
vn 3.166114 -4.469177 0.106503
v 0.528908 0.029006 0.186475
vn 0.000306 -6.248415 0.052572
v 0.500000 0.025956 0.185701
vn 3.183663 -4.421279 0.025912
v 0.529227 0.029643 0.261772
vn 0.000571 -6.249748 0.053275
v 0.500000 0.026639 0.263137
vn 5.872040 -0.524962 0.153031
v 0.548802 0.072846 0.402715
vn 3.148013 -4.380144 0.185073
v 0.529773 0.030918 0.403489
vn 0.000135 -6.233141 0.217613
v 0.500000 0.027823 0.402715
vn 5.902012 -0.529848 0.311729
v 0.546253 0.072846 0.450879
vn 3.064235 -4.302175 0.673715
v 0.527815 0.035471 0.479924
vn 0.000249 -6.172124 0.754574
v 0.500000 0.032511 0.477784
vn 3.066627 -4.176941 1.285712
v 0.517436 0.062648 0.627650
vn 0.000147 -6.091334 1.369781
v 0.500000 0.060645 0.625601
vn 3.306080 2.053277 2.049673
v 0.511290 0.119964 0.697348
vn 4.066294 3.667542 0.779046
v 0.512428 0.119690 0.691566
vn 0.914795 6.061266 -0.018101
v 0.517709 0.119690 0.624873
vn 4.266308 3.068351 0.173648
v 0.506738 0.123924 0.624828
vn -0.000292 0.929419 2.061721
v 0.500000 0.123970 0.707727
vn 2.371831 -2.634284 2.804050
v 0.505463 0.079219 0.693478
vn 4.993884 -0.499404 2.459188
v 0.517345 0.103029 0.687696
vn 0.000652 -2.512856 3.495217
v 0.500000 0.079401 0.695982
vn 0.000000 -0.411070 -3.443303
v 0.500000 0.046579 0.025000
vn -0.000840 5.862229 0.126897
v 0.500000 0.131618 0.450879
vn 3.674408 3.664741 1.155019
v 0.534872 0.118188 0.450879
vn 3.286927 -2.372273 0.497858
v 0.540608 0.105396 0.402942
vn -0.000033 6.207314 0.557023
v 0.500000 0.132665 0.402350
vn 4.198143 -1.703873 -1.313815
v 0.540608 0.105396 0.260907
vn -0.000409 -0.011666 1.651454
v 0.609122 0.116413 0.450879
vn 0.239955 6.161484 0.847225
v 0.609122 0.126883 0.413504
vn 0.084651 -0.002042 0.057592
v 0.975000 0.107490 0.450879
vn -0.059415 -6.177463 0.804370
v 0.609122 0.105714 0.410499
vn 0.332277 6.273645 0.068510
v 0.609122 0.126883 0.402442
vn 0.129512 -0.003174 -0.051317
v 0.975000 0.107490 0.402715
vn 0.029894 -6.272157 0.058962
v 0.609122 0.105714 0.402897
vn 0.662358 6.039023 -1.025687
v 0.609122 0.129251 0.294276
vn 0.000277 6.123720 -0.485915
v 0.500000 0.135715 0.261954
vn 3.132187 -3.477420 0.090316
v 0.613765 0.105760 0.326325
vn 0.692834 -4.507042 -2.585902
v 0.609122 0.105714 0.283305
vn 1.191735 0.668754 -3.190579
v 0.609122 0.119554 0.268555
vn 3.686089 3.781707 -1.512774
v 0.536419 0.121967 0.241923
vn -6.084482 1.527192 -0.326814
v 0.456934 0.089690 0.139539
vn -5.878836 -0.509656 -0.042324
v 0.451198 0.067064 0.140176
vn -5.918074 -0.455880 0.021331
v 0.451198 0.072846 0.187021
vn 0.088655 0.010238 -0.040669
v 0.682916 0.135123 0.640215
vn 0.047642 0.005366 0.040520
v 0.682916 0.135123 0.697985
vn 0.000000 0.201185 -0.033287
v 0.500000 0.312895 0.684237
vn 0.000000 0.057938 0.061122
v 0.500000 0.311621 0.749336
vn -5.939421 1.485867 -1.200258
v 0.458163 0.089690 0.123514
vn -5.646334 -0.523296 -0.831575
v 0.451835 0.064515 0.123514
vn 2.902647 0.001287 -2.356517
v 0.634797 0.051677 0.222985
vn 2.054402 2.051829 -2.357924
v 0.627286 0.069796 0.222985
vn 2.065546 2.064134 2.357383
v 0.627286 0.069796 0.277523
vn 2.919534 0.001293 2.356467
v 0.634797 0.051677 0.277523
vn 0.000035 2.900588 -2.353148
v 0.609122 0.077353 0.222985
vn 0.006781 5.775128 -0.141523
v 0.609122 0.077353 0.245110
vn 5.259064 1.957028 0.868614
v 0.613037 0.075714 0.277523
vn -2.054410 2.051826 -2.358017
v 0.590957 0.069796 0.222985
vn -2.067019 2.063525 2.358271
v 0.590957 0.069796 0.277523
vn -5.266391 1.900564 0.992208
v 0.605707 0.075942 0.277523
vn -2.902647 0.001287 -2.356517
v 0.583446 0.051677 0.222985
vn -2.919533 0.001293 2.356467
v 0.583446 0.051677 0.277523
vn -2.051842 -2.051825 -2.354994
v 0.590957 0.033513 0.222985
vn -2.063796 -2.063768 2.354944
v 0.590957 0.033513 0.277523
vn 0.000028 -2.903158 -2.357368
v 0.609122 0.026002 0.222985
vn 0.000020 -2.920062 2.357318
v 0.609122 0.026002 0.277523
vn 2.051870 -2.051814 -2.355013
v 0.627286 0.033513 0.222985
vn 2.063838 -2.063758 2.354963
v 0.627286 0.033513 0.277523
vn -0.029673 -6.272158 0.058705
v 0.390878 0.105714 0.402897
vn 0.004334 5.187283 0.741135
v 0.390878 0.066154 0.336796
vn 2.252274 1.460230 2.136528
v 0.394293 0.069523 0.277569
vn 5.266519 1.900506 0.991974
v 0.394293 0.075942 0.277523
vn 3.104381 -3.474344 0.082110
v 0.394793 0.105714 0.326780
vn 0.000837 5.772656 -0.142086
v 0.390878 0.077353 0.245110
vn -0.692329 -4.506773 -2.586357
v 0.390878 0.105714 0.283305
vn -3.132187 -3.477420 0.090316
v 0.386235 0.105760 0.326325
vn -2.249673 1.428945 2.110417
v 0.386963 0.069295 0.277569
vn 2.866195 0.001829 4.155044
v 0.628378 0.051677 0.277569
vn 2.025171 2.027605 4.155748
v 0.622733 0.065289 0.277569
vn 2.088218 2.087870 2.597391
v 0.618636 0.061192 0.349451
vn 2.950043 0.002709 2.591808
v 0.622597 0.051677 0.349451
vn 2.249481 1.429019 2.110143
v 0.613037 0.069295 0.277569
vn 0.049978 5.222448 0.737927
v 0.609122 0.066154 0.336796
vn -0.000062 2.949249 2.590179
v 0.609122 0.065152 0.349451
vn -2.027443 2.026917 4.154136
v 0.595510 0.065289 0.277569
vn -2.866231 0.001556 4.154945
v 0.589865 0.051677 0.277569
vn -2.950073 0.002278 2.591956
v 0.595646 0.051677 0.349451
vn -2.087911 2.088205 2.597544
v 0.599607 0.061192 0.349451
vn -2.023375 -2.026805 4.158601
v 0.595510 0.038020 0.277569
vn -2.083367 -2.088331 2.591477
v 0.599607 0.042117 0.349451
vn 0.000018 -2.869205 4.150528
v 0.609122 0.032420 0.277569
vn 0.000074 -2.953526 2.598432
v 0.609122 0.038202 0.349451
vn 2.023378 -2.026878 4.158429
v 0.622733 0.038020 0.277569
vn 2.083320 -2.088467 2.591732
v 0.618636 0.042117 0.349451
vn -5.258739 1.957155 0.869136
v 0.386963 0.075714 0.277523
vn -2.252129 1.460292 2.136277
v 0.605707 0.069523 0.277569
vn -3.103510 -3.474339 0.081644
v 0.605207 0.105714 0.326780
vn -0.129512 -0.003174 -0.051317
v 0.025000 0.107490 0.402715
vn 6.084445 1.527175 -0.328216
v 0.543066 0.089690 0.139539
vn 3.045922 3.904944 -0.096167
v 0.544067 0.089690 0.171861
vn 4.173054 3.699024 -0.156255
v 0.536101 0.122695 0.182423
vn -3.057657 2.622357 -3.235080
v 0.483793 0.061738 0.039704
vn -4.236835 2.893567 -2.707332
v 0.466175 0.074895 0.088370
vn -4.745664 -0.621499 -2.990918
v 0.480743 0.051677 0.041343
vn -5.586814 -0.574914 -1.789360
v 0.461486 0.059371 0.090737
vn -3.640516 2.765744 -3.239360
v 0.465356 0.089690 0.101936
vn -3.286654 -2.372705 0.497513
v 0.459392 0.105396 0.402942
vn -0.000056 2.948470 2.586025
v 0.390878 0.065152 0.349451
vn 2.087077 2.088452 2.596052
v 0.400393 0.061192 0.349451
vn 2.027353 2.026796 4.154590
v 0.404490 0.065289 0.277569
vn -0.239439 6.161387 0.847616
v 0.390878 0.126883 0.413504
vn -0.084651 -0.002042 0.057592
v 0.025000 0.107490 0.450879
vn 0.000270 -0.011415 1.651623
v 0.390878 0.116413 0.450879
vn -4.160305 3.697476 0.239841
v 0.466494 0.118188 0.476464
vn -4.167008 3.585487 -0.289293
v 0.493262 0.127156 0.518984
vn -5.858193 -0.590414 0.452461
v 0.455068 0.072846 0.475872
vn -5.762597 -0.462035 0.947181
v 0.468543 0.093377 0.624828
vn -3.600030 -2.443580 0.428120
v 0.473641 0.113590 0.624873
vn -4.106542 3.680212 0.074481
v 0.471775 0.117141 0.576071
vn -2.488005 -3.673573 -2.324670
v 0.489074 0.033695 0.041343
vn -2.970101 -4.333623 -0.884810
v 0.476100 0.027458 0.091283
vn -3.247193 -4.213794 -0.247947
v 0.468087 0.028778 0.124835
vn -3.193606 -4.402658 0.153050
v 0.468497 0.028870 0.138993
vn -3.166687 -4.468774 0.105281
v 0.471092 0.029006 0.186475
vn -3.184403 -4.421105 0.026428
v 0.470773 0.029643 0.261772
vn -3.148109 -4.380305 0.184898
v 0.470227 0.030918 0.403489
vn -5.872049 -0.524525 0.153554
v 0.451198 0.072846 0.402715
vn -5.901535 -0.530089 0.312105
v 0.453747 0.072846 0.450879
vn -3.064407 -4.302145 0.673860
v 0.472185 0.035471 0.479924
vn -3.066950 -4.176867 1.285606
v 0.482564 0.062648 0.627650
vn -4.266299 3.068319 0.174787
v 0.493262 0.123924 0.624828
vn -0.914776 6.061238 -0.016943
v 0.482291 0.119690 0.624873
vn -4.004266 3.746395 0.767297
v 0.487572 0.119690 0.691566
vn -3.297829 2.056867 2.043064
v 0.488710 0.119964 0.697348
vn -4.993905 -0.500602 2.458978
v 0.482655 0.103029 0.687696
vn -2.374712 -2.633092 2.806383
v 0.494537 0.079219 0.693478
vn -3.673773 3.664927 1.155482
v 0.465128 0.118188 0.450879
vn 0.058661 -6.177635 0.803790
v 0.390878 0.105714 0.410499
vn -0.332419 6.273635 0.068662
v 0.390878 0.126883 0.402442
vn -0.662843 6.039077 -1.025584
v 0.390878 0.129251 0.294276
vn -1.191350 0.667963 -3.190595
v 0.390878 0.119554 0.268555
vn -0.088655 0.010238 -0.040669
v 0.317084 0.135123 0.640215
vn -0.047642 0.005366 0.040520
v 0.317084 0.135123 0.697985
vn -2.919534 0.001294 2.356467
v 0.365203 0.051677 0.277523
vn -2.065837 2.064005 2.357759
v 0.372714 0.069796 0.277523
vn -2.054438 2.051814 -2.358037
v 0.372714 0.069796 0.222985
vn -2.902647 0.001287 -2.356517
v 0.365203 0.051677 0.222985
vn -0.000028 2.900586 -2.353093
v 0.390878 0.077353 0.222985
vn 2.066911 2.063566 2.358173
v 0.409043 0.069796 0.277523
vn 2.054410 2.051826 -2.358017
v 0.409043 0.069796 0.222985
vn 2.919534 0.001293 2.356467
v 0.416554 0.051677 0.277523
vn 2.902647 0.001287 -2.356517
v 0.416554 0.051677 0.222985
vn 2.063809 -2.063771 2.354944
v 0.409043 0.033513 0.277523
vn 2.051842 -2.051825 -2.354994
v 0.409043 0.033513 0.222985
vn -0.000037 -2.920062 2.357318
v 0.390878 0.026002 0.277523
vn -0.000028 -2.903158 -2.357368
v 0.390878 0.026002 0.222985
vn -2.063824 -2.063758 2.354963
v 0.372714 0.033513 0.277523
vn -2.051870 -2.051814 -2.355013
v 0.372714 0.033513 0.222985
vn -2.089325 -2.085518 2.595776
v 0.381364 0.042117 0.349451
vn -2.950073 0.002278 2.591956
v 0.377403 0.051677 0.349451
vn -2.866230 0.001559 4.154945
v 0.371622 0.051677 0.277569
vn -2.023966 -2.026627 4.157780
v 0.377267 0.038020 0.277569
vn 0.000759 -2.949043 2.589209
v 0.390878 0.038157 0.349451
vn 0.000454 -2.869495 4.149567
v 0.390878 0.032420 0.277569
vn 2.088444 -2.086103 2.594772
v 0.400393 0.042117 0.349451
vn 2.023338 -2.026892 4.158453
v 0.404490 0.038020 0.277569
vn -2.086974 2.088688 2.596382
v 0.381364 0.061192 0.349451
vn -2.024927 2.027872 4.155769
v 0.377267 0.065289 0.277569
vn 2.950043 0.002709 2.591808
v 0.404354 0.051677 0.349451
vn 2.866194 0.001832 4.155044
v 0.410135 0.051677 0.277569
vn -0.000546 4.588616 -3.547059
v 0.500000 0.126337 0.123514
vn 3.590200 2.953385 -2.322641
v 0.535964 0.113272 0.123514
vn -3.589940 2.953517 -2.322194
v 0.464036 0.113272 0.123514
vn -3.638545 3.613889 -1.028369
v 0.465128 0.122285 0.138583
vn -0.000121 5.265904 -1.346690
v 0.500000 0.135715 0.139949
vn 3.638911 3.614480 -1.028048
v 0.534872 0.122285 0.138583
# 215 vertices, 0 vertices normals

f 1//1 2//2 3//3
f 4//4 3//3 5//5
f 2//2 7//7 3//3
f 3//3 7//7 8//8
f 10//10 11//11 12//12
f 14//14 15//15 16//16
f 17//17 18//18 12//12
f 19//19 12//12 11//11
f 20//20 21//21 22//22
f 25//25 26//26 27//27
f 28//28 29//29 30//30
f 6//6 5//5 33//33
f 34//34 33//33 35//35
f 5//5 9//9 37//37
f 33//33 37//37 38//38
f 9//9 39//39 40//40
f 37//37 40//40 41//41
f 39//39 23//23 42//42
f 40//40 42//42 43//43
f 23//23 22//22 44//44
f 42//42 44//44 45//45
f 22//22 46//46 47//47
f 44//44 47//47 48//48
f 46//46 49//49 47//47
f 47//47 50//50 51//51
f 32//32 31//31 52//52
f 50//50 52//52 53//53
f 54//54 55//55 56//56
f 59//59 52//52 31//31
f 59//59 61//61 53//53
f 61//61 60//60 58//58
f 60//60 54//54 58//58
f 61//61 59//59 60//60
f 62//62 1//1 4//4
f 62//62 4//4 6//6
f 62//62 6//6 34//34
f 34//34 36//36 62//62
f 63//63 25//25 28//28
f 64//64 28//28 32//32
f 50//50 47//47 49//49
f 64//64 49//49 46//46
f 66//66 63//63 64//64
f 65//65 46//46 22//22
f 66//66 64//64 68//68
f 70//70 68//68 71//71
f 69//69 72//72 66//66
f 73//73 70//70 71//71
f 72//72 75//75 76//76
f 73//73 77//77 78//78
f 79//79 75//75 73//73
f 79//79 78//78 67//67
f 17//17 81//81 82//82
f 55//55 54//54 60//60
f 29//29 56//56 84//84
f 56//56 85//85 84//84
f 56//56 55//55 85//85
f 30//30 84//84 85//85
f 30//30 29//29 84//84
f 55//55 30//30 85//85
f 27//27 57//57 56//56
f 57//57 86//86 87//87
f 87//87 58//58 57//57
f 57//57 27//27 86//86
f 27//27 26//26 86//86
f 88//88 89//89 82//82
f 90//90 91//91 92//92
f 91//91 94//94 95//95
f 94//94 97//97 98//98
f 97//97 100//100 101//101
f 100//100 102//102 103//103
f 102//102 104//104 105//105
f 104//104 106//106 107//107
f 106//106 90//90 93//93
f 108//108 109//109 110//110
f 111//111 112//112 108//108
f 108//108 110//110 111//111
f 112//112 111//111 113//113
f 114//114 112//112 113//113
f 108//108 115//115 109//109
f 109//109 115//115 116//116
f 117//117 118//118 119//119
f 118//118 121//121 122//122
f 124//124 125//125 126//126
f 125//125 128//128 129//129
f 128//128 130//130 131//131
f 130//130 132//132 133//133
f 132//132 117//117 120//120
f 115//115 114//114 134//134
f 79//79 73//73 78//78
f 71//71 65//65 74//74
f 68//68 64//64 65//65
f 79//79 80//80 76//76
f 72//72 73//73 75//75
f 69//69 70//70 73//73
f 68//68 70//70 69//69
f 135//135 124//124 127//127
f 134//134 116//116 115//115
f 74//74 65//65 67//67
f 67//67 78//78 136//136
f 73//73 74//74 77//77
f 78//78 96//96 95//95
f 77//77 121//121 96//96
f 96//96 78//78 77//77
f 121//121 77//77 122//122
f 122//122 77//77 74//74
f 95//95 136//136 78//78
f 95//95 99//99 136//136
f 99//99 135//135 74//74
f 74//74 136//136 99//99
f 135//135 122//122 74//74
f 113//113 134//134 114//114
f 115//115 108//108 137//137
f 138//138 39//39 9//9
f 24//24 23//23 39//39
f 11//11 20//20 140//140
f 140//140 20//20 24//24
f 21//21 80//80 67//67
f 21//21 20//20 11//11
f 141//141 142//142 2//2
f 143//143 144//144 142//142
f 142//142 145//145 2//2
f 144//144 89//89 88//88
f 112//112 114//114 15//15
f 112//112 15//15 146//146
f 109//109 147//147 148//148
f 150//150 151//151 152//152
f 18//18 83//83 14//14
f 153//153 154//154 26//26
f 155//155 156//156 157//157
f 159//159 160//160 144//144
f 36//36 35//35 160//160
f 160//160 161//161 89//89
f 35//35 38//38 161//161
f 161//161 162//162 82//82
f 38//38 41//41 162//162
f 162//162 163//163 83//83
f 41//41 43//43 163//163
f 163//163 164//164 14//14
f 43//43 45//45 164//164
f 164//164 165//165 166//166
f 45//45 48//48 165//165
f 165//165 167//167 166//166
f 48//48 51//51 168//168
f 168//168 169//169 156//156
f 51//51 53//53 169//169
f 58//58 170//170 171//171
f 174//174 156//156 169//169
f 169//169 53//53 61//61
f 58//58 174//174 61//61
f 58//58 173//173 174//174
f 174//174 175//175 61//61
f 141//141 1//1 62//62
f 143//143 141//141 62//62
f 159//159 143//143 62//62
f 62//62 36//36 159//159
f 176//176 153//153 25//25
f 167//167 155//155 153//153
f 155//155 167//167 165//165
f 146//146 166//166 167//167
f 176//176 63//63 66//66
f 15//15 14//14 166//166
f 150//150 152//152 176//176
f 177//177 152//152 151//151
f 66//66 178//178 150//150
f 108//108 177//177 151//151
f 66//66 76//76 179//179
f 114//114 115//115 137//137
f 137//137 179//179 180//180
f 16//16 15//15 114//114
f 178//178 137//137 151//151
f 157//157 156//156 174//174
f 181//181 171//171 158//158
f 181//181 182//182 171//171
f 182//182 172//172 171//171
f 182//182 181//181 157//157
f 181//181 158//158 157//157
f 182//182 157//157 172//172
f 153//153 158//158 171//171
f 87//87 86//86 170//170
f 170//170 58//58 87//87
f 86//86 154//154 170//170
f 86//86 26//26 154//154
f 179//179 137//137 178//178
f 183//183 184//184 185//185
f 184//184 134//134 113//113
f 113//113 111//111 188//188
f 188//188 190//190 191//191
f 190//190 192//192 193//193
f 192//192 194//194 195//195
f 194//194 196//196 197//197
f 196//196 183//183 186//186
f 179//179 76//76 16//16
f 177//177 146//146 176//176
f 108//108 146//146 177//177
f 114//114 137//137 180//180
f 198//198 199//199 200//200
f 202//202 198//198 201//201
f 204//204 202//202 203//203
f 199//199 206//206 207//207
f 206//206 147//147 109//109
f 148//148 208//208 209//209
f 208//208 204//204 205//205
f 196//196 194//194 203//203
f 194//194 192//192 205//205
f 190//190 209//209 205//205
f 198//198 202//202 204//204
f 188//188 149//149 209//209
f 116//116 134//134 184//184
f 201//201 200//200 183//183
f 207//207 184//184 183//183
f 186//186 185//185 187//187
f 106//106 104//104 102//102
f 117//117 93//93 92//92
f 107//107 93//93 117//117
f 110//110 149//149 188//188
f 118//118 92//92 96//96
f 101//101 125//125 124//124
f 103//103 128//128 125//125
f 130//130 128//128 103//103
f 99//99 98//98 124//124
f 120//120 119//119 123//123
f 132//132 130//130 105//105
f 2//2 210//210 211//211
f 7//7 211//211 8//8
f 212//212 213//213 214//214
f 88//88 81//81 213//213
f 213//213 19//19 11//11
f 81//81 17//17 19//19
f 145//145 212//212 210//210
f 88//88 212//212 145//145
f 10//10 13//13 16//16
f 76//76 80//80 21//21
f 215//215 140//140 139//139
f 214//214 11//11 140//140
f 211//211 215//215 138//138
f 210//210 214//214 215//215
f 1//1 3//3 4//4
f 4//4 5//5 6//6
f 3//3 8//8 9//9
f 3//3 9//9 5//5
f 10//10 12//12 13//13
f 14//14 16//16 13//13
f 17//17 12//12 19//19
f 20//20 22//22 23//23
f 20//20 23//23 24//24
f 25//25 27//27 28//28
f 28//28 30//30 31//31
f 28//28 31//31 32//32
f 6//6 33//33 34//34
f 34//34 35//35 36//36
f 5//5 37//37 33//33
f 33//33 38//38 35//35
f 9//9 40//40 37//37
f 37//37 41//41 38//38
f 39//39 42//42 40//40
f 40//40 43//43 41//41
f 23//23 44//44 42//42
f 42//42 45//45 43//43
f 22//22 47//47 44//44
f 44//44 48//48 45//45
f 47//47 51//51 48//48
f 32//32 52//52 50//50
f 50//50 53//53 51//51
f 54//54 56//56 57//57
f 54//54 57//57 58//58
f 59//59 31//31 60//60
f 59//59 53//53 52//52
f 63//63 28//28 64//64
f 64//64 32//32 49//49
f 50//50 49//49 32//32
f 64//64 46//46 65//65
f 65//65 22//22 67//67
f 66//66 68//68 69//69
f 73//73 71//71 74//74
f 72//72 76//76 66//66
f 79//79 67//67 80//80
f 17//17 82//82 83//83
f 17//17 83//83 18//18
f 55//55 60//60 31//31
f 55//55 31//31 30//30
f 27//27 56//56 29//29
f 27//27 29//29 28//28
f 88//88 82//82 81//81
f 90//90 92//92 93//93
f 91//91 95//95 96//96
f 91//91 96//96 92//92
f 94//94 98//98 99//99
f 94//94 99//99 95//95
f 97//97 101//101 98//98
f 100//100 103//103 101//101
f 102//102 105//105 103//103
f 104//104 107//107 105//105
f 106//106 93//93 107//107
f 117//117 119//119 120//120
f 118//118 122//122 123//123
f 118//118 123//123 119//119
f 124//124 126//126 127//127
f 125//125 129//129 126//126
f 128//128 131//131 129//129
f 130//130 133//133 131//131
f 132//132 120//120 133//133
f 68//68 65//65 71//71
f 79//79 76//76 75//75
f 69//69 73//73 72//72
f 135//135 127//127 123//123
f 135//135 123//123 122//122
f 74//74 67//67 136//136
f 138//138 9//9 8//8
f 24//24 39//39 138//138
f 24//24 138//138 139//139
f 140//140 24//24 139//139
f 21//21 67//67 22//22
f 21//21 11//11 10//10
f 141//141 2//2 1//1
f 143//143 142//142 141//141
f 144//144 88//88 145//145
f 144//144 145//145 142//142
f 112//112 146//146 108//108
f 109//109 148//148 149//149
f 109//109 149//149 110//110
f 18//18 14//14 13//13
f 18//18 13//13 12//12
f 153//153 26//26 25//25
f 155//155 157//157 158//158
f 155//155 158//158 153//153
f 159//159 144//144 143//143
f 36//36 160//160 159//159
f 160//160 89//89 144//144
f 35//35 161//161 160//160
f 161//161 82//82 89//89
f 38//38 162//162 161//161
f 162//162 83//83 82//82
f 41//41 163//163 162//162
f 163//163 14//14 83//83
f 43//43 164//164 163//163
f 164//164 166//166 14//14
f 45//45 165//165 164//164
f 48//48 168//168 165//165
f 168//168 156//156 155//155
f 51//51 169//169 168//168
f 58//58 171//171 172//172
f 58//58 172//172 173//173
f 174//174 169//169 175//175
f 169//169 61//61 175//175
f 176//176 25//25 63//63
f 167//167 153//153 176//176
f 155//155 165//165 168//168
f 146//146 167//167 176//176
f 15//15 166//166 146//146
f 150//150 176//176 66//66
f 108//108 151//151 137//137
f 66//66 179//179 178//178
f 16//16 114//114 180//180
f 178//178 151//151 150//150
f 157//157 174//174 173//173
f 157//157 173//173 172//172
f 153//153 171//171 170//170
f 153//153 170//170 154//154
f 183//183 185//185 186//186
f 184//184 113//113 187//187
f 184//184 187//187 185//185
f 113//113 188//188 189//189
f 113//113 189//189 187//187
f 188//188 191//191 189//189
f 190//190 193//193 191//191
f 192//192 195//195 193//193
f 194//194 197//197 195//195
f 196//196 186//186 197//197
f 179//179 16//16 180//180
f 177//177 176//176 152//152
f 198//198 200//200 201//201
f 202//202 201//201 203//203
f 204//204 203//203 205//205
f 199//199 207//207 200//200
f 206//206 109//109 116//116
f 206//206 116//116 207//207
f 148//148 209//209 149//149
f 208//208 205//205 209//209
f 196//196 203//203 201//201
f 194//194 205//205 203//203
f 190//190 205//205 192//192
f 198//198 204//204 208//208
f 198//198 208//208 148//148
f 198//198 148//148 147//147
f 198//198 147//147 206//206
f 198//198 206//206 199//199
f 188//188 209//209 190//190
f 116//116 184//184 207//207
f 201//201 183//183 196//196
f 207//207 183//183 200//200
f 186//186 187//187 189//189
f 186//186 189//189 191//191
f 186//186 191//191 193//193
f 186//186 193//193 195//195
f 186//186 195//195 197//197
f 106//106 102//102 100//100
f 106//106 100//100 97//97
f 106//106 97//97 94//94
f 106//106 94//94 91//91
f 106//106 91//91 90//90
f 117//117 92//92 118//118
f 107//107 117//117 132//132
f 110//110 188//188 111//111
f 118//118 96//96 121//121
f 101//101 124//124 98//98
f 103//103 125//125 101//101
f 130//130 103//103 105//105
f 99//99 124//124 135//135
f 120//120 123//123 127//127
f 120//120 127//127 126//126
f 120//120 126//126 129//129
f 120//120 129//129 131//131
f 120//120 131//131 133//133
f 132//132 105//105 107//107
f 2//2 211//211 7//7
f 212//212 214//214 210//210
f 88//88 213//213 212//212
f 213//213 11//11 214//214
f 81//81 19//19 213//213
f 145//145 210//210 2//2
f 10//10 16//16 76//76
f 76//76 21//21 10//10
f 215//215 139//139 138//138
f 214//214 140//140 215//215
f 211//211 138//138 8//8
f 210//210 215//215 211//211
# 426 faces, 0 coords texture

# End of File
