####
#
# OBJ File Generated by Meshlab
#
####
# Object m1268.obj
#
# Vertices: 240
# Faces: 376
#
####
vn 0.326292 0.165499 -0.048231
v 0.226766 0.500365 0.074273
vn 0.238271 1.219039 -2.822431
v 0.169422 0.500365 0.065671
vn -0.032327 1.239550 -2.864027
v 0.126414 0.500365 0.064954
vn -0.095897 1.258478 -2.876915
v 0.115662 0.500365 0.065312
vn -0.356607 1.297454 -2.752525
v 0.104910 0.500365 0.065671
vn -0.553999 1.374529 -2.770076
v 0.097741 0.500365 0.067104
vn -1.054307 1.406673 -2.298863
v 0.090574 0.500365 0.068538
vn -1.813662 1.268342 -0.993345
v 0.083405 0.500365 0.073556
vn -2.275614 0.821530 0.835631
v 0.083405 0.500365 0.074989
vn -1.404570 -0.287265 2.766594
v 0.090574 0.500365 0.080007
vn -0.599523 -0.723878 2.997699
v 0.097741 0.500365 0.081440
vn -0.430702 -0.796208 3.038762
v 0.104910 0.500365 0.082874
vn -0.120169 -0.897030 3.015601
v 0.112078 0.500365 0.083233
vn -0.020587 -0.922133 3.015234
v 0.126414 0.500365 0.083591
vn 0.263303 -0.924287 3.024717
v 0.169422 0.500365 0.082874
vn 1.037343 0.145207 0.186675
v 0.194446 0.571760 0.100606
vn 0.481953 1.127650 -6.046713
v 0.164158 0.571760 0.096063
vn -0.048911 1.154995 -6.042337
v 0.141442 0.571760 0.095684
vn -0.200519 1.171755 -6.015567
v 0.135763 0.571760 0.095874
vn -0.680402 1.295563 -6.003390
v 0.130084 0.571760 0.096063
vn -1.170132 1.372564 -5.850662
v 0.126298 0.571760 0.096820
vn -2.314886 1.683165 -5.472094
v 0.122512 0.571760 0.097577
vn -4.942417 2.097756 -2.372960
v 0.118726 0.571760 0.100227
vn -4.674911 0.983347 2.915743
v 0.118726 0.571760 0.100985
vn -2.230408 -0.153589 5.554557
v 0.122512 0.571760 0.103635
vn -1.213603 -0.487662 6.069598
v 0.126298 0.571760 0.104392
vn -0.725615 -0.610396 6.059505
v 0.130084 0.571760 0.105149
vn -0.226920 -0.737673 6.135010
v 0.133870 0.571760 0.105338
vn -0.023919 -0.774029 6.126634
v 0.141442 0.571760 0.105528
vn 0.476146 -0.793989 6.071491
v 0.164158 0.571760 0.105149
vn -0.326292 0.165499 0.048231
v 0.226766 0.499635 0.074273
vn -0.238271 1.219039 2.822431
v 0.169422 0.499635 0.065671
vn 0.032327 1.239550 2.864027
v 0.126414 0.499635 0.064954
vn 0.095897 1.258478 2.876915
v 0.115662 0.499635 0.065312
vn 0.356607 1.297454 2.752525
v 0.104910 0.499635 0.065671
vn 0.553999 1.374529 2.770076
v 0.097741 0.499635 0.067104
vn 1.054307 1.406673 2.298863
v 0.090574 0.499635 0.068538
vn 1.813662 1.268342 0.993345
v 0.083405 0.499635 0.073556
vn 2.275614 0.821530 -0.835631
v 0.083405 0.499635 0.074989
vn 1.404570 -0.287265 -2.766594
v 0.090574 0.499635 0.080007
vn 0.599523 -0.723878 -2.997699
v 0.097741 0.499635 0.081440
vn 0.430702 -0.796208 -3.038762
v 0.104910 0.499635 0.082874
vn 0.120169 -0.897030 -3.015601
v 0.112078 0.499635 0.083233
vn 0.020587 -0.922133 -3.015234
v 0.126414 0.499635 0.083591
vn -0.263303 -0.924287 -3.024717
v 0.169422 0.499635 0.082874
vn -1.037343 0.145207 -0.186675
v 0.194446 0.428240 0.100606
vn -0.481953 1.127650 6.046713
v 0.164158 0.428240 0.096063
vn 0.048911 1.154995 6.042337
v 0.141442 0.428240 0.095684
vn 0.200519 1.171755 6.015567
v 0.135763 0.428240 0.095874
vn 0.680402 1.295563 6.003390
v 0.130084 0.428240 0.096063
vn 1.170132 1.372564 5.850662
v 0.126298 0.428240 0.096820
vn 2.314886 1.683165 5.472094
v 0.122512 0.428240 0.097577
vn 4.942417 2.097756 2.372960
v 0.118726 0.428240 0.100227
vn 4.674911 0.983347 -2.915743
v 0.118726 0.428240 0.100985
vn 2.230408 -0.153589 -5.554557
v 0.122512 0.428240 0.103635
vn 1.213603 -0.487662 -6.069598
v 0.126298 0.428240 0.104392
vn 0.725615 -0.610396 -6.059505
v 0.130084 0.428240 0.105149
vn 0.226920 -0.737673 -6.135010
v 0.133870 0.428240 0.105338
vn 0.023919 -0.774029 -6.126634
v 0.141442 0.428240 0.105528
vn -0.476146 -0.793989 -6.071491
v 0.164158 0.428240 0.105149
vn 0.442126 -0.035953 -0.010013
v 0.226882 0.975000 0.084967
vn 0.273510 -0.135349 -3.114143
v 0.212061 0.975000 0.082744
vn -0.018787 -0.099349 -3.137407
v 0.200946 0.975000 0.082559
vn -0.104635 -0.086721 -3.138651
v 0.198167 0.975000 0.082652
vn -0.333593 -0.048707 -3.110340
v 0.195388 0.975000 0.082744
vn -0.616100 -0.001972 -3.080588
v 0.193535 0.975000 0.083115
vn -1.149752 0.097130 -2.864220
v 0.191683 0.975000 0.083485
vn -2.502379 0.386926 -1.418295
v 0.189830 0.975000 0.084782
vn -2.546124 0.502885 1.373365
v 0.189830 0.975000 0.085153
vn -1.165908 0.322443 2.873053
v 0.191683 0.975000 0.086449
vn -0.614429 0.236316 3.071858
v 0.193535 0.975000 0.086820
vn -0.364230 0.197712 3.114934
v 0.195388 0.975000 0.087190
vn -0.113708 0.158309 3.136556
v 0.197241 0.975000 0.087283
vn -0.006985 0.142360 3.139568
v 0.200946 0.975000 0.087376
vn 0.275395 0.106474 3.125315
v 0.212061 0.975000 0.087190
vn -0.442126 -0.035953 0.010013
v 0.226882 0.025000 0.084967
vn -0.273510 -0.135349 3.114143
v 0.212061 0.025000 0.082744
vn 0.018787 -0.099349 3.137407
v 0.200946 0.025000 0.082559
vn 0.104635 -0.086721 3.138651
v 0.198167 0.025000 0.082652
vn 0.333593 -0.048707 3.110340
v 0.195388 0.025000 0.082744
vn 0.616100 -0.001972 3.080588
v 0.193535 0.025000 0.083115
vn 1.149752 0.097130 2.864220
v 0.191683 0.025000 0.083485
vn 2.502379 0.386926 1.418295
v 0.189830 0.025000 0.084782
vn 2.546124 0.502885 -1.373365
v 0.189830 0.025000 0.085153
vn 1.165908 0.322443 -2.873053
v 0.191683 0.025000 0.086449
vn 0.614429 0.236316 -3.071858
v 0.193535 0.025000 0.086820
vn 0.364230 0.197712 -3.114934
v 0.195388 0.025000 0.087190
vn 0.113708 0.158309 -3.136556
v 0.197241 0.025000 0.087283
vn 0.006985 0.142360 -3.139568
v 0.200946 0.025000 0.087376
vn -0.275395 0.106474 -3.125315
v 0.212061 0.025000 0.087190
vn 0.000000 -0.115036 -0.000000
v 0.561764 0.500000 0.056747
vn 0.000000 -1.212228 -0.000000
v 0.513131 0.500000 0.049453
vn 0.000000 -0.807460 0.000000
v 0.476656 0.500000 0.048845
vn 0.000000 -0.728005 0.000000
v 0.467538 0.500000 0.049148
vn 0.000000 0.249930 0.000000
v 0.458419 0.500000 0.049453
vn 0.000000 0.524996 0.000000
v 0.452340 0.500000 0.050668
vn -0.000000 2.595760 -0.000000
v 0.446261 0.500000 0.051884
vn -0.000000 3.551564 -0.000000
v 0.440182 0.500000 0.056140
vn 0.000000 3.674930 -0.000000
v 0.440182 0.500000 0.057355
vn -0.000000 3.742302 0.000000
v 0.446261 0.500000 0.061611
vn -0.000000 2.980248 0.000000
v 0.452340 0.500000 0.062827
vn -0.000000 2.733714 0.000000
v 0.458419 0.500000 0.064042
vn -0.000000 2.123338 0.000000
v 0.464498 0.500000 0.064346
vn 0.000000 1.948332 -0.000000
v 0.476656 0.500000 0.064650
vn 0.000000 1.605411 0.000000
v 0.513131 0.500000 0.064042
vn 0.411588 -0.075071 -0.050980
v 0.571529 0.563552 0.042005
vn 0.320435 -0.682661 -3.013582
v 0.554589 0.563552 0.039464
vn 0.013209 -0.480829 -3.095954
v 0.541884 0.563552 0.039253
vn -0.103964 -0.364003 -3.118700
v 0.538707 0.563552 0.039358
vn -0.215566 -0.226489 -3.105338
v 0.535531 0.563552 0.039464
vn -0.613887 0.262402 -3.069844
v 0.533413 0.563552 0.039888
vn -0.866921 0.616511 -2.984392
v 0.531296 0.563552 0.040311
vn -2.006403 2.432557 -1.670838
v 0.529178 0.563552 0.041794
vn -1.882266 2.938599 1.270943
v 0.529178 0.563552 0.042217
vn -0.815898 1.838407 2.649464
v 0.531296 0.563552 0.043700
vn -0.542352 1.490058 2.712095
v 0.533413 0.563552 0.044123
vn -0.249278 1.205575 2.943930
v 0.535531 0.563552 0.044547
vn -0.092029 1.028041 2.975643
v 0.537648 0.563552 0.044652
vn 0.018550 0.924547 3.014615
v 0.541884 0.563552 0.044758
vn 0.330706 0.724215 3.064011
v 0.554589 0.563552 0.044547
vn -0.411588 -0.075071 0.050980
v 0.571529 0.436448 0.042005
vn -0.320435 -0.682661 3.013582
v 0.554589 0.436448 0.039464
vn -0.013209 -0.480829 3.095954
v 0.541884 0.436448 0.039253
vn 0.103964 -0.364003 3.118700
v 0.538707 0.436448 0.039358
vn 0.215566 -0.226489 3.105338
v 0.535531 0.436448 0.039464
vn 0.613887 0.262402 3.069844
v 0.533413 0.436448 0.039888
vn 0.866921 0.616511 2.984392
v 0.531296 0.436448 0.040311
vn 2.006403 2.432557 1.670838
v 0.529178 0.436448 0.041794
vn 1.882266 2.938599 -1.270943
v 0.529178 0.436448 0.042217
vn 0.815898 1.838407 -2.649464
v 0.531296 0.436448 0.043700
vn 0.542352 1.490058 -2.712095
v 0.533413 0.436448 0.044123
vn 0.249278 1.205575 -2.943930
v 0.535531 0.436448 0.044547
vn 0.092029 1.028041 -2.975643
v 0.537648 0.436448 0.044652
vn -0.018550 0.924547 -3.014615
v 0.541884 0.436448 0.044758
vn -0.330706 0.724215 -3.064011
v 0.554589 0.436448 0.044547
vn -0.055048 0.000000 -0.133973
v 0.025000 0.500000 0.025000
vn -2.617364 5.014615 -0.178799
v 0.033157 0.504640 0.047051
vn -5.105206 2.792965 1.398494
v 0.033157 0.503281 0.052612
vn -5.829749 -0.051578 1.851248
v 0.033157 0.500000 0.054915
vn -4.948015 -2.922448 1.411536
v 0.033157 0.496719 0.052612
vn -2.880016 -5.002969 -0.065794
v 0.033157 0.495360 0.047051
vn 0.846817 -5.240154 -2.874280
v 0.033157 0.496719 0.041490
vn 3.543342 0.100710 -4.460602
v 0.033157 0.500000 0.039186
vn 1.112408 5.108213 -2.901855
v 0.033157 0.503281 0.041490
vn -2.906439 5.423231 0.057672
v 0.038316 0.506962 0.054910
vn -4.220501 3.528539 1.810010
v 0.038316 0.504923 0.066028
vn -4.416121 0.125809 2.867901
v 0.038316 0.500000 0.070634
vn -4.357114 -3.447464 1.777149
v 0.038316 0.495077 0.066028
vn -2.897688 -5.379369 -0.014479
v 0.038316 0.493038 0.054910
vn -0.188447 -5.036842 -2.994674
v 0.038316 0.495077 0.043792
vn 0.674479 0.012924 -4.344694
v 0.038316 0.500000 0.039186
vn -0.550066 5.097785 -2.934118
v 0.038316 0.504923 0.043792
vn -1.947424 5.557219 -0.011065
v 0.044119 0.510057 0.059238
vn -3.186470 4.143291 2.433245
v 0.044119 0.507111 0.072049
vn -3.860734 0.012163 3.825419
v 0.044119 0.500000 0.077355
vn -3.113073 -4.226386 2.462386
v 0.044119 0.492889 0.072049
vn -1.905216 -5.597317 -0.064830
v 0.044119 0.489943 0.059238
vn -0.380311 -4.901671 -2.955786
v 0.044119 0.492889 0.046427
vn 1.095758 -0.093294 -5.069241
v 0.044119 0.500000 0.041121
vn -0.257532 4.947356 -2.980926
v 0.044119 0.507111 0.046427
vn -1.237924 5.978202 0.113726
v 0.054436 0.512120 0.064610
vn -1.955286 4.315209 3.056353
v 0.054436 0.508570 0.080308
vn -1.848104 0.072999 4.151767
v 0.054436 0.500000 0.086810
vn -2.086213 -4.342093 3.042122
v 0.054436 0.491430 0.080308
vn -1.206854 -5.973789 0.024515
v 0.054436 0.487880 0.064610
vn 0.321773 -4.807914 -3.223601
v 0.054436 0.491430 0.048912
vn 1.002188 -0.040251 -4.775103
v 0.054436 0.500000 0.042410
vn 0.174438 4.880656 -3.221602
v 0.054436 0.508570 0.048912
vn -1.162090 5.947256 0.182673
v 0.064754 0.514184 0.067167
vn -1.122695 4.542156 3.437762
v 0.064754 0.510029 0.082183
vn -0.918665 0.080055 5.258079
v 0.064754 0.500000 0.088404
vn -1.083972 -4.616674 3.452142
v 0.064754 0.489971 0.082183
vn -1.137127 -5.960497 0.060236
v 0.064754 0.485816 0.067167
vn -0.519404 -4.916638 -3.328876
v 0.064754 0.489971 0.052150
vn 0.237459 -0.106394 -5.640895
v 0.064754 0.500000 0.045930
vn -0.467362 4.959754 -3.344485
v 0.064754 0.510029 0.052150
vn -1.105467 5.868884 0.037292
v 0.112471 0.523727 0.065732
vn -0.797226 4.306925 3.749568
v 0.112471 0.516778 0.086974
vn -0.591230 0.060370 5.453908
v 0.112471 0.500000 0.095773
vn -0.873393 -4.346542 3.767272
v 0.112471 0.483222 0.086974
vn -1.105958 -5.868204 -0.074863
v 0.112471 0.476273 0.065732
vn -0.873124 -4.250669 -3.745656
v 0.112471 0.483222 0.044491
vn -0.704624 -0.059261 -5.377751
v 0.112471 0.500000 0.035692
vn -0.950427 4.291531 -3.764407
v 0.112471 0.516778 0.044491
vn -0.262759 5.572819 0.087773
v 0.149661 0.531165 0.065919
vn 0.056416 3.933515 3.894357
v 0.149661 0.522037 0.088014
vn 0.374639 0.053378 5.577654
v 0.149661 0.500000 0.097166
vn 0.099010 -3.976808 3.936689
v 0.149661 0.477963 0.088014
vn -0.265571 -5.574459 -0.013062
v 0.149661 0.468835 0.065919
vn -0.125007 -4.024931 -3.915314
v 0.149661 0.477963 0.043824
vn 0.133866 -0.055064 -5.689851
v 0.149661 0.500000 0.034672
vn -0.084831 4.066222 -3.955828
v 0.149661 0.522037 0.043824
vn 0.322091 5.685060 0.005667
v 0.203391 0.527136 0.063169
vn 0.642058 3.881362 4.333236
v 0.203391 0.519188 0.079469
vn 0.886319 0.051365 5.917708
v 0.203391 0.500000 0.086221
vn 0.622671 -3.902128 4.368685
v 0.203391 0.480812 0.079469
vn 0.318627 -5.683107 -0.107292
v 0.203391 0.472864 0.063169
vn 0.467620 -3.804113 -4.338988
v 0.203391 0.480812 0.046870
vn 0.636875 -0.050243 -5.874289
v 0.203391 0.500000 0.040118
vn 0.447509 3.829104 -4.377609
v 0.203391 0.519188 0.046870
vn 0.229081 5.218878 0.077637
v 0.252398 0.526684 0.063723
vn 0.406699 3.418156 4.702596
v 0.252398 0.518869 0.075588
vn 0.644031 0.050473 6.044209
v 0.252398 0.500000 0.080503
vn 0.459760 -3.426508 4.750133
v 0.252398 0.481131 0.075588
vn 0.230312 -5.219875 -0.046310
v 0.252398 0.473316 0.063723
vn 0.432646 -3.439756 -4.708743
v 0.252398 0.481131 0.051857
vn 0.679916 -0.050740 -6.056565
v 0.252398 0.500000 0.046942
vn 0.486288 3.446622 -4.755052
v 0.252398 0.518869 0.051857
vn 0.310526 5.045350 0.044777
v 0.273678 0.525733 0.063598
vn 0.464221 3.244441 4.891334
v 0.273678 0.518196 0.073796
vn 0.597941 0.034985 6.101595
v 0.273678 0.500000 0.078021
vn 0.470208 -3.245212 4.927972
v 0.273678 0.481804 0.073796
vn 0.309530 -5.045293 -0.045605
v 0.273678 0.474267 0.063598
vn 0.406711 -3.246222 -4.895124
v 0.273678 0.481804 0.053400
vn 0.526043 -0.035028 -6.108042
v 0.273678 0.500000 0.049176
vn 0.411866 3.247161 -4.931741
v 0.273678 0.518196 0.053400
vn 0.374443 4.468024 0.053528
v 0.327198 0.523009 0.063276
vn 0.455340 2.824407 5.230378
v 0.327198 0.516270 0.070199
vn 0.505024 0.015532 6.169279
v 0.327198 0.500000 0.073066
vn 0.533878 -2.818037 5.242638
v 0.327198 0.483730 0.070199
vn 0.374315 -4.467426 0.010785
v 0.327198 0.476991 0.063276
vn 0.202923 -2.866265 -5.265070
v 0.327198 0.483730 0.056354
vn 0.202373 -0.015428 -6.206649
v 0.327198 0.500000 0.053487
vn 0.281716 2.860624 -5.278422
v 0.327198 0.516270 0.056354
vn 0.267963 2.955415 -0.049676
v 0.523645 0.503117 0.054769
vn 0.319313 2.081363 2.109909
v 0.523645 0.502204 0.056973
vn 0.255837 -0.017558 2.954332
v 0.523645 0.500000 0.057885
vn 0.262428 -2.075095 2.103397
v 0.523645 0.497796 0.056973
vn 0.271072 -2.956077 -0.014506
v 0.523645 0.496883 0.054769
vn 0.131206 -2.027657 -2.117920
v 0.523645 0.497796 0.052565
vn -0.000068 0.016780 -2.902742
v 0.523645 0.500000 0.051652
vn 0.075476 2.019399 -2.108903
v 0.523645 0.502204 0.052565
vn -1.570796 -1.570796 -1.570796
v 0.149661 0.498442 0.064118
vn 1.570796 -1.570796 -1.570796
v 0.168360 0.498442 0.064118
vn 1.570796 1.570796 -1.570796
v 0.168360 0.507791 0.064118
vn -1.570796 1.570796 -1.570796
v 0.149661 0.507791 0.064118
vn -1.570796 -1.570796 1.570796
v 0.149661 0.498442 0.079701
vn 1.570796 -1.570796 1.570796
v 0.168360 0.498442 0.079701
vn 1.570796 1.570796 1.570796
v 0.168360 0.507791 0.079701
vn -1.570796 1.570796 1.570796
v 0.149661 0.507791 0.079701
# 240 vertices, 0 vertices normals

f 1//1 17//17 16//16
f 2//2 18//18 17//17
f 3//3 19//19 18//18
f 4//4 20//20 19//19
f 5//5 21//21 20//20
f 6//6 22//22 21//21
f 7//7 23//23 22//22
f 8//8 24//24 23//23
f 9//9 25//25 24//24
f 10//10 26//26 25//25
f 11//11 27//27 26//26
f 12//12 28//28 27//27
f 13//13 29//29 28//28
f 14//14 30//30 29//29
f 15//15 16//16 30//30
f 1//1 2//2 17//17
f 2//2 3//3 18//18
f 3//3 4//4 19//19
f 4//4 5//5 20//20
f 5//5 6//6 21//21
f 6//6 7//7 22//22
f 7//7 8//8 23//23
f 8//8 9//9 24//24
f 9//9 10//10 25//25
f 10//10 11//11 26//26
f 11//11 12//12 27//27
f 12//12 13//13 28//28
f 13//13 14//14 29//29
f 14//14 15//15 30//30
f 15//15 1//1 16//16
f 31//31 47//47 46//46
f 32//32 48//48 47//47
f 33//33 49//49 48//48
f 34//34 50//50 49//49
f 35//35 51//51 50//50
f 36//36 52//52 51//51
f 37//37 53//53 52//52
f 38//38 54//54 53//53
f 39//39 55//55 54//54
f 40//40 56//56 55//55
f 41//41 57//57 56//56
f 42//42 58//58 57//57
f 43//43 59//59 58//58
f 44//44 60//60 59//59
f 45//45 46//46 60//60
f 31//31 32//32 47//47
f 32//32 33//33 48//48
f 33//33 34//34 49//49
f 34//34 35//35 50//50
f 35//35 36//36 51//51
f 36//36 37//37 52//52
f 37//37 38//38 53//53
f 38//38 39//39 54//54
f 39//39 40//40 55//55
f 40//40 41//41 56//56
f 41//41 42//42 57//57
f 42//42 43//43 58//58
f 43//43 44//44 59//59
f 44//44 45//45 60//60
f 45//45 31//31 46//46
f 16//16 62//62 61//61
f 17//17 63//63 62//62
f 18//18 64//64 63//63
f 19//19 65//65 64//64
f 20//20 66//66 65//65
f 21//21 67//67 66//66
f 22//22 68//68 67//67
f 23//23 69//69 68//68
f 24//24 70//70 69//69
f 25//25 71//71 70//70
f 26//26 72//72 71//71
f 27//27 73//73 72//72
f 28//28 74//74 73//73
f 29//29 75//75 74//74
f 30//30 61//61 75//75
f 16//16 17//17 62//62
f 17//17 18//18 63//63
f 18//18 19//19 64//64
f 19//19 20//20 65//65
f 20//20 21//21 66//66
f 21//21 22//22 67//67
f 22//22 23//23 68//68
f 23//23 24//24 69//69
f 24//24 25//25 70//70
f 25//25 26//26 71//71
f 26//26 27//27 72//72
f 27//27 28//28 73//73
f 28//28 29//29 74//74
f 29//29 30//30 75//75
f 30//30 16//16 61//61
f 46//46 77//77 76//76
f 47//47 78//78 77//77
f 48//48 79//79 78//78
f 49//49 80//80 79//79
f 50//50 81//81 80//80
f 51//51 82//82 81//81
f 52//52 83//83 82//82
f 53//53 84//84 83//83
f 54//54 85//85 84//84
f 55//55 86//86 85//85
f 56//56 87//87 86//86
f 57//57 88//88 87//87
f 58//58 89//89 88//88
f 59//59 90//90 89//89
f 60//60 76//76 90//90
f 46//46 47//47 77//77
f 47//47 48//48 78//78
f 48//48 49//49 79//79
f 49//49 50//50 80//80
f 50//50 51//51 81//81
f 51//51 52//52 82//82
f 52//52 53//53 83//83
f 53//53 54//54 84//84
f 54//54 55//55 85//85
f 55//55 56//56 86//86
f 56//56 57//57 87//87
f 57//57 58//58 88//88
f 58//58 59//59 89//89
f 59//59 60//60 90//90
f 60//60 46//46 76//76
f 91//91 107//107 106//106
f 92//92 108//108 107//107
f 93//93 109//109 108//108
f 94//94 110//110 109//109
f 95//95 111//111 110//110
f 96//96 112//112 111//111
f 97//97 113//113 112//112
f 98//98 114//114 113//113
f 99//99 115//115 114//114
f 100//100 116//116 115//115
f 101//101 117//117 116//116
f 102//102 118//118 117//117
f 103//103 119//119 118//118
f 104//104 120//120 119//119
f 105//105 106//106 120//120
f 91//91 92//92 107//107
f 92//92 93//93 108//108
f 93//93 94//94 109//109
f 94//94 95//95 110//110
f 95//95 96//96 111//111
f 96//96 97//97 112//112
f 97//97 98//98 113//113
f 98//98 99//99 114//114
f 99//99 100//100 115//115
f 100//100 101//101 116//116
f 101//101 102//102 117//117
f 102//102 103//103 118//118
f 103//103 104//104 119//119
f 104//104 105//105 120//120
f 105//105 91//91 106//106
f 91//91 122//122 121//121
f 92//92 123//123 122//122
f 93//93 124//124 123//123
f 94//94 125//125 124//124
f 95//95 126//126 125//125
f 96//96 127//127 126//126
f 97//97 128//128 127//127
f 98//98 129//129 128//128
f 99//99 130//130 129//129
f 100//100 131//131 130//130
f 101//101 132//132 131//131
f 102//102 133//133 132//132
f 103//103 134//134 133//133
f 104//104 135//135 134//134
f 105//105 121//121 135//135
f 91//91 92//92 122//122
f 92//92 93//93 123//123
f 93//93 94//94 124//124
f 94//94 95//95 125//125
f 95//95 96//96 126//126
f 96//96 97//97 127//127
f 97//97 98//98 128//128
f 98//98 99//99 129//129
f 99//99 100//100 130//130
f 100//100 101//101 131//131
f 101//101 102//102 132//132
f 102//102 103//103 133//133
f 103//103 104//104 134//134
f 104//104 105//105 135//135
f 105//105 91//91 121//121
f 136//136 138//138 137//137
f 136//136 139//139 138//138
f 136//136 140//140 139//139
f 136//136 141//141 140//140
f 136//136 142//142 141//141
f 136//136 143//143 142//142
f 136//136 144//144 143//143
f 136//136 137//137 144//144
f 137//137 146//146 145//145
f 138//138 147//147 146//146
f 139//139 148//148 147//147
f 140//140 149//149 148//148
f 141//141 150//150 149//149
f 142//142 151//151 150//150
f 143//143 152//152 151//151
f 144//144 145//145 152//152
f 145//145 154//154 153//153
f 146//146 155//155 154//154
f 147//147 156//156 155//155
f 148//148 157//157 156//156
f 149//149 158//158 157//157
f 150//150 159//159 158//158
f 151//151 160//160 159//159
f 152//152 153//153 160//160
f 153//153 162//162 161//161
f 154//154 163//163 162//162
f 155//155 164//164 163//163
f 156//156 165//165 164//164
f 157//157 166//166 165//165
f 158//158 167//167 166//166
f 159//159 168//168 167//167
f 160//160 161//161 168//168
f 161//161 170//170 169//169
f 162//162 171//171 170//170
f 163//163 172//172 171//171
f 164//164 173//173 172//172
f 165//165 174//174 173//173
f 166//166 175//175 174//174
f 167//167 176//176 175//175
f 168//168 169//169 176//176
f 169//169 178//178 177//177
f 170//170 179//179 178//178
f 171//171 180//180 179//179
f 172//172 181//181 180//180
f 173//173 182//182 181//181
f 174//174 183//183 182//182
f 175//175 184//184 183//183
f 176//176 177//177 184//184
f 177//177 186//186 185//185
f 178//178 187//187 186//186
f 179//179 188//188 187//187
f 180//180 189//189 188//188
f 181//181 190//190 189//189
f 182//182 191//191 190//190
f 183//183 192//192 191//191
f 184//184 185//185 192//192
f 185//185 194//194 193//193
f 186//186 195//195 194//194
f 187//187 196//196 195//195
f 188//188 197//197 196//196
f 189//189 198//198 197//197
f 190//190 199//199 198//198
f 191//191 200//200 199//199
f 192//192 193//193 200//200
f 193//193 202//202 201//201
f 194//194 203//203 202//202
f 195//195 204//204 203//203
f 196//196 205//205 204//204
f 197//197 206//206 205//205
f 198//198 207//207 206//206
f 199//199 208//208 207//207
f 200//200 201//201 208//208
f 201//201 210//210 209//209
f 202//202 211//211 210//210
f 203//203 212//212 211//211
f 204//204 213//213 212//212
f 205//205 214//214 213//213
f 206//206 215//215 214//214
f 207//207 216//216 215//215
f 208//208 209//209 216//216
f 209//209 218//218 217//217
f 210//210 219//219 218//218
f 211//211 220//220 219//219
f 212//212 221//221 220//220
f 213//213 222//222 221//221
f 214//214 223//223 222//222
f 215//215 224//224 223//223
f 216//216 217//217 224//224
f 217//217 226//226 225//225
f 218//218 227//227 226//226
f 219//219 228//228 227//227
f 220//220 229//229 228//228
f 221//221 230//230 229//229
f 222//222 231//231 230//230
f 223//223 232//232 231//231
f 224//224 225//225 232//232
f 137//137 138//138 146//146
f 138//138 139//139 147//147
f 139//139 140//140 148//148
f 140//140 141//141 149//149
f 141//141 142//142 150//150
f 142//142 143//143 151//151
f 143//143 144//144 152//152
f 144//144 137//137 145//145
f 145//145 146//146 154//154
f 146//146 147//147 155//155
f 147//147 148//148 156//156
f 148//148 149//149 157//157
f 149//149 150//150 158//158
f 150//150 151//151 159//159
f 151//151 152//152 160//160
f 152//152 145//145 153//153
f 153//153 154//154 162//162
f 154//154 155//155 163//163
f 155//155 156//156 164//164
f 156//156 157//157 165//165
f 157//157 158//158 166//166
f 158//158 159//159 167//167
f 159//159 160//160 168//168
f 160//160 153//153 161//161
f 161//161 162//162 170//170
f 162//162 163//163 171//171
f 163//163 164//164 172//172
f 164//164 165//165 173//173
f 165//165 166//166 174//174
f 166//166 167//167 175//175
f 167//167 168//168 176//176
f 168//168 161//161 169//169
f 169//169 170//170 178//178
f 170//170 171//171 179//179
f 171//171 172//172 180//180
f 172//172 173//173 181//181
f 173//173 174//174 182//182
f 174//174 175//175 183//183
f 175//175 176//176 184//184
f 176//176 169//169 177//177
f 177//177 178//178 186//186
f 178//178 179//179 187//187
f 179//179 180//180 188//188
f 180//180 181//181 189//189
f 181//181 182//182 190//190
f 182//182 183//183 191//191
f 183//183 184//184 192//192
f 184//184 177//177 185//185
f 185//185 186//186 194//194
f 186//186 187//187 195//195
f 187//187 188//188 196//196
f 188//188 189//189 197//197
f 189//189 190//190 198//198
f 190//190 191//191 199//199
f 191//191 192//192 200//200
f 192//192 185//185 193//193
f 193//193 194//194 202//202
f 194//194 195//195 203//203
f 195//195 196//196 204//204
f 196//196 197//197 205//205
f 197//197 198//198 206//206
f 198//198 199//199 207//207
f 199//199 200//200 208//208
f 200//200 193//193 201//201
f 201//201 202//202 210//210
f 202//202 203//203 211//211
f 203//203 204//204 212//212
f 204//204 205//205 213//213
f 205//205 206//206 214//214
f 206//206 207//207 215//215
f 207//207 208//208 216//216
f 208//208 201//201 209//209
f 209//209 210//210 218//218
f 210//210 211//211 219//219
f 211//211 212//212 220//220
f 212//212 213//213 221//221
f 213//213 214//214 222//222
f 214//214 215//215 223//223
f 215//215 216//216 224//224
f 216//216 209//209 217//217
f 217//217 218//218 226//226
f 218//218 219//219 227//227
f 219//219 220//220 228//228
f 220//220 221//221 229//229
f 221//221 222//222 230//230
f 222//222 223//223 231//231
f 223//223 224//224 232//232
f 224//224 217//217 225//225
f 233//233 236//236 234//234
f 234//234 236//236 235//235
f 233//233 238//238 237//237
f 233//233 234//234 238//238
f 233//233 237//237 236//236
f 236//236 237//237 240//240
f 236//236 240//240 239//239
f 236//236 239//239 235//235
f 234//234 239//239 238//238
f 234//234 235//235 239//239
f 238//238 240//240 237//237
f 238//238 239//239 240//240
# 376 faces, 0 coords texture

# End of File
