####
#
# OBJ File Generated by Meshlab
#
####
# Object m1267.obj
#
# Vertices: 230
# Faces: 335
#
####
vn 0.466194 -0.000264 -0.000000
v 0.513511 0.473869 0.071001
vn 0.258955 0.000104 -3.124011
v 0.464114 0.473869 0.063592
vn -0.026284 0.000680 -3.140491
v 0.427066 0.473869 0.062974
vn -0.104650 0.000888 -3.139849
v 0.417804 0.473869 0.063283
vn -0.360871 0.001679 -3.110072
v 0.408542 0.473869 0.063592
vn -0.616093 0.002467 -3.080589
v 0.402367 0.473869 0.064827
vn -1.209805 0.004459 -2.826069
v 0.396192 0.473869 0.066061
vn -2.469967 0.008801 -1.284416
v 0.390018 0.473869 0.070384
vn -2.469952 0.008802 1.284426
v 0.390018 0.473869 0.071619
vn -1.209816 0.004460 2.826074
v 0.396192 0.473869 0.075941
vn -0.616093 0.002467 3.080589
v 0.402367 0.473869 0.077176
vn -0.386912 0.001760 3.108996
v 0.408542 0.473869 0.078411
vn -0.117779 0.000935 3.139132
v 0.414716 0.473869 0.078719
vn -0.013197 0.000646 3.140875
v 0.427066 0.473869 0.079028
vn 0.258959 0.000104 3.124010
v 0.464114 0.473869 0.078411
vn 0.465859 -0.000264 -0.000000
v 0.513756 0.906445 0.071001
vn 0.259422 0.000103 -3.123981
v 0.464876 0.906445 0.063669
vn -0.026022 0.000679 -3.140514
v 0.428216 0.906445 0.063058
vn -0.104662 0.000888 -3.139849
v 0.419051 0.906445 0.063364
vn -0.359902 0.001676 -3.110361
v 0.409886 0.906445 0.063669
vn -0.616117 0.002467 -3.080584
v 0.403776 0.906445 0.064891
vn -1.207938 0.004454 -2.828159
v 0.397666 0.906445 0.066113
vn -2.473258 0.008814 -1.289222
v 0.391556 0.906445 0.070390
vn -2.473257 0.008813 1.289223
v 0.391556 0.906445 0.071612
vn -1.207939 0.004453 2.828158
v 0.397666 0.906445 0.075889
vn -0.616117 0.002468 3.080584
v 0.403776 0.906445 0.077111
vn -0.386064 0.001758 3.109266
v 0.409886 0.906445 0.078333
vn -0.117626 0.000934 3.139152
v 0.415996 0.906445 0.078639
vn -0.012971 0.000645 3.140893
v 0.428216 0.906445 0.078944
vn 0.259422 0.000104 3.123981
v 0.464876 0.906445 0.078333
vn -0.466194 -0.000264 0.000000
v 0.513511 0.457576 0.071001
vn -0.258955 0.000104 3.124011
v 0.464114 0.457576 0.063592
vn 0.026284 0.000680 3.140491
v 0.427066 0.457576 0.062974
vn 0.104650 0.000888 3.139849
v 0.417804 0.457576 0.063283
vn 0.360871 0.001679 3.110072
v 0.408542 0.457576 0.063592
vn 0.616093 0.002467 3.080589
v 0.402367 0.457576 0.064827
vn 1.209805 0.004459 2.826069
v 0.396192 0.457576 0.066061
vn 2.469967 0.008801 1.284416
v 0.390018 0.457576 0.070384
vn 2.469952 0.008802 -1.284426
v 0.390018 0.457576 0.071619
vn 1.209816 0.004460 -2.826074
v 0.396192 0.457576 0.075941
vn 0.616093 0.002467 -3.080589
v 0.402367 0.457576 0.077176
vn 0.386912 0.001760 -3.108996
v 0.408542 0.457576 0.078411
vn 0.117779 0.000935 -3.139132
v 0.414716 0.457576 0.078719
vn 0.013197 0.000646 -3.140875
v 0.427066 0.457576 0.079028
vn -0.258959 0.000104 -3.124010
v 0.464114 0.457576 0.078411
vn -0.465859 -0.000264 0.000000
v 0.513756 0.025000 0.071001
vn -0.259422 0.000103 3.123981
v 0.464876 0.025000 0.063669
vn 0.026022 0.000679 3.140514
v 0.428216 0.025000 0.063058
vn 0.104662 0.000888 3.139849
v 0.419051 0.025000 0.063364
vn 0.359902 0.001676 3.110361
v 0.409886 0.025000 0.063669
vn 0.616117 0.002467 3.080584
v 0.403776 0.025000 0.064891
vn 1.207938 0.004454 2.828159
v 0.397666 0.025000 0.066113
vn 2.473258 0.008814 1.289222
v 0.391556 0.025000 0.070390
vn 2.473257 0.008813 -1.289223
v 0.391556 0.025000 0.071612
vn 1.207939 0.004453 -2.828158
v 0.397666 0.025000 0.075889
vn 0.616117 0.002468 -3.080584
v 0.403776 0.025000 0.077111
vn 0.386064 0.001758 -3.109266
v 0.409886 0.025000 0.078333
vn 0.117626 0.000934 -3.139152
v 0.415996 0.025000 0.078639
vn 0.012971 0.000645 -3.140893
v 0.428216 0.025000 0.078944
vn -0.259422 0.000104 -3.123981
v 0.464876 0.025000 0.078333
vn -0.000000 0.002980 0.000000
v 0.849529 0.465722 0.071809
vn -0.000000 0.002651 0.000000
v 0.822366 0.465722 0.067735
vn 0.000000 0.002465 0.000000
v 0.801993 0.465722 0.067395
vn -0.000000 0.002612 0.000000
v 0.796900 0.465722 0.067565
vn 0.000000 0.003523 0.000000
v 0.791807 0.465722 0.067735
vn 0.000000 0.004433 -0.000000
v 0.788411 0.465722 0.068414
vn 0.000000 0.007169 -0.000000
v 0.785016 0.465722 0.069093
vn -0.000000 0.013445 0.000000
v 0.781621 0.465722 0.071470
vn 0.000000 0.013451 0.000000
v 0.781621 0.465722 0.072149
vn -0.000000 0.007175 -0.000000
v 0.785016 0.465722 0.074526
vn -0.000000 0.004431 -0.000000
v 0.788411 0.465722 0.075205
vn 0.000000 0.003616 0.000000
v 0.791807 0.465722 0.075884
vn 0.000000 0.002682 0.000000
v 0.795202 0.465722 0.076054
vn 0.000000 0.002441 -0.000000
v 0.801993 0.465722 0.076223
vn 0.000000 0.002652 -0.000000
v 0.822366 0.465722 0.075884
vn 0.466971 0.001496 0.000000
v 0.848982 0.636457 0.071809
vn 0.259091 0.001326 -3.124059
v 0.822223 0.636457 0.067795
vn -0.026129 0.001232 -3.140522
v 0.802153 0.636457 0.067461
vn -0.104661 0.001306 -3.139849
v 0.797136 0.636457 0.067628
vn -0.360093 0.001761 -3.110342
v 0.792118 0.636457 0.067795
vn -0.616116 0.002217 -3.080584
v 0.788773 0.636457 0.068464
vn -1.208224 0.003586 -2.827921
v 0.785428 0.636457 0.069133
vn -2.472849 0.006732 -1.288664
v 0.782083 0.636457 0.071475
vn -2.472873 0.006730 1.288647
v 0.782083 0.636457 0.072144
vn -1.208250 0.003583 2.827903
v 0.785428 0.636457 0.074485
vn -0.616073 0.002216 3.080593
v 0.788773 0.636457 0.075154
vn -0.386233 0.001807 3.109252
v 0.792118 0.636457 0.075823
vn -0.117674 0.001340 3.139153
v 0.795463 0.636457 0.075991
vn -0.013031 0.001220 3.140900
v 0.802153 0.636457 0.076158
vn 0.259091 0.001326 3.124059
v 0.822223 0.636457 0.075823
vn -0.466971 0.001496 -0.000000
v 0.848982 0.294987 0.071809
vn -0.259091 0.001326 3.124059
v 0.822223 0.294987 0.067795
vn 0.026129 0.001232 3.140522
v 0.802153 0.294987 0.067461
vn 0.104661 0.001306 3.139849
v 0.797136 0.294987 0.067628
vn 0.360093 0.001761 3.110342
v 0.792118 0.294987 0.067795
vn 0.616116 0.002217 3.080584
v 0.788773 0.294987 0.068464
vn 1.208224 0.003586 2.827921
v 0.785428 0.294987 0.069133
vn 2.472849 0.006732 1.288664
v 0.782083 0.294987 0.071475
vn 2.472873 0.006730 -1.288647
v 0.782083 0.294987 0.072144
vn 1.208250 0.003583 -2.827903
v 0.785428 0.294987 0.074485
vn 0.616073 0.002216 -3.080593
v 0.788773 0.294987 0.075154
vn 0.386233 0.001807 -3.109252
v 0.792118 0.294987 0.075823
vn 0.117674 0.001340 -3.139153
v 0.795463 0.294987 0.075991
vn 0.013031 0.001220 -3.140900
v 0.802153 0.294987 0.076158
vn -0.259091 0.001326 -3.124059
v 0.822223 0.294987 0.075823
vn -0.582526 -0.000000 0.000215
v 0.025000 0.465722 0.069748
vn -1.070839 5.500835 0.001553
v 0.115867 0.496347 0.069711
vn -1.065128 3.888254 3.891279
v 0.115867 0.487377 0.091354
vn -1.062698 -0.000045 5.501447
v 0.115867 0.465722 0.100318
vn -1.064992 -3.888235 3.891258
v 0.115867 0.444067 0.091354
vn -1.070826 -5.500833 0.001641
v 0.115867 0.435097 0.069711
vn -0.982865 -3.363941 -2.618070
v 0.115867 0.444067 0.048068
vn -0.970371 0.610218 -4.029009
v 0.115867 0.465722 0.039104
vn -1.076619 3.890658 -3.890430
v 0.115867 0.487377 0.048068
vn -0.296634 5.769907 -0.004923
v 0.257851 0.506456 0.069362
vn -0.301397 4.084894 4.080010
v 0.257851 0.494525 0.098165
vn -0.303549 -0.000093 5.774852
v 0.257851 0.465722 0.110095
vn -0.301321 -4.084869 4.079881
v 0.257851 0.436919 0.098165
vn -0.296638 -5.769986 -0.004750
v 0.257851 0.424989 0.069362
vn -0.258546 -3.568259 -2.855999
v 0.257851 0.436919 0.040559
vn -0.239458 0.667052 -4.154765
v 0.257851 0.465722 0.028628
vn -0.292669 4.075114 -4.079889
v 0.257851 0.494525 0.040559
vn 0.021541 5.751512 0.001258
v 0.387692 0.510625 0.069933
vn 0.007625 4.065890 4.065587
v 0.387692 0.497473 0.101706
vn 0.001635 0.000000 5.748614
v 0.387692 0.465722 0.114867
vn 0.007300 -4.065891 4.065586
v 0.387692 0.433971 0.101706
vn 0.021533 -5.751507 0.001253
v 0.387692 0.420819 0.069933
vn -0.021887 -3.506139 -2.708947
v 0.387692 0.433971 0.038161
vn -0.013461 0.684669 -4.099432
v 0.387692 0.465722 0.025000
vn 0.035474 4.068511 -4.065708
v 0.387692 0.497473 0.038161
vn 0.336393 5.768068 -0.002841
v 0.679761 0.499037 0.070690
vn 0.316899 4.081652 4.081845
v 0.679761 0.489280 0.094218
vn 0.309056 -0.000006 5.775096
v 0.679761 0.465722 0.103964
vn 0.317267 -4.081663 4.081938
v 0.679761 0.442165 0.094218
vn 0.336399 -5.767980 -0.002906
v 0.679761 0.432407 0.070690
vn 0.244918 -3.531764 -2.769202
v 0.679761 0.442165 0.047162
vn 0.239463 0.631215 -4.239972
v 0.679761 0.465722 0.037416
vn 0.355814 4.074098 -4.080022
v 0.679761 0.489280 0.047162
vn 0.664356 5.712337 0.021867
v 0.820136 0.488156 0.071683
vn 0.697420 4.012394 4.034805
v 0.820136 0.481585 0.087544
vn 0.710466 -0.000063 5.680939
v 0.820136 0.465722 0.094113
vn 0.697192 -4.012427 4.034633
v 0.820136 0.449859 0.087544
vn 0.664354 -5.712473 0.021976
v 0.820136 0.443289 0.071683
vn 0.467782 -3.553634 -2.807813
v 0.820136 0.449859 0.055822
vn 0.417934 0.646435 -4.182331
v 0.820136 0.465722 0.049253
vn 0.629542 4.065477 -4.044028
v 0.820136 0.481585 0.055822
vn 0.469252 2.981002 -0.020170
v 0.881738 0.478448 0.070048
vn 0.526326 2.121272 2.101455
v 0.881738 0.474721 0.079044
vn 0.550152 -0.000041 2.987783
v 0.881738 0.465722 0.082770
vn 0.526392 -2.121255 2.101566
v 0.881738 0.456724 0.079044
vn 0.469242 -2.980914 -0.020220
v 0.881738 0.452996 0.070048
vn 0.412737 -2.093610 -2.114168
v 0.881738 0.456724 0.061052
vn 0.356781 0.103587 -2.722482
v 0.881738 0.465722 0.057326
vn 0.412783 2.093619 -2.114081
v 0.881738 0.474721 0.061052
vn -1.645128 2.878660 0.014104
v 0.531436 0.488174 0.164037
vn -1.593258 2.034202 2.056150
v 0.531436 0.481598 0.179929
vn -1.560659 0.001138 2.900913
v 0.531436 0.465722 0.186511
vn -1.594875 -2.034330 2.056116
v 0.531436 0.449847 0.179929
vn -1.645172 -2.878659 0.011851
v 0.531436 0.443271 0.164037
vn -1.655781 -2.035594 -2.031217
v 0.531436 0.449847 0.148146
vn -1.649312 -0.001214 -2.877864
v 0.531436 0.465722 0.141563
vn -1.657382 2.035623 -2.031230
v 0.531436 0.481598 0.148146
vn -1.283489 5.154680 -0.007077
v 0.534512 0.489933 0.163983
vn -1.254349 3.669052 3.658497
v 0.534512 0.482842 0.181083
vn -1.233759 0.000670 5.200308
v 0.534512 0.465722 0.188165
vn -1.253582 -3.669874 3.659237
v 0.534512 0.448603 0.181083
vn -1.283519 -5.154666 -0.008444
v 0.534512 0.441512 0.163983
vn -1.289117 -3.638378 -3.643376
v 0.534512 0.448603 0.146884
vn -1.283711 -0.000762 -5.153974
v 0.534512 0.465722 0.139801
vn -1.288346 3.639103 -3.644127
v 0.534512 0.482842 0.146884
vn 0.281658 5.723593 0.000646
v 0.661775 0.489726 0.164091
vn 0.279582 4.045486 4.051215
v 0.661775 0.482695 0.181031
vn 0.278770 -0.000066 5.726892
v 0.661775 0.465722 0.188048
vn 0.279988 -4.045478 4.051017
v 0.661775 0.448749 0.181031
vn 0.281650 -5.723722 0.000757
v 0.661775 0.441719 0.164091
vn 0.282480 -4.046964 -4.051111
v 0.661775 0.448749 0.147151
vn 0.282881 0.000057 -5.728353
v 0.661775 0.465722 0.140134
vn 0.282915 4.046852 -4.051205
v 0.661775 0.482695 0.147151
vn 0.290356 5.864423 -0.000086
v 0.800836 0.476069 0.164071
vn 0.290703 4.149656 4.140324
v 0.800836 0.473038 0.171412
vn 0.289944 -0.000259 5.858853
v 0.800836 0.465722 0.174453
vn 0.290008 -4.149705 4.139892
v 0.800836 0.458406 0.171412
vn 0.290368 -5.864683 0.000434
v 0.800836 0.455376 0.164071
vn 0.289295 -4.149963 -4.139902
v 0.800836 0.458406 0.156729
vn 0.287934 0.000264 -5.858995
v 0.800836 0.465722 0.153688
vn 0.288594 4.149711 -4.140135
v 0.800836 0.473038 0.156729
vn -0.000027 2.904325 -0.000154
v 0.975000 0.476069 0.164037
vn 0.000324 2.055680 2.049134
v 0.975000 0.473038 0.171387
vn 0.000391 -0.000015 2.900637
v 0.975000 0.465722 0.174431
vn 0.000270 -2.055743 2.048953
v 0.975000 0.458406 0.171387
vn -0.000030 -2.904463 -0.000119
v 0.975000 0.455376 0.164037
vn -0.000467 -2.055648 -2.048894
v 0.975000 0.458406 0.156687
vn -0.000734 0.000020 -2.900221
v 0.975000 0.465722 0.153642
vn -0.000526 2.055565 -2.049054
v 0.975000 0.473038 0.156687
vn 3.305362 0.000237 0.022871
v 0.779557 0.465722 0.081870
vn 2.120298 -5.783962 0.015259
v 0.784670 0.468869 0.081870
vn 0.955256 -6.210140 0.007760
v 0.789783 0.469655 0.081870
vn 0.597608 -6.244617 0.005690
v 0.794896 0.470442 0.081870
vn 0.180947 -6.280305 0.003320
v 0.800009 0.470639 0.081870
vn 0.019673 -6.282377 0.002536
v 0.810235 0.470835 0.081870
vn -0.400838 -6.262232 0.001367
v 0.840912 0.470442 0.081870
vn -0.720601 0.000009 0.000646
v 0.881815 0.465722 0.081870
vn -0.400859 6.262240 0.001358
v 0.840912 0.461003 0.081870
vn 0.019867 6.282370 0.002533
v 0.810235 0.460609 0.081870
vn 0.181255 6.280299 0.003330
v 0.800009 0.460806 0.081870
vn 0.597034 6.244705 0.005670
v 0.794896 0.461003 0.081870
vn 0.955252 6.210142 0.007713
v 0.789783 0.461789 0.081870
vn 2.120503 5.784102 0.015234
v 0.784670 0.462576 0.081870
vn 3.280771 0.000232 0.022701
v 0.779040 0.465722 0.156606
vn 0.955298 -6.210134 0.007757
v 0.789324 0.469678 0.156606
vn 0.599821 -6.244000 0.005725
v 0.794466 0.470469 0.156606
vn 0.020248 -6.282324 0.002535
v 0.809892 0.470864 0.156606
vn -0.399897 -6.262202 0.001361
v 0.840745 0.470469 0.156606
vn -0.719785 0.000009 0.000645
v 0.881882 0.465722 0.156606
vn -0.399917 6.262210 0.001369
v 0.840745 0.460976 0.156606
vn 0.020443 6.282317 0.002540
v 0.809892 0.460580 0.156606
vn 0.599812 6.244002 0.005702
v 0.794466 0.460976 0.156606
vn 0.955298 6.210134 0.007716
v 0.789324 0.461767 0.156606
vn 2.128150 -5.777024 0.015282
v 0.784182 0.468887 0.156606
vn 0.181260 -6.280255 0.003330
v 0.799608 0.470667 0.156606
vn 0.181565 6.280249 0.003323
v 0.799608 0.460778 0.156606
vn 2.127787 5.777254 0.015267
v 0.784182 0.462558 0.156606
vn -1.570796 -1.570796 -1.570796
v 0.257851 0.463686 0.061215
vn 1.570796 -1.570796 -1.570796
v 0.282291 0.463686 0.061215
vn 1.570796 1.570796 -1.570796
v 0.282291 0.475906 0.061215
vn -1.570796 1.570796 -1.570796
v 0.257851 0.475906 0.061215
vn -1.570796 -1.570796 1.570796
v 0.257851 0.463686 0.081582
vn 1.570796 -1.570796 1.570796
v 0.282291 0.463686 0.081582
vn 1.570796 1.570796 1.570796
v 0.282291 0.475906 0.081582
vn -1.570796 1.570796 1.570796
v 0.257851 0.475906 0.081582
# 230 vertices, 0 vertices normals

f 1//1 17//17 16//16
f 2//2 18//18 17//17
f 3//3 19//19 18//18
f 4//4 20//20 19//19
f 5//5 21//21 20//20
f 6//6 22//22 21//21
f 7//7 23//23 22//22
f 8//8 24//24 23//23
f 9//9 25//25 24//24
f 10//10 26//26 25//25
f 11//11 27//27 26//26
f 12//12 28//28 27//27
f 13//13 29//29 28//28
f 14//14 30//30 29//29
f 15//15 16//16 30//30
f 1//1 2//2 17//17
f 2//2 3//3 18//18
f 3//3 4//4 19//19
f 4//4 5//5 20//20
f 5//5 6//6 21//21
f 6//6 7//7 22//22
f 7//7 8//8 23//23
f 8//8 9//9 24//24
f 9//9 10//10 25//25
f 10//10 11//11 26//26
f 11//11 12//12 27//27
f 12//12 13//13 28//28
f 13//13 14//14 29//29
f 14//14 15//15 30//30
f 15//15 1//1 16//16
f 31//31 47//47 46//46
f 32//32 48//48 47//47
f 33//33 49//49 48//48
f 34//34 50//50 49//49
f 35//35 51//51 50//50
f 36//36 52//52 51//51
f 37//37 53//53 52//52
f 38//38 54//54 53//53
f 39//39 55//55 54//54
f 40//40 56//56 55//55
f 41//41 57//57 56//56
f 42//42 58//58 57//57
f 43//43 59//59 58//58
f 44//44 60//60 59//59
f 45//45 46//46 60//60
f 31//31 32//32 47//47
f 32//32 33//33 48//48
f 33//33 34//34 49//49
f 34//34 35//35 50//50
f 35//35 36//36 51//51
f 36//36 37//37 52//52
f 37//37 38//38 53//53
f 38//38 39//39 54//54
f 39//39 40//40 55//55
f 40//40 41//41 56//56
f 41//41 42//42 57//57
f 42//42 43//43 58//58
f 43//43 44//44 59//59
f 44//44 45//45 60//60
f 45//45 31//31 46//46
f 61//61 77//77 76//76
f 62//62 78//78 77//77
f 63//63 79//79 78//78
f 64//64 80//80 79//79
f 65//65 81//81 80//80
f 66//66 82//82 81//81
f 67//67 83//83 82//82
f 68//68 84//84 83//83
f 69//69 85//85 84//84
f 70//70 86//86 85//85
f 71//71 87//87 86//86
f 72//72 88//88 87//87
f 73//73 89//89 88//88
f 74//74 90//90 89//89
f 75//75 76//76 90//90
f 61//61 62//62 77//77
f 62//62 63//63 78//78
f 63//63 64//64 79//79
f 64//64 65//65 80//80
f 65//65 66//66 81//81
f 66//66 67//67 82//82
f 67//67 68//68 83//83
f 68//68 69//69 84//84
f 69//69 70//70 85//85
f 70//70 71//71 86//86
f 71//71 72//72 87//87
f 72//72 73//73 88//88
f 73//73 74//74 89//89
f 74//74 75//75 90//90
f 75//75 61//61 76//76
f 61//61 92//92 91//91
f 62//62 93//93 92//92
f 63//63 94//94 93//93
f 64//64 95//95 94//94
f 65//65 96//96 95//95
f 66//66 97//97 96//96
f 67//67 98//98 97//97
f 68//68 99//99 98//98
f 69//69 100//100 99//99
f 70//70 101//101 100//100
f 71//71 102//102 101//101
f 72//72 103//103 102//102
f 73//73 104//104 103//103
f 74//74 105//105 104//104
f 75//75 91//91 105//105
f 61//61 62//62 92//92
f 62//62 63//63 93//93
f 63//63 64//64 94//94
f 64//64 65//65 95//95
f 65//65 66//66 96//96
f 66//66 67//67 97//97
f 67//67 68//68 98//98
f 68//68 69//69 99//99
f 69//69 70//70 100//100
f 70//70 71//71 101//101
f 71//71 72//72 102//102
f 72//72 73//73 103//103
f 73//73 74//74 104//104
f 74//74 75//75 105//105
f 75//75 61//61 91//91
f 106//106 108//108 107//107
f 106//106 109//109 108//108
f 106//106 110//110 109//109
f 106//106 111//111 110//110
f 106//106 112//112 111//111
f 106//106 113//113 112//112
f 106//106 114//114 113//113
f 106//106 107//107 114//114
f 107//107 116//116 115//115
f 108//108 117//117 116//116
f 109//109 118//118 117//117
f 110//110 119//119 118//118
f 111//111 120//120 119//119
f 112//112 121//121 120//120
f 113//113 122//122 121//121
f 114//114 115//115 122//122
f 115//115 124//124 123//123
f 116//116 125//125 124//124
f 117//117 126//126 125//125
f 118//118 127//127 126//126
f 119//119 128//128 127//127
f 120//120 129//129 128//128
f 121//121 130//130 129//129
f 122//122 123//123 130//130
f 123//123 132//132 131//131
f 124//124 133//133 132//132
f 125//125 134//134 133//133
f 126//126 135//135 134//134
f 127//127 136//136 135//135
f 128//128 137//137 136//136
f 129//129 138//138 137//137
f 130//130 131//131 138//138
f 131//131 140//140 139//139
f 132//132 141//141 140//140
f 133//133 142//142 141//141
f 134//134 143//143 142//142
f 135//135 144//144 143//143
f 136//136 145//145 144//144
f 137//137 146//146 145//145
f 138//138 139//139 146//146
f 139//139 148//148 147//147
f 140//140 149//149 148//148
f 141//141 150//150 149//149
f 142//142 151//151 150//150
f 143//143 152//152 151//151
f 144//144 153//153 152//152
f 145//145 154//154 153//153
f 146//146 147//147 154//154
f 107//107 108//108 116//116
f 108//108 109//109 117//117
f 109//109 110//110 118//118
f 110//110 111//111 119//119
f 111//111 112//112 120//120
f 113//113 114//114 122//122
f 114//114 107//107 115//115
f 115//115 116//116 124//124
f 116//116 117//117 125//125
f 117//117 118//118 126//126
f 118//118 119//119 127//127
f 119//119 120//120 128//128
f 121//121 122//122 130//130
f 122//122 115//115 123//123
f 123//123 124//124 132//132
f 124//124 125//125 133//133
f 125//125 126//126 134//134
f 126//126 127//127 135//135
f 127//127 128//128 136//136
f 129//129 130//130 138//138
f 130//130 123//123 131//131
f 131//131 132//132 140//140
f 132//132 133//133 141//141
f 133//133 134//134 142//142
f 134//134 135//135 143//143
f 135//135 136//136 144//144
f 137//137 138//138 146//146
f 138//138 131//131 139//139
f 139//139 140//140 148//148
f 140//140 141//141 149//149
f 141//141 142//142 150//150
f 142//142 143//143 151//151
f 143//143 144//144 152//152
f 145//145 146//146 154//154
f 146//146 139//139 147//147
f 155//155 164//164 163//163
f 156//156 165//165 164//164
f 157//157 166//166 165//165
f 158//158 167//167 166//166
f 159//159 168//168 167//167
f 160//160 169//169 168//168
f 161//161 170//170 169//169
f 162//162 163//163 170//170
f 163//163 172//172 171//171
f 164//164 173//173 172//172
f 165//165 174//174 173//173
f 166//166 175//175 174//174
f 167//167 176//176 175//175
f 168//168 177//177 176//176
f 169//169 178//178 177//177
f 170//170 171//171 178//178
f 171//171 180//180 179//179
f 172//172 181//181 180//180
f 173//173 182//182 181//181
f 174//174 183//183 182//182
f 175//175 184//184 183//183
f 176//176 185//185 184//184
f 177//177 186//186 185//185
f 178//178 179//179 186//186
f 179//179 188//188 187//187
f 180//180 189//189 188//188
f 181//181 190//190 189//189
f 182//182 191//191 190//190
f 183//183 192//192 191//191
f 184//184 193//193 192//192
f 185//185 194//194 193//193
f 186//186 187//187 194//194
f 155//155 156//156 164//164
f 156//156 157//157 165//165
f 157//157 158//158 166//166
f 158//158 159//159 167//167
f 159//159 160//160 168//168
f 160//160 161//161 169//169
f 161//161 162//162 170//170
f 162//162 155//155 163//163
f 163//163 164//164 172//172
f 164//164 165//165 173//173
f 165//165 166//166 174//174
f 166//166 167//167 175//175
f 167//167 168//168 176//176
f 168//168 169//169 177//177
f 169//169 170//170 178//178
f 170//170 163//163 171//171
f 171//171 172//172 180//180
f 172//172 173//173 181//181
f 173//173 174//174 182//182
f 174//174 175//175 183//183
f 175//175 176//176 184//184
f 176//176 177//177 185//185
f 177//177 178//178 186//186
f 178//178 171//171 179//179
f 179//179 180//180 188//188
f 180//180 181//181 189//189
f 181//181 182//182 190//190
f 182//182 183//183 191//191
f 183//183 184//184 192//192
f 184//184 185//185 193//193
f 185//185 186//186 194//194
f 186//186 179//179 187//187
f 195//195 219//219 209//209
f 196//196 210//210 219//219
f 197//197 211//211 210//210
f 198//198 220//220 211//211
f 199//199 212//212 220//220
f 200//200 213//213 212//212
f 201//201 214//214 213//213
f 202//202 215//215 214//214
f 203//203 216//216 215//215
f 204//204 221//221 216//216
f 205//205 217//217 221//221
f 206//206 218//218 217//217
f 207//207 222//222 218//218
f 208//208 209//209 222//222
f 195//195 196//196 219//219
f 196//196 197//197 210//210
f 197//197 198//198 211//211
f 198//198 199//199 220//220
f 199//199 200//200 212//212
f 200//200 201//201 213//213
f 201//201 202//202 214//214
f 202//202 203//203 215//215
f 203//203 204//204 216//216
f 204//204 205//205 221//221
f 205//205 206//206 217//217
f 206//206 207//207 218//218
f 207//207 208//208 222//222
f 208//208 195//195 209//209
f 195//195 219//219 209//209
f 196//196 210//210 219//219
f 197//197 211//211 210//210
f 198//198 220//220 211//211
f 199//199 212//212 220//220
f 200//200 213//213 212//212
f 201//201 214//214 213//213
f 202//202 215//215 214//214
f 203//203 216//216 215//215
f 204//204 221//221 216//216
f 205//205 217//217 221//221
f 206//206 218//218 217//217
f 207//207 222//222 218//218
f 208//208 209//209 222//222
f 195//195 196//196 219//219
f 196//196 197//197 210//210
f 197//197 198//198 211//211
f 198//198 199//199 220//220
f 199//199 200//200 212//212
f 200//200 201//201 213//213
f 201//201 202//202 214//214
f 202//202 203//203 215//215
f 203//203 204//204 216//216
f 204//204 205//205 221//221
f 205//205 206//206 217//217
f 206//206 207//207 218//218
f 207//207 208//208 222//222
f 208//208 195//195 209//209
f 223//223 226//226 224//224
f 224//224 226//226 225//225
f 223//223 228//228 227//227
f 223//223 224//224 228//228
f 223//223 227//227 226//226
f 226//226 227//227 230//230
f 226//226 230//230 229//229
f 226//226 229//229 225//225
f 224//224 229//229 228//228
f 224//224 225//225 229//229
f 228//228 230//230 227//227
f 228//228 229//229 230//230
# 335 faces, 0 coords texture

# End of File
