####
#
# OBJ File Generated by Meshlab
#
####
# Object m1299.obj
#
# Vertices: 210
# Faces: 264
#
####
vn -0.821052 0.947400 0.230835
v 0.025000 0.586800 0.642532
vn -0.264825 0.043020 0.484051
v 0.025641 0.565020 0.677765
vn 0.522423 1.426547 -0.398681
v 0.038431 0.569504 0.611800
vn 0.618926 1.375465 -0.439053
v 0.038521 0.556052 0.637998
vn -1.570700 0.000000 0.000000
v 0.040374 0.553201 0.639150
vn -3.612383 -3.034991 -0.793667
v 0.040374 0.556052 0.640610
vn -1.570862 0.000000 0.000000
v 0.040374 0.558903 0.642070
vn -1.570821 0.000000 0.000000
v 0.040374 0.566654 0.612886
vn -3.462289 -0.799449 -2.007984
v 0.040374 0.569504 0.614346
vn -1.570802 0.000000 0.000000
v 0.040374 0.572355 0.615806
vn 0.618841 1.375277 -0.438993
v 0.042228 0.556052 0.643223
vn 0.522529 1.426833 -0.398760
v 0.042317 0.569504 0.616892
vn -0.680010 1.893889 -1.075344
v 0.044218 0.585519 0.606659
vn 0.118416 -0.758318 1.288706
v 0.047421 0.547084 0.666875
vn 3.620843 4.659396 1.948420
v 0.048061 0.577192 0.627158
vn 3.903595 3.950801 2.811945
v 0.048702 0.565661 0.646376
vn -0.022729 0.007502 0.052624
v 0.156962 0.455479 0.921831
vn -0.034618 0.082210 0.091933
v 0.161446 0.465728 0.916065
vn 0.264339 0.610458 0.090932
v 0.178742 0.464447 0.891723
vn -0.248297 -0.438150 0.408543
v 0.185789 0.328641 0.803321
vn -0.575871 0.171778 0.208720
v 0.188992 0.323517 0.805243
vn -1.063508 -0.858161 -0.538469
v 0.192195 0.319032 0.779619
vn -1.628260 2.534476 -0.155719
v 0.199882 0.329282 0.771932
vn 0.110099 1.529351 -0.340865
v 0.200678 0.415121 0.623611
vn -0.099783 1.542970 0.277568
v 0.200712 0.415121 0.623512
vn 3.105823 2.916845 2.963090
v 0.201804 0.324798 0.778978
vn -2.063180 -0.800940 -0.611695
v 0.201804 0.415121 0.621392
vn 1.870434 1.504356 1.119234
v 0.203726 0.415121 0.624595
vn 0.000000 0.000000 0.000000
v 0.205007 0.458041 0.851365
vn 1.224202 -2.250969 1.734415
v 0.206288 0.317751 0.776416
vn -0.099768 1.542748 0.277528
v 0.206740 0.415121 0.625679
vn 0.110107 1.529460 -0.340889
v 0.206774 0.415121 0.625580
vn 0.603781 1.380522 -0.443654
v 0.212719 0.438183 0.514395
vn 0.618835 1.375325 -0.439046
v 0.212762 0.438183 0.514363
vn -0.112746 1.523903 0.364192
v 0.214119 0.404872 0.582010
vn 0.110107 1.529460 -0.340889
v 0.214130 0.404872 0.581972
vn -1.994017 -2.431758 -0.257036
v 0.214616 0.438183 0.516976
vn -0.099768 1.542748 0.277528
v 0.215445 0.423449 0.582514
vn -0.039202 1.568329 0.078404
v 0.215594 0.423449 0.582165
vn 0.618875 1.375415 -0.439076
v 0.216469 0.438183 0.519588
vn 0.603837 1.380626 -0.443677
v 0.216512 0.438183 0.519557
vn -4.428065 -3.797924 -2.318710
v 0.216537 0.317111 0.737340
vn -3.101637 -2.169289 -1.307226
v 0.217178 0.404872 0.582957
vn 1.310960 3.395451 1.114765
v 0.219740 0.342094 0.709154
vn 0.110099 1.529351 -0.340865
v 0.220226 0.404872 0.583941
vn -0.112735 1.523795 0.364166
v 0.220237 0.404872 0.583904
vn -0.039203 1.568329 0.078404
v 0.221324 0.423449 0.585030
vn -0.099783 1.542970 0.277568
v 0.221473 0.423449 0.584681
vn 0.764662 2.981788 0.786480
v 0.221662 0.424090 0.584879
vn -0.112723 1.523807 0.364170
v 0.222446 0.411918 0.555105
vn 2.296762 0.440265 1.726495
v 0.224225 0.406153 0.599612
vn -1.534487 0.294526 0.161995
v 0.225506 0.410375 0.558858
vn -4.100438 -0.849515 -1.540951
v 0.225506 0.411918 0.556052
vn -1.534372 0.294505 0.161970
v 0.225506 0.413462 0.553245
vn -0.039206 1.568298 0.078402
v 0.225844 0.424730 0.561666
vn -0.112722 1.523829 0.364176
v 0.228565 0.411918 0.556999
vn -1.534467 0.294518 0.162030
v 0.228709 0.423186 0.565905
vn -0.132026 2.739358 1.279175
v 0.228709 0.424730 0.563098
vn -1.534323 0.294492 0.162002
v 0.228709 0.426274 0.560292
vn -4.755137 -3.963181 -0.808208
v 0.230630 0.422168 0.527866
vn -1.811819 3.394449 -1.132878
v 0.231271 0.346578 0.708513
vn -0.039211 1.568437 0.078408
v 0.231573 0.424730 0.564531
vn -7.283908 -3.187921 -2.091288
v 0.231912 0.417043 0.536834
vn 2.348247 4.621539 2.448547
v 0.233193 0.418965 0.590644
vn 1.417135 2.433333 1.501506
v 0.234474 0.383092 0.650219
vn 0.000000 0.000000 0.000000
v 0.236396 0.320954 0.975000
vn 0.105198 1.562011 -0.127752
v 0.243532 0.417043 0.491878
vn 0.603854 1.380444 -0.443524
v 0.244109 0.417043 0.491333
vn -2.439341 -2.309297 -1.217165
v 0.246005 0.417043 0.493914
vn 3.037787 0.533443 2.256812
v 0.246645 0.296612 0.727090
vn 0.603967 1.380675 -0.443587
v 0.247901 0.417043 0.496496
vn 0.105205 1.562101 -0.127759
v 0.248477 0.417043 0.495950
vn -0.000282 -0.000903 0.032748
v 0.248567 0.317751 0.974359
vn 3.247887 2.781531 1.984628
v 0.248567 0.331204 0.725809
vn -4.954415 -4.122052 -2.423112
v 0.251770 0.395263 0.520179
vn 1.993044 5.441284 1.957409
v 0.251770 0.418965 0.573348
vn 1.956037 -3.152010 1.383486
v 0.256254 0.303658 0.725169
vn -4.546813 -3.490661 -2.477002
v 0.256254 0.313908 0.670078
vn 0.134947 0.003198 0.158024
v 0.264582 0.319032 0.948736
vn 2.790412 5.052803 1.929415
v 0.265863 0.431136 0.504804
vn 0.709736 0.068109 0.289616
v 0.286362 0.320954 0.905175
vn 2.833348 4.892328 2.646182
v 0.287003 0.345937 0.660469
vn 2.769913 5.183040 1.455816
v 0.288924 0.431777 0.462525
vn 4.556482 1.941257 3.776917
v 0.300455 0.322876 0.669437
vn 2.193532 1.104734 2.045657
v 0.304939 0.263941 0.696982
vn 2.660758 5.300156 1.192425
v 0.317111 0.429214 0.413840
vn 0.047986 1.562019 -0.159080
v 0.318528 0.212694 0.699901
vn 0.236836 1.529155 -0.270629
v 0.319184 0.212694 0.698717
vn 1.851740 1.576208 1.060923
v 0.320954 0.216537 0.704029
vn -1.666031 -1.542717 -0.381881
v 0.321595 0.212694 0.700826
vn -0.400454 0.641054 -0.779183
v 0.322235 0.445229 0.338250
vn 0.236812 1.529003 -0.270602
v 0.324005 0.212694 0.702936
vn 0.105212 1.561977 -0.127738
v 0.324247 0.403591 0.393867
vn 0.047984 1.561949 -0.159073
v 0.324661 0.212694 0.701751
vn 0.522548 1.426661 -0.398608
v 0.324777 0.403591 0.393357
vn -3.963853 -3.669970 -2.347409
v 0.326719 0.403591 0.395904
vn -0.262257 0.024777 0.494574
v 0.328001 0.053827 0.878270
vn -0.951702 1.007448 0.590316
v 0.328641 0.071123 0.853928
vn 0.522569 1.426715 -0.398622
v 0.328662 0.403591 0.398450
vn 0.105222 1.562126 -0.127749
v 0.329192 0.403591 0.397940
vn 0.047984 1.561949 -0.159073
v 0.330700 0.208210 0.659544
vn 0.364279 1.470117 -0.416343
v 0.331355 0.208210 0.658359
vn 1.016926 2.578454 0.795151
v 0.333125 0.221662 0.671999
vn -2.939123 -2.488709 -1.118686
v 0.333766 0.208210 0.660469
vn 3.693734 3.482758 3.290322
v 0.335688 0.341453 0.620752
vn 0.364297 1.470162 -0.416352
v 0.336177 0.208210 0.662578
vn 0.047986 1.562019 -0.159080
v 0.336833 0.208210 0.661394
vn 2.409631 5.235993 1.788002
v 0.336969 0.416403 0.494555
vn 0.525077 -0.525042 1.384245
v 0.337907 0.047077 0.839835
vn 2.525472 5.604155 0.629360
v 0.339531 0.427293 0.371561
vn -1.551261 0.113826 -0.219715
v 0.340172 0.046498 0.838361
vn -4.044205 -2.299608 -1.056351
v 0.340172 0.049343 0.839835
vn -1.551108 0.113815 -0.219693
v 0.340172 0.052187 0.841308
vn 0.525054 -0.525019 1.384185
v 0.342437 0.051608 0.839835
vn 0.125335 1.555256 -0.181713
v 0.345863 0.203085 0.668259
vn 0.236812 1.529003 -0.270602
v 0.346089 0.203085 0.667968
vn -4.396626 -3.618418 -2.590931
v 0.349140 0.306861 0.511210
vn -0.127728 1.558103 -0.153268
v 0.349242 0.197960 0.642020
vn 0.364317 1.470093 -0.416313
v 0.349292 0.197960 0.637860
vn 4.298876 3.289565 3.079142
v 0.350421 0.055748 0.846881
vn 2.611767 0.131970 1.794697
v 0.350421 0.206288 0.670718
vn 0.236836 1.529155 -0.270629
v 0.350910 0.203085 0.672187
vn 4.263736 1.348154 3.510014
v 0.351062 0.219740 0.668796
vn 0.125328 1.555162 -0.181703
v 0.351136 0.203085 0.671896
vn -2.133457 -0.555654 -1.706240
v 0.351703 0.197960 0.639970
vn 0.364358 1.470227 -0.416347
v 0.354113 0.197960 0.642079
vn -0.127724 1.558047 -0.153262
v 0.354163 0.197960 0.637919
vn 0.221842 -0.831533 0.934880
v 0.355546 0.028203 0.862256
vn 0.525054 -0.525019 1.384185
v 0.356484 0.028500 0.825742
vn 0.125328 1.555162 -0.181703
v 0.358675 0.199882 0.649682
vn -1.529414 0.153837 -0.323170
v 0.358749 0.027874 0.824365
vn -1.661462 -3.496743 -0.990233
v 0.358749 0.030765 0.825742
vn -1.529534 0.153850 -0.323195
v 0.358749 0.033657 0.827118
vn -0.127724 1.558047 -0.153262
v 0.358851 0.199882 0.653551
vn 0.525077 -0.525042 1.384245
v 0.361014 0.033030 0.825742
vn 1.565069 -0.277883 2.599699
v 0.361312 0.199882 0.651500
vn -0.127728 1.558103 -0.153268
v 0.363772 0.199882 0.649450
vn -5.117283 -3.826830 -2.547159
v 0.363874 0.205647 0.594488
vn 0.125335 1.555256 -0.181713
v 0.363948 0.199882 0.653319
vn 5.015785 2.334227 2.844033
v 0.365155 0.041015 0.837913
vn -6.221484 -5.123311 -1.736911
v 0.365155 0.191554 0.625236
vn 4.661862 0.749476 3.888759
v 0.366436 0.225506 0.649579
vn -4.994943 -2.504225 -2.585909
v 0.371561 0.183867 0.621392
vn 1.472914 -1.647981 0.219410
v 0.376045 0.025000 0.827023
vn -1.547228 0.122935 -0.241889
v 0.378608 0.157310 0.624426
vn -1.551075 0.113820 -0.219685
v 0.378608 0.157321 0.624403
vn -2.881208 -0.933242 -0.868277
v 0.378608 0.160165 0.625877
vn -1.551298 0.113837 -0.219716
v 0.378608 0.163009 0.627350
vn -1.547163 0.122929 -0.241879
v 0.378608 0.163020 0.627328
vn -0.102138 1.557270 0.178236
v 0.383516 0.180024 0.585208
vn -1.547212 0.122917 -0.241892
v 0.386295 0.177168 0.585349
vn -2.751886 -1.782438 -1.415516
v 0.386295 0.180024 0.586800
vn -1.547140 0.122910 -0.241881
v 0.386295 0.182879 0.588251
vn -0.102143 1.557344 0.178244
v 0.389074 0.180024 0.588393
vn -0.509038 0.763464 -0.866391
v 0.403591 0.406153 0.258176
vn 4.872062 1.462422 3.276163
v 0.404231 0.196679 0.597050
vn 2.159104 5.720004 -0.112186
v 0.408715 0.400388 0.275472
vn 2.541070 5.407269 0.550414
v 0.414481 0.410637 0.373483
vn 3.331477 4.869869 1.977432
v 0.426652 0.389498 0.418324
vn 5.110157 1.243197 3.008653
v 0.430496 0.192835 0.556693
vn 4.860687 1.091881 3.393993
v 0.434339 0.252411 0.559255
vn -0.102158 1.557207 0.178217
v 0.446294 0.196679 0.475666
vn -1.529442 0.153870 -0.323162
v 0.449073 0.193787 0.475882
vn -4.210708 -3.246637 -2.531031
v 0.449073 0.196679 0.477259
vn -1.529501 0.153876 -0.323174
v 0.449073 0.199571 0.478636
vn -1.009977 1.050594 -1.836127
v 0.450995 0.381811 0.213975
vn 0.698404 4.009532 -0.730689
v 0.451635 0.386295 0.239599
vn -0.102171 1.557399 0.178238
v 0.451852 0.196679 0.478852
vn 0.915966 3.191386 -0.727599
v 0.458041 0.383732 0.231271
vn 5.249784 0.989625 2.905367
v 0.458682 0.190273 0.508007
vn 4.066211 3.584157 2.996829
v 0.461244 0.346578 0.443948
vn 2.074982 4.116923 0.089156
v 0.464447 0.390779 0.274831
vn 5.520689 0.578016 2.648511
v 0.481743 0.186430 0.466369
vn 5.017486 2.048921 3.068755
v 0.484305 0.291487 0.456760
vn 0.521484 -0.891781 -0.088927
v 0.497758 0.151197 0.456760
vn 2.100260 5.465513 -0.377506
v 0.504164 0.346578 0.183867
vn -4.472947 -3.658981 -2.462567
v 0.504804 0.294690 0.245364
vn 1.020164 4.942381 -1.038663
v 0.506086 0.349140 0.197960
vn 5.436002 0.483114 2.419816
v 0.508648 0.251770 0.435620
vn 0.495169 4.051927 -0.537537
v 0.509289 0.357468 0.245364
vn 5.674622 -0.057734 2.261140
v 0.527866 0.199241 0.354265
vn 0.302061 6.178020 -1.079211
v 0.529788 0.360030 0.261379
vn -2.201205 -1.756790 -1.273781
v 0.534912 0.184508 0.345297
vn 2.809629 0.711861 1.139685
v 0.534912 0.185789 0.345297
vn -1.481336 1.033383 -1.766357
v 0.539396 0.331844 0.115964
vn 3.738348 -1.152871 1.296913
v 0.550287 0.219100 0.305580
vn 4.270305 0.373309 1.590774
v 0.550287 0.246005 0.331844
vn 0.836096 -2.116558 -0.626184
v 0.554771 0.206929 0.282519
vn 3.182821 -0.817232 0.875643
v 0.554771 0.220381 0.295330
vn 3.602731 -1.239572 1.529909
v 0.556693 0.276753 0.276753
vn 1.944058 5.324724 0.680354
v 0.559255 0.362593 0.287003
vn -4.542856 -3.664868 -2.266904
v 0.559895 0.290206 0.151197
vn 4.762786 -1.308908 1.414395
v 0.563098 0.252411 0.235755
vn 5.608383 -0.175966 1.859470
v 0.564380 0.244083 0.224225
vn 5.349416 -2.372263 2.271855
v 0.565020 0.300455 0.284440
vn 0.966180 5.991860 -1.352824
v 0.567583 0.344016 0.180024
vn 4.108805 3.521919 2.917628
v 0.569504 0.351062 0.293409
vn 5.055260 0.090448 2.723514
v 0.574629 0.336328 0.297252
vn -0.970005 0.627336 -1.551976
v 0.581676 0.306221 0.070482
vn 3.373963 4.598068 -1.640633
v 0.589363 0.326079 0.142869
vn 3.005070 4.973740 -1.572963
v 0.591925 0.336328 0.176821
vn 0.507659 -2.396205 -0.356066
v 0.592566 0.241521 0.151197
vn 3.034782 2.041800 0.621355
v 0.597050 0.351703 0.252411
vn 5.650900 -1.914421 1.733341
v 0.597690 0.293409 0.199882
vn 5.419332 2.817136 -1.117755
v 0.600253 0.311986 0.147353
vn 5.119895 2.709226 -1.001225
v 0.602815 0.326079 0.178742
vn 6.042773 -0.143685 0.564589
v 0.605378 0.313267 0.185789
vn 5.950176 0.144804 0.045633
v 0.606659 0.296612 0.154400
vn 0.455803 -1.798142 -0.608383
v 0.609221 0.259457 0.089059
vn 0.114369 -0.024142 -0.234318
v 0.632283 0.283159 0.025000
# 210 vertices, 0 vertices normals

f 12//12 99//99 95//95
f 7//7 10//10 8//8
f 34//34 4//4 11//11
f 68//68 33//33 41//41
f 93//93 67//67 72//72
f 47//47 62//62 55//55
f 31//31 48//48 38//38
f 36//36 24//24 32//32
f 50//50 35//35 46//46
f 59//59 54//54 52//52
f 149//149 153//153 151//151
f 113//113 148//148 146//146
f 135//135 114//114 109//109
f 163//163 131//131 133//133
f 154//154 168//168 162//162
f 106//106 126//126 119//119
f 94//94 107//107 101//101
f 116//116 88//88 92//92
f 130//130 115//115 124//124
f 118//118 134//134 137//137
f 171//171 197//197 191//191
f 191//191 197//197 203//203
f 105//105 171//171 159//159
f 108//108 159//159 158//158
f 182//182 196//196 180//180
f 196//196 185//185 176//176
f 159//159 180//180 172//172
f 191//191 203//203 182//182
f 203//203 196//196 182//182
f 203//203 201//201 196//196
f 180//180 196//196 178//178
f 178//178 176//176 166//166
f 176//176 185//185 166//166
f 172//172 167//167 157//157
f 167//167 166//166 157//157
f 166//166 167//167 169//169
f 172//172 157//157 110//110
f 191//191 182//182 159//159
f 182//182 180//180 159//159
f 108//108 83//83 80//80
f 108//108 80//80 58//58
f 108//108 76//76 105//105
f 205//205 210//210 199//199
f 200//200 205//205 199//199
f 205//205 200//200 201//201
f 201//201 200//200 185//185
f 200//200 199//199 185//185
f 206//206 201//201 203//203
f 76//76 58//58 49//49
f 64//64 49//49 28//28
f 28//28 51//51 64//64
f 74//74 105//105 82//82
f 74//74 23//23 26//26
f 82//82 29//29 19//19
f 74//74 19//19 18//18
f 26//26 18//18 17//17
f 82//82 61//61 19//19
f 61//61 23//23 18//18
f 23//23 20//20 17//17
f 105//105 76//76 64//64
f 105//105 65//65 82//82
f 44//44 51//51 28//28
f 44//44 23//23 61//61
f 82//82 65//65 61//61
f 157//157 166//166 155//155
f 110//110 157//157 155//155
f 158//158 110//110 86//86
f 158//158 86//86 83//83
f 110//110 91//91 13//13
f 110//110 15//15 86//86
f 83//83 15//15 16//16
f 86//86 15//15 83//83
f 80//80 16//16 14//14
f 15//15 13//13 1//1
f 15//15 1//1 2//2
f 16//16 2//2 14//14
f 199//199 210//210 192//192
f 199//199 192//192 185//185
f 185//185 192//192 177//177
f 166//166 177//177 155//155
f 155//155 177//177 96//96
f 91//91 96//96 9//9
f 13//13 9//9 1//1
f 9//9 6//6 2//2
f 14//14 2//2 6//6
f 69//69 60//60 37//37
f 75//75 63//63 60//60
f 60//60 63//63 58//58
f 58//58 63//63 53//53
f 37//37 58//58 14//14
f 96//96 117//117 69//69
f 177//177 117//117 96//96
f 117//117 75//75 69//69
f 117//117 78//78 75//75
f 75//75 43//43 63//63
f 75//75 43//43 53//53
f 75//75 53//53 63//63
f 43//43 42//42 22//22
f 78//78 42//42 43//43
f 197//197 171//171 174//174
f 197//197 198//198 203//203
f 171//171 105//105 161//161
f 174//174 161//161 179//179
f 204//204 195//195 190//190
f 202//202 204//204 193//193
f 190//190 174//174 179//179
f 203//203 198//198 195//195
f 204//204 203//203 195//195
f 207//207 203//203 204//204
f 204//204 190//190 193//193
f 194//194 193//193 189//189
f 202//202 194//194 188//188
f 186//186 187//187 181//181
f 188//188 186//186 181//181
f 186//186 188//188 189//189
f 181//181 187//187 179//179
f 195//195 198//198 174//174
f 190//190 195//195 174//174
f 160//160 161//161 156//156
f 156//156 161//161 142//142
f 142//142 161//161 105//105
f 210//210 205//205 209//209
f 205//205 208//208 209//209
f 208//208 205//205 206//206
f 208//208 207//207 204//204
f 209//209 208//208 202//202
f 207//207 206//206 203//203
f 136//136 142//142 123//123
f 121//121 123//123 89//89
f 103//103 89//89 123//123
f 105//105 74//74 84//84
f 30//30 74//74 26//26
f 81//81 84//84 74//74
f 79//79 74//74 26//26
f 73//73 26//26 21//21
f 77//77 84//84 81//81
f 30//30 77//77 79//79
f 21//21 30//30 73//73
f 142//142 105//105 85//85
f 85//85 105//105 84//84
f 103//103 70//70 30//30
f 30//30 70//70 77//77
f 85//85 84//84 77//77
f 188//188 181//181 184//184
f 181//181 173//173 175//175
f 173//173 179//179 170//170
f 170//170 179//179 161//161
f 175//175 173//173 140//140
f 140//140 173//173 170//170
f 140//140 160//160 156//156
f 140//140 170//170 160//160
f 120//120 156//156 136//136
f 144//144 140//140 128//128
f 128//128 140//140 120//120
f 97//97 120//120 98//98
f 210//210 209//209 192//192
f 192//192 209//209 202//202
f 192//192 202//202 188//188
f 177//177 188//188 183//183
f 177//177 183//183 175//175
f 164//164 175//175 144//144
f 132//132 144//144 128//128
f 112//112 132//132 128//128
f 97//97 98//98 112//112
f 143//143 152//152 147//147
f 141//141 138//138 152//152
f 141//141 143//143 147//147
f 141//141 136//136 125//125
f 136//136 147//147 112//112
f 117//117 164//164 152//152
f 117//117 177//177 164//164
f 138//138 117//117 152//152
f 78//78 117//117 138//138
f 104//104 138//138 141//141
f 104//104 138//138 141//141
f 42//42 104//104 90//90
f 42//42 78//78 138//138
f 12//12 95//95 3//3
f 7//7 8//8 5//5
f 34//34 11//11 40//40
f 68//68 41//41 71//71
f 93//93 72//72 100//100
f 47//47 55//55 39//39
f 31//31 38//38 25//25
f 36//36 32//32 45//45
f 50//50 46//46 56//56
f 59//59 52//52 57//57
f 149//149 151//151 145//145
f 113//113 146//146 111//111
f 135//135 109//109 129//129
f 163//163 133//133 165//165
f 154//154 162//162 150//150
f 106//106 119//119 102//102
f 94//94 101//101 87//87
f 116//116 92//92 122//122
f 130//130 124//124 139//139
f 118//118 137//137 127//127
f 171//171 191//191 159//159
f 105//105 159//159 108//108
f 196//196 176//176 178//178
f 159//159 172//172 158//158
f 178//178 166//166 169//169
f 172//172 110//110 158//158
f 108//108 58//58 76//76
f 205//205 201//201 206//206
f 201//201 185//185 196//196
f 76//76 49//49 64//64
f 82//82 19//19 74//74
f 74//74 18//18 26//26
f 26//26 17//17 20//20
f 82//82 19//19 29//29
f 61//61 18//18 19//19
f 23//23 17//17 18//18
f 105//105 64//64 65//65
f 44//44 28//28 23//23
f 110//110 155//155 91//91
f 158//158 83//83 108//108
f 110//110 13//13 15//15
f 83//83 16//16 80//80
f 80//80 14//14 58//58
f 15//15 2//2 16//16
f 185//185 177//177 166//166
f 155//155 96//96 91//91
f 91//91 9//9 13//13
f 9//9 2//2 1//1
f 75//75 60//60 69//69
f 60//60 58//58 37//37
f 37//37 14//14 6//6
f 43//43 22//22 27//27
f 78//78 43//43 75//75
f 197//197 174//174 198//198
f 171//171 161//161 174//174
f 202//202 193//193 194//194
f 190//190 179//179 187//187
f 194//194 189//189 188//188
f 181//181 179//179 173//173
f 156//156 142//142 136//136
f 208//208 206//206 207//207
f 208//208 204//204 202//202
f 136//136 123//123 121//121
f 81//81 74//74 79//79
f 79//79 26//26 73//73
f 73//73 21//21 66//66
f 77//77 81//81 79//79
f 30//30 79//79 73//73
f 21//21 73//73 66//66
f 142//142 85//85 123//123
f 103//103 30//30 89//89
f 181//181 175//175 184//184
f 170//170 161//161 160//160
f 175//175 140//140 144//144
f 140//140 156//156 120//120
f 120//120 136//136 98//98
f 128//128 120//120 97//97
f 192//192 188//188 177//177
f 177//177 175//175 164//164
f 164//164 144//144 132//132
f 112//112 128//128 97//97
f 141//141 152//152 143//143
f 141//141 147//147 136//136
f 136//136 112//112 98//98
f 104//104 141//141 125//125
f 42//42 90//90 22//22
f 42//42 138//138 104//104
# 264 faces, 0 coords texture

# End of File
