####
#
# OBJ File Generated by Meshlab
#
####
# Object m500.obj
#
# Vertices: 71
# Faces: 138
#
####
vn -3.377833 2.489939 -2.846085
v 0.803426 0.227854 0.429511
vn -4.180141 -0.011471 -2.843280
v 0.881502 0.460931 0.429511
vn -2.800502 -0.007711 1.930104
v 0.959640 0.460931 0.025000
vn -2.318697 1.696257 2.061071
v 0.865955 0.196341 0.025000
vn -1.473821 1.164383 -5.754949
v 0.679301 0.321197 0.507820
vn -1.862065 -0.001726 -5.775090
v 0.725365 0.460931 0.507820
vn -2.727406 2.023665 -3.500140
v 0.538680 0.429573 0.522760
vn -3.124501 -0.018998 -4.126189
v 0.554554 0.460931 0.522760
vn -3.187967 1.847823 3.987816
v 0.539505 0.430273 0.849755
vn -3.936384 -0.003028 2.921241
v 0.538882 0.460931 0.849755
vn -2.959834 1.986886 2.416249
v 0.741535 0.289326 0.911848
vn -3.698265 0.110969 3.190007
v 0.788361 0.460931 0.911848
vn -2.501516 1.670199 -2.550542
v 0.741114 0.289995 0.974346
vn -2.782256 0.084462 -1.855797
v 0.803332 0.460931 0.974346
vn 0.000000 -0.000000 -6.283155
v 0.492320 0.460931 0.975000
vn -1.314300 3.899562 -2.785133
v 0.617005 0.087405 0.429511
vn -0.885618 2.719308 2.053676
v 0.632816 0.025000 0.025000
vn -0.514117 1.728602 -5.828091
v 0.554616 0.242748 0.507820
vn -1.187686 2.987475 -4.017175
v 0.507571 0.399180 0.522760
vn -0.950227 3.831941 3.403226
v 0.508069 0.414275 0.849755
vn -1.145707 3.498631 3.190992
v 0.585865 0.181043 0.911848
vn -0.817117 2.668216 -1.862625
v 0.585616 0.165341 0.974346
vn 1.313128 3.922073 -2.768508
v 0.367635 0.087405 0.429511
vn 0.889816 2.715039 2.047332
v 0.351824 0.025000 0.025000
vn 0.463309 1.711756 -5.846793
v 0.430024 0.242748 0.507820
vn 1.198640 3.020193 -3.969165
v 0.477069 0.399180 0.522760
vn 0.951007 3.864313 3.336049
v 0.476571 0.414275 0.849755
vn 1.231052 3.449594 3.112163
v 0.398775 0.181043 0.911848
vn 0.870467 2.615850 -1.813337
v 0.399024 0.165341 0.974346
vn 3.405255 2.484622 -2.817889
v 0.181214 0.227854 0.429511
vn 2.314787 1.689936 2.045042
v 0.118685 0.196341 0.025000
vn 1.483275 1.100572 -5.778969
v 0.305339 0.321197 0.507820
vn 2.754045 1.989415 -3.517481
v 0.445960 0.429573 0.522760
vn 3.105354 1.888236 4.025396
v 0.445135 0.430273 0.849755
vn 2.859652 2.143687 2.428043
v 0.243106 0.289326 0.911848
vn 2.401885 1.819284 -2.565516
v 0.243526 0.289995 0.974346
vn 4.180142 0.011466 -2.843279
v 0.103138 0.460931 0.429511
vn 2.800501 0.007711 1.930103
v 0.025000 0.460931 0.025000
vn 1.862064 0.001726 -5.775090
v 0.259275 0.460931 0.507820
vn 3.124501 0.018998 -4.126189
v 0.430086 0.460931 0.522760
vn 3.936385 0.003027 2.921241
v 0.445758 0.460931 0.849755
vn 3.698261 -0.110963 3.190002
v 0.196279 0.460931 0.911848
vn 2.782253 -0.084457 -1.855793
v 0.181308 0.460931 0.974346
vn 3.377841 -2.489938 -2.846091
v 0.181214 0.694007 0.429511
vn 2.318697 -1.696256 2.061069
v 0.118685 0.725521 0.025000
vn 1.473822 -1.164388 -5.754946
v 0.305339 0.600665 0.507820
vn 2.727406 -2.023665 -3.500140
v 0.445960 0.492289 0.522760
vn 3.187971 -1.847823 3.987815
v 0.445135 0.491589 0.849755
vn 2.959839 -1.986905 2.416294
v 0.243106 0.632536 0.911848
vn 2.501511 -1.670197 -2.550507
v 0.243526 0.631867 0.974346
vn 1.314304 -3.899560 -2.785133
v 0.367635 0.834457 0.429511
vn 0.885618 -2.719308 2.053675
v 0.351824 0.896862 0.025000
vn 0.514119 -1.728604 -5.828089
v 0.430024 0.679114 0.507820
vn 1.187686 -2.987475 -4.017175
v 0.477069 0.522682 0.522760
vn 0.950227 -3.831941 3.403226
v 0.476571 0.507587 0.849755
vn 1.145712 -3.498627 3.190989
v 0.398775 0.740819 0.911848
vn 0.817120 -2.668213 -1.862623
v 0.399024 0.756521 0.974346
vn -1.313133 -3.922071 -2.768507
v 0.617005 0.834457 0.429511
vn -0.889817 -2.715038 2.047329
v 0.632816 0.896862 0.025000
vn -0.463310 -1.711757 -5.846792
v 0.554616 0.679114 0.507820
vn -1.198640 -3.020193 -3.969165
v 0.507571 0.522682 0.522760
vn -0.951006 -3.864312 3.336049
v 0.508069 0.507587 0.849755
vn -1.231050 -3.449596 3.112163
v 0.585865 0.740819 0.911848
vn -0.870467 -2.615850 -1.813337
v 0.585616 0.756521 0.974346
vn -3.405262 -2.484623 -2.817894
v 0.803426 0.694007 0.429511
vn -2.314785 -1.689937 2.045039
v 0.865955 0.725521 0.025000
vn -1.483278 -1.100574 -5.778967
v 0.679301 0.600665 0.507820
vn -2.754045 -1.989415 -3.517481
v 0.538680 0.492289 0.522760
vn -3.105353 -1.888234 4.025396
v 0.539505 0.491589 0.849755
vn -2.859644 -2.143676 2.428003
v 0.741535 0.632536 0.911848
vn -2.401884 -1.819294 -2.565552
v 0.741114 0.631867 0.974346
# 71 vertices, 0 vertices normals

f 1//1 2//2 3//3
f 4//4 1//1 3//3
f 5//5 6//6 2//2
f 1//1 5//5 2//2
f 7//7 8//8 6//6
f 5//5 7//7 6//6
f 9//9 10//10 8//8
f 7//7 9//9 8//8
f 11//11 12//12 10//10
f 9//9 11//11 10//10
f 13//13 14//14 12//12
f 11//11 13//13 12//12
f 13//13 15//15 14//14
f 16//16 1//1 4//4
f 17//17 16//16 4//4
f 18//18 5//5 1//1
f 16//16 18//18 1//1
f 19//19 7//7 5//5
f 18//18 19//19 5//5
f 20//20 9//9 7//7
f 19//19 20//20 7//7
f 21//21 11//11 9//9
f 20//20 21//21 9//9
f 22//22 13//13 11//11
f 21//21 22//22 11//11
f 22//22 15//15 13//13
f 23//23 16//16 17//17
f 24//24 23//23 17//17
f 25//25 18//18 16//16
f 23//23 25//25 16//16
f 26//26 19//19 18//18
f 25//25 26//26 18//18
f 27//27 20//20 19//19
f 26//26 27//27 19//19
f 28//28 21//21 20//20
f 27//27 28//28 20//20
f 29//29 22//22 21//21
f 28//28 29//29 21//21
f 29//29 15//15 22//22
f 30//30 23//23 24//24
f 31//31 30//30 24//24
f 32//32 25//25 23//23
f 30//30 32//32 23//23
f 33//33 26//26 25//25
f 32//32 33//33 25//25
f 34//34 27//27 26//26
f 33//33 34//34 26//26
f 35//35 28//28 27//27
f 34//34 35//35 27//27
f 36//36 29//29 28//28
f 35//35 36//36 28//28
f 36//36 15//15 29//29
f 37//37 30//30 31//31
f 38//38 37//37 31//31
f 39//39 32//32 30//30
f 37//37 39//39 30//30
f 40//40 33//33 32//32
f 39//39 40//40 32//32
f 41//41 34//34 33//33
f 40//40 41//41 33//33
f 42//42 35//35 34//34
f 41//41 42//42 34//34
f 43//43 36//36 35//35
f 42//42 43//43 35//35
f 43//43 15//15 36//36
f 44//44 37//37 38//38
f 45//45 44//44 38//38
f 46//46 39//39 37//37
f 44//44 46//46 37//37
f 47//47 40//40 39//39
f 46//46 47//47 39//39
f 48//48 41//41 40//40
f 47//47 48//48 40//40
f 49//49 42//42 41//41
f 48//48 49//49 41//41
f 50//50 43//43 42//42
f 49//49 50//50 42//42
f 50//50 15//15 43//43
f 51//51 44//44 45//45
f 52//52 51//51 45//45
f 53//53 46//46 44//44
f 51//51 53//53 44//44
f 54//54 47//47 46//46
f 53//53 54//54 46//46
f 55//55 48//48 47//47
f 54//54 55//55 47//47
f 56//56 49//49 48//48
f 55//55 56//56 48//48
f 57//57 50//50 49//49
f 56//56 57//57 49//49
f 57//57 15//15 50//50
f 58//58 51//51 52//52
f 59//59 58//58 52//52
f 60//60 53//53 51//51
f 58//58 60//60 51//51
f 61//61 54//54 53//53
f 60//60 61//61 53//53
f 62//62 55//55 54//54
f 61//61 62//62 54//54
f 63//63 56//56 55//55
f 62//62 63//63 55//55
f 64//64 57//57 56//56
f 63//63 64//64 56//56
f 64//64 15//15 57//57
f 65//65 58//58 59//59
f 66//66 65//65 59//59
f 67//67 60//60 58//58
f 65//65 67//67 58//58
f 68//68 61//61 60//60
f 67//67 68//68 60//60
f 69//69 62//62 61//61
f 68//68 69//69 61//61
f 70//70 63//63 62//62
f 69//69 70//70 62//62
f 71//71 64//64 63//63
f 70//70 71//71 63//63
f 71//71 15//15 64//64
f 2//2 65//65 66//66
f 3//3 2//2 66//66
f 6//6 67//67 65//65
f 2//2 6//6 65//65
f 8//8 68//68 67//67
f 6//6 8//8 67//67
f 10//10 69//69 68//68
f 8//8 10//10 68//68
f 12//12 70//70 69//69
f 10//10 12//12 69//69
f 14//14 71//71 70//70
f 12//12 14//14 70//70
f 14//14 15//15 71//71
f 17//17 4//4 3//3
f 24//24 17//17 3//3
f 31//31 24//24 3//3
f 38//38 31//31 3//3
f 45//45 38//38 3//3
f 52//52 45//45 3//3
f 59//59 52//52 3//3
f 66//66 59//59 3//3
# 138 faces, 0 coords texture

# End of File
