####
#
# OBJ File Generated by Meshlab
#
####
# Object m1670.obj
#
# Vertices: 221
# Faces: 217
#
####
vn -0.000141 0.000275 -1.570795
v 0.043304 0.591326 0.046832
vn -0.000141 0.000275 -1.570797
v 0.043271 0.956703 0.046896
vn -0.000141 0.000275 -1.570795
v 0.317304 0.956728 0.046871
vn -0.000142 0.000276 -1.570797
v 0.317337 0.591351 0.046807
vn -0.000142 0.000276 -1.570796
v 0.025036 0.573057 0.037696
vn -0.000142 0.000276 -1.570796
v 0.025000 0.974972 0.037766
vn -0.000142 0.000276 -1.570798
v 0.335570 0.975000 0.037738
vn -0.000142 0.000276 -1.570794
v 0.335607 0.573085 0.037668
vn 0.000180 -0.000348 1.925139
v 0.107445 0.894937 0.056014
vn 0.000117 -0.000223 1.227820
v 0.100079 0.894936 0.056014
vn 0.000231 -0.000451 2.501766
v 0.102893 0.887059 0.056013
vn 0.000231 -0.000485 2.703473
v 0.107651 0.883888 0.056012
vn 0.000360 -0.000718 4.026665
v 0.108827 0.891203 0.056013
vn 0.000313 -0.000658 3.649265
v 0.115221 0.889004 0.056012
vn 0.000237 -0.000503 2.776978
v 0.115784 0.882661 0.056011
vn -0.000957 0.000116 3.957400
v 0.120387 0.889925 0.056012
vn 0.000391 -0.000768 4.287973
v 0.122893 0.893762 0.056012
vn 0.000230 -0.000478 2.642760
v 0.124224 0.884503 0.056010
vn 0.000363 -0.000698 3.940801
v 0.109899 0.914017 0.056017
vn 0.000246 -0.000485 2.712726
v 0.107494 0.920104 0.056018
vn 0.000343 -0.000724 4.125339
v 0.107802 0.910590 0.056016
vn 0.000313 -0.000667 3.698113
v 0.114196 0.914989 0.056017
vn 0.000236 -0.000506 2.799549
v 0.114758 0.921332 0.056018
vn 0.000306 -0.000718 4.002786
v 0.120385 0.912841 0.056016
vn 0.000223 -0.000488 2.715009
v 0.121715 0.920105 0.056017
vn 0.000170 -0.000355 1.946203
v 0.121716 0.909465 0.056015
vn 0.000220 -0.000461 2.543288
v 0.126114 0.917088 0.056016
vn 0.000114 -0.000223 1.199598
v 0.129082 0.909466 0.056014
vn 0.000237 -0.000448 2.510050
v 0.103198 0.917188 0.056018
vn 0.000139 -0.000450 2.603238
v 0.100641 0.910026 0.056017
vn 0.000247 -0.000467 2.624189
v 0.101613 0.905116 0.056016
vn 0.000233 -0.000469 2.624197
v 0.104222 0.902098 0.056015
vn 0.000320 -0.000697 3.914637
v 0.109132 0.907725 0.056016
vn 0.000284 -0.000586 3.263957
v 0.111690 0.906753 0.056015
vn 0.000258 -0.000543 3.030481
v 0.112304 0.899234 0.056014
vn 0.000286 -0.000571 3.233895
v 0.116243 0.898314 0.056014
vn 0.000265 -0.000521 2.962701
v 0.120642 0.904555 0.056014
vn 0.000360 -0.000667 3.822819
v 0.121001 0.896728 0.056013
vn 0.000211 -0.000426 2.396292
v 0.127292 0.901588 0.056013
vn 0.000216 -0.000457 2.558585
v 0.128418 0.888135 0.056011
vn 0.000223 -0.000439 2.461678
v 0.130259 0.894683 0.056012
vn 0.000304 -0.000643 3.563808
v 0.150873 0.903227 0.056011
vn 0.000460 -0.000822 4.712296
v 0.143763 0.903227 0.056012
vn 0.000410 -0.000844 4.712426
v 0.143763 0.896884 0.056011
vn 0.000261 -0.000536 2.923037
v 0.152562 0.896885 0.056010
vn 0.000476 -0.000720 4.087145
v 0.155886 0.905479 0.056011
vn 0.000237 -0.000479 2.612329
v 0.158547 0.898215 0.056010
vn 0.000344 -0.000671 3.748191
v 0.156602 0.908957 0.056012
vn 0.000142 -0.000283 1.570645
v 0.143765 0.883635 0.056008
vn 0.000141 -0.000282 1.570807
v 0.136088 0.920362 0.056016
vn 0.000143 -0.000282 1.570905
v 0.136092 0.883635 0.056009
vn 0.000426 -0.000822 4.712317
v 0.143762 0.914020 0.056014
vn 0.000286 -0.000605 3.377376
v 0.149849 0.914021 0.056013
vn 0.000241 -0.000502 2.772725
v 0.152867 0.920364 0.056014
vn 0.000811 -0.000582 4.073200
v 0.154964 0.912793 0.056013
vn 0.000193 -0.000415 2.284569
v 0.161205 0.917142 0.056013
vn 0.000217 -0.000473 2.618640
v 0.162076 0.901489 0.056010
vn 0.000209 -0.000451 2.496656
v 0.164275 0.908600 0.056011
vn 0.000138 -0.000271 1.570908
v 0.195632 0.899651 0.056007
vn 0.000376 -0.000863 4.712315
v 0.177728 0.906146 0.056009
vn 0.000418 -0.000854 4.712382
v 0.177729 0.899649 0.056008
vn 0.000140 -0.000266 1.570740
v 0.195632 0.906147 0.056008
vn 0.000135 -0.000279 1.570798
v 0.170207 0.920365 0.056013
vn 0.000414 -0.000837 4.712382
v 0.177730 0.890135 0.056007
vn 0.000401 -0.000842 4.712467
v 0.177727 0.913870 0.056011
vn 0.000139 -0.000268 1.570694
v 0.197217 0.913871 0.056009
vn 0.000140 -0.000266 1.570839
v 0.197216 0.920368 0.056010
vn 0.000138 -0.000280 1.570833
v 0.170211 0.883638 0.056006
vn 0.000138 -0.000268 1.570714
v 0.198089 0.883640 0.056004
vn 0.000139 -0.000266 1.570852
v 0.198088 0.890137 0.056005
vn 0.000138 -0.000271 1.570754
v 0.229751 0.899654 0.056004
vn 0.000376 -0.000863 4.712315
v 0.211847 0.906149 0.056007
vn 0.000418 -0.000854 4.712277
v 0.211848 0.899652 0.056005
vn 0.000140 -0.000266 1.570894
v 0.229750 0.906150 0.056005
vn 0.000134 -0.000283 1.570798
v 0.204326 0.920368 0.056010
vn 0.000412 -0.000842 4.712487
v 0.211848 0.890138 0.056004
vn 0.000401 -0.000842 4.712467
v 0.211846 0.913873 0.056008
vn 0.000134 -0.000288 1.570848
v 0.231335 0.913874 0.056006
vn 0.000134 -0.000290 1.570685
v 0.231335 0.920371 0.056007
vn 0.000138 -0.000280 1.570833
v 0.204330 0.883641 0.056003
vn 0.000132 -0.000288 1.570714
v 0.232208 0.883643 0.056001
vn 0.000131 -0.000290 1.570852
v 0.232207 0.890140 0.056002
vn 0.000413 -0.000789 4.712440
v 0.245967 0.889987 0.056001
vn 0.000138 -0.000282 1.570776
v 0.238445 0.920372 0.056007
vn 0.000143 -0.000272 1.570815
v 0.238448 0.883644 0.056000
vn 0.000317 -0.000592 3.411277
v 0.253436 0.889988 0.056000
vn 0.000253 -0.000504 2.893277
v 0.254357 0.883645 0.055999
vn 0.000240 -0.000594 3.694779
v 0.257323 0.891063 0.056000
vn 0.000232 -0.000647 3.674758
v 0.259932 0.893876 0.056000
vn 0.000222 -0.000452 2.593736
v 0.261825 0.885539 0.055998
vn 0.000763 -0.000621 3.491453
v 0.261772 0.902317 0.056002
vn 0.000400 -0.000863 4.712336
v 0.245965 0.914029 0.056005
vn 0.000302 -0.000614 3.460544
v 0.253331 0.914030 0.056004
vn 0.000257 -0.000510 2.907818
v 0.254661 0.920373 0.056005
vn 0.000226 -0.000738 3.846802
v 0.258754 0.912240 0.056003
vn 0.000337 -0.000621 3.553129
v 0.260902 0.908711 0.056003
vn 0.000228 -0.000459 2.613050
v 0.262180 0.918583 0.056004
vn 0.000241 -0.000462 2.609990
v 0.266480 0.890296 0.055999
vn 0.000184 -0.000465 2.580268
v 0.266733 0.914236 0.056003
vn 0.000231 -0.000479 2.651419
v 0.269599 0.902880 0.056001
vn 0.000143 -0.000282 1.570766
v 0.127916 0.865555 0.056007
vn 0.000143 -0.000282 1.570818
v 0.120243 0.865554 0.056007
vn 0.000414 -0.000828 4.712399
v 0.127919 0.835477 0.056001
vn 0.000138 -0.000278 1.570828
v 0.120247 0.828827 0.056001
vn 0.000137 -0.000262 1.570723
v 0.146181 0.828829 0.055999
vn 0.000138 -0.000260 1.570837
v 0.146180 0.835479 0.056000
vn 0.000123 -0.000282 1.570845
v 0.158560 0.828830 0.055997
vn 0.000123 -0.000282 1.570845
v 0.150884 0.865557 0.056005
vn 0.000123 -0.000282 1.570748
v 0.150887 0.828829 0.055998
vn 0.000123 -0.000282 1.570748
v 0.158557 0.865558 0.056004
vn 0.000134 -0.000281 1.570827
v 0.200966 0.828834 0.055994
vn 0.000340 -0.000883 4.712324
v 0.193802 0.859525 0.056000
vn 0.000132 -0.000281 1.570722
v 0.193804 0.828833 0.055994
vn 0.000132 -0.000282 1.570699
v 0.172525 0.828831 0.055996
vn 0.000143 -0.000282 1.570804
v 0.165360 0.865558 0.056003
vn 0.000132 -0.000282 1.570878
v 0.165363 0.828831 0.055997
vn 0.002590 0.001746 4.712484
v 0.172522 0.859523 0.056002
vn 0.000979 -0.000088 4.497331
v 0.172624 0.859523 0.056002
vn 0.000151 -0.000334 1.796555
v 0.176563 0.865559 0.056002
vn 0.000165 -0.000316 1.785721
v 0.179328 0.828832 0.055996
vn 0.000241 -0.000697 4.486541
v 0.183215 0.836608 0.055997
vn 0.000303 -0.000745 4.490070
v 0.183317 0.836608 0.055997
vn 0.000163 -0.000317 1.790547
v 0.186848 0.828833 0.055995
vn 0.000156 -0.000315 1.793206
v 0.189862 0.865561 0.056001
vn 0.000198 -0.000916 4.492771
v 0.193699 0.859525 0.056000
vn 0.000144 -0.000275 1.570815
v 0.200962 0.865562 0.056000
vn 0.000143 -0.000282 1.570687
v 0.215391 0.828835 0.055993
vn 0.000143 -0.000282 1.570845
v 0.207715 0.865562 0.056000
vn 0.000143 -0.000282 1.570878
v 0.207718 0.828835 0.055993
vn 0.000143 -0.000282 1.570775
v 0.215387 0.865563 0.055999
vn 0.000143 -0.000281 1.570697
v 0.238154 0.828837 0.055990
vn 0.000429 -0.000807 4.712380
v 0.230478 0.859068 0.055997
vn 0.000143 -0.000281 1.570896
v 0.230481 0.828837 0.055991
vn 0.000140 -0.000269 1.570743
v 0.219377 0.865563 0.055999
vn 0.000142 -0.000266 1.570860
v 0.219378 0.859067 0.055998
vn 0.000402 -0.000889 4.712398
v 0.238151 0.859069 0.055996
vn 0.000135 -0.000272 1.570886
v 0.249251 0.859070 0.055995
vn 0.000137 -0.000266 1.570696
v 0.249251 0.865566 0.055996
vn 0.000225 -0.000460 2.572616
v 0.088973 0.631374 0.055969
vn 0.000116 -0.000242 1.352947
v 0.067485 0.675656 0.055979
vn 0.000224 -0.000464 2.588349
v 0.073845 0.646938 0.055973
vn 0.000360 -0.000523 4.130118
v 0.097300 0.675439 0.055976
vn 0.000068 -0.000068 0.787120
v 0.097519 0.675659 0.055976
vn 0.000280 -0.000591 3.313086
v 0.113081 0.717971 0.055982
vn 0.000130 -0.000279 1.570912
v 0.108258 0.717970 0.055983
vn 0.000150 -0.000309 1.715443
v 0.108260 0.696048 0.055979
vn 0.000368 -0.000732 4.053305
v 0.129522 0.720822 0.055982
vn 0.000342 -0.000718 3.990519
v 0.130840 0.692761 0.055976
vn 0.000530 -0.000631 3.912188
v 0.139167 0.739019 0.055984
vn 0.000369 -0.000727 4.063994
v 0.143119 0.673909 0.055972
vn 0.000153 -0.000313 1.748015
v 0.098610 0.733534 0.055987
vn 0.000217 -0.000446 2.488841
v 0.082604 0.769267 0.055994
vn 0.000108 -0.000221 1.234414
v 0.070111 0.733532 0.055989
vn 0.000232 -0.000487 2.720462
v 0.098606 0.779791 0.055995
vn 0.000352 -0.000720 4.007065
v 0.101240 0.748223 0.055989
vn 0.000365 -0.000738 4.127852
v 0.119654 0.758967 0.055989
vn 0.000236 -0.000482 2.692781
v 0.121625 0.783520 0.055994
vn 0.000353 -0.000711 3.971094
v 0.135658 0.751076 0.055986
vn 0.000331 -0.000757 4.139476
v 0.151227 0.710082 0.055978
vn -0.000012 -0.000857 4.022750
v 0.151227 0.710520 0.055978
vn 0.000224 -0.000463 2.574416
v 0.153413 0.774096 0.055989
vn 0.000217 -0.000459 2.568362
v 0.163722 0.720825 0.055979
vn 0.000232 -0.000474 2.656194
v 0.165033 0.760724 0.055986
vn 0.000229 -0.000464 2.603655
v 0.169858 0.740118 0.055981
vn 0.000371 -0.000723 4.016983
v 0.100809 0.658559 0.055973
vn 0.000347 -0.000711 3.998407
v 0.120102 0.648257 0.055969
vn 0.000224 -0.000456 2.558416
v 0.121639 0.623704 0.055965
vn 0.000354 -0.000718 4.000945
v 0.136105 0.654397 0.055969
vn 0.000206 -0.000415 2.314162
v 0.159783 0.637738 0.055964
vn 0.000208 -0.000447 2.489370
v 0.164819 0.701314 0.055975
vn 0.000212 -0.000433 2.405115
v 0.174687 0.673912 0.055969
vn 0.000246 -0.000509 2.844799
v 0.193535 0.739024 0.055979
vn 0.000301 -0.000531 2.969187
v 0.190469 0.703728 0.055973
vn 0.000247 -0.000508 2.840644
v 0.193541 0.667994 0.055967
vn 0.000233 -0.000478 2.673512
v 0.203628 0.643223 0.055961
vn 0.000227 -0.000478 2.670407
v 0.203617 0.764016 0.055983
vn 0.000234 -0.000469 2.624652
v 0.220509 0.628536 0.055957
vn 0.000229 -0.000468 2.624670
v 0.220496 0.778706 0.055984
vn 0.000354 -0.000575 3.210243
v 0.222037 0.703731 0.055970
vn 0.000379 -0.000595 3.319424
v 0.222916 0.678081 0.055966
vn 0.000338 -0.000692 3.887184
v 0.226645 0.660763 0.055962
vn 0.000241 -0.000491 2.741484
v 0.244406 0.623715 0.055954
vn 0.000381 -0.000783 4.367968
v 0.244403 0.648269 0.055959
vn 0.000341 -0.000699 3.899394
v 0.262160 0.660766 0.055959
vn 0.000227 -0.000471 2.626464
v 0.268082 0.628540 0.055953
vn 0.000320 -0.000578 3.227329
v 0.266759 0.703735 0.055967
vn 0.000297 -0.000591 3.298744
v 0.265666 0.678085 0.055962
vn 0.000272 -0.000597 3.321683
v 0.222912 0.729161 0.055975
vn 0.000361 -0.000696 3.876382
v 0.226637 0.746261 0.055978
vn 0.000397 -0.000776 4.384444
v 0.244393 0.758978 0.055978
vn 0.000245 -0.000484 2.741477
v 0.244391 0.783531 0.055983
vn 0.000312 -0.000689 3.888652
v 0.262152 0.746264 0.055975
vn 0.000227 -0.000470 2.626516
v 0.268068 0.778710 0.055980
vn 0.000393 -0.000592 3.300849
v 0.265661 0.729165 0.055971
vn 0.000230 -0.000479 2.673470
v 0.284961 0.643230 0.055954
vn 0.000231 -0.000478 2.670336
v 0.284950 0.764024 0.055976
vn 0.000259 -0.000509 2.846757
v 0.295043 0.668003 0.055958
vn 0.000225 -0.000514 2.851001
v 0.295036 0.739033 0.055970
vn 0.000215 -0.000533 2.956922
v 0.298328 0.703738 0.055964
vn -2.987565 -2.513450 -0.000220
v 0.157535 0.025003 0.046721
vn -2.416801 -2.513825 1.756037
v 0.161898 0.025000 0.060143
vn -2.988054 2.512980 0.000792
v 0.157486 0.573068 0.046819
vn -2.417244 2.512810 1.756895
v 0.161849 0.573066 0.060242
vn -0.000538 6.283185 0.001109
v 0.180322 0.573070 0.046817
vn 0.000562 -6.283185 -0.001122
v 0.180372 0.025004 0.046719
vn -0.922801 -2.513883 2.841239
v 0.173317 0.025000 0.068438
vn -0.923358 2.512644 2.842225
v 0.173267 0.573065 0.068536
vn 0.923737 -2.513720 2.841095
v 0.187430 0.025001 0.068437
vn 0.923288 2.512840 2.841853
v 0.187381 0.573067 0.068535
vn 2.417565 -2.513341 1.755554
v 0.198848 0.025004 0.060140
vn 2.417231 2.513185 1.756444
v 0.198798 0.573069 0.060238
vn 2.988049 -2.512972 -0.000774
v 0.203208 0.025007 0.046717
vn 2.987617 2.513584 0.000235
v 0.203158 0.573072 0.046815
vn 2.417259 -2.512767 -1.756926
v 0.198845 0.025009 0.033295
vn 2.416792 2.513764 -1.755940
v 0.198796 0.573074 0.033393
vn 0.923245 -2.512688 -2.842126
v 0.187426 0.025009 0.025000
vn 0.922817 2.513870 -2.841342
v 0.187377 0.573074 0.025098
vn -0.923347 -2.512839 -2.841960
v 0.173313 0.025008 0.025001
vn -0.923698 2.513731 -2.841151
v 0.173264 0.573073 0.025099
vn -2.417129 -2.513251 -1.756522
v 0.161896 0.025005 0.033298
vn -2.417479 2.513334 -1.755529
v 0.161846 0.573071 0.033396
# 221 vertices, 0 vertices normals

f 1//1 2//2 3//3
f 1//1 3//3 4//4
f 5//5 6//6 7//7
f 5//5 7//7 8//8
f 9//9 10//10 11//11
f 12//12 9//9 11//11
f 13//13 9//9 12//12
f 14//14 13//13 12//12
f 15//15 14//14 12//12
f 16//16 14//14 15//15
f 17//17 16//16 15//15
f 18//18 17//17 15//15
f 19//19 20//20 21//21
f 22//22 20//20 19//19
f 23//23 20//20 22//22
f 24//24 23//23 22//22
f 25//25 23//23 24//24
f 25//25 24//24 26//26
f 27//27 25//25 26//26
f 28//28 27//27 26//26
f 29//29 30//30 31//31
f 32//32 29//29 31//31
f 20//20 29//29 32//32
f 21//21 20//20 32//32
f 33//33 21//21 32//32
f 34//34 33//33 32//32
f 35//35 34//34 32//32
f 36//36 34//34 35//35
f 37//37 34//34 36//36
f 38//38 37//37 36//36
f 17//17 37//37 38//38
f 39//39 37//37 17//17
f 39//39 17//17 18//18
f 40//40 39//39 18//18
f 41//41 39//39 40//40
f 42//42 43//43 44//44
f 45//45 42//42 44//44
f 46//46 42//42 45//45
f 47//47 48//48 46//46
f 47//47 46//46 45//45
f 49//49 50//50 51//51
f 44//44 50//50 49//49
f 43//43 50//50 44//44
f 52//52 50//50 43//43
f 53//53 50//50 52//52
f 54//54 50//50 53//53
f 55//55 54//54 53//53
f 48//48 54//54 55//55
f 56//56 54//54 48//48
f 56//56 48//48 47//47
f 57//57 56//56 47//47
f 58//58 56//56 57//57
f 59//59 60//60 61//61
f 62//62 60//60 59//59
f 61//61 63//63 64//64
f 60//60 63//63 61//61
f 65//65 63//63 60//60
f 66//66 63//63 65//65
f 67//67 63//63 66//66
f 64//64 63//63 68//68
f 69//69 64//64 68//68
f 70//70 64//64 69//69
f 71//71 72//72 73//73
f 74//74 72//72 71//71
f 73//73 75//75 76//76
f 72//72 75//75 73//73
f 77//77 75//75 72//72
f 78//78 75//75 77//77
f 79//79 75//75 78//78
f 76//76 75//75 80//80
f 81//81 76//76 80//80
f 82//82 76//76 81//81
f 83//83 84//84 85//85
f 86//86 83//83 85//85
f 87//87 86//86 85//85
f 88//88 86//86 87//87
f 89//89 88//88 87//87
f 90//90 91//91 89//89
f 90//90 89//89 87//87
f 92//92 84//84 83//83
f 93//93 84//84 92//92
f 94//94 84//84 93//93
f 95//95 94//94 93//93
f 96//96 94//94 95//95
f 97//97 94//94 96//96
f 97//97 96//96 91//91
f 97//97 91//91 90//90
f 98//98 97//97 90//90
f 99//99 97//97 98//98
f 100//100 99//99 98//98
f 101//101 102//102 103//103
f 103//103 102//102 104//104
f 105//105 103//103 104//104
f 106//106 103//103 105//105
f 107//107 108//108 109//109
f 110//110 108//108 107//107
f 111//111 112//112 113//113
f 114//114 115//115 116//116
f 117//117 115//115 114//114
f 118//118 115//115 117//117
f 119//119 115//115 118//118
f 120//120 119//119 118//118
f 121//121 119//119 120//120
f 122//122 121//121 120//120
f 123//123 122//122 120//120
f 124//124 122//122 123//123
f 125//125 124//124 123//123
f 112//112 124//124 125//125
f 126//126 124//124 112//112
f 126//126 112//112 111//111
f 127//127 128//128 129//129
f 130//130 128//128 127//127
f 131//131 132//132 133//133
f 132//132 134//134 135//135
f 136//136 134//134 132//132
f 136//136 132//132 131//131
f 137//137 134//134 136//136
f 138//138 134//134 137//137
f 139//139 140//140 141//141
f 142//142 140//140 139//139
f 143//143 140//140 142//142
f 144//144 145//145 146//146
f 147//147 144//144 146//146
f 148//148 147//147 146//146
f 149//149 147//147 148//148
f 150//150 149//149 148//148
f 151//151 152//152 153//153
f 154//154 152//152 151//151
f 155//155 154//154 151//151
f 156//156 154//154 155//155
f 157//157 154//154 156//156
f 158//158 157//157 156//156
f 159//159 158//158 149//149
f 159//159 149//149 150//150
f 160//160 158//158 159//159
f 161//161 157//157 158//158
f 161//161 158//158 160//160
f 162//162 161//161 160//160
f 163//163 161//161 162//162
f 164//164 163//163 162//162
f 165//165 142//142 139//139
f 166//166 165//165 139//139
f 167//167 166//166 139//139
f 168//168 166//166 167//167
f 169//169 159//159 150//150
f 169//169 150//150 168//168
f 169//169 168//168 167//167
f 170//170 159//159 169//169
f 171//171 170//170 169//169
f 172//172 173//173 174//174
f 175//175 172//172 174//174
f 176//176 172//172 175//175
f 177//177 176//176 175//175
f 178//178 176//176 177//177
f 179//179 178//178 177//177
f 180//180 179//179 177//177
f 181//181 180//180 177//177
f 182//182 181//181 177//177
f 183//183 181//181 182//182
f 184//184 183//183 182//182
f 185//185 186//186 187//187
f 185//185 187//187 184//184
f 185//185 184//184 182//182
f 188//188 178//178 179//179
f 189//189 178//178 188//188
f 190//190 178//178 189//189
f 191//191 178//178 190//190
f 192//192 191//191 190//190
f 193//193 191//191 192//192
f 193//193 192//192 194//194
f 193//193 194//194 186//186
f 193//193 186//186 185//185
f 195//195 193//193 185//185
f 196//196 193//193 195//195
f 197//197 196//196 195//195
f 198//198 196//196 197//197
f 199//199 198//198 197//197
f 200//200 201//201 202//202
f 201//201 203//203 202//202
f 204//204 202//202 203//203
f 205//205 201//201 200//200
f 201//201 206//206 203//203
f 206//206 207//207 203//203
f 204//204 203//203 207//207
f 205//205 206//206 201//201
f 206//206 208//208 207//207
f 208//208 209//209 207//207
f 204//204 207//207 209//209
f 205//205 208//208 206//206
f 208//208 210//210 209//209
f 210//210 211//211 209//209
f 204//204 209//209 211//211
f 205//205 210//210 208//208
f 210//210 212//212 211//211
f 212//212 213//213 211//211
f 204//204 211//211 213//213
f 205//205 212//212 210//210
f 212//212 214//214 213//213
f 214//214 215//215 213//213
f 204//204 213//213 215//215
f 205//205 214//214 212//212
f 214//214 216//216 215//215
f 216//216 217//217 215//215
f 204//204 215//215 217//217
f 205//205 216//216 214//214
f 216//216 218//218 217//217
f 218//218 219//219 217//217
f 204//204 217//217 219//219
f 205//205 218//218 216//216
f 218//218 220//220 219//219
f 220//220 221//221 219//219
f 204//204 219//219 221//221
f 205//205 220//220 218//218
f 220//220 200//200 221//221
f 200//200 202//202 221//221
f 204//204 221//221 202//202
f 205//205 200//200 220//220
# 217 faces, 0 coords texture

# End of File
