####
#
# OBJ File Generated by Meshlab
#
####
# Object m1684.obj
#
# Vertices: 44
# Faces: 76
#
####
vn -1.570796 -1.570796 1.570796
v 0.025000 0.443367 0.104207
vn 1.570796 -1.570796 1.570796
v 0.975000 0.443367 0.104207
vn 1.570796 1.570796 1.570796
v 0.975000 0.942330 0.104207
vn -1.570796 1.570796 1.570796
v 0.025000 0.942330 0.104207
vn -1.570796 -1.570796 -1.570796
v 0.025000 0.443367 0.025000
vn 1.570796 -1.570796 -1.570796
v 0.975000 0.443367 0.025000
vn 1.570796 1.570796 -1.570796
v 0.975000 0.942330 0.025000
vn -1.570796 1.570796 -1.570796
v 0.025000 0.942330 0.025000
vn 0.904587 0.882301 5.885633
v 0.067479 0.481126 0.104207
vn -0.907908 0.888985 5.880808
v 0.933280 0.481126 0.104207
vn -0.913915 -0.891541 5.876631
v 0.933280 0.905244 0.104207
vn 0.910538 -0.884808 5.881536
v 0.067479 0.905244 0.104207
vn 1.675534 1.790707 3.840567
v 0.091551 0.502524 0.069556
vn -1.687200 1.784024 3.823621
v 0.909638 0.502524 0.069556
vn -1.681193 -1.794654 3.806251
v 0.909638 0.884229 0.069556
vn 1.669582 -1.801387 3.823116
v 0.091551 0.884229 0.069556
vn -2.720705 -2.094403 0.000015
v 0.240222 0.025000 0.060018
vn -1.360357 -2.094386 -2.356182
v 0.251687 0.025000 0.040159
vn 1.360357 -2.094386 -2.356182
v 0.274618 0.025000 0.040159
vn 2.720705 -2.094403 0.000015
v 0.286083 0.025000 0.060018
vn 1.360348 -2.094396 2.356196
v 0.274618 0.025000 0.079876
vn -1.360348 -2.094396 2.356196
v 0.251687 0.025000 0.079876
vn -2.720705 2.094403 0.000015
v 0.240222 0.459561 0.060018
vn -1.360357 2.094386 -2.356182
v 0.251687 0.459561 0.040159
vn 1.360357 2.094386 -2.356182
v 0.274618 0.459561 0.040159
vn 2.720705 2.094403 0.000015
v 0.286083 0.459561 0.060018
vn 1.360348 2.094396 2.356196
v 0.274618 0.459561 0.079876
vn -1.360348 2.094396 2.356196
v 0.251687 0.459561 0.079876
vn 0.000000 6.283185 0.000000
v 0.263153 0.459561 0.060018
vn 0.000000 -6.283185 0.000000
v 0.263153 0.025000 0.060018
vn -2.720646 -2.094328 0.000015
v 0.700090 0.025000 0.060018
vn -1.360327 -2.094423 -2.356233
v 0.711556 0.025000 0.040159
vn 1.360357 -2.094386 -2.356182
v 0.734486 0.025000 0.040159
vn 2.720705 -2.094403 0.000015
v 0.745951 0.025000 0.060018
vn 1.360348 -2.094396 2.356196
v 0.734486 0.025000 0.079876
vn -1.360319 -2.094434 2.356248
v 0.711556 0.025000 0.079876
vn -2.720646 2.094328 0.000015
v 0.700090 0.459561 0.060018
vn -1.360327 2.094423 -2.356233
v 0.711556 0.459561 0.040159
vn 1.360357 2.094386 -2.356182
v 0.734486 0.459561 0.040159
vn 2.720705 2.094403 0.000015
v 0.745951 0.459561 0.060018
vn 1.360348 2.094396 2.356196
v 0.734486 0.459561 0.079876
vn -1.360319 2.094434 2.356248
v 0.711556 0.459561 0.079876
vn 0.000000 6.283185 0.000000
v 0.723021 0.459561 0.060018
vn 0.000000 -6.283185 0.000000
v 0.723021 0.025000 0.060018
# 44 vertices, 0 vertices normals

f 1//1 5//5 6//6
f 1//1 6//6 2//2
f 2//2 6//6 7//7
f 2//2 7//7 3//3
f 3//3 7//7 8//8
f 3//3 8//8 4//4
f 4//4 8//8 5//5
f 4//4 5//5 1//1
f 5//5 8//8 7//7
f 5//5 7//7 6//6
f 9//9 1//1 2//2
f 2//2 10//10 9//9
f 10//10 2//2 3//3
f 3//3 11//11 10//10
f 11//11 3//3 4//4
f 4//4 12//12 11//11
f 12//12 4//4 1//1
f 1//1 9//9 12//12
f 13//13 9//9 10//10
f 10//10 14//14 13//13
f 14//14 10//10 11//11
f 11//11 15//15 14//14
f 15//15 11//11 12//12
f 12//12 16//16 15//15
f 16//16 12//12 9//9
f 9//9 13//13 16//16
f 17//17 24//24 18//18
f 17//17 23//23 24//24
f 18//18 25//25 19//19
f 18//18 24//24 25//25
f 19//19 26//26 20//20
f 19//19 25//25 26//26
f 20//20 27//27 21//21
f 20//20 26//26 27//27
f 21//21 28//28 22//22
f 21//21 27//27 28//28
f 22//22 23//23 17//17
f 22//22 28//28 23//23
f 18//18 30//30 17//17
f 19//19 30//30 18//18
f 20//20 30//30 19//19
f 21//21 30//30 20//20
f 22//22 30//30 21//21
f 17//17 30//30 22//22
f 23//23 29//29 24//24
f 24//24 29//29 25//25
f 25//25 29//29 26//26
f 26//26 29//29 27//27
f 27//27 29//29 28//28
f 28//28 29//29 23//23
f 31//31 38//38 32//32
f 31//31 37//37 38//38
f 32//32 39//39 33//33
f 32//32 38//38 39//39
f 33//33 40//40 34//34
f 33//33 39//39 40//40
f 34//34 41//41 35//35
f 34//34 40//40 41//41
f 35//35 42//42 36//36
f 35//35 41//41 42//42
f 36//36 37//37 31//31
f 36//36 42//42 37//37
f 32//32 44//44 31//31
f 33//33 44//44 32//32
f 34//34 44//44 33//33
f 35//35 44//44 34//34
f 36//36 44//44 35//35
f 31//31 44//44 36//36
f 37//37 43//43 38//38
f 38//38 43//43 39//39
f 39//39 43//43 40//40
f 40//40 43//43 41//41
f 41//41 43//43 42//42
f 42//42 43//43 37//37
f 13//13 14//14 15//15
f 13//13 15//15 16//16
# 76 faces, 0 coords texture

# End of File
