####
#
# OBJ File Generated by Meshlab
#
####
# Object m646.obj
#
# Vertices: 227
# Faces: 358
#
####
vn -1.570796 1.570796 -1.570796
v 0.025000 0.286245 0.898442
vn -1.570796 1.570796 1.570796
v 0.025000 0.286245 0.974526
vn 1.570796 1.570796 1.570796
v 0.667908 0.286245 0.974526
vn 1.570796 1.570796 -1.570796
v 0.667908 0.286245 0.898442
vn -1.570796 -1.570796 1.570796
v 0.025000 0.248203 0.974526
vn 1.570796 -1.570796 1.570796
v 0.667908 0.248203 0.974526
vn 1.570796 -1.570796 -1.570796
v 0.667908 0.248203 0.898442
vn -1.570796 -1.570796 -1.570796
v 0.025000 0.248203 0.898442
vn 3.005131 -2.695171 -0.666411
v 0.666691 0.250771 0.672093
vn 2.315563 -2.591672 -1.970159
v 0.630779 0.250999 0.594335
vn 2.317934 2.607020 -1.954040
v 0.630779 0.370888 0.594868
vn 2.992865 2.733438 -0.637604
v 0.666082 0.370888 0.672625
vn 1.724776 -3.092385 -2.645230
v 0.562608 0.251056 0.548000
vn 1.907450 3.097455 -2.911286
v 0.562608 0.370888 0.548533
vn 2.342536 -3.838442 -1.816634
v 0.500524 0.251056 0.509121
vn 1.923224 -2.347537 -1.210359
v 0.500524 0.371459 0.509654
vn 3.080850 -3.425180 -0.482061
v 0.479829 0.251285 0.442548
vn 3.067955 3.463904 -0.471014
v 0.479220 0.371459 0.443081
vn 2.955124 -2.640907 -0.770971
v 0.479220 0.252483 0.163473
vn 2.942620 2.640778 -0.747317
v 0.479220 0.372600 0.163473
vn 2.192959 -2.613506 -2.117442
v 0.432353 0.252768 0.078259
vn 2.172838 2.613455 -2.083708
v 0.432353 0.373171 0.078259
vn 0.756526 -2.565018 -2.931165
v 0.343487 0.252768 0.025000
vn 0.742327 2.565033 -2.901652
v 0.343487 0.373171 0.025000
vn -0.596600 -2.825915 -3.056617
v 0.198623 0.252369 0.030326
vn -0.615230 2.819783 -3.032094
v 0.198015 0.372600 0.030326
vn -1.847329 -2.524931 -2.358267
v 0.098193 0.251912 0.067607
vn -1.863348 2.506154 -2.339584
v 0.097584 0.372030 0.067607
vn -2.873666 -2.565992 -0.881892
v 0.026978 0.251285 0.174124
vn -2.886295 2.536842 -0.865218
v 0.026370 0.371459 0.174124
vn -1.565184 -1.585202 1.567597
v 0.027587 0.248089 0.897856
vn -1.574769 1.556685 1.577292
v 0.026978 0.368035 0.898336
vn 1.575345 -1.569755 1.561173
v 0.666691 0.249744 0.897430
vn 1.568528 1.573140 1.581003
v 0.666082 0.369747 0.897910
vn 2.852841 3.725965 0.884508
v 0.041586 0.371459 0.200754
vn 1.891825 -2.527254 2.326945
v 0.108540 0.372030 0.099562
vn 0.570577 -2.769516 3.008162
v 0.204101 0.372600 0.062281
vn -0.773931 -2.623008 2.923466
v 0.342269 0.372600 0.062281
vn -2.140404 -2.602731 2.130262
v 0.426266 0.372600 0.110214
vn -2.928019 -2.628172 0.763218
v 0.471308 0.372600 0.190102
vn -3.045815 -3.448253 0.440752
v 0.471308 0.371459 0.455330
vn -2.360200 2.433972 1.849876
v 0.491394 0.370888 0.518708
vn -1.919148 3.165287 2.923249
v 0.550435 0.370888 0.555456
vn -2.323329 -2.596174 1.945443
v 0.614954 0.370888 0.599661
vn -2.990237 -2.716849 0.635641
v 0.648431 0.370888 0.673690
vn -1.571990 -1.571151 -1.576059
v 0.648431 0.369747 0.887567
vn 1.579629 -1.570389 -1.581444
v 0.041586 0.368035 0.887790
vn -2.319084 0.000000 1.943058
v 0.614954 0.260757 0.599661
vn -3.002051 0.000000 0.647234
v 0.648431 0.260757 0.673690
vn -1.717870 0.000000 2.629404
v 0.550435 0.260757 0.555456
vn -2.327436 0.000000 1.808140
v 0.491394 0.260757 0.518708
vn -3.068192 0.000000 0.474560
v 0.471308 0.260757 0.455330
vn -2.939095 0.000000 0.771466
v 0.471308 0.260757 0.190102
vn -2.146831 0.000000 2.135757
v 0.426266 0.260757 0.110214
vn -0.778533 0.000000 2.935087
v 0.342269 0.260757 0.062281
vn 0.570904 0.000000 3.034173
v 0.204101 0.260757 0.062281
vn 1.880910 0.000000 2.330143
v 0.108540 0.260757 0.099562
vn 2.880803 0.000000 0.866767
v 0.041586 0.260757 0.200754
vn 1.570219 0.000000 -1.570796
v 0.041586 0.260757 0.887790
vn -1.571374 0.000000 -1.570796
v 0.648431 0.260757 0.887567
vn 0.000000 2.716899 0.000000
v 0.648431 0.317820 0.673690
vn 0.000000 2.596178 0.000000
v 0.614954 0.317820 0.599661
vn 0.000000 3.097643 0.000000
v 0.550435 0.317820 0.555456
vn 0.000000 -2.434445 0.000000
v 0.491394 0.317820 0.518708
vn 0.000000 -2.834683 0.000000
v 0.471308 0.317820 0.455330
vn 0.000000 2.628205 0.000000
v 0.471308 0.317820 0.190102
vn 0.000000 2.602743 0.000000
v 0.426266 0.317820 0.110214
vn 0.000000 2.623034 0.000000
v 0.342269 0.317820 0.062281
vn 0.000000 2.769626 0.000000
v 0.204101 0.317820 0.062281
vn 0.000000 2.527285 0.000000
v 0.108540 0.317820 0.099562
vn 0.000000 2.557071 0.000000
v 0.041586 0.317820 0.200754
vn 0.000000 1.570429 0.000000
v 0.041586 0.317820 0.887790
vn 0.000000 1.571164 0.000000
v 0.648431 0.317820 0.887567
vn -1.598126 1.604727 -1.579287
v 0.647624 0.347137 0.899067
vn -1.796538 1.914193 1.522666
v 0.647576 0.347226 0.923230
vn -3.503513 1.196325 2.841566
v 0.647598 0.332592 0.926544
vn 2.495820 2.333582 1.869756
v 0.647609 0.317772 0.936185
vn 2.774476 3.048388 0.547812
v 0.647585 0.310521 0.955659
vn -1.577020 1.573422 1.561949
v 0.647547 0.310591 0.974832
vn -1.570733 -1.568088 1.573490
v 0.647591 0.288375 0.974914
vn -1.537336 -1.536715 -1.567515
v 0.647742 0.288090 0.897674
vn 1.598002 1.610965 -1.573053
v 0.666644 0.347174 0.899104
vn 1.782961 1.921031 1.529710
v 0.666597 0.347263 0.923268
vn 3.487769 1.210193 2.855468
v 0.666619 0.332629 0.926581
vn -2.512137 2.324038 1.860152
v 0.666629 0.317809 0.936222
vn -2.788413 3.037213 0.536801
v 0.666606 0.310558 0.955696
vn 1.564622 1.579623 1.567978
v 0.666568 0.310629 0.974869
vn 1.570853 -1.561937 1.579701
v 0.666611 0.288413 0.974951
vn 1.549716 -1.530753 -1.561558
v 0.666763 0.288128 0.897712
vn 2.129937 -0.564290 1.563380
v 0.648334 0.316905 0.829621
vn 0.718684 2.213957 1.430607
v 0.472594 0.622788 0.824188
vn -1.591514 0.785305 0.988527
v 0.464117 0.620348 0.824172
vn -0.555100 -2.070379 1.512135
v 0.636300 0.309750 0.829651
vn -2.020640 0.641462 -1.726887
v 0.465099 0.618607 0.816062
vn -0.585776 -2.123269 -1.569053
v 0.636214 0.309960 0.815743
vn 1.167114 2.324858 -2.168876
v 0.473576 0.621048 0.816078
vn 2.171838 -0.556257 -1.607438
v 0.648248 0.317115 0.815714
vn -1.514015 1.478157 1.568570
v 0.025535 0.246801 0.973472
vn -1.670289 -1.664300 1.529210
v 0.025439 0.026317 0.959890
vn 1.468445 -1.757895 1.468271
v 0.046854 0.025000 0.959849
vn 1.493613 1.381525 1.493487
v 0.060532 0.246931 0.973546
vn 1.533661 -1.671743 -1.670453
v 0.046892 0.026249 0.939573
vn 1.565773 1.472935 -1.514991
v 0.060457 0.246790 0.938777
vn -1.736461 -1.570858 -1.731274
v 0.025477 0.027566 0.939614
vn -1.573561 1.560465 -1.577386
v 0.025460 0.246660 0.938703
vn 1.516529 1.478162 -1.566176
v 0.665106 0.247942 0.940231
vn 1.672717 -1.664335 -1.526606
v 0.665180 0.027459 0.953813
vn -1.466115 -1.757864 -1.470560
v 0.643765 0.026141 0.953820
vn -1.491219 1.381492 -1.495824
v 0.630109 0.248072 0.940101
vn -1.536307 -1.671769 1.668060
v 0.643695 0.027390 0.974096
vn -1.568221 1.472969 1.512541
v 0.630129 0.247931 0.974870
vn 1.733709 -1.570835 1.733981
v 0.665110 0.028708 0.974089
vn 1.570963 1.560466 1.579824
v 0.665125 0.247802 0.975000
vn -1.514021 1.478157 1.568593
v 0.074989 0.252507 0.132746
vn -1.670289 -1.664301 1.529210
v 0.074893 0.032024 0.119164
vn 1.468445 -1.757895 1.468270
v 0.096308 0.030706 0.119123
vn 1.493613 1.381537 1.493507
v 0.109986 0.252637 0.132820
vn 1.533689 -1.671760 -1.670453
v 0.096347 0.031955 0.098847
vn 1.565808 1.472926 -1.514972
v 0.109912 0.252496 0.098051
vn -1.736426 -1.570839 -1.731272
v 0.074932 0.033273 0.098888
vn -1.573474 1.560457 -1.577312
v 0.074915 0.252367 0.097977
vn 1.516529 1.478162 -1.566176
v 0.447126 0.252507 0.102168
vn 1.672715 -1.664335 -1.526603
v 0.447200 0.032024 0.115750
vn -1.466109 -1.757917 -1.470629
v 0.425785 0.030706 0.115757
vn -1.491219 1.381498 -1.495829
v 0.412129 0.252637 0.102038
vn -1.536315 -1.671724 1.667985
v 0.425714 0.031955 0.136033
vn -1.568221 1.472976 1.512545
v 0.412149 0.252496 0.136807
vn 1.733705 -1.570836 1.733979
v 0.447130 0.033273 0.136026
vn 1.570963 1.560466 1.579824
v 0.447145 0.252367 0.136937
vn -1.598180 1.605603 -1.578357
v 0.026744 0.346374 0.898757
vn -1.798586 1.911383 1.523928
v 0.026682 0.346435 0.922920
vn -3.505926 1.191315 2.841199
v 0.026711 0.331797 0.926217
vn 2.493285 2.332808 1.873786
v 0.026724 0.316966 0.935841
vn 2.772364 3.049284 0.552864
v 0.026694 0.309693 0.955306
vn -1.578898 1.570819 1.562898
v 0.026645 0.309741 0.974479
vn -1.570702 -1.570747 1.570764
v 0.026701 0.287525 0.974536
vn -1.535697 -1.535851 -1.570263
v 0.026897 0.287330 0.897296
vn 1.598009 1.613703 -1.570320
v 0.045764 0.346422 0.898805
vn 1.780994 1.920487 1.532903
v 0.045703 0.346484 0.922968
vn 3.485358 1.209060 2.858930
v 0.045732 0.331846 0.926265
vn -2.514702 2.320069 1.861156
v 0.045745 0.317015 0.935889
vn -2.790514 3.035146 0.538717
v 0.045714 0.309741 0.955355
vn 1.562693 1.578684 1.570747
v 0.045666 0.309790 0.974528
vn 1.570834 -1.562817 1.578798
v 0.045722 0.287574 0.974584
vn 1.551334 -1.527989 -1.562404
v 0.045918 0.287378 0.897344
vn -1.570796 -1.570796 -1.570796
v 0.338846 0.058374 0.836434
vn 1.570796 -1.570796 -1.570796
v 0.354062 0.058374 0.836434
vn 1.570796 1.570796 -1.570796
v 0.354062 0.248584 0.836434
vn -1.570796 1.570796 -1.570796
v 0.338846 0.248584 0.836434
vn -1.570796 -1.570796 1.570796
v 0.338846 0.058374 0.851651
vn 1.570796 -1.570796 1.570796
v 0.354062 0.058374 0.851651
vn 1.570796 1.570796 1.570796
v 0.354062 0.248584 0.851651
vn -1.570796 1.570796 1.570796
v 0.338846 0.248584 0.851651
vn -1.570796 -1.570796 -1.570796
v 0.371181 0.058374 0.836434
vn 1.570796 -1.570796 -1.570796
v 0.386398 0.058374 0.836434
vn 1.570796 1.570796 -1.570796
v 0.386398 0.248584 0.836434
vn -1.570796 1.570796 -1.570796
v 0.371181 0.248584 0.836434
vn -1.570796 -1.570796 1.570796
v 0.371181 0.058374 0.851651
vn 1.570796 -1.570796 1.570796
v 0.386398 0.058374 0.851651
vn 1.570796 1.570796 1.570796
v 0.386398 0.248584 0.851651
vn -1.570796 1.570796 1.570796
v 0.371181 0.248584 0.851651
vn -1.570796 -1.570796 -1.570796
v 0.302706 0.058374 0.836434
vn 1.570796 -1.570796 -1.570796
v 0.317923 0.058374 0.836434
vn 1.570796 1.570796 -1.570796
v 0.317923 0.248584 0.836434
vn -1.570796 1.570796 -1.570796
v 0.302706 0.248584 0.836434
vn -1.570796 -1.570796 1.570796
v 0.302706 0.058374 0.851651
vn 1.570796 -1.570796 1.570796
v 0.317923 0.058374 0.851651
vn 1.570796 1.570796 1.570796
v 0.317923 0.248584 0.851651
vn -1.570796 1.570796 1.570796
v 0.302706 0.248584 0.851651
vn -1.570796 -1.570796 -1.570796
v 0.296239 0.039353 0.832630
vn 1.570796 -1.570796 -1.570796
v 0.391344 0.039353 0.832630
vn 1.570796 1.570796 -1.570796
v 0.391344 0.058374 0.832630
vn -1.570796 1.570796 -1.570796
v 0.296239 0.058374 0.832630
vn -1.570796 -1.570796 1.570796
v 0.296239 0.039353 0.855455
vn 1.570796 -1.570796 1.570796
v 0.391344 0.039353 0.855455
vn 1.570796 1.570796 1.570796
v 0.391344 0.058374 0.855455
vn -1.570796 1.570796 1.570796
v 0.296239 0.058374 0.855455
vn -1.570796 -1.570796 -1.570796
v 0.338846 0.047342 0.851651
vn 1.570796 -1.570796 -1.570796
v 0.354062 0.047342 0.851651
vn 1.570796 1.570796 -1.570796
v 0.354062 0.051146 0.851651
vn -1.570796 1.570796 -1.570796
v 0.338846 0.051146 0.851651
vn -1.570796 -1.570796 1.570796
v 0.338846 0.047342 0.878280
vn 1.570796 -1.570796 1.570796
v 0.354062 0.047342 0.878280
vn 1.570796 1.570796 1.570796
v 0.354062 0.051146 0.878280
vn -1.570796 1.570796 1.570796
v 0.338846 0.051146 0.878280
vn -1.570796 -1.570796 -1.570796
v 0.371562 0.047342 0.855455
vn 1.570796 -1.570796 -1.570796
v 0.386779 0.047342 0.855455
vn 1.570796 1.570796 -1.570796
v 0.386779 0.051146 0.855455
vn -1.570796 1.570796 -1.570796
v 0.371562 0.051146 0.855455
vn -1.570796 -1.570796 1.570796
v 0.371562 0.047342 0.874476
vn 1.570796 -1.570796 1.570796
v 0.386779 0.047342 0.874476
vn 1.570796 1.570796 1.570796
v 0.386779 0.051146 0.874476
vn -1.570796 1.570796 1.570796
v 0.371562 0.051146 0.874476
vn -1.570796 -1.570796 -1.570796
v 0.301945 0.047342 0.855455
vn 1.570796 -1.570796 -1.570796
v 0.317162 0.047342 0.855455
vn 1.570796 1.570796 -1.570796
v 0.317162 0.051146 0.855455
vn -1.570796 1.570796 -1.570796
v 0.301945 0.051146 0.855455
vn -1.570796 -1.570796 1.570796
v 0.301945 0.047342 0.874476
vn 1.570796 -1.570796 1.570796
v 0.317162 0.047342 0.874476
vn 1.570796 1.570796 1.570796
v 0.317162 0.051146 0.874476
vn -1.570796 1.570796 1.570796
v 0.301945 0.051146 0.874476
vn 3.933710 -0.837933 -0.680281
v 0.588993 0.691736 0.683201
vn 3.259551 -1.109410 -2.000420
v 0.558196 0.673939 0.609171
vn 0.666306 3.378041 -2.000401
v 0.554389 0.680527 0.609171
vn 1.238144 3.826586 -0.680273
v 0.585186 0.698324 0.683201
vn 2.974933 -1.859725 -2.675487
v 0.498843 0.639640 0.564967
vn -0.126008 3.506280 -2.675504
v 0.495036 0.646227 0.564967
vn 3.906668 -2.198206 -1.856557
v 0.444528 0.608252 0.528218
vn 0.046360 4.481937 -1.856708
v 0.440722 0.614840 0.528218
vn 4.383521 -1.470854 -0.501271
v 0.426050 0.597574 0.464840
vn 0.914774 4.531770 -0.501291
v 0.422244 0.604162 0.464840
vn 3.828820 -0.792883 -0.807260
v 0.426050 0.597574 0.199612
vn 1.225042 3.712586 -0.807194
v 0.422244 0.604162 0.199612
vn 3.112820 -1.207996 -2.191061
v 0.384615 0.573629 0.119724
vn 0.507627 3.300140 -2.191048
v 0.380808 0.580217 0.119724
vn 1.968789 -1.921411 -2.954628
v 0.307343 0.528975 0.071791
vn -0.681813 2.665227 -2.954656
v 0.303536 0.535562 0.071791
vn 0.927033 -2.686281 -3.045329
v 0.180237 0.455522 0.071791
vn -1.864593 2.144494 -3.045322
v 0.176430 0.462110 0.071791
vn -0.312757 -3.109156 -2.377944
v 0.092327 0.404720 0.109073
vn -2.849980 1.281327 -2.377916
v 0.088520 0.411307 0.109073
vn -1.207305 -3.618524 -0.903398
v 0.030733 0.369126 0.210264
vn -3.737890 0.760566 -0.903378
v 0.026926 0.375713 0.210264
vn -0.573768 -2.145446 1.570827
v 0.030733 0.369126 0.897301
vn -2.145309 0.574020 1.570767
v 0.026926 0.375713 0.897301
vn 2.146634 -0.574135 1.570808
v 0.588993 0.691736 0.897077
vn 0.574397 2.146534 1.570783
v 0.585186 0.698324 0.897077
# 227 vertices, 0 vertices normals

f 2//2 5//5 6//6
f 3//3 6//6 7//7
f 4//4 7//7 8//8
f 1//1 8//8 5//5
f 6//6 5//5 8//8
f 2//2 3//3 4//4
f 9//9 10//10 11//11
f 10//10 13//13 14//14
f 13//13 15//15 16//16
f 15//15 17//17 18//18
f 17//17 19//19 20//20
f 19//19 21//21 22//22
f 21//21 23//23 24//24
f 23//23 25//25 26//26
f 25//25 27//27 28//28
f 27//27 29//29 30//30
f 29//29 31//31 32//32
f 31//31 33//33 34//34
f 33//33 9//9 12//12
f 35//35 36//36 37//37
f 31//31 29//29 27//27
f 44//44 48//48 49//49
f 43//43 50//50 48//48
f 42//42 51//51 50//50
f 41//41 52//52 51//51
f 40//40 53//53 52//52
f 39//39 54//54 53//53
f 38//38 55//55 54//54
f 37//37 56//56 55//55
f 36//36 57//57 56//56
f 35//35 58//58 57//57
f 47//47 59//59 58//58
f 46//46 60//60 59//59
f 45//45 49//49 60//60
f 61//61 62//62 63//63
f 76//76 75//75 74//74
f 77//77 76//76 74//74
f 78//78 77//77 74//74
f 79//79 78//78 74//74
f 80//80 79//79 74//74
f 81//81 80//80 74//74
f 74//74 83//83 82//82
f 74//74 75//75 83//83
f 75//75 84//84 83//83
f 75//75 76//76 84//84
f 76//76 85//85 84//84
f 76//76 77//77 85//85
f 77//77 86//86 85//85
f 77//77 78//78 86//86
f 78//78 87//87 86//86
f 78//78 79//79 87//87
f 79//79 88//88 87//87
f 79//79 80//80 88//88
f 80//80 89//89 88//88
f 80//80 81//81 89//89
f 81//81 82//82 89//89
f 81//81 74//74 82//82
f 82//82 83//83 84//84
f 82//82 84//84 85//85
f 82//82 85//85 86//86
f 82//82 86//86 87//87
f 82//82 87//87 88//88
f 82//82 88//88 89//89
f 90//90 91//91 92//92
f 93//93 92//92 94//94
f 94//94 92//92 91//91
f 95//95 97//97 90//90
f 94//94 96//96 97//97
f 90//90 97//97 96//96
f 98//98 99//99 100//100
f 101//101 100//100 102//102
f 102//102 100//100 99//99
f 103//103 105//105 98//98
f 102//102 104//104 105//105
f 98//98 105//105 104//104
f 106//106 107//107 108//108
f 109//109 108//108 110//110
f 110//110 108//108 107//107
f 111//111 113//113 106//106
f 110//110 112//112 113//113
f 106//106 113//113 112//112
f 114//114 115//115 116//116
f 117//117 116//116 118//118
f 118//118 116//116 115//115
f 119//119 121//121 114//114
f 118//118 120//120 121//121
f 114//114 121//121 120//120
f 122//122 123//123 124//124
f 125//125 124//124 126//126
f 126//126 124//124 123//123
f 127//127 129//129 122//122
f 126//126 128//128 129//129
f 122//122 129//129 128//128
f 132//132 131//131 130//130
f 133//133 132//132 130//130
f 134//134 133//133 130//130
f 135//135 134//134 130//130
f 136//136 135//135 130//130
f 137//137 136//136 130//130
f 130//130 139//139 138//138
f 130//130 131//131 139//139
f 131//131 140//140 139//139
f 131//131 132//132 140//140
f 132//132 141//141 140//140
f 132//132 133//133 141//141
f 133//133 142//142 141//141
f 133//133 134//134 142//142
f 134//134 143//143 142//142
f 134//134 135//135 143//143
f 135//135 144//144 143//143
f 135//135 136//136 144//144
f 136//136 145//145 144//144
f 136//136 137//137 145//145
f 137//137 138//138 145//145
f 137//137 130//130 138//138
f 138//138 139//139 140//140
f 138//138 140//140 141//141
f 138//138 141//141 142//142
f 138//138 142//142 143//143
f 138//138 143//143 144//144
f 138//138 144//144 145//145
f 146//146 149//149 147//147
f 147//147 149//149 148//148
f 146//146 151//151 150//150
f 146//146 147//147 151//151
f 146//146 150//150 149//149
f 149//149 150//150 153//153
f 149//149 153//153 152//152
f 149//149 152//152 148//148
f 147//147 152//152 151//151
f 147//147 148//148 152//152
f 151//151 153//153 150//150
f 151//151 152//152 153//153
f 154//154 157//157 155//155
f 155//155 157//157 156//156
f 154//154 159//159 158//158
f 154//154 155//155 159//159
f 154//154 158//158 157//157
f 157//157 158//158 161//161
f 157//157 161//161 160//160
f 157//157 160//160 156//156
f 155//155 160//160 159//159
f 155//155 156//156 160//160
f 159//159 161//161 158//158
f 159//159 160//160 161//161
f 162//162 165//165 163//163
f 163//163 165//165 164//164
f 162//162 167//167 166//166
f 162//162 163//163 167//167
f 162//162 166//166 165//165
f 165//165 166//166 169//169
f 165//165 169//169 168//168
f 165//165 168//168 164//164
f 163//163 168//168 167//167
f 163//163 164//164 168//168
f 167//167 169//169 166//166
f 167//167 168//168 169//169
f 170//170 173//173 171//171
f 171//171 173//173 172//172
f 170//170 175//175 174//174
f 170//170 171//171 175//175
f 170//170 174//174 173//173
f 173//173 174//174 177//177
f 173//173 177//177 176//176
f 173//173 176//176 172//172
f 171//171 176//176 175//175
f 171//171 172//172 176//176
f 175//175 177//177 174//174
f 175//175 176//176 177//177
f 178//178 181//181 179//179
f 179//179 181//181 180//180
f 178//178 183//183 182//182
f 178//178 179//179 183//183
f 178//178 182//182 181//181
f 181//181 182//182 185//185
f 181//181 185//185 184//184
f 181//181 184//184 180//180
f 179//179 184//184 183//183
f 179//179 180//180 184//184
f 183//183 185//185 182//182
f 183//183 184//184 185//185
f 186//186 189//189 187//187
f 187//187 189//189 188//188
f 186//186 191//191 190//190
f 186//186 187//187 191//191
f 186//186 190//190 189//189
f 189//189 190//190 193//193
f 189//189 193//193 192//192
f 189//189 192//192 188//188
f 187//187 192//192 191//191
f 187//187 188//188 192//192
f 191//191 193//193 190//190
f 191//191 192//192 193//193
f 194//194 197//197 195//195
f 195//195 197//197 196//196
f 194//194 199//199 198//198
f 194//194 195//195 199//199
f 194//194 198//198 197//197
f 197//197 198//198 201//201
f 197//197 201//201 200//200
f 197//197 200//200 196//196
f 195//195 200//200 199//199
f 195//195 196//196 200//200
f 199//199 201//201 198//198
f 199//199 200//200 201//201
f 202//202 203//203 204//204
f 203//203 206//206 207//207
f 206//206 208//208 209//209
f 208//208 210//210 211//211
f 210//210 212//212 213//213
f 212//212 214//214 215//215
f 214//214 216//216 217//217
f 216//216 218//218 219//219
f 218//218 220//220 221//221
f 220//220 222//222 223//223
f 222//222 224//224 225//225
f 224//224 226//226 227//227
f 226//226 202//202 205//205
f 225//225 227//227 205//205
f 224//224 222//222 220//220
f 2//2 6//6 3//3
f 3//3 7//7 4//4
f 4//4 8//8 1//1
f 1//1 5//5 2//2
f 6//6 8//8 7//7
f 2//2 4//4 1//1
f 9//9 11//11 12//12
f 10//10 14//14 11//11
f 13//13 16//16 14//14
f 15//15 18//18 16//16
f 17//17 20//20 18//18
f 19//19 22//22 20//20
f 21//21 24//24 22//22
f 23//23 26//26 24//24
f 25//25 28//28 26//26
f 27//27 30//30 28//28
f 29//29 32//32 30//30
f 31//31 34//34 32//32
f 33//33 12//12 34//34
f 35//35 37//37 38//38
f 35//35 38//38 39//39
f 35//35 39//39 40//40
f 35//35 40//40 41//41
f 35//35 41//41 42//42
f 35//35 42//42 43//43
f 35//35 43//43 44//44
f 35//35 44//44 45//45
f 35//35 45//45 46//46
f 35//35 46//46 47//47
f 35//35 30//30 32//32
f 35//35 32//32 34//34
f 35//35 34//34 12//12
f 35//35 12//12 11//11
f 35//35 11//11 14//14
f 35//35 14//14 16//16
f 35//35 16//16 18//18
f 35//35 18//18 20//20
f 35//35 20//20 22//22
f 35//35 22//22 24//24
f 35//35 24//24 26//26
f 35//35 26//26 28//28
f 35//35 28//28 30//30
f 31//31 27//27 25//25
f 31//31 25//25 23//23
f 31//31 23//23 21//21
f 31//31 21//21 19//19
f 31//31 19//19 17//17
f 31//31 17//17 15//15
f 31//31 15//15 13//13
f 31//31 13//13 10//10
f 31//31 10//10 9//9
f 31//31 9//9 33//33
f 44//44 49//49 45//45
f 43//43 48//48 44//44
f 42//42 50//50 43//43
f 41//41 51//51 42//42
f 40//40 52//52 41//41
f 39//39 53//53 40//40
f 38//38 54//54 39//39
f 37//37 55//55 38//38
f 36//36 56//56 37//37
f 35//35 57//57 36//36
f 47//47 58//58 35//35
f 46//46 59//59 47//47
f 45//45 60//60 46//46
f 61//61 63//63 64//64
f 61//61 64//64 65//65
f 61//61 65//65 66//66
f 61//61 66//66 67//67
f 61//61 67//67 68//68
f 61//61 68//68 69//69
f 61//61 69//69 70//70
f 61//61 70//70 71//71
f 61//61 71//71 72//72
f 61//61 72//72 73//73
f 90//90 92//92 93//93
f 93//93 94//94 95//95
f 94//94 91//91 96//96
f 95//95 90//90 93//93
f 94//94 97//97 95//95
f 90//90 96//96 91//91
f 98//98 100//100 101//101
f 101//101 102//102 103//103
f 102//102 99//99 104//104
f 103//103 98//98 101//101
f 102//102 105//105 103//103
f 98//98 104//104 99//99
f 106//106 108//108 109//109
f 109//109 110//110 111//111
f 110//110 107//107 112//112
f 111//111 106//106 109//109
f 110//110 113//113 111//111
f 106//106 112//112 107//107
f 114//114 116//116 117//117
f 117//117 118//118 119//119
f 118//118 115//115 120//120
f 119//119 114//114 117//117
f 118//118 121//121 119//119
f 114//114 120//120 115//115
f 122//122 124//124 125//125
f 125//125 126//126 127//127
f 126//126 123//123 128//128
f 127//127 122//122 125//125
f 126//126 129//129 127//127
f 122//122 128//128 123//123
f 202//202 204//204 205//205
f 203//203 207//207 204//204
f 206//206 209//209 207//207
f 208//208 211//211 209//209
f 210//210 213//213 211//211
f 212//212 215//215 213//213
f 214//214 217//217 215//215
f 216//216 219//219 217//217
f 218//218 221//221 219//219
f 220//220 223//223 221//221
f 222//222 225//225 223//223
f 224//224 227//227 225//225
f 226//226 205//205 227//227
f 225//225 205//205 204//204
f 225//225 204//204 207//207
f 225//225 207//207 209//209
f 225//225 209//209 211//211
f 225//225 211//211 213//213
f 225//225 213//213 215//215
f 225//225 215//215 217//217
f 225//225 217//217 219//219
f 225//225 219//219 221//221
f 225//225 221//221 223//223
f 224//224 220//220 218//218
f 224//224 218//218 216//216
f 224//224 216//216 214//214
f 224//224 214//214 212//212
f 224//224 212//212 210//210
f 224//224 210//210 208//208
f 224//224 208//208 206//206
f 224//224 206//206 203//203
f 224//224 203//203 202//202
f 224//224 202//202 226//226
# 358 faces, 0 coords texture

# End of File
