####
#
# OBJ File Generated by Meshlab
#
####
# Object m623.obj
#
# Vertices: 78
# Faces: 120
#
####
vn -1.360349 0.000163 0.785409
v 0.096056 0.810083 0.141567
vn -2.851674 2.298603 0.291645
v 0.121818 0.810092 0.186188
vn -1.360341 0.000163 0.785404
v 0.096056 0.925891 0.141543
vn -1.360349 0.000163 0.785409
v 0.121818 0.925900 0.186164
vn 1.360345 -0.000162 -0.785396
v 0.213703 0.810081 0.133138
vn 2.850823 2.296755 -0.289987
v 0.187941 0.810072 0.088517
vn 1.676040 -2.297326 -2.323486
v 0.213703 0.925890 0.133114
vn 1.360362 -0.000162 -0.785408
v 0.187941 0.925880 0.088493
vn 2.858541 2.312834 0.312901
v 0.188368 0.810092 0.186407
vn 1.360347 0.000156 0.785398
v 0.214130 0.810083 0.141786
vn 1.360347 0.000156 0.785398
v 0.188368 0.925900 0.186384
vn 1.360351 0.000156 0.785401
v 0.214130 0.925891 0.141763
vn -1.176443 2.295649 2.611223
v 0.180665 0.810093 0.190308
vn 1.176446 2.295641 2.611218
v 0.129141 0.810093 0.190308
vn 0.000000 0.000312 1.570796
v 0.180665 0.925901 0.190285
vn 0.000000 0.000312 1.570796
v 0.129141 0.925901 0.190285
vn -2.857677 2.310877 -0.311105
v 0.121486 0.810072 0.088298
vn -1.360348 -0.000156 -0.785407
v 0.095724 0.810081 0.132919
vn -1.360365 -0.000161 -0.785405
v 0.121486 0.925880 0.088275
vn -1.697684 -2.311383 -2.318929
v 0.095724 0.925890 0.132896
vn 0.000000 -0.000320 -1.570796
v 0.180665 0.810071 0.083823
vn 0.000000 -0.000320 -1.570796
v 0.129141 0.810071 0.083823
vn 0.000000 -0.000320 -1.570796
v 0.180665 0.925880 0.083799
vn 0.000000 -0.000320 -1.570796
v 0.129141 0.925880 0.083799
vn 0.881398 -0.648776 1.526751
v 0.219854 0.025046 0.249998
vn 1.762795 -0.649089 0.000133
v 0.284805 0.025023 0.137499
vn 0.881397 -0.649397 -1.526488
v 0.219854 0.025000 0.025000
vn -0.881397 -0.649397 -1.526487
v 0.089951 0.025000 0.025000
vn -1.762787 -0.649083 0.000130
v 0.025000 0.025023 0.137499
vn -0.881397 -0.648778 1.526756
v 0.089951 0.025046 0.249998
vn 2.675717 2.319995 4.634004
v 0.182235 0.116797 0.184822
vn 5.351426 2.319062 -0.000492
v 0.209568 0.116787 0.137480
vn 2.675709 2.318098 -4.634963
v 0.182235 0.116778 0.090139
vn -2.675744 2.318098 -4.634926
v 0.127570 0.116778 0.090139
vn -5.351448 2.319077 -0.000509
v 0.100238 0.116787 0.137480
vn -2.675736 2.320007 4.633974
v 0.127570 0.116797 0.184822
vn 2.814114 -1.154898 4.874317
v 0.168571 0.694278 0.161036
vn 5.628225 -1.155866 0.000286
v 0.182238 0.694273 0.137363
vn 2.814157 -1.156856 -4.873796
v 0.168571 0.694268 0.113689
vn -2.814089 -1.156872 -4.873878
v 0.141235 0.694268 0.113689
vn -5.628151 -1.155890 0.000294
v 0.127567 0.694273 0.137363
vn -2.814053 -1.154899 4.874395
v 0.141235 0.694278 0.161036
vn 1.423510 0.687681 2.476958
v 0.194537 0.810096 0.205987
vn 2.859638 0.685484 -0.005369
v 0.234170 0.810082 0.137339
vn 1.434341 0.684969 -2.473991
v 0.194537 0.810068 0.068691
vn -1.441192 0.670850 -2.495116
v 0.115269 0.810068 0.068691
vn -2.859515 0.685554 0.003928
v 0.075635 0.810082 0.137339
vn -1.416644 0.701899 2.455718
v 0.115269 0.810096 0.205987
vn 1.083330 -5.382061 1.888959
v 0.194537 0.925904 0.205963
vn 2.179185 -5.380763 -0.004148
v 0.234170 0.925890 0.137315
vn 1.094104 -5.381139 -1.883518
v 0.194537 0.925876 0.068668
vn -1.100963 -5.367018 -1.904610
v 0.115269 0.925876 0.068668
vn -2.178965 -5.380887 0.005110
v 0.075635 0.925890 0.137315
vn -1.076448 -5.396277 1.867729
v 0.115269 0.925904 0.205963
vn 0.000000 5.555219 -0.001139
v 0.154903 0.975000 0.137305
vn 0.000000 -6.283185 0.001279
v 0.154903 0.025023 0.137499
vn 0.734692 0.042580 1.272510
v 0.210166 0.938752 0.233031
vn 1.469357 0.042304 0.000000
v 0.265429 0.938732 0.137313
vn 0.734695 0.042064 -1.272539
v 0.210166 0.938713 0.041594
vn -0.734698 0.042064 -1.272539
v 0.099640 0.938713 0.041595
vn -1.469376 0.042310 -0.000006
v 0.044377 0.938732 0.137313
vn -0.734691 0.042581 1.272513
v 0.099640 0.938752 0.233031
vn -0.318489 2.298881 1.537720
v 0.096056 0.810083 0.141567
vn -0.318452 -2.298243 1.538620
v 0.096056 0.925891 0.141543
vn -1.491318 -2.298644 -0.492827
v 0.121818 0.925900 0.186164
vn 0.315815 2.296522 -1.539170
v 0.213703 0.810081 0.133138
vn 1.490466 -2.296709 0.496357
v 0.187941 0.925880 0.088493
vn 0.340315 2.313080 1.533039
v 0.214130 0.810083 0.141786
vn 1.498201 -2.312854 -0.471582
v 0.188368 0.925900 0.186384
vn 0.340353 -2.312507 1.533937
v 0.214130 0.925891 0.141763
vn -1.176405 -2.294947 1.041330
v 0.180665 0.925901 0.190285
vn 1.176409 -2.294939 1.041326
v 0.129141 0.925901 0.190285
vn -0.337516 2.310659 -1.534556
v 0.095724 0.810081 0.132919
vn -1.497380 -2.310847 0.475259
v 0.121486 0.925880 0.088275
vn -1.157881 2.312559 -1.061919
v 0.180665 0.810071 0.083823
vn 1.157882 2.312561 -1.061920
v 0.129141 0.810071 0.083823
vn -1.157846 -2.313002 -1.060829
v 0.180665 0.925880 0.083799
vn 1.157851 -2.312988 -1.060822
v 0.129141 0.925880 0.083800
# 78 vertices, 0 vertices normals

f 9//9 10//10 12//12
f 9//9 12//12 11//11
f 5//5 6//6 8//8
f 5//5 8//8 7//7
f 21//21 22//22 24//24
f 21//21 24//24 23//23
f 17//17 18//18 20//20
f 17//17 20//20 19//19
f 1//1 2//2 4//4
f 1//1 4//4 3//3
f 14//14 13//13 15//15
f 14//14 15//15 16//16
f 25//25 26//26 32//32
f 25//25 32//32 31//31
f 26//26 27//27 33//33
f 26//26 33//33 32//32
f 27//27 28//28 34//34
f 27//27 34//34 33//33
f 28//28 29//29 35//35
f 28//28 35//35 34//34
f 29//29 30//30 36//36
f 29//29 36//36 35//35
f 30//30 25//25 31//31
f 30//30 31//31 36//36
f 31//31 32//32 38//38
f 31//31 38//38 37//37
f 32//32 33//33 39//39
f 32//32 39//39 38//38
f 33//33 34//34 40//40
f 33//33 40//40 39//39
f 34//34 35//35 41//41
f 34//34 41//41 40//40
f 35//35 36//36 42//42
f 35//35 42//42 41//41
f 36//36 31//31 37//37
f 36//36 37//37 42//42
f 37//37 38//38 44//44
f 37//37 44//44 43//43
f 38//38 39//39 45//45
f 38//38 45//45 44//44
f 39//39 40//40 46//46
f 39//39 46//46 45//45
f 40//40 41//41 47//47
f 40//40 47//47 46//46
f 41//41 42//42 48//48
f 41//41 48//48 47//47
f 42//42 37//37 43//43
f 42//42 43//43 48//48
f 26//26 25//25 56//56
f 27//27 26//26 56//56
f 28//28 27//27 56//56
f 29//29 28//28 56//56
f 30//30 29//29 56//56
f 25//25 30//30 56//56
f 57//57 58//58 55//55
f 58//58 59//59 55//55
f 59//59 60//60 55//55
f 60//60 61//61 55//55
f 61//61 62//62 55//55
f 62//62 57//57 55//55
f 57//57 49//49 50//50
f 50//50 58//58 57//57
f 58//58 50//50 51//51
f 51//51 59//59 58//58
f 59//59 51//51 52//52
f 52//52 60//60 59//59
f 60//60 52//52 53//53
f 53//53 61//61 60//60
f 61//61 53//53 54//54
f 54//54 62//62 61//61
f 62//62 54//54 49//49
f 49//49 57//57 62//62
f 63//63 47//47 48//48
f 48//48 2//2 63//63
f 2//2 48//48 54//54
f 54//54 65//65 2//2
f 65//65 54//54 53//53
f 53//53 64//64 65//65
f 64//64 53//53 47//47
f 47//47 63//63 64//64
f 66//66 44//44 45//45
f 45//45 6//6 66//66
f 6//6 45//45 51//51
f 51//51 67//67 6//6
f 67//67 51//51 50//50
f 50//50 7//7 67//67
f 7//7 50//50 44//44
f 44//44 66//66 7//7
f 9//9 43//43 44//44
f 44//44 68//68 9//9
f 68//68 44//44 50//50
f 50//50 70//70 68//68
f 70//70 50//50 49//49
f 49//49 69//69 70//70
f 69//69 49//49 43//43
f 43//43 9//9 69//69
f 14//14 48//48 43//43
f 43//43 13//13 14//14
f 13//13 43//43 49//49
f 49//49 71//71 13//13
f 71//71 49//49 54//54
f 54//54 72//72 71//71
f 72//72 54//54 48//48
f 48//48 14//14 72//72
f 17//17 46//46 47//47
f 47//47 73//73 17//17
f 73//73 47//47 53//53
f 53//53 20//20 73//73
f 20//20 53//53 52//52
f 52//52 74//74 20//20
f 74//74 52//52 46//46
f 46//46 17//17 74//74
f 75//75 45//45 46//46
f 46//46 76//76 75//75
f 76//76 46//46 52//52
f 52//52 78//78 76//76
f 78//78 52//52 51//51
f 51//51 77//77 78//78
f 77//77 51//51 45//45
f 45//45 75//75 77//77
# 120 faces, 0 coords texture

# End of File
