####
#
# OBJ File Generated by Meshlab
#
####
# Object m1605.obj
#
# Vertices: 89
# Faces: 168
#
####
vn 2.267507 1.274446 0.003159
v 0.658333 0.025000 0.342171
vn 1.603293 1.276174 -1.597559
v 0.566064 0.025000 0.117982
vn 0.003158 1.274436 -2.267518
v 0.342171 0.025000 0.025000
vn -1.597542 1.276186 -1.603287
v 0.117982 0.025000 0.117268
vn -2.267518 1.274437 -0.003155
v 0.025000 0.025000 0.341162
vn -1.603276 1.276201 1.597536
v 0.117268 0.025000 0.565351
vn -0.003156 1.274447 2.267507
v 0.341162 0.025000 0.658333
vn 1.597553 1.276188 1.603282
v 0.565351 0.025000 0.566064
vn 5.770698 0.000014 0.009200
v 0.618749 0.095458 0.342108
vn 4.084834 0.000013 -4.071824
v 0.537916 0.095458 0.146041
vn 0.009196 0.000005 -5.770711
v 0.342108 0.095458 0.064583
vn -4.071828 0.000007 -4.084812
v 0.146041 0.095458 0.145417
vn -5.770710 0.000005 -0.009191
v 0.064583 0.095458 0.341225
vn -4.084813 0.000007 4.071809
v 0.145417 0.095458 0.537291
vn -0.009194 0.000014 5.770698
v 0.341225 0.095458 0.618749
vn 4.071805 0.000012 4.084834
v 0.537291 0.095458 0.537916
vn 4.299348 0.254367 0.006594
v 0.658333 0.165917 0.342171
vn 3.039254 0.253572 -3.029236
v 0.566064 0.165917 0.117982
vn 0.006599 0.254385 -4.299365
v 0.342171 0.165917 0.025000
vn -3.029215 0.253567 -3.039242
v 0.117982 0.165917 0.117268
vn -4.299365 0.254385 -0.006596
v 0.025000 0.165917 0.341162
vn -3.039226 0.253558 3.029206
v 0.117268 0.165917 0.565351
vn -0.006591 0.254367 4.299348
v 0.341162 0.165917 0.658333
vn 3.029227 0.253563 3.039239
v 0.565351 0.165917 0.566064
vn 5.630309 0.451915 -0.158933
v 0.579166 0.271208 0.342045
vn 3.998844 0.563076 -3.998831
v 0.509767 0.271208 0.174100
vn -0.025952 0.462934 -5.621038
v 0.342045 0.271208 0.104167
vn -3.980679 0.614138 -4.014738
v 0.174100 0.271208 0.173566
vn -5.630786 0.473873 -0.239000
v 0.104167 0.271208 0.341288
vn -3.952404 -0.243864 3.613850
v 0.173566 0.271208 0.509232
vn 0.022420 -0.604181 5.129125
v 0.341288 0.271208 0.579166
vn 3.958178 -0.197652 3.626611
v 0.509232 0.271208 0.509767
vn 3.759582 0.662120 0.233221
v 0.618718 0.341667 0.361899
vn 3.467216 0.287606 -2.810737
v 0.537906 0.341667 0.151979
vn -0.256444 -0.904610 -4.954869
v 0.342108 0.341667 0.064583
vn -3.227203 0.467800 -2.660332
v 0.146032 0.341667 0.151354
vn -3.800238 0.653188 0.067219
v 0.064552 0.341667 0.361017
vn -2.699822 0.053579 2.464119
v 0.145363 0.341667 0.570937
vn 0.138323 -0.391066 3.678060
v 0.341162 0.341667 0.658333
vn 2.492027 0.174445 2.339402
v 0.537238 0.341667 0.571561
vn 5.102153 2.814291 -0.087397
v 0.420864 0.482583 0.322001
vn 4.446240 3.619347 -2.415104
v 0.397800 0.482583 0.140276
vn -0.359461 1.467537 -3.142370
v 0.342108 0.482583 0.064583
vn -4.562463 2.571718 -3.023530
v 0.286175 0.482583 0.140098
vn -5.169955 2.682016 -0.334287
v 0.262531 0.482583 0.321749
vn -4.919641 2.282810 1.984135
v 0.285596 0.482583 0.503473
vn 0.486109 1.087923 4.549264
v 0.341288 0.482583 0.579166
vn 5.054426 1.705939 2.335137
v 0.397221 0.482583 0.503651
vn 6.165622 -0.494901 0.593454
v 0.423394 0.693563 0.473213
vn 5.225426 -1.618948 -1.744110
v 0.399837 0.693563 0.352446
vn 0.032692 -1.565286 -3.702557
v 0.341729 0.693563 0.302083
vn -5.313662 -1.314679 -1.739669
v 0.283462 0.693563 0.352261
vn -6.152318 -0.743925 0.564934
v 0.259520 0.693563 0.472952
vn -4.853363 -0.884154 3.093029
v 0.283077 0.693563 0.594115
vn 0.049178 -1.138042 4.440497
v 0.341184 0.693563 0.644478
vn 4.831426 -0.543239 3.174081
v 0.399451 0.693563 0.594300
vn 5.700973 -2.336442 -0.192369
v 0.434962 0.728792 0.417815
vn 3.742416 -3.475352 -1.955501
v 0.407913 0.728792 0.251917
vn 0.083867 -2.984779 -2.980110
v 0.341918 0.728792 0.183333
vn -3.677120 -3.585166 -1.917188
v 0.275705 0.728792 0.251707
vn -5.640865 -2.409003 -0.200610
v 0.248129 0.728792 0.417517
vn -5.373172 -0.801730 2.675361
v 0.275178 0.728792 0.583019
vn -0.006327 -0.625266 4.329761
v 0.341172 0.728792 0.651999
vn 5.350230 -1.002586 2.659094
v 0.407386 0.728792 0.583230
vn 5.197631 0.611445 0.050567
v 0.460322 0.799250 0.401230
vn 4.759721 -0.559617 -2.276614
v 0.425778 0.799250 0.219092
vn -0.254401 -2.094807 -4.162156
v 0.341981 0.799250 0.143750
vn -4.686741 -0.279771 -2.267785
v 0.257945 0.799250 0.218824
vn -5.242468 0.583370 -0.046832
v 0.222822 0.799250 0.400852
vn -4.732175 0.498550 2.353090
v 0.257365 0.799250 0.582991
vn 0.082919 0.322898 4.148183
v 0.341162 0.799250 0.658333
vn 4.573296 0.764961 2.378814
v 0.425198 0.799250 0.583258
vn 4.949498 3.752261 -0.166437
v 0.412864 0.869313 0.374634
vn 3.657392 3.269548 -1.749901
v 0.392189 0.869313 0.183413
vn -0.080458 0.563173 -1.538914
v 0.342045 0.869313 0.104167
vn -3.489051 2.614866 -2.018365
v 0.291648 0.869313 0.183253
vn -5.012074 3.654009 -0.340354
v 0.270364 0.869313 0.374407
vn -5.288938 2.675695 1.807811
v 0.291039 0.869313 0.565628
vn 0.198448 1.351484 3.175356
v 0.341183 0.869313 0.645270
vn 5.301216 2.338220 1.994321
v 0.391580 0.869313 0.565788
vn 5.361502 3.099272 0.324816
v 0.388975 0.904542 0.462075
vn 4.079792 4.515177 -1.258964
v 0.375301 0.904542 0.348845
vn 0.036730 5.884924 -1.530582
v 0.341729 0.904542 0.302083
vn -4.014105 4.576477 -1.275590
v 0.308009 0.904542 0.348738
vn -5.390160 3.018509 0.342159
v 0.293975 0.904542 0.461924
vn -4.125769 3.175906 1.997224
v 0.307649 0.904542 0.575154
vn -0.087159 2.563552 2.586264
v 0.341220 0.904542 0.621916
vn 4.145964 3.290759 1.931110
v 0.374940 0.904542 0.575261
vn 0.000504 2.949311 -0.324711
v 0.341540 0.975000 0.420833
# 89 vertices, 0 vertices normals

f 1//1 10//10 9//9
f 1//1 2//2 10//10
f 2//2 11//11 10//10
f 2//2 3//3 11//11
f 3//3 12//12 11//11
f 3//3 4//4 12//12
f 4//4 13//13 12//12
f 4//4 5//5 13//13
f 5//5 14//14 13//13
f 5//5 6//6 14//14
f 6//6 15//15 14//14
f 6//6 7//7 15//15
f 7//7 16//16 15//15
f 7//7 8//8 16//16
f 8//8 9//9 16//16
f 8//8 1//1 9//9
f 9//9 18//18 17//17
f 9//9 10//10 18//18
f 10//10 19//19 18//18
f 10//10 11//11 19//19
f 11//11 20//20 19//19
f 11//11 12//12 20//20
f 12//12 21//21 20//20
f 12//12 13//13 21//21
f 13//13 22//22 21//21
f 13//13 14//14 22//22
f 14//14 23//23 22//22
f 14//14 15//15 23//23
f 15//15 24//24 23//23
f 15//15 16//16 24//24
f 16//16 17//17 24//24
f 16//16 9//9 17//17
f 17//17 26//26 25//25
f 17//17 18//18 26//26
f 18//18 27//27 26//26
f 18//18 19//19 27//27
f 19//19 28//28 27//27
f 19//19 20//20 28//28
f 20//20 29//29 28//28
f 20//20 21//21 29//29
f 21//21 30//30 29//29
f 21//21 22//22 30//30
f 22//22 31//31 30//30
f 22//22 23//23 31//31
f 23//23 32//32 31//31
f 23//23 24//24 32//32
f 24//24 25//25 32//32
f 24//24 17//17 25//25
f 25//25 34//34 33//33
f 25//25 26//26 34//34
f 26//26 35//35 34//34
f 26//26 27//27 35//35
f 27//27 36//36 35//35
f 27//27 28//28 36//36
f 28//28 37//37 36//36
f 28//28 29//29 37//37
f 29//29 38//38 37//37
f 29//29 30//30 38//38
f 30//30 39//39 38//38
f 30//30 31//31 39//39
f 31//31 40//40 39//39
f 31//31 32//32 40//40
f 32//32 33//33 40//40
f 32//32 25//25 33//33
f 33//33 42//42 41//41
f 33//33 34//34 42//42
f 34//34 43//43 42//42
f 34//34 35//35 43//43
f 35//35 44//44 43//43
f 35//35 36//36 44//44
f 36//36 45//45 44//44
f 36//36 37//37 45//45
f 37//37 46//46 45//45
f 37//37 38//38 46//46
f 38//38 47//47 46//46
f 38//38 39//39 47//47
f 39//39 48//48 47//47
f 39//39 40//40 48//48
f 40//40 41//41 48//48
f 40//40 33//33 41//41
f 41//41 50//50 49//49
f 41//41 42//42 50//50
f 42//42 51//51 50//50
f 42//42 43//43 51//51
f 43//43 52//52 51//51
f 43//43 44//44 52//52
f 44//44 53//53 52//52
f 44//44 45//45 53//53
f 45//45 54//54 53//53
f 45//45 46//46 54//54
f 46//46 55//55 54//54
f 46//46 47//47 55//55
f 47//47 56//56 55//55
f 47//47 48//48 56//56
f 48//48 49//49 56//56
f 48//48 41//41 49//49
f 49//49 58//58 57//57
f 49//49 50//50 58//58
f 50//50 59//59 58//58
f 50//50 51//51 59//59
f 51//51 60//60 59//59
f 51//51 52//52 60//60
f 52//52 61//61 60//60
f 52//52 53//53 61//61
f 53//53 62//62 61//61
f 53//53 54//54 62//62
f 54//54 63//63 62//62
f 54//54 55//55 63//63
f 55//55 64//64 63//63
f 55//55 56//56 64//64
f 56//56 57//57 64//64
f 56//56 49//49 57//57
f 57//57 66//66 65//65
f 57//57 58//58 66//66
f 58//58 67//67 66//66
f 58//58 59//59 67//67
f 59//59 68//68 67//67
f 59//59 60//60 68//68
f 60//60 69//69 68//68
f 60//60 61//61 69//69
f 61//61 70//70 69//69
f 61//61 62//62 70//70
f 62//62 71//71 70//70
f 62//62 63//63 71//71
f 63//63 72//72 71//71
f 63//63 64//64 72//72
f 64//64 65//65 72//72
f 64//64 57//57 65//65
f 65//65 74//74 73//73
f 65//65 66//66 74//74
f 66//66 75//75 74//74
f 66//66 67//67 75//75
f 67//67 76//76 75//75
f 67//67 68//68 76//76
f 68//68 77//77 76//76
f 68//68 69//69 77//77
f 69//69 78//78 77//77
f 69//69 70//70 78//78
f 70//70 79//79 78//78
f 70//70 71//71 79//79
f 71//71 80//80 79//79
f 71//71 72//72 80//80
f 72//72 73//73 80//80
f 72//72 65//65 73//73
f 73//73 82//82 81//81
f 73//73 74//74 82//82
f 74//74 83//83 82//82
f 74//74 75//75 83//83
f 75//75 84//84 83//83
f 75//75 76//76 84//84
f 76//76 85//85 84//84
f 76//76 77//77 85//85
f 77//77 86//86 85//85
f 77//77 78//78 86//86
f 78//78 87//87 86//86
f 78//78 79//79 87//87
f 79//79 88//88 87//87
f 79//79 80//80 88//88
f 80//80 81//81 88//88
f 80//80 73//73 81//81
f 81//81 82//82 89//89
f 82//82 83//83 89//89
f 83//83 84//84 89//89
f 84//84 85//85 89//89
f 85//85 86//86 89//89
f 86//86 87//87 89//89
f 87//87 88//88 89//89
f 88//88 81//81 89//89
# 168 faces, 0 coords texture

# End of File
