####
#
# OBJ File Generated by Meshlab
#
####
# Object m1604.obj
#
# Vertices: 214
# Faces: 419
#
####
vn -4.862931 -0.086336 0.000002
v 0.025000 0.118309 0.219540
vn -2.334443 -1.138989 0.000006
v 0.034997 0.028332 0.219540
vn -5.853716 0.183882 0.000009
v 0.051661 0.059992 0.219540
vn -2.348219 1.461340 0.000002
v 0.063325 0.304096 0.219540
vn -5.950122 0.174499 0.000003
v 0.080820 0.254107 0.219540
vn -3.438596 -0.086332 -3.438593
v 0.081979 0.118309 0.081979
vn -3.438612 -0.086320 3.438611
v 0.081979 0.118309 0.357100
vn -1.650722 -1.139035 -1.650730
v 0.089049 0.028332 0.089049
vn -1.650731 -1.139041 1.650726
v 0.089049 0.028332 0.350031
vn -4.139206 0.183819 -4.139218
v 0.100831 0.059992 0.100831
vn -4.139207 0.183836 4.139228
v 0.100831 0.059992 0.338249
vn -1.660430 1.461319 -1.660432
v 0.109079 0.304096 0.109079
vn -1.660422 1.461312 1.660433
v 0.109079 0.304096 0.330001
vn -4.207367 0.174492 -4.207368
v 0.121450 0.254107 0.121450
vn -4.207347 0.174486 4.207384
v 0.121450 0.254107 0.317630
vn -0.098399 -6.282286 0.000000
v 0.124142 0.027500 0.219540
vn 0.337818 6.265359 -0.000001
v 0.124975 0.299095 0.219540
vn -6.121952 0.382864 0.036004
v 0.126245 0.442290 0.258509
vn -6.080854 -0.107525 -0.358842
v 0.127482 0.721457 0.244321
vn -5.385369 -0.271288 1.349021
v 0.127702 0.730807 0.307998
vn -6.082144 -0.261683 0.838499
v 0.129007 0.776243 0.288117
vn -5.703422 1.626972 -0.495630
v 0.130929 0.843872 0.253607
vn -6.197519 0.403501 0.481541
v 0.131140 0.751058 0.283806
vn -5.691527 -1.988898 0.014667
v 0.131842 0.697233 0.237766
vn -6.179492 -0.066028 -0.872638
v 0.131953 0.762485 0.221538
vn -5.061655 0.672286 2.433186
v 0.132689 0.426122 0.324207
vn -6.188691 0.148190 -0.983116
v 0.132760 0.739713 0.221676
vn -5.035895 -2.314047 0.124751
v 0.134452 0.323842 0.285038
vn -4.358521 -3.343070 1.440703
v 0.134944 0.703958 0.295346
vn -5.649613 -1.541259 -1.371593
v 0.135317 0.359591 0.216679
vn -6.024334 0.127293 -1.492563
v 0.137112 0.459746 0.188129
vn -4.305460 2.272296 1.556507
v 0.138620 0.867863 0.314217
vn -5.739920 1.092600 -1.739845
v 0.139846 0.818839 0.187332
vn -5.986409 0.031249 -1.711717
v 0.140522 0.712112 0.180428
vn -6.006785 -0.504863 -1.477366
v 0.141678 0.690025 0.178755
vn -4.138508 -0.343030 3.499744
v 0.143885 0.788307 0.343506
vn -5.024422 0.741523 3.149697
v 0.145971 0.760797 0.334119
vn -5.756110 -0.036114 -2.375236
v 0.147068 0.728998 0.162063
vn -2.770815 0.167197 3.046781
v 0.147204 0.738666 0.359784
vn -5.722925 -0.029778 -2.442899
v 0.148209 0.749804 0.159330
vn -6.194490 -0.635479 -0.101280
v 0.150295 0.646652 0.178467
vn -5.428426 -0.964718 -2.624160
v 0.151828 0.393522 0.151948
vn -0.069578 -6.282286 -0.069578
v 0.152083 0.027500 0.152083
vn -0.069578 -6.282286 0.069579
v 0.152083 0.027500 0.286996
vn 0.238875 6.265359 0.238876
v 0.152672 0.299095 0.152672
vn 0.238874 6.265359 -0.238873
v 0.152672 0.299095 0.286407
vn -5.807861 0.025810 -2.154631
v 0.155535 0.634758 0.139387
vn -5.276214 -1.797626 1.793750
v 0.155549 0.658647 0.217792
vn -2.458141 -4.050581 2.901904
v 0.158247 0.709003 0.343200
vn -2.288280 -2.563123 2.087053
v 0.159347 0.294443 0.341636
vn -4.981701 -0.120536 -3.551959
v 0.160310 0.473797 0.131567
vn -5.056388 0.523751 -3.313139
v 0.160794 0.798383 0.132669
vn -4.743372 0.402757 -3.719704
v 0.161185 0.683937 0.130980
vn -4.488155 -0.079807 -4.006822
v 0.164730 0.704210 0.127542
vn -5.433744 2.498180 -1.491674
v 0.166473 0.882205 0.175311
vn -4.042221 4.271454 -0.148708
v 0.168406 0.899090 0.220820
vn -4.997564 -3.261759 -1.320468
v 0.169948 0.307581 0.190268
vn -2.909589 -2.483052 3.545375
v 0.172963 0.668629 0.249924
vn -3.684941 0.257357 -4.492516
v 0.173725 0.624753 0.106922
vn -3.206370 -0.960244 -4.454251
v 0.176001 0.719952 0.113028
vn -5.487896 -1.583391 -2.407111
v 0.176021 0.333995 0.139868
vn -1.951893 0.403911 4.649496
v 0.176361 0.413674 0.376511
vn -5.402749 1.267317 -2.697764
v 0.177479 0.864493 0.128543
vn -4.037315 0.005956 -4.459194
v 0.177634 0.415074 0.110878
vn -3.289308 -0.111136 -4.878734
v 0.180091 0.739465 0.110085
vn -1.721341 2.570504 2.789774
v 0.184009 0.890702 0.362134
vn -2.489559 -5.272271 -0.243469
v 0.184220 0.285652 0.232627
vn -4.883906 -0.486585 -3.703136
v 0.191042 0.352364 0.104743
vn -4.400584 0.336343 -4.206375
v 0.192988 0.853981 0.101673
vn -2.057129 -0.437111 -5.404670
v 0.196287 0.785335 0.098966
vn -2.169400 -0.207269 -5.501689
v 0.197146 0.481847 0.099040
vn -0.910065 5.873767 0.926706
v 0.199882 0.910156 0.252492
vn -3.524111 0.141003 -5.026114
v 0.202383 0.358306 0.093222
vn -4.313853 2.053328 -0.545461
v 0.205008 0.955554 0.116722
vn -1.244511 0.282069 5.579019
v 0.207215 0.769787 0.369965
vn -0.896234 -0.616509 4.971495
v 0.207848 0.799756 0.385641
vn -2.397742 -0.265175 -5.564901
v 0.208412 0.849289 0.090554
vn -1.129477 0.420882 -5.817205
v 0.209184 0.423694 0.094523
vn -5.319502 0.205564 -2.529074
v 0.211053 0.930552 0.091657
vn -1.168272 0.582703 -5.959767
v 0.215050 0.361048 0.087772
vn -4.678789 -0.516599 -3.721387
v 0.215256 0.924396 0.085454
vn -0.233790 0.206504 4.104352
v 0.215758 0.744205 0.390643
vn -0.175781 0.635506 -5.435141
v 0.217225 0.678422 0.094333
vn -0.284935 -2.390912 4.147725
v 0.217811 0.675100 0.268982
vn -3.762122 -0.656019 -4.752849
v 0.218055 0.921968 0.083085
vn 0.000007 -0.086339 -4.862930
v 0.219540 0.118309 0.025000
vn -0.000005 -1.138990 -2.334444
v 0.219540 0.028332 0.034997
vn -0.000005 0.183885 -5.853716
v 0.219540 0.059992 0.051661
vn -0.000002 1.461340 -2.348219
v 0.219540 0.304096 0.063325
vn -0.000000 0.174501 -5.950122
v 0.219540 0.254107 0.080820
vn 0.000000 -6.282286 -0.098399
v 0.219540 0.027500 0.124142
vn -0.000000 6.265359 0.337819
v 0.219540 0.299095 0.124975
vn 0.000001 -6.278387 0.000001
v 0.219540 0.025000 0.219540
vn -0.000000 6.282645 -0.000000
v 0.219540 0.298264 0.219540
vn 0.000002 6.265359 -0.337823
v 0.219540 0.299095 0.314105
vn 0.000000 -6.282286 0.098400
v 0.219540 0.027500 0.314937
vn 0.000009 0.174489 5.950131
v 0.219540 0.254107 0.358259
vn 0.000001 1.461348 2.348226
v 0.219540 0.304096 0.375754
vn 0.000005 0.183882 5.853733
v 0.219540 0.059992 0.387419
vn 0.000005 -1.139018 2.334467
v 0.219540 0.028332 0.404082
vn 0.000005 -0.086313 4.862952
v 0.219540 0.118309 0.414079
vn -2.368016 -0.742688 -5.625605
v 0.220998 0.920428 0.081602
vn 0.043097 0.143986 -5.330833
v 0.221104 0.698730 0.095322
vn -0.075224 2.349419 0.413295
v 0.221998 0.975000 0.129299
vn 0.432846 0.165331 -5.728790
v 0.222321 0.619248 0.090355
vn 1.938746 -0.501874 0.947540
v 0.223616 0.946457 0.079529
vn 0.662864 0.571293 0.327293
v 0.223915 0.274937 0.078210
vn -0.286145 -1.230020 -5.970690
v 0.223976 0.919790 0.080984
vn 0.073504 -4.152090 3.698156
v 0.223989 0.710216 0.368089
vn -0.148966 0.098546 0.083430
v 0.224055 0.946255 0.079160
vn 0.205810 0.065816 -0.020539
v 0.224098 0.274774 0.078167
vn 0.195670 0.511828 0.061017
v 0.224274 0.274686 0.078125
vn -0.001524 -0.051316 -0.003672
v 0.224438 0.274657 0.078087
vn -0.999272 2.282358 -2.423073
v 0.224468 0.946061 0.078869
vn 0.006799 -0.167425 -0.013477
v 0.224586 0.274675 0.078055
vn 0.045527 -0.281352 -0.046758
v 0.224712 0.274723 0.078030
vn -1.632344 5.243460 -2.209713
v 0.224766 0.274870 0.078122
vn 0.157730 -1.210260 -0.738725
v 0.224812 0.274787 0.078012
vn -0.470234 2.520301 -2.797002
v 0.224851 0.945889 0.078649
vn -2.762005 4.074537 -1.999491
v 0.224863 0.274933 0.078069
vn 1.243915 -0.928050 -1.274912
v 0.224882 0.274855 0.078006
vn -1.364447 1.362881 -1.340099
v 0.224912 0.274942 0.078032
vn -0.163630 0.079598 -0.899583
v 0.224917 0.274911 0.078012
vn 0.804428 -1.003465 -5.820941
v 0.225015 0.847771 0.088056
vn -0.181146 2.580433 -3.237747
v 0.225197 0.945733 0.078492
vn 0.180298 2.500423 -3.309253
v 0.225502 0.945601 0.078391
vn 0.444901 2.435436 -3.538606
v 0.225761 0.945493 0.078339
vn 1.059073 2.317710 -3.707767
v 0.225967 0.945407 0.078330
vn 1.911593 2.202100 -3.592748
v 0.226116 0.945352 0.078356
vn 3.150604 3.820257 1.277807
v 0.226165 0.945390 0.078572
vn 3.385320 2.040643 -2.699700
v 0.226202 0.945329 0.078409
vn 4.105812 2.871086 -0.419169
v 0.226220 0.945344 0.078483
vn 1.537604 -1.133511 -5.803696
v 0.226882 0.920100 0.081205
vn 0.794054 -0.253483 -5.248092
v 0.227245 0.716169 0.095110
vn 1.664229 0.611464 -5.861721
v 0.228096 0.360645 0.088374
vn 3.108270 -0.516783 -5.350266
v 0.229608 0.921377 0.082245
vn 1.025807 0.107159 -5.525368
v 0.230044 0.736148 0.096470
vn 4.410988 -0.024553 -4.414218
v 0.232046 0.923650 0.084083
vn 5.238585 0.783601 -3.142972
v 0.234087 0.926949 0.086696
vn 4.379218 2.869759 -1.249969
v 0.237550 0.953958 0.107812
vn 1.897110 -0.378182 -5.482464
v 0.237642 0.784972 0.097884
vn 2.180676 -0.075369 -5.541066
v 0.238797 0.481793 0.099404
vn 0.651466 -2.452342 2.492489
v 0.240543 0.284241 0.362384
vn 3.955213 0.253400 -4.734259
v 0.240574 0.357154 0.095012
vn 3.287500 -0.616579 -5.037375
v 0.241048 0.849468 0.094026
vn 2.914523 0.255484 -5.306021
v 0.242290 0.420633 0.100562
vn 1.825453 -5.573611 -0.056700
v 0.243313 0.282489 0.240488
vn 5.158000 -0.496588 -3.385912
v 0.251537 0.350630 0.107664
vn 5.066611 0.366117 -3.466540
v 0.254763 0.854400 0.108310
vn 2.818027 5.249563 0.903550
v 0.255531 0.903012 0.236945
vn 1.944682 0.323454 4.646984
v 0.260100 0.414330 0.377296
vn 1.577343 2.822489 2.397104
v 0.263303 0.896391 0.358695
vn 2.467501 -2.438620 3.553335
v 0.263964 0.671353 0.255178
vn 5.615967 -1.750584 -2.031174
v 0.267193 0.328835 0.150460
vn 4.117912 0.266640 -4.161091
v 0.268845 0.626261 0.113577
vn 5.688942 1.691587 -1.862388
v 0.269613 0.868937 0.147889
vn 4.652774 -3.735418 -0.719215
v 0.269700 0.303374 0.200433
vn 5.091486 -0.327482 -3.429971
v 0.271571 0.405908 0.129028
vn 5.300250 3.151408 -0.599760
v 0.272501 0.886982 0.195678
vn 4.991432 0.195204 -3.497509
v 0.274543 0.798940 0.129807
vn 4.583706 -0.064590 -3.862690
v 0.275416 0.723057 0.130062
vn 4.625768 0.412368 -3.867935
v 0.275429 0.681331 0.130260
vn 5.040775 -0.138968 -3.508492
v 0.276007 0.473797 0.132608
vn 4.799615 -0.042199 -3.740132
v 0.276668 0.704152 0.133363
vn 4.964240 0.073029 -3.591957
v 0.276956 0.744508 0.133941
vn 3.851320 -0.130848 4.265498
v 0.278225 0.768493 0.350612
vn 2.916146 -0.627985 3.860581
v 0.283561 0.798897 0.369060
vn 5.035953 -1.875284 1.863923
v 0.283634 0.661517 0.223733
vn 5.907388 -0.001517 -1.951995
v 0.283850 0.636438 0.145506
vn -0.238870 6.265360 0.238875
v 0.286407 0.299095 0.152672
vn -0.238873 6.265360 -0.238868
v 0.286407 0.299095 0.286407
vn 0.069579 -6.282286 -0.069579
v 0.286996 0.027500 0.152083
vn 0.069579 -6.282286 0.069579
v 0.286996 0.027500 0.286996
vn 2.990188 0.182096 3.461156
v 0.287109 0.740982 0.364122
vn 2.630271 -3.478064 2.728620
v 0.287555 0.705522 0.341886
vn 6.171045 -0.644020 -0.198456
v 0.288942 0.649194 0.185226
vn 5.738848 -1.014366 -1.917390
v 0.295048 0.376719 0.185377
vn 5.942541 -0.495000 -1.656581
v 0.296268 0.686324 0.177641
vn 5.941062 0.016187 -1.944483
v 0.296832 0.733567 0.179599
vn 5.724197 1.007233 -1.893219
v 0.296856 0.822683 0.182421
vn 3.733673 -2.379170 1.293779
v 0.297612 0.308611 0.316398
vn 5.988222 0.008609 -1.737722
v 0.298932 0.712365 0.184834
vn 5.986802 -0.071061 -1.705905
v 0.299843 0.757197 0.187362
vn 5.989055 -0.031760 -1.667966
v 0.300027 0.460150 0.189519
vn 3.909825 2.683660 0.885161
v 0.302807 0.878275 0.308672
vn 5.982157 -0.183442 1.298660
v 0.305462 0.759128 0.300901
vn 5.409990 -1.946945 -0.666069
v 0.305772 0.340799 0.254596
vn 5.043525 0.399210 2.481940
v 0.305811 0.427434 0.325104
vn 4.204516 -3.037379 1.224356
v 0.307158 0.699551 0.294553
vn 5.416965 1.971408 -0.775021
v 0.307868 0.851903 0.247597
vn 5.551268 -1.974840 -0.123667
v 0.308014 0.692846 0.236638
vn 6.221545 -0.059756 -0.619331
v 0.308179 0.746714 0.241265
vn 5.523605 0.172779 1.517193
v 0.310674 0.732879 0.311816
vn 5.315067 -0.675323 1.799435
v 0.311249 0.787849 0.317178
vn 6.144639 0.061932 -0.399873
v 0.311718 0.722763 0.249006
vn 6.151136 0.185203 -0.080511
v 0.311827 0.443235 0.259908
vn 6.115372 -0.376509 -0.272130
v 0.312835 0.773004 0.253609
vn -0.337824 6.265359 -0.000004
v 0.314105 0.299095 0.219540
vn 0.098400 -6.282286 0.000000
v 0.314937 0.027500 0.219540
vn 4.207391 0.174478 -4.207340
v 0.317630 0.254107 0.121450
vn 4.207357 0.174472 4.207370
v 0.317630 0.254107 0.317630
vn 1.660436 1.461314 -1.660420
v 0.330001 0.304096 0.109079
vn 1.660424 1.461307 1.660426
v 0.330001 0.304096 0.330001
vn 4.139235 0.183840 -4.139200
v 0.338249 0.059992 0.100831
vn 4.139222 0.183856 4.139224
v 0.338249 0.059992 0.338249
vn 1.650734 -1.139042 -1.650725
v 0.350031 0.028332 0.089049
vn 1.650729 -1.139048 1.650735
v 0.350031 0.028332 0.350031
vn 3.438608 -0.086317 -3.438611
v 0.357100 0.118309 0.081979
vn 3.438626 -0.086305 3.438627
v 0.357100 0.118309 0.357100
vn 5.950131 0.174491 -0.000007
v 0.358259 0.254107 0.219540
vn 2.348226 1.461348 -0.000001
v 0.375754 0.304096 0.219540
vn 5.853733 0.183885 -0.000001
v 0.387419 0.059992 0.219540
vn 2.334468 -1.139018 -0.000004
v 0.404082 0.028332 0.219540
vn 4.862951 -0.086316 0.000004
v 0.414079 0.118309 0.219540
# 214 vertices, 0 vertices normals

f 1//1 7//7 5//5
f 1//1 5//5 14//14
f 1//1 14//14 6//6
f 1//1 6//6 3//3
f 1//1 3//3 11//11
f 1//1 11//11 7//7
f 2//2 9//9 3//3
f 2//2 3//3 10//10
f 2//2 10//10 8//8
f 2//2 8//8 16//16
f 2//2 16//16 44//44
f 2//2 44//44 9//9
f 3//3 6//6 10//10
f 3//3 9//9 11//11
f 4//4 5//5 15//15
f 4//4 15//15 13//13
f 4//4 13//13 17//17
f 4//4 17//17 45//45
f 4//4 45//45 12//12
f 4//4 12//12 5//5
f 5//5 12//12 14//14
f 5//5 7//7 15//15
f 6//6 14//14 90//90
f 6//6 90//90 86//86
f 6//6 86//86 10//10
f 7//7 101//101 15//15
f 7//7 11//11 99//99
f 7//7 99//99 101//101
f 8//8 10//10 88//88
f 8//8 88//88 87//87
f 8//8 87//87 43//43
f 8//8 43//43 16//16
f 9//9 100//100 11//11
f 9//9 44//44 96//96
f 9//9 96//96 100//100
f 10//10 86//86 88//88
f 11//11 100//100 99//99
f 12//12 45//45 92//92
f 12//12 92//92 89//89
f 12//12 89//89 14//14
f 13//13 15//15 97//97
f 13//13 97//97 98//98
f 13//13 98//98 46//46
f 13//13 46//46 17//17
f 14//14 89//89 90//90
f 15//15 101//101 97//97
f 16//16 43//43 93//93
f 16//16 93//93 44//44
f 17//17 46//46 94//94
f 17//17 94//94 45//45
f 18//18 58//58 48//48
f 18//18 48//48 31//31
f 18//18 31//31 30//30
f 18//18 30//30 28//28
f 18//18 28//28 26//26
f 18//18 26//26 58//58
f 19//19 27//27 34//34
f 19//19 34//34 24//24
f 19//19 24//24 29//29
f 19//19 29//29 20//20
f 19//19 20//20 23//23
f 19//19 23//23 27//27
f 20//20 39//39 37//37
f 20//20 37//37 23//23
f 20//20 29//29 49//49
f 20//20 49//49 39//39
f 21//21 22//22 25//25
f 21//21 25//25 27//27
f 21//21 27//27 23//23
f 21//21 23//23 37//37
f 21//21 37//37 36//36
f 21//21 36//36 32//32
f 21//21 32//32 22//22
f 22//22 55//55 63//63
f 22//22 63//63 33//33
f 22//22 33//33 25//25
f 22//22 32//32 55//55
f 24//24 34//34 35//35
f 24//24 35//35 41//41
f 24//24 41//41 48//48
f 24//24 48//48 29//29
f 25//25 33//33 40//40
f 25//25 40//40 38//38
f 25//25 38//38 27//27
f 26//26 84//84 58//58
f 26//26 28//28 50//50
f 26//26 50//50 62//62
f 26//26 62//62 84//84
f 27//27 38//38 34//34
f 28//28 30//30 61//61
f 28//28 61//61 57//57
f 28//28 57//57 50//50
f 29//29 48//48 58//58
f 29//29 58//58 49//49
f 30//30 31//31 42//42
f 30//30 42//42 68//68
f 30//30 68//68 61//61
f 31//31 41//41 47//47
f 31//31 47//47 51//51
f 31//31 51//51 42//42
f 31//31 48//48 41//41
f 32//32 56//56 55//55
f 32//32 36//36 76//76
f 32//32 76//76 66//66
f 32//32 66//66 56//56
f 33//33 63//63 69//69
f 33//33 69//69 52//52
f 33//33 52//52 40//40
f 34//34 38//38 54//54
f 34//34 54//54 53//53
f 34//34 53//53 35//35
f 35//35 53//53 47//47
f 35//35 47//47 41//41
f 36//36 37//37 75//75
f 36//36 75//75 76//76
f 37//37 39//39 82//82
f 37//37 82//82 75//75
f 38//38 40//40 60//60
f 38//38 60//60 54//54
f 39//39 49//49 109//109
f 39//39 109//109 82//82
f 40//40 52//52 65//65
f 40//40 65//65 60//60
f 42//42 51//51 64//64
f 42//42 64//64 73//73
f 42//42 73//73 68//68
f 43//43 87//87 91//91
f 43//43 91//91 93//93
f 44//44 93//93 96//96
f 45//45 94//94 92//92
f 46//46 95//95 94//94
f 46//46 98//98 95//95
f 47//47 53//53 59//59
f 47//47 59//59 51//51
f 49//49 58//58 84//84
f 49//49 84//84 109//109
f 50//50 143//143 151//151
f 50//50 151//151 62//62
f 50//50 57//57 67//67
f 50//50 67//67 143//143
f 51//51 59//59 71//71
f 51//51 71//71 78//78
f 51//51 78//78 64//64
f 52//52 69//69 77//77
f 52//52 77//77 70//70
f 52//52 70//70 65//65
f 53//53 54//54 103//103
f 53//53 103//103 83//83
f 53//53 83//83 59//59
f 54//54 60//60 134//134
f 54//54 134//134 103//103
f 55//55 81//81 85//85
f 55//55 85//85 63//63
f 55//55 56//56 81//81
f 56//56 79//79 81//81
f 56//56 66//66 72//72
f 56//56 72//72 79//79
f 57//57 61//61 118//118
f 57//57 118//118 121//121
f 57//57 121//121 123//123
f 57//57 123//123 67//67
f 59//59 83//83 105//105
f 59//59 105//105 71//71
f 60//60 65//65 137//137
f 60//60 137//137 134//134
f 61//61 68//68 118//118
f 62//62 151//151 84//84
f 63//63 85//85 102//102
f 63//63 102//102 69//69
f 64//64 78//78 80//80
f 64//64 80//80 73//73
f 65//65 70//70 141//141
f 65//65 141//141 137//137
f 66//66 76//76 152//152
f 66//66 152//152 72//72
f 67//67 122//122 147//147
f 67//67 147//147 143//143
f 68//68 73//73 116//116
f 68//68 116//116 118//118
f 69//69 108//108 133//133
f 69//69 133//133 77//77
f 69//69 102//102 108//108
f 70//70 77//77 124//124
f 70//70 124//124 145//145
f 70//70 145//145 141//141
f 71//71 105//105 142//142
f 71//71 142//142 78//78
f 72//72 74//74 79//79
f 72//72 152//152 185//185
f 72//72 185//185 150//150
f 72//72 150//150 74//74
f 73//73 80//80 115//115
f 73//73 115//115 116//116
f 74//74 110//110 114//114
f 74//74 114//114 79//79
f 74//74 150//150 104//104
f 74//74 104//104 110//110
f 75//75 166//166 167//167
f 75//75 167//167 76//76
f 75//75 82//82 166//166
f 76//76 167//167 152//152
f 77//77 133//133 136//136
f 77//77 136//136 124//124
f 78//78 142//142 146//146
f 78//78 146//146 135//135
f 78//78 135//135 80//80
f 79//79 114//114 119//119
f 79//79 119//119 81//81
f 80//80 135//135 112//112
f 80//80 112//112 113//113
f 80//80 113//113 115//115
f 81//81 119//119 125//125
f 81//81 125//125 85//85
f 82//82 174//174 166//166
f 82//82 109//109 174//174
f 83//83 103//103 162//162
f 83//83 162//162 155//155
f 83//83 155//155 105//105
f 84//84 153//153 175//175
f 84//84 175//175 109//109
f 84//84 151//151 153//153
f 85//85 125//125 126//126
f 85//85 126//126 127//127
f 85//85 127//127 102//102
f 86//86 90//90 200//200
f 86//86 200//200 208//208
f 86//86 208//208 88//88
f 87//87 88//88 204//204
f 87//87 204//204 206//206
f 87//87 206//206 91//91
f 88//88 208//208 204//204
f 89//89 92//92 170//170
f 89//89 170//170 202//202
f 89//89 202//202 90//90
f 90//90 202//202 200//200
f 91//91 206//206 172//172
f 91//91 172//172 93//93
f 92//92 94//94 170//170
f 93//93 199//199 173//173
f 93//93 173//173 96//96
f 93//93 172//172 199//199
f 94//94 171//171 198//198
f 94//94 198//198 170//170
f 94//94 95//95 171//171
f 95//95 98//98 203//203
f 95//95 203//203 171//171
f 96//96 173//173 100//100
f 97//97 201//201 98//98
f 97//97 101//101 209//209
f 97//97 209//209 201//201
f 98//98 201//201 203//203
f 99//99 205//205 101//101
f 99//99 100//100 207//207
f 99//99 207//207 205//205
f 100//100 173//173 207//207
f 101//101 205//205 209//209
f 102//102 127//127 128//128
f 102//102 128//128 108//108
f 103//103 134//134 161//161
f 103//103 161//161 164//164
f 103//103 164//164 162//162
f 104//104 106//106 110//110
f 104//104 150//150 159//159
f 104//104 159//159 156//156
f 104//104 156//156 140//140
f 104//104 140//140 106//106
f 105//105 155//155 142//142
f 106//106 130//130 127//127
f 106//106 127//127 110//110
f 106//106 140//140 139//139
f 106//106 139//139 130//130
f 107//107 148//148 154//154
f 107//107 154//154 117//117
f 107//107 117//117 111//111
f 107//107 111//111 144//144
f 107//107 144//144 148//148
f 108//108 128//128 133//133
f 109//109 175//175 174//174
f 110//110 127//127 114//114
f 111//111 135//135 144//144
f 111//111 117//117 112//112
f 111//111 112//112 135//135
f 112//112 117//117 123//123
f 112//112 123//123 121//121
f 112//112 121//121 118//118
f 112//112 118//118 116//116
f 112//112 116//116 115//115
f 112//112 115//115 113//113
f 114//114 127//127 119//119
f 117//117 154//154 157//157
f 117//117 157//157 120//120
f 117//117 120//120 123//123
f 119//119 127//127 125//125
f 120//120 157//157 147//147
f 120//120 147//147 122//122
f 120//120 122//122 123//123
f 124//124 136//136 145//145
f 125//125 127//127 126//126
f 127//127 129//129 128//128
f 127//127 130//130 132//132
f 127//127 132//132 131//131
f 127//127 131//131 129//129
f 128//128 129//129 133//133
f 129//129 131//131 136//136
f 129//129 136//136 133//133
f 130//130 139//139 138//138
f 130//130 138//138 132//132
f 131//131 132//132 136//136
f 132//132 138//138 136//136
f 134//134 137//137 161//161
f 135//135 146//146 144//144
f 136//136 138//138 145//145
f 137//137 141//141 165//165
f 137//137 165//165 161//161
f 138//138 139//139 145//145
f 139//139 140//140 149//149
f 139//139 149//149 145//145
f 140//140 156//156 149//149
f 141//141 145//145 149//149
f 141//141 149//149 160//160
f 141//141 160//160 165//165
f 142//142 155//155 163//163
f 142//142 163//163 146//146
f 143//143 188//188 151//151
f 143//143 147//147 181//181
f 143//143 181//181 188//188
f 144//144 146//146 148//148
f 146//146 163//163 158//158
f 146//146 158//158 148//148
f 147//147 187//187 181//181
f 147//147 157//157 187//187
f 148//148 158//158 154//154
f 149//149 156//156 160//160
f 150//150 185//185 190//190
f 150//150 190//190 159//159
f 151//151 188//188 153//153
f 152//152 167//167 194//194
f 152//152 194//194 185//185
f 153//153 168//168 189//189
f 153//153 189//189 175//175
f 153//153 188//188 168//168
f 154//154 158//158 177//177
f 154//154 177//177 157//157
f 155//155 162//162 169//169
f 155//155 169//169 163//163
f 156//156 159//159 180//180
f 156//156 180//180 160//160
f 157//157 177//177 187//187
f 158//158 163//163 177//177
f 159//159 190//190 180//180
f 160//160 180//180 165//165
f 161//161 165//165 179//179
f 161//161 179//179 164//164
f 162//162 164//164 178//178
f 162//162 178//178 169//169
f 163//163 169//169 184//184
f 163//163 184//184 177//177
f 164//164 179//179 182//182
f 164//164 182//182 178//178
f 165//165 180//180 183//183
f 165//165 183//183 179//179
f 166//166 186//186 194//194
f 166//166 194//194 167//167
f 166//166 174//174 193//193
f 166//166 193//193 186//186
f 168//168 176//176 191//191
f 168//168 191//191 189//189
f 168//168 188//188 196//196
f 168//168 196//196 176//176
f 169//169 178//178 176//176
f 169//169 176//176 184//184
f 170//170 198//198 202//202
f 171//171 203//203 211//211
f 171//171 211//211 198//198
f 172//172 213//213 199//199
f 172//172 206//206 213//213
f 173//173 199//199 207//207
f 174//174 175//175 193//193
f 175//175 189//189 193//193
f 176//176 178//178 191//191
f 176//176 196//196 184//184
f 177//177 184//184 187//187
f 178//178 182//182 191//191
f 179//179 183//183 192//192
f 179//179 192//192 182//182
f 180//180 190//190 183//183
f 181//181 187//187 196//196
f 181//181 196//196 188//188
f 182//182 192//192 195//195
f 182//182 195//195 191//191
f 183//183 190//190 197//197
f 183//183 197//197 192//192
f 184//184 196//196 187//187
f 185//185 194//194 197//197
f 185//185 197//197 190//190
f 186//186 192//192 197//197
f 186//186 197//197 194//194
f 186//186 193//193 195//195
f 186//186 195//195 192//192
f 189//189 195//195 193//193
f 189//189 191//191 195//195
f 198//198 211//211 202//202
f 199//199 213//213 207//207
f 200//200 202//202 211//211
f 200//200 211//211 210//210
f 200//200 210//210 208//208
f 201//201 210//210 203//203
f 201//201 209//209 214//214
f 201//201 214//214 210//210
f 203//203 210//210 211//211
f 204//204 208//208 214//214
f 204//204 214//214 212//212
f 204//204 212//212 206//206
f 205//205 212//212 209//209
f 205//205 207//207 213//213
f 205//205 213//213 212//212
f 206//206 212//212 213//213
f 208//208 210//210 214//214
f 209//209 212//212 214//214
# 419 faces, 0 coords texture

# End of File
