####
#
# OBJ File Generated by Meshlab
#
####
# Object m471.obj
#
# Vertices: 118
# Faces: 248
#
####
vn -0.006921 0.488047 6.264192
v 0.123800 0.145333 0.232418
vn 0.000013 -2.899870 3.132279
v 0.120000 0.025000 0.241728
vn 0.040880 0.491932 6.263601
v 0.158000 0.113667 0.234888
vn 0.000000 -2.899960 3.132286
v 0.158000 0.025000 0.241728
vn 0.906478 -2.274315 2.787587
v 0.174213 0.025000 0.241728
vn -0.906484 -2.274310 2.787582
v 0.103786 0.025000 0.241728
vn -0.020386 0.490863 6.263604
v 0.120000 0.113667 0.234888
vn 0.007062 0.488642 6.264145
v 0.154200 0.145333 0.232418
vn -0.000000 0.492604 6.263838
v 0.139000 0.151667 0.231911
vn 2.328225 -1.111955 -0.000611
v 0.196000 0.880000 0.133363
vn 0.000003 1.580605 -0.000395
v 0.139000 0.975000 0.133363
vn 1.886544 -1.116600 1.373242
v 0.185043 0.880000 0.166868
vn 0.720304 -1.114747 2.217394
v 0.156543 0.880000 0.187578
vn -0.720313 -1.114738 2.217381
v 0.121456 0.880000 0.187578
vn -1.886551 -1.116594 1.373224
v 0.092956 0.880000 0.166868
vn -2.328234 -1.111962 -0.000611
v 0.082000 0.880000 0.133363
vn -1.887043 -1.117563 -1.374106
v 0.092956 0.880000 0.099923
vn -0.720640 -1.115759 -2.218153
v 0.121456 0.880000 0.079213
vn 0.720631 -1.115769 -2.218167
v 0.156543 0.880000 0.079213
vn 1.887037 -1.117569 -1.374124
v 0.185043 0.880000 0.099923
vn 2.986244 -3.773175 -0.000040
v 0.177000 0.880000 0.133363
vn 2.416537 -3.768200 1.758535
v 0.169716 0.880000 0.155658
vn 0.923409 -3.770004 2.841512
v 0.150716 0.880000 0.169465
vn -0.923409 -3.770004 2.841512
v 0.127283 0.880000 0.169465
vn -2.416557 -3.768240 1.758475
v 0.108283 0.880000 0.155658
vn -2.986284 -3.773094 -0.000040
v 0.101000 0.880000 0.133363
vn -2.416535 -3.768221 -1.758521
v 0.108283 0.880000 0.111070
vn -0.923400 -3.769997 -2.841518
v 0.127283 0.880000 0.097263
vn 0.923400 -3.769997 -2.841518
v 0.150716 0.880000 0.097263
vn 2.416516 -3.768180 -1.758581
v 0.169716 0.880000 0.111070
vn 2.930510 -2.272544 -0.000012
v 0.253000 0.025000 0.133363
vn 3.024860 -3.526291 -0.000829
v 0.196000 0.721667 0.133363
vn 2.371187 -2.274068 1.723470
v 0.231213 0.025000 0.200308
vn 2.447563 -3.520192 1.781815
v 0.185043 0.721667 0.166868
vn -0.935380 -3.522467 2.878402
v 0.121456 0.721667 0.187578
vn -2.447579 -3.520196 1.781791
v 0.092956 0.721667 0.166868
vn -2.371196 -2.274067 1.723457
v 0.046787 0.025000 0.200308
vn -3.024869 -3.526270 -0.000829
v 0.082000 0.721667 0.133363
vn -2.930516 -2.272555 -0.000012
v 0.025000 0.025000 0.133363
vn -2.371127 -2.273963 -1.723507
v 0.046787 0.025000 0.066420
vn -2.447291 -3.519437 -1.782623
v 0.092956 0.721667 0.099923
vn -0.905875 -2.273298 -2.787463
v 0.103786 0.025000 0.025000
vn -0.935356 -3.522283 -2.878432
v 0.121456 0.721667 0.079213
vn 0.935345 -3.522274 -2.878439
v 0.156543 0.721667 0.079213
vn 0.905869 -2.273303 -2.787468
v 0.174213 0.025000 0.025000
vn 2.447275 -3.519434 -1.782647
v 0.185043 0.721667 0.099923
vn 2.371118 -2.273963 -1.723519
v 0.231213 0.025000 0.066420
vn 0.935369 -3.522458 2.878409
v 0.156543 0.721667 0.187578
vn 5.972488 -2.510011 -0.000079
v 0.177000 0.861000 0.133363
vn 4.833074 -2.514985 3.517071
v 0.169716 0.861000 0.155658
vn 1.846817 -2.513181 5.683023
v 0.150716 0.861000 0.169465
vn -1.846817 -2.513181 5.683023
v 0.127283 0.861000 0.169465
vn -4.833114 -2.514945 3.516950
v 0.108283 0.861000 0.155658
vn -5.972567 -2.510092 -0.000079
v 0.101000 0.861000 0.133363
vn -4.833071 -2.514964 -3.517041
v 0.108283 0.861000 0.111070
vn -1.846800 -2.513188 -5.683036
v 0.127283 0.861000 0.097263
vn 1.846800 -2.513188 -5.683036
v 0.150716 0.861000 0.097263
vn 4.833031 -2.515005 -3.517163
v 0.169716 0.861000 0.111070
vn 5.972488 2.510011 -0.000079
v 0.177000 0.753334 0.133363
vn 4.833074 2.514985 3.517071
v 0.169716 0.753334 0.155658
vn 1.846817 2.513181 5.683023
v 0.150716 0.753334 0.169465
vn -1.846817 2.513181 5.683023
v 0.127283 0.753334 0.169465
vn -4.833114 2.514945 3.516950
v 0.108283 0.753334 0.155658
vn -5.972567 2.510092 -0.000079
v 0.101000 0.753334 0.133363
vn -4.833071 2.514964 -3.517041
v 0.108283 0.753334 0.111070
vn -1.846800 2.513188 -5.683036
v 0.127283 0.753334 0.097263
vn 1.846800 2.513188 -5.683036
v 0.150716 0.753334 0.097263
vn 4.833031 2.515005 -3.517163
v 0.169716 0.753334 0.111070
vn 2.986244 3.773175 -0.000040
v 0.177000 0.728001 0.133363
vn 2.416537 3.768200 1.758535
v 0.169716 0.728001 0.155658
vn 0.923409 3.770004 2.841512
v 0.150716 0.728001 0.169465
vn -0.923409 3.770004 2.841512
v 0.127283 0.728001 0.169465
vn -2.416557 3.768240 1.758475
v 0.108283 0.728001 0.155658
vn -2.986284 3.773094 -0.000040
v 0.101000 0.728001 0.133363
vn -2.416535 3.768221 -1.758521
v 0.108283 0.728001 0.111070
vn -0.923400 3.769997 -2.841518
v 0.127283 0.728001 0.097263
vn 0.923400 3.769997 -2.841518
v 0.150716 0.728001 0.097263
vn 2.416516 3.768180 -1.758581
v 0.169716 0.728001 0.111070
vn -2.986675 2.510894 0.000018
v 0.230200 0.728001 0.133363
vn -2.416497 2.514353 -1.758069
v 0.212720 0.728001 0.186945
vn -0.923157 2.513379 -2.841695
v 0.167120 0.728001 0.220068
vn 0.923157 2.513379 -2.841695
v 0.110880 0.728001 0.220068
vn 2.416497 2.514353 -1.758069
v 0.065280 0.728001 0.186945
vn 2.986675 2.510894 0.000018
v 0.047800 0.728001 0.133363
vn 2.416495 2.514368 1.758085
v 0.065280 0.728001 0.079783
vn 0.923161 2.513377 2.841692
v 0.110880 0.728001 0.046660
vn -0.923161 2.513377 2.841692
v 0.167120 0.728001 0.046660
vn -2.416495 2.514368 1.758085
v 0.212720 0.728001 0.079783
vn -2.986675 3.772291 0.000018
v 0.230200 0.753334 0.133363
vn -2.416497 3.768833 -1.758069
v 0.212720 0.753334 0.186945
vn -0.923157 3.769806 -2.841695
v 0.167120 0.753334 0.220068
vn 0.923157 3.769806 -2.841695
v 0.110880 0.753334 0.220068
vn 2.416497 3.768833 -1.758069
v 0.065280 0.753334 0.186945
vn 2.986675 3.772291 0.000018
v 0.047800 0.753334 0.133363
vn 2.416495 3.768818 1.758085
v 0.065280 0.753334 0.079783
vn 0.923161 3.769809 2.841692
v 0.110880 0.753334 0.046660
vn -0.923161 3.769809 2.841692
v 0.167120 0.753334 0.046660
vn -2.416495 3.768818 1.758085
v 0.212720 0.753334 0.079783
vn 2.986925 2.511409 -0.000520
v 0.234000 0.753334 0.133363
vn 2.416930 2.514105 1.757270
v 0.215823 0.753334 0.189162
vn 0.923382 2.513202 2.841531
v 0.168323 0.753334 0.223678
vn -0.923390 2.513196 2.841525
v 0.109676 0.753334 0.223678
vn -2.416941 2.514104 1.757255
v 0.062177 0.753334 0.189162
vn -2.986932 2.511422 -0.000520
v 0.044000 0.753334 0.133363
vn -2.417889 2.515332 -1.756962
v 0.062177 0.753334 0.077630
vn -0.924508 2.512316 -2.840712
v 0.109676 0.753334 0.043050
vn 0.924500 2.512322 -2.840718
v 0.168323 0.753334 0.043050
vn 2.417878 2.515333 -1.756977
v 0.215823 0.753334 0.077630
vn 2.986925 -2.511409 -0.000520
v 0.234000 0.721667 0.133363
vn 2.416930 -2.514105 1.757270
v 0.215823 0.721667 0.189162
vn 0.923382 -2.513202 2.841531
v 0.168323 0.721667 0.223678
vn -0.923390 -2.513196 2.841525
v 0.109676 0.721667 0.223678
vn -2.416941 -2.514104 1.757255
v 0.062177 0.721667 0.189162
vn -2.986932 -2.511422 -0.000520
v 0.044000 0.721667 0.133363
vn -2.417889 -2.515332 -1.756962
v 0.062177 0.721667 0.077630
vn -0.924508 -2.512316 -2.840712
v 0.109676 0.721667 0.043050
vn 0.924500 -2.512322 -2.840718
v 0.168323 0.721667 0.043050
vn 2.417878 -2.515333 -1.756977
v 0.215823 0.721667 0.077630
# 118 vertices, 0 vertices normals

f 1//1 2//2 3//3
f 4//4 5//5 3//3
f 6//6 2//2 7//7
f 6//6 7//7 1//1
f 5//5 8//8 3//3
f 2//2 1//1 7//7
f 8//8 9//9 1//1
f 2//2 4//4 3//3
f 3//3 8//8 1//1
f 10//10 11//11 12//12
f 12//12 11//11 13//13
f 13//13 11//11 14//14
f 14//14 11//11 15//15
f 15//15 11//11 16//16
f 16//16 11//11 17//17
f 17//17 11//11 18//18
f 18//18 11//11 19//19
f 19//19 11//11 20//20
f 20//20 11//11 10//10
f 21//21 10//10 12//12
f 22//22 12//12 23//23
f 23//23 13//13 24//24
f 24//24 14//14 15//15
f 25//25 15//15 26//26
f 26//26 16//16 17//17
f 27//27 17//17 28//28
f 28//28 18//18 19//19
f 29//29 19//19 20//20
f 30//30 20//20 21//21
f 12//12 22//22 21//21
f 12//12 13//13 23//23
f 13//13 14//14 24//24
f 15//15 25//25 24//24
f 15//15 16//16 26//26
f 17//17 27//27 26//26
f 17//17 18//18 28//28
f 19//19 29//29 28//28
f 20//20 30//30 29//29
f 20//20 10//10 21//21
f 31//31 32//32 33//33
f 33//33 34//34 5//5
f 6//6 35//35 36//36
f 37//37 36//36 38//38
f 39//39 38//38 40//40
f 40//40 41//41 42//42
f 42//42 43//43 44//44
f 45//45 44//44 46//46
f 47//47 46//46 32//32
f 48//48 8//8 5//5
f 6//6 1//1 35//35
f 35//35 1//1 9//9
f 48//48 9//9 8//8
f 35//35 9//9 48//48
f 32//32 34//34 33//33
f 34//34 48//48 5//5
f 36//36 37//37 6//6
f 38//38 39//39 37//37
f 38//38 41//41 40//40
f 41//41 43//43 42//42
f 44//44 45//45 42//42
f 46//46 47//47 45//45
f 32//32 31//31 47//47
f 47//47 31//31 37//37
f 45//45 47//47 37//37
f 37//37 39//39 45//45
f 40//40 45//45 39//39
f 40//40 42//42 45//45
f 33//33 37//37 31//31
f 5//5 37//37 33//33
f 37//37 5//5 4//4
f 37//37 4//4 2//2
f 6//6 37//37 2//2
f 49//49 21//21 50//50
f 50//50 22//22 23//23
f 51//51 23//23 24//24
f 52//52 24//24 25//25
f 53//53 25//25 54//54
f 54//54 26//26 55//55
f 55//55 27//27 28//28
f 56//56 28//28 29//29
f 57//57 29//29 30//30
f 58//58 30//30 49//49
f 59//59 49//49 50//50
f 60//60 50//50 51//51
f 61//61 51//51 52//52
f 62//62 52//52 53//53
f 63//63 53//53 54//54
f 64//64 54//54 55//55
f 65//65 55//55 56//56
f 66//66 56//56 57//57
f 67//67 57//57 58//58
f 68//68 58//58 49//49
f 54//54 56//56 57//57
f 52//52 54//54 49//49
f 54//54 52//52 53//53
f 21//21 22//22 50//50
f 23//23 51//51 50//50
f 24//24 52//52 51//51
f 25//25 53//53 52//52
f 25//25 26//26 54//54
f 26//26 27//27 55//55
f 28//28 56//56 55//55
f 29//29 57//57 56//56
f 30//30 58//58 57//57
f 30//30 21//21 49//49
f 50//50 60//60 59//59
f 51//51 61//61 60//60
f 52//52 62//62 61//61
f 53//53 63//63 62//62
f 54//54 64//64 63//63
f 55//55 65//65 64//64
f 56//56 66//66 65//65
f 57//57 67//67 66//66
f 58//58 68//68 67//67
f 49//49 59//59 68//68
f 57//57 58//58 54//54
f 54//54 55//55 56//56
f 50//50 51//51 52//52
f 54//54 58//58 49//49
f 49//49 50//50 52//52
f 69//69 59//59 60//60
f 70//70 60//60 61//61
f 71//71 61//61 72//72
f 72//72 62//62 63//63
f 73//73 63//63 64//64
f 74//74 64//64 65//65
f 75//75 65//65 66//66
f 76//76 66//66 77//77
f 77//77 67//67 68//68
f 78//78 68//68 59//59
f 79//79 69//69 80//80
f 80//80 70//70 71//71
f 81//81 71//71 72//72
f 82//82 72//72 83//83
f 83//83 73//73 74//74
f 84//84 74//74 85//85
f 85//85 75//75 76//76
f 86//86 76//76 77//77
f 87//87 77//77 88//88
f 88//88 78//78 69//69
f 89//89 79//79 90//90
f 90//90 80//80 91//91
f 91//91 81//81 92//92
f 92//92 82//82 93//93
f 93//93 83//83 94//94
f 94//94 84//84 95//95
f 95//95 85//85 96//96
f 96//96 86//86 97//97
f 97//97 87//87 98//98
f 98//98 88//88 89//89
f 99//99 89//89 100//100
f 100//100 90//90 101//101
f 101//101 91//91 102//102
f 102//102 92//92 93//93
f 103//103 93//93 94//94
f 104//104 94//94 105//105
f 105//105 95//95 106//106
f 106//106 96//96 107//107
f 107//107 97//97 98//98
f 108//108 98//98 89//89
f 109//109 99//99 110//110
f 110//110 100//100 111//111
f 111//111 101//101 102//102
f 112//112 102//102 113//113
f 113//113 103//103 114//114
f 114//114 104//104 105//105
f 115//115 105//105 106//106
f 116//116 106//106 107//107
f 117//117 107//107 108//108
f 118//118 108//108 99//99
f 32//32 109//109 110//110
f 34//34 110//110 111//111
f 48//48 111//111 35//35
f 35//35 112//112 36//36
f 36//36 113//113 38//38
f 38//38 114//114 115//115
f 41//41 115//115 116//116
f 43//43 116//116 117//117
f 44//44 117//117 46//46
f 46//46 118//118 32//32
f 65//65 68//68 67//67
f 59//59 64//64 62//62
f 64//64 59//59 68//68
f 60//60 70//70 69//69
f 61//61 71//71 70//70
f 61//61 62//62 72//72
f 63//63 73//73 72//72
f 64//64 74//74 73//73
f 65//65 75//75 74//74
f 66//66 76//76 75//75
f 66//66 67//67 77//77
f 68//68 78//78 77//77
f 59//59 69//69 78//78
f 69//69 70//70 80//80
f 71//71 81//81 80//80
f 72//72 82//82 81//81
f 72//72 73//73 83//83
f 74//74 84//84 83//83
f 74//74 75//75 85//85
f 76//76 86//86 85//85
f 77//77 87//87 86//86
f 77//77 78//78 88//88
f 69//69 79//79 88//88
f 79//79 80//80 90//90
f 80//80 81//81 91//91
f 81//81 82//82 92//92
f 82//82 83//83 93//93
f 83//83 84//84 94//94
f 84//84 85//85 95//95
f 85//85 86//86 96//96
f 86//86 87//87 97//97
f 87//87 88//88 98//98
f 88//88 79//79 89//89
f 89//89 90//90 100//100
f 90//90 91//91 101//101
f 91//91 92//92 102//102
f 93//93 103//103 102//102
f 94//94 104//104 103//103
f 94//94 95//95 105//105
f 95//95 96//96 106//106
f 96//96 97//97 107//107
f 98//98 108//108 107//107
f 89//89 99//99 108//108
f 99//99 100//100 110//110
f 100//100 101//101 111//111
f 102//102 112//112 111//111
f 102//102 103//103 113//113
f 103//103 104//104 114//114
f 105//105 115//115 114//114
f 106//106 116//116 115//115
f 107//107 117//117 116//116
f 108//108 118//118 117//117
f 99//99 109//109 118//118
f 110//110 34//34 32//32
f 111//111 48//48 34//34
f 111//111 112//112 35//35
f 112//112 113//113 36//36
f 113//113 114//114 38//38
f 115//115 41//41 38//38
f 116//116 43//43 41//41
f 117//117 44//44 43//43
f 117//117 118//118 46//46
f 118//118 109//109 32//32
f 67//67 66//66 65//65
f 65//65 64//64 68//68
f 61//61 60//60 59//59
f 64//64 63//63 62//62
f 62//62 61//61 59//59
# 248 faces, 0 coords texture

# End of File
