####
#
# OBJ File Generated by Meshlab
#
####
# Object m1337.obj
#
# Vertices: 201
# Faces: 340
#
####
vn -0.463939 0.651302 2.931274
v 0.485890 0.175197 0.284041
vn -1.347290 0.650290 2.644633
v 0.537768 0.175197 0.300897
vn -2.098883 0.649677 2.098889
v 0.581901 0.175197 0.332965
vn -2.644827 0.649528 1.347546
v 0.613962 0.175197 0.377096
vn -2.931674 0.649850 0.464118
v 0.630819 0.175197 0.428974
vn -2.931387 0.650609 -0.464644
v 0.630817 0.175197 0.483525
vn -2.643927 0.651731 -1.347671
v 0.613961 0.175197 0.535403
vn -2.097721 0.653120 -2.098495
v 0.581896 0.175197 0.579533
vn -1.346431 0.654617 -2.643557
v 0.537764 0.175197 0.611596
vn -0.463513 0.656083 -2.929733
v 0.485884 0.175197 0.628454
vn 0.464392 0.657385 -2.929233
v 0.431336 0.175197 0.628451
vn 1.346502 0.658394 -2.642142
v 0.379457 0.175197 0.611595
vn 2.096840 0.659000 -2.096652
v 0.335326 0.175197 0.579533
vn 2.642044 0.659155 -1.346168
v 0.303261 0.175197 0.535397
vn 2.928778 0.658833 -0.463995
v 0.286405 0.175197 0.483519
vn 2.929141 0.658081 0.463604
v 0.286407 0.175197 0.428973
vn 2.642803 0.656945 1.346121
v 0.303262 0.175197 0.377090
vn 2.097813 0.655564 2.097298
v 0.335328 0.175197 0.332960
vn 1.347356 0.654066 2.643285
v 0.379462 0.175197 0.300896
vn 0.464602 0.652595 2.930707
v 0.431340 0.175197 0.284039
vn -0.484986 0.679718 3.059037
v 0.480933 0.025000 0.316629
vn -1.406490 0.678620 2.759615
v 0.522954 0.025000 0.330282
vn -2.190414 0.677951 2.190038
v 0.558702 0.025000 0.356257
vn -2.759870 0.677792 1.406208
v 0.584671 0.025000 0.392003
vn -3.059264 0.678143 0.484704
v 0.598325 0.025000 0.434025
vn -3.059243 0.678963 -0.484239
v 0.598324 0.025000 0.478211
vn -2.759776 0.680202 -1.405771
v 0.584670 0.025000 0.520232
vn -2.190229 0.681696 -2.189608
v 0.558697 0.025000 0.555977
vn -1.406437 0.683324 -2.759028
v 0.522951 0.025000 0.581948
vn -0.484875 0.684933 -3.058432
v 0.480928 0.025000 0.595603
vn 0.484062 0.686348 -3.058394
v 0.436744 0.025000 0.595601
vn 1.405421 0.687450 -2.758998
v 0.394723 0.025000 0.581947
vn 2.189284 0.688113 -2.189476
v 0.358976 0.025000 0.555977
vn 2.758801 0.688278 -1.405591
v 0.333004 0.025000 0.520227
vn 3.058193 0.687932 -0.484110
v 0.319350 0.025000 0.478205
vn 3.058207 0.687095 0.484690
v 0.319352 0.025000 0.434024
vn 2.758821 0.685871 1.406173
v 0.333004 0.025000 0.391998
vn 2.189249 0.684360 2.190145
v 0.358977 0.025000 0.356253
vn 1.405467 0.682731 2.759601
v 0.394726 0.025000 0.330281
vn 0.483944 0.681139 3.059031
v 0.436747 0.025000 0.316627
vn 0.406360 -2.061743 -2.559144
v 0.486807 0.178926 0.279111
vn 1.177737 -2.059629 -2.309700
v 0.540181 0.178926 0.296453
vn 1.834184 -2.058235 -1.833587
v 0.585585 0.178926 0.329444
vn 2.311119 -2.057806 -1.177584
v 0.618571 0.178926 0.374844
vn 2.561512 -2.058279 -0.406094
v 0.635914 0.178926 0.428222
vn 2.560787 -2.059662 0.404829
v 0.635914 0.178926 0.484341
vn 2.309216 -2.061809 1.175458
v 0.618572 0.178926 0.537715
vn 1.831767 -2.064508 1.830181
v 0.585584 0.178926 0.583118
vn 1.175768 -2.067402 2.304808
v 0.540181 0.178926 0.616102
vn 0.405701 -2.070405 2.553432
v 0.486805 0.178926 0.633448
vn -0.403190 -2.073047 2.552015
v 0.430687 0.178926 0.633448
vn -1.171639 -2.075127 2.301136
v 0.377313 0.178926 0.616105
vn -1.825027 -2.076505 1.825580
v 0.331910 0.178926 0.583120
vn -2.299718 -2.076905 1.171771
v 0.298923 0.178926 0.537715
vn -2.549639 -2.076471 0.403508
v 0.281578 0.178926 0.484339
vn -2.550382 -2.075111 -0.404672
v 0.281577 0.178926 0.428220
vn -2.301621 -2.072996 -1.173930
v 0.298920 0.178926 0.374844
vn -1.827342 -2.070295 -1.829087
v 0.331908 0.178926 0.329443
vn -1.173578 -2.067352 -2.306023
v 0.377313 0.178926 0.296454
vn -0.403909 -2.064411 -2.557739
v 0.430689 0.178926 0.279111
vn 0.773289 -3.785087 -4.880599
v 0.499944 0.288436 0.192971
vn 2.244940 -3.781307 -4.405267
v 0.579353 0.288436 0.218774
vn 3.497568 -3.778875 -3.497337
v 0.646906 0.288436 0.267858
vn 4.407560 -3.778063 -2.245769
v 0.695982 0.288436 0.335404
vn 4.885176 -3.778941 -0.773812
v 0.721785 0.288436 0.414820
vn 4.883395 -3.781402 0.773285
v 0.721785 0.288436 0.498314
vn 4.402942 -3.785191 2.243137
v 0.695983 0.288436 0.577724
vn 3.491674 -3.789952 3.491461
v 0.646904 0.288436 0.645276
vn 2.240214 -3.795231 4.396043
v 0.579354 0.288436 0.694348
vn 0.771609 -3.800487 4.869170
v 0.499941 0.288436 0.720155
vn -0.770418 -3.805222 4.865772
v 0.416448 0.288436 0.720155
vn -2.235035 -3.808963 4.387057
v 0.337038 0.288436 0.694353
vn -3.480128 -3.811344 3.480267
v 0.269486 0.288436 0.645277
vn -4.384799 -3.812149 2.234209
v 0.220409 0.288436 0.577724
vn -4.861175 -3.811311 0.769966
v 0.194602 0.288436 0.498311
vn -4.862984 -3.808890 -0.770379
v 0.194602 0.288436 0.414817
vn -4.389357 -3.805117 -2.236834
v 0.220404 0.288436 0.335404
vn -3.485819 -3.800361 -3.486337
v 0.269484 0.288436 0.267856
vn -2.239753 -3.795100 -4.396346
v 0.337038 0.288436 0.218775
vn -0.772202 -3.789835 -4.877178
v 0.416451 0.288436 0.192971
vn 3.784148 -2.937090 -3.784087
v 0.729689 0.447315 0.184716
vn 4.768579 -2.936354 -2.429747
v 0.800488 0.447315 0.282159
vn 5.285618 -2.937109 -0.837105
v 0.837713 0.447315 0.396728
vn 5.284343 -2.939290 0.837040
v 0.837713 0.447315 0.517177
vn 4.765315 -2.942691 2.428174
v 0.800489 0.447315 0.631735
vn 3.779917 -2.946933 3.780223
v 0.729685 0.447315 0.729187
vn -3.772279 -2.966004 3.772243
v 0.185214 0.447315 0.729190
vn -4.753003 -2.966773 2.421836
v 0.114414 0.447315 0.631735
vn -5.269110 -2.965959 0.834692
v 0.077184 0.447315 0.517173
vn -5.270417 -2.963814 -0.834661
v 0.077184 0.447315 0.396724
vn -4.756195 -2.960467 -2.423417
v 0.114407 0.447315 0.282159
vn -3.776309 -2.956225 -3.776323
v 0.185211 0.447315 0.184713
vn 5.241612 -1.109925 -2.670736
v 0.846935 0.577872 0.258495
vn 5.810308 -1.110243 -0.919980
v 0.889234 0.577872 0.388687
vn 5.809704 -1.111186 0.920602
v 0.889234 0.577872 0.525560
vn 5.240148 -1.112665 2.670648
v 0.846935 0.577872 0.655740
vn -5.235712 -1.123114 2.667754
v 0.067304 0.577872 0.655740
vn -5.803907 -1.122741 0.919554
v 0.025000 0.577872 0.525556
vn -5.804551 -1.121815 -0.918848
v 0.025000 0.577872 0.388682
vn -5.237103 -1.120372 -2.667854
v 0.067296 0.577872 0.258495
vn 5.660558 1.377340 -0.896225
v 0.889234 0.722499 0.388687
vn 5.659752 1.378380 0.896916
v 0.889234 0.722499 0.525560
vn -5.651615 1.391291 0.895479
v 0.025000 0.722499 0.525556
vn -5.652480 1.390245 -0.894693
v 0.025000 0.722499 0.388682
vn 4.643589 3.749298 -0.735474
v 0.829124 0.838585 0.398068
vn 4.641903 3.751393 0.735135
v 0.829125 0.838585 0.515780
vn -4.621428 3.777177 0.732047
v 0.085882 0.838585 0.515776
vn -4.623118 3.775124 -0.732246
v 0.085882 0.838585 0.398064
vn 2.741978 5.291074 -1.397117
v 0.699853 0.923308 0.333431
vn 3.038749 5.291591 -0.481514
v 0.726079 0.923308 0.414150
vn 3.036760 5.293031 0.480525
v 0.726079 0.923308 0.499012
vn 2.736810 5.295250 1.393789
v 0.699854 0.923308 0.579724
vn -2.715950 5.310932 1.383868
v 0.216483 0.923308 0.579724
vn -3.011393 5.310412 0.476791
v 0.190253 0.923308 0.499009
vn -3.013346 5.309032 -0.477699
v 0.190253 0.923308 0.414147
vn -2.721018 5.306837 -1.387155
v 0.216478 0.923308 0.333432
vn 0.222016 6.050786 -1.398030
v 0.485494 0.958881 0.287725
vn 0.643965 6.050113 -1.262838
v 0.536264 0.958881 0.304221
vn 1.003431 6.049697 -1.003083
v 0.579453 0.958881 0.335603
vn 1.264573 6.049541 -0.644339
v 0.610830 0.958881 0.378788
vn 1.401301 6.049699 -0.222166
v 0.627327 0.958881 0.429563
vn 1.400120 6.050131 0.221333
v 0.627327 0.958881 0.482944
vn 1.261473 6.050808 0.642095
v 0.610830 0.958881 0.533714
vn 0.999590 6.051637 0.998667
v 0.579452 0.958881 0.576903
vn 0.640848 6.052584 1.256150
v 0.536264 0.958881 0.608277
vn 0.220887 6.053488 1.389978
v 0.485492 0.958881 0.624777
vn -0.219219 6.054320 1.387712
v 0.432111 0.958881 0.624777
vn -0.636539 6.054977 1.250235
v 0.381341 0.958881 0.608280
vn -0.991005 6.055378 0.991318
v 0.338152 0.958881 0.576904
vn -1.248535 6.055536 0.636174
v 0.306775 0.958881 0.533714
vn -1.384501 6.055374 0.219099
v 0.290275 0.958881 0.482942
vn -1.385654 6.054961 -0.219879
v 0.290275 0.958881 0.429561
vn -1.251581 6.054292 -0.638397
v 0.306771 0.958881 0.378788
vn -0.994730 6.053477 -0.995742
v 0.338151 0.958881 0.335602
vn -0.639614 6.052546 -1.256879
v 0.381341 0.958881 0.304222
vn -0.220373 6.051622 -1.395750
v 0.432113 0.958881 0.287725
vn 0.003740 6.226681 -0.001924
v 0.459878 0.975000 0.455697
vn 0.836610 -2.942589 -5.282519
v 0.517678 0.447315 0.076684
vn 2.429018 -2.939197 -4.767097
v 0.632236 0.447315 0.113906
vn 2.425672 -2.951625 4.760871
v 0.632236 0.447315 0.799981
vn 0.835468 -2.956301 5.274657
v 0.517673 0.447315 0.837210
vn -0.835094 -2.960551 5.272262
v 0.397224 0.447315 0.837210
vn -2.422485 -2.963912 4.754491
v 0.282666 0.447315 0.799988
vn -2.425832 -2.951508 -4.760796
v 0.282666 0.447315 0.113907
vn -0.836346 -2.946829 -5.280096
v 0.397229 0.447315 0.076684
vn 0.919540 -1.112648 -5.809118
v 0.525559 0.577872 0.025000
vn 2.670202 -1.111165 -5.241199
v 0.655739 0.577872 0.067300
vn 2.668637 -1.116547 5.239068
v 0.655739 0.577872 0.846927
vn 0.919087 -1.118573 5.806111
v 0.525555 0.577872 0.889234
vn -0.919966 -1.120413 5.805082
v 0.388680 0.577872 0.889234
vn -2.668261 -1.121876 5.236124
v 0.258501 0.577872 0.846938
vn -2.669868 -1.116504 -5.238349
v 0.258500 0.577872 0.067300
vn -0.920571 -1.114486 -5.808023
v 0.388685 0.577872 0.025000
vn 0.895656 1.379980 -5.658918
v 0.525559 0.722499 0.025000
vn 2.601229 1.378332 -5.105984
v 0.655739 0.722499 0.067300
vn 2.599142 1.384351 5.102896
v 0.655739 0.722499 0.846927
vn 0.894986 1.386591 5.654717
v 0.525555 0.722499 0.889234
vn -0.896018 1.388656 5.653282
v 0.388680 0.722499 0.889234
vn -2.598421 1.390294 5.098894
v 0.258501 0.722499 0.846938
vn -2.600569 1.384295 -5.102078
v 0.258500 0.722499 0.067300
vn -0.896827 1.382030 -5.657424
v 0.388685 0.722499 0.025000
vn 0.734915 3.754597 -4.639357
v 0.516364 0.838585 0.085297
vn 2.133815 3.751299 -4.187487
v 0.628319 0.838585 0.121674
vn 2.129447 3.763344 4.178988
v 0.628319 0.838585 0.792157
vn 0.733356 3.767851 4.628813
v 0.516360 0.838585 0.828540
vn -0.732524 3.771960 4.625636
v 0.398648 0.838585 0.828540
vn -2.124868 3.775230 4.170587
v 0.286693 0.838585 0.792163
vn -2.129248 3.763233 -4.179123
v 0.286693 0.838585 0.121675
vn -0.734176 3.758703 -4.636152
v 0.398652 0.838585 0.085297
vn 4.159589 -1.110250 -4.159825
v 0.766481 0.577872 0.147764
vn 4.157534 -1.114502 4.158703
v 0.766477 0.577872 0.766481
vn -4.155282 -1.122790 4.154994
v 0.147760 0.577872 0.766485
vn -4.157129 -1.118548 -4.156334
v 0.147756 0.577872 0.147761
vn 4.052366 1.377317 -4.052652
v 0.766481 0.722499 0.147764
vn 5.106587 1.376952 -2.601929
v 0.846935 0.722499 0.258495
vn 5.104584 1.380019 2.601676
v 0.846935 0.722499 0.655740
vn 4.049634 1.382066 4.050961
v 0.766477 0.722499 0.766481
vn -4.046288 1.391306 4.045958
v 0.147760 0.722499 0.766485
vn -5.098290 1.391696 2.597711
v 0.067304 0.722499 0.655740
vn -5.100219 1.388611 -2.597998
v 0.067296 0.722499 0.258495
vn -4.048810 1.386584 -4.047859
v 0.147756 0.722499 0.147761
vn 3.324539 3.749272 -3.324416
v 0.723556 0.838585 0.190874
vn 4.189543 3.748526 -2.134681
v 0.792747 0.838585 0.286103
vn 4.185218 3.754686 2.132384
v 0.792748 0.838585 0.627734
vn 3.319038 3.758777 3.319036
v 0.723554 0.838585 0.722971
vn -3.308527 3.777232 3.308572
v 0.191456 0.838585 0.722974
vn -4.168581 3.777995 2.124008
v 0.122266 0.838585 0.627734
vn -4.172794 3.771870 -2.126323
v 0.122258 0.838585 0.286103
vn -3.313835 3.767796 -3.314112
v 0.191453 0.838585 0.190872
vn 0.481065 5.295189 -3.033474
v 0.500600 0.923308 0.188665
vn 1.396295 5.292955 -2.739287
v 0.581312 0.923308 0.214889
vn 2.175755 5.291573 -2.175367
v 0.649972 0.923308 0.264778
vn 2.169290 5.298020 2.168375
v 0.649970 0.923308 0.648383
vn 1.391101 5.301129 2.728527
v 0.581312 0.923308 0.698261
vn 0.479184 5.304146 3.020390
v 0.500597 0.923308 0.724491
vn -0.477192 5.306898 3.016604
v 0.415735 0.923308 0.724491
vn -1.384659 5.309088 2.718598
v 0.335024 0.923308 0.698265
vn -2.155703 5.310436 2.156039
v 0.266365 0.923308 0.648385
vn -2.161989 5.304078 -2.163083
v 0.266362 0.923308 0.264776
vn -1.389808 5.301024 -2.729316
v 0.335024 0.923308 0.214891
vn -0.479131 5.297957 -3.029655
v 0.415738 0.923308 0.188665
# 201 vertices, 0 vertices normals

f 2//2 1//1 21//21
f 3//3 2//2 22//22
f 4//4 3//3 23//23
f 5//5 4//4 24//24
f 6//6 5//5 25//25
f 7//7 6//6 26//26
f 8//8 7//7 27//27
f 9//9 8//8 28//28
f 10//10 9//9 29//29
f 11//11 10//10 30//30
f 12//12 11//11 31//31
f 13//13 12//12 32//32
f 14//14 13//13 33//33
f 15//15 14//14 34//34
f 16//16 15//15 35//35
f 17//17 16//16 36//36
f 18//18 17//17 37//37
f 19//19 18//18 38//38
f 20//20 19//19 39//39
f 1//1 20//20 40//40
f 41//41 60//60 80//80
f 60//60 59//59 79//79
f 59//59 58//58 78//78
f 78//78 58//58 57//57
f 77//77 57//57 56//56
f 56//56 55//55 75//75
f 55//55 54//54 74//74
f 54//54 53//53 73//73
f 73//73 53//53 52//52
f 72//72 52//52 51//51
f 71//71 51//51 50//50
f 50//50 49//49 69//69
f 49//49 48//48 68//68
f 68//68 48//48 47//47
f 67//67 47//47 46//46
f 66//66 46//46 45//45
f 45//45 44//44 64//64
f 44//44 43//43 63//63
f 63//63 43//43 42//42
f 62//62 42//42 41//41
f 92//92 78//78 77//77
f 74//74 73//73 87//87
f 86//86 68//68 67//67
f 64//64 63//63 81//81
f 100//100 91//91 90//90
f 89//89 88//88 97//97
f 96//96 85//85 84//84
f 83//83 82//82 93//93
f 104//104 99//99 98//98
f 102//102 95//95 94//94
f 107//107 114//114 115//115
f 110//110 111//111 106//106
f 115//115 132//132 133//133
f 113//113 130//130 131//131
f 111//111 122//122 123//123
f 120//120 121//121 110//110
f 117//117 136//136 137//137
f 136//136 135//135 137//137
f 135//135 134//134 137//137
f 134//134 133//133 137//137
f 133//133 132//132 137//137
f 132//132 131//131 137//137
f 131//131 130//130 137//137
f 130//130 129//129 137//137
f 129//129 128//128 137//137
f 128//128 127//127 137//137
f 127//127 126//126 137//137
f 126//126 125//125 137//137
f 125//125 124//124 137//137
f 124//124 123//123 137//137
f 123//123 122//122 137//137
f 122//122 121//121 137//137
f 121//121 120//120 137//137
f 120//120 119//119 137//137
f 119//119 118//118 137//137
f 118//118 117//117 137//137
f 61//61 80//80 145//145
f 80//80 79//79 144//144
f 143//143 72//72 71//71
f 142//142 71//71 70//70
f 70//70 69//69 140//140
f 139//139 62//62 61//61
f 138//138 145//145 153//153
f 145//145 144//144 152//152
f 151//151 143//143 142//142
f 150//150 142//142 141//141
f 141//141 140//140 148//148
f 147//147 139//139 138//138
f 154//154 146//146 153//153
f 161//161 153//153 152//152
f 159//159 151//151 150//150
f 158//158 150//150 149//149
f 157//157 149//149 148//148
f 155//155 147//147 146//146
f 169//169 162//162 154//154
f 168//168 169//169 161//161
f 166//166 167//167 159//159
f 165//165 166//166 158//158
f 164//164 165//165 157//157
f 162//162 163//163 155//155
f 79//79 78//78 92//92
f 87//87 73//73 72//72
f 69//69 68//68 86//86
f 81//81 63//63 62//62
f 144//144 92//92 173//173
f 173//173 92//92 91//91
f 88//88 87//87 172//172
f 172//172 87//87 143//143
f 140//140 86//86 171//171
f 171//171 86//86 85//85
f 82//82 81//81 170//170
f 170//170 81//81 139//139
f 160//160 152//152 173//173
f 181//181 173//173 100//100
f 180//180 100//100 99//99
f 103//103 98//98 97//97
f 179//179 97//97 172//172
f 178//178 172//172 151//151
f 156//156 148//148 171//171
f 177//177 171//171 96//96
f 176//176 96//96 95//95
f 101//101 94//94 93//93
f 175//175 93//93 170//170
f 174//174 170//170 147//147
f 189//189 168//168 160//160
f 188//188 189//189 181//181
f 108//108 188//188 180//180
f 107//107 108//108 104//104
f 187//187 107//107 103//103
f 186//186 187//187 179//179
f 167//167 186//186 178//178
f 185//185 164//164 156//156
f 184//184 185//185 177//177
f 106//106 184//184 176//176
f 105//105 106//106 102//102
f 183//183 105//105 101//101
f 182//182 183//183 175//175
f 163//163 182//182 174//174
f 201//201 190//190 162//162
f 200//200 201//201 169//169
f 189//189 199//199 200//200
f 116//116 199//199 189//189
f 115//115 116//116 188//188
f 113//113 114//114 107//107
f 186//186 198//198 113//113
f 167//167 197//197 198//198
f 166//166 196//196 197//197
f 195//195 196//196 166//166
f 164//164 194//194 195//195
f 193//193 194//194 164//164
f 184//184 112//112 193//193
f 111//111 112//112 184//184
f 183//183 109//109 110//110
f 192//192 109//109 183//183
f 191//191 192//192 182//182
f 190//190 191//191 163//163
f 201//201 136//136 117//117
f 200//200 135//135 136//136
f 134//134 135//135 200//200
f 116//116 133//133 134//134
f 129//129 130//130 113//113
f 128//128 129//129 198//198
f 127//127 128//128 197//197
f 195//195 126//126 127//127
f 125//125 126//126 195//195
f 193//193 124//124 125//125
f 123//123 124//124 193//193
f 119//119 120//120 109//109
f 118//118 119//119 192//192
f 117//117 118//118 191//191
f 91//91 77//77 76//76
f 76//76 75//75 89//89
f 75//75 74//74 88//88
f 85//85 67//67 66//66
f 84//84 66//66 65//65
f 65//65 64//64 82//82
f 90//90 89//89 98//98
f 95//95 84//84 83//83
f 131//131 132//132 115//115
f 110//110 121//121 122//122
f 2//2 21//21 22//22
f 3//3 22//22 23//23
f 4//4 23//23 24//24
f 5//5 24//24 25//25
f 6//6 25//25 26//26
f 7//7 26//26 27//27
f 8//8 27//27 28//28
f 9//9 28//28 29//29
f 10//10 29//29 30//30
f 11//11 30//30 31//31
f 12//12 31//31 32//32
f 13//13 32//32 33//33
f 14//14 33//33 34//34
f 15//15 34//34 35//35
f 16//16 35//35 36//36
f 17//17 36//36 37//37
f 18//18 37//37 38//38
f 19//19 38//38 39//39
f 20//20 39//39 40//40
f 1//1 40//40 21//21
f 41//41 80//80 61//61
f 60//60 79//79 80//80
f 59//59 78//78 79//79
f 78//78 57//57 77//77
f 77//77 56//56 76//76
f 56//56 75//75 76//76
f 55//55 74//74 75//75
f 54//54 73//73 74//74
f 73//73 52//52 72//72
f 72//72 51//51 71//71
f 71//71 50//50 70//70
f 50//50 69//69 70//70
f 49//49 68//68 69//69
f 68//68 47//47 67//67
f 67//67 46//46 66//66
f 66//66 45//45 65//65
f 45//45 64//64 65//65
f 44//44 63//63 64//64
f 63//63 42//42 62//62
f 62//62 41//41 61//61
f 92//92 77//77 91//91
f 74//74 87//87 88//88
f 86//86 67//67 85//85
f 64//64 81//81 82//82
f 100//100 90//90 99//99
f 89//89 97//97 98//98
f 96//96 84//84 95//95
f 83//83 93//93 94//94
f 104//104 98//98 103//103
f 102//102 94//94 101//101
f 107//107 115//115 108//108
f 110//110 106//106 105//105
f 115//115 133//133 116//116
f 113//113 131//131 114//114
f 111//111 123//123 112//112
f 120//120 110//110 109//109
f 61//61 145//145 138//138
f 80//80 144//144 145//145
f 143//143 71//71 142//142
f 142//142 70//70 141//141
f 70//70 140//140 141//141
f 139//139 61//61 138//138
f 138//138 153//153 146//146
f 145//145 152//152 153//153
f 151//151 142//142 150//150
f 150//150 141//141 149//149
f 141//141 148//148 149//149
f 147//147 138//138 146//146
f 154//154 153//153 161//161
f 161//161 152//152 160//160
f 159//159 150//150 158//158
f 158//158 149//149 157//157
f 157//157 148//148 156//156
f 155//155 146//146 154//154
f 169//169 154//154 161//161
f 168//168 161//161 160//160
f 166//166 159//159 158//158
f 165//165 158//158 157//157
f 164//164 157//157 156//156
f 162//162 155//155 154//154
f 79//79 92//92 144//144
f 87//87 72//72 143//143
f 69//69 86//86 140//140
f 81//81 62//62 139//139
f 144//144 173//173 152//152
f 173//173 91//91 100//100
f 88//88 172//172 97//97
f 172//172 143//143 151//151
f 140//140 171//171 148//148
f 171//171 85//85 96//96
f 82//82 170//170 93//93
f 170//170 139//139 147//147
f 160//160 173//173 181//181
f 181//181 100//100 180//180
f 180//180 99//99 104//104
f 103//103 97//97 179//179
f 179//179 172//172 178//178
f 178//178 151//151 159//159
f 156//156 171//171 177//177
f 177//177 96//96 176//176
f 176//176 95//95 102//102
f 101//101 93//93 175//175
f 175//175 170//170 174//174
f 174//174 147//147 155//155
f 189//189 160//160 181//181
f 188//188 181//181 180//180
f 108//108 180//180 104//104
f 107//107 104//104 103//103
f 187//187 103//103 179//179
f 186//186 179//179 178//178
f 167//167 178//178 159//159
f 185//185 156//156 177//177
f 184//184 177//177 176//176
f 106//106 176//176 102//102
f 105//105 102//102 101//101
f 183//183 101//101 175//175
f 182//182 175//175 174//174
f 163//163 174//174 155//155
f 201//201 162//162 169//169
f 200//200 169//169 168//168
f 189//189 200//200 168//168
f 116//116 189//189 188//188
f 115//115 188//188 108//108
f 113//113 107//107 187//187
f 186//186 113//113 187//187
f 167//167 198//198 186//186
f 166//166 197//197 167//167
f 195//195 166//166 165//165
f 164//164 195//195 165//165
f 193//193 164//164 185//185
f 184//184 193//193 185//185
f 111//111 184//184 106//106
f 183//183 110//110 105//105
f 192//192 183//183 182//182
f 191//191 182//182 163//163
f 190//190 163//163 162//162
f 201//201 117//117 190//190
f 200//200 136//136 201//201
f 134//134 200//200 199//199
f 116//116 134//134 199//199
f 129//129 113//113 198//198
f 128//128 198//198 197//197
f 127//127 197//197 196//196
f 195//195 127//127 196//196
f 125//125 195//195 194//194
f 193//193 125//125 194//194
f 123//123 193//193 112//112
f 119//119 109//109 192//192
f 118//118 192//192 191//191
f 117//117 191//191 190//190
f 91//91 76//76 90//90
f 76//76 89//89 90//90
f 75//75 88//88 89//89
f 85//85 66//66 84//84
f 84//84 65//65 83//83
f 65//65 82//82 83//83
f 90//90 98//98 99//99
f 95//95 83//83 94//94
f 131//131 115//115 114//114
f 110//110 122//122 111//111
# 340 faces, 0 coords texture

# End of File
