####
#
# OBJ File Generated by Meshlab
#
####
# Object m334.obj
#
# Vertices: 114
# Faces: 204
#
####
vn 1.442836 2.028890 -2.642520
v 0.542364 0.469195 0.025000
vn 2.779808 1.872859 0.006416
v 0.615042 0.469195 0.134997
vn 0.000001 6.064000 -0.000007
v 0.320022 0.498077 0.134997
vn -1.446929 2.018937 -2.635798
v 0.097678 0.469195 0.025000
vn -2.779805 1.872853 -0.006435
v 0.025000 0.469195 0.134997
vn -1.442837 2.028894 2.642513
v 0.097678 0.469195 0.244995
vn 1.446927 2.018939 2.635798
v 0.542364 0.469195 0.244995
vn 1.744981 -2.176134 -2.930670
v 0.542364 0.089243 0.042519
vn 3.156396 -2.087016 0.008316
v 0.599747 0.089243 0.134997
vn -1.750376 -2.163126 -2.922611
v 0.097678 0.089243 0.042516
vn -3.156463 -2.087087 -0.008349
v 0.040298 0.089243 0.134997
vn -1.744986 -2.176096 2.930597
v 0.097678 0.089243 0.227478
vn 1.750365 -2.163152 2.922657
v 0.542364 0.089243 0.227478
vn 0.000006 -5.103010 -0.000021
v 0.320022 0.025000 0.134997
vn 2.441549 1.485427 -4.248886
v 0.137032 0.662826 0.107864
vn 1.238546 -1.734800 -2.266507
v 0.137032 0.463892 0.076300
vn 2.712139 -2.072815 -0.135717
v 0.170923 0.463892 0.134997
vn 5.418696 0.109033 -0.289756
v 0.170923 0.644656 0.163679
vn -2.441591 1.485387 -4.248813
v 0.069253 0.662826 0.107864
vn -1.238571 -1.734770 -2.266461
v 0.069253 0.463892 0.076300
vn -5.418823 0.109000 -0.289758
v 0.035365 0.644656 0.163679
vn -2.712197 -2.072890 -0.135717
v 0.035365 0.463892 0.134997
vn -2.977215 -1.594363 4.538506
v 0.069253 0.626483 0.219495
vn -1.473635 -2.475557 2.402162
v 0.069253 0.463892 0.193695
vn 2.977155 -1.594388 4.538595
v 0.137032 0.626483 0.219495
vn 1.473605 -2.475594 2.402210
v 0.137032 0.463892 0.193695
vn 0.000000 -6.283185 0.000000
v 0.103144 0.463892 0.134997
vn 0.000045 4.114821 3.614859
v 0.103144 0.865580 0.295108
vn 1.548849 3.029156 -1.115713
v 0.137032 0.886772 0.235042
vn 3.403027 1.595971 1.162981
v 0.170920 0.848145 0.279240
vn -1.548845 3.029154 -1.115702
v 0.069253 0.886772 0.235042
vn -3.402991 1.595965 1.162981
v 0.035365 0.848145 0.279240
vn -1.854135 -0.105030 3.909838
v 0.069253 0.809521 0.323438
vn 1.854138 -0.105040 3.909846
v 0.137032 0.809521 0.323438
vn 2.390838 1.863998 -4.043344
v 0.281429 0.738240 0.137804
vn 1.187831 -1.597050 -2.218588
v 0.281429 0.463892 0.076300
vn 2.703726 -2.051881 -0.189422
v 0.315320 0.463892 0.134997
vn 5.410262 0.148641 -0.331197
v 0.315320 0.713181 0.190883
vn -2.390869 1.863973 -4.043288
v 0.213651 0.738240 0.137804
vn -1.187846 -1.597032 -2.218557
v 0.213651 0.463892 0.076300
vn -5.410347 0.148634 -0.331187
v 0.179762 0.713181 0.190883
vn -2.703768 -2.051934 -0.189416
v 0.179762 0.463892 0.134997
vn -3.019483 -2.012587 4.374444
v 0.213651 0.688122 0.243963
vn -1.515921 -2.634209 2.407962
v 0.213651 0.463892 0.193695
vn 3.019433 -2.012615 4.374511
v 0.281429 0.688122 0.243963
vn 1.515895 -2.634244 2.407999
v 0.281429 0.463892 0.193695
vn 0.000000 -6.283185 0.000000
v 0.247541 0.463892 0.134997
vn 0.000013 3.626608 4.104642
v 0.247541 0.915782 0.349101
vn 1.548790 3.145640 -0.725107
v 0.281429 0.944375 0.292186
vn 3.402846 1.436665 1.354756
v 0.315320 0.900487 0.331164
vn -1.548806 3.145593 -0.725084
v 0.213651 0.944375 0.292186
vn -3.402905 1.436697 1.354799
v 0.179762 0.900487 0.331164
vn -1.854092 -0.596848 3.865414
v 0.213651 0.856601 0.370143
vn 1.854068 -0.596872 3.865471
v 0.281429 0.856601 0.370143
vn 2.360382 2.076647 -3.904135
v 0.423091 0.781012 0.159993
vn 1.157338 -1.517213 -2.186983
v 0.423091 0.463892 0.076300
vn 2.697320 -2.036098 -0.220927
v 0.456980 0.463892 0.134997
vn 5.403939 0.174757 -0.354240
v 0.456980 0.752046 0.211049
vn -2.360370 2.076656 -3.904157
v 0.355312 0.781012 0.159993
vn -1.157333 -1.517217 -2.186994
v 0.355312 0.463892 0.076300
vn -5.403890 0.174758 -0.354249
v 0.321422 0.752046 0.211049
vn -2.697294 -2.036060 -0.220932
v 0.321422 0.463892 0.134997
vn -3.043497 -2.251496 4.258545
v 0.355312 0.723081 0.262101
vn -1.539972 -2.729908 2.407912
v 0.355312 0.463892 0.193695
vn 3.043520 -2.251481 4.258516
v 0.423091 0.723081 0.262101
vn 1.539983 -2.729895 2.407895
v 0.423091 0.463892 0.193695
vn 0.000000 -6.283185 0.000000
v 0.389201 0.463892 0.134997
vn -0.000007 3.308870 4.364703
v 0.389201 0.942225 0.384002
vn 1.548850 3.191145 -0.487440
v 0.423091 0.975000 0.329387
vn 3.402905 1.331164 1.458639
v 0.456980 0.928316 0.364969
vn -1.548844 3.191166 -0.487450
v 0.355312 0.975000 0.329387
vn -3.402873 1.331147 1.458610
v 0.321422 0.928316 0.364969
vn -1.854096 -0.884844 3.809865
v 0.355312 0.881632 0.400550
vn 1.854107 -0.884829 3.809840
v 0.423091 0.881632 0.400550
vn 2.396544 1.823043 -4.068002
v 0.566859 0.730041 0.134002
vn 1.193524 -1.612192 -2.224254
v 0.566859 0.463892 0.076300
vn 2.704815 -2.054573 -0.183481
v 0.600750 0.463892 0.134997
vn 5.411380 0.143911 -0.326641
v 0.600750 0.705730 0.187431
vn -2.396563 1.823027 -4.067966
v 0.499082 0.730041 0.134002
vn -1.193533 -1.612178 -2.224235
v 0.499082 0.463892 0.076300
vn -5.411412 0.143908 -0.326636
v 0.465192 0.705730 0.187431
vn -2.704831 -2.054588 -0.183479
v 0.465192 0.463892 0.134997
vn -3.014838 -1.967012 4.394740
v 0.499082 0.681422 0.240857
vn -1.511305 -2.616410 2.407702
v 0.499082 0.463892 0.193695
vn 3.014807 -1.967032 4.394779
v 0.566859 0.681422 0.240857
vn 1.511290 -2.616433 2.407723
v 0.566859 0.463892 0.193695
vn 0.000000 -6.283185 0.000000
v 0.532971 0.463892 0.134997
vn 0.000007 3.683996 4.053150
v 0.532971 0.910537 0.342784
vn 1.548814 3.135180 -0.769340
v 0.566859 0.938326 0.285470
vn 3.402836 1.455613 1.334409
v 0.600750 0.894992 0.325063
vn -1.548824 3.135150 -0.769329
v 0.499082 0.938326 0.285470
vn -3.402860 1.455619 1.334421
v 0.465192 0.894992 0.325063
vn -1.854084 -0.542446 3.873430
v 0.499082 0.851658 0.364656
vn 1.854068 -0.542454 3.873470
v 0.566859 0.851658 0.364656
vn 2.633143 0.415748 -4.088891
v 0.760639 0.387029 0.106239
vn 1.853272 -1.677684 -3.227651
v 0.643719 0.153590 0.067880
vn 4.643662 -3.332200 -0.367143
v 0.683047 0.173564 0.137200
vn 4.715476 -0.865670 -0.305131
v 0.795743 0.373706 0.165570
vn -2.343616 1.741903 -4.576388
v 0.690442 0.387029 0.106239
vn -0.830692 -1.030252 -1.735899
v 0.565063 0.110794 0.066562
vn -5.508337 1.538186 0.176570
v 0.655344 0.373706 0.165570
vn -1.319346 -1.019884 -0.025277
v 0.525735 0.089382 0.134514
vn -2.538939 -0.176475 5.046083
v 0.690442 0.360731 0.224950
vn -0.964708 -1.259420 1.767540
v 0.565063 0.108678 0.202782
vn 2.912709 -1.453462 4.052362
v 0.760639 0.360731 0.224950
vn 2.192581 -2.681697 3.085546
v 0.643719 0.147242 0.203968
vn 2.699807 -5.373366 -0.156728
v 0.604391 0.112624 0.134719
vn -1.017137 2.880496 1.144572
v 0.696722 0.602235 0.239172
vn 1.932357 2.970211 -2.349808
v 0.752257 0.582241 0.180949
vn 3.718974 2.032160 0.707505
v 0.778970 0.565459 0.224044
vn -1.964152 2.924421 -2.923437
v 0.698830 0.582241 0.180949
vn -4.778713 1.394111 0.453341
v 0.672117 0.565459 0.224044
vn -2.084325 0.501077 4.325607
v 0.698830 0.549009 0.267221
vn 2.049337 0.943987 3.916724
v 0.752257 0.549009 0.267221
# 114 vertices, 0 vertices normals

f 3//3 2//2 1//1
f 3//3 1//1 4//4
f 3//3 4//4 5//5
f 3//3 5//5 6//6
f 3//3 6//6 7//7
f 3//3 7//7 2//2
f 2//2 9//9 8//8
f 2//2 8//8 1//1
f 1//1 8//8 10//10
f 1//1 10//10 4//4
f 4//4 10//10 11//11
f 4//4 11//11 5//5
f 5//5 11//11 12//12
f 5//5 12//12 6//6
f 6//6 12//12 13//13
f 6//6 13//13 7//7
f 7//7 13//13 9//9
f 7//7 9//9 2//2
f 14//14 13//13 12//12
f 14//14 12//12 11//11
f 14//14 11//11 10//10
f 14//14 10//10 8//8
f 14//14 8//8 9//9
f 14//14 9//9 13//13
f 17//17 16//16 15//15
f 17//17 15//15 18//18
f 16//16 20//20 19//19
f 16//16 19//19 15//15
f 20//20 22//22 21//21
f 20//20 21//21 19//19
f 22//22 24//24 23//23
f 22//22 23//23 21//21
f 24//24 26//26 25//25
f 24//24 25//25 23//23
f 26//26 17//17 18//18
f 26//26 18//18 25//25
f 16//16 17//17 27//27
f 20//20 16//16 27//27
f 22//22 20//20 27//27
f 24//24 22//22 27//27
f 26//26 24//24 27//27
f 17//17 26//26 27//27
f 30//30 29//29 28//28
f 29//29 31//31 28//28
f 31//31 32//32 28//28
f 32//32 33//33 28//28
f 33//33 34//34 28//28
f 34//34 30//30 28//28
f 30//30 18//18 15//15
f 15//15 29//29 30//30
f 29//29 15//15 19//19
f 19//19 31//31 29//29
f 31//31 19//19 21//21
f 21//21 32//32 31//31
f 32//32 21//21 23//23
f 23//23 33//33 32//32
f 33//33 23//23 25//25
f 25//25 34//34 33//33
f 34//34 25//25 18//18
f 18//18 30//30 34//34
f 37//37 36//36 35//35
f 37//37 35//35 38//38
f 36//36 40//40 39//39
f 36//36 39//39 35//35
f 40//40 42//42 41//41
f 40//40 41//41 39//39
f 42//42 44//44 43//43
f 42//42 43//43 41//41
f 44//44 46//46 45//45
f 44//44 45//45 43//43
f 46//46 37//37 38//38
f 46//46 38//38 45//45
f 36//36 37//37 47//47
f 40//40 36//36 47//47
f 42//42 40//40 47//47
f 44//44 42//42 47//47
f 46//46 44//44 47//47
f 37//37 46//46 47//47
f 50//50 49//49 48//48
f 49//49 51//51 48//48
f 51//51 52//52 48//48
f 52//52 53//53 48//48
f 53//53 54//54 48//48
f 54//54 50//50 48//48
f 50//50 38//38 35//35
f 35//35 49//49 50//50
f 49//49 35//35 39//39
f 39//39 51//51 49//49
f 51//51 39//39 41//41
f 41//41 52//52 51//51
f 52//52 41//41 43//43
f 43//43 53//53 52//52
f 53//53 43//43 45//45
f 45//45 54//54 53//53
f 54//54 45//45 38//38
f 38//38 50//50 54//54
f 57//57 56//56 55//55
f 57//57 55//55 58//58
f 56//56 60//60 59//59
f 56//56 59//59 55//55
f 60//60 62//62 61//61
f 60//60 61//61 59//59
f 62//62 64//64 63//63
f 62//62 63//63 61//61
f 64//64 66//66 65//65
f 64//64 65//65 63//63
f 66//66 57//57 58//58
f 66//66 58//58 65//65
f 56//56 57//57 67//67
f 60//60 56//56 67//67
f 62//62 60//60 67//67
f 64//64 62//62 67//67
f 66//66 64//64 67//67
f 57//57 66//66 67//67
f 70//70 69//69 68//68
f 69//69 71//71 68//68
f 71//71 72//72 68//68
f 72//72 73//73 68//68
f 73//73 74//74 68//68
f 74//74 70//70 68//68
f 70//70 58//58 55//55
f 55//55 69//69 70//70
f 69//69 55//55 59//59
f 59//59 71//71 69//69
f 71//71 59//59 61//61
f 61//61 72//72 71//71
f 72//72 61//61 63//63
f 63//63 73//73 72//72
f 73//73 63//63 65//65
f 65//65 74//74 73//73
f 74//74 65//65 58//58
f 58//58 70//70 74//74
f 77//77 76//76 75//75
f 77//77 75//75 78//78
f 76//76 80//80 79//79
f 76//76 79//79 75//75
f 80//80 82//82 81//81
f 80//80 81//81 79//79
f 82//82 84//84 83//83
f 82//82 83//83 81//81
f 84//84 86//86 85//85
f 84//84 85//85 83//83
f 86//86 77//77 78//78
f 86//86 78//78 85//85
f 76//76 77//77 87//87
f 80//80 76//76 87//87
f 82//82 80//80 87//87
f 84//84 82//82 87//87
f 86//86 84//84 87//87
f 77//77 86//86 87//87
f 90//90 89//89 88//88
f 89//89 91//91 88//88
f 91//91 92//92 88//88
f 92//92 93//93 88//88
f 93//93 94//94 88//88
f 94//94 90//90 88//88
f 90//90 78//78 75//75
f 75//75 89//89 90//90
f 89//89 75//75 79//79
f 79//79 91//91 89//89
f 91//91 79//79 81//81
f 81//81 92//92 91//91
f 92//92 81//81 83//83
f 83//83 93//93 92//92
f 93//93 83//83 85//85
f 85//85 94//94 93//93
f 94//94 85//85 78//78
f 78//78 90//90 94//94
f 97//97 96//96 95//95
f 97//97 95//95 98//98
f 96//96 100//100 99//99
f 96//96 99//99 95//95
f 100//100 102//102 101//101
f 100//100 101//101 99//99
f 102//102 104//104 103//103
f 102//102 103//103 101//101
f 104//104 106//106 105//105
f 104//104 105//105 103//103
f 106//106 97//97 98//98
f 106//106 98//98 105//105
f 96//96 97//97 107//107
f 100//100 96//96 107//107
f 102//102 100//100 107//107
f 104//104 102//102 107//107
f 106//106 104//104 107//107
f 97//97 106//106 107//107
f 110//110 109//109 108//108
f 109//109 111//111 108//108
f 111//111 112//112 108//108
f 112//112 113//113 108//108
f 113//113 114//114 108//108
f 114//114 110//110 108//108
f 110//110 98//98 95//95
f 95//95 109//109 110//110
f 109//109 95//95 99//99
f 99//99 111//111 109//109
f 111//111 99//99 101//101
f 101//101 112//112 111//111
f 112//112 101//101 103//103
f 103//103 113//113 112//112
f 113//113 103//103 105//105
f 105//105 114//114 113//113
f 114//114 105//105 98//98
f 98//98 110//110 114//114
# 204 faces, 0 coords texture

# End of File
