####
#
# OBJ File Generated by Meshlab
#
####
# Object m983.obj
#
# Vertices: 70
# Faces: 74
#
####
vn -1.606488 -1.626849 1.569796
v 0.539074 0.025000 0.599864
vn 1.606488 -1.626849 1.569796
v 0.585185 0.025000 0.599864
vn -3.035984 0.053684 3.136754
v 0.539074 0.341998 0.611183
vn 3.035984 0.053684 3.136754
v 0.585185 0.341998 0.611183
vn -3.077468 0.319659 3.123665
v 0.539074 0.459545 0.602951
vn 3.077468 0.319659 3.123665
v 0.585185 0.459545 0.602951
vn -1.119152 0.209922 1.556706
v 0.539074 0.624869 0.580657
vn 1.119152 0.209922 1.556706
v 0.585185 0.624869 0.580657
vn -2.070738 -0.134522 -1.565026
v 0.539074 0.606668 0.553218
vn 2.070738 -0.134522 -1.565026
v 0.585185 0.606668 0.553218
vn -3.193439 -0.187758 -3.134919
v 0.539074 0.439069 0.567624
vn 3.193439 -0.187758 -3.134919
v 0.585185 0.439069 0.567624
vn -3.296979 0.137129 -3.129112
v 0.539074 0.348065 0.570710
vn 3.296979 0.137129 -3.129112
v 0.585185 0.348065 0.570710
vn -1.449308 -1.380431 -1.559218
v 0.539074 0.025000 0.531267
vn 1.449308 -1.380431 -1.559218
v 0.585185 0.025000 0.531267
vn -0.073581 1.037387 1.177686
v 0.565990 0.288246 0.578627
vn -0.280619 1.876418 1.919677
v 0.665738 0.391385 0.500301
vn -2.350465 1.126302 0.582989
v 0.711966 0.555477 0.369664
vn 0.008812 1.792962 2.021938
v 0.436659 0.362389 0.511555
vn 0.178891 4.652775 4.149532
v 0.528725 0.494962 0.394209
vn -0.481124 1.928835 1.235005
v 0.711936 0.632928 0.219912
vn 0.202450 1.900294 2.082615
v 0.338712 0.508231 0.388002
vn 0.451214 1.798423 1.260582
v 0.313338 0.626039 0.282974
vn 0.068088 1.230550 0.689048
v 0.502178 0.703170 0.025000
vn 0.725592 1.210886 -0.688981
v 0.549026 0.281688 0.579512
vn 1.248001 2.082693 -1.185033
v 0.404352 0.341894 0.532963
vn 1.322917 2.207714 -1.256196
v 0.227061 0.460998 0.555576
vn 1.248005 2.082696 -1.185030
v 0.539551 0.366646 0.718848
vn 2.749672 4.970966 -2.665633
v 0.358972 0.463323 0.698583
vn 1.052396 1.952189 -0.668658
v 0.084279 0.586420 0.625634
vn 1.322927 2.207715 -1.256164
v 0.447350 0.501328 0.858451
vn 0.717041 1.858352 -1.117697
v 0.320640 0.629692 0.950607
vn 0.526902 1.264147 -0.546091
v 0.025000 0.688633 0.897917
vn -0.881826 1.074667 -0.731350
v 0.578738 0.297960 0.573217
vn -1.536600 2.017450 -1.074036
v 0.561234 0.379340 0.713905
vn -0.030561 2.302866 -1.601821
v 0.616888 0.487395 0.868189
vn -1.472363 1.908928 -1.216644
v 0.712880 0.385090 0.539507
vn -3.349874 4.678426 -2.221157
v 0.726983 0.508404 0.703703
vn -1.318393 1.844588 -0.523480
v 0.710982 0.562939 0.975000
vn -2.011363 1.900366 0.458055
v 0.862558 0.534199 0.578138
vn -1.133217 1.828523 -0.827619
v 0.973430 0.631539 0.661146
vn -0.768720 1.145116 -0.397611
v 0.969441 0.754442 0.943535
vn 1.164302 1.876070 0.093600
v 0.413304 0.779273 0.476594
vn 0.790529 1.878590 -0.550229
v 0.391107 0.746314 0.619286
vn 0.754221 0.555882 -1.938455
v 0.498834 0.824926 0.683744
vn 0.452536 2.049633 0.225864
v 0.493171 0.694665 0.384928
vn -0.000015 5.164696 -1.138228
v 0.562130 0.682614 0.562711
vn -0.452538 1.764802 -1.066522
v 0.631088 0.768281 0.718958
vn -0.754222 1.319241 1.525194
v 0.625425 0.760865 0.393068
vn -0.790541 1.935852 -0.290418
v 0.733152 0.716632 0.484600
vn -1.164312 1.662925 -0.873549
v 0.710955 0.806518 0.600218
vn 0.897068 1.559023 -1.262185
v 0.511329 0.810094 0.595534
vn 0.177159 1.731579 -1.186337
v 0.562130 0.788837 0.632231
vn -1.362164 0.613826 -1.530131
v 0.612931 0.810094 0.595534
vn 0.785854 1.862587 -0.591896
v 0.480067 0.771175 0.552091
vn 0.000005 5.160209 -1.137230
v 0.562130 0.749550 0.556857
vn -0.785856 1.938844 -0.245882
v 0.644193 0.771175 0.552091
vn 1.362163 1.200168 1.130360
v 0.511329 0.788227 0.496313
vn -0.177158 2.069851 0.348563
v 0.562130 0.753514 0.471951
vn -0.897064 1.945169 0.489917
v 0.612931 0.788227 0.496313
vn 0.866880 1.238790 -0.653274
v 0.295834 0.814444 0.627443
vn 0.453391 2.271761 -1.503428
v 0.486938 0.717432 0.753952
vn -0.624284 0.883763 -1.501318
v 0.670207 0.832675 0.745583
vn 0.944861 2.157749 -0.057691
v 0.326176 0.654600 0.421624
vn -0.118871 4.789959 -1.301842
v 0.562130 0.595105 0.564884
vn -1.387695 2.359078 -0.969656
v 0.785279 0.736843 0.641321
vn 0.527247 1.088170 1.525731
v 0.492755 0.747068 0.298110
vn -0.451762 2.137409 0.376411
v 0.689228 0.626209 0.316413
vn -1.088817 1.578782 -0.133855
v 0.829604 0.774520 0.505319
# 70 vertices, 0 vertices normals

f 1//1 2//2 4//4
f 3//3 4//4 6//6
f 5//5 6//6 8//8
f 9//9 10//10 12//12
f 11//11 12//12 14//14
f 13//13 14//14 16//16
f 15//15 16//16 2//2
f 2//2 16//16 14//14
f 4//4 14//14 12//12
f 6//6 12//12 10//10
f 15//15 1//1 3//3
f 13//13 3//3 5//5
f 11//11 5//5 7//7
f 17//17 18//18 21//21
f 18//18 19//19 22//22
f 20//20 21//21 24//24
f 21//21 22//22 25//25
f 26//26 27//27 30//30
f 27//27 28//28 31//31
f 29//29 30//30 33//33
f 30//30 31//31 34//34
f 35//35 36//36 39//39
f 36//36 37//37 40//40
f 38//38 39//39 42//42
f 39//39 40//40 43//43
f 44//44 45//45 48//48
f 45//45 46//46 49//49
f 47//47 48//48 51//51
f 48//48 49//49 52//52
f 53//53 54//54 57//57
f 54//54 55//55 58//58
f 56//56 57//57 60//60
f 57//57 58//58 61//61
f 62//62 63//63 66//66
f 63//63 64//64 67//67
f 65//65 66//66 69//69
f 66//66 67//67 70//70
f 1//1 4//4 3//3
f 3//3 6//6 5//5
f 5//5 8//8 7//7
f 9//9 12//12 11//11
f 11//11 14//14 13//13
f 13//13 16//16 15//15
f 15//15 2//2 1//1
f 2//2 14//14 4//4
f 4//4 12//12 6//6
f 6//6 10//10 8//8
f 15//15 3//3 13//13
f 13//13 5//5 11//11
f 11//11 7//7 9//9
f 17//17 21//21 20//20
f 18//18 22//22 21//21
f 20//20 24//24 23//23
f 21//21 25//25 24//24
f 26//26 30//30 29//29
f 27//27 31//31 30//30
f 29//29 33//33 32//32
f 30//30 34//34 33//33
f 35//35 39//39 38//38
f 36//36 40//40 39//39
f 38//38 42//42 41//41
f 39//39 43//43 42//42
f 44//44 48//48 47//47
f 45//45 49//49 48//48
f 47//47 51//51 50//50
f 48//48 52//52 51//51
f 53//53 57//57 56//56
f 54//54 58//58 57//57
f 56//56 60//60 59//59
f 57//57 61//61 60//60
f 62//62 66//66 65//65
f 63//63 67//67 66//66
f 65//65 69//69 68//68
f 66//66 70//70 69//69
# 74 faces, 0 coords texture

# End of File
