####
#
# OBJ File Generated by Meshlab
#
####
# Object m1032.obj
#
# Vertices: 96
# Faces: 156
#
####
vn 1.121788 -1.581140 -4.075170
v 0.505472 0.786550 0.725830
vn -1.299915 -0.959930 -1.290441
v 0.359179 0.806209 0.683823
vn -4.119443 -1.929169 0.755991
v 0.404162 0.774336 0.835698
vn -4.437267 -1.945111 0.385564
v 0.537735 0.559804 0.964016
vn -0.665164 -1.082258 -1.094907
v 0.591465 0.349599 0.883273
vn 1.961228 -1.067214 -4.000569
v 0.667649 0.577809 0.866159
vn 2.087372 2.576935 -1.022571
v 0.508209 0.798193 0.729827
vn -0.834910 0.960111 -0.803645
v 0.359179 0.818554 0.683823
vn -1.171546 2.201675 2.294006
v 0.407601 0.785469 0.840663
vn -0.281814 0.267861 3.312909
v 0.545442 0.562348 0.975000
vn 0.193238 -0.909947 0.207347
v 0.598274 0.343618 0.893078
vn 3.072834 0.709014 0.631651
v 0.675068 0.580991 0.876905
vn -1.294322 -1.551879 -3.997002
v 0.675599 0.763712 0.293821
vn -1.893407 -1.014518 -0.409498
v 0.535531 0.783306 0.339951
vn -3.164125 -1.870963 2.867804
v 0.651805 0.751495 0.446812
vn -3.632702 -1.968749 2.752781
v 0.827147 0.536901 0.482929
vn -1.179290 -1.108256 -0.610656
v 0.827867 0.326758 0.382207
vn -0.503319 -1.073158 -4.290256
v 0.880373 0.554843 0.324322
vn 1.183942 2.544791 -2.005064
v 0.679877 0.775227 0.295646
vn -1.187410 1.014461 -0.237537
v 0.535531 0.795650 0.339951
vn 0.245017 2.147207 2.480697
v 0.657225 0.762565 0.449193
vn 1.496676 0.224538 2.833215
v 0.838986 0.539444 0.488249
vn 0.270700 -0.919426 0.077044
v 0.838413 0.320777 0.386975
vn 3.045727 0.718584 -1.190157
v 0.892086 0.558022 0.329552
vn -1.703349 -0.026599 0.930856
v 0.460021 0.595686 0.583004
vn 0.861982 -0.195474 1.461224
v 0.481066 0.594224 0.589429
vn -0.060375 -1.999096 -0.341550
v 0.472553 0.581689 0.573347
vn -1.191348 1.370473 -0.611761
v 0.534082 0.812763 0.341102
vn 1.484212 1.187209 0.155733
v 0.555231 0.811301 0.347708
vn 0.408098 -0.425653 -1.732367
v 0.546703 0.798767 0.331470
vn 1.619838 4.364661 -4.219493
v 0.545342 0.807674 0.340145
vn -1.596491 -4.353905 4.239256
v 0.471157 0.590534 0.581960
vn -1.395440 -1.517405 -0.939778
v 0.452758 0.576983 0.587399
vn 0.487671 -1.508938 1.781353
v 0.466567 0.577491 0.605774
vn 0.911412 -0.348562 -0.590667
v 0.482978 0.581945 0.581326
vn -1.577556 0.676362 -0.347954
v 0.335534 0.888792 0.653505
vn -0.265055 0.839420 1.763696
v 0.349254 0.889300 0.671852
vn 0.929769 1.302929 -0.661029
v 0.365723 0.893691 0.647371
vn -0.904220 6.197191 0.504980
v 0.350178 0.890572 0.657546
vn 0.915103 -6.194509 -0.517025
v 0.467435 0.578763 0.591499
vn -4.368087 -1.486575 -0.181545
v 0.539961 0.786550 0.216237
vn -1.094936 -1.038567 1.664532
v 0.534511 0.806209 0.370668
vn 1.467487 -1.897312 3.837904
v 0.668465 0.774336 0.306601
vn 1.096842 -2.004160 4.172762
v 0.759065 0.559804 0.154831
vn -1.038908 -1.169126 0.944823
v 0.669364 0.349599 0.109732
vn -4.327848 -1.028432 -1.181452
v 0.635071 0.577809 0.033934
vn -1.328212 2.477701 -1.743212
v 0.543077 0.798193 0.213007
vn -0.655128 1.038809 1.042007
v 0.534511 0.818554 0.370668
vn 2.490702 2.158114 0.763359
v 0.672406 0.785469 0.302576
vn 3.457141 0.223356 -0.318796
v 0.767725 0.562348 0.145773
vn 0.168137 -0.935350 -0.236994
v 0.677179 0.343618 0.101560
vn 0.052453 0.651735 -3.058716
v 0.643652 0.580991 0.025000
vn 3.438228 -1.469252 2.529151
v 0.260496 0.865442 0.779863
vn 1.872704 -1.060731 -0.786338
v 0.346503 0.885036 0.658355
vn 0.966599 -1.829370 -4.101108
v 0.196097 0.853226 0.634415
vn 1.410725 -1.986102 -4.225227
v 0.037353 0.638632 0.705637
vn 1.402560 -1.164098 -0.194747
v 0.091514 0.428488 0.792644
vn 2.882334 -1.056578 3.264390
v 0.081489 0.656636 0.873144
vn 0.157908 2.508421 2.251687
v 0.256023 0.876958 0.780726
vn 1.145631 1.060717 -0.506219
v 0.346503 0.897381 0.658355
vn -1.613299 2.139284 -1.931095
v 0.190522 0.864298 0.635585
vn -2.928408 0.205285 -1.539322
v 0.025000 0.641175 0.708106
vn -0.264409 -0.928373 0.097765
v 0.080594 0.422445 0.794855
vn -1.802349 0.680984 2.666487
v 0.069398 0.659753 0.875543
vn -2.732243 -3.306301 -0.402484
v 0.356864 0.025000 0.574762
vn -0.362719 -3.273411 -2.699703
v 0.436450 0.025000 0.493989
vn 2.494393 -3.332302 -1.251385
v 0.539980 0.025000 0.551973
vn 1.922281 -3.264885 1.920170
v 0.524359 0.025000 0.668869
vn -1.328973 -3.314678 2.430345
v 0.411141 0.025000 0.682891
vn -1.932750 0.901189 -0.315456
v 0.277433 0.183863 0.558681
vn -0.272076 0.844390 -1.861441
v 0.422252 0.183863 0.411380
vn 1.806843 0.948066 -0.901368
v 0.610631 0.183863 0.517154
vn 1.311990 0.836721 1.332776
v 0.582248 0.183863 0.729891
vn -0.921387 0.913004 1.745864
v 0.376174 0.183863 0.755409
vn 0.000000 -6.283185 0.000000
v 0.453696 0.025000 0.594437
vn 0.000000 6.283185 0.000000
v 0.453696 0.183863 0.594437
vn -0.644808 -1.068271 1.463634
v 0.465690 0.096385 0.604503
vn 1.626451 -1.091842 -0.123474
v 0.482926 0.096385 0.592154
vn -0.848054 -0.981480 -1.213623
v 0.462999 0.096385 0.582028
vn -0.644808 1.068271 1.463634
v 0.465690 0.581689 0.604503
vn 1.626451 1.091842 -0.123474
v 0.482926 0.581689 0.592154
vn -0.848054 0.981480 -1.213623
v 0.462999 0.581689 0.582028
vn 0.000000 6.283185 0.000000
v 0.470523 0.581689 0.592956
vn 0.000000 -6.283185 0.000000
v 0.470523 0.096385 0.592956
vn -3.958447 -1.543051 1.877196
v 0.289207 0.786550 0.515857
vn -0.159691 -0.985953 1.881708
v 0.355363 0.806209 0.658852
vn 3.108974 -1.884707 2.566216
v 0.440337 0.774336 0.534872
vn 2.925571 -2.000586 3.125379
v 0.447890 0.559804 0.352411
vn -0.429852 -1.133456 1.278084
v 0.350837 0.349599 0.355506
vn -4.454647 -1.022304 1.020212
v 0.286917 0.577809 0.303405
vn -2.003757 2.496771 -0.918638
v 0.290354 0.798193 0.511413
vn -0.077040 0.986169 1.178756
v 0.355363 0.818554 0.658852
vn 2.618457 2.243565 -0.554298
v 0.441620 0.785469 0.529225
vn 2.938676 0.256771 -1.937904
v 0.451145 0.562348 0.340076
vn 0.032183 -0.921798 -0.287067
v 0.353735 0.343618 0.344260
vn -1.354713 0.653031 -2.650164
v 0.290150 0.580991 0.291165
# 96 vertices, 0 vertices normals

f 5//5 4//4 6//6
f 2//2 1//1 3//3
f 6//6 4//4 1//1
f 4//4 3//3 1//1
f 2//2 8//8 1//1
f 8//8 7//7 1//1
f 3//3 9//9 2//2
f 9//9 8//8 2//2
f 4//4 10//10 3//3
f 10//10 9//9 3//3
f 5//5 11//11 4//4
f 11//11 10//10 4//4
f 6//6 12//12 5//5
f 12//12 11//11 5//5
f 1//1 7//7 6//6
f 7//7 12//12 6//6
f 11//11 12//12 10//10
f 8//8 9//9 7//7
f 12//12 7//7 10//10
f 10//10 7//7 9//9
f 17//17 16//16 18//18
f 14//14 13//13 15//15
f 18//18 16//16 13//13
f 16//16 15//15 13//13
f 14//14 20//20 13//13
f 20//20 19//19 13//13
f 15//15 21//21 14//14
f 21//21 20//20 14//14
f 16//16 22//22 15//15
f 22//22 21//21 15//15
f 17//17 23//23 16//16
f 23//23 22//22 16//16
f 18//18 24//24 17//17
f 24//24 23//23 17//17
f 13//13 19//19 18//18
f 19//19 24//24 18//18
f 23//23 24//24 22//22
f 20//20 21//21 19//19
f 24//24 19//19 22//22
f 22//22 19//19 21//21
f 26//26 29//29 25//25
f 29//29 28//28 25//25
f 27//27 30//30 26//26
f 30//30 29//29 26//26
f 25//25 28//28 27//27
f 28//28 30//30 27//27
f 25//25 32//32 26//26
f 26//26 32//32 27//27
f 27//27 32//32 25//25
f 29//29 31//31 28//28
f 30//30 31//31 29//29
f 28//28 31//31 30//30
f 34//34 37//37 33//33
f 37//37 36//36 33//33
f 35//35 38//38 34//34
f 38//38 37//37 34//34
f 33//33 36//36 35//35
f 36//36 38//38 35//35
f 33//33 40//40 34//34
f 34//34 40//40 35//35
f 35//35 40//40 33//33
f 37//37 39//39 36//36
f 38//38 39//39 37//37
f 36//36 39//39 38//38
f 45//45 44//44 46//46
f 42//42 41//41 43//43
f 46//46 44//44 41//41
f 44//44 43//43 41//41
f 42//42 48//48 41//41
f 48//48 47//47 41//41
f 43//43 49//49 42//42
f 49//49 48//48 42//42
f 44//44 50//50 43//43
f 50//50 49//49 43//43
f 45//45 51//51 44//44
f 51//51 50//50 44//44
f 46//46 52//52 45//45
f 52//52 51//51 45//45
f 41//41 47//47 46//46
f 47//47 52//52 46//46
f 51//51 52//52 50//50
f 48//48 49//49 47//47
f 52//52 47//47 50//50
f 50//50 47//47 49//49
f 57//57 56//56 58//58
f 54//54 53//53 55//55
f 58//58 56//56 53//53
f 56//56 55//55 53//53
f 54//54 60//60 53//53
f 60//60 59//59 53//53
f 55//55 61//61 54//54
f 61//61 60//60 54//54
f 56//56 62//62 55//55
f 62//62 61//61 55//55
f 57//57 63//63 56//56
f 63//63 62//62 56//56
f 58//58 64//64 57//57
f 64//64 63//63 57//57
f 53//53 59//59 58//58
f 59//59 64//64 58//58
f 63//63 64//64 62//62
f 60//60 61//61 59//59
f 64//64 59//59 62//62
f 62//62 59//59 61//61
f 66//66 75//75 65//65
f 67//67 75//75 66//66
f 68//68 75//75 67//67
f 69//69 75//75 68//68
f 65//65 75//75 69//69
f 70//70 71//71 65//65
f 71//71 66//66 65//65
f 71//71 72//72 66//66
f 72//72 67//67 66//66
f 72//72 73//73 67//67
f 73//73 68//68 67//67
f 73//73 74//74 68//68
f 74//74 69//69 68//68
f 74//74 70//70 69//69
f 70//70 65//65 69//69
f 76//76 71//71 70//70
f 76//76 72//72 71//71
f 76//76 73//73 72//72
f 76//76 74//74 73//73
f 76//76 70//70 74//74
f 78//78 81//81 77//77
f 81//81 80//80 77//77
f 79//79 82//82 78//78
f 82//82 81//81 78//78
f 77//77 80//80 79//79
f 80//80 82//82 79//79
f 77//77 84//84 78//78
f 78//78 84//84 79//79
f 79//79 84//84 77//77
f 81//81 83//83 80//80
f 82//82 83//83 81//81
f 80//80 83//83 82//82
f 89//89 88//88 90//90
f 86//86 85//85 87//87
f 90//90 88//88 85//85
f 88//88 87//87 85//85
f 86//86 92//92 85//85
f 92//92 91//91 85//85
f 87//87 93//93 86//86
f 93//93 92//92 86//86
f 88//88 94//94 87//87
f 94//94 93//93 87//87
f 89//89 95//95 88//88
f 95//95 94//94 88//88
f 90//90 96//96 89//89
f 96//96 95//95 89//89
f 85//85 91//91 90//90
f 91//91 96//96 90//90
f 95//95 96//96 94//94
f 92//92 93//93 91//91
f 96//96 91//91 94//94
f 94//94 91//91 93//93
# 156 faces, 0 coords texture

# End of File
