####
#
# OBJ File Generated by Meshlab
#
####
# Object m993.obj
#
# Vertices: 220
# Faces: 320
#
####
vn 0.000000 -6.283185 0.000000
v 0.192551 0.025000 0.125470
vn 3.114707 -2.879749 0.000007
v 0.293021 0.025000 0.125470
vn 3.008578 -2.879809 -0.806184
v 0.289597 0.025000 0.099466
vn 2.697439 -2.879816 -1.557340
v 0.279560 0.025000 0.075235
vn 2.202449 -2.879770 -2.202418
v 0.263594 0.025000 0.054427
vn 1.557362 -2.879804 -2.697423
v 0.242786 0.025000 0.038460
vn 0.806152 -2.879783 -3.008581
v 0.218555 0.025000 0.028423
vn -0.000008 -2.879795 -3.114716
v 0.192551 0.025000 0.025000
vn -0.806139 -2.879803 -3.008589
v 0.166548 0.025000 0.028423
vn -1.557370 -2.879766 -2.697410
v 0.142316 0.025000 0.038460
vn -2.202449 -2.879824 -2.202433
v 0.121509 0.025000 0.054427
vn -2.697416 -2.879775 -1.557363
v 0.105542 0.025000 0.075235
vn -3.008589 -2.879797 -0.806133
v 0.095505 0.025000 0.099466
vn -3.114716 -2.879795 0.000007
v 0.092082 0.025000 0.125470
vn -3.008587 -2.879799 0.806145
v 0.095505 0.025000 0.151473
vn -2.697412 -2.879776 1.557370
v 0.105542 0.025000 0.175704
vn -2.202470 -2.879844 2.202419
v 0.121509 0.025000 0.196512
vn -1.557393 -2.879748 2.697392
v 0.142316 0.025000 0.212479
vn -0.806115 -2.879788 3.008592
v 0.166548 0.025000 0.222516
vn -0.000008 -2.879825 3.114722
v 0.192551 0.025000 0.225939
vn 0.806129 -2.879768 3.008584
v 0.218555 0.025000 0.222516
vn 1.557385 -2.879786 2.697406
v 0.242786 0.025000 0.212479
vn 2.202470 -2.879791 2.202403
v 0.263594 0.025000 0.196512
vn 2.697435 -2.879816 1.557347
v 0.279560 0.025000 0.175704
vn 3.008576 -2.879811 0.806195
v 0.289597 0.025000 0.151473
vn 6.201533 0.231499 0.000017
v 0.293021 0.069118 0.125470
vn 5.990230 0.231497 -1.605155
v 0.289597 0.069118 0.099466
vn 5.370736 0.231501 -3.100743
v 0.279560 0.069118 0.075235
vn 4.385183 0.231505 -4.385123
v 0.263594 0.069118 0.054427
vn 3.100787 0.231506 -5.370703
v 0.242786 0.069118 0.038460
vn 1.605089 0.231503 -5.990234
v 0.218555 0.069118 0.028423
vn -0.000015 0.231502 -6.201555
v 0.192551 0.069118 0.025000
vn -1.605064 0.231504 -5.990250
v 0.166548 0.069118 0.028423
vn -3.100798 0.231501 -5.370676
v 0.142316 0.069118 0.038460
vn -4.385189 0.231498 -4.385155
v 0.121509 0.069118 0.054427
vn -5.370689 0.231501 -3.100785
v 0.105542 0.069118 0.075235
vn -5.990251 0.231499 -1.605054
v 0.095505 0.069118 0.099466
vn -6.201555 0.231498 0.000016
v 0.092082 0.069118 0.125470
vn -5.990246 0.231501 1.605073
v 0.095505 0.069118 0.151473
vn -5.370682 0.231496 3.100799
v 0.105542 0.069118 0.175704
vn -4.385227 0.231499 4.385130
v 0.121509 0.069118 0.196512
vn -3.100845 0.231503 5.370639
v 0.142316 0.069118 0.212479
vn -1.605014 0.231504 5.990256
v 0.166548 0.069118 0.222516
vn -0.000016 0.231505 6.201569
v 0.192551 0.069118 0.225939
vn 1.605041 0.231504 5.990239
v 0.218555 0.069118 0.222516
vn 3.100830 0.231503 5.370668
v 0.242786 0.069118 0.212479
vn 4.385226 0.231501 4.385095
v 0.263594 0.069118 0.196512
vn 5.370728 0.231497 3.100758
v 0.279560 0.069118 0.175704
vn 5.990226 0.231500 1.605173
v 0.289597 0.069118 0.151473
vn 3.125449 3.114224 0.000014
v 0.272154 0.347354 0.125470
vn 3.018939 3.114143 -0.808932
v 0.269442 0.347354 0.104867
vn 2.706709 3.114222 -1.562741
v 0.261489 0.347354 0.085668
vn 2.210002 3.114151 -2.210036
v 0.248839 0.347354 0.069182
vn 1.562715 3.114240 -2.706725
v 0.232352 0.347354 0.056532
vn 0.808949 3.114173 -3.018938
v 0.213154 0.347354 0.048579
vn -0.000000 3.114195 -3.125445
v 0.192551 0.347354 0.045867
vn -0.808951 3.114169 -3.018938
v 0.171948 0.347354 0.048579
vn -1.562711 3.114239 -2.706728
v 0.152750 0.347354 0.056532
vn -2.210005 3.114150 -2.210033
v 0.136263 0.347354 0.069182
vn -2.706737 3.114177 -1.562681
v 0.123613 0.347354 0.085668
vn -3.018950 3.114236 -0.808938
v 0.115661 0.347354 0.104867
vn -3.125437 3.114127 0.000013
v 0.112948 0.347354 0.125470
vn -3.018951 3.114242 0.808941
v 0.115661 0.347354 0.146072
vn -2.706733 3.114174 1.562686
v 0.123613 0.347354 0.165271
vn -2.210032 3.114182 2.210014
v 0.136263 0.347354 0.181757
vn -1.562724 3.114182 2.706712
v 0.152750 0.347354 0.194408
vn -0.808888 3.114174 3.018955
v 0.171948 0.347354 0.202360
vn -0.000001 3.114235 3.125450
v 0.192551 0.347354 0.205072
vn 0.808888 3.114177 3.018955
v 0.213154 0.347354 0.202360
vn 1.562722 3.114188 2.706714
v 0.232352 0.347354 0.194408
vn 2.210033 3.114189 2.210012
v 0.248839 0.347354 0.181757
vn 2.706705 3.114218 1.562747
v 0.261489 0.347354 0.165271
vn 3.018940 3.114148 0.808934
v 0.269442 0.347354 0.146072
vn 0.000000 6.283185 0.000000
v 0.192551 0.347354 0.125470
vn 0.000000 1.554607 -1.586821
v 0.142977 0.351705 0.073432
vn 0.000000 -1.586820 -1.554606
v 0.142977 0.346829 0.073482
vn 0.000005 -1.554701 1.586823
v 0.142977 0.346879 0.078358
vn 0.000005 1.586721 1.554608
v 0.142977 0.351755 0.078308
vn -0.000000 1.554607 -1.586822
v 0.242125 0.351705 0.073432
vn 0.000000 -1.586820 -1.554606
v 0.242125 0.346829 0.073482
vn 0.000000 -1.554607 1.586822
v 0.242125 0.346879 0.078358
vn 0.000000 1.586820 1.554606
v 0.242125 0.351755 0.078308
vn -1.960612 -1.044414 0.000000
v 0.139934 0.347671 0.175044
vn 1.044414 -1.960612 0.000000
v 0.144598 0.346249 0.175044
vn 1.960612 1.044414 0.000000
v 0.146020 0.350913 0.175044
vn -1.044414 1.960612 0.000000
v 0.141356 0.352335 0.175044
vn -1.960612 -1.044414 0.000000
v 0.139934 0.347671 0.075895
vn 1.044414 -1.960612 0.000000
v 0.144598 0.346249 0.075895
vn 1.960612 1.044414 0.000000
v 0.146020 0.350913 0.075895
vn -1.044414 1.960612 0.000000
v 0.141356 0.352335 0.075895
vn 0.000000 -1.554607 1.586820
v 0.242125 0.346879 0.177507
vn 0.000000 -1.586820 -1.554607
v 0.242125 0.346829 0.172631
vn 0.000000 1.554607 -1.586820
v 0.242125 0.351705 0.172581
vn 0.000000 1.586820 1.554607
v 0.242125 0.351755 0.177457
vn 0.000000 -1.554607 1.586820
v 0.142977 0.346879 0.177507
vn 0.000000 -1.586820 -1.554607
v 0.142977 0.346829 0.172631
vn 0.000000 1.554607 -1.586820
v 0.142977 0.351705 0.172581
vn 0.000000 1.586820 1.554607
v 0.142977 0.351755 0.177457
vn 1.960702 1.044709 0.000000
v 0.245168 0.350913 0.075895
vn 1.044504 -1.960318 0.000000
v 0.243747 0.346249 0.075895
vn -1.960702 -1.044709 0.000000
v 0.239083 0.347671 0.075895
vn -1.044504 1.960318 0.000000
v 0.240504 0.352335 0.075895
vn 1.960702 1.044709 0.000000
v 0.245168 0.350913 0.175044
vn 1.044504 -1.960318 0.000000
v 0.243747 0.346249 0.175044
vn -1.960702 -1.044709 0.000000
v 0.239083 0.347671 0.175044
vn -1.044504 1.960318 0.000000
v 0.240504 0.352335 0.175044
vn 0.000000 1.554636 -1.587145
v 0.167764 0.596148 0.098220
vn 0.000000 -1.586791 -1.554928
v 0.167764 0.591272 0.098269
vn 0.000000 -1.554617 1.586500
v 0.167764 0.591321 0.103145
vn 0.000000 1.586810 1.554283
v 0.167764 0.596199 0.103095
vn 0.000000 1.554636 -1.587145
v 0.217338 0.596148 0.098220
vn 0.000000 -1.586791 -1.554928
v 0.217338 0.591272 0.098269
vn 0.000000 -1.554617 1.586500
v 0.217338 0.591321 0.103145
vn 0.000000 1.586810 1.554283
v 0.217338 0.596199 0.103095
vn 3.983011 0.205493 1.956483
v 0.220430 0.593896 0.102201
vn 1.916023 0.596266 -3.964104
v 0.218825 0.594200 0.097606
vn -3.983655 -0.205523 -1.956791
v 0.214247 0.593576 0.099164
vn -0.958370 -0.298188 1.982293
v 0.215851 0.593272 0.103758
vn 1.991787 0.102741 0.978593
v 0.245217 0.349452 0.077414
vn 0.958236 0.298121 -1.981789
v 0.243613 0.349755 0.072819
vn -1.991840 -0.102757 -0.978508
v 0.239034 0.349133 0.074377
vn -0.958172 -0.298098 1.981614
v 0.240638 0.348829 0.078971
vn -1.783059 0.311372 -1.287610
v 0.140209 0.349775 0.073897
vn 1.305780 0.049754 -1.796446
v 0.145004 0.349369 0.073107
vn 1.783277 -0.311400 1.287637
v 0.145745 0.348809 0.077894
vn -1.305999 -0.049732 1.796417
v 0.140950 0.349215 0.078684
vn -3.566435 0.622790 -2.575334
v 0.164996 0.594217 0.098684
vn 2.611678 0.099503 -3.592955
v 0.169791 0.593813 0.097894
vn 3.566493 -0.622772 2.575114
v 0.170532 0.593251 0.102681
vn -2.611616 -0.099484 3.592727
v 0.165737 0.593658 0.103471
vn -1.960345 -1.044594 0.000000
v 0.164721 0.592114 0.150257
vn 1.044736 -1.960612 0.000000
v 0.169385 0.590693 0.150257
vn 1.960345 1.044594 0.000000
v 0.170807 0.595358 0.150257
vn -1.044736 1.960612 0.000000
v 0.166143 0.596779 0.150257
vn -1.960345 -1.044594 0.000000
v 0.164721 0.592114 0.100682
vn 1.044736 -1.960612 0.000000
v 0.169385 0.590693 0.100682
vn 1.960345 1.044594 0.000000
v 0.170807 0.595358 0.100682
vn -1.044736 1.960612 0.000000
v 0.166143 0.596779 0.100682
vn -1.914801 0.080230 -1.123553
v 0.140005 0.349417 0.173300
vn 1.104206 -0.305017 -1.903732
v 0.144690 0.348819 0.172090
vn 1.914620 -0.080260 1.123143
v 0.145949 0.349167 0.176787
vn -1.103791 0.304922 1.903279
v 0.141263 0.349765 0.177998
vn -1.915576 0.080317 -1.123542
v 0.164792 0.593858 0.148513
vn 2.207671 -0.609922 -3.807206
v 0.169477 0.593262 0.147302
vn 3.829773 -0.160566 2.246327
v 0.170736 0.593610 0.152000
vn -2.207575 0.609878 3.806861
v 0.166051 0.594210 0.153211
vn 0.000000 -1.554617 1.586498
v 0.217338 0.591321 0.152720
vn 0.000000 -1.586824 -1.554929
v 0.217338 0.591272 0.147844
vn 0.000000 1.554604 -1.587142
v 0.217338 0.596148 0.147794
vn 0.000000 1.586810 1.554285
v 0.217338 0.596199 0.152670
vn 0.000000 -1.554617 1.586498
v 0.167764 0.591321 0.152720
vn 0.000000 -1.586824 -1.554929
v 0.167764 0.591272 0.147844
vn 0.000000 1.554604 -1.587142
v 0.167764 0.596148 0.147794
vn 0.000000 1.586810 1.554285
v 0.167764 0.596199 0.152670
vn -2.045606 -0.290220 -0.816426
v 0.238951 0.348842 0.173777
vn 0.837159 -0.123369 -2.053805
v 0.243425 0.349101 0.171856
vn 2.045671 0.290224 0.816448
v 0.245300 0.349743 0.176311
vn -0.837223 0.123356 2.053784
v 0.240826 0.349484 0.178232
vn -4.090834 -0.580356 -1.632459
v 0.214163 0.593286 0.148990
vn 1.674624 -0.246716 -4.107651
v 0.218638 0.593545 0.147069
vn 4.091286 0.580450 1.632902
v 0.220513 0.594186 0.151524
vn -1.674167 0.246811 4.108092
v 0.216039 0.593927 0.153445
vn 1.960435 1.044889 0.000000
v 0.220381 0.595358 0.100682
vn 1.044916 -1.960345 0.000000
v 0.218960 0.590693 0.100682
vn -1.960255 -1.044621 0.000000
v 0.214295 0.592114 0.100682
vn -1.044736 1.960612 0.000000
v 0.215717 0.596779 0.100682
vn 1.960435 1.044889 0.000000
v 0.220381 0.595358 0.150257
vn 1.044916 -1.960345 0.000000
v 0.218960 0.590693 0.150257
vn -1.960255 -1.044621 0.000000
v 0.214295 0.592114 0.150257
vn -1.044736 1.960612 0.000000
v 0.215717 0.596779 0.150257
vn 1.991624 0.102813 0.977730
v 0.195643 0.838339 0.126988
vn 0.958266 0.298136 -1.981840
v 0.194038 0.838642 0.122394
vn -1.991885 -0.102726 -0.978835
v 0.189460 0.838018 0.123951
vn -0.957901 -0.298120 1.982056
v 0.191064 0.837715 0.128546
vn -0.958309 -0.298110 1.981503
v 0.215851 0.593272 0.103758
vn -1.783005 0.311379 -1.287729
v 0.189784 0.838663 0.123471
vn 1.305426 0.049805 -1.796595
v 0.194578 0.838256 0.122681
vn 1.783566 -0.311433 1.287700
v 0.195319 0.837694 0.127468
vn -1.306179 -0.049671 1.796018
v 0.190524 0.838101 0.128258
vn -1.914101 0.080204 -1.123141
v 0.164792 0.593858 0.148513
vn -1.914765 0.080307 -1.122811
v 0.189579 0.838304 0.123726
vn 1.103847 -0.304973 -1.903667
v 0.194265 0.837704 0.122515
vn 1.915052 -0.080229 1.123923
v 0.195523 0.838053 0.127213
vn -1.103815 0.304908 1.903111
v 0.190838 0.838653 0.128424
vn -2.045169 -0.290124 -0.815987
v 0.189376 0.837729 0.124203
vn 0.837034 -0.123394 -2.053921
v 0.193851 0.837987 0.122282
vn 2.045654 0.290246 0.816662
v 0.195726 0.838628 0.126737
vn -0.837507 0.123374 2.054152
v 0.191252 0.838370 0.128657
vn 0.209609 -0.475570 0.349254
v 0.186303 0.316345 0.174371
vn 0.215201 -0.488589 -0.355599
v 0.186037 0.316787 0.077356
vn 3.297337 1.552199 2.735147
v 0.029825 0.967400 0.125164
vn 3.423657 1.573015 -2.716348
v 0.029816 0.967414 0.121982
vn -2.371748 -0.926888 2.740247
v 0.184391 0.319209 0.174333
vn -2.241903 -0.905398 -2.711663
v 0.184124 0.319651 0.077318
vn -0.232460 0.535288 0.355303
v 0.027913 0.970262 0.125127
vn -0.227209 0.522776 -0.349939
v 0.027904 0.970276 0.121945
vn -2.372292 -0.614722 2.658616
v 0.068387 0.502081 0.175338
vn 0.216799 -0.482628 0.397401
v 0.182360 0.322555 0.177560
vn -0.227203 0.702661 0.390146
v 0.025711 0.973880 0.125307
vn 3.369110 1.578764 2.647465
v 0.029449 0.967992 0.125380
vn -3.406202 -1.351437 -2.532908
v 0.068418 0.501883 0.173680
vn 0.190508 -0.475907 -0.275821
v 0.182391 0.322358 0.175903
vn -0.251280 0.692229 -0.566686
v 0.025742 0.973681 0.123649
vn 2.338243 0.823775 -2.827392
v 0.029480 0.967793 0.123722
vn -2.243177 -0.621757 -2.587117
v 0.063835 0.509274 0.074973
vn -2.372707 -0.643597 2.621490
v 0.064102 0.508832 0.171988
vn -0.230843 0.721648 -0.456040
v 0.025000 0.975000 0.121888
vn -0.234952 0.735207 0.463371
v 0.025009 0.974985 0.125070
vn 0.212965 -0.644571 -0.463765
v 0.065819 0.506001 0.075011
vn 0.208980 -0.631192 0.455995
v 0.066086 0.505559 0.172027
vn 3.575460 1.268436 -2.594263
v 0.026984 0.971725 0.121927
vn 3.444979 1.246357 2.614328
v 0.026993 0.971710 0.125109
vn 0.222456 -0.495558 -0.405063
v 0.182198 0.322834 0.074355
vn -2.243566 -0.593987 -2.622156
v 0.068225 0.502360 0.072133
vn 3.495958 1.600176 -2.623139
v 0.029561 0.967816 0.122095
vn -0.223377 0.689898 -0.384971
v 0.025823 0.973704 0.122022
vn 0.186621 -0.465446 0.272363
v 0.182238 0.322622 0.076014
vn -3.533125 -1.374810 2.510865
v 0.068265 0.502148 0.073791
vn 2.210878 0.805532 2.794188
v 0.029601 0.967602 0.123753
vn -0.256648 0.707583 0.577018
v 0.025863 0.973490 0.123681
# 220 vertices, 0 vertices normals

f 1//1 3//3 2//2
f 1//1 4//4 3//3
f 1//1 5//5 4//4
f 1//1 6//6 5//5
f 1//1 7//7 6//6
f 1//1 8//8 7//7
f 1//1 9//9 8//8
f 1//1 10//10 9//9
f 1//1 11//11 10//10
f 1//1 12//12 11//11
f 1//1 13//13 12//12
f 1//1 14//14 13//13
f 1//1 15//15 14//14
f 1//1 16//16 15//15
f 1//1 17//17 16//16
f 1//1 18//18 17//17
f 1//1 19//19 18//18
f 1//1 20//20 19//19
f 1//1 21//21 20//20
f 1//1 22//22 21//21
f 1//1 23//23 22//22
f 1//1 24//24 23//23
f 1//1 25//25 24//24
f 1//1 2//2 25//25
f 2//2 27//27 26//26
f 2//2 3//3 27//27
f 3//3 28//28 27//27
f 3//3 4//4 28//28
f 4//4 29//29 28//28
f 4//4 5//5 29//29
f 5//5 30//30 29//29
f 5//5 6//6 30//30
f 6//6 31//31 30//30
f 6//6 7//7 31//31
f 7//7 32//32 31//31
f 7//7 8//8 32//32
f 8//8 33//33 32//32
f 8//8 9//9 33//33
f 9//9 34//34 33//33
f 9//9 10//10 34//34
f 10//10 35//35 34//34
f 10//10 11//11 35//35
f 11//11 36//36 35//35
f 11//11 12//12 36//36
f 12//12 37//37 36//36
f 12//12 13//13 37//37
f 13//13 38//38 37//37
f 13//13 14//14 38//38
f 14//14 39//39 38//38
f 14//14 15//15 39//39
f 15//15 40//40 39//39
f 15//15 16//16 40//40
f 16//16 41//41 40//40
f 16//16 17//17 41//41
f 17//17 42//42 41//41
f 17//17 18//18 42//42
f 18//18 43//43 42//42
f 18//18 19//19 43//43
f 19//19 44//44 43//43
f 19//19 20//20 44//44
f 20//20 45//45 44//44
f 20//20 21//21 45//45
f 21//21 46//46 45//45
f 21//21 22//22 46//46
f 22//22 47//47 46//46
f 22//22 23//23 47//47
f 23//23 48//48 47//47
f 23//23 24//24 48//48
f 24//24 49//49 48//48
f 24//24 25//25 49//49
f 25//25 26//26 49//49
f 25//25 2//2 26//26
f 26//26 51//51 50//50
f 26//26 27//27 51//51
f 27//27 52//52 51//51
f 27//27 28//28 52//52
f 28//28 53//53 52//52
f 28//28 29//29 53//53
f 29//29 54//54 53//53
f 29//29 30//30 54//54
f 30//30 55//55 54//54
f 30//30 31//31 55//55
f 31//31 56//56 55//55
f 31//31 32//32 56//56
f 32//32 57//57 56//56
f 32//32 33//33 57//57
f 33//33 58//58 57//57
f 33//33 34//34 58//58
f 34//34 59//59 58//58
f 34//34 35//35 59//59
f 35//35 60//60 59//59
f 35//35 36//36 60//60
f 36//36 61//61 60//60
f 36//36 37//37 61//61
f 37//37 62//62 61//61
f 37//37 38//38 62//62
f 38//38 63//63 62//62
f 38//38 39//39 63//63
f 39//39 64//64 63//63
f 39//39 40//40 64//64
f 40//40 65//65 64//64
f 40//40 41//41 65//65
f 41//41 66//66 65//65
f 41//41 42//42 66//66
f 42//42 67//67 66//66
f 42//42 43//43 67//67
f 43//43 68//68 67//67
f 43//43 44//44 68//68
f 44//44 69//69 68//68
f 44//44 45//45 69//69
f 45//45 70//70 69//69
f 45//45 46//46 70//70
f 46//46 71//71 70//70
f 46//46 47//47 71//71
f 47//47 72//72 71//71
f 47//47 48//48 72//72
f 48//48 73//73 72//72
f 48//48 49//49 73//73
f 49//49 50//50 73//73
f 49//49 26//26 50//50
f 74//74 50//50 51//51
f 74//74 51//51 52//52
f 74//74 52//52 53//53
f 74//74 53//53 54//54
f 74//74 54//54 55//55
f 74//74 55//55 56//56
f 74//74 56//56 57//57
f 74//74 57//57 58//58
f 74//74 58//58 59//59
f 74//74 59//59 60//60
f 74//74 60//60 61//61
f 74//74 61//61 62//62
f 74//74 62//62 63//63
f 74//74 63//63 64//64
f 74//74 64//64 65//65
f 74//74 65//65 66//66
f 74//74 66//66 67//67
f 74//74 67//67 68//68
f 74//74 68//68 69//69
f 74//74 69//69 70//70
f 74//74 70//70 71//71
f 74//74 71//71 72//72
f 74//74 72//72 73//73
f 74//74 73//73 50//50
f 80//80 75//75 79//79
f 75//75 80//80 76//76
f 81//81 76//76 80//80
f 76//76 81//81 77//77
f 82//82 77//77 81//81
f 77//77 82//82 78//78
f 79//79 78//78 82//82
f 78//78 79//79 75//75
f 88//88 83//83 87//87
f 83//83 88//88 84//84
f 89//89 84//84 88//88
f 84//84 89//89 85//85
f 90//90 85//85 89//89
f 85//85 90//90 86//86
f 87//87 86//86 90//90
f 86//86 87//87 83//83
f 96//96 91//91 95//95
f 91//91 96//96 92//92
f 97//97 92//92 96//96
f 92//92 97//97 93//93
f 98//98 93//93 97//97
f 93//93 98//98 94//94
f 95//95 94//94 98//98
f 94//94 95//95 91//91
f 104//104 99//99 103//103
f 99//99 104//104 100//100
f 105//105 100//100 104//104
f 100//100 105//105 101//101
f 106//106 101//101 105//105
f 101//101 106//106 102//102
f 103//103 102//102 106//106
f 102//102 103//103 99//99
f 112//112 107//107 111//111
f 107//107 112//112 108//108
f 113//113 108//108 112//112
f 108//108 113//113 109//109
f 114//114 109//109 113//113
f 109//109 114//114 110//110
f 111//111 110//110 114//114
f 110//110 111//111 107//107
f 120//120 115//115 119//119
f 115//115 120//120 116//116
f 121//121 116//116 120//120
f 116//116 121//121 117//117
f 122//122 117//117 121//121
f 117//117 122//122 118//118
f 119//119 118//118 122//122
f 118//118 119//119 115//115
f 128//128 123//123 127//127
f 123//123 128//128 124//124
f 129//129 124//124 128//128
f 124//124 129//129 125//125
f 130//130 125//125 129//129
f 125//125 130//130 126//126
f 127//127 126//126 130//130
f 126//126 127//127 123//123
f 136//136 131//131 135//135
f 131//131 136//136 132//132
f 137//137 132//132 136//136
f 132//132 137//137 133//133
f 138//138 133//133 137//137
f 133//133 138//138 134//134
f 135//135 134//134 138//138
f 134//134 135//135 131//131
f 144//144 139//139 143//143
f 139//139 144//144 140//140
f 145//145 140//140 144//144
f 140//140 145//145 141//141
f 146//146 141//141 145//145
f 141//141 146//146 142//142
f 143//143 142//142 146//146
f 142//142 143//143 139//139
f 152//152 147//147 151//151
f 147//147 152//152 148//148
f 153//153 148//148 152//152
f 148//148 153//153 149//149
f 154//154 149//149 153//153
f 149//149 154//154 150//150
f 151//151 150//150 154//154
f 150//150 151//151 147//147
f 160//160 155//155 159//159
f 155//155 160//160 156//156
f 161//161 156//156 160//160
f 156//156 161//161 157//157
f 162//162 157//157 161//161
f 157//157 162//162 158//158
f 159//159 158//158 162//162
f 158//158 159//159 155//155
f 168//168 163//163 167//167
f 163//163 168//168 164//164
f 169//169 164//164 168//168
f 164//164 169//169 165//165
f 170//170 165//165 169//169
f 165//165 170//170 166//166
f 167//167 166//166 170//170
f 166//166 167//167 163//163
f 116//116 171//171 115//115
f 171//171 116//116 172//172
f 117//117 172//172 116//116
f 172//172 117//117 173//173
f 175//175 173//173 117//117
f 173//173 175//175 174//174
f 115//115 174//174 175//175
f 174//174 115//115 171//171
f 177//177 127//127 176//176
f 127//127 177//177 128//128
f 178//178 128//128 177//177
f 128//128 178//178 129//129
f 179//179 129//129 178//178
f 129//129 179//179 130//130
f 176//176 130//130 179//179
f 130//130 176//176 127//127
f 182//182 180//180 181//181
f 180//180 182//182 144//144
f 183//183 144//144 182//182
f 144//144 183//183 145//145
f 184//184 145//145 183//183
f 145//145 184//184 146//146
f 181//181 146//146 184//184
f 146//146 181//181 180//180
f 186//186 159//159 185//185
f 159//159 186//186 160//160
f 187//187 160//160 186//186
f 160//160 187//187 161//161
f 188//188 161//161 187//187
f 161//161 188//188 162//162
f 185//185 162//162 188//188
f 162//162 185//185 159//159
f 191//191 189//189 192//192
f 190//190 192//192 189//189
f 194//194 193//193 196//196
f 195//195 196//196 193//193
f 190//190 189//189 194//194
f 193//193 194//194 189//189
f 192//192 190//190 196//196
f 194//194 196//196 190//190
f 191//191 192//192 195//195
f 196//196 195//195 192//192
f 189//189 191//191 193//193
f 195//195 193//193 191//191
f 199//199 197//197 200//200
f 198//198 200//200 197//197
f 202//202 201//201 204//204
f 203//203 204//204 201//201
f 198//198 197//197 202//202
f 201//201 202//202 197//197
f 200//200 198//198 204//204
f 202//202 204//204 198//198
f 199//199 200//200 203//203
f 204//204 203//203 200//200
f 197//197 199//199 201//201
f 203//203 201//201 199//199
f 207//207 205//205 208//208
f 206//206 208//208 205//205
f 210//210 209//209 212//212
f 211//211 212//212 209//209
f 206//206 205//205 210//210
f 209//209 210//210 205//205
f 208//208 206//206 212//212
f 210//210 212//212 206//206
f 207//207 208//208 211//211
f 212//212 211//211 208//208
f 205//205 207//207 209//209
f 211//211 209//209 207//207
f 215//215 213//213 216//216
f 214//214 216//216 213//213
f 218//218 217//217 220//220
f 219//219 220//220 217//217
f 214//214 213//213 218//218
f 217//217 218//218 213//213
f 216//216 214//214 220//220
f 218//218 220//220 214//214
f 215//215 216//216 219//219
f 220//220 219//219 216//216
f 213//213 215//215 217//217
f 219//219 217//217 215//215
# 320 faces, 0 coords texture

# End of File
