####
#
# OBJ File Generated by Meshlab
#
####
# Object m1312.obj
#
# Vertices: 222
# Faces: 368
#
####
vn 4.865078 3.157992 -0.189743
v 0.511570 0.213975 0.756029
vn 5.587793 0.000081 0.945128
v 0.516362 0.202406 0.756029
vn 0.000001 0.000075 1.350540
v 0.500000 0.202406 0.816688
vn -5.587792 0.000084 0.945123
v 0.483638 0.202406 0.756029
vn -4.871260 3.148336 -0.190472
v 0.488430 0.213975 0.756029
vn -4.864990 -3.158115 -0.189662
v 0.488430 0.190836 0.756029
vn 4.871174 -3.148454 -0.190396
v 0.511570 0.190836 0.756029
vn 3.786234 3.990287 -0.805103
v 0.566556 0.238135 0.189190
vn 5.488043 0.220185 -0.784652
v 0.594125 0.171578 0.170554
vn 5.265415 -0.121030 1.135932
v 0.594627 0.171578 0.324982
vn 3.977389 3.825997 0.735247
v 0.566911 0.238490 0.324982
vn -0.008554 5.515745 -0.807226
v 0.500000 0.265704 0.197471
vn 0.000194 5.620612 0.524989
v 0.500000 0.266206 0.324982
vn -3.771420 3.970999 -0.845722
v 0.433443 0.238135 0.189190
vn -3.977404 3.826286 0.735956
v 0.433088 0.238490 0.324982
vn -5.424707 0.225473 -0.882761
v 0.405874 0.171578 0.170554
vn -5.265689 -0.121047 1.136861
v 0.405372 0.171578 0.324982
vn -3.308673 -3.725838 -0.997141
v 0.433443 0.105022 0.147468
vn -2.961914 -3.692166 1.333816
v 0.433088 0.104667 0.324982
vn 0.041973 -5.924745 -0.883855
v 0.500000 0.091947 0.147468
vn -0.032661 -5.517554 1.548637
v 0.500000 0.091445 0.324982
vn 3.256485 -3.861482 -0.937057
v 0.566556 0.105022 0.147468
vn 3.002268 -3.705848 1.299838
v 0.566911 0.104667 0.324982
vn -3.129083 -3.559830 -2.768375
v 0.452937 0.124516 0.080910
vn -4.470592 -0.241636 -2.639941
v 0.433443 0.161226 0.080910
vn 0.065521 -5.214606 -2.629481
v 0.500000 0.111234 0.080910
vn 2.957753 -3.705020 -2.856928
v 0.547063 0.124516 0.080910
vn 4.496639 -0.135830 -2.875178
v 0.566556 0.161226 0.080910
vn 0.000006 -0.384533 -3.229123
v 0.500000 0.154624 0.025000
vn 5.784682 0.204840 1.554450
v 0.541574 0.202406 0.437770
vn 4.019449 4.229195 1.025827
v 0.529398 0.231804 0.437770
vn -0.000019 5.829211 0.814134
v 0.500000 0.243980 0.437770
vn -4.019416 4.229224 1.025827
v 0.470602 0.231804 0.437770
vn -5.784676 0.204802 1.554492
v 0.458426 0.202406 0.437770
vn -4.042305 -3.984091 1.980907
v 0.470602 0.173008 0.437770
vn -0.102447 -5.657060 2.084205
v 0.500000 0.160831 0.437770
vn 4.095746 -3.902426 2.067703
v 0.529398 0.173008 0.437770
vn 0.020719 4.803374 -3.016384
v 0.500000 0.218767 0.756029
vn -0.020732 -4.804030 -3.015843
v 0.500000 0.186044 0.756029
vn 3.175555 3.195089 -2.949727
v 0.547063 0.208289 0.080910
vn -0.021053 4.476298 -2.941527
v 0.500000 0.227783 0.080910
vn -3.195569 3.171356 -2.865766
v 0.452937 0.208289 0.080910
vn 0.007129 2.597054 -0.567666
v 0.500000 0.311245 0.807988
vn 3.596143 2.119360 -0.865733
v 0.505785 0.306115 0.807988
vn -0.001797 0.163561 0.730735
v 0.500000 0.293730 0.839692
vn -3.650768 2.138222 -0.813885
v 0.494215 0.306115 0.807988
vn -0.007136 -2.597358 -0.567482
v 0.500000 0.093614 0.807988
vn -3.596668 -2.119624 -0.865315
v 0.494215 0.098744 0.807988
vn 0.001798 -0.163504 0.730681
v 0.500000 0.111129 0.839692
vn 3.651325 -2.138485 -0.813415
v 0.505785 0.098744 0.807988
vn -2.104654 -1.355682 -4.996972
v 0.584293 0.077099 0.170498
vn -0.870942 -0.859274 -2.624077
v 0.550719 0.111129 0.170498
vn -2.142334 -2.116876 0.001232
v 0.548499 0.106779 0.178635
vn -4.785151 -3.107807 0.006639
v 0.580317 0.074618 0.178635
vn 2.418408 1.528390 -4.351435
v 0.592161 0.082111 0.170498
vn 1.103625 1.071825 -2.099879
v 0.554943 0.120199 0.170498
vn 4.241382 2.685818 -0.004108
v 0.596050 0.084630 0.178635
vn 1.689220 1.644350 -0.001835
v 0.556949 0.124918 0.178635
vn 2.417780 1.527006 4.356788
v 0.592161 0.082111 0.186773
vn 1.098926 1.073816 2.103243
v 0.554943 0.120199 0.186773
vn -2.105845 -1.362206 4.991864
v 0.584293 0.077099 0.186773
vn -0.870279 -0.860652 2.623235
v 0.550719 0.111129 0.186773
vn -1.138636 -0.443907 -2.600836
v 0.597027 0.043920 0.170498
vn -2.877047 -1.116570 0.006452
v 0.592328 0.043920 0.178635
vn 1.439219 0.537459 -2.044347
v 0.606423 0.043920 0.170498
vn 2.301221 0.855055 -0.001680
v 0.611121 0.043920 0.178635
vn 1.439135 0.533344 2.047110
v 0.606423 0.043920 0.186773
vn -1.142839 -0.438612 2.597144
v 0.597027 0.043920 0.186773
vn -2.104645 -1.355636 -4.997020
v 0.584293 0.077099 0.287956
vn -0.870978 -0.859309 -2.624020
v 0.550719 0.111129 0.287956
vn -2.142359 -2.116863 0.001391
v 0.548499 0.106779 0.296094
vn -4.784940 -3.107753 0.006973
v 0.580316 0.074618 0.296094
vn 2.418464 1.528426 -4.351272
v 0.592161 0.082111 0.287956
vn 1.103648 1.071847 -2.099788
v 0.554943 0.120199 0.287956
vn 4.241382 2.685818 -0.003859
v 0.596050 0.084630 0.296094
vn 1.689220 1.644350 -0.001728
v 0.556949 0.124918 0.296094
vn 2.417723 1.526970 4.356950
v 0.592161 0.082111 0.304231
vn 1.098904 1.073794 2.103335
v 0.554943 0.120199 0.304231
vn -2.105667 -1.362103 4.992154
v 0.584293 0.077099 0.304231
vn -0.870252 -0.860602 2.623301
v 0.550719 0.111129 0.304231
vn -1.138663 -0.443948 -2.600797
v 0.597027 0.043920 0.287956
vn -2.877043 -1.116622 0.006655
v 0.592328 0.043920 0.296094
vn 1.439246 0.537469 -2.044261
v 0.606423 0.043920 0.287956
vn 2.301221 0.855055 -0.001570
v 0.611121 0.043920 0.296094
vn 1.439108 0.533334 2.047196
v 0.606423 0.043920 0.304231
vn -1.142794 -0.438594 2.597199
v 0.597027 0.043920 0.304231
vn 2.110078 -1.258434 5.043931
v 0.415362 0.077099 0.304231
vn 0.870942 -0.859274 2.623986
v 0.448936 0.111129 0.304231
vn 2.142359 -2.116863 -0.001217
v 0.451156 0.106779 0.296094
vn 4.932121 -2.919318 -0.001782
v 0.419339 0.074618 0.296094
vn -2.476325 1.452704 4.295724
v 0.407494 0.082111 0.304231
vn -1.103700 1.071919 2.099921
v 0.444711 0.120199 0.304231
vn -4.250350 2.522916 0.001633
v 0.403604 0.084630 0.296094
vn -1.689185 1.644320 0.001821
v 0.442706 0.124918 0.296094
vn -2.479218 1.447231 -4.297492
v 0.407494 0.082111 0.287956
vn -1.099037 1.073896 -2.103259
v 0.444711 0.120199 0.287956
vn 2.111567 -1.258616 -5.042474
v 0.415362 0.077099 0.287956
vn 0.870287 -0.860637 -2.623153
v 0.448936 0.111129 0.287956
vn 1.194432 -0.360839 2.553902
v 0.405362 0.043920 0.304231
vn 2.875189 -0.868017 -0.000670
v 0.410060 0.043920 0.296094
vn -1.437552 0.433926 2.107809
v 0.395966 0.043920 0.304231
vn -2.388336 0.722560 -0.000588
v 0.391267 0.043920 0.296094
vn -1.437715 0.435463 -2.106694
v 0.395966 0.043920 0.287956
vn 1.194962 -0.360151 -2.553371
v 0.405362 0.043920 0.287956
vn 2.110156 -1.258480 5.043809
v 0.415362 0.077099 0.186773
vn 0.870978 -0.859309 2.623929
v 0.448936 0.111129 0.186773
vn 2.142359 -2.116863 -0.001391
v 0.451156 0.106779 0.178635
vn 4.932121 -2.919317 -0.002113
v 0.419339 0.074618 0.178635
vn -2.476380 1.452737 4.295559
v 0.407494 0.082111 0.186773
vn -1.103722 1.071941 2.099829
v 0.444711 0.120199 0.186773
vn -4.250350 2.522916 0.001390
v 0.403604 0.084630 0.178635
vn -1.689185 1.644320 0.001714
v 0.442706 0.124918 0.178635
vn -2.479164 1.447198 -4.297656
v 0.407494 0.082111 0.170498
vn -1.099014 1.073874 -2.103350
v 0.444711 0.120199 0.170498
vn 2.111489 -1.258570 -5.042596
v 0.415362 0.077099 0.170498
vn 0.870252 -0.860602 -2.623211
v 0.448936 0.111129 0.170498
vn 1.194478 -0.360853 2.553843
v 0.405362 0.043920 0.186773
vn 2.875189 -0.868017 -0.000840
v 0.410060 0.043920 0.178635
vn -1.437583 0.433935 2.107724
v 0.395966 0.043920 0.186773
vn -2.388336 0.722560 -0.000705
v 0.391267 0.043920 0.178635
vn -1.437685 0.435454 -2.106779
v 0.395966 0.043920 0.170498
vn 1.194917 -0.360137 -2.553429
v 0.405362 0.043920 0.170498
vn -1.749010 3.029489 -1.979433
v 0.394289 0.050390 0.120020
vn -1.748889 3.029279 1.979505
v 0.394289 0.050390 0.350239
vn -3.497753 0.000000 1.979421
v 0.386959 0.037695 0.350239
vn -3.497995 -0.000000 -1.979349
v 0.386959 0.037695 0.120020
vn 1.749058 3.029355 -1.979385
v 0.408948 0.050390 0.120020
vn 1.748937 3.029146 1.979458
v 0.408948 0.050390 0.350239
vn 3.498131 -0.000000 -1.979458
v 0.416277 0.037695 0.120020
vn 3.497889 0.000000 1.979531
v 0.416277 0.037695 0.350239
vn 1.749058 -3.029355 -1.979385
v 0.408948 0.025000 0.120020
vn 1.748937 -3.029146 1.979458
v 0.408948 0.025000 0.350239
vn -1.749010 -3.029489 -1.979433
v 0.394289 0.025000 0.120020
vn -1.748889 -3.029279 1.979505
v 0.394289 0.025000 0.350239
vn -0.000033 0.000000 5.290997
v 0.401618 0.037695 0.355994
vn -0.000033 -0.000000 -5.290417
v 0.401618 0.037695 0.114263
vn 1.749006 3.029463 1.979440
v 0.608445 0.050390 0.350357
vn 1.748885 3.029254 -1.979513
v 0.608445 0.050390 0.120138
vn 3.497706 -0.000000 -1.979436
v 0.615775 0.037695 0.120138
vn 3.497947 0.000000 1.979363
v 0.615775 0.037695 0.350357
vn -1.749061 3.029381 1.979378
v 0.593786 0.050390 0.350357
vn -1.748940 3.029171 -1.979451
v 0.593786 0.050390 0.120138
vn -3.498178 -0.000000 1.979444
v 0.586457 0.037695 0.350357
vn -3.497936 0.000000 -1.979517
v 0.586457 0.037695 0.120138
vn -1.749061 -3.029381 1.979378
v 0.593786 0.025000 0.350357
vn -1.748940 -3.029171 -1.979451
v 0.593786 0.025000 0.120138
vn 1.749006 -3.029463 1.979440
v 0.608445 0.025000 0.350357
vn 1.748885 -3.029254 -1.979513
v 0.608445 0.025000 0.120138
vn -0.000112 0.000000 -5.290997
v 0.601115 0.037695 0.114383
vn -0.000112 -0.000000 5.290417
v 0.601115 0.037695 0.356114
vn 3.658749 -0.946065 3.023922
v 0.483193 0.188339 0.801092
vn -3.658739 -0.946178 3.023988
v 0.476615 0.188339 0.801092
vn -2.088003 -0.000045 2.906415
v 0.476615 0.202071 0.809020
vn 2.088012 -0.000045 2.906284
v 0.483193 0.202071 0.809020
vn 2.087904 -0.000045 -2.906177
v 0.483193 0.202071 0.777307
vn -2.087895 -0.000045 -2.906308
v 0.476615 0.202071 0.777307
vn -3.658794 -0.946259 -3.023944
v 0.476615 0.188339 0.785236
vn 3.658803 -0.946145 -3.023878
v 0.483193 0.188339 0.785236
vn 3.658772 0.946091 -3.023897
v 0.483193 0.215804 0.785236
vn -3.658763 0.946204 -3.023963
v 0.476615 0.215804 0.785236
vn -3.658709 0.946124 3.024007
v 0.476615 0.215804 0.801092
vn 3.658718 0.946010 3.023941
v 0.483193 0.215804 0.801092
vn -6.223254 -0.000019 0.000012
v 0.475205 0.202071 0.793164
vn 6.223338 -0.000019 0.000012
v 0.484602 0.202071 0.793164
vn 1.570796 -1.570796 -1.570796
v 0.483193 0.095800 0.785236
vn -1.570796 -1.570796 -1.570796
v 0.476615 0.095800 0.785236
vn -1.570796 -1.570796 1.570796
v 0.476615 0.095800 0.801092
vn 1.570796 -1.570796 1.570796
v 0.483193 0.095800 0.801092
vn 1.570796 1.570796 1.570796
v 0.483193 0.308343 0.801092
vn -1.570796 1.570796 1.570796
v 0.476615 0.308343 0.801092
vn -1.570796 1.570796 -1.570796
v 0.476615 0.308343 0.785236
vn 1.570796 1.570796 -1.570796
v 0.483193 0.308343 0.785236
vn 2.094467 -1.360293 -2.356292
v 0.495152 0.199433 0.788725
vn -2.094467 -1.360293 -2.356292
v 0.482633 0.199433 0.788725
vn -2.094252 -2.720586 0.000000
v 0.482633 0.196842 0.793212
vn 2.094252 -2.720586 0.000000
v 0.495152 0.196842 0.793212
vn 2.094300 1.360424 -2.356065
v 0.495152 0.204614 0.788725
vn -2.094300 1.360424 -2.356065
v 0.482633 0.204614 0.788725
vn 2.094586 2.720849 -0.000000
v 0.495152 0.207204 0.793212
vn -2.094586 2.720849 0.000000
v 0.482633 0.207204 0.793212
vn 2.094300 1.360424 2.356065
v 0.495152 0.204614 0.797699
vn -2.094300 1.360424 2.356065
v 0.482633 0.204614 0.797699
vn 2.094467 -1.360293 2.356292
v 0.495152 0.199433 0.797699
vn -2.094467 -1.360293 2.356292
v 0.482633 0.199433 0.797699
vn -6.283185 0.000000 0.000000
v 0.482633 0.202023 0.793212
vn 6.283185 0.000000 0.000000
v 0.495152 0.202023 0.793212
vn 0.946191 -3.658751 -3.023975
v 0.527465 0.288632 0.247349
vn 0.946135 3.658756 -3.023942
v 0.527465 0.301787 0.247349
vn 0.000000 2.087953 -2.906296
v 0.500000 0.301787 0.231492
vn 0.000000 -2.087949 -2.906362
v 0.500000 0.288632 0.231492
vn 0.000000 -2.087895 2.906308
v 0.500000 0.288632 0.294919
vn 0.000000 2.087899 2.906243
v 0.500000 0.301787 0.294919
vn 0.946175 3.658783 3.023921
v 0.527465 0.301787 0.279061
vn 0.946231 -3.658778 3.023953
v 0.527465 0.288632 0.279061
vn -0.946231 -3.658778 3.023953
v 0.472535 0.288632 0.279061
vn -0.946175 3.658783 3.023921
v 0.472535 0.301787 0.279061
vn -0.946135 3.658756 -3.023942
v 0.472535 0.301787 0.247349
vn -0.946191 -3.658751 -3.023975
v 0.472535 0.288632 0.247349
vn 0.000000 6.223297 -0.000006
v 0.500000 0.304606 0.263205
vn 0.000000 -6.223255 -0.000006
v 0.500000 0.285812 0.263205
vn 1.570796 -1.570796 1.570796
v 0.975000 0.288632 0.279061
vn 1.570796 1.570796 1.570796
v 0.975000 0.301787 0.279061
vn 1.570796 1.570796 -1.570796
v 0.975000 0.301787 0.247349
vn 1.570796 -1.570796 -1.570796
v 0.975000 0.288632 0.247349
vn -1.570796 -1.570796 -1.570796
v 0.025000 0.288632 0.247349
vn -1.570796 1.570796 -1.570796
v 0.025000 0.301787 0.247349
vn -1.570796 1.570796 1.570796
v 0.025000 0.301787 0.279061
vn -1.570796 -1.570796 1.570796
v 0.025000 0.288632 0.279061
vn 1.360424 -2.094300 2.356065
v 0.505278 0.264712 0.272083
vn 1.360424 2.094300 2.356065
v 0.505278 0.289750 0.272083
vn 2.720811 2.094538 -0.000066
v 0.510458 0.289750 0.263109
vn 2.720811 -2.094538 -0.000066
v 0.510458 0.264712 0.263109
vn -1.360293 -2.094467 2.356292
v 0.494916 0.264712 0.272083
vn -1.360293 2.094467 2.356292
v 0.494916 0.289750 0.272083
vn -2.720548 -2.094203 -0.000066
v 0.489734 0.264712 0.263109
vn -2.720548 2.094203 -0.000066
v 0.489734 0.289750 0.263109
vn -1.360255 -2.094515 -2.356358
v 0.494916 0.264712 0.254136
vn -1.360255 2.094515 -2.356358
v 0.494916 0.289750 0.254136
vn 1.360387 -2.094348 -2.356130
v 0.505278 0.264712 0.254136
vn 1.360387 2.094348 -2.356130
v 0.505278 0.289750 0.254136
vn 0.000000 6.283185 0.000000
v 0.500097 0.289750 0.263109
vn 0.000000 -6.283185 0.000000
v 0.500097 0.264712 0.263109
# 222 vertices, 0 vertices normals

f 3//3 2//2 1//1
f 3//3 5//5 4//4
f 3//3 4//4 6//6
f 3//3 7//7 2//2
f 10//10 9//9 8//8
f 10//10 8//8 11//11
f 11//11 8//8 12//12
f 11//11 12//12 13//13
f 13//13 12//12 14//14
f 13//13 14//14 15//15
f 15//15 14//14 16//16
f 15//15 16//16 17//17
f 17//17 16//16 18//18
f 17//17 18//18 19//19
f 19//19 18//18 20//20
f 19//19 20//20 21//21
f 21//21 20//20 22//22
f 21//21 22//22 23//23
f 23//23 22//22 9//9
f 23//23 9//9 10//10
f 16//16 25//25 24//24
f 16//16 24//24 18//18
f 18//18 24//24 26//26
f 18//18 26//26 20//20
f 20//20 26//26 27//27
f 20//20 27//27 22//22
f 22//22 27//27 28//28
f 22//22 28//28 9//9
f 29//29 27//27 26//26
f 29//29 26//26 24//24
f 29//29 24//24 25//25
f 29//29 28//28 27//27
f 30//30 10//10 11//11
f 11//11 31//31 30//30
f 31//31 11//11 13//13
f 13//13 32//32 31//31
f 32//32 13//13 15//15
f 15//15 33//33 32//32
f 33//33 15//15 17//17
f 17//17 34//34 33//33
f 34//34 17//17 19//19
f 19//19 35//35 34//34
f 35//35 19//19 21//21
f 21//21 36//36 35//35
f 36//36 21//21 23//23
f 23//23 37//37 36//36
f 37//37 23//23 10//10
f 10//10 30//30 37//37
f 2//2 30//30 31//31
f 31//31 1//1 2//2
f 1//1 31//31 32//32
f 32//32 38//38 1//1
f 38//38 32//32 33//33
f 33//33 5//5 38//38
f 5//5 33//33 34//34
f 34//34 4//4 5//5
f 4//4 34//34 35//35
f 35//35 6//6 4//4
f 6//6 35//35 36//36
f 36//36 39//39 6//6
f 39//39 36//36 37//37
f 37//37 7//7 39//39
f 7//7 37//37 30//30
f 30//30 2//2 7//7
f 9//9 28//28 40//40
f 9//9 40//40 8//8
f 8//8 40//40 41//41
f 8//8 41//41 12//12
f 12//12 41//41 42//42
f 12//12 42//42 14//14
f 14//14 42//42 25//25
f 14//14 25//25 16//16
f 29//29 25//25 42//42
f 29//29 42//42 41//41
f 29//29 41//41 40//40
f 29//29 40//40 28//28
f 45//45 44//44 43//43
f 45//45 43//43 46//46
f 49//49 48//48 47//47
f 49//49 47//47 50//50
f 45//45 3//3 1//1
f 1//1 44//44 45//45
f 44//44 1//1 38//38
f 38//38 43//43 44//44
f 43//43 38//38 5//5
f 5//5 46//46 43//43
f 46//46 5//5 3//3
f 3//3 45//45 46//46
f 49//49 3//3 6//6
f 6//6 48//48 49//49
f 48//48 6//6 39//39
f 39//39 47//47 48//48
f 47//47 39//39 7//7
f 7//7 50//50 47//47
f 50//50 7//7 3//3
f 3//3 49//49 50//50
f 53//53 52//52 51//51
f 53//53 51//51 54//54
f 52//52 56//56 55//55
f 52//52 55//55 51//51
f 56//56 58//58 57//57
f 56//56 57//57 55//55
f 58//58 60//60 59//59
f 58//58 59//59 57//57
f 60//60 62//62 61//61
f 60//60 61//61 59//59
f 62//62 53//53 54//54
f 62//62 54//54 61//61
f 54//54 51//51 63//63
f 54//54 63//63 64//64
f 51//51 55//55 65//65
f 51//51 65//65 63//63
f 55//55 57//57 66//66
f 55//55 66//66 65//65
f 57//57 59//59 67//67
f 57//57 67//67 66//66
f 59//59 61//61 68//68
f 59//59 68//68 67//67
f 61//61 54//54 64//64
f 61//61 64//64 68//68
f 71//71 70//70 69//69
f 71//71 69//69 72//72
f 70//70 74//74 73//73
f 70//70 73//73 69//69
f 74//74 76//76 75//75
f 74//74 75//75 73//73
f 76//76 78//78 77//77
f 76//76 77//77 75//75
f 78//78 80//80 79//79
f 78//78 79//79 77//77
f 80//80 71//71 72//72
f 80//80 72//72 79//79
f 72//72 69//69 81//81
f 72//72 81//81 82//82
f 69//69 73//73 83//83
f 69//69 83//83 81//81
f 73//73 75//75 84//84
f 73//73 84//84 83//83
f 75//75 77//77 85//85
f 75//75 85//85 84//84
f 77//77 79//79 86//86
f 77//77 86//86 85//85
f 79//79 72//72 82//82
f 79//79 82//82 86//86
f 89//89 88//88 87//87
f 89//89 87//87 90//90
f 88//88 92//92 91//91
f 88//88 91//91 87//87
f 92//92 94//94 93//93
f 92//92 93//93 91//91
f 94//94 96//96 95//95
f 94//94 95//95 93//93
f 96//96 98//98 97//97
f 96//96 97//97 95//95
f 98//98 89//89 90//90
f 98//98 90//90 97//97
f 90//90 87//87 99//99
f 90//90 99//99 100//100
f 87//87 91//91 101//101
f 87//87 101//101 99//99
f 91//91 93//93 102//102
f 91//91 102//102 101//101
f 93//93 95//95 103//103
f 93//93 103//103 102//102
f 95//95 97//97 104//104
f 95//95 104//104 103//103
f 97//97 90//90 100//100
f 97//97 100//100 104//104
f 107//107 106//106 105//105
f 107//107 105//105 108//108
f 106//106 110//110 109//109
f 106//106 109//109 105//105
f 110//110 112//112 111//111
f 110//110 111//111 109//109
f 112//112 114//114 113//113
f 112//112 113//113 111//111
f 114//114 116//116 115//115
f 114//114 115//115 113//113
f 116//116 107//107 108//108
f 116//116 108//108 115//115
f 108//108 105//105 117//117
f 108//108 117//117 118//118
f 105//105 109//109 119//119
f 105//105 119//119 117//117
f 109//109 111//111 120//120
f 109//109 120//120 119//119
f 111//111 113//113 121//121
f 111//111 121//121 120//120
f 113//113 115//115 122//122
f 113//113 122//122 121//121
f 115//115 108//108 118//118
f 115//115 118//118 122//122
f 125//125 124//124 123//123
f 125//125 123//123 126//126
f 124//124 128//128 127//127
f 124//124 127//127 123//123
f 128//128 130//130 129//129
f 128//128 129//129 127//127
f 130//130 132//132 131//131
f 130//130 131//131 129//129
f 132//132 134//134 133//133
f 132//132 133//133 131//131
f 134//134 125//125 126//126
f 134//134 126//126 133//133
f 124//124 125//125 135//135
f 128//128 124//124 135//135
f 130//130 128//128 135//135
f 132//132 130//130 135//135
f 134//134 132//132 135//135
f 125//125 134//134 135//135
f 126//126 123//123 136//136
f 123//123 127//127 136//136
f 127//127 129//129 136//136
f 129//129 131//131 136//136
f 131//131 133//133 136//136
f 133//133 126//126 136//136
f 139//139 138//138 137//137
f 139//139 137//137 140//140
f 138//138 142//142 141//141
f 138//138 141//141 137//137
f 142//142 144//144 143//143
f 142//142 143//143 141//141
f 144//144 146//146 145//145
f 144//144 145//145 143//143
f 146//146 148//148 147//147
f 146//146 147//147 145//145
f 148//148 139//139 140//140
f 148//148 140//140 147//147
f 138//138 139//139 149//149
f 142//142 138//138 149//149
f 144//144 142//142 149//149
f 146//146 144//144 149//149
f 148//148 146//146 149//149
f 139//139 148//148 149//149
f 140//140 137//137 150//150
f 137//137 141//141 150//150
f 141//141 143//143 150//150
f 143//143 145//145 150//150
f 145//145 147//147 150//150
f 147//147 140//140 150//150
f 153//153 152//152 151//151
f 153//153 151//151 154//154
f 157//157 156//156 155//155
f 157//157 155//155 158//158
f 156//156 160//160 159//159
f 156//156 159//159 155//155
f 161//161 153//153 154//154
f 161//161 154//154 162//162
f 152//152 153//153 163//163
f 157//157 152//152 163//163
f 156//156 157//157 163//163
f 160//160 156//156 163//163
f 161//161 160//160 163//163
f 153//153 161//161 163//163
f 154//154 151//151 164//164
f 151//151 158//158 164//164
f 158//158 155//155 164//164
f 155//155 159//159 164//164
f 159//159 162//162 164//164
f 162//162 154//154 164//164
f 167//167 166//166 165//165
f 167//167 165//165 168//168
f 171//171 170//170 169//169
f 171//171 169//169 172//172
f 167//167 152//152 157//157
f 157//157 166//166 167//167
f 166//166 157//157 158//158
f 158//158 165//165 166//166
f 165//165 158//158 151//151
f 151//151 168//168 165//165
f 168//168 151//151 152//152
f 152//152 167//167 168//168
f 171//171 160//160 161//161
f 161//161 170//170 171//171
f 170//170 161//161 162//162
f 162//162 169//169 170//170
f 169//169 162//162 159//159
f 159//159 172//172 169//169
f 172//172 159//159 160//160
f 160//160 171//171 172//172
f 175//175 174//174 173//173
f 175//175 173//173 176//176
f 174//174 178//178 177//177
f 174//174 177//177 173//173
f 178//178 180//180 179//179
f 178//178 179//179 177//177
f 180//180 182//182 181//181
f 180//180 181//181 179//179
f 182//182 184//184 183//183
f 182//182 183//183 181//181
f 184//184 175//175 176//176
f 184//184 176//176 183//183
f 174//174 175//175 185//185
f 178//178 174//174 185//185
f 180//180 178//178 185//185
f 182//182 180//180 185//185
f 184//184 182//182 185//185
f 175//175 184//184 185//185
f 176//176 173//173 186//186
f 173//173 177//177 186//186
f 177//177 179//179 186//186
f 179//179 181//181 186//186
f 181//181 183//183 186//186
f 183//183 176//176 186//186
f 189//189 188//188 187//187
f 189//189 187//187 190//190
f 193//193 192//192 191//191
f 193//193 191//191 194//194
f 192//192 196//196 195//195
f 192//192 195//195 191//191
f 197//197 189//189 190//190
f 197//197 190//190 198//198
f 188//188 189//189 199//199
f 193//193 188//188 199//199
f 192//192 193//193 199//199
f 196//196 192//192 199//199
f 197//197 196//196 199//199
f 189//189 197//197 199//199
f 190//190 187//187 200//200
f 187//187 194//194 200//200
f 194//194 191//191 200//200
f 191//191 195//195 200//200
f 195//195 198//198 200//200
f 198//198 190//190 200//200
f 203//203 202//202 201//201
f 203//203 201//201 204//204
f 207//207 206//206 205//205
f 207//207 205//205 208//208
f 203//203 188//188 193//193
f 193//193 202//202 203//203
f 202//202 193//193 194//194
f 194//194 201//201 202//202
f 201//201 194//194 187//187
f 187//187 204//204 201//201
f 204//204 187//187 188//188
f 188//188 203//203 204//204
f 207//207 196//196 197//197
f 197//197 206//206 207//207
f 206//206 197//197 198//198
f 198//198 205//205 206//206
f 205//205 198//198 195//195
f 195//195 208//208 205//205
f 208//208 195//195 196//196
f 196//196 207//207 208//208
f 211//211 210//210 209//209
f 211//211 209//209 212//212
f 210//210 214//214 213//213
f 210//210 213//213 209//209
f 214//214 216//216 215//215
f 214//214 215//215 213//213
f 216//216 218//218 217//217
f 216//216 217//217 215//215
f 218//218 220//220 219//219
f 218//218 219//219 217//217
f 220//220 211//211 212//212
f 220//220 212//212 219//219
f 210//210 211//211 221//221
f 214//214 210//210 221//221
f 216//216 214//214 221//221
f 218//218 216//216 221//221
f 220//220 218//218 221//221
f 211//211 220//220 221//221
f 212//212 209//209 222//222
f 209//209 213//213 222//222
f 213//213 215//215 222//222
f 215//215 217//217 222//222
f 217//217 219//219 222//222
f 219//219 212//212 222//222
# 368 faces, 0 coords texture

# End of File
