####
#
# OBJ File Generated by Meshlab
#
####
# Object m423.obj
#
# Vertices: 35
# Faces: 48
#
####
vn 0.006401 2.829836 0.033994
v 0.025000 0.265327 0.211961
vn 2.239655 2.829665 -0.034863
v 0.975000 0.265327 0.201966
vn 1.245698 0.308757 -1.810850
v 0.975000 0.177961 0.025000
vn -1.232468 0.321325 -1.784610
v 0.025000 0.177961 0.025000
vn -1.155369 0.215022 1.709226
v 0.025000 0.177113 0.390835
vn 1.142494 0.227425 1.683307
v 0.975000 0.177113 0.390835
vn -1.570796 0.000000 1.570796
v 0.363155 0.223129 0.254414
vn 1.570796 0.000000 1.570796
v 0.403586 0.223129 0.254414
vn -1.570796 0.000000 -1.570796
v 0.363155 0.223129 0.210193
vn 1.570796 0.000000 -1.570796
v 0.403586 0.223129 0.210193
vn -1.570796 1.570796 1.570796
v 0.363155 0.309109 0.254414
vn 1.570796 1.570796 1.570796
v 0.403586 0.309109 0.254414
vn -1.570796 1.570796 -1.570796
v 0.363155 0.309109 0.210193
vn 1.570796 1.570796 -1.570796
v 0.403586 0.309109 0.210193
vn -1.570796 0.000000 1.570796
v 0.026103 0.189709 0.093451
vn 1.570796 0.000000 1.570796
v 0.053120 0.189709 0.093451
vn -1.570796 0.000000 -1.570796
v 0.026103 0.189709 0.054080
vn 1.570796 0.000000 -1.570796
v 0.053120 0.189709 0.054080
vn -1.570796 1.570796 1.570796
v 0.026103 0.300048 0.093451
vn 1.570796 1.570796 1.570796
v 0.053120 0.300048 0.093451
vn -1.570796 1.570796 -1.570796
v 0.026103 0.300048 0.054080
vn 1.570796 1.570796 -1.570796
v 0.053120 0.300048 0.054080
vn 3.141593 0.000000 0.000000
v 0.975000 0.025000 0.201966
vn 1.570796 0.000000 -1.570796
v 0.975000 0.025000 0.035433
vn 6.283185 0.000000 0.000000
v 0.975000 0.167359 0.201966
vn 3.918957 -1.101761 -2.690405
v 0.975000 0.167359 0.035433
vn 1.570796 0.000000 1.570796
v 0.975000 0.025000 0.379384
vn 4.006849 -1.195787 2.589371
v 0.975000 0.167359 0.379384
vn -3.141593 0.000000 0.000000
v 0.025000 0.025000 0.211042
vn -1.570796 0.000000 -1.570796
v 0.025000 0.025000 0.035433
vn -6.283185 0.000000 0.000000
v 0.025000 0.167359 0.211042
vn -3.918957 -1.101761 -2.690405
v 0.025000 0.167359 0.035433
vn -1.570796 0.000000 1.570796
v 0.025000 0.025000 0.379384
vn -4.006849 -1.195787 2.589371
v 0.025000 0.167359 0.379384
vn -2.246423 0.000000 0.000000
v 0.025000 0.265327 0.211042
# 35 vertices, 0 vertices normals

f 1//1 2//2 3//3
f 3//3 4//4 1//1
f 2//2 1//1 5//5
f 5//5 6//6 2//2
f 11//11 12//12 14//14
f 14//14 13//13 11//11
f 7//7 8//8 12//12
f 12//12 11//11 7//7
f 8//8 10//10 14//14
f 14//14 12//12 8//8
f 10//10 9//9 13//13
f 13//13 14//14 10//10
f 9//9 7//7 11//11
f 11//11 13//13 9//9
f 19//19 20//20 22//22
f 22//22 21//21 19//19
f 15//15 16//16 20//20
f 20//20 19//19 15//15
f 16//16 18//18 22//22
f 22//22 20//20 16//16
f 18//18 17//17 21//21
f 21//21 22//22 18//18
f 17//17 15//15 19//19
f 19//19 21//21 17//17
f 23//23 24//24 26//26
f 26//26 25//25 23//23
f 23//23 25//25 28//28
f 28//28 27//27 23//23
f 25//25 26//26 3//3
f 3//3 2//2 25//25
f 28//28 25//25 2//2
f 2//2 6//6 28//28
f 30//30 29//29 31//31
f 31//31 32//32 30//30
f 31//31 29//29 33//33
f 33//33 34//34 31//31
f 32//32 31//31 35//35
f 35//35 4//4 32//32
f 31//31 34//34 5//5
f 5//5 35//35 31//31
f 33//33 27//27 28//28
f 28//28 34//34 33//33
f 24//24 30//30 32//32
f 32//32 26//26 24//24
f 26//26 32//32 4//4
f 4//4 3//3 26//26
f 34//34 28//28 6//6
f 6//6 5//5 34//34
# 48 faces, 0 coords texture

# End of File
