####
#
# OBJ File Generated by Meshlab
#
####
# Object m434.obj
#
# Vertices: 22
# Faces: 26
#
####
vn 1.464316 -1.277934 1.464316
v 0.658333 0.025000 0.975000
vn 1.464316 -1.277934 -1.464316
v 0.658333 0.025000 0.025000
vn -1.464316 -1.277933 -1.464316
v 0.025000 0.025000 0.025000
vn -1.464316 -1.277934 1.464316
v 0.025000 0.025000 0.975000
vn 1.661685 0.332336 2.557742
v 0.595000 0.658333 0.911667
vn 1.661686 0.332336 -2.557742
v 0.595000 0.658333 0.088333
vn -1.661686 0.332337 -2.557741
v 0.088333 0.658333 0.088333
vn -1.661685 0.332336 2.557741
v 0.088333 0.658333 0.911667
vn -2.639900 0.000002 1.349481
v 0.341667 0.975000 0.911667
vn -2.639901 0.000002 -1.349481
v 0.341667 0.975000 0.088333
vn -1.125509 -0.907666 0.000000
v 0.658333 0.582333 0.975000
vn -1.125508 -0.907665 0.000000
v 0.658333 0.582333 0.025000
vn -1.125507 0.907667 0.000000
v 0.025000 0.582333 0.025000
vn -1.125507 0.907667 0.000000
v 0.025000 0.582333 0.975000
vn 1.570796 0.000000 1.570796
v 0.468333 0.658333 0.500000
vn 1.570796 0.000000 1.570796
v 0.531667 0.658333 0.500000
vn 1.570796 0.000000 1.570796
v 0.531667 0.658333 0.563333
vn 1.570796 0.000000 1.570796
v 0.468333 0.658333 0.563333
vn 1.570796 -1.570796 1.570796
v 0.468333 0.848333 0.500000
vn 1.570796 -1.570796 1.570796
v 0.531667 0.848333 0.500000
vn 1.570796 -1.570796 1.570796
v 0.531667 0.848333 0.563333
vn 1.570796 -1.570796 1.570796
v 0.468333 0.848333 0.563333
# 22 vertices, 0 vertices normals

f 1//1 4//4 3//3
f 6//6 2//2 3//3
f 4//4 1//1 5//5
f 6//6 5//5 1//1
f 7//7 3//3 4//4
f 6//6 7//7 10//10
f 8//8 5//5 9//9
f 13//13 14//14 9//9
f 10//10 12//12 11//11
f 22//22 18//18 15//15
f 22//22 18//18 17//17
f 19//19 15//15 16//16
f 21//21 17//17 16//16
f 19//19 20//20 21//21
f 1//1 3//3 2//2
f 6//6 3//3 7//7
f 4//4 5//5 8//8
f 6//6 1//1 2//2
f 7//7 4//4 8//8
f 13//13 9//9 10//10
f 10//10 11//11 9//9
f 22//22 15//15 19//19
f 22//22 17//17 21//21
f 19//19 16//16 20//20
f 21//21 16//16 20//20
f 19//19 21//21 22//22
# 26 faces, 0 coords texture

# End of File
