####
#
# OBJ File Generated by Meshlab
#
####
# Object m449.obj
#
# Vertices: 221
# Faces: 328
#
####
vn -0.925000 3.765666 2.833084
v 0.444716 0.287126 0.779805
vn -1.570796 -4.712389 0.000000
v 0.444716 0.264858 0.779805
vn -0.645522 -0.316066 0.945015
v 0.444716 0.264858 0.809371
vn 0.644891 -0.315517 0.944286
v 0.260540 0.264858 0.809371
vn 1.570796 -4.712389 0.000000
v 0.260540 0.264858 0.779805
vn 0.910939 3.764877 2.834074
v 0.260540 0.287126 0.779805
vn 0.609878 -0.209756 0.709191
v 0.680584 0.264858 0.809371
vn 0.609807 -0.209742 -0.709172
v 0.680584 0.264858 0.118514
vn 1.371213 4.076027 -0.000023
v 0.502396 0.524678 0.463943
vn -1.371255 4.076074 -0.000041
v 0.203187 0.524678 0.463943
vn -0.609766 -0.209735 -0.709163
v 0.025000 0.264858 0.118514
vn -0.609809 -0.209744 0.709175
v 0.025000 0.264858 0.809371
vn -1.570796 -4.712389 0.000000
v 0.444716 0.264858 0.148080
vn -0.644884 -0.315435 -0.944177
v 0.444716 0.264858 0.118514
vn 0.644507 -0.315108 -0.943741
v 0.260540 0.264858 0.118514
vn 1.570796 -4.712389 0.000000
v 0.260540 0.264858 0.148080
vn -0.934802 3.766628 -2.831785
v 0.444716 0.287079 0.148080
vn 0.926453 3.766184 -2.832396
v 0.260540 0.287079 0.148080
vn 0.000000 1.477754 -0.532584
v 0.237423 0.421915 0.330289
vn 0.000000 1.477754 -0.532584
v 0.464103 0.421915 0.330289
vn 0.000000 1.477754 -0.532584
v 0.237423 0.348346 0.126158
vn 0.000000 1.477754 -0.532584
v 0.464103 0.348346 0.126158
vn 0.000002 1.477750 0.532582
v 0.464103 0.421915 0.594710
vn 0.000001 1.477757 0.532586
v 0.237423 0.421915 0.594711
vn 0.000001 1.477753 0.532585
v 0.464103 0.348346 0.798841
vn 0.000000 1.477753 0.532586
v 0.237423 0.348346 0.798841
vn -1.565847 -0.004738 1.570785
v 0.054896 0.025555 0.779829
vn 1.570796 0.000000 1.570796
v 0.650671 0.025555 0.779829
vn -1.570796 0.000000 1.568080
v 0.054896 0.270890 0.779829
vn 1.570796 0.000000 1.569438
v 0.650671 0.270890 0.779829
vn -1.570796 0.000000 -1.569438
v 0.054896 0.270890 0.148070
vn 1.570796 0.000000 -1.568080
v 0.650671 0.270890 0.148070
vn -1.570796 0.000000 -1.570796
v 0.054896 0.025555 0.148070
vn 1.570796 0.000000 -1.570796
v 0.650671 0.025555 0.148070
vn 0.000000 0.000000 -3.141593
v 0.269375 0.168947 0.148070
vn 0.000000 0.000000 -3.141593
v 0.315249 0.168947 0.148070
vn 0.000000 0.000000 -3.141593
v 0.315249 0.067285 0.148070
vn 0.000000 0.000000 -3.141593
v 0.269375 0.067285 0.148070
vn 0.000000 0.000000 -3.141593
v 0.129964 0.164466 0.148070
vn 0.000000 0.000000 -3.141593
v 0.178221 0.164466 0.148070
vn 0.000000 0.000000 -3.141593
v 0.178221 0.123857 0.148070
vn 0.000000 0.000000 -3.141593
v 0.129964 0.123857 0.148070
vn 0.000000 0.000000 -3.141593
v 0.453469 0.163346 0.148070
vn 0.000000 0.000000 -3.141593
v 0.504706 0.163346 0.148070
vn 0.000000 0.000000 -3.141593
v 0.504706 0.103413 0.148070
vn 0.000000 0.000000 -3.141593
v 0.453469 0.103413 0.148070
vn 6.283185 0.000000 0.000000
v 0.650671 0.104533 0.320540
vn 6.283185 0.000000 0.000000
v 0.650671 0.104533 0.270631
vn 6.283185 0.000000 0.000000
v 0.650671 0.163346 0.270631
vn 6.283185 0.000000 0.000000
v 0.650671 0.163346 0.320540
vn -6.283185 0.000000 0.000000
v 0.054896 0.107054 0.332544
vn -6.283185 0.000000 0.000000
v 0.054896 0.107054 0.388138
vn -6.283185 0.000000 0.000000
v 0.054896 0.164466 0.388138
vn -6.283185 0.000000 0.000000
v 0.054896 0.164466 0.332544
vn 0.010728 -0.008737 3.141470
v 0.261034 0.025555 0.778565
vn -0.007811 -0.004929 3.141559
v 0.444533 0.025555 0.779829
vn 1.568512 0.000000 4.713747
v 0.444533 0.270610 0.779829
vn -1.651291 -0.047891 4.713659
v 0.261034 0.270330 0.779829
vn -1.568249 0.000000 -4.713747
v 0.261034 0.270610 0.148070
vn 1.565702 0.000000 -4.715106
v 0.444533 0.270330 0.148070
vn 0.000000 0.000000 -3.141593
v 0.444533 0.025555 0.148070
vn 0.000000 0.000000 -3.141593
v 0.261034 0.025555 0.148070
vn 1.899758 -0.006880 1.570796
v 0.444533 0.354629 0.779829
vn -1.842199 -0.033406 1.569754
v 0.261034 0.354629 0.781092
vn -1.918625 0.000000 -1.570796
v 0.261034 0.354629 0.148070
vn 1.918625 0.000000 -1.570796
v 0.444533 0.354629 0.148070
vn -2.059786 0.000000 0.000000
v 0.261034 0.270890 0.257996
vn 2.062333 0.000000 0.000000
v 0.444533 0.270890 0.257996
vn 0.736526 0.000000 0.000000
v 0.444533 0.423804 0.338861
vn -0.736526 0.000000 0.000000
v 0.261034 0.423804 0.338861
vn -2.058572 0.000000 0.000000
v 0.261034 0.270890 0.657267
vn 2.056288 0.000000 0.000000
v 0.444533 0.270890 0.657267
vn -0.760751 0.000000 0.000000
v 0.261034 0.423804 0.577034
vn 0.758858 0.000000 0.000000
v 0.444533 0.423804 0.577034
vn -6.283185 0.000000 0.000000
v 0.054896 0.029196 0.460791
vn -6.283185 0.000000 0.000000
v 0.054896 0.029196 0.511963
vn -6.283185 0.000000 0.000000
v 0.054896 0.143462 0.511963
vn -6.283185 0.000000 0.000000
v 0.054896 0.143462 0.460791
vn 6.283185 0.000000 0.000000
v 0.650671 0.108454 0.660426
vn 6.283185 0.000000 0.000000
v 0.650671 0.108454 0.607359
vn 6.283185 0.000000 0.000000
v 0.650671 0.167547 0.607359
vn 6.283185 0.000000 0.000000
v 0.650671 0.167547 0.660426
vn 0.000000 0.000000 3.141593
v 0.575603 0.097252 0.779829
vn 0.000000 0.000000 3.141593
v 0.575603 0.192753 0.779829
vn 0.000000 0.000000 3.141593
v 0.519004 0.192753 0.779829
vn 0.000000 0.000000 3.141593
v 0.519004 0.097252 0.779829
vn 0.000000 0.000000 6.283185
v 0.129964 0.192473 0.779829
vn 0.011007 -0.019228 6.283100
v 0.129964 0.103973 0.779829
vn 0.040034 -0.037622 6.282409
v 0.185966 0.103973 0.779829
vn 0.017569 -0.010079 6.283115
v 0.185966 0.192473 0.779829
vn 0.008199 0.001637 3.141710
v 0.327761 0.067285 0.778565
vn -0.025484 -0.104171 3.138659
v 0.377806 0.067285 0.779829
vn 0.009586 0.012001 3.141647
v 0.377806 0.192753 0.779829
vn -0.008424 -0.009300 3.141495
v 0.327761 0.192753 0.779829
vn 0.000000 0.000000 3.141593
v 0.375423 0.281253 0.779829
vn 0.000000 0.000000 3.141593
v 0.411765 0.281253 0.779829
vn 0.000000 0.000000 3.141593
v 0.411765 0.349588 0.779829
vn 0.000000 0.000000 3.141593
v 0.375423 0.349588 0.779829
vn 0.826998 0.311122 3.014573
v 0.293802 0.281253 0.779829
vn 0.000000 0.000000 3.141593
v 0.330144 0.281253 0.779829
vn 0.000000 0.000000 3.141593
v 0.330144 0.349588 0.779829
vn 0.086273 -0.594992 3.075732
v 0.293802 0.349588 0.779829
vn 0.000000 0.000000 -3.141593
v 0.298568 0.347067 0.148070
vn 0.000000 0.000000 -3.141593
v 0.334314 0.347067 0.148070
vn 0.000000 0.000000 -3.141593
v 0.334314 0.280972 0.148070
vn 0.000000 0.000000 -3.141593
v 0.298568 0.280972 0.148070
vn 0.000000 0.000000 -3.141593
v 0.372444 0.347067 0.148070
vn 0.000000 0.000000 -3.141593
v 0.408190 0.347067 0.148070
vn 0.000000 0.000000 -3.141593
v 0.408190 0.280972 0.148070
vn 0.000000 0.000000 -3.141593
v 0.372444 0.280972 0.148070
vn 6.283185 0.000000 0.000000
v 0.650671 0.030316 0.534074
vn 6.283185 0.000000 0.000000
v 0.650671 0.030316 0.483534
vn 6.283185 0.000000 0.000000
v 0.650671 0.149623 0.483534
vn 6.283185 0.000000 0.000000
v 0.650671 0.149623 0.534074
vn -6.283185 0.000000 0.000000
v 0.054896 0.196394 0.565031
vn -6.283185 0.000000 0.000000
v 0.054896 0.196394 0.609254
vn -6.283185 0.000000 0.000000
v 0.054896 0.240363 0.609254
vn -6.283185 0.000000 0.000000
v 0.054896 0.240363 0.565031
vn 3.141593 1.569776 0.000000
v 0.339882 0.025234 0.074260
vn -3.141593 -1.569776 0.000000
v 0.248140 0.025234 0.074166
vn -3.138775 0.000000 0.000000
v 0.248140 0.025234 0.058214
vn 3.141593 0.000000 0.000000
v 0.339882 0.025234 0.058214
vn -4.701566 1.586299 -1.570719
v 0.248140 0.056296 0.074166
vn 4.712501 1.570792 -1.570796
v 0.339882 0.056296 0.074260
vn 1.570796 1.570796 -1.570796
v 0.339882 0.056296 0.058214
vn -1.570796 1.570796 -1.570796
v 0.248140 0.056296 0.058214
vn 0.000000 1.569776 0.000000
v 0.339882 0.025234 0.074166
vn 0.000000 -1.569776 0.000000
v 0.248140 0.025234 0.074260
vn -1.570796 0.000000 0.000000
v 0.248140 0.025234 0.147659
vn -1.570796 1.571810 0.000000
v 0.248140 0.066448 0.147659
vn -1.578526 1.584263 -1.570738
v 0.248140 0.066448 0.074260
vn -4.712389 1.570796 -1.570796
v 0.248140 0.046098 0.058214
vn -1.570796 1.570796 -1.570796
v 0.248140 0.046098 0.041607
vn -4.712389 1.570796 -1.570796
v 0.248140 0.036368 0.041607
vn -1.570796 1.570796 -1.570796
v 0.248140 0.036368 0.025000
vn -1.570796 0.000000 -1.570796
v 0.248140 0.025281 0.025000
vn -3.144411 0.000000 -1.570796
v 0.248140 0.025281 0.041607
vn 0.000000 0.000000 -1.570796
v 0.248140 0.025234 0.041607
vn 1.570796 1.570796 -1.570796
v 0.339882 0.066448 0.074260
vn 1.568540 1.569783 0.000000
v 0.339882 0.066448 0.147752
vn 1.573053 0.000000 0.000000
v 0.339882 0.025234 0.147659
vn 0.898523 0.000000 -1.570796
v 0.339882 0.025234 0.041607
vn 2.244164 0.000000 -1.570796
v 0.339882 0.025281 0.041607
vn 1.570796 0.000000 -1.570796
v 0.339882 0.025281 0.025000
vn 1.570796 1.570796 -1.570796
v 0.339882 0.036368 0.025000
vn 4.712389 1.570796 -1.570796
v 0.339882 0.036368 0.041607
vn 1.570796 1.570796 -1.570796
v 0.339882 0.046098 0.041607
vn 4.711295 1.570796 -1.570796
v 0.339882 0.046098 0.058214
vn -0.253021 1.542692 0.238533
v 0.106898 0.201527 0.905302
vn 0.253021 1.542692 0.238533
v 0.593724 0.201527 0.905302
vn -0.208321 3.015811 0.823316
v 0.269324 0.248308 0.775041
vn 0.208321 3.015811 0.823316
v 0.431298 0.248308 0.775041
vn -0.408137 1.417074 0.000000
v 0.106898 0.201527 0.758744
vn 0.408137 1.417074 0.000000
v 0.593724 0.201527 0.758744
vn 0.000000 -1.570796 -2.221441
v 0.551203 0.063063 0.865523
vn -2.221441 -1.570796 -0.000000
v 0.544186 0.063063 0.872540
vn -0.000000 -1.570796 2.221441
v 0.551203 0.063063 0.879557
vn 2.221441 -1.570796 -0.000000
v 0.558220 0.063063 0.872540
vn 0.000000 1.570796 -2.221441
v 0.551203 0.203405 0.865523
vn -2.221441 1.570796 -0.000000
v 0.544186 0.203405 0.872540
vn 0.000000 1.570796 2.221441
v 0.551203 0.203405 0.879557
vn 2.221441 1.570796 -0.000000
v 0.558220 0.203405 0.872540
vn 0.000079 -1.570868 -2.221521
v 0.269736 0.063063 0.865523
vn -2.221283 -1.570654 -0.000000
v 0.262718 0.063063 0.872540
vn 0.000079 -1.570868 2.221521
v 0.269736 0.063063 0.879557
vn 2.221441 -1.570796 -0.000000
v 0.276753 0.063063 0.872540
vn 0.000079 1.570868 -2.221521
v 0.269736 0.203405 0.865523
vn -2.221283 1.570654 -0.000000
v 0.262718 0.203405 0.872540
vn 0.000079 1.570868 2.221521
v 0.269736 0.203405 0.879557
vn 2.221441 1.570796 -0.000000
v 0.276753 0.203405 0.872540
vn 0.000000 -1.570796 -2.221441
v 0.411322 0.063063 0.865523
vn -2.221441 -1.570796 -0.000000
v 0.404305 0.063063 0.872540
vn -0.000000 -1.570796 2.221441
v 0.411322 0.063063 0.879557
vn 2.221441 -1.570796 -0.000000
v 0.418339 0.063063 0.872540
vn -0.000000 1.570796 -2.221441
v 0.411322 0.203405 0.865523
vn -2.221441 1.570796 -0.000000
v 0.404305 0.203405 0.872540
vn 0.000000 1.570796 2.221441
v 0.411322 0.203405 0.879557
vn 2.221441 1.570796 -0.000000
v 0.418339 0.203405 0.872540
vn -1.570796 0.000000 1.570796
v 0.124091 0.025000 0.889814
vn 1.570796 0.000000 1.570796
v 0.576531 0.025000 0.889814
vn -1.570796 1.570796 1.570796
v 0.124091 0.071781 0.889814
vn 1.570796 1.570796 1.570796
v 0.576531 0.071781 0.889814
vn -1.570796 1.570796 0.000000
v 0.124091 0.071781 0.774232
vn 1.570796 1.570796 0.000000
v 0.576531 0.071781 0.774232
vn -1.570796 0.000000 0.000000
v 0.124091 0.025000 0.774232
vn 1.570796 0.000000 0.000000
v 0.576531 0.025000 0.774232
vn -3.141593 0.000000 0.000000
v 0.274790 0.025234 0.925740
vn 3.141593 0.000000 0.000000
v 0.432070 0.025234 0.925740
vn 3.138775 0.000000 0.000000
v 0.432070 0.025234 0.941786
vn 4.712389 1.570796 1.570796
v 0.432070 0.056296 0.925740
vn -4.712389 1.570796 1.570796
v 0.274790 0.056296 0.925740
vn -1.570796 1.570796 1.570796
v 0.274790 0.056296 0.941786
vn 1.570796 1.570796 1.570796
v 0.432070 0.056296 0.941786
vn 1.570796 0.000000 0.000000
v 0.432070 0.025234 0.852248
vn 1.570796 1.570796 0.000000
v 0.432070 0.066448 0.852248
vn 1.570796 1.570796 1.570796
v 0.432070 0.066448 0.925740
vn 4.712389 1.570796 1.570796
v 0.432070 0.046098 0.941786
vn 1.570796 1.570796 1.570796
v 0.432070 0.046098 0.958393
vn 4.712389 1.570796 1.570796
v 0.432070 0.036368 0.958393
vn 1.570796 1.570796 1.570796
v 0.432070 0.036368 0.975000
vn 1.570796 0.000000 1.570796
v 0.432070 0.025281 0.975000
vn 3.144411 0.000000 0.000000
v 0.432070 0.025281 0.958393
vn -1.570796 1.570796 1.570796
v 0.274790 0.066448 0.925740
vn -1.570796 1.570796 0.000000
v 0.274790 0.066448 0.852248
vn -1.570796 0.000000 0.000000
v 0.274790 0.025234 0.852248
vn -3.141593 0.000000 0.000000
v 0.274790 0.025234 0.941786
vn -0.898526 0.000000 0.000000
v 0.274790 0.025234 0.958393
vn -2.244161 0.000000 0.000000
v 0.274790 0.025281 0.958393
vn -1.570796 0.000000 1.570796
v 0.274790 0.025281 0.975000
vn -1.570796 1.570796 1.570796
v 0.274790 0.036368 0.975000
vn -4.712389 1.570796 1.570796
v 0.274790 0.036368 0.958393
vn -1.570796 1.570796 1.570796
v 0.274790 0.046098 0.958393
vn -4.711295 1.570796 1.570796
v 0.274790 0.046098 0.941786
vn 0.000000 -1.570796 -2.221441
v 0.147519 0.063063 0.865523
vn -2.221441 -1.570796 -0.000000
v 0.140502 0.063063 0.872540
vn 0.000000 -1.570796 2.221441
v 0.147519 0.063063 0.879557
vn 2.221441 -1.570796 -0.000000
v 0.154536 0.063063 0.872540
vn 0.000000 1.570796 -2.221441
v 0.147519 0.203405 0.865523
vn -2.221441 1.570796 -0.000000
v 0.140502 0.203405 0.872540
vn 0.000000 1.570796 2.221441
v 0.147519 0.203405 0.879557
vn 2.221441 1.570796 -0.000000
v 0.154536 0.203405 0.872540
# 221 vertices, 0 vertices normals

f 1//1 2//2 3//3
f 4//4 5//5 6//6
f 7//7 8//8 9//9
f 10//10 11//11 12//12
f 4//4 12//12 5//5
f 12//12 11//11 5//5
f 3//3 2//2 7//7
f 7//7 2//2 11//11
f 5//5 11//11 2//2
f 14//14 8//8 13//13
f 8//8 7//7 13//13
f 15//15 16//16 11//11
f 11//11 16//16 7//7
f 13//13 7//7 16//16
f 8//8 14//14 9//9
f 14//14 17//17 9//9
f 15//15 11//11 18//18
f 11//11 9//9 18//18
f 17//17 18//18 9//9
f 11//11 10//10 9//9
f 12//12 4//4 10//10
f 4//4 6//6 10//10
f 3//3 7//7 1//1
f 7//7 10//10 1//1
f 1//1 10//10 6//6
f 7//7 9//9 10//10
f 13//13 17//17 14//14
f 15//15 18//18 16//16
f 19//19 20//20 21//21
f 20//20 22//22 21//21
f 23//23 24//24 25//25
f 24//24 26//26 25//25
f 55//55 91//91 58//58
f 91//91 94//94 64//64
f 55//55 56//56 91//91
f 91//91 56//56 92//92
f 56//56 57//57 92//92
f 92//92 63//63 93//93
f 64//64 102//102 63//63
f 102//102 101//101 63//63
f 97//97 96//96 63//63
f 63//63 96//96 93//93
f 96//96 95//95 93//93
f 93//93 95//95 94//94
f 102//102 64//64 99//99
f 64//64 94//94 99//99
f 99//99 94//94 100//100
f 94//94 95//95 100//100
f 95//95 98//98 100//100
f 100//100 98//98 101//101
f 101//101 98//98 63//63
f 98//98 97//97 63//63
f 65//65 66//66 103//103
f 103//103 66//66 104//104
f 65//65 35//35 59//59
f 35//35 38//38 62//62
f 65//65 103//103 35//35
f 103//103 106//106 35//35
f 66//66 60//60 108//108
f 108//108 61//61 109//109
f 35//35 106//106 36//36
f 106//106 105//105 36//36
f 62//62 38//38 61//61
f 38//38 37//37 61//61
f 61//61 37//37 109//109
f 37//37 36//36 109//109
f 109//109 36//36 110//110
f 36//36 105//105 110//110
f 105//105 104//104 110//110
f 110//110 104//104 107//107
f 104//104 66//66 107//107
f 66//66 108//108 107//107
f 28//28 34//34 111//111
f 111//111 34//34 112//112
f 28//28 79//79 30//30
f 79//79 82//82 30//30
f 28//28 111//111 79//79
f 79//79 111//111 80//80
f 111//111 114//114 80//80
f 80//80 114//114 81//81
f 30//30 82//82 32//32
f 82//82 81//81 32//32
f 81//81 114//114 32//32
f 114//114 113//113 32//32
f 32//32 49//49 34//34
f 49//49 48//48 34//34
f 34//34 48//48 112//112
f 48//48 47//47 112//112
f 112//112 47//47 113//113
f 47//47 50//50 113//113
f 113//113 50//50 32//32
f 50//50 49//49 32//32
f 33//33 27//27 75//75
f 75//75 27//27 76//76
f 27//27 29//29 76//76
f 76//76 29//29 77//77
f 29//29 31//31 117//117
f 117//117 31//31 118//118
f 31//31 33//33 54//54
f 54//54 33//33 51//51
f 33//33 75//75 51//51
f 31//31 54//54 118//118
f 54//54 53//53 118//118
f 118//118 53//53 115//115
f 51//51 75//75 52//52
f 75//75 78//78 52//52
f 52//52 78//78 53//53
f 53//53 78//78 115//115
f 78//78 77//77 115//115
f 117//117 116//116 29//29
f 29//29 116//116 77//77
f 77//77 116//116 115//115
f 28//28 30//30 83//83
f 83//83 30//30 84//84
f 28//28 83//83 56//56
f 83//83 86//86 56//56
f 56//56 86//86 57//57
f 86//86 85//85 57//57
f 30//30 57//57 84//84
f 85//85 84//84 57//57
f 29//29 27//27 87//87
f 87//87 27//27 88//88
f 29//29 87//87 58//58
f 87//87 90//90 58//58
f 58//58 90//90 55//55
f 90//90 89//89 55//55
f 27//27 55//55 88//88
f 89//89 88//88 55//55
f 32//32 34//34 60//60
f 60//60 43//43 61//61
f 43//43 46//46 61//61
f 61//61 46//46 34//34
f 46//46 45//45 34//34
f 43//43 60//60 44//44
f 60//60 34//34 44//44
f 34//34 45//45 44//44
f 33//33 31//31 42//42
f 42//42 31//31 39//39
f 33//33 42//42 62//62
f 42//42 41//41 62//62
f 62//62 41//41 59//59
f 41//41 40//40 59//59
f 31//31 59//59 39//39
f 40//40 39//39 59//59
f 69//69 68//68 66//66
f 60//60 66//66 68//68
f 70//70 65//65 67//67
f 65//65 59//59 67//67
f 73//73 71//71 64//64
f 58//58 64//64 71//71
f 74//74 63//63 72//72
f 63//63 57//57 72//72
f 79//79 80//80 82//82
f 80//80 81//81 82//82
f 111//111 112//112 114//114
f 112//112 113//113 114//114
f 47//47 48//48 50//50
f 48//48 49//49 50//50
f 84//84 83//83 85//85
f 83//83 86//86 85//85
f 92//92 91//91 93//93
f 91//91 94//94 93//93
f 87//87 88//88 90//90
f 88//88 89//89 90//90
f 116//116 117//117 115//115
f 117//117 118//118 115//115
f 76//76 77//77 75//75
f 77//77 78//78 75//75
f 52//52 53//53 51//51
f 53//53 54//54 51//51
f 40//40 39//39 41//41
f 39//39 42//42 41//41
f 36//36 35//35 37//37
f 35//35 38//38 37//37
f 44//44 43//43 45//45
f 43//43 46//46 45//45
f 100//100 99//99 101//101
f 99//99 102//102 101//101
f 96//96 95//95 97//97
f 95//95 98//98 97//97
f 104//104 103//103 105//105
f 103//103 106//106 105//105
f 108//108 107//107 109//109
f 107//107 110//110 109//109
f 57//57 63//63 92//92
f 58//58 91//91 64//64
f 59//59 35//35 62//62
f 60//60 61//61 108//108
f 123//123 124//124 126//126
f 124//124 125//125 126//126
f 119//119 127//127 120//120
f 127//127 128//128 120//120
f 129//129 130//130 120//120
f 131//131 123//123 130//130
f 130//130 123//123 120//120
f 120//120 123//123 121//121
f 126//126 132//132 123//123
f 123//123 132//132 121//121
f 132//132 133//133 121//121
f 133//133 134//134 121//121
f 135//135 136//136 134//134
f 136//136 137//137 134//134
f 134//134 137//137 121//121
f 139//139 140//140 124//124
f 140//140 141//141 124//124
f 141//141 119//119 124//124
f 124//124 119//119 125//125
f 125//125 119//119 148//148
f 119//119 122//122 148//148
f 122//122 142//142 148//148
f 144//144 145//145 143//143
f 145//145 146//146 143//143
f 143//143 146//146 148//148
f 146//146 147//147 148//148
f 123//123 131//131 124//124
f 131//131 139//139 124//124
f 130//130 140//140 131//131
f 140//140 139//139 131//131
f 146//146 145//145 134//134
f 145//145 135//135 134//134
f 134//134 133//133 146//146
f 133//133 147//147 146//146
f 143//143 142//142 137//137
f 142//142 138//138 137//137
f 135//135 145//145 136//136
f 145//145 144//144 136//136
f 132//132 126//126 148//148
f 126//126 125//125 148//148
f 132//132 148//148 133//133
f 148//148 147//147 133//133
f 152//152 151//151 150//150
f 149//149 150//150 151//151
f 150//150 154//154 152//152
f 153//153 149//149 151//151
f 155//155 156//156 159//159
f 156//156 160//160 159//159
f 156//156 157//157 160//160
f 157//157 161//161 160//160
f 157//157 158//158 161//161
f 158//158 162//162 161//161
f 158//158 155//155 162//162
f 155//155 159//159 162//162
f 155//155 158//158 156//156
f 158//158 157//157 156//156
f 159//159 160//160 162//162
f 160//160 161//161 162//162
f 163//163 164//164 167//167
f 164//164 168//168 167//167
f 164//164 165//165 168//168
f 165//165 169//169 168//168
f 165//165 166//166 169//169
f 166//166 170//170 169//169
f 166//166 163//163 170//170
f 163//163 167//167 170//170
f 163//163 166//166 164//164
f 166//166 165//165 164//164
f 167//167 168//168 170//170
f 168//168 169//169 170//170
f 171//171 172//172 175//175
f 172//172 176//176 175//175
f 172//172 173//173 176//176
f 173//173 177//177 176//176
f 173//173 174//174 177//177
f 174//174 178//178 177//177
f 174//174 171//171 178//178
f 171//171 175//175 178//178
f 171//171 174//174 172//172
f 174//174 173//173 172//172
f 175//175 176//176 178//178
f 176//176 177//177 178//178
f 179//179 180//180 181//181
f 180//180 182//182 181//181
f 181//181 182//182 183//183
f 182//182 184//184 183//183
f 180//180 186//186 182//182
f 186//186 184//184 182//182
f 185//185 179//179 183//183
f 179//179 181//181 183//183
f 190//190 191//191 193//193
f 191//191 192//192 193//193
f 194//194 195//195 188//188
f 196//196 190//190 195//195
f 195//195 190//190 188//188
f 188//188 190//190 189//189
f 193//193 197//197 190//190
f 190//190 197//197 189//189
f 197//197 198//198 189//189
f 198//198 199//199 189//189
f 200//200 201//201 199//199
f 201//201 202//202 199//199
f 199//199 202//202 189//189
f 203//203 204//204 191//191
f 204//204 205//205 191//191
f 205//205 187//187 191//191
f 191//191 187//187 192//192
f 192//192 187//187 213//213
f 187//187 206//206 213//213
f 206//206 207//207 213//213
f 209//209 210//210 208//208
f 210//210 211//211 208//208
f 208//208 211//211 213//213
f 211//211 212//212 213//213
f 190//190 196//196 191//191
f 196//196 203//203 191//191
f 195//195 204//204 196//196
f 204//204 203//203 196//196
f 211//211 210//210 199//199
f 210//210 200//200 199//199
f 199//199 198//198 211//211
f 198//198 212//212 211//211
f 200//200 210//210 201//201
f 210//210 209//209 201//201
f 197//197 193//193 213//213
f 193//193 192//192 213//213
f 197//197 213//213 198//198
f 213//213 212//212 198//198
f 214//214 215//215 218//218
f 215//215 219//219 218//218
f 215//215 216//216 219//219
f 216//216 220//220 219//219
f 216//216 217//217 220//220
f 217//217 221//221 220//220
f 217//217 214//214 221//221
f 214//214 218//218 221//221
f 214//214 217//217 215//215
f 217//217 216//216 215//215
f 218//218 219//219 221//221
f 219//219 220//220 221//221
# 328 faces, 0 coords texture

# End of File
