####
#
# OBJ File Generated by Meshlab
#
####
# Object m454.obj
#
# Vertices: 200
# Faces: 216
#
####
vn -1.570796 0.000000 0.000000
v 0.110974 0.124732 0.315105
vn -1.570793 0.000000 0.000000
v 0.110974 0.079318 0.315141
vn -1.570796 0.000000 0.000000
v 0.110974 0.124759 0.349166
vn -1.570799 0.000000 0.000000
v 0.110974 0.079345 0.349202
vn -1.570774 0.000000 0.000000
v 0.110974 0.124732 0.245621
vn -1.570815 0.000000 0.000000
v 0.110974 0.079318 0.245658
vn -1.570796 0.000000 0.000000
v 0.110974 0.124759 0.279682
vn -1.570799 0.000000 0.000000
v 0.110974 0.079345 0.279718
vn -0.003992 -0.003981 -1.570792
v 0.181238 0.124840 0.087153
vn -0.003992 -0.003981 -1.570785
v 0.181123 0.079426 0.087269
vn -0.003992 -0.003981 -1.570780
v 0.140365 0.124944 0.087257
vn -0.003992 -0.003981 -1.570787
v 0.140250 0.079530 0.087372
vn -0.003996 0.003983 1.570796
v 0.417263 0.145243 0.403961
vn -0.004013 0.003967 1.570782
v 0.417401 0.090746 0.404099
vn -0.003981 0.003996 1.570776
v 0.466310 0.145368 0.404085
vn -0.003998 0.003981 1.570790
v 0.466448 0.090871 0.404224
vn -0.003996 0.003983 1.570796
v 0.336653 0.145243 0.403961
vn -0.004013 0.003967 1.570782
v 0.336791 0.090746 0.404099
vn -0.003981 0.003996 1.570776
v 0.385700 0.145368 0.404085
vn -0.003998 0.003981 1.570790
v 0.385838 0.090871 0.404224
vn -1.549803 1.570308 1.531921
v 0.246923 0.066156 0.412592
vn -4.714486 1.568679 1.566403
v 0.246927 0.061115 0.412596
vn -1.573071 1.570755 1.568454
v 0.246917 0.061124 0.426165
vn -4.714258 1.603550 1.589444
v 0.246924 0.052173 0.426172
vn -1.573053 1.570936 1.568602
v 0.246914 0.052183 0.439932
vn -4.714512 1.568716 1.566367
v 0.246920 0.043014 0.439939
vn -1.572984 1.570840 1.568690
v 0.246911 0.043023 0.453481
vn -4.714625 1.568043 1.566491
v 0.246917 0.034072 0.453487
vn -1.572976 1.570794 1.568622
v 0.246908 0.034081 0.466839
vn -1.570809 -1.570797 1.570785
v 0.246914 0.025321 0.466845
vn -1.568602 -1.573001 -1.570797
v 0.246960 0.025275 0.400904
vn -1.593989 1.568123 -1.609570
v 0.246932 0.065875 0.400875
vn 1.545468 1.572482 1.534104
v 0.328669 0.066213 0.412649
vn 4.710101 1.575285 1.573061
v 0.328672 0.061172 0.412653
vn 1.568554 1.572855 1.570709
v 0.328663 0.061181 0.426223
vn 4.710205 1.574390 1.572407
v 0.328669 0.052230 0.426229
vn 1.568668 1.572979 1.570682
v 0.328660 0.052240 0.439989
vn 4.710133 1.575330 1.572959
v 0.328666 0.043071 0.439996
vn 1.568683 1.573044 1.570708
v 0.328657 0.043080 0.453538
vn 4.710107 1.575815 1.572910
v 0.328663 0.034129 0.453545
vn 1.568591 1.572947 1.570779
v 0.328654 0.034138 0.466896
vn 1.570809 -1.568644 1.573000
v 0.328660 0.025378 0.466902
vn 1.572980 -1.570748 -1.568583
v 0.328706 0.025332 0.400961
vn 1.594092 1.570385 -1.607314
v 0.328677 0.065932 0.400933
vn -0.003996 0.003983 1.570796
v 0.185423 0.145243 0.403961
vn -0.004013 0.003967 1.570782
v 0.185561 0.090746 0.404099
vn -0.003981 0.003996 1.570776
v 0.234470 0.145368 0.404085
vn -0.003998 0.003981 1.570790
v 0.234608 0.090871 0.404224
vn -0.004011 0.003978 1.570788
v 0.265080 0.133980 0.403916
vn -0.004011 0.003978 1.570789
v 0.265263 0.061908 0.404099
vn -0.004011 0.003978 1.570785
v 0.308269 0.134090 0.404026
vn -0.004011 0.003978 1.570783
v 0.308452 0.062018 0.404209
vn -0.003990 -0.003981 -1.570786
v 0.450343 0.142360 0.054920
vn -0.003990 -0.003982 -1.570790
v 0.450177 0.076964 0.055086
vn -0.003992 -0.003980 -1.570771
v 0.368597 0.142568 0.055127
vn -0.003991 -0.003981 -1.570798
v 0.368432 0.077171 0.055293
vn -0.003996 0.003983 1.570778
v 0.105039 0.145243 0.403961
vn -0.004013 0.003967 1.570801
v 0.105178 0.090746 0.404099
vn -0.003981 0.003996 1.570776
v 0.154087 0.145368 0.404085
vn -0.003998 0.003981 1.570790
v 0.154225 0.090871 0.404224
vn 1.570796 0.000000 -1.570796
v 0.487516 0.025000 0.058998
vn -1.570796 0.000000 -1.570796
v 0.078787 0.025000 0.058998
vn -1.570796 0.000000 1.570796
v 0.078787 0.025000 0.399606
vn 1.570796 0.000000 1.570796
v 0.487516 0.025000 0.399606
vn 1.570796 0.000000 -1.570796
v 0.487516 0.059061 0.058998
vn -1.570796 0.000000 -1.570796
v 0.078787 0.059061 0.058998
vn -1.570796 0.000000 1.570796
v 0.078787 0.059061 0.399606
vn 1.570796 0.000000 1.570796
v 0.487516 0.059061 0.399606
vn 1.570796 0.000000 -1.570796
v 0.490241 0.054794 0.056273
vn -1.570796 0.000000 -1.570796
v 0.076062 0.054794 0.056273
vn -1.570796 0.000000 1.570796
v 0.076062 0.054794 0.402331
vn 1.570796 0.000000 1.570796
v 0.490241 0.054794 0.402331
vn 1.570796 0.000000 -1.570796
v 0.490241 0.191037 0.056273
vn -1.570796 0.000000 -1.570796
v 0.076062 0.191037 0.056273
vn -1.570796 0.000000 1.570796
v 0.076062 0.191037 0.402331
vn 1.570796 0.000000 1.570796
v 0.490241 0.191037 0.402331
vn 1.893082 0.494665 1.490875
v 0.076522 0.253488 0.311877
vn -1.893082 0.494665 1.490875
v 0.042461 0.253488 0.311877
vn -1.892003 0.498780 -1.489503
v 0.042461 0.253612 0.247297
vn 1.892003 0.498780 -1.489503
v 0.076522 0.253612 0.247297
vn 1.248517 0.494665 1.490875
v 0.076522 0.188050 0.333589
vn -1.248517 0.494665 1.490875
v 0.042461 0.188050 0.333589
vn -1.249583 0.498780 -1.489503
v 0.042461 0.188257 0.225412
vn 1.249583 0.498780 -1.489503
v 0.076522 0.188257 0.225412
vn 1.571372 1.568704 1.573789
v 0.076522 0.383193 0.311332
vn -1.571372 1.568704 1.573789
v 0.042461 0.383193 0.311332
vn -1.570213 1.572871 -1.567801
v 0.042461 0.383314 0.247842
vn 1.570213 1.572871 -1.567801
v 0.076522 0.383314 0.247842
vn 1.570205 -0.002090 1.570795
v 0.076522 0.252399 0.311158
vn -1.570205 -0.002090 1.570795
v 0.042461 0.252399 0.311158
vn -1.571395 0.002078 -1.570795
v 0.042461 0.252521 0.247669
vn 1.571395 0.002078 -1.570795
v 0.076522 0.252521 0.247669
vn 1.573002 1.567572 1.572526
v 0.094399 0.387281 0.298286
vn 1.569711 -1.573027 1.566624
v 0.094395 0.379107 0.298276
vn -1.573957 -4.710177 -1.577205
v 0.085721 0.379121 0.293462
vn -1.568333 4.715592 -1.561346
v 0.085725 0.387296 0.293472
vn 1.570929 1.572426 -1.569547
v 0.094368 0.387349 0.259751
vn 1.569786 -1.570155 -1.574701
v 0.094364 0.379175 0.259741
vn -1.574151 -4.712988 1.562979
v 0.085697 0.379172 0.264561
vn -1.566276 4.710757 1.580537
v 0.085701 0.387347 0.264571
vn -1.569583 1.573026 -1.566518
v 0.025004 0.387400 0.259773
vn -1.572888 -1.567572 -1.572448
v 0.025000 0.379225 0.259763
vn 1.568670 -4.715593 1.561765
v 0.033674 0.379211 0.264577
vn 1.574222 4.710176 1.577698
v 0.033679 0.387385 0.264587
vn -1.569668 1.570172 1.574605
v 0.025035 0.387332 0.298308
vn -1.570926 -1.572404 1.569531
v 0.025031 0.379157 0.298298
vn 1.566288 -4.710741 -1.580526
v 0.033698 0.379159 0.293478
vn 1.574352 4.713012 -1.563591
v 0.033702 0.387334 0.293488
vn 1.571377 -0.002085 1.570795
v 0.076522 0.188867 0.334084
vn -1.571377 -0.002085 1.570795
v 0.042461 0.188867 0.334084
vn -1.570215 0.002085 -1.570795
v 0.042461 0.189075 0.225090
vn 1.570215 0.002085 -1.570795
v 0.076522 0.189075 0.225090
vn 1.570212 -0.002085 1.570795
v 0.076522 0.025375 0.333867
vn -1.570212 -0.002085 1.570795
v 0.042461 0.025375 0.333867
vn -1.571380 0.002085 -1.570795
v 0.042461 0.025583 0.224873
vn 1.571380 0.002085 -1.570795
v 0.076522 0.025583 0.224873
vn 1.570796 -1.570796 -1.570796
v 0.490241 0.189561 0.055081
vn -1.570796 -1.570796 -1.570796
v 0.076062 0.189561 0.055081
vn -1.570796 -1.570796 1.570796
v 0.076062 0.189561 0.435744
vn 1.570796 -1.570796 1.570796
v 0.490241 0.189561 0.435744
vn 1.570796 0.000000 -1.570796
v 0.490241 0.298556 0.055081
vn -1.570796 0.000000 -1.570796
v 0.076062 0.298556 0.055081
vn -1.570796 0.000000 1.570796
v 0.076062 0.298556 0.435744
vn 1.570796 0.000000 1.570796
v 0.490241 0.298556 0.435744
vn 0.371283 -0.000326 -0.000236
v 0.487615 0.296363 0.435768
vn 2.398907 -0.002105 -0.001524
v 0.487559 0.370383 0.245366
vn 0.371401 -0.000326 -0.000236
v 0.487373 0.296170 0.055106
vn -0.371281 0.000324 0.000236
v 0.078886 0.296592 0.436082
vn -2.398912 0.002096 0.001523
v 0.078830 0.370611 0.245680
vn -0.371398 0.000324 0.000236
v 0.078644 0.296398 0.055419
vn 0.858939 0.086569 -1.309892
v 0.501098 0.290814 0.025000
vn -0.860852 0.087625 -1.309053
v 0.065121 0.291058 0.025335
vn -2.275805 -1.376184 -0.751724
v 0.065122 0.287791 0.031333
vn 2.273099 -1.380572 -0.754875
v 0.501099 0.287547 0.030998
vn 2.415277 2.933798 -0.003285
v 0.501311 0.374851 0.245224
vn -2.411991 2.938115 -0.000034
v 0.065334 0.375095 0.245559
vn -3.870388 0.003411 0.002457
v 0.065329 0.369645 0.245564
vn 3.870397 -0.002844 -0.002465
v 0.501307 0.369402 0.245229
vn 0.860990 0.088130 1.309040
v 0.501378 0.291038 0.465610
vn -0.858830 0.089069 1.309844
v 0.065401 0.291281 0.465944
vn -2.274656 -1.375498 0.756275
v 0.065394 0.288009 0.459953
vn 2.274213 -1.379149 0.753552
v 0.501372 0.287765 0.459618
vn -0.005317 -5.494957 -2.918377
v 0.283111 0.289847 0.028166
vn -0.000822 -5.491529 2.924555
v 0.283387 0.290068 0.462781
vn -0.003998 0.003981 1.570796
v 0.185404 0.267479 0.437783
vn -0.003981 0.003996 1.570776
v 0.185542 0.212982 0.437922
vn -0.004013 0.003967 1.570776
v 0.234451 0.267604 0.437908
vn -0.003996 0.003983 1.570796
v 0.234589 0.213107 0.438046
vn -0.003998 0.003981 1.570796
v 0.336633 0.267479 0.437783
vn -0.003981 0.003996 1.570776
v 0.336771 0.212982 0.437922
vn -0.004013 0.003967 1.570795
v 0.385680 0.267604 0.437908
vn -0.003996 0.003983 1.570778
v 0.385819 0.213107 0.438046
vn -0.003998 0.003981 1.570796
v 0.417244 0.267479 0.437783
vn -0.003981 0.003996 1.570776
v 0.417382 0.212982 0.437922
vn -0.004013 0.003967 1.570776
v 0.466291 0.267604 0.437908
vn -0.003996 0.003983 1.570796
v 0.466429 0.213107 0.438046
vn -0.003998 0.003981 1.570796
v 0.105020 0.267479 0.437783
vn -0.003981 0.003996 1.570776
v 0.105158 0.212982 0.437922
vn -0.004013 0.003967 1.570776
v 0.154067 0.267604 0.437908
vn -0.003996 0.003983 1.570796
v 0.154205 0.213107 0.438046
vn -1.109676 0.001540 1.111488
v 0.517474 0.117649 0.355121
vn -1.109950 0.001537 1.111761
v 0.517439 0.039570 0.355194
vn -1.109955 0.001551 1.111773
v 0.670295 0.117681 0.507692
vn -1.109669 0.001548 1.111486
v 0.670260 0.039603 0.507766
vn 1.712745 0.100257 -0.353148
v 0.975000 0.143130 0.299465
vn 0.343824 0.105313 -1.716268
v 0.743031 0.143960 0.069014
vn -0.952833 -1.326678 -2.120336
v 0.739560 0.140905 0.072492
vn 2.120229 -1.338358 0.935707
v 0.971529 0.140075 0.302944
vn 1.653809 2.873432 1.635255
v 0.848193 0.222190 0.427229
vn -1.634257 2.885022 -1.634168
v 0.616225 0.223021 0.196777
vn -2.811557 0.009912 -2.796731
v 0.616205 0.217912 0.196779
vn 2.811555 -0.009915 2.796724
v 0.848173 0.217081 0.427231
vn -0.343137 0.107265 1.716804
v 0.720766 0.143891 0.555050
vn -1.712438 0.111974 0.353179
v 0.488797 0.144722 0.324598
vn -2.129286 -1.323693 -0.935745
v 0.492244 0.141646 0.321122
vn 0.943266 -1.333864 2.119899
v 0.724212 0.140815 0.551574
vn 2.250643 -5.321241 -2.284625
v 0.857282 0.142528 0.185978
vn -2.287817 -5.305414 2.283740
v 0.606507 0.143279 0.438086
vn 0.297437 -0.001066 0.295867
v 0.730325 0.149756 0.530487
vn 1.632214 -0.005852 1.623598
v 0.840421 0.218911 0.420056
vn 0.297655 -0.001067 0.296084
v 0.949969 0.149099 0.309675
vn -0.297436 0.001067 -0.295869
v 0.512854 0.150535 0.314438
vn -1.632203 0.005853 -1.623601
v 0.622951 0.219690 0.204007
vn -0.297656 0.001067 -0.296087
v 0.732499 0.149877 0.093627
vn 2.221763 0.000000 -0.000853
v 0.951742 0.049084 0.311344
vn -0.000855 0.000000 -2.221117
v 0.732038 0.049084 0.091745
vn -2.221768 0.000000 0.000853
v 0.511926 0.049084 0.312091
vn 0.000850 0.000000 2.221117
v 0.731629 0.049084 0.531690
vn 2.221763 0.000000 -0.000853
v 0.951742 0.151267 0.311344
vn -0.000855 0.000000 -2.221117
v 0.732038 0.151267 0.091745
vn -2.221768 0.000000 0.000853
v 0.511926 0.151267 0.312091
vn 0.000850 0.000000 2.221117
v 0.731629 0.151267 0.531690
vn 2.221767 0.000000 -0.000858
v 0.948563 0.026819 0.311634
vn -0.000856 0.000000 -2.221117
v 0.731750 0.026819 0.094925
vn -2.221767 0.000000 0.000854
v 0.515104 0.026819 0.311801
vn 0.000856 0.000000 2.221113
v 0.731917 0.026819 0.528511
vn 2.221767 0.000000 -0.000858
v 0.948563 0.052364 0.311634
vn -0.000856 0.000000 -2.221117
v 0.731750 0.052364 0.094925
vn -2.221767 0.000000 0.000854
v 0.515104 0.052364 0.311801
vn 0.000856 0.000000 2.221113
v 0.731917 0.052364 0.528511
# 200 vertices, 0 vertices normals

f 1//1 2//2 4//4
f 1//1 4//4 3//3
f 5//5 6//6 8//8
f 5//5 8//8 7//7
f 9//9 10//10 12//12
f 9//9 12//12 11//11
f 13//13 14//14 16//16
f 13//13 16//16 15//15
f 17//17 18//18 20//20
f 17//17 20//20 19//19
f 21//21 22//22 34//34
f 21//21 34//34 33//33
f 22//22 23//23 35//35
f 22//22 35//35 34//34
f 23//23 24//24 36//36
f 23//23 36//36 35//35
f 24//24 25//25 37//37
f 24//24 37//37 36//36
f 25//25 26//26 38//38
f 25//25 38//38 37//37
f 26//26 27//27 39//39
f 26//26 39//39 38//38
f 27//27 28//28 40//40
f 27//27 40//40 39//39
f 28//28 29//29 41//41
f 28//28 41//41 40//40
f 29//29 30//30 42//42
f 29//29 42//42 41//41
f 30//30 31//31 43//43
f 30//30 43//43 42//42
f 31//31 32//32 44//44
f 31//31 44//44 43//43
f 32//32 21//21 33//33
f 32//32 33//33 44//44
f 32//32 22//22 21//21
f 31//31 22//22 32//32
f 29//29 31//31 30//30
f 28//28 31//31 29//29
f 26//26 28//28 27//27
f 26//26 31//31 28//28
f 26//26 22//22 31//31
f 24//24 26//26 25//25
f 24//24 22//22 26//26
f 24//24 23//23 22//22
f 44//44 33//33 34//34
f 43//43 44//44 34//34
f 41//41 42//42 43//43
f 40//40 41//41 43//43
f 38//38 39//39 40//40
f 38//38 40//40 43//43
f 38//38 43//43 34//34
f 36//36 37//37 38//38
f 36//36 38//38 34//34
f 36//36 34//34 35//35
f 45//45 46//46 48//48
f 45//45 48//48 47//47
f 49//49 50//50 52//52
f 49//49 52//52 51//51
f 53//53 54//54 56//56
f 53//53 56//56 55//55
f 57//57 58//58 60//60
f 57//57 60//60 59//59
f 61//61 62//62 66//66
f 61//61 66//66 65//65
f 62//62 63//63 67//67
f 62//62 67//67 66//66
f 63//63 64//64 68//68
f 63//63 68//68 67//67
f 64//64 61//61 65//65
f 64//64 65//65 68//68
f 69//69 70//70 74//74
f 69//69 74//74 73//73
f 70//70 71//71 75//75
f 70//70 75//75 74//74
f 71//71 72//72 76//76
f 71//71 76//76 75//75
f 72//72 69//69 73//73
f 72//72 73//73 76//76
f 77//77 78//78 82//82
f 77//77 82//82 81//81
f 78//78 79//79 83//83
f 78//78 83//83 82//82
f 79//79 80//80 84//84
f 79//79 84//84 83//83
f 80//80 77//77 81//81
f 80//80 81//81 84//84
f 85//85 86//86 90//90
f 85//85 90//90 89//89
f 86//86 87//87 91//91
f 86//86 91//91 90//90
f 87//87 88//88 92//92
f 87//87 92//92 91//91
f 88//88 85//85 89//89
f 88//88 89//89 92//92
f 87//87 85//85 88//88
f 86//86 85//85 87//87
f 93//93 98//98 97//97
f 93//93 94//94 98//98
f 94//94 99//99 98//98
f 94//94 95//95 99//99
f 95//95 100//100 99//99
f 95//95 96//96 100//100
f 96//96 97//97 100//100
f 96//96 93//93 97//97
f 97//97 102//102 101//101
f 97//97 98//98 102//102
f 98//98 103//103 102//102
f 98//98 99//99 103//103
f 99//99 104//104 103//103
f 99//99 100//100 104//104
f 100//100 101//101 104//104
f 100//100 97//97 101//101
f 101//101 106//106 105//105
f 101//101 102//102 106//106
f 102//102 107//107 106//106
f 102//102 103//103 107//107
f 103//103 108//108 107//107
f 103//103 104//104 108//108
f 104//104 105//105 108//108
f 104//104 101//101 105//105
f 105//105 94//94 93//93
f 105//105 106//106 94//94
f 106//106 95//95 94//94
f 106//106 107//107 95//95
f 107//107 96//96 95//95
f 107//107 108//108 96//96
f 108//108 93//93 96//96
f 108//108 105//105 93//93
f 109//109 110//110 114//114
f 109//109 114//114 113//113
f 110//110 111//111 115//115
f 110//110 115//115 114//114
f 111//111 112//112 116//116
f 111//111 116//116 115//115
f 112//112 109//109 113//113
f 112//112 113//113 116//116
f 117//117 118//118 122//122
f 117//117 122//122 121//121
f 118//118 119//119 123//123
f 118//118 123//123 122//122
f 119//119 120//120 124//124
f 119//119 124//124 123//123
f 120//120 117//117 121//121
f 120//120 121//121 124//124
f 119//119 117//117 120//120
f 119//119 118//118 117//117
f 126//126 125//125 127//127
f 129//129 130//130 128//128
f 131//131 136//136 135//135
f 131//131 132//132 136//136
f 132//132 137//137 136//136
f 132//132 133//133 137//137
f 134//134 135//135 138//138
f 134//134 131//131 135//135
f 135//135 140//140 139//139
f 135//135 136//136 140//140
f 136//136 141//141 140//140
f 136//136 137//137 141//141
f 138//138 139//139 142//142
f 138//138 135//135 139//139
f 143//143 132//132 131//131
f 143//143 133//133 132//132
f 143//143 134//134 133//133
f 143//143 131//131 134//134
f 144//144 139//139 140//140
f 144//144 140//140 141//141
f 144//144 141//141 142//142
f 144//144 142//142 139//139
f 145//145 146//146 148//148
f 145//145 148//148 147//147
f 149//149 150//150 152//152
f 149//149 152//152 151//151
f 153//153 154//154 156//156
f 153//153 156//156 155//155
f 157//157 158//158 160//160
f 157//157 160//160 159//159
f 161//161 162//162 164//164
f 161//161 164//164 163//163
f 165//165 170//170 169//169
f 165//165 166//166 170//170
f 166//166 171//171 170//170
f 166//166 167//167 171//171
f 168//168 169//169 172//172
f 168//168 165//165 169//169
f 169//169 174//174 173//173
f 169//169 170//170 174//174
f 170//170 175//175 174//174
f 170//170 171//171 175//175
f 172//172 173//173 176//176
f 172//172 169//169 173//173
f 177//177 166//166 165//165
f 177//177 167//167 166//166
f 177//177 168//168 167//167
f 177//177 165//165 168//168
f 178//178 173//173 174//174
f 178//178 174//174 175//175
f 178//178 175//175 176//176
f 178//178 176//176 173//173
f 180//180 179//179 181//181
f 183//183 184//184 182//182
f 185//185 186//186 190//190
f 185//185 190//190 189//189
f 186//186 187//187 191//191
f 186//186 191//191 190//190
f 187//187 188//188 192//192
f 187//187 192//192 191//191
f 188//188 185//185 189//189
f 188//188 189//189 192//192
f 193//193 194//194 198//198
f 193//193 198//198 197//197
f 194//194 195//195 199//199
f 194//194 199//199 198//198
f 195//195 196//196 200//200
f 195//195 200//200 199//199
f 196//196 193//193 197//197
f 196//196 197//197 200//200
# 216 faces, 0 coords texture

# End of File
