####
#
# OBJ File Generated by Meshlab
#
####
# Object m462.obj
#
# Vertices: 25
# Faces: 22
#
####
vn -1.570796 0.000000 0.000000
v 0.071884 0.025000 0.974081
vn 1.570796 0.000000 -0.000935
v 0.637317 0.025000 0.974081
vn -1.562067 0.000000 0.000000
v 0.071884 0.326048 0.974081
vn 1.592454 0.000000 -0.000948
v 0.637317 0.325129 0.974081
vn -1.580729 -0.000510 -2.717166
v 0.071884 0.317779 0.026838
vn 1.549473 -0.006804 -2.701500
v 0.636753 0.345648 0.026838
vn -1.570796 0.000000 -1.570796
v 0.071884 0.025000 0.026838
vn 1.570796 0.000000 -1.571732
v 0.636753 0.025000 0.026838
vn -0.009212 2.787894 0.008785
v 0.352624 0.603820 0.974081
vn -0.039020 2.815877 -2.209421
v 0.352624 0.603820 0.026838
vn -2.146793 2.074334 0.000526
v 0.154355 0.500000 0.974081
vn -2.143619 2.054192 -2.477956
v 0.154920 0.501531 0.026838
vn 2.071361 2.195309 0.014216
v 0.550328 0.500919 0.974081
vn 2.074210 2.140554 -2.444081
v 0.563320 0.501225 0.025919
vn 0.000000 0.000000 1.561575
v 0.071884 0.025000 0.906093
vn 0.000000 0.000000 1.563417
v 0.636753 0.025000 0.906093
vn 0.000000 0.000000 2.681922
v 0.634493 0.331254 0.906093
vn 0.000000 0.000000 2.511635
v 0.550328 0.498162 0.906093
vn 0.000000 0.000000 2.190346
v 0.352624 0.599533 0.906093
vn 0.000000 0.000000 2.498398
v 0.154920 0.497244 0.906093
vn 0.000000 0.000000 2.700671
v 0.074708 0.331254 0.906093
vn 1.353496 0.812048 0.000806
v 0.679683 0.285316 0.972244
vn 1.372230 0.756042 0.016093
v 0.680247 0.285316 0.025000
vn -1.430000 0.681726 -0.001597
v 0.026695 0.234784 0.975000
vn -1.415368 0.649086 -0.008800
v 0.025000 0.218246 0.027756
# 25 vertices, 0 vertices normals

f 15//15 16//16 17//17
f 24//24 11//11 12//12
f 5//5 12//12 10//10
f 2//2 8//8 6//6
f 7//7 1//1 3//3
f 9//9 13//13 14//14
f 11//11 9//9 10//10
f 13//13 22//22 23//23
f 15//15 17//17 18//18
f 15//15 18//18 19//19
f 15//15 19//19 20//20
f 15//15 20//20 21//21
f 24//24 12//12 25//25
f 5//5 10//10 14//14
f 5//5 14//14 6//6
f 5//5 6//6 8//8
f 5//5 8//8 7//7
f 2//2 6//6 4//4
f 7//7 3//3 5//5
f 9//9 14//14 10//10
f 11//11 10//10 12//12
f 13//13 23//23 14//14
# 22 faces, 0 coords texture

# End of File
