####
#
# OBJ File Generated by Meshlab
#
####
# Object m931.obj
#
# Vertices: 54
# Faces: 88
#
####
vn 2.417205 2.513273 1.756205
v 0.736131 0.975000 0.629924
vn 2.417205 -2.513273 1.756205
v 0.736131 0.909483 0.629924
vn 0.000000 -6.283185 0.000000
v 0.418103 0.909483 0.398864
vn 0.000000 6.283185 0.000000
v 0.418103 0.975000 0.398864
vn 0.923289 2.513275 2.841598
v 0.539579 0.975000 0.772727
vn 0.923289 -2.513275 2.841598
v 0.539579 0.909483 0.772727
vn -0.923289 2.513275 2.841598
v 0.296628 0.975000 0.772727
vn -0.923289 -2.513275 2.841598
v 0.296628 0.909483 0.772727
vn -2.417205 2.513273 1.756205
v 0.100076 0.975000 0.629924
vn -2.417205 -2.513273 1.756205
v 0.100076 0.909483 0.629924
vn -2.987833 2.513275 0.000002
v 0.025000 0.975000 0.398864
vn -2.987833 -2.513275 0.000002
v 0.025000 0.909483 0.398864
vn -2.417206 2.513272 -1.756203
v 0.100076 0.975000 0.167803
vn -2.417206 -2.513272 -1.756203
v 0.100076 0.909483 0.167803
vn -0.923289 2.513275 -2.841598
v 0.296628 0.975000 0.025000
vn -0.923289 -2.513275 -2.841598
v 0.296628 0.909483 0.025000
vn 0.923289 2.513275 -2.841598
v 0.539579 0.975000 0.025000
vn 0.923289 -2.513275 -2.841598
v 0.539579 0.909483 0.025000
vn 2.417206 2.513272 -1.756203
v 0.736131 0.975000 0.167803
vn 2.417206 -2.513272 -1.756203
v 0.736131 0.909483 0.167803
vn 2.987833 2.513275 0.000002
v 0.811207 0.975000 0.398864
vn 2.987833 -2.513275 0.000002
v 0.811207 0.909483 0.398864
vn -1.570796 -1.570796 -1.570796
v 0.647414 0.025000 0.628174
vn 1.570796 -1.570796 -1.570796
v 0.712931 0.025000 0.628174
vn 1.570796 1.570796 -1.570796
v 0.712931 0.898563 0.628174
vn -1.570796 1.570796 -1.570796
v 0.647414 0.898563 0.628174
vn -1.570796 -1.570796 1.570796
v 0.647414 0.025000 0.693691
vn 1.570796 -1.570796 1.570796
v 0.712931 0.025000 0.693691
vn 1.570796 1.570796 1.570796
v 0.712931 0.898563 0.693691
vn -1.570796 1.570796 1.570796
v 0.647414 0.898563 0.693691
vn -1.570796 -1.570796 -1.570796
v 0.123276 0.025000 0.628174
vn 1.570796 -1.570796 -1.570796
v 0.188793 0.025000 0.628174
vn 1.570796 1.570796 -1.570796
v 0.188793 0.898563 0.628174
vn -1.570796 1.570796 -1.570796
v 0.123276 0.898563 0.628174
vn -1.570796 -1.570796 1.570796
v 0.123276 0.025000 0.693691
vn 1.570796 -1.570796 1.570796
v 0.188793 0.025000 0.693691
vn 1.570796 1.570796 1.570796
v 0.188793 0.898563 0.693691
vn -1.570796 1.570796 1.570796
v 0.123276 0.898563 0.693691
vn -1.570796 -1.570796 -1.570796
v 0.123276 0.025000 0.104036
vn 1.570796 -1.570796 -1.570796
v 0.188793 0.025000 0.104036
vn 1.570796 1.570796 -1.570796
v 0.188793 0.898563 0.104036
vn -1.570796 1.570796 -1.570796
v 0.123276 0.898563 0.104036
vn -1.570796 -1.570796 1.570796
v 0.123276 0.025000 0.169553
vn 1.570796 -1.570796 1.570796
v 0.188793 0.025000 0.169553
vn 1.570796 1.570796 1.570796
v 0.188793 0.898563 0.169553
vn -1.570796 1.570796 1.570796
v 0.123276 0.898563 0.169553
vn -1.570796 -1.570796 -1.570796
v 0.647414 0.025000 0.104036
vn 1.570796 -1.570796 -1.570796
v 0.712931 0.025000 0.104036
vn 1.570796 1.570796 -1.570796
v 0.712931 0.898563 0.104036
vn -1.570796 1.570796 -1.570796
v 0.647414 0.898563 0.104036
vn -1.570796 -1.570796 1.570796
v 0.647414 0.025000 0.169553
vn 1.570796 -1.570796 1.570796
v 0.712931 0.025000 0.169553
vn 1.570796 1.570796 1.570796
v 0.712931 0.898563 0.169553
vn -1.570796 1.570796 1.570796
v 0.647414 0.898563 0.169553
# 54 vertices, 0 vertices normals

f 21//21 1//1 22//22
f 1//1 2//2 22//22
f 3//3 22//22 2//2
f 4//4 1//1 21//21
f 1//1 5//5 2//2
f 5//5 6//6 2//2
f 3//3 2//2 6//6
f 4//4 5//5 1//1
f 5//5 7//7 6//6
f 7//7 8//8 6//6
f 3//3 6//6 8//8
f 4//4 7//7 5//5
f 7//7 9//9 8//8
f 9//9 10//10 8//8
f 3//3 8//8 10//10
f 4//4 9//9 7//7
f 9//9 11//11 10//10
f 11//11 12//12 10//10
f 3//3 10//10 12//12
f 4//4 11//11 9//9
f 11//11 13//13 12//12
f 13//13 14//14 12//12
f 3//3 12//12 14//14
f 4//4 13//13 11//11
f 13//13 15//15 14//14
f 15//15 16//16 14//14
f 3//3 14//14 16//16
f 4//4 15//15 13//13
f 15//15 17//17 16//16
f 17//17 18//18 16//16
f 3//3 16//16 18//18
f 4//4 17//17 15//15
f 17//17 19//19 18//18
f 19//19 20//20 18//18
f 3//3 18//18 20//20
f 4//4 19//19 17//17
f 19//19 21//21 20//20
f 21//21 22//22 20//20
f 3//3 20//20 22//22
f 4//4 21//21 19//19
f 23//23 26//26 24//24
f 24//24 26//26 25//25
f 23//23 28//28 27//27
f 23//23 24//24 28//28
f 23//23 27//27 26//26
f 26//26 27//27 30//30
f 26//26 30//30 29//29
f 26//26 29//29 25//25
f 24//24 29//29 28//28
f 24//24 25//25 29//29
f 28//28 30//30 27//27
f 28//28 29//29 30//30
f 31//31 34//34 32//32
f 32//32 34//34 33//33
f 31//31 36//36 35//35
f 31//31 32//32 36//36
f 31//31 35//35 34//34
f 34//34 35//35 38//38
f 34//34 38//38 37//37
f 34//34 37//37 33//33
f 32//32 37//37 36//36
f 32//32 33//33 37//37
f 36//36 38//38 35//35
f 36//36 37//37 38//38
f 39//39 42//42 40//40
f 40//40 42//42 41//41
f 39//39 44//44 43//43
f 39//39 40//40 44//44
f 39//39 43//43 42//42
f 42//42 43//43 46//46
f 42//42 46//46 45//45
f 42//42 45//45 41//41
f 40//40 45//45 44//44
f 40//40 41//41 45//45
f 44//44 46//46 43//43
f 44//44 45//45 46//46
f 47//47 50//50 48//48
f 48//48 50//50 49//49
f 47//47 52//52 51//51
f 47//47 48//48 52//52
f 47//47 51//51 50//50
f 50//50 51//51 54//54
f 50//50 54//54 53//53
f 50//50 53//53 49//49
f 48//48 53//53 52//52
f 48//48 49//49 53//53
f 52//52 54//54 51//51
f 52//52 53//53 54//54
# 88 faces, 0 coords texture

# End of File
