####
#
# OBJ File Generated by Meshlab
#
####
# Object m933.obj
#
# Vertices: 55
# Faces: 100
#
####
vn -0.000000 6.025332 -0.000000
v 0.500000 0.072500 0.476752
vn 0.399948 -0.041457 0.290578
v 0.692142 0.025000 0.616351
vn 0.000000 -6.283185 0.000000
v 0.500000 0.025000 0.476752
vn 0.152767 -0.041458 0.470167
v 0.573392 0.025000 0.702628
vn -0.152767 -0.041458 0.470167
v 0.426608 0.025000 0.702628
vn -0.399948 -0.041457 0.290578
v 0.307858 0.025000 0.616351
vn -0.494364 -0.041458 0.000000
v 0.262500 0.025000 0.476752
vn -0.399948 -0.041457 -0.290578
v 0.307858 0.025000 0.337153
vn -0.152767 -0.041458 -0.470167
v 0.426608 0.025000 0.250876
vn 0.152767 -0.041458 -0.470167
v 0.573392 0.025000 0.250876
vn 0.399948 -0.041457 -0.290578
v 0.692142 0.025000 0.337153
vn 0.494364 -0.041458 0.000000
v 0.737500 0.025000 0.476752
vn 2.987825 2.513258 0.000000
v 0.547500 0.535625 0.476752
vn 2.417190 2.513271 1.756225
v 0.538428 0.535625 0.504672
vn 2.987825 -2.513258 -0.000000
v 0.547500 0.060625 0.476752
vn 2.417190 -2.513271 1.756225
v 0.538428 0.060625 0.504672
vn 0.000000 -6.283185 0.000000
v 0.500000 0.060625 0.476752
vn 0.000000 -0.000000 0.000000
v 0.500000 0.535625 0.476752
vn 0.923277 2.513285 2.841607
v 0.514678 0.535625 0.521927
vn 0.923277 -2.513285 2.841607
v 0.514678 0.060625 0.521927
vn -0.923277 2.513285 2.841607
v 0.485322 0.535625 0.521927
vn -0.923277 -2.513285 2.841607
v 0.485322 0.060625 0.521927
vn -2.417190 2.513271 1.756225
v 0.461572 0.535625 0.504672
vn -2.417190 -2.513271 1.756225
v 0.461572 0.060625 0.504672
vn -2.987825 2.513258 -0.000000
v 0.452500 0.535625 0.476752
vn -2.987825 -2.513258 0.000000
v 0.452500 0.060625 0.476752
vn -2.417190 2.513271 -1.756225
v 0.461572 0.535625 0.448832
vn -2.417190 -2.513271 -1.756225
v 0.461572 0.060625 0.448832
vn -0.923277 2.513285 -2.841607
v 0.485322 0.535625 0.431577
vn -0.923277 -2.513285 -2.841607
v 0.485322 0.060625 0.431577
vn 0.923277 2.513285 -2.841607
v 0.514678 0.535625 0.431577
vn 0.923277 -2.513285 -2.841607
v 0.514678 0.060625 0.431577
vn 2.417190 2.513271 -1.756225
v 0.538428 0.535625 0.448832
vn 2.417190 -2.513271 -1.756225
v 0.538428 0.060625 0.448832
vn 2.417207 2.513275 1.756204
v 0.884283 0.559375 0.755950
vn 2.417207 -2.513275 1.756204
v 0.884283 0.535625 0.755950
vn 0.000000 6.283185 0.000000
v 0.500000 0.559375 0.476752
vn 0.923291 2.513274 2.841597
v 0.646783 0.559375 0.928504
vn 0.923291 -2.513274 2.841597
v 0.646783 0.535625 0.928504
vn -0.923291 2.513274 2.841597
v 0.353217 0.559375 0.928504
vn -0.923291 -2.513274 2.841597
v 0.353217 0.535625 0.928504
vn -2.417207 2.513275 1.756204
v 0.115717 0.559375 0.755950
vn -2.417207 -2.513275 1.756204
v 0.115717 0.535625 0.755950
vn -2.987832 2.513274 0.000000
v 0.025000 0.559375 0.476752
vn -2.987832 -2.513274 -0.000000
v 0.025000 0.535625 0.476752
vn -2.417207 2.513275 -1.756204
v 0.115717 0.559375 0.197554
vn -2.417207 -2.513275 -1.756204
v 0.115717 0.535625 0.197554
vn -0.923291 2.513274 -2.841597
v 0.353217 0.559375 0.025000
vn -0.923291 -2.513274 -2.841597
v 0.353217 0.535625 0.025000
vn 0.923291 2.513274 -2.841597
v 0.646783 0.559375 0.025000
vn 0.923291 -2.513274 -2.841597
v 0.646783 0.535625 0.025000
vn 2.417207 2.513275 -1.756204
v 0.884283 0.559375 0.197554
vn 2.417207 -2.513275 -1.756204
v 0.884283 0.535625 0.197554
vn 2.987832 2.513274 -0.000000
v 0.975000 0.559375 0.476752
vn 2.987832 -2.513274 0.000000
v 0.975000 0.535625 0.476752
# 55 vertices, 0 vertices normals

f 1//1 2//2 12//12
f 3//3 12//12 2//2
f 1//1 4//4 2//2
f 3//3 2//2 4//4
f 1//1 5//5 4//4
f 3//3 4//4 5//5
f 1//1 6//6 5//5
f 3//3 5//5 6//6
f 1//1 7//7 6//6
f 3//3 6//6 7//7
f 1//1 8//8 7//7
f 3//3 7//7 8//8
f 1//1 9//9 8//8
f 3//3 8//8 9//9
f 1//1 10//10 9//9
f 3//3 9//9 10//10
f 1//1 11//11 10//10
f 3//3 10//10 11//11
f 1//1 12//12 11//11
f 3//3 11//11 12//12
f 13//13 14//14 15//15
f 14//14 16//16 15//15
f 17//17 15//15 16//16
f 18//18 14//14 13//13
f 14//14 19//19 16//16
f 19//19 20//20 16//16
f 17//17 16//16 20//20
f 18//18 19//19 14//14
f 19//19 21//21 20//20
f 21//21 22//22 20//20
f 17//17 20//20 22//22
f 18//18 21//21 19//19
f 21//21 23//23 22//22
f 23//23 24//24 22//22
f 17//17 22//22 24//24
f 18//18 23//23 21//21
f 23//23 25//25 24//24
f 25//25 26//26 24//24
f 17//17 24//24 26//26
f 18//18 25//25 23//23
f 25//25 27//27 26//26
f 27//27 28//28 26//26
f 17//17 26//26 28//28
f 18//18 27//27 25//25
f 27//27 29//29 28//28
f 29//29 30//30 28//28
f 17//17 28//28 30//30
f 18//18 29//29 27//27
f 29//29 31//31 30//30
f 31//31 32//32 30//30
f 17//17 30//30 32//32
f 18//18 31//31 29//29
f 31//31 33//33 32//32
f 33//33 34//34 32//32
f 17//17 32//32 34//34
f 18//18 33//33 31//31
f 33//33 13//13 34//34
f 13//13 15//15 34//34
f 17//17 34//34 15//15
f 18//18 13//13 33//33
f 54//54 35//35 55//55
f 35//35 36//36 55//55
f 18//18 55//55 36//36
f 37//37 35//35 54//54
f 35//35 38//38 36//36
f 38//38 39//39 36//36
f 18//18 36//36 39//39
f 37//37 38//38 35//35
f 38//38 40//40 39//39
f 40//40 41//41 39//39
f 18//18 39//39 41//41
f 37//37 40//40 38//38
f 40//40 42//42 41//41
f 42//42 43//43 41//41
f 18//18 41//41 43//43
f 37//37 42//42 40//40
f 42//42 44//44 43//43
f 44//44 45//45 43//43
f 18//18 43//43 45//45
f 37//37 44//44 42//42
f 44//44 46//46 45//45
f 46//46 47//47 45//45
f 18//18 45//45 47//47
f 37//37 46//46 44//44
f 46//46 48//48 47//47
f 48//48 49//49 47//47
f 18//18 47//47 49//49
f 37//37 48//48 46//46
f 48//48 50//50 49//49
f 50//50 51//51 49//49
f 18//18 49//49 51//51
f 37//37 50//50 48//48
f 50//50 52//52 51//51
f 52//52 53//53 51//51
f 18//18 51//51 53//53
f 37//37 52//52 50//50
f 52//52 54//54 53//53
f 54//54 55//55 53//53
f 18//18 53//53 55//55
f 37//37 54//54 52//52
# 100 faces, 0 coords texture

# End of File
