####
#
# OBJ File Generated by Meshlab
#
####
# Object m937.obj
#
# Vertices: 72
# Faces: 140
#
####
vn 1.110721 2.356194 2.681517
v 0.325481 0.025000 0.077778
vn -1.110721 2.356194 2.681517
v 0.674519 0.025000 0.077778
vn -2.681518 2.356195 1.110720
v 0.922222 0.025000 0.325481
vn -2.681517 2.356194 -1.110721
v 0.922222 0.025000 0.674519
vn -1.110721 2.356194 -2.681517
v 0.674519 0.025000 0.922222
vn 1.110720 2.356195 -2.681518
v 0.325481 0.025000 0.922222
vn 2.681517 2.356194 -1.110721
v 0.077778 0.025000 0.674519
vn 2.681517 2.356194 1.110721
v 0.077778 0.025000 0.325481
vn 1.530819 -2.138761 3.696077
v 0.325481 0.112963 0.077778
vn -1.530819 -2.138761 3.696077
v 0.674519 0.112963 0.077778
vn -3.696079 -2.138761 1.530819
v 0.922222 0.112963 0.325481
vn -3.696078 -2.138761 -1.530819
v 0.922222 0.112963 0.674519
vn -1.530819 -2.138761 -3.696078
v 0.674519 0.112963 0.922222
vn 1.530819 -2.138761 -3.696079
v 0.325481 0.112963 0.922222
vn 3.696076 -2.138761 -1.530819
v 0.077778 0.112963 0.674519
vn 3.696077 -2.138761 1.530819
v 0.077778 0.112963 0.325481
vn 1.484292 -4.753338 3.582792
v 0.390926 0.200926 0.236111
vn -1.484292 -4.753338 3.582792
v 0.609074 0.200926 0.236111
vn -3.582793 -4.753337 1.484292
v 0.763889 0.200926 0.390926
vn -3.582793 -4.753337 -1.484293
v 0.763889 0.200926 0.609074
vn -1.484293 -4.753337 -3.582793
v 0.609074 0.200926 0.763889
vn 1.484293 -4.753337 -3.582793
v 0.390926 0.200926 0.763889
vn 3.582792 -4.753338 -1.484293
v 0.236111 0.200926 0.609074
vn 3.582792 -4.753338 1.484292
v 0.236111 0.200926 0.390926
vn 2.011121 -2.885055 4.854770
v 0.412741 0.288889 0.288889
vn -2.011121 -2.885055 4.854770
v 0.587259 0.288889 0.288889
vn -4.854770 -2.885055 2.011121
v 0.711111 0.288889 0.412741
vn -4.854770 -2.885055 -2.011121
v 0.711111 0.288889 0.587259
vn -2.011121 -2.885055 -4.854770
v 0.587259 0.288889 0.711111
vn 2.011121 -2.885055 -4.854770
v 0.412741 0.288889 0.711111
vn 4.854770 -2.885055 -2.011121
v 0.288889 0.288889 0.587259
vn 4.854770 -2.885055 2.011121
v 0.288889 0.288889 0.412741
vn 2.211885 0.552145 5.338380
v 0.456370 0.552778 0.394444
vn -2.211885 0.552145 5.338380
v 0.543630 0.552778 0.394444
vn -5.338380 0.552145 2.211885
v 0.605556 0.552778 0.456370
vn -5.338380 0.552145 -2.211885
v 0.605556 0.552778 0.543630
vn -2.211885 0.552145 -5.338380
v 0.543630 0.552778 0.605556
vn 2.211885 0.552145 -5.338380
v 0.456370 0.552778 0.605556
vn 5.338380 0.552145 -2.211885
v 0.394444 0.552778 0.543630
vn 5.338380 0.552145 2.211885
v 0.394444 0.552778 0.456370
vn 0.978362 5.298643 2.362151
v 0.434556 0.640741 0.341667
vn -0.978362 5.298643 2.362151
v 0.565444 0.640741 0.341667
vn -2.362151 5.298643 0.978362
v 0.658333 0.640741 0.434556
vn -2.362151 5.298643 -0.978362
v 0.658333 0.640741 0.565444
vn -0.978362 5.298643 -2.362151
v 0.565444 0.640741 0.658333
vn 0.978362 5.298643 -2.362151
v 0.434556 0.640741 0.658333
vn 2.362151 5.298643 -0.978362
v 0.341667 0.640741 0.565444
vn 2.362151 5.298643 0.978362
v 0.341667 0.640741 0.434556
vn 1.202882 2.346080 2.904098
v 0.303667 0.675926 0.025000
vn -1.202882 2.346080 2.904098
v 0.696333 0.675926 0.025000
vn -2.904098 2.346080 1.202882
v 0.975000 0.675926 0.303667
vn -2.904098 2.346080 -1.202882
v 0.975000 0.675926 0.696333
vn -1.202882 2.346080 -2.904098
v 0.696333 0.675926 0.975000
vn 1.202882 2.346080 -2.904098
v 0.303667 0.675926 0.975000
vn 2.904098 2.346080 -1.202882
v 0.025000 0.675926 0.696333
vn 2.904098 2.346080 1.202882
v 0.025000 0.675926 0.303667
vn 1.221106 -2.341673 2.948112
v 0.303667 0.728704 0.025000
vn -1.221106 -2.341673 2.948112
v 0.696333 0.728704 0.025000
vn -2.948112 -2.341673 1.221106
v 0.975000 0.728704 0.303667
vn -2.948112 -2.341673 -1.221106
v 0.975000 0.728704 0.696333
vn -1.221106 -2.341673 -2.948112
v 0.696333 0.728704 0.975000
vn 1.221106 -2.341673 -2.948112
v 0.303667 0.728704 0.975000
vn 2.948112 -2.341673 -1.221106
v 0.025000 0.728704 0.696333
vn 2.948112 -2.341673 1.221106
v 0.025000 0.728704 0.303667
vn 0.183387 -6.242557 0.442379
v 0.412741 0.763889 0.288889
vn -0.183387 -6.242557 0.442379
v 0.587259 0.763889 0.288889
vn -0.442379 -6.242557 0.183387
v 0.711111 0.763889 0.412741
vn -0.442379 -6.242557 -0.183387
v 0.711111 0.763889 0.587259
vn -0.183387 -6.242557 -0.442379
v 0.587259 0.763889 0.711111
vn 0.183387 -6.242557 -0.442379
v 0.412741 0.763889 0.711111
vn 0.442379 -6.242557 -0.183387
v 0.288889 0.763889 0.587259
vn 0.442379 -6.242557 0.183387
v 0.288889 0.763889 0.412741
# 72 vertices, 0 vertices normals

f 3//3 2//2 1//1
f 4//4 3//3 1//1
f 5//5 4//4 1//1
f 6//6 5//5 1//1
f 7//7 6//6 1//1
f 8//8 7//7 1//1
f 1//1 10//10 9//9
f 1//1 2//2 10//10
f 2//2 11//11 10//10
f 2//2 3//3 11//11
f 3//3 12//12 11//11
f 3//3 4//4 12//12
f 4//4 13//13 12//12
f 4//4 5//5 13//13
f 5//5 14//14 13//13
f 5//5 6//6 14//14
f 6//6 15//15 14//14
f 6//6 7//7 15//15
f 7//7 16//16 15//15
f 7//7 8//8 16//16
f 8//8 9//9 16//16
f 8//8 1//1 9//9
f 9//9 18//18 17//17
f 9//9 10//10 18//18
f 10//10 19//19 18//18
f 10//10 11//11 19//19
f 11//11 20//20 19//19
f 11//11 12//12 20//20
f 12//12 21//21 20//20
f 12//12 13//13 21//21
f 13//13 22//22 21//21
f 13//13 14//14 22//22
f 14//14 23//23 22//22
f 14//14 15//15 23//23
f 15//15 24//24 23//23
f 15//15 16//16 24//24
f 16//16 17//17 24//24
f 16//16 9//9 17//17
f 17//17 26//26 25//25
f 17//17 18//18 26//26
f 18//18 27//27 26//26
f 18//18 19//19 27//27
f 19//19 28//28 27//27
f 19//19 20//20 28//28
f 20//20 29//29 28//28
f 20//20 21//21 29//29
f 21//21 30//30 29//29
f 21//21 22//22 30//30
f 22//22 31//31 30//30
f 22//22 23//23 31//31
f 23//23 32//32 31//31
f 23//23 24//24 32//32
f 24//24 25//25 32//32
f 24//24 17//17 25//25
f 25//25 34//34 33//33
f 25//25 26//26 34//34
f 26//26 35//35 34//34
f 26//26 27//27 35//35
f 27//27 36//36 35//35
f 27//27 28//28 36//36
f 28//28 37//37 36//36
f 28//28 29//29 37//37
f 29//29 38//38 37//37
f 29//29 30//30 38//38
f 30//30 39//39 38//38
f 30//30 31//31 39//39
f 31//31 40//40 39//39
f 31//31 32//32 40//40
f 32//32 33//33 40//40
f 32//32 25//25 33//33
f 33//33 42//42 41//41
f 33//33 34//34 42//42
f 34//34 43//43 42//42
f 34//34 35//35 43//43
f 35//35 44//44 43//43
f 35//35 36//36 44//44
f 36//36 45//45 44//44
f 36//36 37//37 45//45
f 37//37 46//46 45//45
f 37//37 38//38 46//46
f 38//38 47//47 46//46
f 38//38 39//39 47//47
f 39//39 48//48 47//47
f 39//39 40//40 48//48
f 40//40 41//41 48//48
f 40//40 33//33 41//41
f 41//41 50//50 49//49
f 41//41 42//42 50//50
f 42//42 51//51 50//50
f 42//42 43//43 51//51
f 43//43 52//52 51//51
f 43//43 44//44 52//52
f 44//44 53//53 52//52
f 44//44 45//45 53//53
f 45//45 54//54 53//53
f 45//45 46//46 54//54
f 46//46 55//55 54//54
f 46//46 47//47 55//55
f 47//47 56//56 55//55
f 47//47 48//48 56//56
f 48//48 49//49 56//56
f 48//48 41//41 49//49
f 49//49 58//58 57//57
f 49//49 50//50 58//58
f 50//50 59//59 58//58
f 50//50 51//51 59//59
f 51//51 60//60 59//59
f 51//51 52//52 60//60
f 52//52 61//61 60//60
f 52//52 53//53 61//61
f 53//53 62//62 61//61
f 53//53 54//54 62//62
f 54//54 63//63 62//62
f 54//54 55//55 63//63
f 55//55 64//64 63//63
f 55//55 56//56 64//64
f 56//56 57//57 64//64
f 56//56 49//49 57//57
f 57//57 66//66 65//65
f 57//57 58//58 66//66
f 58//58 67//67 66//66
f 58//58 59//59 67//67
f 59//59 68//68 67//67
f 59//59 60//60 68//68
f 60//60 69//69 68//68
f 60//60 61//61 69//69
f 61//61 70//70 69//69
f 61//61 62//62 70//70
f 62//62 71//71 70//70
f 62//62 63//63 71//71
f 63//63 72//72 71//71
f 63//63 64//64 72//72
f 64//64 65//65 72//72
f 64//64 57//57 65//65
f 65//65 66//66 67//67
f 65//65 67//67 68//68
f 65//65 68//68 69//69
f 65//65 69//69 70//70
f 65//65 70//70 71//71
f 65//65 71//71 72//72
# 140 faces, 0 coords texture

# End of File
