####
#
# OBJ File Generated by Meshlab
#
####
# Object m763.obj
#
# Vertices: 116
# Faces: 136
#
####
vn 0.000000 1.523874 0.381064
v 0.634913 0.757841 0.460364
vn 0.000000 1.523874 0.381064
v 0.634913 0.768795 0.416559
vn 0.000000 1.523874 0.381064
v 0.569600 0.768795 0.416559
vn 0.000000 1.523874 0.381064
v 0.569600 0.757841 0.460364
vn 0.000280 4.571682 1.142949
v 0.598628 0.784441 0.353964
vn 0.000000 1.523876 0.381056
v 0.569600 0.784441 0.353964
vn 0.000000 1.523876 0.381056
v 0.569600 0.773487 0.397770
vn 0.000041 1.523888 0.381008
v 0.634913 0.773487 0.397770
vn 0.000000 1.523896 0.380974
v 0.634913 0.800087 0.291370
vn 0.000036 1.523899 0.380962
v 0.598628 0.800087 0.291370
vn 0.000000 1.523898 0.380966
v 0.206753 0.804782 0.272607
vn 0.000000 1.523898 0.380966
v 0.634913 0.804782 0.272607
vn 0.000000 1.523898 0.380966
v 0.634913 0.815733 0.228802
vn 0.000000 1.523898 0.380966
v 0.206753 0.815733 0.228802
vn 0.000000 1.523954 0.380745
v 0.206753 0.789136 0.335202
vn 0.000000 1.523954 0.380745
v 0.584114 0.789136 0.335202
vn 0.000000 1.523954 0.380745
v 0.584114 0.800087 0.291370
vn 0.000000 1.523954 0.380745
v 0.206753 0.800087 0.291370
vn 0.000000 1.523876 0.381056
v 0.206753 0.773487 0.397770
vn 0.000000 1.523876 0.381056
v 0.551458 0.773487 0.397770
vn 0.000000 1.523876 0.381056
v 0.551458 0.784441 0.353964
vn 0.000000 1.523876 0.381056
v 0.206753 0.784441 0.353964
vn 0.000000 1.523874 0.381064
v 0.206753 0.757841 0.460364
vn 0.000000 1.523874 0.381064
v 0.551458 0.757841 0.460364
vn 0.000000 1.523874 0.381064
v 0.551458 0.768795 0.416559
vn 0.000000 1.523874 0.381064
v 0.206753 0.768795 0.416559
vn 0.000000 1.583360 2.652325
v 0.304722 0.816667 0.156945
vn 0.000000 1.583360 2.652325
v 0.551458 0.816667 0.156945
vn 0.000000 1.037461 1.179438
v 0.551458 0.876338 0.104457
vn 0.000000 1.037461 1.179438
v 0.304722 0.876338 0.104457
vn 0.000000 0.545899 1.472887
v 0.551458 0.954510 0.105856
vn 0.000000 0.545899 1.472887
v 0.304722 0.954510 0.105856
vn 1.570796 1.570796 -1.570796
v 0.682086 0.816667 0.077778
vn 1.570796 0.000000 -1.570796
v 0.682086 0.697917 0.077778
vn -1.570796 0.000000 -1.570796
v 0.159583 0.697917 0.077778
vn -1.570796 1.570796 -1.570796
v 0.159583 0.816667 0.077778
vn -3.141593 0.000000 0.000000
v 0.159583 0.697917 0.183333
vn -2.896616 3.094693 0.380971
v 0.159583 0.816667 0.183333
vn -1.570796 0.000000 1.570796
v 0.159583 0.697917 0.500000
vn -1.815773 1.523897 1.951767
v 0.159583 0.737501 0.500000
vn 2.896616 3.094693 0.380971
v 0.682086 0.816667 0.183333
vn 1.815773 1.523897 1.951767
v 0.682086 0.737501 0.500000
vn 1.570796 0.000000 1.570796
v 0.682086 0.697917 0.500000
vn 3.141593 0.000000 0.000000
v 0.682086 0.697917 0.183333
vn 0.000000 0.000000 1.570796
v 0.922222 0.348264 0.255903
vn 0.000000 0.000000 1.570796
v 0.922222 0.506598 0.255903
vn 0.000000 0.000000 1.570796
v 0.077777 0.506598 0.255903
vn 0.000000 0.000000 1.570796
v 0.077777 0.348264 0.255903
vn -1.570796 0.000000 1.570796
v 0.051388 0.025000 0.579167
vn 1.570796 0.000000 1.570796
v 0.077777 0.025000 0.579167
vn 1.653938 1.565370 1.701244
v 0.077777 0.051389 0.579167
vn -1.653938 1.565370 1.701244
v 0.051388 0.051389 0.579167
vn 1.768193 1.540292 -1.878857
v 0.077777 0.051389 0.104167
vn 1.570796 0.000000 -1.570796
v 0.077777 0.025000 0.104167
vn -1.570796 0.000000 -1.570796
v 0.051388 0.025000 0.104167
vn -1.768193 1.540292 -1.878857
v 0.051388 0.051389 0.104167
vn 1.570796 0.000000 -1.570796
v 0.077777 0.684723 0.104167
vn 1.768193 -1.540292 -1.878857
v 0.077777 0.658334 0.104167
vn -1.768193 -1.540292 -1.878857
v 0.051388 0.658334 0.104167
vn -1.570796 0.000000 -1.570796
v 0.051388 0.684723 0.104167
vn -1.653938 1.565370 1.440348
v 0.051388 0.658334 0.579167
vn 1.653938 1.565370 1.440348
v 0.077777 0.658334 0.579167
vn 1.570796 0.000000 1.570796
v 0.077777 0.684723 0.579167
vn -1.570796 0.000000 1.570796
v 0.051388 0.684723 0.579167
vn 4.629247 1.565370 1.701244
v 0.077777 0.077778 0.262500
vn -4.629247 1.565370 1.701244
v 0.051388 0.077778 0.262500
vn -4.514992 1.540292 -1.878857
v 0.051388 0.077778 0.236111
vn 4.514992 1.540292 -1.878857
v 0.077777 0.077778 0.236111
vn 4.629247 1.565370 1.440348
v 0.077777 0.631945 0.262500
vn -4.629247 1.565370 1.440348
v 0.051388 0.631945 0.262500
vn 4.514992 -1.540292 -1.878857
v 0.077777 0.631945 0.236111
vn -4.514992 -1.540292 -1.878857
v 0.051388 0.631945 0.236111
vn -3.141593 0.000000 0.000000
v 0.051388 0.025000 0.249306
vn 3.141593 0.000000 0.000000
v 0.077777 0.025000 0.249306
vn 3.141593 0.000000 0.000000
v 0.077777 0.684723 0.249306
vn -3.141593 0.000000 0.000000
v 0.051388 0.684723 0.249306
vn -1.653938 -1.565370 1.701244
v 0.922222 0.658334 0.579167
vn -1.570796 0.000000 1.570796
v 0.922222 0.684723 0.579167
vn -3.141593 0.000000 0.000000
v 0.922222 0.684723 0.249306
vn -4.629247 -1.565370 1.701244
v 0.922222 0.631945 0.262500
vn -4.514992 -1.540292 -1.878857
v 0.922222 0.631945 0.236111
vn -1.570796 0.000000 -1.570796
v 0.922222 0.684723 0.104167
vn -1.768193 -1.540292 -1.878857
v 0.922222 0.658334 0.104167
vn 3.141593 0.000000 0.000000
v 0.948611 0.684723 0.249306
vn 4.629247 -1.565370 1.701244
v 0.948611 0.631945 0.262500
vn 4.514992 -1.540292 -1.878857
v 0.948611 0.631945 0.236111
vn 1.570796 0.000000 -1.570796
v 0.948611 0.684723 0.104167
vn 1.768193 -1.540292 -1.878857
v 0.948611 0.658334 0.104167
vn 1.570796 0.000000 1.570796
v 0.948611 0.684723 0.579167
vn 1.653938 -1.565370 1.701244
v 0.948611 0.658334 0.579167
vn 4.629247 1.565370 1.701244
v 0.948611 0.077778 0.262500
vn 4.514992 1.540292 -1.878857
v 0.948611 0.077778 0.236111
vn -4.514992 1.540292 -1.878857
v 0.922222 0.077778 0.236111
vn -4.629247 1.565370 1.701244
v 0.922222 0.077778 0.262500
vn 1.653938 1.565370 1.701244
v 0.948611 0.051389 0.579167
vn 1.570796 0.000000 1.570796
v 0.948611 0.025000 0.579167
vn 3.141593 0.000000 0.000000
v 0.948611 0.025000 0.249306
vn 1.570796 0.000000 -1.570796
v 0.948611 0.025000 0.104167
vn 1.768193 1.540292 -1.878857
v 0.948611 0.051389 0.104167
vn -3.141593 0.000000 0.000000
v 0.922222 0.025000 0.249306
vn -1.570796 0.000000 -1.570796
v 0.922222 0.025000 0.104167
vn -1.768193 1.540292 -1.878857
v 0.922222 0.051389 0.104167
vn -1.570796 0.000000 1.570796
v 0.922222 0.025000 0.579167
vn -1.653938 1.565370 1.701244
v 0.922222 0.051389 0.579167
vn 0.000000 0.000000 -1.570796
v 0.077777 0.348264 0.242709
vn 0.000000 0.000000 -1.570796
v 0.077777 0.506598 0.242709
vn 0.000000 0.000000 -1.570796
v 0.922222 0.506598 0.242709
vn 0.000000 0.000000 -1.570796
v 0.922222 0.348264 0.242709
vn 1.570796 1.570796 -1.570796
v 0.975000 0.697917 0.025000
vn 1.570796 1.570796 1.570796
v 0.975000 0.697917 0.658334
vn 1.570796 0.000000 1.570796
v 0.975000 0.664931 0.658334
vn 1.570796 0.000000 -1.570796
v 0.975000 0.664931 0.025000
vn -1.570796 0.000000 1.570796
v 0.025000 0.664931 0.658334
vn -1.570796 1.570796 1.570796
v 0.025000 0.697917 0.658334
vn -1.570796 1.570796 -1.570796
v 0.025000 0.697917 0.025000
vn -1.570796 0.000000 -1.570796
v 0.025000 0.664931 0.025000
# 116 vertices, 0 vertices normals

f 1//1 2//2 3//3
f 3//3 4//4 1//1
f 5//5 6//6 7//7
f 7//7 8//8 5//5
f 8//8 9//9 10//10
f 10//10 5//5 8//8
f 11//11 12//12 13//13
f 13//13 14//14 11//11
f 15//15 16//16 17//17
f 17//17 18//18 15//15
f 19//19 20//20 21//21
f 21//21 22//22 19//19
f 23//23 24//24 25//25
f 25//25 26//26 23//23
f 27//27 28//28 29//29
f 29//29 30//30 27//27
f 27//27 28//28 31//31
f 31//31 32//32 27//27
f 33//33 34//34 35//35
f 35//35 36//36 33//33
f 37//37 38//38 36//36
f 36//36 35//35 37//37
f 39//39 40//40 38//38
f 38//38 37//37 39//39
f 41//41 42//42 43//43
f 43//43 44//44 41//41
f 33//33 41//41 44//44
f 44//44 34//34 33//33
f 38//38 41//41 33//33
f 33//33 36//36 38//38
f 40//40 42//42 41//41
f 41//41 38//38 40//40
f 39//39 43//43 42//42
f 42//42 40//40 39//39
f 45//45 46//46 47//47
f 47//47 48//48 45//45
f 49//49 50//50 51//51
f 51//51 52//52 49//49
f 53//53 54//54 55//55
f 55//55 56//56 53//53
f 61//61 62//62 63//63
f 63//63 64//64 61//61
f 52//52 51//51 65//65
f 65//65 66//66 52//52
f 56//56 67//67 68//68
f 68//68 53//53 56//56
f 66//66 65//65 69//69
f 69//69 70//70 66//66
f 61//61 62//62 69//69
f 69//69 70//70 61//61
f 71//71 72//72 59//59
f 59//59 58//58 71//71
f 71//71 68//68 67//67
f 67//67 72//72 71//71
f 73//73 49//49 52//52
f 52//52 66//66 73//73
f 55//55 73//73 67//67
f 67//67 56//56 55//55
f 73//73 66//66 67//67
f 68//68 65//65 74//74
f 68//68 74//74 54//54
f 54//54 53//53 68//68
f 51//51 50//50 74//74
f 74//74 65//65 51//51
f 67//67 66//66 70//70
f 70//70 72//72 67//67
f 69//69 65//65 68//68
f 68//68 71//71 69//69
f 75//75 63//63 62//62
f 62//62 69//69 75//75
f 57//57 75//75 71//71
f 71//71 58//58 57//57
f 75//75 69//69 71//71
f 72//72 70//70 76//76
f 72//72 76//76 60//60
f 60//60 59//59 72//72
f 61//61 64//64 76//76
f 76//76 70//70 61//61
f 77//77 78//78 79//79
f 79//79 80//80 77//77
f 81//81 79//79 82//82
f 82//82 83//83 81//81
f 81//81 80//80 79//79
f 84//84 85//85 86//86
f 87//87 84//84 86//86
f 86//86 88//88 87//87
f 84//84 89//89 90//90
f 90//90 85//85 84//84
f 85//85 91//91 92//92
f 92//92 86//86 85//85
f 93//93 94//94 80//80
f 80//80 81//81 93//93
f 95//95 96//96 97//97
f 97//97 91//91 95//95
f 92//92 97//97 98//98
f 98//98 99//99 92//92
f 92//92 91//91 97//97
f 100//100 94//94 93//93
f 101//101 100//100 93//93
f 93//93 102//102 101//101
f 100//100 103//103 104//104
f 104//104 94//94 100//100
f 86//86 92//92 93//93
f 93//93 81//81 86//86
f 86//86 81//81 83//83
f 83//83 88//88 86//86
f 85//85 90//90 77//77
f 77//77 80//80 85//85
f 94//94 91//91 85//85
f 85//85 80//80 94//94
f 102//102 93//93 92//92
f 92//92 99//99 102//102
f 104//104 95//95 91//91
f 91//91 94//94 104//104
f 77//77 90//90 89//89
f 89//89 78//78 77//77
f 99//99 98//98 101//101
f 101//101 102//102 99//99
f 103//103 96//96 95//95
f 95//95 104//104 103//103
f 105//105 106//106 107//107
f 107//107 108//108 105//105
f 57//57 58//58 59//59
f 59//59 60//60 57//57
f 87//87 88//88 83//83
f 83//83 82//82 87//87
f 109//109 110//110 111//111
f 111//111 112//112 109//109
f 113//113 114//114 115//115
f 115//115 116//116 113//113
f 111//111 110//110 114//114
f 114//114 113//113 111//111
f 115//115 109//109 112//112
f 112//112 116//116 115//115
f 110//110 109//109 115//115
f 115//115 114//114 110//110
# 136 faces, 0 coords texture

# End of File
