####
#
# OBJ File Generated by Meshlab
#
####
# Object m874.obj
#
# Vertices: 68
# Faces: 88
#
####
vn 1.570796 1.570796 -1.570796
v 0.930893 0.143750 0.069107
vn 1.570796 -1.570796 -1.570796
v 0.930893 0.123393 0.069107
vn -1.570796 -1.570796 -1.570796
v 0.069107 0.123393 0.069107
vn -1.570796 1.570796 -1.570796
v 0.069107 0.143750 0.069107
vn -1.570796 1.570796 1.570796
v 0.069107 0.143750 0.388036
vn -1.570796 -1.570796 1.570796
v 0.069107 0.123393 0.388036
vn 1.570796 -1.570796 1.570796
v 0.930893 0.123393 0.388036
vn 1.570796 1.570796 1.570796
v 0.930893 0.143750 0.388036
vn -0.653902 5.933135 0.945961
v 0.052143 0.355804 0.411786
vn -0.653902 5.933137 -0.945956
v 0.052143 0.355804 0.045357
vn 0.653900 5.933138 -0.945957
v 0.947857 0.355804 0.045357
vn 0.653899 5.933136 0.945962
v 0.947857 0.355804 0.411786
vn -1.570796 0.000000 0.000000
v 0.052143 0.313393 0.364286
vn -1.570796 0.000000 0.000000
v 0.052143 0.313393 0.092857
vn 3.141593 0.000000 3.141593
v 0.092857 0.313393 0.092857
vn 3.141593 0.000000 -3.141593
v 0.092857 0.313393 0.364286
vn -1.570796 -1.570796 0.000000
v 0.052143 0.265893 0.364286
vn -1.570796 -1.570796 0.000000
v 0.052143 0.265893 0.092857
vn 1.570796 -3.141593 1.570796
v 0.092857 0.265893 0.092857
vn 1.570796 -3.141593 -1.570796
v 0.092857 0.265893 0.364286
vn 0.000000 0.000000 -1.570796
v 0.907143 0.313393 0.045357
vn 0.000000 0.000000 -1.570796
v 0.092857 0.313393 0.045357
vn -3.141593 0.000000 3.141593
v 0.907143 0.313393 0.092857
vn -1.570796 -3.141593 1.570796
v 0.907143 0.265893 0.092857
vn 0.000000 -1.570796 -1.570796
v 0.907143 0.265893 0.045357
vn 0.000000 -1.570796 -1.570796
v 0.092857 0.265893 0.045357
vn 1.570796 0.000000 0.000000
v 0.947857 0.313393 0.364286
vn -3.141593 0.000000 -3.141593
v 0.907143 0.313393 0.364286
vn 0.000000 0.000000 1.570796
v 0.907143 0.313393 0.411786
vn 1.570796 0.000000 0.000000
v 0.947857 0.313393 0.092857
vn 0.000000 0.000000 1.570796
v 0.092857 0.313393 0.411786
vn 0.000000 -1.570796 1.570796
v 0.092857 0.265893 0.411786
vn 1.570796 -1.570796 0.000000
v 0.947857 0.265893 0.092857
vn 0.000000 -1.570796 1.570796
v 0.907143 0.265893 0.411786
vn -1.570796 -3.141593 -1.570796
v 0.907143 0.265893 0.364286
vn 1.570796 -1.570796 0.000000
v 0.947857 0.265893 0.364286
vn 1.563885 -0.147190 -1.664638
v 0.947857 0.025000 0.364286
vn 1.563885 -0.147190 -1.476955
v 0.975000 0.313393 0.364286
vn -1.570796 0.000000 -1.570796
v 0.907143 0.025000 0.364286
vn 3.064828 -1.815424 3.044316
v 0.975000 0.313393 0.432143
vn 1.633738 -0.270959 1.660275
v 0.947857 0.025000 0.411786
vn -1.641267 -0.110604 1.566898
v 0.907143 0.025000 0.411786
vn -1.500326 -0.110604 1.566898
v 0.907143 0.313393 0.432143
vn -1.641267 -0.110604 -1.566898
v 0.907143 0.025000 0.045357
vn -1.500325 -0.110604 -1.566898
v 0.907143 0.313393 0.025000
vn -1.570796 0.000000 1.570796
v 0.907143 0.025000 0.092857
vn 3.064828 -1.815425 -3.044316
v 0.975000 0.313393 0.025000
vn 1.633738 -0.270960 -1.660275
v 0.947857 0.025000 0.045357
vn 1.563885 -0.147190 1.664638
v 0.947857 0.025000 0.092857
vn 1.563885 -0.147190 1.476955
v 0.975000 0.313393 0.092857
vn -1.563885 -0.147189 1.664638
v 0.052143 0.025000 0.092857
vn -1.563885 -0.147189 1.476955
v 0.025000 0.313393 0.092857
vn 1.570796 0.000000 1.570796
v 0.092857 0.025000 0.092857
vn -3.064828 -1.815424 -3.044316
v 0.025000 0.313393 0.025000
vn -1.633738 -0.270959 -1.660275
v 0.052143 0.025000 0.045357
vn 1.641267 -0.110604 -1.566898
v 0.092857 0.025000 0.045357
vn 1.500325 -0.110604 -1.566898
v 0.092857 0.313393 0.025000
vn 1.641267 -0.110604 1.566898
v 0.092857 0.025000 0.411786
vn 1.500326 -0.110604 1.566898
v 0.092857 0.313393 0.432143
vn 1.570796 0.000000 -1.570796
v 0.092857 0.025000 0.364286
vn -3.064828 -1.815424 3.044316
v 0.025000 0.313393 0.432143
vn -1.633738 -0.270959 1.660275
v 0.052143 0.025000 0.411786
vn -1.563885 -0.147189 -1.664638
v 0.052143 0.025000 0.364286
vn -1.563885 -0.147189 -1.476955
v 0.025000 0.313393 0.364286
vn -1.854038 1.536107 1.833251
v 0.025000 0.347321 0.432143
vn 1.854038 1.536108 1.833251
v 0.975000 0.347321 0.432143
vn 1.854037 1.536108 -1.833250
v 0.975000 0.347321 0.025000
vn -1.854037 1.536108 -1.833251
v 0.025000 0.347321 0.025000
# 68 vertices, 0 vertices normals

f 67//67 47//47 54//54
f 66//66 40//40 47//47
f 65//65 61//61 40//40
f 68//68 54//54 61//61
f 63//63 62//62 61//61
f 60//60 63//63 64//64
f 58//58 60//60 16//16
f 61//61 62//62 58//58
f 56//56 55//55 54//54
f 15//15 53//53 56//56
f 52//52 51//51 53//53
f 54//54 55//55 51//51
f 49//49 48//48 47//47
f 46//46 49//49 50//50
f 44//44 46//46 23//23
f 47//47 48//48 44//44
f 42//42 41//41 40//40
f 28//28 39//39 42//42
f 38//38 37//37 39//39
f 40//40 41//41 37//37
f 32//32 34//34 29//29
f 28//28 35//35 20//20
f 35//35 34//34 32//32
f 26//26 25//25 24//24
f 19//19 24//24 23//23
f 21//21 25//25 26//26
f 27//27 36//36 33//33
f 23//23 24//24 35//35
f 24//24 33//33 36//36
f 17//17 18//18 19//19
f 20//20 19//19 15//15
f 18//18 17//17 13//13
f 47//47 40//40 61//61
f 10//10 11//11 67//67
f 12//12 66//66 67//67
f 9//9 65//65 66//66
f 65//65 9//9 10//10
f 9//9 12//12 11//11
f 6//6 7//7 8//8
f 7//7 2//2 1//1
f 1//1 2//2 3//3
f 3//3 6//6 5//5
f 5//5 8//8 1//1
f 3//3 2//2 7//7
f 67//67 54//54 68//68
f 66//66 47//47 67//67
f 65//65 40//40 66//66
f 68//68 61//61 65//65
f 63//63 61//61 64//64
f 60//60 64//64 16//16
f 58//58 16//16 59//59
f 61//61 58//58 59//59
f 56//56 54//54 57//57
f 15//15 56//56 57//57
f 52//52 53//53 15//15
f 54//54 51//51 52//52
f 49//49 47//47 50//50
f 46//46 50//50 23//23
f 44//44 23//23 45//45
f 47//47 44//44 45//45
f 42//42 40//40 43//43
f 28//28 42//42 43//43
f 38//38 39//39 28//28
f 40//40 37//37 38//38
f 32//32 29//29 31//31
f 28//28 20//20 16//16
f 35//35 32//32 20//20
f 26//26 24//24 19//19
f 19//19 23//23 15//15
f 21//21 26//26 22//22
f 27//27 33//33 30//30
f 23//23 35//35 28//28
f 24//24 36//36 35//35
f 17//17 19//19 20//20
f 20//20 15//15 16//16
f 18//18 13//13 14//14
f 47//47 61//61 54//54
f 10//10 67//67 68//68
f 12//12 67//67 11//11
f 9//9 66//66 12//12
f 65//65 10//10 68//68
f 9//9 11//11 10//10
f 6//6 8//8 5//5
f 7//7 1//1 8//8
f 1//1 3//3 4//4
f 3//3 5//5 4//4
f 5//5 1//1 4//4
f 3//3 7//7 6//6
# 88 faces, 0 coords texture

# End of File
