####
#
# OBJ File Generated by Meshlab
#
####
# Object m876.obj
#
# Vertices: 44
# Faces: 52
#
####
vn 0.894446 5.843096 -0.894446
v 0.879578 0.664286 0.120422
vn 0.894446 5.843096 0.894446
v 0.879578 0.664286 0.879574
vn -0.894446 5.843096 0.894446
v 0.120422 0.664286 0.879574
vn -0.894446 5.843096 -0.894446
v 0.120422 0.664286 0.120422
vn 0.637848 -0.000000 -0.637848
v 0.975000 0.624331 0.025000
vn 0.637848 -0.000000 0.637848
v 0.975000 0.624331 0.974996
vn -0.637848 -0.000000 0.637848
v 0.025000 0.624331 0.974996
vn -0.637848 -0.000000 -0.637848
v 0.025000 0.624331 0.025000
vn 0.894446 -5.843096 -0.894446
v 0.879578 0.584376 0.120422
vn 0.894446 -5.843096 0.894446
v 0.879578 0.584376 0.879574
vn -0.894446 -5.843096 0.894446
v 0.120422 0.584376 0.879574
vn -0.894446 -5.843096 -0.894446
v 0.120422 0.584376 0.120422
vn 1.537889 -0.098851 -1.537894
v 0.859597 0.584376 0.739731
vn 1.537894 -0.098843 1.537894
v 0.859597 0.584376 0.859597
vn -1.537894 -0.098851 1.537889
v 0.739731 0.584376 0.859597
vn -1.537889 -0.098859 -1.537889
v 0.739731 0.584376 0.739731
vn 1.602083 -0.102977 -1.602077
v 0.841621 0.025000 0.757710
vn 1.602077 -0.102968 1.602077
v 0.841621 0.025000 0.841621
vn -1.602077 -0.102977 1.602083
v 0.757710 0.025000 0.841621
vn -1.602083 -0.102986 -1.602083
v 0.757710 0.025000 0.757710
vn 1.537887 -0.098854 -1.537894
v 0.859597 0.584376 0.140399
vn 1.537896 -0.098840 1.537894
v 0.859597 0.584376 0.260265
vn -1.537896 -0.098848 1.537889
v 0.739731 0.584376 0.260265
vn -1.537887 -0.098862 -1.537889
v 0.739731 0.584376 0.140399
vn 1.602085 -0.102980 -1.602077
v 0.841621 0.025000 0.158379
vn 1.602076 -0.102965 1.602078
v 0.841621 0.025000 0.242290
vn -1.602075 -0.102974 1.602083
v 0.757710 0.025000 0.242290
vn -1.602084 -0.102989 -1.602082
v 0.757710 0.025000 0.158379
vn 1.537887 -0.098851 -1.537896
v 0.260265 0.584376 0.140399
vn 1.537896 -0.098838 1.537896
v 0.260265 0.584376 0.260265
vn -1.537896 -0.098851 1.537887
v 0.140399 0.584376 0.260265
vn -1.537887 -0.098864 -1.537887
v 0.140399 0.584376 0.140399
vn 1.602085 -0.102977 -1.602075
v 0.242290 0.025000 0.158379
vn 1.602076 -0.102962 1.602076
v 0.242290 0.025000 0.242290
vn -1.602075 -0.102977 1.602085
v 0.158379 0.025000 0.242290
vn -1.602084 -0.102991 -1.602084
v 0.158379 0.025000 0.158379
vn 1.537889 -0.098848 -1.537896
v 0.260265 0.584376 0.739731
vn 1.537894 -0.098840 1.537896
v 0.260265 0.584376 0.859597
vn -1.537894 -0.098854 1.537887
v 0.140399 0.584376 0.859597
vn -1.537889 -0.098862 -1.537887
v 0.140399 0.584376 0.739731
vn 1.602083 -0.102974 -1.602075
v 0.242290 0.025000 0.757710
vn 1.602078 -0.102965 1.602076
v 0.242290 0.025000 0.841621
vn -1.602077 -0.102980 1.602085
v 0.158379 0.025000 0.841621
vn -1.602082 -0.102989 -1.602084
v 0.158379 0.025000 0.757710
# 44 vertices, 0 vertices normals

f 1//1 4//4 3//3
f 1//1 3//3 2//2
f 1//1 2//2 6//6
f 1//1 6//6 5//5
f 2//2 3//3 7//7
f 2//2 7//7 6//6
f 3//3 4//4 8//8
f 3//3 8//8 7//7
f 4//4 1//1 5//5
f 4//4 5//5 8//8
f 5//5 6//6 10//10
f 5//5 10//10 9//9
f 6//6 7//7 11//11
f 6//6 11//11 10//10
f 7//7 8//8 12//12
f 7//7 12//12 11//11
f 8//8 5//5 9//9
f 8//8 9//9 12//12
f 11//11 12//12 9//9
f 10//10 11//11 9//9
f 13//13 14//14 18//18
f 13//13 18//18 17//17
f 14//14 15//15 19//19
f 14//14 19//19 18//18
f 15//15 16//16 20//20
f 15//15 20//20 19//19
f 16//16 13//13 17//17
f 16//16 17//17 20//20
f 21//21 22//22 26//26
f 21//21 26//26 25//25
f 22//22 23//23 27//27
f 22//22 27//27 26//26
f 23//23 24//24 28//28
f 23//23 28//28 27//27
f 24//24 21//21 25//25
f 24//24 25//25 28//28
f 29//29 30//30 34//34
f 29//29 34//34 33//33
f 30//30 31//31 35//35
f 30//30 35//35 34//34
f 31//31 32//32 36//36
f 31//31 36//36 35//35
f 32//32 29//29 33//33
f 32//32 33//33 36//36
f 37//37 38//38 42//42
f 37//37 42//42 41//41
f 38//38 39//39 43//43
f 38//38 43//43 42//42
f 39//39 40//40 44//44
f 39//39 44//44 43//43
f 40//40 37//37 41//41
f 40//40 41//41 44//44
# 52 faces, 0 coords texture

# End of File
