####
#
# OBJ File Generated by Meshlab
#
####
# Object m877.obj
#
# Vertices: 56
# Faces: 84
#
####
vn 1.570796 1.570796 -1.570796
v 0.975000 0.351352 0.025000
vn 1.570796 1.570796 1.570796
v 0.975000 0.351352 0.975000
vn -1.570796 1.570796 1.570796
v 0.025000 0.351352 0.975000
vn -1.570796 1.570796 -1.570796
v 0.025000 0.351352 0.025000
vn 1.570796 -1.570796 -1.570796
v 0.975000 0.325837 0.025000
vn 1.570796 -1.570796 1.570796
v 0.975000 0.325837 0.975000
vn -1.570796 -1.570796 1.570796
v 0.025000 0.325837 0.975000
vn -1.570796 -1.570796 -1.570796
v 0.025000 0.325837 0.025000
vn 2.221478 -1.570829 -0.000036
v 0.838675 0.025000 0.832265
vn -0.005377 -1.565878 2.215966
v 0.823291 0.025000 0.847650
vn -0.005377 1.565878 2.215966
v 0.823291 0.297424 0.847650
vn 2.221478 1.570829 -0.000036
v 0.838675 0.297424 0.832265
vn 0.007770 -1.577767 -2.229157
v 0.816880 0.025000 0.810470
vn -2.219085 -1.568711 -0.013155
v 0.801496 0.025000 0.825641
vn -2.219085 1.568711 -0.013155
v 0.801496 0.297424 0.825641
vn 0.007770 1.577767 -2.229157
v 0.816880 0.297424 0.810470
vn 2.229193 -1.577800 -0.007806
v 0.196154 0.025000 0.187393
vn 0.007752 -1.563793 2.213635
v 0.180983 0.025000 0.202778
vn 0.007752 1.563793 2.213635
v 0.180983 0.297424 0.202778
vn 2.229193 1.577800 -0.007806
v 0.196154 0.297424 0.187393
vn 0.007806 -1.577800 -2.229193
v 0.174359 0.025000 0.165598
vn -2.213635 -1.563793 -0.007752
v 0.158974 0.025000 0.180769
vn -2.213635 1.563793 -0.007752
v 0.158974 0.297424 0.180769
vn 0.007806 1.577800 -2.229193
v 0.174359 0.297424 0.165598
vn 2.223440 1.572597 0.001929
v 0.838675 0.324867 0.832265
vn -0.002103 1.568836 2.219262
v 0.823291 0.324867 0.847650
vn -2.215775 1.565721 -0.009895
v 0.159615 0.324867 0.181410
vn 0.009768 1.576032 -2.227227
v 0.175000 0.324867 0.166239
vn 2.223440 -1.572597 0.001929
v 0.838675 0.298016 0.832265
vn -0.002103 -1.568836 2.219262
v 0.823291 0.298016 0.847650
vn -2.215775 -1.565721 -0.009895
v 0.159615 0.298016 0.181410
vn 0.009768 -1.576032 -2.227227
v 0.175000 0.298016 0.166239
vn -0.005388 -1.565934 -2.216027
v 0.824573 0.025000 0.166667
vn 2.216027 -1.565934 0.005388
v 0.839957 0.025000 0.182051
vn 2.216027 1.565934 0.005388
v 0.839957 0.297424 0.182051
vn -0.005388 1.565934 -2.216027
v 0.824573 0.297424 0.166667
vn -2.226829 -1.575659 0.005414
v 0.802778 0.025000 0.188675
vn -0.005414 -1.575659 2.226829
v 0.817949 0.025000 0.203846
vn -0.005414 1.575659 2.226829
v 0.817949 0.297424 0.203846
vn -2.226829 1.575659 0.005414
v 0.802778 0.297424 0.188675
vn 0.000036 -1.570764 -2.221405
v 0.179701 0.025000 0.809188
vn 2.216063 -1.565966 0.005424
v 0.195085 0.025000 0.824573
vn 2.216063 1.565966 0.005424
v 0.195085 0.297424 0.824573
vn 0.000036 1.570764 -2.221405
v 0.179701 0.297424 0.809188
vn -2.229193 -1.577800 -0.007806
v 0.157906 0.025000 0.830983
vn -0.013166 -1.568656 2.219023
v 0.173077 0.025000 0.846368
vn -0.013166 1.568656 2.219023
v 0.173077 0.297424 0.846368
vn -2.229193 1.577800 -0.007806
v 0.157906 0.297424 0.830983
vn 0.001965 1.572564 -2.223403
v 0.824573 0.324867 0.166667
vn 2.219298 1.568868 0.002139
v 0.839957 0.324867 0.182051
vn 0.005699 1.579761 2.231369
v 0.173718 0.324867 0.845726
vn -2.211634 1.561992 0.005826
v 0.158333 0.324867 0.830556
vn 0.001965 -1.572564 -2.223403
v 0.824573 0.298016 0.166667
vn 2.219298 -1.568868 0.002139
v 0.839957 0.298016 0.182051
vn 0.005699 -1.579761 2.231369
v 0.173718 0.298016 0.845726
vn -2.211634 -1.561992 0.005826
v 0.158333 0.298016 0.830556
# 56 vertices, 0 vertices normals

f 3//3 2//2 1//1
f 4//4 3//3 1//1
f 6//6 5//5 1//1
f 2//2 6//6 1//1
f 7//7 6//6 2//2
f 3//3 7//7 2//2
f 8//8 7//7 3//3
f 4//4 8//8 3//3
f 5//5 8//8 4//4
f 1//1 5//5 4//4
f 7//7 8//8 5//5
f 6//6 7//7 5//5
f 11//11 10//10 9//9
f 12//12 11//11 9//9
f 14//14 13//13 9//9
f 10//10 14//14 9//9
f 15//15 14//14 10//10
f 11//11 15//15 10//10
f 16//16 15//15 11//11
f 12//12 16//16 11//11
f 13//13 16//16 12//12
f 9//9 13//13 12//12
f 15//15 16//16 13//13
f 14//14 15//15 13//13
f 19//19 18//18 17//17
f 20//20 19//19 17//17
f 22//22 21//21 17//17
f 18//18 22//22 17//17
f 23//23 22//22 18//18
f 19//19 23//23 18//18
f 24//24 23//23 19//19
f 20//20 24//24 19//19
f 21//21 24//24 20//20
f 17//17 21//21 20//20
f 23//23 24//24 21//21
f 22//22 23//23 21//21
f 27//27 26//26 25//25
f 28//28 27//27 25//25
f 30//30 29//29 25//25
f 26//26 30//30 25//25
f 31//31 30//30 26//26
f 27//27 31//31 26//26
f 32//32 31//31 27//27
f 28//28 32//32 27//27
f 29//29 32//32 28//28
f 25//25 29//29 28//28
f 31//31 32//32 29//29
f 30//30 31//31 29//29
f 35//35 34//34 33//33
f 36//36 35//35 33//33
f 38//38 37//37 33//33
f 34//34 38//38 33//33
f 39//39 38//38 34//34
f 35//35 39//39 34//34
f 40//40 39//39 35//35
f 36//36 40//40 35//35
f 37//37 40//40 36//36
f 33//33 37//37 36//36
f 39//39 40//40 37//37
f 38//38 39//39 37//37
f 43//43 42//42 41//41
f 44//44 43//43 41//41
f 46//46 45//45 41//41
f 42//42 46//46 41//41
f 47//47 46//46 42//42
f 43//43 47//47 42//42
f 48//48 47//47 43//43
f 44//44 48//48 43//43
f 45//45 48//48 44//44
f 41//41 45//45 44//44
f 47//47 48//48 45//45
f 46//46 47//47 45//45
f 51//51 50//50 49//49
f 52//52 51//51 49//49
f 54//54 53//53 49//49
f 50//50 54//54 49//49
f 55//55 54//54 50//50
f 51//51 55//55 50//50
f 56//56 55//55 51//51
f 52//52 56//56 51//51
f 53//53 56//56 52//52
f 49//49 53//53 52//52
f 55//55 56//56 53//53
f 54//54 55//55 53//53
# 84 faces, 0 coords texture

# End of File
