####
#
# OBJ File Generated by Meshlab
#
####
# Object m895.obj
#
# Vertices: 80
# Faces: 100
#
####
vn 2.246335 1.350988 2.246381
v 0.974998 0.321663 0.618752
vn -2.246317 1.351019 2.246308
v 0.025000 0.321663 0.618749
vn 2.246319 1.351018 -2.246304
v 0.975000 0.321663 0.025003
vn -2.246312 1.351015 -2.246323
v 0.025002 0.321663 0.025000
vn 1.545932 4.662638 -1.545941
v 0.970052 0.326611 0.029950
vn 1.546113 4.662466 1.545870
v 0.970051 0.326611 0.613804
vn -1.545958 4.662639 1.545916
v 0.029948 0.326611 0.613801
vn -1.545935 4.662620 -1.545950
v 0.029950 0.326611 0.029948
vn 1.570796 1.570800 0.000005
v 0.865894 0.297250 0.477736
vn 1.570796 -1.570800 0.000005
v 0.865894 0.237875 0.477736
vn -1.570796 -1.570793 -0.000005
v 0.836206 0.237875 0.477736
vn -1.570796 1.570793 -0.000005
v 0.836206 0.297250 0.477736
vn 1.570796 1.570793 0.000005
v 0.865895 0.297250 0.166018
vn 1.570796 -1.570793 0.000005
v 0.865895 0.237875 0.166018
vn -1.570796 -1.570800 -0.000005
v 0.836207 0.237875 0.166018
vn -1.570796 1.570800 -0.000005
v 0.836207 0.297250 0.166018
vn 1.570796 1.570800 0.000005
v 0.168770 0.297250 0.477734
vn 1.570796 -1.570800 0.000005
v 0.168770 0.237875 0.477734
vn -1.570796 -1.570793 -0.000005
v 0.139083 0.237875 0.477734
vn -1.570796 1.570793 -0.000005
v 0.139083 0.297250 0.477734
vn -1.570796 1.570800 -0.000005
v 0.139084 0.297250 0.166016
vn -1.570796 -1.570800 -0.000005
v 0.139084 0.237875 0.166016
vn 1.570796 -1.570793 0.000005
v 0.168771 0.237875 0.166016
vn 1.570796 1.570793 0.000005
v 0.168771 0.297250 0.166016
vn 0.000024 1.570781 1.570796
v 0.168564 0.297250 0.507432
vn 0.000024 -1.570781 1.570796
v 0.168564 0.237875 0.507432
vn -0.000024 -1.570811 -1.570796
v 0.168564 0.237875 0.477744
vn -0.000024 1.570811 -1.570796
v 0.168564 0.297250 0.477744
vn -0.000024 1.570815 -1.570796
v 0.836531 0.297250 0.477734
vn -0.000024 -1.570815 -1.570796
v 0.836531 0.237875 0.477734
vn 0.000024 -1.570778 1.570796
v 0.836532 0.237875 0.507422
vn 0.000024 1.570778 1.570796
v 0.836532 0.297250 0.507422
vn 0.000021 1.570783 1.570796
v 0.168554 0.297250 0.166237
vn 0.000021 -1.570783 1.570796
v 0.168554 0.237875 0.166237
vn -0.000024 -1.570811 -1.570796
v 0.168554 0.237875 0.136550
vn -0.000024 1.570811 -1.570796
v 0.168554 0.297250 0.136550
vn -0.000024 1.570815 -1.570796
v 0.836521 0.297250 0.136540
vn -0.000024 -1.570815 -1.570796
v 0.836521 0.237875 0.136540
vn 0.000021 -1.570776 1.570796
v 0.836522 0.237875 0.166228
vn 0.000021 1.570776 1.570796
v 0.836522 0.297250 0.166228
vn 1.570796 1.570796 1.570796
v 0.876363 0.297135 0.165413
vn 1.570796 0.000000 1.570796
v 0.876363 0.025000 0.165413
vn -1.570796 0.000000 1.570796
v 0.836780 0.025000 0.165413
vn -1.570796 1.570796 1.570796
v 0.836780 0.297135 0.165413
vn 1.570796 1.570796 -1.570796
v 0.876363 0.297135 0.125830
vn 1.570796 0.000000 -1.570796
v 0.876363 0.025000 0.125830
vn -1.570796 0.000000 -1.570796
v 0.836780 0.025000 0.125830
vn -1.570796 1.570796 -1.570796
v 0.836780 0.297135 0.125830
vn -1.570796 1.570796 1.570796
v 0.128739 0.297135 0.165728
vn -1.570796 0.000000 1.570796
v 0.128739 0.025000 0.165728
vn 1.570796 0.000000 1.570796
v 0.168322 0.025000 0.165728
vn 1.570796 1.570796 1.570796
v 0.168322 0.297135 0.165728
vn 1.570796 1.570796 -1.570796
v 0.168322 0.297135 0.126145
vn 1.570796 0.000000 -1.570796
v 0.168322 0.025000 0.126145
vn -1.570796 0.000000 -1.570796
v 0.128739 0.025000 0.126145
vn -1.570796 1.570796 -1.570796
v 0.128739 0.297135 0.126145
vn 1.570796 1.570796 1.570796
v 0.876362 0.297135 0.516974
vn 1.570796 0.000000 1.570796
v 0.876362 0.025000 0.516974
vn -1.570796 0.000000 1.570796
v 0.836779 0.025000 0.516974
vn -1.570796 1.570796 1.570796
v 0.836779 0.297135 0.516974
vn -1.570796 1.570796 -1.570796
v 0.836779 0.297135 0.477391
vn -1.570796 0.000000 -1.570796
v 0.836779 0.025000 0.477391
vn 1.570796 0.000000 -1.570796
v 0.876362 0.025000 0.477391
vn 1.570796 1.570796 -1.570796
v 0.876362 0.297135 0.477391
vn 1.570796 1.570796 1.570796
v 0.168321 0.297135 0.517289
vn 1.570796 0.000000 1.570796
v 0.168321 0.025000 0.517289
vn -1.570796 0.000000 1.570796
v 0.128738 0.025000 0.517289
vn -1.570796 1.570796 1.570796
v 0.128738 0.297135 0.517289
vn -1.570796 1.570796 -1.570796
v 0.128738 0.297135 0.477706
vn -1.570796 0.000000 -1.570796
v 0.128738 0.025000 0.477706
vn 1.570796 0.000000 -1.570796
v 0.168321 0.025000 0.477706
vn 1.570796 1.570796 -1.570796
v 0.168321 0.297135 0.477706
vn 1.570791 -1.570797 1.570802
v 0.974998 0.296923 0.618752
vn -1.570801 -1.570797 1.570792
v 0.025000 0.296923 0.618749
vn 1.570800 -1.570796 -1.570791
v 0.975000 0.296923 0.025003
vn -1.570792 -1.570796 -1.570801
v 0.025002 0.296923 0.025000
vn 0.000000 6.283185 0.000000
v 0.890885 0.326611 0.109117
vn 0.000000 6.283185 0.000000
v 0.890884 0.326611 0.534637
vn 0.000000 6.283185 0.000000
v 0.109115 0.326611 0.534635
vn 0.000000 6.283185 0.000000
v 0.109116 0.326611 0.109115
# 80 vertices, 0 vertices normals

f 5//5 6//6 1//1
f 3//3 5//5 1//1
f 6//6 7//7 2//2
f 1//1 6//6 2//2
f 7//7 8//8 4//4
f 2//2 7//7 4//4
f 8//8 5//5 3//3
f 4//4 8//8 3//3
f 15//15 11//11 12//12
f 16//16 15//15 12//12
f 12//12 9//9 13//13
f 16//16 12//12 13//13
f 10//10 14//14 13//13
f 9//9 10//10 13//13
f 15//15 14//14 10//10
f 11//11 15//15 10//10
f 22//22 19//19 20//20
f 21//21 22//22 20//20
f 20//20 17//17 24//24
f 21//21 20//20 24//24
f 18//18 23//23 24//24
f 17//17 18//18 24//24
f 22//22 23//23 18//18
f 19//19 22//22 18//18
f 30//30 27//27 28//28
f 29//29 30//30 28//28
f 28//28 25//25 32//32
f 29//29 28//28 32//32
f 26//26 31//31 32//32
f 25//25 26//26 32//32
f 30//30 31//31 26//26
f 27//27 30//30 26//26
f 38//38 35//35 36//36
f 37//37 38//38 36//36
f 36//36 33//33 40//40
f 37//37 36//36 40//40
f 34//34 39//39 40//40
f 33//33 34//34 40//40
f 38//38 39//39 34//34
f 35//35 38//38 34//34
f 43//43 42//42 41//41
f 44//44 43//43 41//41
f 46//46 47//47 48//48
f 45//45 46//46 48//48
f 47//47 43//43 44//44
f 48//48 47//47 44//44
f 44//44 41//41 45//45
f 48//48 44//44 45//45
f 42//42 46//46 45//45
f 41//41 42//42 45//45
f 50//50 51//51 52//52
f 49//49 50//50 52//52
f 54//54 55//55 56//56
f 53//53 54//54 56//56
f 51//51 54//54 53//53
f 52//52 51//51 53//53
f 49//49 52//52 53//53
f 56//56 49//49 53//53
f 55//55 50//50 49//49
f 56//56 55//55 49//49
f 59//59 58//58 57//57
f 60//60 59//59 57//57
f 63//63 62//62 61//61
f 64//64 63//63 61//61
f 62//62 59//59 60//60
f 61//61 62//62 60//60
f 60//60 57//57 64//64
f 61//61 60//60 64//64
f 58//58 63//63 64//64
f 57//57 58//58 64//64
f 67//67 66//66 65//65
f 68//68 67//67 65//65
f 71//71 70//70 69//69
f 72//72 71//71 69//69
f 66//66 71//71 72//72
f 65//65 66//66 72//72
f 68//68 65//65 72//72
f 69//69 68//68 72//72
f 70//70 67//67 68//68
f 69//69 70//70 68//68
f 74//74 73//73 1//1
f 2//2 74//74 1//1
f 75//75 76//76 4//4
f 3//3 75//75 4//4
f 76//76 74//74 2//2
f 4//4 76//76 2//2
f 73//73 75//75 3//3
f 1//1 73//73 3//3
f 76//76 75//75 73//73
f 74//74 76//76 73//73
f 77//77 78//78 6//6
f 5//5 77//77 6//6
f 78//78 79//79 7//7
f 6//6 78//78 7//7
f 79//79 80//80 8//8
f 7//7 79//79 8//8
f 80//80 77//77 5//5
f 8//8 80//80 5//5
f 79//79 78//78 77//77
f 80//80 79//79 77//77
# 100 faces, 0 coords texture

# End of File
