####
#
# OBJ File Generated by Meshlab
#
####
# Object m897.obj
#
# Vertices: 128
# Faces: 152
#
####
vn -1.570585 1.570662 1.570796
v 0.032957 0.602446 0.151175
vn -1.570585 -1.570662 1.570796
v 0.032957 0.087302 0.151175
vn -1.571008 -1.570931 -1.570796
v 0.032957 0.087302 0.136331
vn -1.571008 1.570931 -1.570796
v 0.032957 0.602446 0.136331
vn 1.571008 1.570938 1.570807
v 0.040379 0.602446 0.151174
vn 1.571008 -1.570938 1.570807
v 0.040379 0.087302 0.151174
vn 1.570585 -1.570655 -1.570786
v 0.040379 0.087302 0.136330
vn 1.570585 1.570655 -1.570786
v 0.040379 0.602446 0.136330
vn -1.570585 1.570662 1.570796
v 0.032955 0.602446 0.101696
vn -1.570585 -1.570662 1.570796
v 0.032955 0.087302 0.101696
vn -1.570944 -1.570891 -1.570796
v 0.032955 0.087302 0.086852
vn -1.570944 1.570891 -1.570796
v 0.032955 0.602446 0.086852
vn 1.570648 1.570702 -1.570796
v 0.040377 0.602446 0.086852
vn 1.570648 -1.570702 -1.570796
v 0.040377 0.087302 0.086852
vn 1.571008 -1.570931 1.570796
v 0.040377 0.087302 0.101695
vn 1.571008 1.570931 1.570796
v 0.040377 0.602446 0.101695
vn -1.570585 1.570709 1.570870
v 0.032958 0.602446 0.200654
vn -1.570585 -1.570709 1.570870
v 0.032958 0.087302 0.200654
vn -1.571008 -1.570884 -1.570722
v 0.032958 0.087302 0.185810
vn -1.571008 1.570884 -1.570722
v 0.032958 0.602446 0.185810
vn 1.570585 1.570715 -1.570881
v 0.040379 0.602446 0.185809
vn 1.570585 -1.570715 -1.570881
v 0.040379 0.087302 0.185809
vn 1.571008 -1.570877 1.570712
v 0.040380 0.087302 0.200653
vn 1.571008 1.570877 1.570712
v 0.040380 0.602446 0.200653
vn 1.571008 1.570931 1.570796
v 0.967043 0.602446 0.151171
vn 1.571008 -1.570931 1.570796
v 0.967043 0.087302 0.151171
vn 1.570585 -1.570662 -1.570796
v 0.967043 0.087302 0.136327
vn 1.570585 1.570662 -1.570796
v 0.967043 0.602446 0.136327
vn -1.571008 1.570931 -1.570796
v 0.959621 0.602446 0.136328
vn -1.571008 -1.570931 -1.570796
v 0.959621 0.087302 0.136328
vn -1.570585 -1.570662 1.570796
v 0.959621 0.087302 0.151172
vn -1.570585 1.570662 1.570796
v 0.959621 0.602446 0.151172
vn 1.571008 1.570864 1.570690
v 0.967043 0.602446 0.101692
vn 1.571008 -1.570864 1.570690
v 0.967043 0.087302 0.101692
vn 1.570648 -1.570769 -1.570902
v 0.967042 0.087302 0.086849
vn 1.570648 1.570769 -1.570902
v 0.967042 0.602446 0.086849
vn -1.570944 1.570823 -1.570690
v 0.959620 0.602446 0.086849
vn -1.570944 -1.570823 -1.570690
v 0.959620 0.087302 0.086849
vn -1.570585 -1.570729 1.570902
v 0.959621 0.087302 0.101693
vn -1.570585 1.570729 1.570902
v 0.959621 0.602446 0.101693
vn 1.571008 1.570931 1.570796
v 0.967045 0.602446 0.200650
vn 1.571008 -1.570931 1.570796
v 0.967045 0.087302 0.200650
vn 1.570585 -1.570662 -1.570796
v 0.967045 0.087302 0.185806
vn 1.570585 1.570662 -1.570796
v 0.967045 0.602446 0.185806
vn -1.571008 1.570931 -1.570796
v 0.959623 0.602446 0.185807
vn -1.571008 -1.570931 -1.570796
v 0.959623 0.087302 0.185807
vn -1.570585 -1.570662 1.570796
v 0.959623 0.087302 0.200651
vn -1.570585 1.570662 1.570796
v 0.959623 0.602446 0.200651
vn 0.000004 -1.570787 1.570796
v 0.058953 0.572588 0.243319
vn -0.000005 -1.570806 -1.570796
v 0.058953 0.572588 0.228476
vn 0.000004 -1.570799 1.570796
v 0.941161 0.572588 0.243317
vn -0.000005 -1.570793 -1.570796
v 0.941161 0.572588 0.228473
vn 0.000004 -1.570794 1.570796
v 0.058949 0.572588 0.059029
vn -0.000004 -1.570799 -1.570796
v 0.058949 0.572588 0.044185
vn -0.000004 -1.570794 -1.570796
v 0.941157 0.572588 0.044183
vn 0.000004 -1.570799 1.570796
v 0.941157 0.572588 0.059027
vn -1.570796 -1.570786 0.000090
v 0.044100 0.572588 0.058927
vn 1.570796 -1.570806 -0.000090
v 0.058944 0.572588 0.058926
vn 1.570796 0.000000 -0.000090
v 0.058944 0.602275 0.058926
vn 1.570796 0.000000 -0.000090
v 0.058954 0.602275 0.228638
vn 1.570796 -1.570807 -0.000090
v 0.058954 0.572588 0.228638
vn -1.570796 -1.570786 0.000090
v 0.044110 0.572588 0.228639
vn -1.570796 0.000000 0.000093
v 0.941046 0.602275 0.058918
vn -1.570796 -1.570791 0.000093
v 0.941046 0.572588 0.058918
vn 1.570796 -1.570801 -0.000093
v 0.955890 0.572588 0.058917
vn 1.570796 -1.570805 -0.000093
v 0.955900 0.572588 0.228630
vn -1.570796 -1.570788 0.000093
v 0.941056 0.572588 0.228631
vn -1.570796 0.000000 0.000093
v 0.941056 0.602275 0.228631
vn 0.000004 0.000000 1.570796
v 0.058953 0.602275 0.243319
vn -0.000005 0.000000 -1.570796
v 0.058953 0.602275 0.228476
vn 0.000004 0.000000 1.570796
v 0.941161 0.602275 0.243317
vn -0.000005 0.000000 -1.570796
v 0.941161 0.602275 0.228473
vn 0.000004 0.000000 1.570796
v 0.058949 0.602275 0.059029
vn -0.000004 0.000000 -1.570796
v 0.058949 0.602275 0.044185
vn -0.000004 0.000000 -1.570796
v 0.941157 0.602275 0.044183
vn 0.000004 0.000000 1.570796
v 0.941157 0.602275 0.059027
vn -1.570796 0.000000 0.000090
v 0.044100 0.602275 0.058927
vn -1.570796 0.000000 0.000090
v 0.044110 0.602275 0.228639
vn 1.570796 0.000000 -0.000093
v 0.955890 0.602275 0.058917
vn 1.570796 0.000000 -0.000093
v 0.955900 0.602275 0.228630
vn -1.570717 0.000000 1.570876
v 0.941251 0.602735 0.248521
vn -1.570717 0.000000 1.570876
v 0.941251 0.025000 0.248521
vn -1.570876 0.000000 -1.570717
v 0.941250 0.025000 0.228729
vn -1.570876 0.000000 -1.570717
v 0.941250 0.602735 0.228729
vn 1.570876 0.000000 1.570796
v 0.961042 0.602735 0.248520
vn 1.570876 0.000000 1.570796
v 0.961042 0.025000 0.248520
vn 1.570717 0.000000 -1.570796
v 0.961042 0.025000 0.228728
vn 1.570717 0.000000 -1.570796
v 0.961042 0.602735 0.228728
vn -1.570788 0.000000 -1.570796
v 0.941088 0.602735 0.038979
vn -1.570788 0.000000 -1.570796
v 0.941088 0.025000 0.038979
vn -1.570796 0.000000 1.570796
v 0.941088 0.025000 0.058771
vn -1.570796 0.000000 1.570796
v 0.941088 0.602735 0.058771
vn 1.570796 0.000000 1.570796
v 0.960879 0.602735 0.058771
vn 1.570796 0.000000 1.570796
v 0.960879 0.025000 0.058771
vn 1.570804 0.000000 -1.570796
v 0.960879 0.025000 0.038980
vn 1.570804 0.000000 -1.570796
v 0.960879 0.602735 0.038980
vn -1.570796 0.000000 1.570796
v 0.039121 0.602735 0.248523
vn -1.570796 0.000000 1.570796
v 0.039121 0.025000 0.248523
vn -1.570796 0.000000 -1.570796
v 0.039121 0.025000 0.228731
vn -1.570796 0.000000 -1.570796
v 0.039121 0.602735 0.228731
vn 1.570796 0.000000 -1.570788
v 0.058912 0.602735 0.228731
vn 1.570796 0.000000 -1.570788
v 0.058912 0.025000 0.228731
vn 1.570796 0.000000 1.570804
v 0.058912 0.025000 0.248523
vn 1.570796 0.000000 1.570804
v 0.058912 0.602735 0.248523
vn -1.570733 0.000000 1.570852
v 0.038958 0.602735 0.058774
vn -1.570733 0.000000 1.570852
v 0.038958 0.025000 0.058774
vn -1.570852 0.000000 -1.570741
v 0.038958 0.025000 0.038983
vn -1.570852 0.000000 -1.570741
v 0.038958 0.602735 0.038983
vn 1.570741 0.000000 -1.570860
v 0.058749 0.602735 0.038982
vn 1.570741 0.000000 -1.570860
v 0.058749 0.025000 0.038982
vn 1.570860 0.000000 1.570733
v 0.058750 0.025000 0.058773
vn 1.570860 0.000000 1.570733
v 0.058750 0.602735 0.058773
vn -1.570825 -1.570817 1.570856
v 0.040067 0.105122 0.246167
vn -1.570757 1.570817 1.570812
v 0.040067 0.149653 0.246167
vn 1.570836 1.570780 1.570787
v 0.959937 0.149633 0.246164
vn 1.570767 -1.570780 1.570744
v 0.959937 0.105102 0.246164
vn 1.570825 1.570813 -1.570849
v 0.959933 0.149633 0.041335
vn 1.570757 -1.570813 -1.570805
v 0.959933 0.105102 0.041335
vn -1.570767 1.570776 -1.570737
v 0.040063 0.149653 0.041338
vn -1.570836 -1.570776 -1.570780
v 0.040063 0.105122 0.041338
vn -1.570801 -1.570817 1.570840
v 0.025006 0.602422 0.262502
vn 1.570791 -1.570774 1.570750
v 0.975000 0.602416 0.262499
vn 1.570780 -1.570818 -1.570830
v 0.974994 0.602416 0.025000
vn -1.570812 -1.570777 -1.570766
v 0.025000 0.602422 0.025004
vn -1.570781 1.570817 1.570827
v 0.025006 0.617266 0.262502
vn 1.570811 1.570774 1.570763
v 0.975000 0.617260 0.262499
vn 1.570800 1.570818 -1.570842
v 0.974994 0.617260 0.025000
vn -1.570793 1.570777 -1.570753
v 0.025000 0.617266 0.025004
# 128 vertices, 0 vertices normals

f 3//3 2//2 1//1
f 4//4 3//3 1//1
f 6//6 7//7 8//8
f 5//5 6//6 8//8
f 7//7 3//3 4//4
f 8//8 7//7 4//4
f 4//4 1//1 5//5
f 8//8 4//4 5//5
f 2//2 6//6 5//5
f 1//1 2//2 5//5
f 7//7 6//6 2//2
f 3//3 7//7 2//2
f 11//11 10//10 9//9
f 12//12 11//11 9//9
f 15//15 14//14 13//13
f 16//16 15//15 13//13
f 14//14 11//11 12//12
f 13//13 14//14 12//12
f 12//12 9//9 16//16
f 13//13 12//12 16//16
f 10//10 15//15 16//16
f 9//9 10//10 16//16
f 14//14 15//15 10//10
f 11//11 14//14 10//10
f 19//19 18//18 17//17
f 20//20 19//19 17//17
f 23//23 22//22 21//21
f 24//24 23//23 21//21
f 22//22 19//19 20//20
f 21//21 22//22 20//20
f 20//20 17//17 24//24
f 21//21 20//20 24//24
f 18//18 23//23 24//24
f 17//17 18//18 24//24
f 22//22 23//23 18//18
f 19//19 22//22 18//18
f 26//26 27//27 28//28
f 25//25 26//26 28//28
f 30//30 31//31 32//32
f 29//29 30//30 32//32
f 27//27 30//30 29//29
f 28//28 27//27 29//29
f 25//25 28//28 29//29
f 32//32 25//25 29//29
f 31//31 26//26 25//25
f 32//32 31//31 25//25
f 31//31 30//30 27//27
f 26//26 31//31 27//27
f 34//34 35//35 36//36
f 33//33 34//34 36//36
f 38//38 39//39 40//40
f 37//37 38//38 40//40
f 35//35 38//38 37//37
f 36//36 35//35 37//37
f 33//33 36//36 37//37
f 40//40 33//33 37//37
f 39//39 34//34 33//33
f 40//40 39//39 33//33
f 39//39 38//38 35//35
f 34//34 39//39 35//35
f 42//42 43//43 44//44
f 41//41 42//42 44//44
f 46//46 47//47 48//48
f 45//45 46//46 48//48
f 43//43 46//46 45//45
f 44//44 43//43 45//45
f 41//41 44//44 45//45
f 48//48 41//41 45//45
f 47//47 42//42 41//41
f 48//48 47//47 41//41
f 47//47 46//46 43//43
f 42//42 47//47 43//43
f 52//52 51//51 49//49
f 50//50 52//52 49//49
f 55//55 56//56 53//53
f 54//54 55//55 53//53
f 61//61 58//58 59//59
f 60//60 61//61 59//59
f 61//61 62//62 57//57
f 58//58 61//61 57//57
f 64//64 67//67 68//68
f 63//63 64//64 68//68
f 66//66 67//67 64//64
f 65//65 66//66 64//64
f 52//52 50//50 70//70
f 72//72 52//52 70//70
f 49//49 51//51 71//71
f 69//69 49//49 71//71
f 55//55 54//54 74//74
f 75//75 55//55 74//74
f 53//53 56//56 76//76
f 73//73 53//53 76//76
f 57//57 62//62 78//78
f 77//77 57//57 78//78
f 66//66 65//65 79//79
f 80//80 66//66 79//79
f 83//83 82//82 81//81
f 84//84 83//83 81//81
f 86//86 87//87 88//88
f 85//85 86//86 88//88
f 87//87 83//83 84//84
f 88//88 87//87 84//84
f 82//82 86//86 85//85
f 81//81 82//82 85//85
f 90//90 91//91 92//92
f 89//89 90//90 92//92
f 94//94 95//95 96//96
f 93//93 94//94 96//96
f 91//91 94//94 93//93
f 92//92 91//91 93//93
f 95//95 90//90 89//89
f 96//96 95//95 89//89
f 99//99 98//98 97//97
f 100//100 99//99 97//97
f 103//103 102//102 101//101
f 104//104 103//103 101//101
f 102//102 99//99 100//100
f 101//101 102//102 100//100
f 98//98 103//103 104//104
f 97//97 98//98 104//104
f 107//107 106//106 105//105
f 108//108 107//107 105//105
f 111//111 110//110 109//109
f 112//112 111//111 109//109
f 106//106 111//111 112//112
f 105//105 106//106 112//112
f 110//110 107//107 108//108
f 109//109 110//110 108//108
f 115//115 114//114 113//113
f 116//116 115//115 113//113
f 117//117 115//115 116//116
f 118//118 117//117 116//116
f 119//119 117//117 118//118
f 120//120 119//119 118//118
f 114//114 119//119 120//120
f 113//113 114//114 120//120
f 114//114 115//115 117//117
f 119//119 114//114 117//117
f 120//120 118//118 116//116
f 113//113 120//120 116//116
f 123//123 122//122 121//121
f 124//124 123//123 121//121
f 126//126 127//127 128//128
f 125//125 126//126 128//128
f 126//126 125//125 121//121
f 122//122 126//126 121//121
f 128//128 127//127 123//123
f 124//124 128//128 123//123
f 127//127 126//126 122//122
f 123//123 127//127 122//122
f 125//125 128//128 124//124
f 121//121 125//125 124//124
# 152 faces, 0 coords texture

# End of File
