####
#
# OBJ File Generated by Meshlab
#
####
# Object m904.obj
#
# Vertices: 128
# Faces: 152
#
####
vn 1.570796 1.570796 1.570796
v 0.227380 0.951229 0.393192
vn 1.570796 -1.570796 1.570796
v 0.227380 0.124933 0.393192
vn -1.570796 -1.570796 1.570796
v 0.203570 0.124933 0.393192
vn -1.570796 1.570796 1.570796
v 0.203570 0.951229 0.393192
vn 1.570796 1.570796 -1.570796
v 0.227380 0.951229 0.381287
vn 1.570796 -1.570796 -1.570796
v 0.227380 0.124933 0.381287
vn -1.570796 -1.570796 -1.570796
v 0.203570 0.124933 0.381287
vn -1.570796 1.570796 -1.570796
v 0.203570 0.951229 0.381287
vn 1.570796 1.570796 1.570796
v 0.148015 0.951229 0.393192
vn 1.570796 -1.570796 1.570796
v 0.148015 0.124933 0.393192
vn -1.570796 -1.570796 1.570796
v 0.124206 0.124933 0.393192
vn -1.570796 1.570796 1.570796
v 0.124206 0.951229 0.393192
vn -1.570796 1.570796 -1.570796
v 0.124206 0.951229 0.381287
vn -1.570796 -1.570796 -1.570796
v 0.124206 0.124933 0.381287
vn 1.570796 -1.570796 -1.570796
v 0.148015 0.124933 0.381287
vn 1.570796 1.570796 -1.570796
v 0.148015 0.951229 0.381287
vn 1.570796 1.570796 1.570796
v 0.306744 0.951229 0.393192
vn 1.570796 -1.570796 1.570796
v 0.306744 0.124933 0.393192
vn -1.570796 -1.570796 1.570796
v 0.282935 0.124933 0.393192
vn -1.570796 1.570796 1.570796
v 0.282935 0.951229 0.393192
vn -1.570796 1.570796 -1.570796
v 0.282935 0.951229 0.381288
vn -1.570796 -1.570796 -1.570796
v 0.282935 0.124933 0.381288
vn 1.570796 -1.570796 -1.570796
v 0.306744 0.124933 0.381288
vn 1.570796 1.570796 -1.570796
v 0.306744 0.951229 0.381288
vn 1.570803 1.570801 -1.570796
v 0.227381 0.951229 0.037759
vn 1.570803 -1.570801 -1.570796
v 0.227381 0.124933 0.037759
vn -1.570790 -1.570792 -1.570796
v 0.203571 0.124933 0.037759
vn -1.570790 1.570792 -1.570796
v 0.203571 0.951229 0.037759
vn -1.570796 1.570796 1.570796
v 0.203571 0.951229 0.049663
vn -1.570796 -1.570796 1.570796
v 0.203571 0.124933 0.049663
vn 1.570796 -1.570796 1.570796
v 0.227381 0.124933 0.049663
vn 1.570796 1.570796 1.570796
v 0.227381 0.951229 0.049663
vn 1.570796 1.570796 -1.570796
v 0.148016 0.951229 0.037759
vn 1.570796 -1.570796 -1.570796
v 0.148016 0.124933 0.037759
vn -1.570796 -1.570796 -1.570796
v 0.124207 0.124933 0.037759
vn -1.570796 1.570796 -1.570796
v 0.124207 0.951229 0.037759
vn -1.570796 1.570796 1.570796
v 0.124207 0.951229 0.049663
vn -1.570796 -1.570796 1.570796
v 0.124207 0.124933 0.049663
vn 1.570796 -1.570796 1.570796
v 0.148016 0.124933 0.049663
vn 1.570796 1.570796 1.570796
v 0.148016 0.951229 0.049663
vn 1.570803 1.570801 -1.570796
v 0.306745 0.951229 0.037759
vn 1.570803 -1.570801 -1.570796
v 0.306745 0.124933 0.037759
vn -1.570790 -1.570792 -1.570796
v 0.282936 0.124933 0.037759
vn -1.570790 1.570792 -1.570796
v 0.282936 0.951229 0.037759
vn -1.570803 1.570801 1.570796
v 0.282936 0.951229 0.049664
vn -1.570803 -1.570801 1.570796
v 0.282936 0.124933 0.049664
vn 1.570790 -1.570792 1.570796
v 0.306745 0.124933 0.049664
vn 1.570790 1.570792 1.570796
v 0.306745 0.951229 0.049664
vn 1.570796 0.000000 0.000000
v 0.375182 0.950954 0.351498
vn 1.570796 -1.570796 0.000000
v 0.375182 0.903336 0.351498
vn -1.570796 -1.570793 -0.000006
v 0.351372 0.903336 0.351498
vn -1.570796 0.000000 -0.000006
v 0.351372 0.950954 0.351498
vn 1.570796 0.000000 0.000000
v 0.375182 0.950954 0.079278
vn 1.570796 -1.570796 0.000000
v 0.375182 0.903336 0.079278
vn -1.570796 -1.570800 -0.000006
v 0.351373 0.903336 0.079278
vn -1.570796 0.000000 -0.000006
v 0.351373 0.950954 0.079278
vn 1.570796 0.000000 0.000004
v 0.079578 0.950954 0.351497
vn 1.570796 -1.570799 0.000004
v 0.079578 0.903336 0.351497
vn -1.570796 -1.570794 -0.000004
v 0.055769 0.903336 0.351497
vn -1.570796 0.000000 -0.000004
v 0.055769 0.950954 0.351497
vn -1.570796 0.000000 -0.000004
v 0.055769 0.950954 0.079277
vn -1.570796 -1.570799 -0.000004
v 0.055769 0.903336 0.079277
vn 1.570796 -1.570794 0.000004
v 0.079579 0.903336 0.079277
vn 1.570796 0.000000 0.000004
v 0.079579 0.950954 0.079277
vn 0.000046 0.000000 1.570796
v 0.079413 0.950954 0.375314
vn 0.000046 -1.570763 1.570796
v 0.079413 0.903336 0.375314
vn -0.000046 -1.570830 -1.570796
v 0.079413 0.903336 0.351505
vn -0.000046 0.000000 -1.570796
v 0.079413 0.950954 0.351505
vn -0.000046 0.000000 -1.570796
v 0.351633 0.950954 0.351497
vn -0.000046 -1.570767 -1.570796
v 0.351633 0.903336 0.351497
vn 0.000046 -1.570826 1.570796
v 0.351633 0.903336 0.375306
vn 0.000046 0.000000 1.570796
v 0.351633 0.950954 0.375306
vn 0.000046 0.000000 1.570796
v 0.079405 0.950954 0.079454
vn 0.000046 -1.570817 1.570796
v 0.079405 0.903336 0.079454
vn -0.000047 -1.570776 -1.570796
v 0.079404 0.903336 0.055645
vn -0.000047 0.000000 -1.570796
v 0.079404 0.950954 0.055645
vn -0.000047 0.000000 -1.570796
v 0.351624 0.950954 0.055637
vn -0.000047 -1.570809 -1.570796
v 0.351624 0.903336 0.055637
vn 0.000046 -1.570784 1.570796
v 0.351625 0.903336 0.079446
vn 0.000046 0.000000 1.570796
v 0.351625 0.950954 0.079446
vn 1.570791 0.000000 1.570796
v 0.383529 0.951692 0.079135
vn 1.570791 0.000000 1.570796
v 0.383529 0.025000 0.079135
vn -1.570801 0.000000 1.570796
v 0.351783 0.025000 0.079135
vn -1.570801 0.000000 1.570796
v 0.351783 0.951692 0.079135
vn 1.570801 0.000000 -1.570796
v 0.383529 0.951692 0.047389
vn 1.570801 0.000000 -1.570796
v 0.383529 0.025000 0.047389
vn -1.570791 0.000000 -1.570796
v 0.351783 0.025000 0.047389
vn -1.570791 0.000000 -1.570796
v 0.351783 0.951692 0.047389
vn -1.570801 0.000000 1.570791
v 0.047423 0.951692 0.079388
vn -1.570801 0.000000 1.570791
v 0.047423 0.025000 0.079388
vn 1.570791 0.000000 1.570801
v 0.079169 0.025000 0.079388
vn 1.570791 0.000000 1.570801
v 0.079169 0.951692 0.079388
vn 1.570801 0.000000 -1.570791
v 0.079169 0.951692 0.047642
vn 1.570801 0.000000 -1.570791
v 0.079169 0.025000 0.047642
vn -1.570791 0.000000 -1.570801
v 0.047423 0.025000 0.047642
vn -1.570791 0.000000 -1.570801
v 0.047423 0.951692 0.047642
vn 1.570796 0.000000 1.570796
v 0.383528 0.951692 0.383309
vn 1.570796 0.000000 1.570796
v 0.383528 0.025000 0.383309
vn -1.570796 0.000000 1.570796
v 0.351782 0.025000 0.383309
vn -1.570796 0.000000 1.570796
v 0.351782 0.951692 0.383309
vn -1.570796 0.000000 -1.570796
v 0.351782 0.951692 0.351563
vn -1.570796 0.000000 -1.570796
v 0.351782 0.025000 0.351563
vn 1.570796 0.000000 -1.570796
v 0.383528 0.025000 0.351563
vn 1.570796 0.000000 -1.570796
v 0.383528 0.951692 0.351563
vn 1.570796 0.000000 1.570801
v 0.079168 0.951692 0.383562
vn 1.570796 0.000000 1.570801
v 0.079168 0.025000 0.383562
vn -1.570796 0.000000 1.570791
v 0.047422 0.025000 0.383562
vn -1.570796 0.000000 1.570791
v 0.047422 0.951692 0.383562
vn -1.570796 0.000000 -1.570801
v 0.047422 0.951692 0.351816
vn -1.570796 0.000000 -1.570801
v 0.047422 0.025000 0.351816
vn 1.570796 0.000000 -1.570791
v 0.079168 0.025000 0.351816
vn 1.570796 0.000000 -1.570791
v 0.079168 0.951692 0.351816
vn 1.570891 -1.570796 1.570957
v 0.379748 0.153517 0.381790
vn 1.570692 1.570796 1.570645
v 0.379748 0.224945 0.381790
vn 1.570900 1.570796 -1.570947
v 0.379749 0.224912 0.049161
vn 1.570701 -1.570796 -1.570636
v 0.379749 0.153484 0.049161
vn -1.570891 1.570796 -1.570956
v 0.051202 0.224912 0.049161
vn -1.570693 -1.570796 -1.570645
v 0.051202 0.153484 0.049161
vn -1.570702 1.570797 1.570636
v 0.051202 0.224945 0.381789
vn -1.570900 -1.570797 1.570948
v 0.051202 0.153517 0.381789
vn 1.570818 -1.570796 1.570842
v 0.405950 0.951191 0.405951
vn 1.570774 -1.570796 -1.570751
v 0.405951 0.951181 0.025001
vn -1.570766 -1.570796 -1.570759
v 0.025001 0.951181 0.025000
vn -1.570827 -1.570796 1.570833
v 0.025000 0.951191 0.405950
vn 1.570766 1.570796 1.570759
v 0.405950 0.975000 0.405951
vn 1.570827 1.570796 -1.570833
v 0.405951 0.974990 0.025001
vn -1.570818 1.570796 -1.570842
v 0.025001 0.974990 0.025000
vn -1.570774 1.570796 1.570751
v 0.025000 0.975000 0.405950
# 128 vertices, 0 vertices normals

f 3//3 2//2 1//1
f 4//4 3//3 1//1
f 6//6 7//7 8//8
f 5//5 6//6 8//8
f 7//7 3//3 4//4
f 8//8 7//7 4//4
f 4//4 1//1 5//5
f 8//8 4//4 5//5
f 2//2 6//6 5//5
f 1//1 2//2 5//5
f 7//7 6//6 2//2
f 3//3 7//7 2//2
f 11//11 10//10 9//9
f 12//12 11//11 9//9
f 15//15 14//14 13//13
f 16//16 15//15 13//13
f 14//14 11//11 12//12
f 13//13 14//14 12//12
f 12//12 9//9 16//16
f 13//13 12//12 16//16
f 10//10 15//15 16//16
f 9//9 10//10 16//16
f 14//14 15//15 10//10
f 11//11 14//14 10//10
f 19//19 18//18 17//17
f 20//20 19//19 17//17
f 23//23 22//22 21//21
f 24//24 23//23 21//21
f 22//22 19//19 20//20
f 21//21 22//22 20//20
f 20//20 17//17 24//24
f 21//21 20//20 24//24
f 18//18 23//23 24//24
f 17//17 18//18 24//24
f 22//22 23//23 18//18
f 19//19 22//22 18//18
f 26//26 27//27 28//28
f 25//25 26//26 28//28
f 30//30 31//31 32//32
f 29//29 30//30 32//32
f 27//27 30//30 29//29
f 28//28 27//27 29//29
f 25//25 28//28 29//29
f 32//32 25//25 29//29
f 31//31 26//26 25//25
f 32//32 31//31 25//25
f 31//31 30//30 27//27
f 26//26 31//31 27//27
f 34//34 35//35 36//36
f 33//33 34//34 36//36
f 38//38 39//39 40//40
f 37//37 38//38 40//40
f 35//35 38//38 37//37
f 36//36 35//35 37//37
f 33//33 36//36 37//37
f 40//40 33//33 37//37
f 39//39 34//34 33//33
f 40//40 39//39 33//33
f 39//39 38//38 35//35
f 34//34 39//39 35//35
f 42//42 43//43 44//44
f 41//41 42//42 44//44
f 46//46 47//47 48//48
f 45//45 46//46 48//48
f 43//43 46//46 45//45
f 44//44 43//43 45//45
f 41//41 44//44 45//45
f 48//48 41//41 45//45
f 47//47 42//42 41//41
f 48//48 47//47 41//41
f 47//47 46//46 43//43
f 42//42 47//47 43//43
f 55//55 51//51 52//52
f 56//56 55//55 52//52
f 50//50 54//54 53//53
f 49//49 50//50 53//53
f 55//55 54//54 50//50
f 51//51 55//55 50//50
f 62//62 59//59 60//60
f 61//61 62//62 60//60
f 58//58 63//63 64//64
f 57//57 58//58 64//64
f 62//62 63//63 58//58
f 59//59 62//62 58//58
f 70//70 67//67 68//68
f 69//69 70//70 68//68
f 66//66 71//71 72//72
f 65//65 66//66 72//72
f 70//70 71//71 66//66
f 67//67 70//70 66//66
f 78//78 75//75 76//76
f 77//77 78//78 76//76
f 74//74 79//79 80//80
f 73//73 74//74 80//80
f 78//78 79//79 74//74
f 75//75 78//78 74//74
f 83//83 82//82 81//81
f 84//84 83//83 81//81
f 86//86 87//87 88//88
f 85//85 86//86 88//88
f 87//87 83//83 84//84
f 88//88 87//87 84//84
f 82//82 86//86 85//85
f 81//81 82//82 85//85
f 90//90 91//91 92//92
f 89//89 90//90 92//92
f 94//94 95//95 96//96
f 93//93 94//94 96//96
f 91//91 94//94 93//93
f 92//92 91//91 93//93
f 95//95 90//90 89//89
f 96//96 95//95 89//89
f 99//99 98//98 97//97
f 100//100 99//99 97//97
f 103//103 102//102 101//101
f 104//104 103//103 101//101
f 102//102 99//99 100//100
f 101//101 102//102 100//100
f 98//98 103//103 104//104
f 97//97 98//98 104//104
f 107//107 106//106 105//105
f 108//108 107//107 105//105
f 111//111 110//110 109//109
f 112//112 111//111 109//109
f 106//106 111//111 112//112
f 105//105 106//106 112//112
f 110//110 107//107 108//108
f 109//109 110//110 108//108
f 115//115 114//114 113//113
f 116//116 115//115 113//113
f 117//117 115//115 116//116
f 118//118 117//117 116//116
f 119//119 117//117 118//118
f 120//120 119//119 118//118
f 114//114 119//119 120//120
f 113//113 114//114 120//120
f 114//114 115//115 117//117
f 119//119 114//114 117//117
f 120//120 118//118 116//116
f 113//113 120//120 116//116
f 123//123 122//122 121//121
f 124//124 123//123 121//121
f 126//126 127//127 128//128
f 125//125 126//126 128//128
f 126//126 125//125 121//121
f 122//122 126//126 121//121
f 127//127 126//126 122//122
f 123//123 127//127 122//122
f 128//128 127//127 123//123
f 124//124 128//128 123//123
f 125//125 128//128 124//124
f 121//121 125//125 124//124
# 152 faces, 0 coords texture

# End of File
