####
#
# OBJ File Generated by Meshlab
#
####
# Object m907.obj
#
# Vertices: 158
# Faces: 214
#
####
vn -0.872805 2.748627 -1.305988
v 0.030173 0.974983 0.444985
vn -0.872808 -2.748622 -1.305992
v 0.030171 0.025000 0.444985
vn -2.178819 2.749056 -2.178765
v 0.027456 0.974983 0.446801
vn -2.178824 -2.749045 -2.178715
v 0.027453 0.025000 0.446801
vn -2.846637 2.748801 -1.179169
v 0.025640 0.974983 0.449518
vn -2.846708 -2.748786 -1.179158
v 0.025638 0.025000 0.449518
vn -3.081231 2.748910 0.000092
v 0.025003 0.974983 0.452724
vn -3.081262 -2.748894 0.000092
v 0.025000 0.025000 0.452724
vn -2.846619 2.748861 1.179261
v 0.025640 0.974983 0.455929
vn -2.846689 -2.748846 1.179250
v 0.025638 0.025000 0.455929
vn -2.178819 2.749056 2.178765
v 0.027456 0.974983 0.458646
vn -2.178824 -2.749045 2.178715
v 0.027453 0.025000 0.458646
vn -1.178988 2.748633 2.846657
v 0.030173 0.974983 0.460462
vn -1.178989 -2.748627 2.846656
v 0.030171 0.025000 0.460462
vn -0.306181 1.374632 1.540664
v 0.033378 0.974983 0.461099
vn -0.000681 -2.749244 3.077961
v 0.033376 0.025000 0.461099
vn 0.873478 -0.000002 1.309366
v 0.036584 0.974983 0.460462
vn 1.178979 -2.748627 2.846659
v 0.036581 0.025000 0.460462
vn 2.178819 -0.000006 2.178763
v 0.039301 0.974983 0.458646
vn 2.178819 -2.749056 2.178765
v 0.039299 0.025000 0.458646
vn 2.846617 -0.000007 1.179260
v 0.041117 0.974983 0.455929
vn 2.846637 -2.748802 1.179169
v 0.041114 0.025000 0.455929
vn 3.081229 -0.000008 0.000092
v 0.041754 0.974983 0.452724
vn 3.081231 -2.748910 -0.000092
v 0.041752 0.025000 0.452723
vn 2.846636 -0.000007 -1.179168
v 0.041117 0.974983 0.449518
vn 2.846619 -2.748861 -1.179261
v 0.041114 0.025000 0.449518
vn 2.178819 -0.000006 -2.178763
v 0.039301 0.974983 0.446801
vn 2.178819 -2.749056 -2.178765
v 0.039299 0.025000 0.446801
vn 0.872808 -0.000002 -1.305992
v 0.036584 0.974983 0.444985
vn 0.872805 -2.748633 -1.305988
v 0.036581 0.025000 0.444985
vn -0.000027 -6.283185 0.000000
v 0.033376 0.025000 0.452723
vn 0.000000 -2.749244 0.000000
v 0.033376 0.025000 0.444348
vn 0.000000 3.141581 0.000000
v 0.033378 0.974983 0.452724
vn 0.000000 1.374625 0.000000
v 0.033378 0.974983 0.444348
vn -0.872650 2.748770 -1.306092
v 0.449333 0.975000 0.444990
vn -0.872874 -2.748595 -1.305948
v 0.449330 0.025018 0.444990
vn -2.178819 2.748759 -2.178635
v 0.446615 0.975000 0.446806
vn -2.178819 -2.749172 -2.178817
v 0.446613 0.025018 0.446806
vn -2.846755 2.749100 -1.179122
v 0.444800 0.975000 0.449523
vn -2.846532 -2.748829 -1.179452
v 0.444797 0.025018 0.449523
vn -3.081158 2.748671 0.000092
v 0.444162 0.975000 0.452729
vn -3.081156 -2.748652 0.000092
v 0.444159 0.025018 0.452729
vn -2.846737 2.749161 1.179214
v 0.444800 0.975000 0.455934
vn -2.846514 -2.748890 1.179544
v 0.444797 0.025018 0.455934
vn -2.178818 2.748759 2.178636
v 0.446615 0.975000 0.458651
vn -2.178818 -2.749172 2.178818
v 0.446613 0.025018 0.458651
vn -1.179323 2.749070 2.846663
v 0.449333 0.975000 0.460467
vn -1.179546 -2.748894 2.846514
v 0.449330 0.025018 0.460467
vn -0.306671 1.374302 1.540566
v 0.452538 0.975000 0.461105
vn -0.000765 -2.748661 3.077783
v 0.452535 0.025018 0.461105
vn 0.873324 -0.000002 1.309470
v 0.455743 0.975000 0.460467
vn 1.179452 -2.748841 2.846534
v 0.455741 0.025018 0.460467
vn 2.178819 -0.000006 2.178633
v 0.458461 0.975000 0.458651
vn 2.178819 -2.749183 2.178819
v 0.458458 0.025018 0.458651
vn 2.846736 -0.000007 1.179213
v 0.460276 0.975000 0.455934
vn 2.846607 -2.748605 1.179084
v 0.460274 0.025018 0.455934
vn 3.081156 -0.000008 0.000091
v 0.460914 0.975000 0.452729
vn 3.081342 -2.749270 0.000091
v 0.460911 0.025018 0.452729
vn 2.846755 -0.000008 -1.179119
v 0.460276 0.975000 0.449523
vn 2.846626 -2.748545 -1.178991
v 0.460274 0.025018 0.449523
vn 2.178818 -0.000006 -2.178634
v 0.458461 0.975000 0.446806
vn 2.178818 -2.749184 -2.178820
v 0.458458 0.025018 0.446806
vn 0.872653 -0.000003 -1.306095
v 0.455743 0.975000 0.444990
vn 0.872872 -2.748539 -1.305944
v 0.455741 0.025018 0.444990
vn 0.000000 -6.283185 0.000000
v 0.452535 0.025018 0.452729
vn 0.000000 -2.749262 0.000000
v 0.452535 0.025018 0.444353
vn 0.000000 3.141593 0.000000
v 0.452538 0.975000 0.452729
vn 0.000000 1.374601 0.000000
v 0.452538 0.975000 0.444353
vn 0.000000 1.570796 1.570796
v 0.033415 0.974982 0.461116
vn 0.000000 -1.570796 1.570796
v 0.033415 0.025000 0.461116
vn 0.000000 1.570796 1.570796
v 0.452525 0.974982 0.461116
vn 0.000000 -1.570796 1.570796
v 0.452525 0.025000 0.461116
vn 0.000000 1.570796 0.000000
v 0.033415 0.974982 0.444352
vn 0.000000 1.570796 0.000000
v 0.452525 0.974982 0.444352
vn 0.000000 -1.570796 0.000000
v 0.033415 0.025000 0.444352
vn 0.000000 -1.570796 0.000000
v 0.452525 0.025000 0.444352
vn 2.748876 0.000009 3.081221
v 0.452156 0.033551 0.041765
vn 0.000006 0.000009 3.081220
v 0.033047 0.033551 0.041766
vn 2.748902 -1.179156 2.846676
v 0.452156 0.030343 0.041127
vn 0.000005 -1.179155 2.846675
v 0.033047 0.030343 0.041127
vn 2.748917 -2.178753 2.178771
v 0.452156 0.027624 0.039310
vn 0.000004 -2.178751 2.178771
v 0.033047 0.027624 0.039310
vn 2.748866 -2.846676 1.179129
v 0.452156 0.025807 0.036590
vn 0.000002 -2.846675 1.179130
v 0.033047 0.025807 0.036591
vn 2.748924 -3.081237 -0.000001
v 0.452156 0.025169 0.033383
vn 0.000000 -3.081237 0.000001
v 0.033047 0.025169 0.033383
vn 2.748887 -2.846697 -1.179097
v 0.452156 0.025807 0.030175
vn -0.000002 -2.846699 -1.179096
v 0.033047 0.025807 0.030176
vn 2.748867 -2.178751 -2.178752
v 0.452156 0.027624 0.027456
vn -0.000004 -2.178786 -2.178730
v 0.033047 0.027624 0.027456
vn 2.748915 -1.179142 -2.846688
v 0.452156 0.030343 0.025639
vn -0.000002 -0.874229 -1.313711
v 0.033047 0.030343 0.025639
vn 1.374439 0.001467 -3.073576
v 0.452156 0.033551 0.025000
vn -0.000000 0.001522 -0.007654
v 0.033047 0.033551 0.025001
vn 1.374405 1.177620 -2.839009
v 0.452156 0.036759 0.025638
vn -0.000002 0.872729 -1.306043
v 0.033047 0.036759 0.025639
vn 2.748934 2.178785 -2.178748
v 0.452156 0.039478 0.027456
vn -0.000004 2.178771 -2.178770
v 0.033047 0.039478 0.027456
vn 2.748862 2.846675 -1.179130
v 0.452156 0.041295 0.030175
vn -0.000002 2.846663 -1.179142
v 0.033047 0.041295 0.030176
vn 2.748924 3.081237 -0.000001
v 0.452156 0.041933 0.033383
vn 0.000000 3.081239 0.000010
v 0.033047 0.041933 0.033383
vn 2.748892 2.846699 1.179096
v 0.452156 0.041295 0.036590
vn 0.000002 2.846697 1.179097
v 0.033047 0.041295 0.036591
vn 2.748875 2.178753 2.178752
v 0.452156 0.039478 0.039310
vn 0.000004 2.178751 2.178752
v 0.033047 0.039478 0.039310
vn 2.748925 1.179143 2.846689
v 0.452156 0.036759 0.041127
vn 0.000005 1.179142 2.846688
v 0.033047 0.036759 0.041127
vn 5.890480 0.000000 0.000000
v 0.452156 0.033551 0.033383
vn -1.570793 -1.570796 -0.000006
v 0.214952 0.025160 0.444128
vn -1.570794 -1.570796 -0.000006
v 0.214952 0.025161 0.025019
vn 1.570793 -1.570796 -0.000006
v 0.270833 0.025160 0.444128
vn 1.570794 -1.570796 -0.000006
v 0.270833 0.025161 0.025019
vn 1.570800 1.570796 0.000006
v 0.270833 0.041924 0.444128
vn 1.570799 1.570796 0.000006
v 0.270833 0.041926 0.025019
vn -1.570800 1.570796 0.000006
v 0.214952 0.041924 0.444128
vn -1.570799 1.570796 0.000006
v 0.214952 0.041926 0.025019
vn 2.748906 0.000000 3.081231
v 0.452100 0.965942 0.041764
vn 0.000006 -0.000000 3.081229
v 0.032990 0.965942 0.041765
vn 2.748839 -1.179204 2.846636
v 0.452100 0.962734 0.041126
vn 0.000005 -1.179203 2.846634
v 0.032990 0.962734 0.041127
vn 2.748943 -2.178842 2.178693
v 0.452100 0.960015 0.039309
vn 0.000004 -2.178840 2.178693
v 0.032990 0.960015 0.039310
vn 2.748892 -2.846699 1.179096
v 0.452100 0.958198 0.036590
vn 0.000002 -2.846697 1.179097
v 0.032990 0.958198 0.036591
vn 2.748924 -3.081237 -0.000001
v 0.452100 0.957560 0.033382
vn 0.000000 -3.081237 0.000001
v 0.032990 0.957560 0.033383
vn 2.748887 -2.846697 -1.179097
v 0.452100 0.958198 0.030174
vn -0.000002 -2.846699 -1.179096
v 0.032990 0.958198 0.030175
vn 2.748934 -2.178840 -2.178693
v 0.452100 0.960015 0.027455
vn -0.000004 -2.178875 -2.178671
v 0.032990 0.960015 0.027456
vn 2.748829 -1.179203 -2.846634
v 0.452100 0.962734 0.025638
vn -0.000002 -0.874318 -1.313653
v 0.032990 0.962734 0.025639
vn 1.374445 0.001476 -3.073584
v 0.452100 0.965942 0.025000
vn -0.000000 0.001522 -0.007654
v 0.032990 0.965942 0.025001
vn 1.374387 1.177668 -2.838967
v 0.452100 0.969150 0.025638
vn -0.000002 0.872795 -1.305999
v 0.032990 0.969150 0.025639
vn 2.748960 2.178873 -2.178671
v 0.452100 0.971869 0.027455
vn -0.000004 2.178860 -2.178693
v 0.032990 0.971869 0.027456
vn 2.748887 2.846697 -1.179097
v 0.452100 0.973686 0.030174
vn -0.000002 2.846685 -1.179109
v 0.032990 0.973686 0.030175
vn 2.748924 3.081237 -0.000001
v 0.452100 0.974324 0.033382
vn 0.000000 3.081239 0.000010
v 0.032990 0.974324 0.033383
vn 2.748892 2.846699 1.179096
v 0.452100 0.973686 0.036590
vn 0.000002 2.846697 1.179097
v 0.032990 0.973686 0.036591
vn 2.748943 2.178842 2.178693
v 0.452100 0.971869 0.039309
vn 0.000004 2.178840 2.178693
v 0.032990 0.971869 0.039310
vn 2.748839 1.179204 2.846636
v 0.452100 0.969150 0.041126
vn 0.000005 1.179203 2.846634
v 0.032990 0.969150 0.041127
vn 5.890459 0.000000 0.000000
v 0.452100 0.965942 0.033382
vn -1.570794 -1.570796 -0.000004
v 0.214895 0.957551 0.444128
vn -1.570793 -1.570796 -0.000004
v 0.214895 0.957552 0.025018
vn 1.570794 -1.570796 -0.000004
v 0.270777 0.957551 0.444128
vn 1.570793 -1.570796 -0.000004
v 0.270777 0.957552 0.025018
vn 1.570801 1.570796 0.000007
v 0.270777 0.974315 0.444128
vn 1.570798 1.570796 0.000007
v 0.270777 0.974317 0.025018
vn -1.570801 1.570796 0.000007
v 0.214895 0.974315 0.444128
vn -1.570798 1.570796 0.000007
v 0.214895 0.974317 0.025018
# 158 vertices, 0 vertices normals

f 1//1 2//2 3//3
f 3//3 4//4 5//5
f 5//5 6//6 7//7
f 9//9 10//10 11//11
f 7//7 8//8 9//9
f 33//33 11//11 13//13
f 33//33 13//13 15//15
f 33//33 9//9 11//11
f 33//33 7//7 9//9
f 33//33 5//5 7//7
f 33//33 3//3 5//5
f 33//33 1//1 3//3
f 33//33 34//34 1//1
f 13//13 14//14 15//15
f 11//11 12//12 13//13
f 29//29 28//28 30//30
f 27//27 26//26 28//28
f 25//25 24//24 26//26
f 23//23 22//22 24//24
f 21//21 20//20 22//22
f 19//19 18//18 20//20
f 17//17 16//16 18//18
f 17//17 18//18 19//19
f 19//19 20//20 21//21
f 21//21 22//22 23//23
f 23//23 24//24 25//25
f 25//25 26//26 27//27
f 27//27 28//28 29//29
f 31//31 18//18 16//16
f 31//31 20//20 18//18
f 31//31 22//22 20//20
f 31//31 24//24 22//22
f 31//31 26//26 24//24
f 31//31 28//28 26//26
f 31//31 30//30 28//28
f 31//31 32//32 30//30
f 31//31 16//16 14//14
f 31//31 12//12 10//10
f 31//31 10//10 8//8
f 31//31 8//8 6//6
f 31//31 6//6 4//4
f 31//31 4//4 2//2
f 31//31 2//2 32//32
f 31//31 14//14 12//12
f 13//13 12//12 14//14
f 11//11 10//10 12//12
f 9//9 8//8 10//10
f 5//5 4//4 6//6
f 7//7 6//6 8//8
f 3//3 2//2 4//4
f 15//15 14//14 16//16
f 35//35 36//36 37//37
f 37//37 38//38 39//39
f 39//39 40//40 41//41
f 43//43 44//44 45//45
f 41//41 42//42 43//43
f 67//67 45//45 47//47
f 67//67 47//47 49//49
f 67//67 43//43 45//45
f 67//67 41//41 43//43
f 67//67 39//39 41//41
f 67//67 37//37 39//39
f 67//67 35//35 37//37
f 67//67 68//68 35//35
f 47//47 48//48 49//49
f 45//45 46//46 47//47
f 63//63 62//62 64//64
f 61//61 60//60 62//62
f 59//59 58//58 60//60
f 57//57 56//56 58//58
f 55//55 54//54 56//56
f 53//53 52//52 54//54
f 51//51 50//50 52//52
f 51//51 52//52 53//53
f 53//53 54//54 55//55
f 55//55 56//56 57//57
f 57//57 58//58 59//59
f 59//59 60//60 61//61
f 61//61 62//62 63//63
f 65//65 52//52 50//50
f 65//65 54//54 52//52
f 65//65 56//56 54//54
f 65//65 58//58 56//56
f 65//65 60//60 58//58
f 65//65 62//62 60//60
f 65//65 64//64 62//62
f 65//65 66//66 64//64
f 65//65 50//50 48//48
f 65//65 46//46 44//44
f 65//65 44//44 42//42
f 65//65 42//42 40//40
f 65//65 40//40 38//38
f 65//65 38//38 36//36
f 65//65 36//36 66//66
f 65//65 48//48 46//46
f 47//47 46//46 48//48
f 45//45 44//44 46//46
f 43//43 42//42 44//44
f 39//39 38//38 40//40
f 41//41 40//40 42//42
f 37//37 36//36 38//38
f 49//49 48//48 50//50
f 74//74 69//69 71//71
f 73//73 69//69 74//74
f 69//69 70//70 71//71
f 71//71 70//70 72//72
f 70//70 75//75 72//72
f 72//72 75//75 76//76
f 95//95 96//96 97//97
f 93//93 94//94 95//95
f 91//91 92//92 93//93
f 89//89 90//90 91//91
f 87//87 88//88 89//89
f 97//97 98//98 99//99
f 91//91 90//90 92//92
f 83//83 84//84 85//85
f 85//85 86//86 87//87
f 87//87 86//86 88//88
f 89//89 88//88 90//90
f 77//77 78//78 79//79
f 79//79 78//78 80//80
f 79//79 80//80 81//81
f 81//81 80//80 82//82
f 83//83 82//82 84//84
f 81//81 82//82 83//83
f 85//85 84//84 86//86
f 77//77 108//108 78//78
f 107//107 108//108 77//77
f 107//107 106//106 108//108
f 105//105 106//106 107//107
f 105//105 104//104 106//106
f 103//103 104//104 105//105
f 103//103 102//102 104//104
f 101//101 102//102 103//103
f 101//101 100//100 102//102
f 99//99 100//100 101//101
f 97//97 96//96 98//98
f 99//99 98//98 100//100
f 109//109 89//89 91//91
f 109//109 91//91 93//93
f 109//109 85//85 87//87
f 109//109 87//87 89//89
f 109//109 99//99 101//101
f 109//109 101//101 103//103
f 109//109 103//103 105//105
f 109//109 107//107 77//77
f 109//109 77//77 79//79
f 109//109 79//79 81//81
f 109//109 83//83 85//85
f 109//109 105//105 107//107
f 109//109 81//81 83//83
f 109//109 95//95 97//97
f 109//109 97//97 99//99
f 114//114 115//115 116//116
f 116//116 115//115 117//117
f 110//110 111//111 112//112
f 112//112 111//111 113//113
f 116//116 117//117 110//110
f 110//110 117//117 111//111
f 112//112 113//113 114//114
f 114//114 113//113 115//115
f 136//136 137//137 138//138
f 134//134 135//135 136//136
f 132//132 133//133 134//134
f 130//130 131//131 132//132
f 128//128 129//129 130//130
f 138//138 139//139 140//140
f 132//132 131//131 133//133
f 124//124 125//125 126//126
f 126//126 127//127 128//128
f 128//128 127//127 129//129
f 130//130 129//129 131//131
f 118//118 119//119 120//120
f 120//120 119//119 121//121
f 120//120 121//121 122//122
f 122//122 121//121 123//123
f 124//124 123//123 125//125
f 122//122 123//123 124//124
f 126//126 125//125 127//127
f 118//118 149//149 119//119
f 148//148 149//149 118//118
f 148//148 147//147 149//149
f 146//146 147//147 148//148
f 146//146 145//145 147//147
f 144//144 145//145 146//146
f 144//144 143//143 145//145
f 142//142 143//143 144//144
f 142//142 141//141 143//143
f 140//140 141//141 142//142
f 138//138 137//137 139//139
f 140//140 139//139 141//141
f 150//150 130//130 132//132
f 150//150 132//132 134//134
f 150//150 126//126 128//128
f 150//150 128//128 130//130
f 150//150 140//140 142//142
f 150//150 142//142 144//144
f 150//150 144//144 146//146
f 150//150 148//148 118//118
f 150//150 118//118 120//120
f 150//150 120//120 122//122
f 150//150 124//124 126//126
f 150//150 146//146 148//148
f 150//150 122//122 124//124
f 150//150 136//136 138//138
f 150//150 138//138 140//140
f 155//155 156//156 157//157
f 157//157 156//156 158//158
f 151//151 152//152 153//153
f 153//153 152//152 154//154
f 157//157 158//158 151//151
f 151//151 158//158 152//152
f 153//153 154//154 155//155
f 155//155 154//154 156//156
# 214 faces, 0 coords texture

# End of File
