####
#
# OBJ File Generated by Meshlab
#
####
# Object m912.obj
#
# Vertices: 36
# Faces: 60
#
####
vn -3.141593 0.000000 -3.141593
v 0.025000 0.452500 0.025000
vn 3.141593 0.000000 -3.141593
v 0.975000 0.452500 0.025000
vn 1.570796 1.570796 -1.570796
v 0.975000 0.500000 0.025000
vn -1.570796 1.570796 -1.570796
v 0.025000 0.500000 0.025000
vn -3.141593 0.000000 3.141593
v 0.025000 0.452500 0.500000
vn 3.141593 0.000000 3.141593
v 0.975000 0.452500 0.500000
vn 1.570796 1.570796 1.570796
v 0.975000 0.500000 0.500000
vn -1.570796 1.570796 1.570796
v 0.025000 0.500000 0.500000
vn -1.570796 -1.570796 -1.570796
v 0.025000 0.025000 0.481000
vn 1.570796 -1.570796 -1.570796
v 0.044000 0.025000 0.481000
vn 1.570796 1.570796 -1.570796
v 0.044000 0.452500 0.481000
vn -1.570796 1.570796 -1.570796
v 0.025000 0.452500 0.481000
vn -1.570796 -1.570796 1.570796
v 0.025000 0.025000 0.500000
vn 1.570796 -1.570796 1.570796
v 0.044000 0.025000 0.500000
vn 1.570796 1.570796 1.570796
v 0.044000 0.452500 0.500000
vn -1.570796 -1.570796 -1.570796
v 0.025000 0.025000 0.025000
vn 1.570796 -1.570796 -1.570796
v 0.044000 0.025000 0.025000
vn 1.570796 1.570796 -1.570796
v 0.044000 0.452500 0.025000
vn -1.570796 -1.570796 1.570796
v 0.025000 0.025000 0.044000
vn 1.570796 -1.570796 1.570796
v 0.044000 0.025000 0.044000
vn 1.570796 1.570796 1.570796
v 0.044000 0.452500 0.044000
vn -1.570796 1.570796 1.570796
v 0.025000 0.452500 0.044000
vn -1.570796 -1.570796 -1.570796
v 0.956000 0.025000 0.481000
vn 1.570796 -1.570796 -1.570796
v 0.975000 0.025000 0.481000
vn 1.570796 1.570796 -1.570796
v 0.975000 0.452500 0.481000
vn -1.570796 1.570796 -1.570796
v 0.956000 0.452500 0.481000
vn -1.570796 -1.570796 1.570796
v 0.956000 0.025000 0.500000
vn 1.570796 -1.570796 1.570796
v 0.975000 0.025000 0.500000
vn -1.570796 1.570796 1.570796
v 0.956000 0.452500 0.500000
vn -1.570796 -1.570796 -1.570796
v 0.956000 0.025000 0.025000
vn 1.570796 -1.570796 -1.570796
v 0.975000 0.025000 0.025000
vn -1.570796 1.570796 -1.570796
v 0.956000 0.452500 0.025000
vn -1.570796 -1.570796 1.570796
v 0.956000 0.025000 0.044000
vn 1.570796 -1.570796 1.570796
v 0.975000 0.025000 0.044000
vn 1.570796 1.570796 1.570796
v 0.975000 0.452500 0.044000
vn -1.570796 1.570796 1.570796
v 0.956000 0.452500 0.044000
# 36 vertices, 0 vertices normals

f 1//1 4//4 2//2
f 2//2 4//4 3//3
f 1//1 6//6 5//5
f 1//1 2//2 6//6
f 1//1 5//5 4//4
f 4//4 5//5 8//8
f 4//4 8//8 7//7
f 4//4 7//7 3//3
f 2//2 7//7 6//6
f 2//2 3//3 7//7
f 6//6 8//8 5//5
f 6//6 7//7 8//8
f 9//9 12//12 10//10
f 10//10 12//12 11//11
f 9//9 14//14 13//13
f 9//9 10//10 14//14
f 9//9 13//13 12//12
f 12//12 13//13 5//5
f 12//12 5//5 15//15
f 12//12 15//15 11//11
f 10//10 15//15 14//14
f 10//10 11//11 15//15
f 14//14 5//5 13//13
f 14//14 15//15 5//5
f 16//16 1//1 17//17
f 17//17 1//1 18//18
f 16//16 20//20 19//19
f 16//16 17//17 20//20
f 16//16 19//19 1//1
f 1//1 19//19 22//22
f 1//1 22//22 21//21
f 1//1 21//21 18//18
f 17//17 21//21 20//20
f 17//17 18//18 21//21
f 20//20 22//22 19//19
f 20//20 21//21 22//22
f 23//23 26//26 24//24
f 24//24 26//26 25//25
f 23//23 28//28 27//27
f 23//23 24//24 28//28
f 23//23 27//27 26//26
f 26//26 27//27 29//29
f 26//26 29//29 6//6
f 26//26 6//6 25//25
f 24//24 6//6 28//28
f 24//24 25//25 6//6
f 28//28 29//29 27//27
f 28//28 6//6 29//29
f 30//30 32//32 31//31
f 31//31 32//32 2//2
f 30//30 34//34 33//33
f 30//30 31//31 34//34
f 30//30 33//33 32//32
f 32//32 33//33 36//36
f 32//32 36//36 35//35
f 32//32 35//35 2//2
f 31//31 35//35 34//34
f 31//31 2//2 35//35
f 34//34 36//36 33//33
f 34//34 35//35 36//36
# 60 faces, 0 coords texture

# End of File
