####
#
# OBJ File Generated by Meshlab
#
####
# Object m913.obj
#
# Vertices: 104
# Faces: 188
#
####
vn -4.323246 -0.022943 1.838056
v 0.025000 0.865491 0.936136
vn -4.323214 0.022949 -1.838066
v 0.025000 0.865491 0.063864
vn -3.471732 -3.671305 1.411277
v 0.036515 0.839582 0.930379
vn -3.590511 3.674750 1.405574
v 0.036515 0.891400 0.930379
vn -3.493992 -3.707636 -1.367274
v 0.036515 0.839582 0.069621
vn -3.567784 3.638720 -1.449668
v 0.036515 0.891400 0.069621
vn -1.209186 -5.971180 0.486388
v 0.062424 0.829506 0.920303
vn -1.348971 5.893675 0.528316
v 0.062424 0.902915 0.920303
vn -1.207874 -5.975114 -0.473075
v 0.062424 0.829506 0.079697
vn -1.350261 5.888803 -0.542887
v 0.062424 0.902915 0.079697
vn -1.866436 -0.024231 4.527146
v 0.065303 0.865491 0.975000
vn -1.866443 0.024238 -4.527165
v 0.065303 0.865491 0.025000
vn -1.472218 -3.471162 3.456725
v 0.069621 0.839582 0.964924
vn -1.468032 3.478437 3.575640
v 0.069621 0.891400 0.964924
vn -1.428561 -3.510218 -3.481849
v 0.069621 0.839582 0.035076
vn -1.511809 3.439582 -3.550042
v 0.069621 0.891400 0.035076
vn -0.548759 -5.955556 1.201928
v 0.079697 0.829506 0.939015
vn -0.595787 5.874981 1.340528
v 0.079697 0.902915 0.939015
vn -0.534167 -5.960070 -1.201063
v 0.079697 0.829506 0.060985
vn -0.611713 5.869408 -1.341291
v 0.079697 0.902915 0.060985
vn 0.534156 -5.960073 1.201063
v 0.629545 0.829506 0.939015
vn 0.611696 5.869414 1.341290
v 0.629545 0.902915 0.939015
vn 0.548754 -5.955558 -1.201926
v 0.629545 0.829506 0.060985
vn 0.595787 5.874982 -1.340526
v 0.629545 0.902915 0.060985
vn 1.428570 -3.510226 3.481843
v 0.639621 0.839582 0.964924
vn 1.511807 3.439600 3.550044
v 0.639621 0.891400 0.964924
vn 1.472232 -3.471128 -3.456719
v 0.639621 0.839582 0.035076
vn 1.468035 3.478415 -3.575638
v 0.639621 0.891400 0.035076
vn 1.866433 0.024231 4.527156
v 0.643939 0.865491 0.975000
vn 1.866439 -0.024238 -4.527175
v 0.643939 0.865491 0.025000
vn 1.207871 -5.975113 0.473081
v 0.646818 0.829506 0.920303
vn 1.350258 5.888803 0.542890
v 0.646818 0.902915 0.920303
vn 1.209187 -5.971180 -0.486388
v 0.646818 0.829506 0.079697
vn 1.348973 5.893673 -0.528320
v 0.646818 0.902915 0.079697
vn 3.493985 -3.707591 1.367300
v 0.672727 0.839582 0.930379
vn 3.567781 3.638684 1.449683
v 0.672727 0.891400 0.930379
vn 3.471743 -3.671304 -1.411261
v 0.672727 0.839582 0.069621
vn 3.590525 3.674758 -1.405548
v 0.672727 0.891400 0.069621
vn 4.323262 0.022943 1.838065
v 0.684242 0.865491 0.936136
vn 4.323229 -0.022950 -1.838076
v 0.684242 0.865491 0.063864
vn -3.000794 -2.714961 0.650006
v 0.079697 0.025000 0.905909
vn -3.000794 2.714961 0.650006
v 0.079697 0.829506 0.905909
vn -1.626203 -1.657785 -1.568386
v 0.079697 0.025000 0.874242
vn -1.515389 1.483808 -1.568386
v 0.079697 0.829506 0.829621
vn -1.513603 1.481006 1.568228
v 0.079697 0.829506 0.189091
vn -1.627990 -1.660586 1.568228
v 0.079697 0.025029 0.143030
vn -3.000799 -2.714968 -0.649996
v 0.079697 0.025029 0.112803
vn -3.000799 2.714968 -0.649996
v 0.079697 0.829506 0.112803
vn -2.048861 -2.402387 2.093754
v 0.086894 0.025000 0.921742
vn -2.048861 2.402387 2.093754
v 0.086894 0.829506 0.921742
vn -2.048769 -2.402313 -2.093786
v 0.086894 0.025029 0.096970
vn -2.048769 2.402313 -2.093786
v 0.086894 0.829506 0.096970
vn -0.618864 -2.736634 3.014544
v 0.096970 0.025000 0.926061
vn -0.618864 2.736634 3.014544
v 0.096970 0.829506 0.926061
vn -0.618767 -2.736701 -3.014586
v 0.096970 0.025029 0.092651
vn -0.618767 2.736701 -3.014586
v 0.096970 0.829506 0.092651
vn 0.551641 -2.782755 3.041542
v 0.104167 0.025000 0.926061
vn 0.551641 2.782755 3.041542
v 0.104167 0.829506 0.926061
vn 0.551552 -2.782816 -3.041576
v 0.104167 0.025029 0.092651
vn 0.551552 2.782816 -3.041576
v 0.104167 0.829506 0.092651
vn 2.027879 -2.278379 2.007517
v 0.115682 0.025000 0.921742
vn 2.027879 2.278379 2.007517
v 0.115682 0.829506 0.921742
vn 2.027793 -2.278312 -2.007542
v 0.115682 0.025029 0.096970
vn 2.027793 2.278312 -2.007542
v 0.115682 0.829506 0.096970
vn 3.047034 -2.792847 0.536771
v 0.121439 0.025000 0.905909
vn 3.047034 2.792847 0.536771
v 0.121439 0.829506 0.905909
vn 1.626203 -1.657785 -1.568386
v 0.121439 0.025000 0.874242
vn 1.515389 1.483808 -1.568386
v 0.121439 0.829506 0.829621
vn 1.513603 1.481006 1.568228
v 0.121439 0.829506 0.189091
vn 1.627990 -1.660586 1.568228
v 0.121439 0.025029 0.143030
vn 3.047037 -2.792853 -0.536762
v 0.121439 0.025029 0.112803
vn 3.047037 2.792853 -0.536762
v 0.121439 0.829506 0.112803
vn -3.047004 -2.792791 0.536854
v 0.587803 0.025000 0.905909
vn -3.047004 2.792791 0.536854
v 0.587803 0.829506 0.905909
vn -1.626203 -1.657785 -1.568386
v 0.587803 0.025000 0.874242
vn -1.515389 1.483808 -1.568386
v 0.587803 0.829506 0.829621
vn -1.513603 1.481006 1.568228
v 0.587803 0.829506 0.189091
vn -1.627990 -1.660586 1.568228
v 0.587803 0.025029 0.143030
vn -3.047007 -2.792797 -0.536845
v 0.587803 0.025029 0.112803
vn -3.047007 2.792797 -0.536845
v 0.587803 0.829506 0.112803
vn -2.027849 -2.278435 2.007599
v 0.593561 0.025000 0.921742
vn -2.027849 2.278435 2.007599
v 0.593561 0.829506 0.921742
vn -2.027763 -2.278368 -2.007624
v 0.593561 0.025029 0.096970
vn -2.027763 2.278368 -2.007624
v 0.593561 0.829506 0.096970
vn -0.551641 -2.782755 3.041542
v 0.605076 0.025000 0.926061
vn -0.551641 2.782755 3.041542
v 0.605076 0.829506 0.926061
vn -0.551552 -2.782816 -3.041576
v 0.605076 0.025029 0.092651
vn -0.551552 2.782816 -3.041576
v 0.605076 0.829506 0.092651
vn 0.618905 -2.736605 3.014527
v 0.612273 0.025000 0.926061
vn 0.618905 2.736605 3.014527
v 0.612273 0.829506 0.926061
vn 0.618808 -2.736672 -3.014568
v 0.612273 0.025029 0.092651
vn 0.618808 2.736672 -3.014568
v 0.612273 0.829506 0.092651
vn 2.048899 2.402421 2.093744
v 0.622348 0.829506 0.921742
vn 2.048899 -2.402421 2.093744
v 0.622348 0.025000 0.921742
vn 2.048807 -2.402347 -2.093775
v 0.622348 0.025029 0.096970
vn 2.048807 2.402347 -2.093775
v 0.622348 0.829506 0.096970
vn 3.000790 -2.714956 0.650014
v 0.629545 0.025000 0.905909
vn 3.000790 2.714956 0.650014
v 0.629545 0.829506 0.905909
vn 1.626203 -1.657785 -1.568386
v 0.629545 0.025000 0.874242
vn 1.515389 1.483808 -1.568386
v 0.629545 0.829506 0.829621
vn 1.513603 1.481006 1.568228
v 0.629545 0.829506 0.189091
vn 1.627990 -1.660586 1.568228
v 0.629545 0.025029 0.143030
vn 3.000795 -2.714963 -0.650004
v 0.629545 0.025029 0.112803
vn 3.000795 2.714963 -0.650004
v 0.629545 0.829506 0.112803
# 104 vertices, 0 vertices normals

f 18//18 22//22 32//32
f 10//10 8//8 32//32
f 24//24 20//20 32//32
f 7//7 31//31 21//21
f 19//19 31//31 7//7
f 33//33 31//31 19//19
f 38//38 28//28 24//24
f 40//40 30//30 28//28
f 37//37 27//27 30//30
f 33//33 23//23 27//27
f 28//28 16//16 20//20
f 30//30 12//12 16//16
f 27//27 15//15 12//12
f 23//23 19//19 15//15
f 16//16 6//6 10//10
f 12//12 2//2 6//6
f 15//15 5//5 2//2
f 19//19 9//9 5//5
f 6//6 4//4 8//8
f 2//2 1//1 4//4
f 5//5 3//3 1//1
f 9//9 7//7 3//3
f 4//4 14//14 18//18
f 1//1 11//11 14//14
f 3//3 13//13 11//11
f 7//7 17//17 13//13
f 14//14 26//26 22//22
f 11//11 29//29 26//26
f 13//13 25//25 29//29
f 17//17 21//21 25//25
f 26//26 36//36 32//32
f 29//29 39//39 36//36
f 25//25 35//35 39//39
f 21//21 31//31 35//35
f 36//36 38//38 34//34
f 39//39 40//40 38//38
f 35//35 37//37 40//40
f 31//31 33//33 37//37
f 48//48 52//52 51//51
f 52//52 56//56 55//55
f 60//60 64//64 63//63
f 64//64 72//72 71//71
f 47//47 46//46 45//45
f 46//46 70//70 69//69
f 70//70 71//71 72//72
f 59//59 55//55 56//56
f 64//64 45//45 69//69
f 56//56 45//45 64//64
f 48//48 45//45 56//56
f 71//71 70//70 46//46
f 59//59 63//63 46//46
f 51//51 55//55 46//46
f 103//103 95//95 96//96
f 95//95 91//91 92//92
f 87//87 83//83 84//84
f 83//83 79//79 80//80
f 104//104 101//101 102//102
f 101//101 77//77 78//78
f 77//77 80//80 79//79
f 88//88 92//92 91//91
f 96//96 77//77 101//101
f 88//88 77//77 96//96
f 80//80 77//77 88//88
f 103//103 102//102 78//78
f 91//91 95//95 78//78
f 83//83 87//87 78//78
f 98//98 93//93 94//94
f 93//93 90//90 89//89
f 86//86 82//82 81//81
f 82//82 74//74 73//73
f 97//97 99//99 100//100
f 99//99 75//75 76//76
f 75//75 73//73 74//74
f 85//85 89//89 90//90
f 82//82 100//100 76//76
f 90//90 100//100 82//82
f 98//98 100//100 90//90
f 73//73 75//75 99//99
f 85//85 81//81 99//99
f 94//94 89//89 99//99
f 41//41 49//49 50//50
f 49//49 53//53 54//54
f 57//57 61//61 62//62
f 61//61 65//65 66//66
f 42//42 44//44 43//43
f 44//44 68//68 67//67
f 68//68 66//66 65//65
f 58//58 54//54 53//53
f 50//50 68//68 44//44
f 58//58 68//68 50//50
f 66//66 68//68 58//58
f 41//41 43//43 67//67
f 53//53 49//49 67//67
f 61//61 57//57 67//67
f 18//18 32//32 8//8
f 10//10 32//32 20//20
f 24//24 32//32 34//34
f 7//7 21//21 17//17
f 19//19 7//7 9//9
f 33//33 19//19 23//23
f 38//38 24//24 34//34
f 40//40 28//28 38//38
f 37//37 30//30 40//40
f 33//33 27//27 37//37
f 28//28 20//20 24//24
f 30//30 16//16 28//28
f 27//27 12//12 30//30
f 23//23 15//15 27//27
f 16//16 10//10 20//20
f 12//12 6//6 16//16
f 15//15 2//2 12//12
f 19//19 5//5 15//15
f 6//6 8//8 10//10
f 2//2 4//4 6//6
f 5//5 1//1 2//2
f 9//9 3//3 5//5
f 4//4 18//18 8//8
f 1//1 14//14 4//4
f 3//3 11//11 1//1
f 7//7 13//13 3//3
f 14//14 22//22 18//18
f 11//11 26//26 14//14
f 13//13 29//29 11//11
f 17//17 25//25 13//13
f 26//26 32//32 22//22
f 29//29 36//36 26//26
f 25//25 39//39 29//29
f 21//21 35//35 25//25
f 36//36 34//34 32//32
f 39//39 38//38 36//36
f 35//35 40//40 39//39
f 31//31 37//37 35//35
f 48//48 51//51 47//47
f 52//52 55//55 51//51
f 60//60 63//63 59//59
f 64//64 71//71 63//63
f 47//47 45//45 48//48
f 46//46 69//69 45//45
f 70//70 72//72 69//69
f 59//59 56//56 60//60
f 64//64 69//69 72//72
f 56//56 64//64 60//60
f 48//48 56//56 52//52
f 71//71 46//46 63//63
f 59//59 46//46 55//55
f 51//51 46//46 47//47
f 103//103 96//96 104//104
f 95//95 92//92 96//96
f 87//87 84//84 88//88
f 83//83 80//80 84//84
f 104//104 102//102 103//103
f 101//101 78//78 102//102
f 77//77 79//79 78//78
f 88//88 91//91 87//87
f 96//96 101//101 104//104
f 88//88 96//96 92//92
f 80//80 88//88 84//84
f 103//103 78//78 95//95
f 91//91 78//78 87//87
f 83//83 78//78 79//79
f 98//98 94//94 97//97
f 93//93 89//89 94//94
f 86//86 81//81 85//85
f 82//82 73//73 81//81
f 97//97 100//100 98//98
f 99//99 76//76 100//100
f 75//75 74//74 76//76
f 85//85 90//90 86//86
f 82//82 76//76 74//74
f 90//90 82//82 86//86
f 98//98 90//90 93//93
f 73//73 99//99 81//81
f 85//85 99//99 89//89
f 94//94 99//99 97//97
f 41//41 50//50 42//42
f 49//49 54//54 50//50
f 57//57 62//62 58//58
f 61//61 66//66 62//62
f 42//42 43//43 41//41
f 44//44 67//67 43//43
f 68//68 65//65 67//67
f 58//58 53//53 57//57
f 50//50 44//44 42//42
f 58//58 50//50 54//54
f 66//66 58//58 62//62
f 41//41 67//67 49//49
f 53//53 67//67 57//57
f 61//61 67//67 65//65
# 188 faces, 0 coords texture

# End of File
