####
#
# OBJ File Generated by Meshlab
#
####
# Object m919.obj
#
# Vertices: 78
# Faces: 124
#
####
vn -1.570283 1.530647 -1.545234
v 0.783544 0.934684 0.057605
vn 1.570796 1.570796 -1.570796
v 0.837815 0.934684 0.057605
vn 1.570796 -1.570796 -1.570796
v 0.837815 0.025000 0.057605
vn -1.570283 -1.610946 -1.596359
v 0.806803 0.025000 0.057605
vn -1.595829 -1.652401 1.595829
v 0.806803 0.025000 0.092493
vn -1.544737 1.491804 1.544737
v 0.783544 0.934684 0.115752
vn 1.545234 1.530647 1.570283
v 0.837815 0.934684 0.115752
vn 1.596359 -1.610946 1.570283
v 0.837815 0.025000 0.092493
vn 1.570909 1.530640 1.544585
v 0.100068 0.934684 0.861339
vn -1.570159 1.570799 1.571436
v 0.045797 0.934684 0.861361
vn -1.570187 -1.570817 1.571440
v 0.045797 0.025000 0.861361
vn 1.570900 -1.610924 1.595720
v 0.076809 0.025000 0.861349
vn 1.595159 -1.652388 -1.596479
v 0.076795 0.025000 0.826460
vn 1.544111 1.491811 -1.545375
v 0.100044 0.934684 0.803192
vn -1.545870 1.530645 -1.569653
v 0.045773 0.934684 0.803214
vn -1.597016 -1.610953 -1.569628
v 0.045783 0.025000 0.826473
vn 1.545557 1.530650 -1.569970
v 0.842980 0.934684 0.807100
vn 1.570472 1.570793 1.571115
v 0.842969 0.934684 0.861371
vn 1.570481 -1.570789 1.571101
v 0.842969 0.025000 0.861371
vn 1.596674 -1.610954 -1.569975
v 0.842975 0.025000 0.830359
vn -1.595508 -1.652427 -1.596189
v 0.808087 0.025000 0.830352
vn -1.544418 1.491802 -1.545051
v 0.784833 0.934684 0.807088
vn -1.570602 1.530652 1.544916
v 0.784822 0.934684 0.861359
vn -1.570604 -1.610920 1.596005
v 0.808080 0.025000 0.861364
vn -1.544909 1.530645 1.570599
v 0.041837 0.934684 0.117084
vn -1.571115 1.570795 -1.570475
v 0.041826 0.934684 0.062813
vn -1.571116 -1.570797 -1.570477
v 0.041826 0.025000 0.062813
vn -1.596040 -1.610946 1.570607
v 0.041833 0.025000 0.093825
vn 1.596154 -1.652402 1.595505
v 0.076721 0.025000 0.093818
vn 1.545056 1.491806 1.544421
v 0.099985 0.934684 0.117072
vn 1.569970 1.530649 -1.545555
v 0.099974 0.934684 0.062801
vn 1.569958 -1.610945 -1.596678
v 0.076715 0.025000 0.062806
vn -1.570796 -1.570796 -1.570796
v 0.109895 0.809258 0.083448
vn 1.570796 -1.570796 -1.570796
v 0.799050 0.809258 0.083448
vn 1.570796 1.570796 -1.570796
v 0.799050 0.938475 0.083448
vn -1.570796 1.570796 -1.570796
v 0.109895 0.938475 0.083448
vn -1.570796 -1.570796 1.570796
v 0.109895 0.809258 0.117906
vn 1.570796 -1.570796 1.570796
v 0.799050 0.809258 0.117906
vn 1.570796 1.570796 1.570796
v 0.799050 0.938475 0.117906
vn -1.570796 1.570796 1.570796
v 0.109895 0.938475 0.117906
vn -1.570796 -1.570796 -1.570796
v 0.058209 0.809258 0.105845
vn 1.570796 -1.570796 -1.570796
v 0.092667 0.809258 0.105845
vn 1.570796 1.570796 -1.570796
v 0.092667 0.938475 0.105845
vn -1.570796 1.570796 -1.570796
v 0.058209 0.938475 0.105845
vn -1.570796 -1.570796 1.570796
v 0.058209 0.809258 0.812229
vn 1.570796 -1.570796 1.570796
v 0.092667 0.809258 0.812229
vn 1.570796 1.570796 1.570796
v 0.092667 0.938475 0.812229
vn -1.570796 1.570796 1.570796
v 0.058209 0.938475 0.812229
vn -1.570796 -1.570796 -1.570796
v 0.097835 0.809258 0.812229
vn 0.000000 -3.141593 -0.000000
v 0.786990 0.809258 0.812229
vn 0.000000 3.141593 0.000000
v 0.786990 0.938475 0.812229
vn -1.570796 1.570796 -1.570796
v 0.097835 0.938475 0.812229
vn -1.570796 -1.570796 1.570796
v 0.097835 0.809258 0.846687
vn 1.570796 -1.570796 1.570796
v 0.786990 0.809258 0.846687
vn 1.570796 1.570796 1.570796
v 0.786990 0.938475 0.846687
vn -1.570796 1.570796 1.570796
v 0.097835 0.938475 0.846687
vn -1.570796 -1.570796 -1.570796
v 0.786990 0.809258 0.105845
vn 1.570796 -1.570796 -1.570796
v 0.821448 0.809258 0.105845
vn 1.570796 1.570796 -1.570796
v 0.821448 0.938475 0.105845
vn -1.570796 1.570796 -1.570796
v 0.786990 0.938475 0.105845
vn 1.570796 -1.570796 1.570796
v 0.821448 0.809258 0.812229
vn 1.570796 1.570796 1.570796
v 0.821448 0.938475 0.812229
vn 1.705866 5.108753 -1.015564
v 0.845139 0.975000 0.043075
vn 2.049013 1.446658 -2.115742
v 0.855817 0.964663 0.025000
vn -2.049874 1.446659 -2.114904
v 0.025000 0.964663 0.025169
vn -1.706253 5.108776 -1.014878
v 0.035686 0.975000 0.043240
vn -2.049017 1.446657 2.115741
v 0.025179 0.964663 0.903720
vn -1.705829 5.108774 1.015586
v 0.035857 0.975000 0.885645
vn 2.049869 1.446662 2.114895
v 0.855996 0.964663 0.903551
vn 1.706216 5.108817 1.014880
v 0.845310 0.975000 0.885480
vn 2.049013 -1.446658 -2.115743
v 0.855817 0.943988 0.025000
vn 1.705864 -5.108754 -1.015565
v 0.845139 0.933651 0.043075
vn -1.706254 -5.108776 -1.014877
v 0.035686 0.933651 0.043240
vn -2.049874 -1.446659 -2.114904
v 0.025000 0.943988 0.025169
vn -1.705829 -5.108774 1.015586
v 0.035857 0.933651 0.885645
vn -2.049017 -1.446657 2.115741
v 0.025179 0.943988 0.903720
vn 1.706214 -5.108818 1.014881
v 0.845310 0.933651 0.885480
vn 2.049869 -1.446662 2.114895
v 0.855996 0.943988 0.903551
# 78 vertices, 0 vertices normals

f 1//1 2//2 3//3
f 5//5 6//6 1//1
f 1//1 6//6 7//7
f 6//6 5//5 8//8
f 7//7 8//8 3//3
f 3//3 8//8 5//5
f 9//9 10//10 11//11
f 13//13 14//14 9//9
f 9//9 14//14 15//15
f 14//14 13//13 16//16
f 15//15 16//16 11//11
f 11//11 16//16 13//13
f 17//17 18//18 19//19
f 21//21 22//22 17//17
f 17//17 22//22 23//23
f 22//22 21//21 24//24
f 23//23 24//24 19//19
f 19//19 24//24 21//21
f 25//25 26//26 27//27
f 29//29 30//30 25//25
f 25//25 30//30 31//31
f 30//30 29//29 32//32
f 31//31 32//32 27//27
f 27//27 32//32 29//29
f 33//33 36//36 34//34
f 34//34 36//36 35//35
f 33//33 38//38 37//37
f 33//33 34//34 38//38
f 33//33 37//37 36//36
f 36//36 37//37 40//40
f 36//36 40//40 39//39
f 36//36 39//39 35//35
f 34//34 39//39 38//38
f 34//34 35//35 39//39
f 38//38 40//40 37//37
f 38//38 39//39 40//40
f 41//41 44//44 42//42
f 42//42 44//44 43//43
f 41//41 46//46 45//45
f 41//41 42//42 46//46
f 41//41 45//45 44//44
f 44//44 45//45 48//48
f 44//44 48//48 47//47
f 44//44 47//47 43//43
f 42//42 47//47 46//46
f 42//42 43//43 47//47
f 46//46 48//48 45//45
f 46//46 47//47 48//48
f 49//49 52//52 50//50
f 50//50 52//52 51//51
f 49//49 54//54 53//53
f 49//49 50//50 54//54
f 49//49 53//53 52//52
f 52//52 53//53 56//56
f 52//52 56//56 55//55
f 52//52 55//55 51//51
f 50//50 55//55 54//54
f 50//50 51//51 55//55
f 54//54 56//56 53//53
f 54//54 55//55 56//56
f 57//57 60//60 58//58
f 58//58 60//60 59//59
f 57//57 61//61 50//50
f 57//57 58//58 61//61
f 57//57 50//50 60//60
f 60//60 50//50 51//51
f 60//60 51//51 62//62
f 60//60 62//62 59//59
f 58//58 62//62 61//61
f 58//58 59//59 62//62
f 61//61 51//51 50//50
f 61//61 62//62 51//51
f 63//63 64//64 65//65
f 66//66 65//65 67//67
f 68//68 67//67 69//69
f 70//70 69//69 64//64
f 71//71 72//72 73//73
f 74//74 73//73 75//75
f 76//76 75//75 77//77
f 78//78 77//77 72//72
f 71//71 74//74 65//65
f 74//74 76//76 67//67
f 76//76 78//78 69//69
f 78//78 71//71 64//64
f 63//63 66//66 68//68
f 77//77 75//75 73//73
f 1//1 3//3 4//4
f 5//5 1//1 4//4
f 1//1 7//7 2//2
f 6//6 8//8 7//7
f 7//7 3//3 2//2
f 3//3 5//5 4//4
f 9//9 11//11 12//12
f 13//13 9//9 12//12
f 9//9 15//15 10//10
f 14//14 16//16 15//15
f 15//15 11//11 10//10
f 11//11 13//13 12//12
f 17//17 19//19 20//20
f 21//21 17//17 20//20
f 17//17 23//23 18//18
f 22//22 24//24 23//23
f 23//23 19//19 18//18
f 19//19 21//21 20//20
f 25//25 27//27 28//28
f 29//29 25//25 28//28
f 25//25 31//31 26//26
f 30//30 32//32 31//31
f 31//31 27//27 26//26
f 27//27 29//29 28//28
f 63//63 65//65 66//66
f 66//66 67//67 68//68
f 68//68 69//69 70//70
f 70//70 64//64 63//63
f 71//71 73//73 74//74
f 74//74 75//75 76//76
f 76//76 77//77 78//78
f 78//78 72//72 71//71
f 71//71 65//65 64//64
f 74//74 67//67 65//65
f 76//76 69//69 67//67
f 78//78 64//64 69//69
f 63//63 68//68 70//70
f 77//77 73//73 72//72
# 124 faces, 0 coords texture

# End of File
