####
#
# OBJ File Generated by Meshlab
#
####
# Object m793.obj
#
# Vertices: 81
# Faces: 98
#
####
vn -0.830285 1.875487 -2.663119
v 0.278202 0.975000 0.035383
vn -0.999879 -0.677659 -2.875426
v 0.276436 0.370455 0.178472
vn -0.839250 -0.265302 -1.130014
v 0.160336 0.370455 0.264855
vn -2.332610 1.887937 -1.355054
v 0.160728 0.975000 0.121767
vn 0.989586 -0.682642 -2.883736
v 0.631705 0.370455 0.179375
vn 0.834580 1.882057 -2.667241
v 0.632097 0.975000 0.036286
vn 2.325963 1.879864 -1.354611
v 0.749277 0.975000 0.121767
vn 0.828766 -0.631337 -2.668536
v 0.749277 0.370455 0.264855
vn 1.834679 1.194575 -1.524813
v 0.749277 0.638182 0.201535
vn -1.707935 0.638207 2.557512
v 0.749277 0.638182 0.295475
vn 0.831588 1.254665 1.367643
v 0.749277 0.975000 0.224029
vn 1.707946 0.638998 2.556738
v 0.160434 0.638182 0.295475
vn -1.843140 1.185571 -1.522115
v 0.160434 0.638182 0.201447
vn -0.831574 1.250700 1.362523
v 0.160434 0.975000 0.224029
vn -0.815190 4.323177 2.712364
v 0.631508 0.975000 0.142376
vn 0.815194 4.323180 2.712360
v 0.278202 0.975000 0.142376
vn 1.734218 1.360508 5.549942
v 0.278202 0.638182 0.213822
vn -1.734208 1.360509 5.549949
v 0.631508 0.638182 0.213822
vn 2.631070 2.496020 1.133620
v 0.160434 0.456818 0.346508
vn -2.631066 2.496017 1.133623
v 0.749277 0.456818 0.346508
vn -0.958015 3.349635 2.893831
v 0.631508 0.456818 0.264855
vn 0.958021 3.349630 2.893828
v 0.278202 0.456818 0.264855
vn -1.570796 1.570796 1.570796
v 0.160434 0.456818 0.673120
vn 1.570796 1.570796 1.570796
v 0.749277 0.456818 0.673120
vn 1.570796 0.000000 1.570796
v 0.749277 0.370455 0.673120
vn -1.570796 0.000000 1.570796
v 0.160434 0.370455 0.673120
vn 1.792225 0.350258 1.531248
v 0.749277 0.370455 0.601674
vn 0.005081 0.000000 0.000000
v 0.749277 0.456818 0.582232
vn -1.792225 0.350258 1.531248
v 0.160434 0.370455 0.601674
vn -0.005081 0.000000 0.000000
v 0.160434 0.456818 0.582232
vn 1.797306 1.921055 1.531248
v 0.160434 0.638182 0.540434
vn -1.797306 1.921055 1.531248
v 0.749277 0.638182 0.540434
vn 1.384708 1.244633 -1.536269
v 0.831715 0.638182 0.203616
vn 1.802829 -0.359444 -1.529114
v 0.831715 0.370455 0.264855
vn 1.345925 0.350258 1.531248
v 0.831715 0.370455 0.601674
vn 1.795668 1.921055 1.531248
v 0.831715 0.638182 0.540434
vn -1.378820 1.235996 -1.534413
v 0.077996 0.638182 0.203616
vn -1.795665 -0.350253 -1.531249
v 0.077996 0.370455 0.264855
vn -1.345925 0.350258 1.531248
v 0.077996 0.370455 0.601674
vn -1.795668 1.921055 1.531248
v 0.077996 0.638182 0.540434
vn -0.007466 -0.352436 -1.530744
v 0.160434 0.370455 0.264855
vn -1.570796 0.000000 -1.570796
v 0.419525 0.128636 0.361818
vn 1.570796 0.000000 -1.570796
v 0.490186 0.128636 0.361818
vn 1.570796 0.000000 -1.570796
v 0.490186 0.392045 0.361818
vn -1.570796 0.000000 -1.570796
v 0.419525 0.392045 0.361818
vn 1.570796 0.000000 1.570796
v 0.490186 0.128636 0.428161
vn 1.570796 0.000000 1.570796
v 0.490186 0.392045 0.428161
vn -1.570796 0.000000 1.570796
v 0.419525 0.128636 0.428161
vn -1.570796 0.000000 1.570796
v 0.419525 0.392045 0.428161
vn -1.969882 1.519254 -1.827678
v 0.025000 0.072500 0.387335
vn -1.969882 1.519254 1.827678
v 0.025000 0.072500 0.407748
vn -0.399086 1.519254 1.313914
v 0.419525 0.176136 0.407748
vn -0.399086 1.519254 -1.313914
v 0.419525 0.176136 0.387335
vn -1.570796 0.000000 -1.313914
v 0.025000 0.025000 0.387335
vn 0.000000 0.000000 -1.827678
v 0.419525 0.128636 0.387335
vn -1.570796 0.000000 1.313914
v 0.025000 0.025000 0.407748
vn 0.000000 0.000000 1.827678
v 0.419525 0.128636 0.407748
vn 1.272298 0.000000 -1.570796
v 0.466632 0.025000 0.025000
vn -1.272298 0.000000 -1.570796
v 0.443078 0.025000 0.025000
vn -1.869294 1.501335 -2.032744
v 0.443078 0.072500 0.025000
vn 1.869294 1.501335 -2.032744
v 0.466632 0.072500 0.025000
vn -1.869294 0.000000 0.000000
v 0.443078 0.128636 0.361818
vn -1.272298 1.501335 -0.461948
v 0.443078 0.176136 0.361818
vn 1.869294 0.000000 0.000000
v 0.466632 0.128636 0.361818
vn 1.272298 1.501335 -0.461948
v 0.466632 0.176136 0.361818
vn 1.570796 0.000000 1.313915
v 0.884711 0.025000 0.407748
vn 1.570796 0.000000 -1.313915
v 0.884711 0.025000 0.387335
vn 1.969882 1.519254 -1.827678
v 0.884711 0.072500 0.387335
vn 1.969882 1.519254 1.827678
v 0.884711 0.072500 0.407748
vn 0.000000 0.000000 -1.827678
v 0.490186 0.128636 0.387335
vn 0.399086 1.519254 -1.313914
v 0.490186 0.176136 0.387335
vn 0.000000 0.000000 1.827678
v 0.490186 0.128636 0.407748
vn 0.399086 1.519254 1.313914
v 0.490186 0.176136 0.407748
vn -1.276499 0.000000 1.570796
v 0.443078 0.025000 0.770083
vn 1.276499 0.000000 1.570796
v 0.466632 0.025000 0.770083
vn 1.865093 1.503262 2.026433
v 0.466632 0.072500 0.770083
vn -1.865093 1.503262 2.026433
v 0.443078 0.072500 0.770083
vn 1.865093 0.000000 0.000000
v 0.466632 0.128636 0.428161
vn 1.276499 1.503262 0.455636
v 0.466632 0.176136 0.428161
vn -1.865093 0.000000 0.000000
v 0.443078 0.128636 0.428161
vn -1.276499 1.503262 0.455636
v 0.443078 0.176136 0.428161
# 81 vertices, 0 vertices normals

f 1//1 2//2 3//3
f 1//1 3//3 4//4
f 1//1 6//6 5//5
f 2//2 1//1 5//5
f 7//7 8//8 5//5
f 7//7 5//5 6//6
f 11//11 10//10 9//9
f 7//7 11//11 9//9
f 4//4 13//13 12//12
f 14//14 4//4 12//12
f 7//7 6//6 15//15
f 11//11 7//7 15//15
f 1//1 16//16 15//15
f 1//1 15//15 6//6
f 1//1 4//4 14//14
f 16//16 1//1 14//14
f 12//12 17//17 16//16
f 14//14 12//12 16//16
f 15//15 18//18 10//10
f 15//15 10//10 11//11
f 19//19 20//20 21//21
f 19//19 21//21 22//22
f 22//22 17//17 12//12
f 19//19 22//22 12//12
f 18//18 21//21 20//20
f 10//10 18//18 20//20
f 18//18 17//17 22//22
f 18//18 22//22 21//21
f 17//17 18//18 15//15
f 17//17 15//15 16//16
f 25//25 24//24 23//23
f 26//26 25//25 23//23
f 24//24 25//25 27//27
f 28//28 24//24 27//27
f 29//29 26//26 23//23
f 29//29 23//23 30//30
f 19//19 12//12 31//31
f 30//30 19//19 31//31
f 32//32 10//10 20//20
f 32//32 20//20 28//28
f 35//35 34//34 33//33
f 36//36 35//35 33//33
f 37//37 38//38 39//39
f 37//37 39//39 40//40
f 9//9 33//33 34//34
f 9//9 34//34 8//8
f 37//37 13//13 41//41
f 37//37 41//41 38//38
f 35//35 36//36 32//32
f 27//27 35//35 32//32
f 29//29 31//31 40//40
f 39//39 29//29 40//40
f 9//9 32//32 36//36
f 9//9 36//36 33//33
f 37//37 40//40 31//31
f 37//37 31//31 13//13
f 24//24 20//20 19//19
f 23//23 24//24 19//19
f 44//44 43//43 42//42
f 45//45 44//44 42//42
f 47//47 46//46 43//43
f 44//44 47//47 43//43
f 49//49 48//48 46//46
f 47//47 49//49 46//46
f 45//45 42//42 48//48
f 49//49 45//45 48//48
f 50//50 51//51 52//52
f 50//50 52//52 53//53
f 53//53 55//55 54//54
f 50//50 53//53 54//54
f 56//56 57//57 52//52
f 56//56 52//52 51//51
f 54//54 56//56 51//51
f 54//54 51//51 50//50
f 58//58 59//59 60//60
f 58//58 60//60 61//61
f 59//59 62//62 63//63
f 59//59 63//63 60//60
f 65//65 64//64 58//58
f 61//61 65//65 58//58
f 61//61 60//60 63//63
f 61//61 63//63 65//65
f 66//66 67//67 68//68
f 66//66 68//68 69//69
f 67//67 70//70 71//71
f 67//67 71//71 68//68
f 73//73 72//72 66//66
f 69//69 73//73 66//66
f 69//69 68//68 71//71
f 69//69 71//71 73//73
f 74//74 75//75 76//76
f 74//74 76//76 77//77
f 75//75 78//78 79//79
f 75//75 79//79 76//76
f 81//81 80//80 74//74
f 77//77 81//81 74//74
f 77//77 76//76 79//79
f 77//77 79//79 81//81
# 98 faces, 0 coords texture

# End of File
