####
#
# OBJ File Generated by Meshlab
#
####
# Object m807.obj
#
# Vertices: 104
# Faces: 184
#
####
vn -1.570796 -1.570796 -1.570796
v 0.048750 0.690000 0.025000
vn 1.570796 -1.570796 -1.570796
v 0.381250 0.690000 0.025000
vn 1.570796 1.570796 -1.570796
v 0.381250 0.975000 0.025000
vn -1.570796 1.570796 -1.570796
v 0.048750 0.975000 0.025000
vn -1.570796 -1.570796 1.570796
v 0.048750 0.690000 0.072500
vn 1.570796 -1.570796 1.570796
v 0.381250 0.690000 0.072500
vn 1.570796 1.570796 1.570796
v 0.381250 0.975000 0.072500
vn -1.570796 1.570796 1.570796
v 0.048750 0.975000 0.072500
vn -1.570796 -1.570796 -1.570796
v 0.048750 0.476250 0.048750
vn 1.570796 -1.570796 -1.570796
v 0.381250 0.476250 0.048750
vn 1.570796 1.570796 -1.570796
v 0.381250 0.523750 0.048750
vn -1.570796 1.570796 -1.570796
v 0.048750 0.523750 0.048750
vn -1.570796 -1.570796 1.570796
v 0.048750 0.476250 0.381250
vn 1.570796 -1.570796 1.570796
v 0.381250 0.476250 0.381250
vn 1.570796 1.570796 1.570796
v 0.381250 0.523750 0.381250
vn -1.570796 1.570796 1.570796
v 0.048750 0.523750 0.381250
vn 2.987835 2.513280 0.000000
v 0.072500 0.975000 0.048750
vn 2.417209 2.513272 1.756199
v 0.067964 0.975000 0.062710
vn 2.987835 -2.513280 0.000000
v 0.072500 0.025000 0.048750
vn 2.417209 -2.513272 1.756199
v 0.067964 0.025000 0.062710
vn 0.000000 -6.283185 0.000000
v 0.048750 0.025000 0.048750
vn 0.000000 6.283185 0.000000
v 0.048750 0.975000 0.048750
vn 0.923291 2.513274 2.841597
v 0.056089 0.975000 0.071338
vn 0.923291 -2.513274 2.841597
v 0.056089 0.025000 0.071338
vn -0.923291 2.513274 2.841597
v 0.041411 0.975000 0.071338
vn -0.923291 -2.513274 2.841597
v 0.041411 0.025000 0.071338
vn -2.417209 2.513272 1.756199
v 0.029536 0.975000 0.062710
vn -2.417209 -2.513272 1.756199
v 0.029536 0.025000 0.062710
vn -2.987835 2.513280 0.000000
v 0.025000 0.975000 0.048750
vn -2.987835 -2.513280 0.000000
v 0.025000 0.025000 0.048750
vn -2.417209 2.513272 -1.756199
v 0.029536 0.975000 0.034790
vn -2.417209 -2.513272 -1.756199
v 0.029536 0.025000 0.034790
vn -0.923291 2.513274 -2.841597
v 0.041411 0.975000 0.026162
vn -0.923291 -2.513274 -2.841597
v 0.041411 0.025000 0.026162
vn 0.923291 2.513274 -2.841597
v 0.056089 0.975000 0.026162
vn 0.923291 -2.513274 -2.841597
v 0.056089 0.025000 0.026162
vn 2.417209 2.513272 -1.756199
v 0.067964 0.975000 0.034790
vn 2.417209 -2.513272 -1.756199
v 0.067964 0.025000 0.034790
vn 2.987823 2.513254 -0.000000
v 0.405000 0.975000 0.048750
vn 2.417203 2.513284 1.756218
v 0.400464 0.975000 0.062710
vn 2.987823 -2.513254 0.000000
v 0.405000 0.025000 0.048750
vn 2.417203 -2.513284 1.756218
v 0.400464 0.025000 0.062710
vn 0.000000 -6.283185 0.000000
v 0.381250 0.025000 0.048750
vn 0.000000 6.283185 0.000000
v 0.381250 0.975000 0.048750
vn 0.923291 2.513274 2.841597
v 0.388589 0.975000 0.071338
vn 0.923291 -2.513274 2.841597
v 0.388589 0.025000 0.071338
vn -0.923291 2.513274 2.841597
v 0.373911 0.975000 0.071338
vn -0.923291 -2.513274 2.841597
v 0.373911 0.025000 0.071338
vn -2.417203 2.513284 1.756218
v 0.362036 0.975000 0.062710
vn -2.417203 -2.513284 1.756218
v 0.362036 0.025000 0.062710
vn -2.987823 2.513254 0.000000
v 0.357500 0.975000 0.048750
vn -2.987823 -2.513254 -0.000000
v 0.357500 0.025000 0.048750
vn -2.417203 2.513284 -1.756218
v 0.362036 0.975000 0.034790
vn -2.417203 -2.513284 -1.756218
v 0.362036 0.025000 0.034790
vn -0.923291 2.513274 -2.841597
v 0.373911 0.975000 0.026162
vn -0.923291 -2.513274 -2.841597
v 0.373911 0.025000 0.026162
vn 0.923291 2.513274 -2.841597
v 0.388589 0.975000 0.026162
vn 0.923291 -2.513274 -2.841597
v 0.388589 0.025000 0.026162
vn 2.417203 2.513284 -1.756218
v 0.400464 0.975000 0.034790
vn 2.417203 -2.513284 -1.756218
v 0.400464 0.025000 0.034790
vn 2.987837 2.513284 -0.000000
v 0.072500 0.500000 0.381250
vn 2.417231 2.513286 1.756180
v 0.067964 0.500000 0.395210
vn 2.987837 -2.513284 -0.000000
v 0.072500 0.025000 0.381250
vn 2.417231 -2.513286 1.756180
v 0.067964 0.025000 0.395210
vn 0.000000 -6.283185 0.000000
v 0.048750 0.025000 0.381250
vn 0.000000 6.283185 0.000000
v 0.048750 0.500000 0.381250
vn 0.923312 2.513257 2.841582
v 0.056089 0.500000 0.403838
vn 0.923312 -2.513257 2.841582
v 0.056089 0.025000 0.403838
vn -0.923312 2.513257 2.841582
v 0.041411 0.500000 0.403838
vn -0.923312 -2.513257 2.841582
v 0.041411 0.025000 0.403838
vn -2.417231 2.513286 1.756180
v 0.029536 0.500000 0.395210
vn -2.417231 -2.513286 1.756180
v 0.029536 0.025000 0.395210
vn -2.987837 2.513284 -0.000000
v 0.025000 0.500000 0.381250
vn -2.987837 -2.513284 -0.000000
v 0.025000 0.025000 0.381250
vn -2.417231 2.513286 -1.756180
v 0.029536 0.500000 0.367290
vn -2.417231 -2.513286 -1.756180
v 0.029536 0.025000 0.367290
vn -0.923312 2.513257 -2.841582
v 0.041411 0.500000 0.358662
vn -0.923312 -2.513257 -2.841582
v 0.041411 0.025000 0.358662
vn 0.923312 2.513257 -2.841582
v 0.056089 0.500000 0.358662
vn 0.923312 -2.513257 -2.841582
v 0.056089 0.025000 0.358662
vn 2.417231 2.513286 -1.756180
v 0.067964 0.500000 0.367290
vn 2.417231 -2.513286 -1.756180
v 0.067964 0.025000 0.367290
vn 2.987825 2.513258 -0.000000
v 0.405000 0.500000 0.381250
vn 2.417225 2.513299 1.756200
v 0.400464 0.500000 0.395210
vn 2.987825 -2.513258 -0.000000
v 0.405000 0.025000 0.381250
vn 2.417225 -2.513299 1.756200
v 0.400464 0.025000 0.395210
vn 0.000000 -6.283185 0.000000
v 0.381250 0.025000 0.381250
vn 0.000000 6.283185 0.000000
v 0.381250 0.500000 0.381250
vn 0.923312 2.513257 2.841582
v 0.388589 0.500000 0.403838
vn 0.923312 -2.513257 2.841582
v 0.388589 0.025000 0.403838
vn -0.923312 2.513257 2.841582
v 0.373911 0.500000 0.403838
vn -0.923312 -2.513257 2.841582
v 0.373911 0.025000 0.403838
vn -2.417225 2.513299 1.756200
v 0.362036 0.500000 0.395210
vn -2.417225 -2.513299 1.756200
v 0.362036 0.025000 0.395210
vn -2.987825 2.513258 -0.000000
v 0.357500 0.500000 0.381250
vn -2.987825 -2.513258 -0.000000
v 0.357500 0.025000 0.381250
vn -2.417225 2.513299 -1.756200
v 0.362036 0.500000 0.367290
vn -2.417225 -2.513299 -1.756200
v 0.362036 0.025000 0.367290
vn -0.923312 2.513257 -2.841582
v 0.373911 0.500000 0.358662
vn -0.923312 -2.513257 -2.841582
v 0.373911 0.025000 0.358662
vn 0.923312 2.513257 -2.841582
v 0.388589 0.500000 0.358662
vn 0.923312 -2.513257 -2.841582
v 0.388589 0.025000 0.358662
vn 2.417225 2.513299 -1.756200
v 0.400464 0.500000 0.367290
vn 2.417225 -2.513299 -1.756200
v 0.400464 0.025000 0.367290
# 104 vertices, 0 vertices normals

f 1//1 4//4 2//2
f 2//2 4//4 3//3
f 1//1 6//6 5//5
f 1//1 2//2 6//6
f 1//1 5//5 4//4
f 4//4 5//5 8//8
f 4//4 8//8 7//7
f 4//4 7//7 3//3
f 2//2 7//7 6//6
f 2//2 3//3 7//7
f 6//6 8//8 5//5
f 6//6 7//7 8//8
f 9//9 12//12 10//10
f 10//10 12//12 11//11
f 9//9 14//14 13//13
f 9//9 10//10 14//14
f 9//9 13//13 12//12
f 12//12 13//13 16//16
f 12//12 16//16 15//15
f 12//12 15//15 11//11
f 10//10 15//15 14//14
f 10//10 11//11 15//15
f 14//14 16//16 13//13
f 14//14 15//15 16//16
f 17//17 18//18 19//19
f 18//18 20//20 19//19
f 21//21 19//19 20//20
f 22//22 18//18 17//17
f 18//18 23//23 20//20
f 23//23 24//24 20//20
f 21//21 20//20 24//24
f 22//22 23//23 18//18
f 23//23 25//25 24//24
f 25//25 26//26 24//24
f 21//21 24//24 26//26
f 22//22 25//25 23//23
f 25//25 27//27 26//26
f 27//27 28//28 26//26
f 21//21 26//26 28//28
f 22//22 27//27 25//25
f 27//27 29//29 28//28
f 29//29 30//30 28//28
f 21//21 28//28 30//30
f 22//22 29//29 27//27
f 29//29 31//31 30//30
f 31//31 32//32 30//30
f 21//21 30//30 32//32
f 22//22 31//31 29//29
f 31//31 33//33 32//32
f 33//33 34//34 32//32
f 21//21 32//32 34//34
f 22//22 33//33 31//31
f 33//33 35//35 34//34
f 35//35 36//36 34//34
f 21//21 34//34 36//36
f 22//22 35//35 33//33
f 35//35 37//37 36//36
f 37//37 38//38 36//36
f 21//21 36//36 38//38
f 22//22 37//37 35//35
f 37//37 17//17 38//38
f 17//17 19//19 38//38
f 21//21 38//38 19//19
f 22//22 17//17 37//37
f 39//39 40//40 41//41
f 40//40 42//42 41//41
f 43//43 41//41 42//42
f 44//44 40//40 39//39
f 40//40 45//45 42//42
f 45//45 46//46 42//42
f 43//43 42//42 46//46
f 44//44 45//45 40//40
f 45//45 47//47 46//46
f 47//47 48//48 46//46
f 43//43 46//46 48//48
f 44//44 47//47 45//45
f 47//47 49//49 48//48
f 49//49 50//50 48//48
f 43//43 48//48 50//50
f 44//44 49//49 47//47
f 49//49 51//51 50//50
f 51//51 52//52 50//50
f 43//43 50//50 52//52
f 44//44 51//51 49//49
f 51//51 53//53 52//52
f 53//53 54//54 52//52
f 43//43 52//52 54//54
f 44//44 53//53 51//51
f 53//53 55//55 54//54
f 55//55 56//56 54//54
f 43//43 54//54 56//56
f 44//44 55//55 53//53
f 55//55 57//57 56//56
f 57//57 58//58 56//56
f 43//43 56//56 58//58
f 44//44 57//57 55//55
f 57//57 59//59 58//58
f 59//59 60//60 58//58
f 43//43 58//58 60//60
f 44//44 59//59 57//57
f 59//59 39//39 60//60
f 39//39 41//41 60//60
f 43//43 60//60 41//41
f 44//44 39//39 59//59
f 61//61 62//62 63//63
f 62//62 64//64 63//63
f 65//65 63//63 64//64
f 66//66 62//62 61//61
f 62//62 67//67 64//64
f 67//67 68//68 64//64
f 65//65 64//64 68//68
f 66//66 67//67 62//62
f 67//67 69//69 68//68
f 69//69 70//70 68//68
f 65//65 68//68 70//70
f 66//66 69//69 67//67
f 69//69 71//71 70//70
f 71//71 72//72 70//70
f 65//65 70//70 72//72
f 66//66 71//71 69//69
f 71//71 73//73 72//72
f 73//73 74//74 72//72
f 65//65 72//72 74//74
f 66//66 73//73 71//71
f 73//73 75//75 74//74
f 75//75 76//76 74//74
f 65//65 74//74 76//76
f 66//66 75//75 73//73
f 75//75 77//77 76//76
f 77//77 78//78 76//76
f 65//65 76//76 78//78
f 66//66 77//77 75//75
f 77//77 79//79 78//78
f 79//79 80//80 78//78
f 65//65 78//78 80//80
f 66//66 79//79 77//77
f 79//79 81//81 80//80
f 81//81 82//82 80//80
f 65//65 80//80 82//82
f 66//66 81//81 79//79
f 81//81 61//61 82//82
f 61//61 63//63 82//82
f 65//65 82//82 63//63
f 66//66 61//61 81//81
f 83//83 84//84 85//85
f 84//84 86//86 85//85
f 87//87 85//85 86//86
f 88//88 84//84 83//83
f 84//84 89//89 86//86
f 89//89 90//90 86//86
f 87//87 86//86 90//90
f 88//88 89//89 84//84
f 89//89 91//91 90//90
f 91//91 92//92 90//90
f 87//87 90//90 92//92
f 88//88 91//91 89//89
f 91//91 93//93 92//92
f 93//93 94//94 92//92
f 87//87 92//92 94//94
f 88//88 93//93 91//91
f 93//93 95//95 94//94
f 95//95 96//96 94//94
f 87//87 94//94 96//96
f 88//88 95//95 93//93
f 95//95 97//97 96//96
f 97//97 98//98 96//96
f 87//87 96//96 98//98
f 88//88 97//97 95//95
f 97//97 99//99 98//98
f 99//99 100//100 98//98
f 87//87 98//98 100//100
f 88//88 99//99 97//97
f 99//99 101//101 100//100
f 101//101 102//102 100//100
f 87//87 100//100 102//102
f 88//88 101//101 99//99
f 101//101 103//103 102//102
f 103//103 104//104 102//102
f 87//87 102//102 104//104
f 88//88 103//103 101//101
f 103//103 83//83 104//104
f 83//83 85//85 104//104
f 87//87 104//104 85//85
f 88//88 83//83 103//103
# 184 faces, 0 coords texture

# End of File
