####
#
# OBJ File Generated by Meshlab
#
####
# Object m818.obj
#
# Vertices: 76
# Faces: 120
#
####
vn 2.051407 -1.570796 0.852369
v 0.707366 0.025000 0.507948
vn -0.852369 -1.570796 2.051407
v 0.663462 0.025000 0.526077
vn -0.852369 1.570796 2.051407
v 0.663462 0.975000 0.526077
vn 2.051407 1.570796 0.852369
v 0.707366 0.975000 0.507948
vn 0.852369 -1.570796 -2.051407
v 0.689237 0.025000 0.464044
vn -2.051407 -1.570796 -0.852369
v 0.645333 0.025000 0.482173
vn -2.051407 1.570796 -0.852369
v 0.645333 0.975000 0.482173
vn 0.852369 1.570796 -2.051407
v 0.689237 0.975000 0.464044
vn 2.051407 -1.570796 0.852369
v 0.268322 0.025000 0.689237
vn -0.852369 -1.570796 2.051407
v 0.224418 0.025000 0.707366
vn -0.852369 1.570796 2.051407
v 0.224418 0.975000 0.707366
vn 2.051407 1.570796 0.852369
v 0.268322 0.975000 0.689237
vn 0.852369 -1.570796 -2.051407
v 0.250193 0.025000 0.645333
vn -2.051407 -1.570796 -0.852369
v 0.206289 0.025000 0.663462
vn -2.051407 1.570796 -0.852369
v 0.206289 0.975000 0.663462
vn 0.852369 1.570796 -2.051407
v 0.250193 0.975000 0.645333
vn 2.051406 -1.570798 0.852375
v 0.526077 0.025000 0.068904
vn -0.852374 -1.570795 2.051403
v 0.482173 0.025000 0.087033
vn 2.051406 1.570798 0.852375
v 0.526077 0.500000 0.068904
vn 0.852374 -1.570795 -2.051403
v 0.507948 0.025000 0.025000
vn -2.051406 -1.570798 -0.852375
v 0.464044 0.025000 0.043129
vn 0.852374 1.570795 -2.051403
v 0.507948 0.500000 0.025000
vn 2.051403 -1.570795 0.852374
v 0.087033 0.025000 0.250193
vn -0.852375 -1.570798 2.051406
v 0.043129 0.025000 0.268322
vn -0.852375 1.570798 2.051406
v 0.043129 0.500000 0.268322
vn 0.852375 -1.570798 -2.051406
v 0.068904 0.025000 0.206289
vn -2.051403 -1.570795 -0.852374
v 0.025000 0.025000 0.224418
vn -2.051403 1.570795 -0.852374
v 0.025000 0.500000 0.224418
vn 2.051398 -1.570791 0.852372
v 0.663462 0.452500 0.526077
vn -0.852377 -1.570802 2.051410
v 0.268322 0.452500 0.689237
vn -0.852377 1.570802 2.051410
v 0.268322 0.500000 0.689237
vn 2.051398 1.570791 0.852372
v 0.663462 0.500000 0.526077
vn 0.852377 -1.570802 -2.051410
v 0.645333 0.452500 0.482173
vn -2.051398 -1.570791 -0.852372
v 0.250193 0.452500 0.645333
vn -2.051398 1.570791 -0.852372
v 0.250193 0.500000 0.645333
vn 0.852377 1.570802 -2.051410
v 0.645333 0.500000 0.482173
vn 2.051400 -1.570793 0.852377
v 0.482173 0.452500 0.087033
vn -0.852379 -1.570800 2.051407
v 0.087033 0.452500 0.250193
vn 1.199024 3.141596 2.903781
v 0.087033 0.500000 0.250193
vn 1.199026 3.141588 2.903780
v 0.482173 0.500000 0.087033
vn 0.852378 -1.570798 -2.051405
v 0.464044 0.452500 0.043129
vn -2.051400 -1.570793 -0.852375
v 0.068904 0.452500 0.206289
vn -1.199025 3.141591 -2.903781
v 0.068904 0.500000 0.206289
vn -1.199027 3.141596 -2.903780
v 0.464044 0.500000 0.043129
vn 0.851967 -1.570798 -2.051576
v 0.526035 0.452500 0.068917
vn 2.051561 -1.570787 0.851970
v 0.689275 0.452500 0.464023
vn 2.051561 1.570787 0.851970
v 0.689275 0.500000 0.464023
vn 0.851967 1.570798 -2.051576
v 0.526035 0.500000 0.068917
vn -2.051570 -1.570792 -0.851961
v 0.482134 0.452500 0.087054
vn -0.851976 -1.570809 2.051584
v 0.645375 0.452500 0.482160
vn -0.851976 1.570809 2.051584
v 0.645375 0.500000 0.482160
vn -2.051570 1.570792 -0.851961
v 0.482134 0.500000 0.087054
vn 0.851957 -1.570794 -2.051575
v 0.087028 0.452500 0.250295
vn 2.051576 -1.570796 0.851960
v 0.250269 0.452500 0.645401
vn 2.051576 1.570796 0.851960
v 0.250269 0.500000 0.645401
vn 0.851957 1.570794 -2.051575
v 0.087028 0.500000 0.250295
vn -2.051580 -1.570799 -0.851959
v 0.043127 0.452500 0.268433
vn -0.851960 -1.570796 2.051576
v 0.206368 0.452500 0.663539
vn -0.851960 1.570796 2.051576
v 0.206368 0.500000 0.663539
vn -2.051580 1.570799 -0.851959
v 0.043127 0.500000 0.268433
vn 2.051412 -1.570811 0.852400
v 0.680881 0.713750 0.506036
vn -0.852364 -1.570820 2.051438
v 0.241838 0.713750 0.687325
vn -0.852364 1.570820 2.051438
v 0.241838 0.951250 0.687325
vn 2.051412 1.570811 0.852400
v 0.680881 0.951250 0.506036
vn 0.852388 -1.570782 -2.051381
v 0.671817 0.713750 0.484084
vn -2.051388 -1.570772 -0.852344
v 0.232773 0.713750 0.665373
vn -2.051388 1.570772 -0.852344
v 0.232773 0.951250 0.665373
vn 0.852388 1.570782 -2.051381
v 0.671817 0.951250 0.484084
vn 2.051402 -1.570796 0.852380
v 0.645333 0.476250 0.482173
vn -0.852381 -1.570796 2.051401
v 0.250193 0.476250 0.645333
vn -0.852381 1.570796 2.051401
v 0.250193 0.523750 0.645333
vn 2.051402 1.570796 0.852380
v 0.645333 0.523750 0.482173
vn 0.852381 -1.570797 -2.051402
v 0.482173 0.476250 0.087033
vn -2.051402 -1.570797 -0.852382
v 0.087033 0.476250 0.250193
vn -2.051402 1.570797 -0.852382
v 0.087033 0.523750 0.250193
vn 0.852381 1.570797 -2.051402
v 0.482173 0.523750 0.087033
# 76 vertices, 0 vertices normals

f 1//1 4//4 2//2
f 2//2 4//4 3//3
f 1//1 6//6 5//5
f 1//1 2//2 6//6
f 1//1 5//5 4//4
f 4//4 5//5 8//8
f 4//4 8//8 7//7
f 4//4 7//7 3//3
f 2//2 7//7 6//6
f 2//2 3//3 7//7
f 6//6 8//8 5//5
f 6//6 7//7 8//8
f 9//9 12//12 10//10
f 10//10 12//12 11//11
f 9//9 14//14 13//13
f 9//9 10//10 14//14
f 9//9 13//13 12//12
f 12//12 13//13 16//16
f 12//12 16//16 15//15
f 12//12 15//15 11//11
f 10//10 15//15 14//14
f 10//10 11//11 15//15
f 14//14 16//16 13//13
f 14//14 15//15 16//16
f 17//17 19//19 18//18
f 18//18 19//19 40//40
f 17//17 21//21 20//20
f 17//17 18//18 21//21
f 17//17 20//20 19//19
f 19//19 20//20 22//22
f 19//19 22//22 44//44
f 19//19 44//44 40//40
f 18//18 44//44 21//21
f 18//18 40//40 44//44
f 21//21 22//22 20//20
f 21//21 44//44 22//22
f 23//23 39//39 24//24
f 24//24 39//39 25//25
f 23//23 27//27 26//26
f 23//23 24//24 27//27
f 23//23 26//26 39//39
f 39//39 26//26 43//43
f 39//39 43//43 28//28
f 39//39 28//28 25//25
f 24//24 28//28 27//27
f 24//24 25//25 28//28
f 27//27 43//43 26//26
f 27//27 28//28 43//43
f 29//29 32//32 30//30
f 30//30 32//32 31//31
f 29//29 34//34 33//33
f 29//29 30//30 34//34
f 29//29 33//33 32//32
f 32//32 33//33 36//36
f 32//32 36//36 35//35
f 32//32 35//35 31//31
f 30//30 35//35 34//34
f 30//30 31//31 35//35
f 34//34 36//36 33//33
f 34//34 35//35 36//36
f 37//37 40//40 38//38
f 38//38 40//40 39//39
f 37//37 42//42 41//41
f 37//37 38//38 42//42
f 37//37 41//41 40//40
f 40//40 41//41 44//44
f 40//40 44//44 43//43
f 40//40 43//43 39//39
f 38//38 43//43 42//42
f 38//38 39//39 43//43
f 42//42 44//44 41//41
f 42//42 43//43 44//44
f 45//45 48//48 46//46
f 46//46 48//48 47//47
f 45//45 50//50 49//49
f 45//45 46//46 50//50
f 45//45 49//49 48//48
f 48//48 49//49 52//52
f 48//48 52//52 51//51
f 48//48 51//51 47//47
f 46//46 51//51 50//50
f 46//46 47//47 51//51
f 50//50 52//52 49//49
f 50//50 51//51 52//52
f 53//53 56//56 54//54
f 54//54 56//56 55//55
f 53//53 58//58 57//57
f 53//53 54//54 58//58
f 53//53 57//57 56//56
f 56//56 57//57 60//60
f 56//56 60//60 59//59
f 56//56 59//59 55//55
f 54//54 59//59 58//58
f 54//54 55//55 59//59
f 58//58 60//60 57//57
f 58//58 59//59 60//60
f 61//61 64//64 62//62
f 62//62 64//64 63//63
f 61//61 66//66 65//65
f 61//61 62//62 66//66
f 61//61 65//65 64//64
f 64//64 65//65 68//68
f 64//64 68//68 67//67
f 64//64 67//67 63//63
f 62//62 67//67 66//66
f 62//62 63//63 67//67
f 66//66 68//68 65//65
f 66//66 67//67 68//68
f 69//69 72//72 70//70
f 70//70 72//72 71//71
f 69//69 74//74 73//73
f 69//69 70//70 74//74
f 69//69 73//73 72//72
f 72//72 73//73 76//76
f 72//72 76//76 75//75
f 72//72 75//75 71//71
f 70//70 75//75 74//74
f 70//70 71//71 75//75
f 74//74 76//76 73//73
f 74//74 75//75 76//76
# 120 faces, 0 coords texture

# End of File
