####
#
# OBJ File Generated by Meshlab
#
####
# Object m74.obj
#
# Vertices: 162
# Faces: 336
#
####
vn -0.150367 6.087838 -1.183747
v 0.181103 0.184324 0.971531
vn -4.932372 1.406259 1.544201
v 0.154661 0.182595 0.909876
vn -0.345447 0.303986 -0.402237
v 0.177634 0.172926 0.940310
vn -2.321519 3.046313 0.277583
v 0.171390 0.179666 0.955450
vn -5.103907 -0.291754 2.784143
v 0.146752 0.180153 0.890031
vn -6.552801 2.762245 2.650401
v 0.178896 0.183739 0.969459
vn -0.901354 5.180051 0.888281
v 0.181599 0.240819 0.868949
vn -0.978455 5.991797 0.409456
v 0.185357 0.240117 0.834342
vn -1.716980 2.220441 1.984746
v 0.179617 0.184324 0.973018
vn -0.740367 4.658133 3.378587
v 0.182342 0.210094 0.922966
vn -2.172592 2.546298 2.842891
v 0.179617 0.190271 0.969549
vn -1.898325 -1.902717 3.558646
v 0.180409 0.184126 0.971234
vn -5.789280 0.712427 1.826823
v 0.134987 0.182441 0.864545
vn -2.889072 -1.140936 1.591661
v 0.169086 0.178396 0.943479
vn -3.073697 -0.767714 3.016244
v 0.177139 0.179369 0.971531
vn -3.738760 -2.742054 2.218161
v 0.173670 0.173918 0.962115
vn -4.855731 3.069925 0.916069
v 0.139476 0.210094 0.852595
vn -5.799599 0.879912 1.331215
v 0.129564 0.174413 0.847144
vn -5.065953 -1.668936 2.639115
v 0.141954 0.168962 0.880347
vn -3.607100 3.803285 2.121419
v 0.159794 0.221987 0.892240
vn -1.679273 -5.324578 2.317102
v 0.175156 0.153104 0.904134
vn -4.887436 2.363374 2.728384
v 0.156821 0.202422 0.905621
vn -2.883856 5.039335 0.655244
v 0.161776 0.235863 0.817906
vn 0.243239 -1.062129 3.447836
v 0.164254 0.182838 0.887285
vn 0.009581 4.373280 1.686304
v 0.158307 0.180855 0.888772
vn 2.659359 -3.410107 -1.823982
v 0.178625 0.188785 0.963602
vn 2.800319 -3.736204 0.322013
v 0.149883 0.184324 0.894718
vn 1.206788 -3.009425 2.034552
v 0.180608 0.177882 0.897196
vn 0.164637 1.095138 1.217010
v 0.185563 0.173918 0.894718
vn 0.191081 -0.017883 2.083290
v 0.183271 0.169024 0.951678
vn -1.056410 -4.931188 -2.193677
v 0.171192 0.175900 0.899674
vn -0.964298 0.271831 -2.514463
v 0.170201 0.177882 0.897692
vn -0.386529 6.013724 -1.259204
v 0.158307 0.181847 0.891249
vn -1.805034 0.559045 1.048944
v 0.175652 0.168962 0.946753
vn -1.623787 -4.235422 1.589356
v 0.178130 0.166980 0.947248
vn -0.296524 -1.848853 -0.255213
v 0.172183 0.169953 0.934364
vn -0.438546 6.026800 -1.549837
v 0.189528 0.175900 0.899178
vn 0.047809 5.924085 -1.938594
v 0.187810 0.184259 0.972720
vn -0.764479 -2.477029 -0.057810
v 0.178130 0.182342 0.966724
vn 2.072768 3.180222 1.785525
v 0.190294 0.184460 0.971306
vn 1.164258 1.688823 1.218713
v 0.210672 0.176230 0.893232
vn -1.514162 5.966822 -0.910336
v 0.215411 0.182223 0.907306
vn -1.159401 3.388948 1.052246
v 0.219757 0.176891 0.891249
vn -1.248060 2.539817 2.154927
v 0.222235 0.178873 0.889763
vn 0.620138 -0.249566 3.419939
v 0.187546 0.185316 0.973513
vn 0.301199 3.266776 1.906980
v 0.187546 0.184820 0.974009
vn 0.679231 3.058724 3.203949
v 0.188537 0.220501 0.917514
vn 0.133427 -1.065707 5.076794
v 0.187546 0.180855 0.975000
vn 0.629200 -4.262159 2.804791
v 0.187050 0.171440 0.967566
vn 2.046329 2.982894 2.110507
v 0.191510 0.184324 0.973018
vn 2.647152 -0.926720 3.853212
v 0.191510 0.180855 0.974009
vn 5.589915 1.483705 1.527251
v 0.235598 0.183422 0.865799
vn 4.389368 -0.769556 2.816918
v 0.223722 0.183333 0.896205
vn 2.662952 1.639064 1.256823
v 0.202413 0.179369 0.955673
vn 5.133606 -1.193858 2.944384
v 0.227191 0.179864 0.888772
vn -1.949228 -4.790292 0.158715
v 0.222731 0.182838 0.895214
vn 1.970439 -0.661796 0.854325
v 0.219757 0.183333 0.902152
vn 5.078017 -1.955180 2.050297
v 0.236607 0.164997 0.860524
vn 4.906104 -1.559631 2.255815
v 0.243545 0.153599 0.836242
vn 4.760179 2.781960 2.107933
v 0.215793 0.200950 0.906116
vn 5.241530 0.633357 2.253096
v 0.227686 0.184324 0.890258
vn 2.744254 2.959039 2.707914
v 0.195475 0.191758 0.964593
vn 5.432178 -1.868637 2.122859
v 0.218271 0.172926 0.905125
vn 0.782244 -1.575737 0.634839
v 0.203899 0.178873 0.951213
vn 3.806260 -3.346801 1.935440
v 0.204890 0.171440 0.944275
vn 2.958177 4.680084 0.989409
v 0.203899 0.237350 0.857551
vn 2.642220 5.077932 0.360975
v 0.206377 0.238837 0.830790
vn -0.110495 -5.475653 -0.257229
v 0.189032 0.194731 0.919001
vn -1.826151 -3.829887 -2.083905
v 0.191015 0.189776 0.964593
vn -0.048341 1.289956 2.359637
v 0.200926 0.181847 0.888276
vn -0.917244 -3.741432 3.676774
v 0.224218 0.181475 0.890010
vn -0.796224 -4.794719 2.552820
v 0.207864 0.188289 0.893232
vn -4.606536 -2.758516 -2.000206
v 0.197457 0.184324 0.959142
vn -1.815721 -5.683991 1.901918
v 0.222731 0.182342 0.891249
vn -3.320328 -4.405057 -0.006109
v 0.222235 0.183829 0.894718
vn 2.210022 -2.493987 2.195322
v 0.196961 0.182342 0.964098
vn 1.175173 -4.596960 0.048370
v 0.199935 0.175900 0.899674
vn -0.509378 -4.419379 -0.430142
v 0.200926 0.177882 0.897196
vn 2.061905 3.690012 2.110649
v 0.213811 0.180360 0.891745
vn 0.469715 -0.102754 0.031938
v 0.193988 0.166980 0.946257
vn -1.073740 0.938253 1.239589
v 0.165514 0.179245 0.933579
vn 1.612063 1.284827 1.428317
v 0.209351 0.182838 0.899178
vn 0.000000 0.000000 0.000000
v 0.160950 0.180855 0.923975
vn 0.000000 0.000000 0.000000
v 0.165245 0.178873 0.929904
vn -2.701932 -4.301520 -1.465467
v 0.192377 0.183457 0.966575
vn 0.200034 -5.003880 0.541270
v 0.187050 0.183829 0.971531
vn -2.040692 -0.477677 -1.270131
v 0.258907 0.117919 0.742580
vn -3.878449 -2.253420 -3.293317
v 0.257420 0.114450 0.743571
vn 3.423606 -2.506597 2.460472
v 0.244040 0.129812 0.821375
vn 0.000000 0.000000 0.000000
v 0.354455 0.036866 0.695996
vn -0.000000 0.000000 0.000000
v 0.352969 0.036866 0.678652
vn -2.747716 -4.995031 1.950137
v 0.259403 0.110485 0.740597
vn -1.096323 -1.143798 -0.825637
v 0.259403 0.108998 0.738119
vn 0.227545 -0.258498 -0.705387
v 0.272287 0.106025 0.733659
vn -4.249725 1.382448 -2.700228
v 0.258412 0.116927 0.741588
vn 0.051041 -0.029434 0.006599
v 0.321844 0.081195 0.767853
vn -0.443949 -5.506603 1.184745
v 0.116184 0.112467 0.757942
vn -4.806763 -0.599817 -1.651653
v 0.111559 0.117010 0.744314
vn -5.387644 2.345504 1.321177
v 0.115689 0.141210 0.799074
vn -2.989326 -3.326134 2.701957
v 0.126591 0.129812 0.821870
vn -0.857485 -0.725044 0.131481
v 0.025000 0.030699 0.702439
vn -0.021372 -0.140496 -0.150094
v 0.030080 0.025000 0.691412
vn 0.323240 -0.165423 -0.303284
v 0.036646 0.030740 0.694468
vn -2.586393 0.493303 0.304421
v 0.025000 0.050026 0.717801
vn -0.849110 3.016094 -4.568832
v 0.042840 0.049530 0.703430
vn -0.711066 1.529708 -1.244967
v 0.113706 0.112963 0.738863
vn -0.580686 -0.172931 0.295273
v 0.070097 0.106521 0.793127
vn 0.493452 0.219309 -0.432021
v 0.059690 0.068858 0.715819
vn -5.696660 1.267517 -0.239359
v 0.110733 0.162520 0.720279
vn -3.209783 -3.615265 0.060807
v 0.131051 0.074804 0.676174
vn 0.461127 -5.501414 0.900156
v 0.191510 0.066380 0.702934
vn 2.218686 4.965200 0.109993
v 0.192006 0.246766 0.636033
vn 1.266954 -5.297344 0.681608
v 0.255934 0.112963 0.747040
vn 3.932131 -3.241191 -2.938305
v 0.256925 0.114945 0.743075
vn 5.052977 0.865622 -1.210060
v 0.258412 0.119405 0.742084
vn 5.338379 -0.313397 -0.478169
v 0.263367 0.133777 0.662793
vn 5.258616 2.114065 0.329786
v 0.254447 0.189280 0.773800
vn 3.404160 -4.501676 0.671299
v 0.239085 0.088680 0.721766
vn 1.218857 -5.238202 2.562699
v 0.208359 0.115441 0.823357
vn -0.253533 5.970526 0.723162
v 0.188537 0.146166 0.080008
vn 1.302373 1.250057 -1.932941
v 0.190519 0.145423 0.068610
vn 0.522060 0.354902 -1.216262
v 0.183209 0.146909 0.061176
vn -1.961436 -1.473639 -0.671881
v 0.170201 0.115441 0.121635
vn 0.037386 0.213064 -0.569076
v 0.124237 0.147776 0.042469
vn 1.557630 1.858025 -1.154356
v 0.116184 0.151617 0.035407
vn 0.672430 0.460837 -1.343857
v 0.131547 0.146166 0.046805
vn 1.137474 -3.610992 -3.434513
v 0.115689 0.150626 0.035407
vn 0.521373 0.702516 -1.097415
v 0.101317 0.156325 0.026982
vn -0.546048 -5.178807 -2.598254
v 0.125104 0.141706 0.051265
vn 0.163793 0.313338 -0.851119
v 0.154838 0.147653 0.052256
vn -0.085164 0.028315 -0.069499
v 0.094379 0.157068 0.025000
vn -0.528070 0.050636 0.054655
v 0.104291 0.144184 0.064150
vn 2.937533 -1.357971 -0.670710
v 0.211828 0.116927 0.142449
vn -0.062643 -5.620712 -2.649576
v 0.192006 0.132786 0.084963
vn -0.301050 0.324680 -0.600412
v 0.196961 0.147157 0.062002
vn 0.066432 0.015750 -0.051693
v 0.249987 0.147653 0.048292
vn 0.000000 0.000000 0.000000
v 0.287650 0.157068 0.027973
vn 0.149943 3.742807 -0.490770
v 0.190948 0.148148 0.144927
vn 0.087998 4.223850 -1.263861
v 0.185068 0.177882 0.293101
vn 0.032428 -3.594007 -0.254366
v 0.190519 0.091199 0.274270
vn 5.460904 0.257528 -0.323171
v 0.211828 0.128821 0.241562
vn 5.000076 3.303998 -1.099487
v 0.209846 0.206129 0.447718
vn -0.364629 0.716807 -1.622309
v 0.184077 0.319118 0.431860
vn -2.314657 4.573819 -2.511474
v 0.180112 0.222483 0.453169
vn -1.448966 5.435773 1.169938
v 0.181599 0.252217 0.572105
vn -2.490068 2.763522 -0.300645
v 0.182590 0.321596 0.438798
vn -6.040478 0.327029 -0.826648
v 0.177634 0.259155 0.477452
vn -5.589357 2.030110 -1.626809
v 0.174661 0.237846 0.484390
vn -5.143440 3.434742 0.448072
v 0.171192 0.248252 0.552282
vn -5.439478 1.165430 -0.873140
v 0.130812 0.181847 0.505699
vn 0.234972 3.027171 -3.588494
v 0.186059 0.233386 0.461594
vn -0.401771 -1.186174 -2.770299
v 0.185068 0.307720 0.434337
vn 0.076630 0.742918 0.260986
v 0.186059 0.310198 0.478443
vn 0.242064 -0.124043 -1.931972
v 0.185068 0.254199 0.460602
vn 2.482298 2.943660 -0.296993
v 0.187050 0.321596 0.438798
vn 2.940854 4.784919 -2.658547
v 0.196961 0.220996 0.457629
vn 4.677087 -0.081930 -2.463670
v 0.187546 0.314163 0.434833
vn 5.406026 2.884865 -1.149509
v 0.194484 0.237846 0.484390
vn 5.034704 3.360232 0.693606
v 0.195970 0.251226 0.549309
vn 1.030434 -5.931166 -0.345788
v 0.191075 0.077266 0.514920
vn -3.364108 -3.881962 -0.656131
v 0.154921 0.081385 0.514856
vn 3.965434 -4.583374 -0.456163
v 0.216534 0.089850 0.513977
# 162 vertices, 0 vertices normals

f 69//69 26//26 68//68
f 43//43 44//44 41//41
f 66//66 67//67 8//8
f 70//70 71//71 72//72
f 7//7 8//8 17//17
f 81//81 84//84 83//83
f 81//81 83//83 84//84
f 29//29 2//2 37//37
f 38//38 39//39 4//4
f 39//39 3//3 4//4
f 3//3 2//2 4//4
f 37//37 2//2 3//3
f 1//1 4//4 6//6
f 4//4 1//1 38//38
f 45//45 11//11 12//12
f 48//48 9//9 15//15
f 6//6 9//9 1//1
f 18//18 100//100 19//19
f 19//19 2//2 5//5
f 2//2 13//13 5//5
f 11//11 22//22 6//6
f 11//11 10//10 22//22
f 2//2 14//14 22//22
f 12//12 11//11 6//6
f 9//9 6//6 15//15
f 6//6 4//4 15//15
f 14//14 6//6 22//22
f 7//7 17//17 20//20
f 22//22 20//20 17//17
f 20//20 22//22 10//10
f 19//19 21//21 16//16
f 49//49 16//16 21//21
f 23//23 17//17 8//8
f 13//13 19//19 5//5
f 22//22 13//13 2//2
f 4//4 16//16 15//15
f 2//2 16//16 4//4
f 16//16 2//2 19//19
f 13//13 18//18 19//19
f 17//17 13//13 22//22
f 109//109 18//18 13//13
f 69//69 86//86 26//26
f 25//25 70//70 24//24
f 25//25 24//24 5//5
f 68//68 26//26 14//14
f 26//26 86//86 39//39
f 26//26 39//39 14//14
f 68//68 2//2 27//27
f 27//27 24//24 68//68
f 24//24 27//27 5//5
f 2//2 68//68 14//14
f 5//5 27//27 2//2
f 6//6 14//14 39//39
f 12//12 6//6 39//39
f 39//39 86//86 12//12
f 31//31 28//28 36//36
f 28//28 31//31 32//32
f 28//28 32//32 2//2
f 2//2 29//29 28//28
f 2//2 33//33 5//5
f 33//33 70//70 25//25
f 5//5 33//33 25//25
f 34//34 36//36 35//35
f 30//30 36//36 34//34
f 33//33 2//2 70//70
f 80//80 30//30 35//35
f 30//30 34//34 35//35
f 80//80 35//35 36//36
f 36//36 2//2 31//31
f 2//2 32//32 31//31
f 37//37 3//3 14//14
f 41//41 29//29 37//37
f 39//39 14//14 3//3
f 39//39 38//38 14//14
f 54//54 14//14 38//38
f 14//14 54//54 42//42
f 57//57 42//42 54//54
f 42//42 57//57 53//53
f 42//42 44//44 43//43
f 42//42 43//43 41//41
f 42//42 53//53 44//44
f 44//44 53//53 55//55
f 14//14 42//42 37//37
f 41//41 37//37 42//42
f 40//40 54//54 38//38
f 15//15 16//16 49//49
f 48//48 15//15 49//49
f 20//20 47//47 7//7
f 20//20 10//10 47//47
f 48//48 46//46 9//9
f 86//86 45//45 12//12
f 1//1 9//9 46//46
f 46//46 38//38 1//1
f 38//38 46//46 50//50
f 50//50 40//40 38//38
f 46//46 48//48 50//50
f 48//48 51//51 50//50
f 45//45 62//62 11//11
f 8//8 7//7 66//66
f 45//45 86//86 40//40
f 49//49 51//51 48//48
f 40//40 50//50 54//54
f 53//53 56//56 71//71
f 57//57 56//56 53//53
f 71//71 55//55 53//53
f 58//58 55//55 63//63
f 60//60 57//57 53//53
f 55//55 53//53 63//63
f 57//57 63//63 53//53
f 52//52 117//117 66//66
f 61//61 60//60 53//53
f 40//40 76//76 62//62
f 62//62 10//10 11//11
f 57//57 60//60 64//64
f 64//64 60//60 62//62
f 51//51 54//54 50//50
f 57//57 54//54 63//63
f 64//64 62//62 76//76
f 66//66 60//60 61//61
f 66//66 47//47 60//60
f 65//65 119//119 63//63
f 59//59 58//58 119//119
f 119//119 65//65 21//21
f 49//49 21//21 65//65
f 40//40 62//62 45//45
f 117//117 58//58 59//59
f 10//10 60//60 47//47
f 66//66 7//7 47//47
f 67//67 66//66 117//117
f 117//117 112//112 67//67
f 58//58 63//63 119//119
f 58//58 52//52 61//61
f 61//61 55//55 58//58
f 61//61 52//52 66//66
f 51//51 49//49 65//65
f 54//54 51//51 65//65
f 65//65 63//63 54//54
f 52//52 58//58 117//117
f 61//61 53//53 55//55
f 62//62 60//60 10//10
f 67//67 112//112 8//8
f 72//72 24//24 70//70
f 68//68 24//24 72//72
f 44//44 71//71 70//70
f 44//44 55//55 71//71
f 57//57 64//64 68//68
f 69//69 73//73 85//85
f 85//85 86//86 69//69
f 64//64 85//85 73//73
f 68//68 72//72 75//75
f 74//74 71//71 75//75
f 72//72 74//74 75//75
f 74//74 72//72 71//71
f 64//64 73//73 68//68
f 73//73 69//69 68//68
f 71//71 56//56 75//75
f 57//57 75//75 56//56
f 76//76 85//85 64//64
f 40//40 85//85 76//76
f 75//75 57//57 68//68
f 40//40 86//86 85//85
f 2//2 82//82 70//70
f 77//77 81//81 36//36
f 36//36 28//28 77//77
f 80//80 36//36 81//81
f 78//78 77//77 28//28
f 29//29 41//41 78//78
f 78//78 28//28 29//29
f 79//79 41//41 44//44
f 79//79 82//82 41//41
f 44//44 70//70 79//79
f 14//14 36//36 30//30
f 14//14 81//81 36//36
f 82//82 79//79 70//70
f 2//2 36//36 81//81
f 2//2 81//81 82//82
f 14//14 30//30 80//80
f 14//14 80//80 81//81
f 77//77 82//82 81//81
f 77//77 78//78 41//41
f 77//77 41//41 82//82
f 94//94 92//92 93//93
f 113//113 88//88 92//92
f 96//96 91//91 90//90
f 89//89 113//113 94//94
f 113//113 92//92 94//94
f 93//93 95//95 94//94
f 95//95 93//93 88//88
f 87//87 95//95 88//88
f 115//115 94//94 95//95
f 95//95 87//87 115//115
f 115//115 96//96 94//94
f 92//92 88//88 93//93
f 115//115 89//89 96//96
f 94//94 91//91 96//96
f 89//89 94//94 96//96
f 96//96 91//91 94//94
f 91//91 96//96 90//90
f 104//104 102//102 101//101
f 104//104 105//105 103//103
f 105//105 108//108 103//103
f 103//103 102//102 104//104
f 108//108 98//98 97//97
f 106//106 98//98 108//108
f 108//108 98//98 106//106
f 99//99 98//98 108//108
f 99//99 107//107 100//100
f 107//107 101//101 108//108
f 108//108 101//101 103//103
f 107//107 104//104 101//101
f 108//108 97//97 107//107
f 97//97 100//100 107//107
f 100//100 97//97 110//110
f 102//102 103//103 101//101
f 107//107 99//99 108//108
f 104//104 107//107 108//108
f 108//108 105//105 104//104
f 97//97 98//98 110//110
f 106//106 110//110 98//98
f 99//99 109//109 98//98
f 98//98 109//109 106//106
f 149//149 23//23 112//112
f 112//112 23//23 8//8
f 21//21 100//100 110//110
f 19//19 100//100 21//21
f 100//100 18//18 99//99
f 109//109 99//99 18//18
f 149//149 109//109 17//17
f 21//21 110//110 111//111
f 17//17 109//109 13//13
f 23//23 149//149 17//17
f 115//115 114//114 118//118
f 118//118 114//114 113//113
f 116//116 115//115 118//118
f 114//114 115//115 87//87
f 87//87 88//88 114//114
f 118//118 89//89 111//111
f 113//113 89//89 118//118
f 113//113 114//114 88//88
f 117//117 115//115 116//116
f 112//112 117//117 116//116
f 119//119 21//21 111//111
f 115//115 117//117 89//89
f 111//111 89//89 119//119
f 119//119 89//89 59//59
f 117//117 59//59 89//89
f 128//128 127//127 131//131
f 120//120 121//121 122//122
f 122//122 121//121 134//134
f 128//128 132//132 124//124
f 127//127 125//125 124//124
f 126//126 129//129 124//124
f 125//125 127//127 128//128
f 124//124 125//125 128//128
f 123//123 130//130 122//122
f 126//126 130//130 123//123
f 123//123 129//129 126//126
f 124//124 129//129 132//132
f 132//132 127//127 124//124
f 132//132 126//126 124//124
f 120//120 122//122 130//130
f 130//130 126//126 120//120
f 122//122 134//134 123//123
f 132//132 131//131 127//127
f 128//128 131//131 132//132
f 132//132 120//120 126//126
f 120//120 132//132 123//123
f 129//129 123//123 132//132
f 138//138 121//121 120//120
f 134//134 133//133 123//123
f 133//133 140//140 123//123
f 138//138 133//133 121//121
f 134//134 121//121 135//135
f 121//121 133//133 136//136
f 136//136 137//137 133//133
f 134//134 135//135 136//136
f 136//136 133//133 137//137
f 135//135 121//121 136//136
f 136//136 133//133 134//134
f 138//138 120//120 123//123
f 133//133 141//141 140//140
f 139//139 138//138 123//123
f 141//141 116//116 140//140
f 138//138 139//139 141//141
f 141//141 133//133 138//138
f 140//140 150//150 123//123
f 139//139 123//123 150//150
f 142//142 141//141 139//139
f 116//116 141//141 142//142
f 143//143 147//147 146//146
f 147//147 143//143 152//152
f 153//153 146//146 147//147
f 147//147 152//152 154//154
f 148//148 154//154 151//151
f 149//149 112//112 145//145
f 149//149 153//153 148//148
f 145//145 153//153 149//149
f 149//149 148//148 150//150
f 144//144 150//150 148//148
f 148//148 153//153 147//147
f 154//154 148//148 147//147
f 144//144 139//139 150//150
f 151//151 144//144 148//148
f 140//140 161//161 150//150
f 110//110 109//109 150//150
f 110//110 106//106 109//109
f 150//150 109//109 149//149
f 139//139 144//144 156//156
f 156//156 144//144 151//151
f 143//143 146//146 155//155
f 145//145 159//159 153//153
f 153//153 155//155 146//146
f 145//145 112//112 159//159
f 160//160 118//118 111//111
f 155//155 157//157 143//143
f 155//155 153//153 157//157
f 152//152 143//143 157//157
f 154//154 152//152 157//157
f 157//157 153//153 154//154
f 151//151 154//154 158//158
f 158//158 156//156 151//151
f 160//160 111//111 110//110
f 112//112 116//116 159//159
f 159//159 142//142 158//158
f 159//159 116//116 142//142
f 139//139 156//156 142//142
f 154//154 153//153 159//159
f 159//159 158//158 154//154
f 156//156 158//158 142//142
f 162//162 116//116 118//118
f 140//140 160//160 161//161
f 162//162 118//118 160//160
f 161//161 160//160 110//110
f 161//161 110//110 150//150
f 140//140 162//162 160//160
f 140//140 116//116 162//162
# 336 faces, 0 coords texture

# End of File
