####
#
# OBJ File Generated by Meshlab
#
####
# Object m1584.obj
#
# Vertices: 174
# Faces: 316
#
####
vn -0.000012 -3.081216 2.748854
v 0.733475 0.153814 0.334617
vn 0.000012 -3.081220 -2.748870
v 0.266525 0.153814 0.076990
vn -0.000012 -3.081216 -2.748854
v 0.733475 0.153814 0.076990
vn 0.000012 -3.081220 2.748870
v 0.266525 0.153814 0.334617
vn 1.179177 -2.846667 -2.748896
v 0.241878 0.148911 0.366821
vn -1.179189 -2.846664 -2.748904
v 0.758121 0.148911 0.366821
vn -1.179189 -2.846664 2.748904
v 0.758121 0.148911 0.044787
vn 1.179177 -2.846667 2.748896
v 0.241878 0.148911 0.044787
vn 2.178661 2.178925 -2.749060
v 0.687934 0.043864 0.076990
vn 2.178661 2.178925 2.749060
v 0.687934 0.043864 0.334617
vn -2.178748 2.178772 -2.748905
v 0.312068 0.043864 0.076990
vn -2.178748 2.178772 2.748905
v 0.312068 0.043864 0.334617
vn 2.846682 1.179109 -2.748856
v 0.207021 0.064759 0.076990
vn -2.846619 1.179118 2.748679
v 0.792981 0.064759 0.334617
vn -2.846619 1.179118 -2.748679
v 0.792981 0.064759 0.076990
vn 2.846682 1.179109 2.748856
v 0.207021 0.064759 0.334617
vn 0.000012 -3.081220 -2.748870
v 0.266525 0.153814 0.366821
vn -0.000012 -3.081216 -2.748854
v 0.733475 0.153814 0.366821
vn -0.000012 -3.081216 2.748854
v 0.733475 0.153814 0.044787
vn 0.000012 -3.081220 2.748870
v 0.266525 0.153814 0.044787
vn -1.179165 -2.846669 2.748888
v 0.291173 0.148911 0.334617
vn 1.179206 -2.846647 -2.748874
v 0.708828 0.148911 0.076990
vn 1.179206 -2.846647 2.748874
v 0.708828 0.148911 0.334617
vn -1.179165 -2.846669 -2.748888
v 0.291173 0.148911 0.076990
vn -2.846682 1.179109 2.748856
v 0.326030 0.064759 0.044787
vn 2.846590 1.179162 -2.748646
v 0.673968 0.064759 0.366821
vn 2.846590 1.179162 2.748646
v 0.673968 0.064759 0.044787
vn -2.846682 1.179109 -2.748856
v 0.326030 0.064759 0.366821
vn -2.178763 -2.178763 2.748921
v 0.312068 0.134949 0.334617
vn -2.178763 -2.178763 -2.748921
v 0.312068 0.134949 0.076990
vn 2.178676 -2.178916 -2.749075
v 0.687934 0.134949 0.076990
vn 2.178676 -2.178916 2.749075
v 0.687934 0.134949 0.334617
vn -2.178661 2.178901 2.749004
v 0.779016 0.043864 0.044787
vn -2.178661 2.178901 -2.749004
v 0.779016 0.043864 0.366821
vn 2.178748 2.178772 2.748905
v 0.220983 0.043864 0.044787
vn 2.178748 2.178772 -2.748905
v 0.220983 0.043864 0.366821
vn -2.178676 -2.178893 2.749020
v 0.779016 0.134949 0.044787
vn -2.178676 -2.178893 -2.749020
v 0.779016 0.134949 0.366821
vn 2.178763 -2.178763 2.748921
v 0.220983 0.134949 0.044787
vn 2.178763 -2.178763 -2.748921
v 0.220983 0.134949 0.366821
vn -3.081243 -0.000002 -2.748945
v 0.330932 0.089407 0.076990
vn 3.081291 -0.000002 2.749101
v 0.669068 0.089407 0.334617
vn -3.081243 -0.000002 2.748945
v 0.330932 0.089407 0.334617
vn 3.081291 -0.000002 -2.749101
v 0.669068 0.089407 0.076990
vn -2.846679 -1.179114 2.748855
v 0.326030 0.114054 0.334617
vn 2.846588 -1.179167 -2.748645
v 0.673968 0.114054 0.076990
vn 2.846588 -1.179167 2.748645
v 0.673968 0.114054 0.334617
vn -2.846679 -1.179114 -2.748855
v 0.326030 0.114054 0.076990
vn -1.570796 1.570796 -1.570796
v 0.975000 0.186017 0.221905
vn -1.570796 1.570796 -1.570796
v 0.137712 0.186017 0.221905
vn 1.570796 -1.570796 -1.570796
v 0.862288 0.218220 0.221905
vn 1.570796 -1.570796 -1.570796
v 0.025000 0.218220 0.221905
vn 2.178676 -2.178916 2.749075
v 0.687934 0.134949 0.044787
vn -2.846682 1.179109 -2.748856
v 0.326030 0.064759 0.076990
vn 0.000012 3.081228 -2.748893
v 0.266525 0.025000 0.076990
vn -2.178763 -2.178763 -2.748921
v 0.312068 0.134949 0.366821
vn -1.179130 2.846684 2.748890
v 0.291173 0.029903 0.044787
vn 2.846679 -1.179114 2.748855
v 0.207021 0.114054 0.334617
vn 2.846679 -1.179114 -2.748855
v 0.207021 0.114054 0.076990
vn -2.178763 -2.178763 2.748921
v 0.312068 0.134949 0.044787
vn -2.846682 1.179109 2.748856
v 0.326030 0.064759 0.334617
vn 0.000012 3.081228 2.748893
v 0.266525 0.025000 0.334617
vn -1.179130 2.846684 -2.748890
v 0.291173 0.029903 0.366821
vn -1.570796 1.570796 1.570796
v 0.975000 0.186017 0.189702
vn 2.178676 -2.178916 -2.749075
v 0.687934 0.134949 0.366821
vn 1.570796 1.570796 1.570796
v 0.025000 0.186017 0.189702
vn -2.846616 -1.179124 -2.748678
v 0.792981 0.114054 0.076990
vn 2.846590 1.179162 -2.748646
v 0.673968 0.064759 0.076990
vn -1.570796 -1.570796 -1.570796
v 0.137712 0.218220 0.221905
vn 1.179170 2.846663 -2.748875
v 0.708828 0.029903 0.366821
vn -2.846616 -1.179124 2.748678
v 0.792981 0.114054 0.334617
vn -1.570796 1.570796 1.570796
v 0.137712 0.186017 0.189702
vn 2.846590 1.179162 2.748646
v 0.673968 0.064759 0.334617
vn -1.570796 -1.570796 -1.570796
v 0.975000 0.218220 0.221905
vn 1.570796 -1.570796 1.570796
v 0.862288 0.218220 0.189702
vn 1.570796 1.570796 1.570796
v 0.862288 0.186017 0.189702
vn 1.570796 -1.570796 1.570796
v 0.025000 0.218220 0.189702
vn 1.179170 2.846663 2.748875
v 0.708828 0.029903 0.044787
vn -0.000012 3.081223 2.748877
v 0.733475 0.025000 0.334617
vn -0.000012 3.081223 -2.748877
v 0.733475 0.025000 0.076990
vn -0.000012 3.081223 2.748877
v 0.733475 0.025000 0.044787
vn 1.179142 2.846682 -2.748897
v 0.241878 0.029903 0.076990
vn 0.000012 3.081228 2.748893
v 0.266525 0.025000 0.044787
vn -2.846679 -1.179114 2.748855
v 0.326030 0.114054 0.044787
vn 2.846588 -1.179167 2.748645
v 0.673968 0.114054 0.044787
vn 2.178763 -2.178763 -2.748921
v 0.220983 0.134949 0.076990
vn -0.000012 3.081223 -2.748877
v 0.733475 0.025000 0.366821
vn -2.178676 -2.178893 2.749020
v 0.779016 0.134949 0.334617
vn -1.179154 2.846679 2.748905
v 0.758121 0.029903 0.334617
vn 0.000012 3.081228 -2.748893
v 0.266525 0.025000 0.366821
vn -2.178676 -2.178893 -2.749020
v 0.779016 0.134949 0.076990
vn 2.846588 -1.179167 -2.748645
v 0.673968 0.114054 0.366821
vn 1.179142 2.846682 2.748897
v 0.241878 0.029903 0.334617
vn -1.179154 2.846679 -2.748905
v 0.758121 0.029903 0.076990
vn -2.846679 -1.179114 -2.748855
v 0.326030 0.114054 0.366821
vn 2.178763 -2.178763 2.748921
v 0.220983 0.134949 0.334617
vn 1.570796 1.570796 -1.570796
v 0.025000 0.186017 0.221905
vn 1.570796 1.570796 -1.570796
v 0.862288 0.186017 0.221905
vn 2.846682 1.179109 -2.748856
v 0.207021 0.064759 0.366821
vn -2.846619 1.179118 -2.748679
v 0.792981 0.064759 0.366821
vn -2.846619 1.179118 2.748679
v 0.792981 0.064759 0.044787
vn 2.846682 1.179109 2.748856
v 0.207021 0.064759 0.044787
vn -1.179154 2.846679 2.748905
v 0.758121 0.029903 0.044787
vn -1.179154 2.846679 -2.748905
v 0.758121 0.029903 0.366821
vn 1.179142 2.846682 2.748897
v 0.241878 0.029903 0.044787
vn 1.179142 2.846682 -2.748897
v 0.241878 0.029903 0.366821
vn -2.178748 2.178772 2.748905
v 0.312068 0.043864 0.044787
vn -2.178748 2.178772 -2.748905
v 0.312068 0.043864 0.366821
vn 2.178661 2.178925 2.749060
v 0.687934 0.043864 0.044787
vn 2.178661 2.178925 -2.749060
v 0.687934 0.043864 0.366821
vn 3.081291 -0.000002 2.749101
v 0.669068 0.089407 0.044787
vn 3.081291 -0.000002 -2.749101
v 0.669068 0.089407 0.366821
vn -3.081243 -0.000002 -2.748945
v 0.330932 0.089407 0.366821
vn -3.081243 -0.000002 2.748945
v 0.330932 0.089407 0.044787
vn -1.179165 -2.846669 2.748888
v 0.291173 0.148911 0.044787
vn 1.179206 -2.846647 -2.748874
v 0.708828 0.148911 0.366821
vn 1.179206 -2.846647 2.748874
v 0.708828 0.148911 0.044787
vn -1.179165 -2.846669 -2.748888
v 0.291173 0.148911 0.366821
vn -1.179189 -2.846664 2.748904
v 0.758121 0.148911 0.334617
vn 1.179177 -2.846667 2.748896
v 0.241878 0.148911 0.334617
vn 1.179177 -2.846667 -2.748896
v 0.241878 0.148911 0.076990
vn -1.179189 -2.846664 -2.748904
v 0.758121 0.148911 0.076990
vn -3.081291 -0.000002 2.749101
v 0.797881 0.089407 0.334617
vn 3.081243 -0.000002 -2.748945
v 0.202119 0.089407 0.076990
vn -3.081291 -0.000002 -2.749101
v 0.797881 0.089407 0.076990
vn 3.081243 -0.000002 2.748945
v 0.202119 0.089407 0.334617
vn -1.570796 -1.570796 1.570796
v 0.137712 0.218220 0.189702
vn -1.570796 -1.570796 1.570796
v 0.975000 0.218220 0.189702
vn -2.178661 2.178901 -2.749004
v 0.779016 0.043864 0.076990
vn -2.178661 2.178901 2.749004
v 0.779016 0.043864 0.334617
vn 2.178748 2.178772 -2.748905
v 0.220983 0.043864 0.076990
vn 2.178748 2.178772 2.748905
v 0.220983 0.043864 0.334617
vn 1.179170 2.846663 -2.748875
v 0.708828 0.029903 0.076990
vn 1.179170 2.846663 2.748875
v 0.708828 0.029903 0.334617
vn -1.179130 2.846684 -2.748890
v 0.291173 0.029903 0.076990
vn -1.179130 2.846684 2.748890
v 0.291173 0.029903 0.334617
vn -2.846616 -1.179124 -2.748678
v 0.792981 0.114054 0.366821
vn 2.846679 -1.179114 2.748855
v 0.207021 0.114054 0.044787
vn 2.846679 -1.179114 -2.748855
v 0.207021 0.114054 0.366821
vn -2.846616 -1.179124 2.748678
v 0.792981 0.114054 0.044787
vn -3.081291 -0.000002 -2.749101
v 0.797881 0.089407 0.366821
vn 3.081243 -0.000002 2.748945
v 0.202119 0.089407 0.044787
vn 3.081243 -0.000002 -2.748945
v 0.202119 0.089407 0.366821
vn -3.081291 -0.000002 2.749101
v 0.797881 0.089407 0.044787
vn 3.027293 -3.065515 0.663341
v 0.073305 0.499716 0.119808
vn 3.009687 -2.959257 -1.034183
v 0.073305 0.489598 0.318018
vn 3.039579 -3.137507 0.000002
v 0.073305 0.508051 0.200651
vn 3.036648 -3.120487 0.324066
v 0.073305 0.505947 0.159438
vn -2.980424 -2.773569 1.453604
v 0.926695 0.475982 0.051272
vn -3.009695 -2.959263 1.034169
v 0.926695 0.489598 0.083285
vn 0.563321 0.242709 -0.838800
v 0.073305 0.459389 0.376302
vn -3.027292 -3.065515 -0.663342
v 0.926695 0.499716 0.281495
vn -3.009687 -2.959257 -1.034183
v 0.926695 0.489598 0.318018
vn -0.563321 0.242709 -0.838800
v 0.926695 0.459389 0.376302
vn 3.036646 -3.120487 -0.324064
v 0.073305 0.505947 0.241865
vn 2.980424 -2.773569 1.453604
v 0.073305 0.475982 0.051272
vn -3.027293 -3.065515 0.663341
v 0.926695 0.499716 0.119808
vn 3.009695 -2.959263 1.034169
v 0.073305 0.489598 0.083285
vn -3.036646 -3.120487 -0.324064
v 0.926695 0.505947 0.241865
vn 2.980431 -2.773562 -1.453619
v 0.073305 0.475982 0.350030
vn -0.563319 0.242708 0.838798
v 0.926695 0.459389 0.025000
vn 0.563319 0.242708 0.838798
v 0.073305 0.459389 0.025000
vn 3.027292 -3.065515 -0.663342
v 0.073305 0.499716 0.281495
vn -3.039579 -3.137507 0.000002
v 0.926695 0.508051 0.200651
vn -3.036648 -3.120487 0.324066
v 0.926695 0.505947 0.159438
vn -2.980431 -2.773562 -1.453619
v 0.926695 0.475982 0.350030
vn -1.570796 1.570796 -1.570796
v 0.878390 0.105508 0.334617
vn 1.570796 -1.570796 1.570796
v 0.121610 0.459746 0.076990
vn -1.570796 -1.570796 1.570796
v 0.878390 0.459746 0.076990
vn 1.570796 1.570796 -1.570796
v 0.121610 0.105508 0.334617
vn -1.570796 -1.570796 -1.570796
v 0.878390 0.459746 0.334617
vn -1.570796 1.570796 1.570796
v 0.878390 0.105508 0.076990
vn 1.570796 1.570796 1.570796
v 0.121610 0.105508 0.076990
vn 1.570796 -1.570796 -1.570796
v 0.121610 0.459746 0.334617
# 174 vertices, 0 vertices normals

f 98//98 74//74 49//49
f 98//98 75//75 51//51
f 98//98 64//64 76//76
f 51//51 128//128 74//74
f 76//76 128//128 75//75
f 49//49 128//128 64//64
f 50//50 127//127 72//72
f 66//66 127//127 77//77
f 52//52 127//127 69//69
f 97//97 72//72 66//66
f 97//97 77//77 52//52
f 97//97 69//69 50//50
f 129//129 80//80 22//22
f 27//27 78//78 37//37
f 7//7 3//3 19//19
f 37//37 122//122 7//7
f 140//140 91//91 37//37
f 144//144 67//67 140//140
f 101//101 125//125 144//144
f 33//33 15//15 101//101
f 103//103 129//129 33//33
f 81//81 94//94 103//103
f 78//78 80//80 81//81
f 109//109 133//133 78//78
f 27//27 9//9 109//109
f 111//111 68//68 27//27
f 85//85 44//44 111//111
f 53//53 46//46 85//85
f 117//117 31//31 53//53
f 19//19 22//22 117//117
f 10//10 79//79 119//119
f 104//104 70//70 18//18
f 6//6 1//1 119//119
f 38//38 119//119 88//88
f 137//137 88//88 71//71
f 141//141 71//71 123//123
f 100//100 123//123 14//14
f 34//34 14//14 130//130
f 104//104 130//130 89//89
f 87//87 89//89 79//79
f 70//70 79//79 134//134
f 110//110 134//134 10//10
f 26//26 10//10 73//73
f 112//112 73//73 42//42
f 92//92 42//42 47//47
f 65//65 47//47 32//32
f 116//116 32//32 23//23
f 18//18 23//23 1//1
f 11//11 55//55 121//121
f 105//105 57//57 20//20
f 8//8 2//2 121//121
f 39//39 121//121 86//86
f 138//138 86//86 59//59
f 142//142 59//59 124//124
f 102//102 124//124 13//13
f 35//35 13//13 131//131
f 105//105 131//131 82//82
f 83//83 82//82 55//55
f 57//57 55//55 135//135
f 107//107 135//135 11//11
f 25//25 11//11 54//54
f 114//114 54//54 41//41
f 84//84 41//41 48//48
f 60//60 48//48 30//30
f 115//115 30//30 24//24
f 20//20 24//24 2//2
f 132//132 62//62 21//21
f 28//28 63//63 40//40
f 5//5 4//4 17//17
f 40//40 120//120 5//5
f 139//139 96//96 40//40
f 143//143 58//58 139//139
f 99//99 126//126 143//143
f 36//36 16//16 99//99
f 106//106 132//132 36//36
f 90//90 93//93 106//106
f 63//63 62//62 90//90
f 108//108 136//136 63//63
f 28//28 12//12 108//108
f 113//113 61//61 28//28
f 95//95 43//43 113//113
f 56//56 45//45 95//95
f 118//118 29//29 56//56
f 17//17 21//21 118//118
f 74//74 98//98 51//51
f 75//75 98//98 76//76
f 64//64 98//98 49//49
f 128//128 51//51 75//75
f 128//128 76//76 64//64
f 128//128 49//49 74//74
f 127//127 50//50 69//69
f 127//127 66//66 72//72
f 127//127 52//52 77//77
f 72//72 97//97 50//50
f 77//77 97//97 66//66
f 69//69 97//97 52//52
f 91//91 3//3 122//122
f 15//15 67//67 125//125
f 80//80 129//129 94//94
f 68//68 133//133 9//9
f 31//31 44//44 46//46
f 91//91 22//22 3//3
f 129//129 67//67 15//15
f 68//68 80//80 133//133
f 22//22 44//44 31//31
f 129//129 91//91 67//67
f 44//44 80//80 68//68
f 129//129 22//22 91//91
f 22//22 80//80 44//44
f 117//117 7//7 19//19
f 111//111 53//53 85//85
f 78//78 27//27 109//109
f 33//33 81//81 103//103
f 140//140 101//101 144//144
f 117//117 37//37 7//7
f 27//27 53//53 111//111
f 33//33 78//78 81//81
f 37//37 101//101 140//140
f 27//27 117//117 53//53
f 101//101 78//78 33//33
f 27//27 37//37 117//117
f 37//37 78//78 101//101
f 3//3 7//7 122//122
f 122//122 37//37 91//91
f 91//91 140//140 67//67
f 67//67 144//144 125//125
f 125//125 101//101 15//15
f 15//15 33//33 129//129
f 129//129 103//103 94//94
f 94//94 81//81 80//80
f 80//80 78//78 133//133
f 133//133 109//109 9//9
f 9//9 27//27 68//68
f 68//68 111//111 44//44
f 44//44 85//85 46//46
f 46//46 53//53 31//31
f 31//31 117//117 22//22
f 22//22 19//19 3//3
f 32//32 1//1 23//23
f 73//73 47//47 42//42
f 79//79 10//10 134//134
f 14//14 89//89 130//130
f 88//88 123//123 71//71
f 32//32 119//119 1//1
f 10//10 47//47 73//73
f 14//14 79//79 89//89
f 119//119 123//123 88//88
f 10//10 32//32 47//47
f 123//123 79//79 14//14
f 10//10 119//119 32//32
f 119//119 79//79 123//123
f 137//137 6//6 38//38
f 34//34 141//141 100//100
f 70//70 104//104 87//87
f 112//112 110//110 26//26
f 116//116 92//92 65//65
f 137//137 18//18 6//6
f 104//104 141//141 34//34
f 112//112 70//70 110//110
f 18//18 92//92 116//116
f 104//104 137//137 141//141
f 92//92 70//70 112//112
f 104//104 18//18 137//137
f 18//18 70//70 92//92
f 1//1 6//6 18//18
f 119//119 38//38 6//6
f 88//88 137//137 38//38
f 71//71 141//141 137//137
f 123//123 100//100 141//141
f 14//14 34//34 100//100
f 130//130 104//104 34//34
f 89//89 87//87 104//104
f 79//79 70//70 87//87
f 134//134 110//110 70//70
f 10//10 26//26 110//110
f 73//73 112//112 26//26
f 42//42 92//92 112//112
f 47//47 65//65 92//92
f 32//32 116//116 65//65
f 23//23 18//18 116//116
f 30//30 2//2 24//24
f 54//54 48//48 41//41
f 55//55 11//11 135//135
f 13//13 82//82 131//131
f 86//86 124//124 59//59
f 30//30 121//121 2//2
f 11//11 48//48 54//54
f 13//13 55//55 82//82
f 121//121 124//124 86//86
f 11//11 30//30 48//48
f 124//124 55//55 13//13
f 11//11 121//121 30//30
f 121//121 55//55 124//124
f 138//138 8//8 39//39
f 35//35 142//142 102//102
f 57//57 105//105 83//83
f 114//114 107//107 25//25
f 115//115 84//84 60//60
f 138//138 20//20 8//8
f 105//105 142//142 35//35
f 114//114 57//57 107//107
f 20//20 84//84 115//115
f 105//105 138//138 142//142
f 84//84 57//57 114//114
f 105//105 20//20 138//138
f 20//20 57//57 84//84
f 2//2 8//8 20//20
f 121//121 39//39 8//8
f 86//86 138//138 39//39
f 59//59 142//142 138//138
f 124//124 102//102 142//142
f 13//13 35//35 102//102
f 131//131 105//105 35//35
f 82//82 83//83 105//105
f 55//55 57//57 83//83
f 135//135 107//107 57//57
f 11//11 25//25 107//107
f 54//54 114//114 25//25
f 41//41 84//84 114//114
f 48//48 60//60 84//84
f 30//30 115//115 60//60
f 24//24 20//20 115//115
f 96//96 4//4 120//120
f 16//16 58//58 126//126
f 62//62 132//132 93//93
f 61//61 136//136 12//12
f 29//29 43//43 45//45
f 96//96 21//21 4//4
f 132//132 58//58 16//16
f 61//61 62//62 136//136
f 21//21 43//43 29//29
f 132//132 96//96 58//58
f 43//43 62//62 61//61
f 132//132 21//21 96//96
f 21//21 62//62 43//43
f 118//118 5//5 17//17
f 113//113 56//56 95//95
f 63//63 28//28 108//108
f 36//36 90//90 106//106
f 139//139 99//99 143//143
f 118//118 40//40 5//5
f 28//28 56//56 113//113
f 36//36 63//63 90//90
f 40//40 99//99 139//139
f 28//28 118//118 56//56
f 99//99 63//63 36//36
f 28//28 40//40 118//118
f 40//40 63//63 99//99
f 4//4 5//5 120//120
f 120//120 40//40 96//96
f 96//96 139//139 58//58
f 58//58 143//143 126//126
f 126//126 99//99 16//16
f 16//16 36//36 132//132
f 132//132 106//106 93//93
f 93//93 90//90 62//62
f 62//62 63//63 136//136
f 136//136 108//108 12//12
f 12//12 28//28 61//61
f 61//61 113//113 43//43
f 43//43 95//95 45//45
f 45//45 56//56 29//29
f 29//29 118//118 21//21
f 21//21 17//17 4//4
f 152//152 164//164 149//149
f 158//158 148//148 146//146
f 149//149 162//162 161//161
f 150//150 156//156 149//149
f 157//157 158//158 150//150
f 165//165 145//145 157//157
f 164//164 148//148 165//165
f 159//159 147//147 164//164
f 152//152 155//155 159//159
f 153//153 163//163 152//152
f 166//166 146//146 153//153
f 154//154 160//160 166//166
f 161//161 151//151 154//154
f 153//153 154//154 166//166
f 164//164 152//152 159//159
f 150//150 165//165 157//157
f 154//154 149//149 161//161
f 152//152 154//154 153//153
f 150//150 164//164 165//165
f 152//152 149//149 154//154
f 149//149 164//164 150//150
f 156//156 151//151 162//162
f 148//148 158//158 145//145
f 163//163 147//147 155//155
f 151//151 146//146 160//160
f 158//158 151//151 156//156
f 163//163 148//148 147//147
f 158//158 146//146 151//151
f 146//146 148//148 163//163
f 162//162 149//149 156//156
f 156//156 150//150 158//158
f 158//158 157//157 145//145
f 145//145 165//165 148//148
f 148//148 164//164 147//147
f 147//147 159//159 155//155
f 155//155 152//152 163//163
f 163//163 153//153 146//146
f 146//146 166//166 160//160
f 160//160 154//154 151//151
f 151//151 161//161 162//162
f 170//170 171//171 167//167
f 170//170 168//168 174//174
f 170//170 172//172 173//173
f 174//174 169//169 171//171
f 173//173 169//169 168//168
f 167//167 169//169 172//172
f 171//171 170//170 174//174
f 168//168 170//170 173//173
f 172//172 170//170 167//167
f 169//169 174//174 168//168
f 169//169 173//173 172//172
f 169//169 167//167 171//171
# 316 faces, 0 coords texture

# End of File
