####
#
# OBJ File Generated by Meshlab
#
####
# Object m613.obj
#
# Vertices: 136
# Faces: 200
#
####
vn 2.987868 2.513349 -0.000115
v 0.160918 0.076778 0.148110
vn 2.417220 2.513180 1.756107
v 0.159682 0.076778 0.151915
vn 2.987868 -2.513349 -0.000115
v 0.160918 0.050889 0.148110
vn 2.417220 -2.513180 1.756107
v 0.159682 0.050889 0.151915
vn 0.000000 -6.283185 0.000000
v 0.154446 0.050889 0.148110
vn 0.000000 6.283185 0.000000
v 0.154446 0.076778 0.148110
vn 0.923267 2.513293 2.841614
v 0.156446 0.076778 0.154266
vn 0.923267 -2.513293 2.841614
v 0.156446 0.050889 0.154266
vn -0.923267 2.513293 2.841614
v 0.152446 0.076778 0.154266
vn -0.923267 -2.513293 2.841614
v 0.152446 0.050889 0.154266
vn -2.417220 2.513180 1.756107
v 0.149210 0.076778 0.151915
vn -2.417220 -2.513180 1.756107
v 0.149210 0.050889 0.151915
vn -2.987868 2.513349 -0.000115
v 0.147974 0.076778 0.148110
vn -2.987868 -2.513349 -0.000115
v 0.147974 0.050889 0.148110
vn -2.417183 2.513257 -1.756223
v 0.149210 0.076778 0.144306
vn -2.417183 -2.513257 -1.756223
v 0.149210 0.050889 0.144306
vn -0.923267 2.513293 -2.841614
v 0.152446 0.076778 0.141955
vn -0.923267 -2.513293 -2.841614
v 0.152446 0.050889 0.141955
vn 0.923267 2.513293 -2.841614
v 0.156446 0.076778 0.141955
vn 0.923267 -2.513293 -2.841614
v 0.156446 0.050889 0.141955
vn 2.417183 2.513257 -1.756223
v 0.159682 0.076778 0.144306
vn 2.417183 -2.513257 -1.756223
v 0.159682 0.050889 0.144306
vn -1.570796 -1.570796 -1.570796
v 0.147974 0.072701 0.141638
vn 1.570796 -1.570796 -1.570796
v 0.160918 0.072701 0.141638
vn 1.570796 1.570796 -1.570796
v 0.160918 0.668152 0.141638
vn -1.570796 1.570796 -1.570796
v 0.147974 0.668152 0.141638
vn -1.570796 -1.570796 1.570796
v 0.147974 0.072701 0.154583
vn 1.570796 -1.570796 1.570796
v 0.160918 0.072701 0.154583
vn 1.570796 1.570796 1.570796
v 0.160918 0.668152 0.154583
vn -1.570796 1.570796 1.570796
v 0.147974 0.668152 0.154583
vn -1.570796 -1.570796 -1.570796
v 0.193280 0.046812 0.174000
vn 1.570796 -1.570796 -1.570796
v 0.206224 0.046812 0.174000
vn 1.570796 1.570796 -1.570796
v 0.206224 0.642263 0.174000
vn -1.570796 1.570796 -1.570796
v 0.193280 0.642263 0.174000
vn -1.570796 -1.570796 1.570796
v 0.193280 0.046812 0.186944
vn 1.570796 -1.570796 1.570796
v 0.206224 0.046812 0.186944
vn 1.570796 1.570796 1.570796
v 0.206224 0.642263 0.186944
vn -1.570796 1.570796 1.570796
v 0.193280 0.642263 0.186944
vn -1.570796 -1.570796 -1.570796
v 0.193280 0.046812 0.109277
vn 1.570796 -1.570796 -1.570796
v 0.206224 0.046812 0.109277
vn 1.570796 1.570796 -1.570796
v 0.206224 0.642263 0.109277
vn -1.570796 1.570796 -1.570796
v 0.193280 0.642263 0.109277
vn -1.570796 -1.570796 1.570796
v 0.193280 0.046812 0.122221
vn 1.570796 -1.570796 1.570796
v 0.206224 0.046812 0.122221
vn 1.570796 1.570796 1.570796
v 0.206224 0.642263 0.122221
vn -1.570796 1.570796 1.570796
v 0.193280 0.642263 0.122221
vn -0.704090 1.665338 -0.366516
v 0.781667 0.883069 0.138789
vn 1.959501 0.032734 1.495979
v 0.946343 0.762496 0.251935
vn 2.398019 -5.671834 1.248287
v 0.855773 0.707792 0.177365
vn 0.861715 -0.255352 2.295872
v 0.883091 0.745897 0.298021
vn -0.417165 -0.796080 2.295852
v 0.809405 0.714742 0.298021
vn -1.388676 -1.382847 1.495972
v 0.753429 0.680933 0.251935
vn -1.681724 -1.791588 0.201754
v 0.736545 0.657383 0.177365
vn -1.184343 -1.866136 -1.092464
v 0.765202 0.653087 0.102795
vn -0.086560 -1.578050 -1.892352
v 0.828454 0.669687 0.056709
vn 1.192330 -1.037343 -1.892352
v 0.902140 0.700841 0.056709
vn 2.163839 -0.450556 -1.092473
v 0.958116 0.734650 0.102795
vn 2.456881 -0.041828 0.201754
v 0.975000 0.758200 0.177365
vn 2.751949 1.163504 0.000017
v 0.802614 0.933248 0.131074
vn 2.090533 1.262682 1.721224
v 0.794017 0.934536 0.153445
vn 2.751976 1.163518 -0.000001
v 0.839667 0.845609 0.150362
vn 2.090519 1.262675 1.721191
v 0.831070 0.846898 0.172733
vn 0.630549 0.879530 2.784973
v 0.775041 0.929556 0.167271
vn 0.630553 0.879527 2.784951
v 0.812094 0.841918 0.186559
vn -1.070256 0.160423 2.784910
v 0.752935 0.920210 0.167271
vn -1.070280 0.160425 2.784964
v 0.789988 0.832572 0.186559
vn -2.362299 -0.619960 1.721183
v 0.736143 0.910067 0.153445
vn -2.362275 -0.619957 1.721154
v 0.773196 0.822429 0.172733
vn -2.751995 -1.163540 -0.000033
v 0.731078 0.903002 0.131074
vn -2.751989 -1.163525 -0.000004
v 0.768131 0.815364 0.150362
vn -2.090492 -1.262660 -1.721211
v 0.739675 0.901714 0.108703
vn -2.090527 -1.262652 -1.721163
v 0.776728 0.814075 0.127991
vn -0.630561 -0.879510 -2.784945
v 0.758650 0.906694 0.094878
vn -0.630583 -0.879512 -2.784930
v 0.795703 0.819055 0.114165
vn 1.070224 -0.160437 -2.784998
v 0.780756 0.916040 0.094878
vn 1.070270 -0.160431 -2.785011
v 0.817809 0.828402 0.114165
vn 2.362239 0.619933 -1.721195
v 0.797549 0.926183 0.108703
vn 2.362245 0.619935 -1.721162
v 0.834602 0.838544 0.127991
vn -1.964810 1.036356 -1.570738
v 0.148927 0.678863 0.141638
vn -1.036416 -1.964925 -1.570855
v 0.152753 0.666497 0.141638
vn 1.964810 -1.036356 -1.570738
v 0.721610 0.842463 0.141638
vn 1.036416 1.964925 -1.570855
v 0.717784 0.854829 0.141638
vn -1.964810 1.036356 1.570738
v 0.148927 0.678863 0.154583
vn -1.036416 -1.964925 1.570855
v 0.152753 0.666497 0.154583
vn 1.964810 -1.036356 1.570738
v 0.721610 0.842463 0.154583
vn 1.036416 1.964925 1.570855
v 0.717784 0.854829 0.154583
vn -1.964810 1.036356 -1.570738
v 0.148927 0.627085 0.141638
vn -1.036419 -1.964926 -1.570856
v 0.152753 0.614719 0.141638
vn 1.964819 -1.036391 -1.570759
v 0.721610 0.790684 0.141638
vn 1.036427 1.964891 -1.570832
v 0.717784 0.803051 0.141638
vn -1.964810 1.036356 1.570738
v 0.148927 0.627085 0.154583
vn -1.036419 -1.964926 1.570856
v 0.152753 0.614719 0.154583
vn 1.964819 -1.036391 1.570759
v 0.721610 0.790684 0.154583
vn 1.036427 1.964891 1.570832
v 0.717784 0.803051 0.154583
vn 2.417208 0.000000 1.756201
v 0.259170 0.050889 0.224197
vn 2.417208 0.000000 1.756201
v 0.259170 0.025000 0.224197
vn 0.923291 0.000000 2.841597
v 0.194447 0.050889 0.271221
vn 0.923291 0.000000 2.841597
v 0.194447 0.025000 0.271221
vn -0.923291 0.000000 2.841597
v 0.114445 0.050889 0.271221
vn -0.923291 0.000000 2.841597
v 0.114445 0.025000 0.271221
vn -2.417208 0.000000 1.756201
v 0.049722 0.050889 0.224197
vn -2.417208 0.000000 1.756201
v 0.049722 0.025000 0.224197
vn -2.987832 0.000000 -0.000006
v 0.025000 0.050889 0.148110
vn -2.987832 0.000000 -0.000006
v 0.025000 0.025000 0.148110
vn -2.417206 0.000000 -1.756207
v 0.049722 0.050889 0.072024
vn -2.417206 0.000000 -1.756207
v 0.049722 0.025000 0.072024
vn -0.923291 0.000000 -2.841597
v 0.114445 0.050889 0.025000
vn -0.923291 0.000000 -2.841597
v 0.114445 0.025000 0.025000
vn 0.923291 0.000000 -2.841597
v 0.194447 0.050889 0.025000
vn 0.923291 0.000000 -2.841597
v 0.194447 0.025000 0.025000
vn 2.417206 0.000000 -1.756207
v 0.259170 0.050889 0.072024
vn 2.417206 0.000000 -1.756207
v 0.259170 0.025000 0.072024
vn 2.987832 0.000000 -0.000006
v 0.283892 0.050889 0.148110
vn 2.987832 0.000000 -0.000006
v 0.283892 0.025000 0.148110
vn 3.455214 -1.718669 0.593673
v 0.816383 0.868243 0.149396
vn 3.101692 -0.882172 2.201380
v 0.815617 0.870055 0.152879
vn -1.528239 -2.839773 2.201373
v 0.791772 0.859974 0.152879
vn -5.787234 -2.446699 -0.000068
v 0.790068 0.864004 0.148110
vn 5.787324 2.446486 0.000042
v 0.813913 0.874086 0.148110
vn 2.447335 0.664951 2.968410
v 0.814200 0.873407 0.154541
vn -2.181992 -1.292364 2.968217
v 0.790355 0.863325 0.154541
vn 1.742844 2.331955 2.601330
v 0.812674 0.877018 0.153746
vn -2.887156 0.374617 2.601341
v 0.788828 0.866936 0.153746
vn 1.256716 3.481755 1.240968
v 0.811621 0.879509 0.150799
vn -3.373284 1.524557 1.240838
v 0.787775 0.869427 0.150799
vn 1.174463 3.675676 -0.593495
v 0.811443 0.879929 0.146825
vn -3.455338 1.718640 -0.593695
v 0.787598 0.869847 0.146825
vn 1.528244 2.839385 -2.201296
v 0.812209 0.878117 0.143342
vn -3.101758 0.882142 -2.201401
v 0.788364 0.868035 0.143342
vn 2.182170 1.292199 -2.968383
v 0.813626 0.874765 0.141680
vn -2.447254 -0.665115 -2.968323
v 0.789781 0.864683 0.141680
vn 2.887129 -0.374651 -2.601321
v 0.815153 0.871154 0.142475
vn -1.742833 -2.332242 -2.601497
v 0.791307 0.861073 0.142475
vn 3.373171 -1.524592 -1.240807
v 0.816206 0.868663 0.145422
vn -1.256726 -3.481925 -1.241032
v 0.792360 0.858582 0.145422
vn -1.174475 -3.675861 0.593518
v 0.792538 0.858162 0.149396
# 136 vertices, 0 vertices normals

f 1//1 2//2 3//3
f 2//2 4//4 3//3
f 5//5 3//3 4//4
f 6//6 2//2 1//1
f 2//2 7//7 4//4
f 7//7 8//8 4//4
f 5//5 4//4 8//8
f 6//6 7//7 2//2
f 7//7 9//9 8//8
f 9//9 10//10 8//8
f 5//5 8//8 10//10
f 6//6 9//9 7//7
f 9//9 11//11 10//10
f 11//11 12//12 10//10
f 5//5 10//10 12//12
f 6//6 11//11 9//9
f 11//11 13//13 12//12
f 13//13 14//14 12//12
f 5//5 12//12 14//14
f 6//6 13//13 11//11
f 13//13 15//15 14//14
f 15//15 16//16 14//14
f 5//5 14//14 16//16
f 6//6 15//15 13//13
f 15//15 17//17 16//16
f 17//17 18//18 16//16
f 5//5 16//16 18//18
f 6//6 17//17 15//15
f 17//17 19//19 18//18
f 19//19 20//20 18//18
f 5//5 18//18 20//20
f 6//6 19//19 17//17
f 19//19 21//21 20//20
f 21//21 22//22 20//20
f 5//5 20//20 22//22
f 6//6 21//21 19//19
f 21//21 1//1 22//22
f 1//1 3//3 22//22
f 5//5 22//22 3//3
f 6//6 1//1 21//21
f 23//23 26//26 24//24
f 24//24 26//26 25//25
f 23//23 28//28 27//27
f 23//23 24//24 28//28
f 23//23 27//27 26//26
f 26//26 27//27 30//30
f 26//26 30//30 29//29
f 26//26 29//29 25//25
f 24//24 29//29 28//28
f 24//24 25//25 29//29
f 28//28 30//30 27//27
f 28//28 29//29 30//30
f 31//31 34//34 32//32
f 32//32 34//34 33//33
f 31//31 36//36 35//35
f 31//31 32//32 36//36
f 31//31 35//35 34//34
f 34//34 35//35 38//38
f 34//34 38//38 37//37
f 34//34 37//37 33//33
f 32//32 37//37 36//36
f 32//32 33//33 37//37
f 36//36 38//38 35//35
f 36//36 37//37 38//38
f 39//39 42//42 40//40
f 40//40 42//42 41//41
f 39//39 44//44 43//43
f 39//39 40//40 44//44
f 39//39 43//43 42//42
f 42//42 43//43 46//46
f 42//42 46//46 45//45
f 42//42 45//45 41//41
f 40//40 45//45 44//44
f 40//40 41//41 45//45
f 44//44 46//46 43//43
f 44//44 45//45 46//46
f 47//47 48//48 58//58
f 49//49 58//58 48//48
f 47//47 50//50 48//48
f 49//49 48//48 50//50
f 47//47 51//51 50//50
f 49//49 50//50 51//51
f 47//47 52//52 51//51
f 49//49 51//51 52//52
f 47//47 53//53 52//52
f 49//49 52//52 53//53
f 47//47 54//54 53//53
f 49//49 53//53 54//54
f 47//47 55//55 54//54
f 49//49 54//54 55//55
f 47//47 56//56 55//55
f 49//49 55//55 56//56
f 47//47 57//57 56//56
f 49//49 56//56 57//57
f 47//47 58//58 57//57
f 49//49 57//57 58//58
f 59//59 60//60 61//61
f 60//60 62//62 61//61
f 60//60 63//63 62//62
f 63//63 64//64 62//62
f 63//63 65//65 64//64
f 65//65 66//66 64//64
f 65//65 67//67 66//66
f 67//67 68//68 66//66
f 67//67 69//69 68//68
f 69//69 70//70 68//68
f 69//69 71//71 70//70
f 71//71 72//72 70//70
f 71//71 73//73 72//72
f 73//73 74//74 72//72
f 73//73 75//75 74//74
f 75//75 76//76 74//74
f 75//75 77//77 76//76
f 77//77 78//78 76//76
f 77//77 59//59 78//78
f 59//59 61//61 78//78
f 79//79 82//82 80//80
f 80//80 82//82 81//81
f 79//79 84//84 83//83
f 79//79 80//80 84//84
f 79//79 83//83 82//82
f 82//82 83//83 86//86
f 82//82 86//86 85//85
f 82//82 85//85 81//81
f 80//80 85//85 84//84
f 80//80 81//81 85//85
f 84//84 86//86 83//83
f 84//84 85//85 86//86
f 87//87 90//90 88//88
f 88//88 90//90 89//89
f 87//87 92//92 91//91
f 87//87 88//88 92//92
f 87//87 91//91 90//90
f 90//90 91//91 94//94
f 90//90 94//94 93//93
f 90//90 93//93 89//89
f 88//88 93//93 92//92
f 88//88 89//89 93//93
f 92//92 94//94 91//91
f 92//92 93//93 94//94
f 113//113 95//95 114//114
f 95//95 96//96 114//114
f 95//95 97//97 96//96
f 97//97 98//98 96//96
f 97//97 99//99 98//98
f 99//99 100//100 98//98
f 99//99 101//101 100//100
f 101//101 102//102 100//100
f 101//101 103//103 102//102
f 103//103 104//104 102//102
f 103//103 105//105 104//104
f 105//105 106//106 104//104
f 105//105 107//107 106//106
f 107//107 108//108 106//106
f 107//107 109//109 108//108
f 109//109 110//110 108//108
f 109//109 111//111 110//110
f 111//111 112//112 110//110
f 111//111 113//113 112//112
f 113//113 114//114 112//112
f 115//115 116//116 136//136
f 116//116 117//117 136//136
f 118//118 136//136 117//117
f 119//119 116//116 115//115
f 116//116 120//120 117//117
f 120//120 121//121 117//117
f 118//118 117//117 121//121
f 119//119 120//120 116//116
f 120//120 122//122 121//121
f 122//122 123//123 121//121
f 118//118 121//121 123//123
f 119//119 122//122 120//120
f 122//122 124//124 123//123
f 124//124 125//125 123//123
f 118//118 123//123 125//125
f 119//119 124//124 122//122
f 124//124 126//126 125//125
f 126//126 127//127 125//125
f 118//118 125//125 127//127
f 119//119 126//126 124//124
f 126//126 128//128 127//127
f 128//128 129//129 127//127
f 118//118 127//127 129//129
f 119//119 128//128 126//126
f 128//128 130//130 129//129
f 130//130 131//131 129//129
f 118//118 129//129 131//131
f 119//119 130//130 128//128
f 130//130 132//132 131//131
f 132//132 133//133 131//131
f 118//118 131//131 133//133
f 119//119 132//132 130//130
f 132//132 134//134 133//133
f 134//134 135//135 133//133
f 118//118 133//133 135//135
f 119//119 134//134 132//132
f 134//134 115//115 135//135
f 115//115 136//136 135//135
f 118//118 135//135 136//136
f 119//119 115//115 134//134
# 200 faces, 0 coords texture

# End of File
