####
#
# OBJ File Generated by Meshlab
#
####
# Object m746.obj
#
# Vertices: 80
# Faces: 128
#
####
vn 2.987832 0.001997 2.513272
v 0.756500 0.500113 0.500072
vn 2.417205 -1.754203 2.514672
v 0.707513 0.349347 0.500192
vn 2.987832 -0.001997 -2.513272
v 0.756500 0.499887 0.215072
vn 2.417208 -1.758202 -2.511873
v 0.707513 0.349120 0.215192
vn -0.000000 -0.004998 -6.283183
v 0.500000 0.499887 0.215072
vn -0.000000 0.004998 6.283183
v 0.500000 0.500113 0.500072
vn 0.923291 -2.839599 2.515537
v 0.579263 0.256168 0.500266
vn 0.923291 -2.843594 -2.511010
v 0.579263 0.255941 0.215266
vn -0.923291 -2.839599 2.515537
v 0.420737 0.256168 0.500266
vn -0.923291 -2.843594 -2.511010
v 0.420737 0.255941 0.215266
vn -2.417205 -1.754204 2.514673
v 0.292487 0.349347 0.500192
vn -2.417208 -1.758203 -2.511874
v 0.292487 0.349120 0.215192
vn -2.987833 0.001997 2.513275
v 0.243500 0.500113 0.500072
vn -2.987833 -0.001997 -2.513275
v 0.243500 0.499887 0.215072
vn -2.417208 1.758203 2.511874
v 0.292487 0.650880 0.499952
vn -2.417205 1.754204 -2.514673
v 0.292487 0.650653 0.214952
vn -0.923291 2.843594 2.511010
v 0.420737 0.744059 0.499878
vn -0.923291 2.839599 -2.515537
v 0.420737 0.743832 0.214878
vn 0.923291 2.843594 2.511010
v 0.579263 0.744059 0.499878
vn 0.923291 2.839599 -2.515537
v 0.579263 0.743832 0.214878
vn 2.417208 1.758202 2.511873
v 0.707513 0.650880 0.499952
vn 2.417205 1.754203 -2.514672
v 0.707513 0.650653 0.214952
vn 2.987822 0.002010 2.513286
v 0.595000 0.500265 0.690072
vn 2.417238 -1.754203 2.514666
v 0.576857 0.444425 0.690116
vn 2.987836 -0.002009 -2.513286
v 0.595000 0.499735 0.025072
vn 2.417214 -1.758198 -2.511876
v 0.576857 0.443896 0.025116
vn 0.000000 -0.005003 -6.283183
v 0.500000 0.499735 0.025072
vn 0.000000 0.005007 6.283183
v 0.500000 0.500265 0.690072
vn 0.923300 -2.839579 2.515530
v 0.529357 0.409914 0.690144
vn 0.923296 -2.843597 -2.511010
v 0.529357 0.409385 0.025144
vn -0.923300 -2.839579 2.515530
v 0.470643 0.409914 0.690144
vn -0.923296 -2.843597 -2.511010
v 0.470643 0.409385 0.025144
vn -2.417238 -1.754202 2.514665
v 0.423143 0.444425 0.690116
vn -2.417214 -1.758197 -2.511876
v 0.423143 0.443896 0.025116
vn -2.987821 0.002010 2.513284
v 0.405000 0.500265 0.690072
vn -2.987836 -0.002009 -2.513284
v 0.405000 0.499735 0.025072
vn -2.417238 1.758215 2.511876
v 0.423143 0.556104 0.690027
vn -2.417217 1.754189 -2.514665
v 0.423143 0.555575 0.025028
vn -0.923301 2.843586 2.511010
v 0.470643 0.590615 0.690000
vn -0.923295 2.839592 -2.515530
v 0.470643 0.590086 0.025000
vn 0.923301 2.843586 2.511010
v 0.529357 0.590615 0.690000
vn 0.923295 2.839592 -2.515530
v 0.529357 0.590086 0.025000
vn 2.417237 1.758215 2.511876
v 0.576857 0.556104 0.690027
vn 2.417217 1.754189 -2.514666
v 0.576857 0.555575 0.025028
vn 2.375967 0.032959 2.312316
v 0.245978 0.506746 0.215072
vn 2.000698 1.182883 2.377549
v 0.279639 0.382696 0.215072
vn 1.164416 2.055276 2.311765
v 0.371605 0.291884 0.215072
vn -0.047400 2.307000 2.388203
v 0.497232 0.258646 0.215072
vn -1.137149 2.060514 2.330102
v 0.622859 0.291884 0.215072
vn -2.030049 1.177217 2.338788
v 0.714824 0.382696 0.215072
vn -2.352083 -0.039012 2.347732
v 0.748486 0.506746 0.215072
vn -2.067768 -1.174667 2.318636
v 0.714824 0.630796 0.215072
vn -1.220764 -2.051957 2.292387
v 0.622859 0.721606 0.215072
vn -0.015833 -2.382010 2.291273
v 0.497232 0.754846 0.215072
vn 1.174207 -2.042522 2.330377
v 0.371605 0.721606 0.215072
vn 2.074367 -1.193698 2.286281
v 0.279639 0.630796 0.215072
vn 2.375968 0.032957 -2.312318
v 0.245978 0.506746 0.500072
vn 2.000698 1.182883 -2.377549
v 0.279639 0.382696 0.500072
vn 1.164416 2.055276 -2.311765
v 0.371605 0.291884 0.500072
vn -0.047400 2.307000 -2.388203
v 0.497232 0.258646 0.500072
vn -1.137149 2.060514 -2.330102
v 0.622859 0.291884 0.500072
vn -2.030049 1.177217 -2.338788
v 0.714824 0.382696 0.500072
vn -2.352083 -0.039012 -2.347732
v 0.748486 0.506746 0.500072
vn -2.067768 -1.174667 -2.318636
v 0.714824 0.630796 0.500072
vn -1.220764 -2.051957 -2.292387
v 0.622859 0.721606 0.500072
vn -0.015833 -2.382010 -2.291273
v 0.497232 0.754846 0.500072
vn 1.174211 -2.042520 -2.330382
v 0.371605 0.721606 0.500072
vn 2.074363 -1.193697 -2.286281
v 0.279639 0.630795 0.500072
vn 0.915441 0.313266 0.000000
v 0.031558 0.364160 0.357572
vn 0.663197 0.683379 -0.000000
v 0.152773 0.158921 0.357572
vn 0.182825 0.896447 0.000000
v 0.384584 0.025000 0.357572
vn -0.247678 0.974748 0.000000
v 0.619139 0.041835 0.357572
vn -0.645666 0.661022 0.000000
v 0.845585 0.156183 0.357572
vn -0.901258 0.231420 0.000000
v 0.975000 0.382524 0.357572
vn -1.009208 -0.250880 0.000000
v 0.959096 0.624833 0.357572
vn -0.759713 -0.690780 -0.000000
v 0.844783 0.834597 0.357572
vn -0.286319 -0.951054 0.000000
v 0.630684 0.970341 0.357572
vn 0.255917 -0.941621 0.000000
v 0.369919 0.975000 0.357572
vn 0.691628 -0.701693 0.000000
v 0.154939 0.849395 0.357572
vn 0.954725 -0.211926 -0.000001
v 0.025000 0.620558 0.357572
# 80 vertices, 0 vertices normals

f 1//1 2//2 3//3
f 2//2 4//4 3//3
f 5//5 3//3 4//4
f 6//6 2//2 1//1
f 2//2 7//7 4//4
f 7//7 8//8 4//4
f 5//5 4//4 8//8
f 6//6 7//7 2//2
f 7//7 9//9 8//8
f 9//9 10//10 8//8
f 5//5 8//8 10//10
f 6//6 9//9 7//7
f 9//9 11//11 10//10
f 11//11 12//12 10//10
f 5//5 10//10 12//12
f 6//6 11//11 9//9
f 11//11 13//13 12//12
f 13//13 14//14 12//12
f 5//5 12//12 14//14
f 6//6 13//13 11//11
f 13//13 15//15 14//14
f 15//15 16//16 14//14
f 5//5 14//14 16//16
f 6//6 15//15 13//13
f 15//15 17//17 16//16
f 17//17 18//18 16//16
f 5//5 16//16 18//18
f 6//6 17//17 15//15
f 17//17 19//19 18//18
f 19//19 20//20 18//18
f 5//5 18//18 20//20
f 6//6 19//19 17//17
f 19//19 21//21 20//20
f 21//21 22//22 20//20
f 5//5 20//20 22//22
f 6//6 21//21 19//19
f 21//21 1//1 22//22
f 1//1 3//3 22//22
f 5//5 22//22 3//3
f 6//6 1//1 21//21
f 23//23 24//24 25//25
f 24//24 26//26 25//25
f 27//27 25//25 26//26
f 28//28 24//24 23//23
f 24//24 29//29 26//26
f 29//29 30//30 26//26
f 27//27 26//26 30//30
f 28//28 29//29 24//24
f 29//29 31//31 30//30
f 31//31 32//32 30//30
f 27//27 30//30 32//32
f 28//28 31//31 29//29
f 31//31 33//33 32//32
f 33//33 34//34 32//32
f 27//27 32//32 34//34
f 28//28 33//33 31//31
f 33//33 35//35 34//34
f 35//35 36//36 34//34
f 27//27 34//34 36//36
f 28//28 35//35 33//33
f 35//35 37//37 36//36
f 37//37 38//38 36//36
f 27//27 36//36 38//38
f 28//28 37//37 35//35
f 37//37 39//39 38//38
f 39//39 40//40 38//38
f 27//27 38//38 40//40
f 28//28 39//39 37//37
f 39//39 41//41 40//40
f 41//41 42//42 40//40
f 27//27 40//40 42//42
f 28//28 41//41 39//39
f 41//41 43//43 42//42
f 43//43 44//44 42//42
f 27//27 42//42 44//44
f 28//28 43//43 41//41
f 43//43 23//23 44//44
f 23//23 25//25 44//44
f 27//27 44//44 25//25
f 28//28 23//23 43//43
f 45//45 57//57 69//69
f 57//57 58//58 69//69
f 58//58 46//46 69//69
f 46//46 45//45 69//69
f 46//46 58//58 70//70
f 58//58 59//59 70//70
f 59//59 47//47 70//70
f 47//47 46//46 70//70
f 47//47 59//59 71//71
f 59//59 60//60 71//71
f 60//60 48//48 71//71
f 48//48 47//47 71//71
f 48//48 60//60 72//72
f 60//60 61//61 72//72
f 61//61 49//49 72//72
f 49//49 48//48 72//72
f 49//49 61//61 73//73
f 61//61 62//62 73//73
f 62//62 50//50 73//73
f 50//50 49//49 73//73
f 50//50 62//62 74//74
f 62//62 63//63 74//74
f 63//63 51//51 74//74
f 51//51 50//50 74//74
f 51//51 63//63 75//75
f 63//63 64//64 75//75
f 64//64 52//52 75//75
f 52//52 51//51 75//75
f 52//52 64//64 76//76
f 64//64 65//65 76//76
f 65//65 53//53 76//76
f 53//53 52//52 76//76
f 53//53 65//65 77//77
f 65//65 66//66 77//77
f 66//66 54//54 77//77
f 54//54 53//53 77//77
f 54//54 66//66 78//78
f 66//66 67//67 78//78
f 67//67 55//55 78//78
f 55//55 54//54 78//78
f 55//55 67//67 79//79
f 67//67 68//68 79//79
f 68//68 56//56 79//79
f 56//56 55//55 79//79
f 56//56 68//68 80//80
f 68//68 57//57 80//80
f 57//57 45//45 80//80
f 45//45 56//56 80//80
# 128 faces, 0 coords texture

# End of File
