####
#
# OBJ File Generated by Meshlab
#
####
# Object m672.obj
#
# Vertices: 140
# Faces: 252
#
####
vn -4.736833 -2.678642 0.302651
v 0.025015 0.176514 0.595335
vn -2.283243 1.400004 -2.041409
v 0.025015 0.228753 0.595335
vn -2.283033 1.399977 2.041532
v 0.025018 0.228753 0.718178
vn -2.283022 -1.399980 2.041532
v 0.025018 0.176514 0.718178
vn 2.283246 -1.400003 2.041423
v 0.068667 0.176514 0.718176
vn 2.283255 1.400001 2.041422
v 0.068667 0.228753 0.718176
vn 2.283032 1.399976 -2.041527
v 0.068664 0.228753 0.595333
vn 4.765546 -2.654084 0.341010
v 0.068664 0.176514 0.595333
vn 0.712442 2.970647 2.670891
v 0.054117 0.236156 0.718177
vn -0.712353 2.971209 2.670937
v 0.039568 0.236156 0.718177
vn -0.712431 2.970653 -2.670899
v 0.039564 0.236156 0.595334
vn 0.712354 2.971209 -2.670936
v 0.054114 0.236156 0.595334
vn -0.712243 -2.970924 2.670937
v 0.039568 0.169111 0.718177
vn 0.712330 -2.970362 2.670892
v 0.054117 0.169111 0.718177
vn 1.457563 -5.945839 0.848979
v 0.054114 0.169111 0.595334
vn -1.499063 -5.939120 0.794387
v 0.039564 0.169111 0.595334
vn -4.712461 1.570779 -1.570668
v 0.025015 0.212428 0.595335
vn 4.712317 1.570814 -1.570917
v 0.068664 0.212428 0.595333
vn 4.628885 -2.735885 0.332529
v 0.068663 0.168065 0.559624
vn 3.141593 3.141587 -0.000096
v 0.068663 0.212428 0.559624
vn -3.141593 3.141593 0.000089
v 0.025014 0.212428 0.559625
vn -4.590182 -2.746481 0.385915
v 0.025014 0.168065 0.559625
vn -1.572592 -5.583280 0.765635
v 0.039563 0.158920 0.559625
vn 1.547724 -5.608149 0.730735
v 0.054113 0.158920 0.559624
vn -4.813410 -2.659811 0.000123
v 0.025013 0.168065 0.538608
vn -1.274485 -5.557233 -0.964636
v 0.039563 0.158920 0.538607
vn 1.274463 -5.557261 -0.964667
v 0.054113 0.158920 0.538607
vn 4.813422 -2.659827 -0.000119
v 0.068662 0.168065 0.538606
vn 3.141593 3.141610 -0.000078
v 0.068662 0.212428 0.538606
vn -3.141593 3.141586 0.000079
v 0.025013 0.212428 0.538608
vn 3.575977 -3.061438 -0.365213
v 0.068662 0.168065 0.520037
vn 3.141593 3.141582 -0.000067
v 0.068662 0.212428 0.520037
vn -3.141593 3.141598 0.000075
v 0.025013 0.212428 0.520038
vn -3.575997 -3.061452 -0.365058
v 0.025013 0.168065 0.520038
vn -3.046658 3.134175 -0.151788
v 0.025007 0.212428 0.308025
vn -3.392602 -3.076686 0.501230
v 0.025007 0.160209 0.308025
vn 3.392625 -3.076687 0.501048
v 0.068656 0.160209 0.308024
vn 3.046657 3.134175 -0.151944
v 0.068656 0.212428 0.308024
vn -2.783157 -1.601130 -2.133826
v 0.025000 0.100876 0.047526
vn 2.783223 -1.601162 -2.133961
v 0.068649 0.100876 0.047526
vn 2.721066 0.431851 -2.521136
v 0.068649 0.168929 0.029408
vn -2.721499 0.431903 -2.521017
v 0.025000 0.168929 0.029412
vn 1.491732 2.063213 1.889588
v 0.054112 0.234466 0.520037
vn -1.491494 2.063086 1.889668
v 0.039562 0.234466 0.520038
vn 2.095622 3.383429 -1.441196
v 0.054107 0.234466 0.325165
vn -2.095817 3.383465 -1.441021
v 0.039557 0.234466 0.325166
vn 1.073827 1.935255 -2.493179
v 0.054099 0.185493 0.025000
vn -1.073882 1.934927 -2.493028
v 0.039550 0.185493 0.025000
vn -1.491581 5.204776 1.252004
v 0.032288 0.212428 0.520038
vn 1.491667 5.204771 1.251924
v 0.061387 0.212428 0.520037
vn 0.887484 5.799133 -1.336359
v 0.061381 0.212428 0.308024
vn -0.887568 5.799123 -1.336316
v 0.032282 0.212428 0.308025
vn -1.154637 -3.100111 -1.518186
v 0.039550 0.084312 0.051938
vn 1.154092 -3.099049 -1.518660
v 0.054100 0.084312 0.051934
vn -4.671039 -0.073761 -2.707510
v 0.029135 0.142634 0.330481
vn -1.544073 1.432595 -1.558886
v 0.029135 0.161991 0.325630
vn -1.555529 1.474076 1.563887
v 0.029136 0.161991 0.361025
vn -4.373236 -0.550013 2.837121
v 0.029136 0.139079 0.356174
vn 4.373449 -0.549964 2.836865
v 0.064530 0.139079 0.356173
vn 1.555662 1.474124 1.563817
v 0.064530 0.161991 0.361024
vn 1.544074 1.432669 -1.558986
v 0.064529 0.161991 0.325630
vn 4.670974 -0.073716 -2.707690
v 0.064530 0.142634 0.330481
vn 2.204506 -2.195707 1.146585
v 0.064530 0.075004 0.344859
vn 2.140838 -1.691127 -1.711094
v 0.064529 0.078559 0.319167
vn -2.140854 -1.691101 -1.710980
v 0.029135 0.078559 0.319167
vn -2.204411 -2.195662 1.146714
v 0.029135 0.075004 0.344860
vn -0.607256 -3.250031 2.612029
v 0.040933 0.074333 0.349710
vn 0.607335 -3.249981 2.612013
v 0.052732 0.074333 0.349710
vn -1.014310 -0.732264 5.984907
v 0.040934 0.138408 0.361025
vn 1.014510 -0.732238 5.984829
v 0.052732 0.138408 0.361025
vn 0.000133 3.141508 3.141593
v 0.052732 0.161991 0.361025
vn 0.000000 3.141593 3.141593
v 0.040934 0.161991 0.361025
vn 0.000000 3.141593 -3.141593
v 0.040933 0.161991 0.325630
vn 0.000000 3.141593 -3.141593
v 0.052731 0.161991 0.325630
vn 1.004508 0.276939 -6.123435
v 0.052731 0.143305 0.325630
vn -1.004559 0.276930 -6.123420
v 0.040933 0.143305 0.325630
vn 0.596356 -2.199092 -3.339354
v 0.052731 0.079230 0.314316
vn -0.596398 -2.199065 -3.339326
v 0.040932 0.079230 0.314316
vn -1.570834 -1.570793 -1.570754
v 0.025971 0.210296 0.502911
vn -1.570834 1.570793 -1.570754
v 0.025971 0.238619 0.502911
vn -1.570759 1.570799 1.570839
v 0.025974 0.238619 0.599265
vn -1.570759 -1.570799 1.570839
v 0.025974 0.210296 0.599265
vn 1.570834 -1.570792 1.570752
v 0.067705 0.210296 0.599264
vn 1.570834 1.570792 1.570752
v 0.067705 0.238619 0.599264
vn 1.570759 1.570800 -1.570840
v 0.067702 0.238619 0.502910
vn 1.570759 -1.570800 -1.570840
v 0.067702 0.210296 0.502910
vn -2.536467 -1.711811 -2.462235
v 0.028751 0.089479 0.447676
vn -1.301906 1.098181 -1.554828
v 0.028750 0.167275 0.423190
vn -1.833004 2.031348 1.444973
v 0.028752 0.169724 0.491191
vn -3.802902 1.747904 2.403031
v 0.028753 0.113966 0.508331
vn 3.802899 1.747930 2.402842
v 0.064921 0.113966 0.508331
vn 1.833086 2.031346 1.444862
v 0.064921 0.169724 0.491190
vn 1.301820 1.098179 -1.554903
v 0.064919 0.167275 0.423189
vn 2.536468 -1.711845 -2.462384
v 0.064920 0.089479 0.447676
vn 1.635735 0.470172 2.243549
v 0.064923 0.076422 0.561904
vn 1.456472 -2.056404 0.378080
v 0.064922 0.025000 0.530632
vn -1.456451 -2.056415 0.378162
v 0.028753 0.025000 0.530633
vn -1.635611 0.470170 2.243616
v 0.028754 0.076422 0.561905
vn -2.902462 -0.000070 2.356256
v 0.036399 0.188369 0.975000
vn -2.902411 -0.000070 -2.356078
v 0.036391 0.188369 0.676426
vn -2.052361 -2.052395 2.356305
v 0.039460 0.180980 0.975000
vn -2.052361 -2.052371 -2.356212
v 0.039452 0.180980 0.676426
vn 0.000026 -2.902421 2.356141
v 0.046849 0.177919 0.975000
vn -0.000019 -2.902418 -2.356137
v 0.046841 0.177919 0.676426
vn 2.052360 -2.052371 2.356212
v 0.054239 0.180980 0.975000
vn 2.052360 -2.052409 -2.356322
v 0.054231 0.180980 0.676426
vn 2.902411 -0.000069 2.356078
v 0.057300 0.188369 0.975000
vn 2.902449 -0.000069 -2.356233
v 0.057292 0.188369 0.676426
vn 2.052389 2.052301 2.356164
v 0.054239 0.195759 0.975000
vn 2.052389 2.052339 -2.356274
v 0.054231 0.195759 0.676426
vn 0.000026 2.902421 2.356141
v 0.046849 0.198820 0.975000
vn -0.000019 2.902418 -2.356136
v 0.046841 0.198820 0.676426
vn -2.052389 2.052326 2.356258
v 0.039460 0.195759 0.975000
vn -2.052389 2.052302 -2.356165
v 0.039452 0.195759 0.676426
vn -2.902509 -0.000080 2.356332
v 0.037788 0.222650 0.800834
vn -2.902472 -0.000080 -2.356180
v 0.037785 0.222650 0.701224
vn -2.052210 -2.052415 2.356151
v 0.040440 0.216246 0.800834
vn -2.052210 -2.052378 -2.356044
v 0.040438 0.216246 0.701224
vn 0.000019 -2.902566 2.356382
v 0.046845 0.213594 0.800834
vn -0.000165 -2.902783 -2.356377
v 0.046842 0.213594 0.701224
vn 2.052209 -2.052378 2.356043
v 0.053249 0.216246 0.800834
vn 2.051932 -2.052336 -2.356171
v 0.053246 0.216246 0.701223
vn 2.902471 -0.000079 2.356179
v 0.055901 0.222650 0.800834
vn 2.902345 -0.000069 -2.356306
v 0.055899 0.222650 0.701223
vn 2.052437 2.052217 2.356120
v 0.053249 0.229055 0.800834
vn 2.052197 2.052148 -2.356248
v 0.053246 0.229055 0.701223
vn 0.000018 2.902406 2.356116
v 0.046845 0.231708 0.800834
vn -0.000140 2.902980 -2.356111
v 0.046842 0.231708 0.701224
vn -2.052436 2.052255 2.356229
v 0.040440 0.229055 0.800834
vn -2.052571 2.052266 -2.356122
v 0.040438 0.229055 0.701224
vn -1.570796 -1.570769 -1.570752
v 0.038374 0.188391 0.776327
vn -1.570796 1.570770 -1.570754
v 0.038374 0.222628 0.776327
vn -3.274916 2.199834 2.233109
v 0.038375 0.207936 0.811434
vn -0.723243 -0.394647 1.041207
v 0.038376 0.188391 0.833472
vn 0.727872 -0.396826 1.043623
v 0.055315 0.188391 0.833435
vn 3.275104 2.199554 2.233247
v 0.055315 0.207936 0.811433
vn 1.570796 1.570823 -1.570838
v 0.055314 0.222628 0.776327
vn 1.570796 -1.570823 -1.570838
v 0.055314 0.188391 0.776327
vn -2.281813 2.595966 1.190196
v 0.038375 0.222628 0.798778
vn 2.281954 2.596005 1.190042
v 0.055314 0.222628 0.798777
# 140 vertices, 0 vertices normals

f 90//90 89//89 88//88
f 97//97 98//98 90//90
f 95//95 96//96 94//94
f 94//94 93//93 92//92
f 96//96 97//97 87//87
f 89//89 92//92 93//93
f 98//98 95//95 91//91
f 91//91 92//92 89//89
f 96//96 95//95 98//98
f 87//87 88//88 93//93
f 32//32 50//50 29//29
f 29//29 30//30 21//21
f 33//33 30//30 49//49
f 30//30 29//29 50//50
f 20//20 21//21 17//17
f 79//79 80//80 85//85
f 86//86 85//85 84//84
f 82//82 81//81 80//80
f 83//83 84//84 81//81
f 44//44 46//46 52//52
f 50//50 51//51 45//45
f 51//51 52//52 46//46
f 46//46 44//44 43//43
f 81//81 84//84 85//85
f 43//43 44//44 49//49
f 83//83 82//82 79//79
f 126//126 125//125 123//123
f 118//118 117//117 115//115
f 124//124 123//123 121//121
f 116//116 115//115 129//129
f 135//135 134//134 131//131
f 114//114 112//112 110//110
f 100//100 99//99 113//113
f 108//108 107//107 105//105
f 102//102 101//101 99//99
f 110//110 109//109 107//107
f 114//114 113//113 111//111
f 106//106 105//105 103//103
f 104//104 103//103 101//101
f 112//112 111//111 109//109
f 138//138 137//137 140//140
f 130//130 128//128 126//126
f 131//131 132//132 137//137
f 128//128 127//127 125//125
f 120//120 119//119 117//117
f 122//122 121//121 119//119
f 130//130 129//129 127//127
f 137//137 132//132 139//139
f 107//107 109//109 111//111
f 105//105 111//111 113//113
f 101//101 103//103 113//113
f 117//117 119//119 129//129
f 121//121 127//127 129//129
f 123//123 125//125 127//127
f 132//132 131//131 139//139
f 134//134 133//133 131//131
f 133//133 139//139 131//131
f 133//133 136//136 140//140
f 135//135 136//136 133//133
f 62//62 75//75 61//61
f 38//38 41//41 47//47
f 31//31 27//27 26//26
f 2//2 3//3 10//10
f 13//13 16//16 15//15
f 42//42 35//35 48//48
f 40//40 37//37 54//54
f 39//39 53//53 36//36
f 23//23 24//24 15//15
f 9//9 12//12 11//11
f 6//6 7//7 12//12
f 26//26 27//27 24//24
f 55//55 56//56 76//76
f 62//62 64//64 77//77
f 65//65 55//55 76//76
f 51//51 47//47 48//48
f 32//32 38//38 51//51
f 35//35 52//52 48//48
f 35//35 33//33 49//49
f 47//47 51//51 38//38
f 28//28 29//29 20//20
f 19//19 20//20 18//18
f 37//37 38//38 32//32
f 31//31 32//32 29//29
f 8//8 18//18 5//5
f 40//40 41//41 38//38
f 42//42 39//39 36//36
f 4//4 17//17 1//1
f 21//21 22//22 1//1
f 33//33 34//34 25//25
f 35//35 36//36 34//34
f 3//3 2//2 17//17
f 30//30 25//25 22//22
f 4//4 1//1 16//16
f 25//25 26//26 23//23
f 25//25 34//34 26//26
f 22//22 23//23 16//16
f 24//24 19//19 8//8
f 27//27 28//28 19//19
f 8//8 5//5 14//14
f 28//28 27//27 31//31
f 36//36 37//37 31//31
f 36//36 53//53 54//54
f 13//13 14//14 5//5
f 6//6 3//3 4//4
f 9//9 10//10 3//3
f 2//2 7//7 18//18
f 11//11 12//12 7//7
f 40//40 39//39 42//42
f 54//54 53//53 39//39
f 41//41 42//42 48//48
f 69//69 67//67 68//68
f 72//72 69//69 70//70
f 72//72 57//57 69//69
f 71//71 70//70 60//60
f 63//63 59//59 70//70
f 59//59 60//60 70//70
f 74//74 75//75 76//76
f 74//74 61//61 75//75
f 75//75 77//77 78//78
f 56//56 73//73 76//76
f 58//58 57//57 56//56
f 65//65 66//66 58//58
f 63//63 64//64 62//62
f 62//62 61//61 60//60
f 58//58 66//66 67//67
f 69//69 57//57 58//58
f 73//73 72//72 71//71
f 60//60 61//61 74//74
f 56//56 57//57 72//72
f 77//77 68//68 67//67
f 66//66 65//65 78//78
f 64//64 63//63 68//68
f 18//18 7//7 6//6
f 90//90 88//88 87//87
f 97//97 90//90 87//87
f 95//95 94//94 91//91
f 94//94 92//92 91//91
f 96//96 87//87 94//94
f 89//89 93//93 88//88
f 98//98 91//91 90//90
f 91//91 89//89 90//90
f 96//96 98//98 97//97
f 87//87 93//93 94//94
f 29//29 21//21 20//20
f 30//30 50//50 49//49
f 20//20 17//17 18//18
f 79//79 85//85 86//86
f 86//86 84//84 83//83
f 82//82 80//80 79//79
f 83//83 81//81 82//82
f 44//44 52//52 49//49
f 50//50 45//45 43//43
f 51//51 46//46 45//45
f 46//46 43//43 45//45
f 81//81 85//85 80//80
f 43//43 49//49 50//50
f 83//83 79//79 86//86
f 126//126 123//123 124//124
f 118//118 115//115 116//116
f 124//124 121//121 122//122
f 116//116 129//129 130//130
f 135//135 131//131 138//138
f 114//114 110//110 108//108
f 114//114 108//108 106//106
f 114//114 106//106 104//104
f 114//114 104//104 102//102
f 114//114 102//102 100//100
f 100//100 113//113 114//114
f 108//108 105//105 106//106
f 102//102 99//99 100//100
f 110//110 107//107 108//108
f 114//114 111//111 112//112
f 106//106 103//103 104//104
f 104//104 101//101 102//102
f 112//112 109//109 110//110
f 138//138 140//140 136//136
f 138//138 136//136 135//135
f 130//130 126//126 124//124
f 130//130 124//124 122//122
f 130//130 122//122 120//120
f 130//130 120//120 118//118
f 130//130 118//118 116//116
f 131//131 137//137 138//138
f 128//128 125//125 126//126
f 120//120 117//117 118//118
f 122//122 119//119 120//120
f 130//130 127//127 128//128
f 137//137 139//139 140//140
f 107//107 111//111 105//105
f 105//105 113//113 103//103
f 101//101 113//113 99//99
f 117//117 129//129 115//115
f 121//121 129//129 119//119
f 123//123 127//127 121//121
f 133//133 140//140 139//139
f 135//135 133//133 134//134
f 31//31 26//26 34//34
f 2//2 10//10 11//11
f 13//13 15//15 14//14
f 23//23 15//15 16//16
f 9//9 11//11 10//10
f 6//6 12//12 9//9
f 26//26 24//24 23//23
f 62//62 77//77 75//75
f 65//65 76//76 78//78
f 51//51 48//48 52//52
f 32//32 51//51 50//50
f 35//35 49//49 52//52
f 28//28 20//20 19//19
f 19//19 18//18 8//8
f 37//37 32//32 31//31
f 31//31 29//29 28//28
f 40//40 38//38 37//37
f 42//42 36//36 35//35
f 21//21 1//1 17//17
f 33//33 25//25 30//30
f 35//35 34//34 33//33
f 3//3 17//17 4//4
f 30//30 22//22 21//21
f 4//4 16//16 13//13
f 25//25 23//23 22//22
f 22//22 16//16 1//1
f 24//24 8//8 15//15
f 27//27 19//19 24//24
f 8//8 14//14 15//15
f 36//36 31//31 34//34
f 36//36 54//54 37//37
f 13//13 5//5 4//4
f 6//6 4//4 5//5
f 9//9 3//3 6//6
f 2//2 18//18 17//17
f 11//11 7//7 2//2
f 40//40 42//42 41//41
f 54//54 39//39 40//40
f 41//41 48//48 47//47
f 69//69 68//68 70//70
f 72//72 70//70 71//71
f 63//63 70//70 68//68
f 74//74 76//76 73//73
f 75//75 78//78 76//76
f 58//58 56//56 55//55
f 65//65 58//58 55//55
f 63//63 62//62 59//59
f 62//62 60//60 59//59
f 58//58 67//67 69//69
f 73//73 71//71 74//74
f 60//60 74//74 71//71
f 56//56 72//72 73//73
f 77//77 67//67 78//78
f 66//66 78//78 67//67
f 64//64 68//68 77//77
f 18//18 6//6 5//5
# 252 faces, 0 coords texture

# End of File
