####
#
# OBJ File Generated by Meshlab
#
####
# Object m533.obj
#
# Vertices: 32
# Faces: 68
#
####
vn 3.463246 -1.152194 3.546977
v 0.454485 0.875867 0.409059
vn 1.776307 0.249640 1.775775
v 0.487794 0.940909 0.442278
vn 0.875861 4.073874 0.875902
v 0.458760 0.975000 0.413245
vn -2.605976 3.875992 -2.605500
v 0.429726 0.940909 0.384211
vn -3.437057 1.486882 -3.489863
v 0.393106 0.875867 0.347681
vn -3.294868 0.457793 -2.982495
v 0.513424 0.160838 0.438354
vn 0.276837 -3.796362 0.621776
v 0.527202 0.025000 0.481687
vn 2.475168 -0.497002 2.299965
v 0.615957 0.160838 0.525106
vn 3.464154 -1.154515 -3.545790
v 0.454485 0.875867 0.141047
vn 1.775387 0.248899 -1.775387
v 0.487794 0.940909 0.107738
vn 0.875873 4.073908 -0.875873
v 0.458760 0.975000 0.136772
vn -2.605139 3.876644 2.605133
v 0.429726 0.940909 0.165806
vn -3.437895 1.489078 3.488628
v 0.393106 0.875867 0.202425
vn -3.295461 0.456789 2.982174
v 0.513424 0.160838 0.111752
vn 0.276999 -3.795680 -0.622496
v 0.527202 0.025000 0.068330
vn 2.475599 -0.496680 -2.300067
v 0.615957 0.160838 0.025000
vn -3.465341 -1.152194 -3.544882
v 0.186472 0.875867 0.141047
vn -1.775769 0.249647 -1.776295
v 0.153253 0.940909 0.107738
vn -0.875873 4.073908 -0.875873
v 0.182287 0.975000 0.136772
vn 2.605509 3.875985 2.605980
v 0.211321 0.940909 0.165806
vn 3.439179 1.487068 3.487666
v 0.247851 0.875867 0.202425
vn 3.295493 0.457005 2.982263
v 0.127619 0.160838 0.111752
vn -0.276467 -3.796461 -0.622902
v 0.113845 0.025000 0.068330
vn -2.475329 -0.497092 -2.299634
v 0.025000 0.160838 0.025000
vn -3.464432 -1.149876 3.546068
v 0.186472 0.875867 0.409059
vn -1.776690 0.250389 1.776684
v 0.153253 0.940909 0.442278
vn -0.875861 4.073874 0.875902
v 0.182287 0.975000 0.413245
vn 2.606348 3.875332 -2.606348
v 0.211321 0.940909 0.384211
vn 3.438340 1.484874 -3.488899
v 0.247851 0.875867 0.347681
vn 3.294900 0.458009 -2.982584
v 0.127619 0.160838 0.438354
vn -0.276306 -3.797143 0.622183
v 0.113845 0.025000 0.481687
vn -2.474899 -0.497413 2.299531
v 0.025000 0.160838 0.525106
# 32 vertices, 0 vertices normals

f 10//10 2//2 1//1
f 9//9 10//10 1//1
f 11//11 3//3 2//2
f 10//10 11//11 2//2
f 12//12 4//4 3//3
f 11//11 12//12 3//3
f 13//13 5//5 4//4
f 12//12 13//13 4//4
f 14//14 6//6 5//5
f 13//13 14//14 5//5
f 15//15 7//7 6//6
f 14//14 15//15 6//6
f 16//16 8//8 7//7
f 15//15 16//16 7//7
f 9//9 1//1 8//8
f 16//16 9//9 8//8
f 18//18 10//10 9//9
f 17//17 18//18 9//9
f 19//19 11//11 10//10
f 18//18 19//19 10//10
f 20//20 12//12 11//11
f 19//19 20//20 11//11
f 21//21 13//13 12//12
f 20//20 21//21 12//12
f 22//22 14//14 13//13
f 21//21 22//22 13//13
f 23//23 15//15 14//14
f 22//22 23//23 14//14
f 24//24 16//16 15//15
f 23//23 24//24 15//15
f 17//17 9//9 16//16
f 24//24 17//17 16//16
f 26//26 18//18 17//17
f 25//25 26//26 17//17
f 27//27 19//19 18//18
f 26//26 27//27 18//18
f 28//28 20//20 19//19
f 27//27 28//28 19//19
f 29//29 21//21 20//20
f 28//28 29//29 20//20
f 30//30 22//22 21//21
f 29//29 30//30 21//21
f 31//31 23//23 22//22
f 30//30 31//31 22//22
f 32//32 24//24 23//23
f 31//31 32//32 23//23
f 25//25 17//17 24//24
f 32//32 25//25 24//24
f 2//2 26//26 25//25
f 1//1 2//2 25//25
f 3//3 27//27 26//26
f 2//2 3//3 26//26
f 4//4 28//28 27//27
f 3//3 4//4 27//27
f 5//5 29//29 28//28
f 4//4 5//5 28//28
f 6//6 30//30 29//29
f 5//5 6//6 29//29
f 7//7 31//31 30//30
f 6//6 7//7 30//30
f 8//8 32//32 31//31
f 7//7 8//8 31//31
f 1//1 25//25 32//32
f 8//8 1//1 32//32
f 31//31 23//23 7//7
f 23//23 15//15 7//7
f 22//22 30//30 6//6
f 14//14 22//22 6//6
# 68 faces, 0 coords texture

# End of File
