####
#
# OBJ File Generated by Meshlab
#
####
# Object m535.obj
#
# Vertices: 176
# Faces: 320
#
####
vn 1.524554 -2.290145 0.000002
v 0.602904 0.975000 0.349571
vn 3.860516 -4.913556 0.000006
v 0.538101 0.931984 0.349571
vn 5.445409 -2.407162 0.000012
v 0.484141 0.880000 0.349571
vn 1.468128 -2.360997 0.609801
v 0.581219 0.975000 0.445533
vn 3.605619 -4.893703 1.495339
v 0.522293 0.931984 0.421112
vn 5.023291 -2.343772 2.091231
v 0.472640 0.880000 0.400541
vn 1.075007 -2.291811 1.075007
v 0.528728 0.975000 0.528728
vn 2.734308 -4.908152 2.734308
v 0.482875 0.931984 0.482875
vn 3.844538 -2.436755 3.844538
v 0.444723 0.880000 0.444723
vn 1.468124 -2.360996 -0.609801
v 0.581219 0.975000 0.253608
vn 1.077374 -2.290883 -1.075107
v 0.528728 0.975000 0.170413
vn 3.605613 -4.893704 -1.495348
v 0.522293 0.931984 0.278029
vn 2.733228 -4.911177 -2.730352
v 0.482875 0.931984 0.216267
vn 5.023286 -2.343779 -2.091248
v 0.472640 0.880000 0.298600
vn 3.854034 -2.422407 -3.841009
v 0.444723 0.880000 0.254419
vn 5.952004 1.599395 0.000012
v 0.484597 0.835059 0.349571
vn 4.254852 4.430443 0.000007
v 0.507904 0.792904 0.349571
vn 5.511449 1.612634 2.282597
v 0.473755 0.835059 0.400997
vn 3.993965 4.350136 1.638301
v 0.494376 0.792904 0.409560
vn 4.199737 1.646171 4.199737
v 0.445027 0.835059 0.445027
vn 3.010720 4.423244 3.010720
v 0.461544 0.792904 0.461544
vn 5.511441 1.612643 -2.282605
v 0.473755 0.835059 0.298144
vn 4.203057 1.622737 -4.205104
v 0.445027 0.835059 0.254115
vn 3.993968 4.350137 -1.638296
v 0.494376 0.792904 0.289581
vn 2.998742 4.428043 -3.019433
v 0.461544 0.792904 0.237597
vn 3.817257 4.713276 0.000003
v 0.609035 0.735397 0.349571
vn 4.752548 0.850705 0.000001
v 0.674141 0.666237 0.349571
vn 3.562505 4.763259 1.483329
v 0.585728 0.735397 0.447408
vn 4.501227 0.899803 1.869328
v 0.646376 0.666237 0.472539
vn 2.708922 4.697244 2.708922
v 0.533035 0.735397 0.533035
vn 3.354243 0.861397 3.354243
v 0.579091 0.666237 0.579091
vn 3.562507 4.763251 -1.483334
v 0.585728 0.735397 0.251733
vn 2.709712 4.705413 -2.698463
v 0.533035 0.735397 0.166107
vn 4.501235 0.899802 -1.869327
v 0.646376 0.666237 0.226603
vn 3.360136 0.856131 -3.354154
v 0.579091 0.666237 0.120051
vn 5.659230 -2.348112 0.000008
v 0.561813 0.380275 0.349571
vn 5.426827 1.052003 0.000003
v 0.436667 0.096237 0.349571
vn 5.295569 -2.356180 2.191690
v 0.543269 0.380275 0.429776
vn 4.972191 1.026514 2.076148
v 0.429219 0.096237 0.382555
vn 4.000305 -2.354665 4.000305
v 0.499645 0.380275 0.499645
vn 3.845694 1.037607 3.845694
v 0.411131 0.096237 0.411131
vn 5.295569 -2.356180 -2.191684
v 0.543269 0.380275 0.269365
vn 3.999864 -2.351494 -4.002052
v 0.499645 0.380275 0.199496
vn 4.972184 1.026524 -2.076138
v 0.429219 0.096237 0.316587
vn 3.850462 1.044558 -3.831632
v 0.411131 0.096237 0.288011
vn 3.397182 5.187282 0.000006
v 0.476744 0.054083 0.349571
vn 1.034942 2.517046 0.000001
v 0.547475 0.025000 0.349571
vn 3.146324 5.185786 1.300706
v 0.466763 0.054083 0.398109
vn 1.008971 2.601096 0.414377
v 0.530552 0.025000 0.424557
vn 2.385148 5.203949 2.385148
v 0.439504 0.054083 0.439504
vn 0.737389 2.514463 0.737389
v 0.489512 0.025000 0.489512
vn 3.146316 5.185795 -1.300700
v 0.466763 0.054083 0.301032
vn 2.391378 5.196284 -2.394858
v 0.439504 0.054083 0.259637
vn 1.008970 2.601093 -0.414375
v 0.530552 0.025000 0.274584
vn 0.732541 2.515782 -0.736772
v 0.489512 0.025000 0.209629
vn 0.606761 -2.360919 -1.469567
v 0.445533 0.975000 0.117923
vn 0.001482 -2.290983 -1.522938
v 0.349571 0.975000 0.096237
vn 1.492242 -4.893855 -3.606710
v 0.421112 0.931984 0.176848
vn 0.001774 -4.910697 -3.863895
v 0.349571 0.931984 0.161040
vn 2.074057 -2.343421 -5.030496
v 0.400541 0.880000 0.226501
vn 0.008872 -2.421126 -5.441292
v 0.349571 0.880000 0.215000
vn -0.609813 -2.361002 -1.468138
v 0.253608 0.975000 0.117923
vn -1.075090 -2.290882 -1.077372
v 0.170413 0.975000 0.170413
vn -1.495378 -4.893694 -3.605613
v 0.278029 0.931984 0.176848
vn -2.730349 -4.911181 -2.733230
v 0.216267 0.931984 0.216267
vn -2.091274 -2.343836 -5.023274
v 0.298600 0.880000 0.226501
vn -3.841020 -2.422395 -3.854025
v 0.254419 0.880000 0.254419
vn -1.469566 -2.360917 -0.606758
v 0.117923 0.975000 0.253608
vn -1.522938 -2.290983 -0.001479
v 0.096237 0.975000 0.349571
vn -3.606704 -4.893858 -1.492244
v 0.176848 0.931984 0.278029
vn -3.863895 -4.910697 -0.001762
v 0.161040 0.931984 0.349571
vn -5.030491 -2.343428 -2.074072
v 0.226501 0.880000 0.298600
vn -5.441293 -2.421125 -0.008849
v 0.215000 0.880000 0.349571
vn -1.468142 -2.361002 0.609814
v 0.117923 0.975000 0.445533
vn -1.077379 -2.290885 1.075096
v 0.170413 0.975000 0.528728
vn -3.605620 -4.893693 1.495369
v 0.176848 0.931984 0.421112
vn -2.733221 -4.911173 2.730365
v 0.216267 0.931984 0.482875
vn -5.023279 -2.343829 2.091257
v 0.226501 0.880000 0.400541
vn -3.854023 -2.422393 3.841025
v 0.254419 0.880000 0.444723
vn -0.606753 -2.360914 1.469545
v 0.253608 0.975000 0.581219
vn -0.001477 -2.290998 1.522938
v 0.349571 0.975000 0.602904
vn -1.492232 -4.893865 3.606700
v 0.278029 0.931984 0.522293
vn -0.001758 -4.910704 3.863886
v 0.349571 0.931984 0.538101
vn -2.074021 -2.343371 5.030515
v 0.298600 0.880000 0.472640
vn -0.008865 -2.421109 5.441296
v 0.349571 0.880000 0.484141
vn 0.609801 -2.360997 1.468128
v 0.445533 0.975000 0.581219
vn 1.495339 -4.893703 3.605619
v 0.421112 0.931984 0.522293
vn 2.091231 -2.343772 5.023291
v 0.400541 0.880000 0.472640
vn 2.284726 1.611682 -5.510839
v 0.400997 0.835059 0.225387
vn -0.001079 1.621912 -5.946104
v 0.349571 0.835059 0.214544
vn 1.665172 4.350718 -3.982308
v 0.409560 0.792904 0.204765
vn -0.014336 4.426171 -4.256679
v 0.349571 0.792904 0.191237
vn -2.282644 1.612646 -5.511411
v 0.298144 0.835059 0.225387
vn -4.205096 1.622754 -4.203053
v 0.254115 0.835059 0.254115
vn -1.638302 4.350167 -3.993947
v 0.289581 0.792904 0.204765
vn -3.019417 4.428069 -2.998738
v 0.237597 0.792904 0.237597
vn -5.510830 1.611683 -2.284744
v 0.225387 0.835059 0.298144
vn -5.946104 1.621912 0.001103
v 0.214544 0.835059 0.349571
vn -3.982303 4.350725 -1.665169
v 0.204765 0.792904 0.289581
vn -4.256679 4.426171 0.014351
v 0.191237 0.792904 0.349571
vn -5.511419 1.612637 2.282636
v 0.225387 0.835059 0.400997
vn -4.203081 1.622715 4.205088
v 0.254115 0.835059 0.445027
vn -3.993944 4.350166 1.638307
v 0.204765 0.792904 0.409560
vn -2.998752 4.428048 3.019419
v 0.237597 0.792904 0.461544
vn -2.284693 1.611697 5.510860
v 0.298144 0.835059 0.473755
vn 0.001105 1.621909 5.946111
v 0.349571 0.835059 0.484597
vn -1.665183 4.350685 3.982324
v 0.289581 0.792904 0.494376
vn 0.014365 4.426165 4.256680
v 0.349571 0.792904 0.507904
vn 2.282597 1.612634 5.511449
v 0.400997 0.835059 0.473755
vn 1.638301 4.350136 3.993965
v 0.409560 0.792904 0.494376
vn 1.470439 4.763089 -3.568037
v 0.447408 0.735397 0.113413
vn 0.008057 4.704954 -3.824267
v 0.349571 0.735397 0.090107
vn 1.860865 0.899886 -4.504649
v 0.472539 0.666237 0.052765
vn 0.004305 0.856066 -4.748360
v 0.349571 0.666237 0.025000
vn -1.483337 4.763241 -3.562509
v 0.251733 0.735397 0.113413
vn -2.698477 4.705414 -2.709711
v 0.166107 0.735397 0.166107
vn -1.869337 0.899803 -4.501230
v 0.226603 0.666237 0.052765
vn -3.354170 0.856137 -3.360134
v 0.120051 0.666237 0.120051
vn -3.568039 4.763079 -1.470449
v 0.113413 0.735397 0.251733
vn -3.824266 4.704956 -0.008049
v 0.090107 0.735397 0.349571
vn -4.504654 0.899885 -1.860866
v 0.052765 0.666237 0.226603
vn -4.748361 0.856064 -0.004304
v 0.025000 0.666237 0.349571
vn -3.562508 4.763248 1.483332
v 0.113413 0.735397 0.447408
vn -2.709701 4.705412 2.698474
v 0.166107 0.735397 0.533035
vn -4.501223 0.899805 1.869338
v 0.052765 0.666237 0.472539
vn -3.360121 0.856132 3.354169
v 0.120051 0.666237 0.579091
vn -1.470441 4.763087 3.568041
v 0.251733 0.735397 0.585728
vn -0.008056 4.704942 3.824266
v 0.349571 0.735397 0.609035
vn -1.860849 0.899887 4.504660
v 0.226603 0.666237 0.646376
vn -0.004308 0.856059 4.748374
v 0.349571 0.666237 0.674141
vn 1.483329 4.763259 3.562505
v 0.447408 0.735397 0.585728
vn 1.869328 0.899803 4.501227
v 0.472539 0.666237 0.646376
vn 2.194531 -2.356080 -5.294459
v 0.429776 0.380275 0.155872
vn -0.001646 -2.351190 -5.658370
v 0.349571 0.380275 0.137328
vn 2.052288 1.025587 -4.982430
v 0.382555 0.096237 0.269923
vn 0.013860 1.044084 -5.433686
v 0.349571 0.096237 0.262475
vn -2.191683 -2.356186 -5.295565
v 0.269365 0.380275 0.155872
vn -4.002050 -2.351495 -3.999863
v 0.199496 0.380275 0.199496
vn -2.076125 1.026524 -4.972180
v 0.316587 0.096237 0.269923
vn -3.831622 1.044575 -3.850444
v 0.288011 0.096237 0.288011
vn -5.294460 -2.356079 -2.194525
v 0.155872 0.380275 0.269365
vn -5.658371 -2.351188 0.001660
v 0.137328 0.380275 0.349571
vn -4.982425 1.025594 -2.052277
v 0.269923 0.096237 0.316587
vn -5.433687 1.044081 -0.013857
v 0.262475 0.096237 0.349571
vn -5.295566 -2.356186 2.191689
v 0.155872 0.380275 0.429776
vn -3.999865 -2.351496 4.002050
v 0.199496 0.380275 0.499645
vn -4.972188 1.026514 2.076136
v 0.269923 0.096237 0.382555
vn -3.850457 1.044566 3.831629
v 0.288011 0.096237 0.411131
vn -2.194525 -2.356076 5.294463
v 0.269365 0.380275 0.543269
vn 0.001661 -2.351182 5.658375
v 0.349571 0.380275 0.561813
vn -2.052269 1.025593 4.982438
v 0.316587 0.096237 0.429219
vn -0.013870 1.044066 5.433709
v 0.349571 0.096237 0.436667
vn 2.191690 -2.356180 5.295569
v 0.429776 0.380275 0.543269
vn 2.076148 1.026514 4.972191
v 0.382555 0.096237 0.429219
vn 1.304425 5.186167 -3.144253
v 0.398109 0.054083 0.232379
vn -0.002169 5.195374 -3.385370
v 0.349571 0.054083 0.222397
vn 0.420513 2.601065 -1.006482
v 0.424557 0.025000 0.168589
vn -0.003034 2.515726 -1.038885
v 0.349571 0.025000 0.151667
vn -1.300704 5.185797 -3.146307
v 0.301032 0.054083 0.232379
vn -2.394827 5.196300 -2.391384
v 0.259637 0.054083 0.259637
vn -0.414370 2.601084 -1.008961
v 0.274584 0.025000 0.168589
vn -0.736767 2.515783 -0.732541
v 0.209629 0.025000 0.209629
vn -3.144244 5.186177 -1.304418
v 0.232379 0.054083 0.301032
vn -3.385368 5.195376 0.002182
v 0.222397 0.054083 0.349571
vn -1.006482 2.601063 -0.420512
v 0.168589 0.025000 0.274584
vn -1.038886 2.515726 0.003037
v 0.151667 0.025000 0.349571
vn -3.146316 5.185788 1.300710
v 0.232379 0.054083 0.398109
vn -2.391422 5.196277 2.394829
v 0.259637 0.054083 0.439504
vn -1.008961 2.601087 0.414372
v 0.168589 0.025000 0.424557
vn -0.732541 2.515783 0.736767
v 0.209629 0.025000 0.489512
vn -1.304421 5.186178 3.144243
v 0.301032 0.054083 0.466763
vn 0.002189 5.195351 3.385393
v 0.349571 0.054083 0.476744
vn -0.420526 2.601071 1.006491
v 0.274584 0.025000 0.530552
vn 0.003042 2.515705 1.038870
v 0.349571 0.025000 0.547475
vn 1.300706 5.185786 3.146324
v 0.398109 0.054083 0.466763
vn 0.414377 2.601096 1.008971
v 0.424557 0.025000 0.530552
# 176 vertices, 0 vertices normals

f 5//5 2//2 1//1
f 1//1 4//4 5//5
f 8//8 5//5 4//4
f 4//4 7//7 8//8
f 6//6 3//3 2//2
f 2//2 5//5 6//6
f 9//9 6//6 5//5
f 5//5 8//8 9//9
f 12//12 10//10 1//1
f 1//1 2//2 12//12
f 14//14 12//12 2//2
f 2//2 3//3 14//14
f 13//13 11//11 10//10
f 10//10 12//12 13//13
f 15//15 13//13 12//12
f 12//12 14//14 15//15
f 18//18 16//16 3//3
f 3//3 6//6 18//18
f 20//20 18//18 6//6
f 6//6 9//9 20//20
f 19//19 17//17 16//16
f 16//16 18//18 19//19
f 21//21 19//19 18//18
f 18//18 20//20 21//21
f 22//22 14//14 3//3
f 3//3 16//16 22//22
f 24//24 22//22 16//16
f 16//16 17//17 24//24
f 23//23 15//15 14//14
f 14//14 22//22 23//23
f 25//25 23//23 22//22
f 22//22 24//24 25//25
f 28//28 26//26 17//17
f 17//17 19//19 28//28
f 30//30 28//28 19//19
f 19//19 21//21 30//30
f 29//29 27//27 26//26
f 26//26 28//28 29//29
f 31//31 29//29 28//28
f 28//28 30//30 31//31
f 32//32 24//24 17//17
f 17//17 26//26 32//32
f 34//34 32//32 26//26
f 26//26 27//27 34//34
f 33//33 25//25 24//24
f 24//24 32//32 33//33
f 35//35 33//33 32//32
f 32//32 34//34 35//35
f 38//38 36//36 27//27
f 27//27 29//29 38//38
f 40//40 38//38 29//29
f 29//29 31//31 40//40
f 39//39 37//37 36//36
f 36//36 38//38 39//39
f 41//41 39//39 38//38
f 38//38 40//40 41//41
f 42//42 34//34 27//27
f 27//27 36//36 42//42
f 44//44 42//42 36//36
f 36//36 37//37 44//44
f 43//43 35//35 34//34
f 34//34 42//42 43//43
f 45//45 43//43 42//42
f 42//42 44//44 45//45
f 48//48 46//46 37//37
f 37//37 39//39 48//48
f 50//50 48//48 39//39
f 39//39 41//41 50//50
f 49//49 47//47 46//46
f 46//46 48//48 49//49
f 51//51 49//49 48//48
f 48//48 50//50 51//51
f 52//52 44//44 37//37
f 37//37 46//46 52//52
f 54//54 52//52 46//46
f 46//46 47//47 54//54
f 53//53 45//45 44//44
f 44//44 52//52 53//53
f 55//55 53//53 52//52
f 52//52 54//54 55//55
f 58//58 56//56 11//11
f 11//11 13//13 58//58
f 60//60 58//58 13//13
f 13//13 15//15 60//60
f 59//59 57//57 56//56
f 56//56 58//58 59//59
f 61//61 59//59 58//58
f 58//58 60//60 61//61
f 64//64 62//62 57//57
f 57//57 59//59 64//64
f 66//66 64//64 59//59
f 59//59 61//61 66//66
f 65//65 63//63 62//62
f 62//62 64//64 65//65
f 67//67 65//65 64//64
f 64//64 66//66 67//67
f 70//70 68//68 63//63
f 63//63 65//65 70//70
f 72//72 70//70 65//65
f 65//65 67//67 72//72
f 71//71 69//69 68//68
f 68//68 70//70 71//71
f 73//73 71//71 70//70
f 70//70 72//72 73//73
f 76//76 74//74 69//69
f 69//69 71//71 76//76
f 78//78 76//76 71//71
f 71//71 73//73 78//78
f 77//77 75//75 74//74
f 74//74 76//76 77//77
f 79//79 77//77 76//76
f 76//76 78//78 79//79
f 82//82 80//80 75//75
f 75//75 77//77 82//82
f 84//84 82//82 77//77
f 77//77 79//79 84//84
f 83//83 81//81 80//80
f 80//80 82//82 83//83
f 85//85 83//83 82//82
f 82//82 84//84 85//85
f 87//87 86//86 81//81
f 81//81 83//83 87//87
f 88//88 87//87 83//83
f 83//83 85//85 88//88
f 8//8 7//7 86//86
f 86//86 87//87 8//8
f 9//9 8//8 87//87
f 87//87 88//88 9//9
f 89//89 60//60 15//15
f 15//15 23//23 89//89
f 91//91 89//89 23//23
f 23//23 25//25 91//91
f 90//90 61//61 60//60
f 60//60 89//89 90//90
f 92//92 90//90 89//89
f 89//89 91//91 92//92
f 93//93 66//66 61//61
f 61//61 90//90 93//93
f 95//95 93//93 90//90
f 90//90 92//92 95//95
f 94//94 67//67 66//66
f 66//66 93//93 94//94
f 96//96 94//94 93//93
f 93//93 95//95 96//96
f 97//97 72//72 67//67
f 67//67 94//94 97//97
f 99//99 97//97 94//94
f 94//94 96//96 99//99
f 98//98 73//73 72//72
f 72//72 97//97 98//98
f 100//100 98//98 97//97
f 97//97 99//99 100//100
f 101//101 78//78 73//73
f 73//73 98//98 101//101
f 103//103 101//101 98//98
f 98//98 100//100 103//103
f 102//102 79//79 78//78
f 78//78 101//101 102//102
f 104//104 102//102 101//101
f 101//101 103//103 104//104
f 105//105 84//84 79//79
f 79//79 102//102 105//105
f 107//107 105//105 102//102
f 102//102 104//104 107//107
f 106//106 85//85 84//84
f 84//84 105//105 106//106
f 108//108 106//106 105//105
f 105//105 107//107 108//108
f 109//109 88//88 85//85
f 85//85 106//106 109//109
f 110//110 109//109 106//106
f 106//106 108//108 110//110
f 20//20 9//9 88//88
f 88//88 109//109 20//20
f 21//21 20//20 109//109
f 109//109 110//110 21//21
f 111//111 91//91 25//25
f 25//25 33//33 111//111
f 113//113 111//111 33//33
f 33//33 35//35 113//113
f 112//112 92//92 91//91
f 91//91 111//111 112//112
f 114//114 112//112 111//111
f 111//111 113//113 114//114
f 115//115 95//95 92//92
f 92//92 112//112 115//115
f 117//117 115//115 112//112
f 112//112 114//114 117//117
f 116//116 96//96 95//95
f 95//95 115//115 116//116
f 118//118 116//116 115//115
f 115//115 117//117 118//118
f 119//119 99//99 96//96
f 96//96 116//116 119//119
f 121//121 119//119 116//116
f 116//116 118//118 121//121
f 120//120 100//100 99//99
f 99//99 119//119 120//120
f 122//122 120//120 119//119
f 119//119 121//121 122//122
f 123//123 103//103 100//100
f 100//100 120//120 123//123
f 125//125 123//123 120//120
f 120//120 122//122 125//125
f 124//124 104//104 103//103
f 103//103 123//123 124//124
f 126//126 124//124 123//123
f 123//123 125//125 126//126
f 127//127 107//107 104//104
f 104//104 124//124 127//127
f 129//129 127//127 124//124
f 124//124 126//126 129//129
f 128//128 108//108 107//107
f 107//107 127//127 128//128
f 130//130 128//128 127//127
f 127//127 129//129 130//130
f 131//131 110//110 108//108
f 108//108 128//128 131//131
f 132//132 131//131 128//128
f 128//128 130//130 132//132
f 30//30 21//21 110//110
f 110//110 131//131 30//30
f 31//31 30//30 131//131
f 131//131 132//132 31//31
f 133//133 113//113 35//35
f 35//35 43//43 133//133
f 135//135 133//133 43//43
f 43//43 45//45 135//135
f 134//134 114//114 113//113
f 113//113 133//133 134//134
f 136//136 134//134 133//133
f 133//133 135//135 136//136
f 137//137 117//117 114//114
f 114//114 134//134 137//137
f 139//139 137//137 134//134
f 134//134 136//136 139//139
f 138//138 118//118 117//117
f 117//117 137//137 138//138
f 140//140 138//138 137//137
f 137//137 139//139 140//140
f 141//141 121//121 118//118
f 118//118 138//138 141//141
f 143//143 141//141 138//138
f 138//138 140//140 143//143
f 142//142 122//122 121//121
f 121//121 141//141 142//142
f 144//144 142//142 141//141
f 141//141 143//143 144//144
f 145//145 125//125 122//122
f 122//122 142//142 145//145
f 147//147 145//145 142//142
f 142//142 144//144 147//147
f 146//146 126//126 125//125
f 125//125 145//145 146//146
f 148//148 146//146 145//145
f 145//145 147//147 148//148
f 149//149 129//129 126//126
f 126//126 146//146 149//149
f 151//151 149//149 146//146
f 146//146 148//148 151//151
f 150//150 130//130 129//129
f 129//129 149//149 150//150
f 152//152 150//150 149//149
f 149//149 151//151 152//152
f 153//153 132//132 130//130
f 130//130 150//150 153//153
f 154//154 153//153 150//150
f 150//150 152//152 154//154
f 40//40 31//31 132//132
f 132//132 153//153 40//40
f 41//41 40//40 153//153
f 153//153 154//154 41//41
f 155//155 135//135 45//45
f 45//45 53//53 155//155
f 157//157 155//155 53//53
f 53//53 55//55 157//157
f 156//156 136//136 135//135
f 135//135 155//155 156//156
f 158//158 156//156 155//155
f 155//155 157//157 158//158
f 159//159 139//139 136//136
f 136//136 156//156 159//159
f 161//161 159//159 156//156
f 156//156 158//158 161//161
f 160//160 140//140 139//139
f 139//139 159//159 160//160
f 162//162 160//160 159//159
f 159//159 161//161 162//162
f 163//163 143//143 140//140
f 140//140 160//160 163//163
f 165//165 163//163 160//160
f 160//160 162//162 165//165
f 164//164 144//144 143//143
f 143//143 163//163 164//164
f 166//166 164//164 163//163
f 163//163 165//165 166//166
f 167//167 147//147 144//144
f 144//144 164//164 167//167
f 169//169 167//167 164//164
f 164//164 166//166 169//169
f 168//168 148//148 147//147
f 147//147 167//167 168//168
f 170//170 168//168 167//167
f 167//167 169//169 170//170
f 171//171 151//151 148//148
f 148//148 168//168 171//171
f 173//173 171//171 168//168
f 168//168 170//170 173//173
f 172//172 152//152 151//151
f 151//151 171//171 172//172
f 174//174 172//172 171//171
f 171//171 173//173 174//174
f 175//175 154//154 152//152
f 152//152 172//172 175//175
f 176//176 175//175 172//172
f 172//172 174//174 176//176
f 50//50 41//41 154//154
f 154//154 175//175 50//50
f 51//51 50//50 175//175
f 175//175 176//176 51//51
# 320 faces, 0 coords texture

# End of File
