####
#
# OBJ File Generated by Meshlab
#
####
# Object m693.obj
#
# Vertices: 196
# Faces: 259
#
####
vn -0.000000 -1.321541 -2.525873
v 0.067876 0.174146 0.025000
vn -1.039356 -1.344517 -2.321785
v 0.051468 0.174146 0.028590
vn -1.897062 -1.397592 -1.754129
v 0.037558 0.174146 0.038814
vn -2.446406 -1.447445 -0.936412
v 0.028264 0.174146 0.054115
vn -2.633196 -1.467194 0.000003
v 0.025000 0.174146 0.072163
vn -2.446398 -1.447437 0.936417
v 0.028264 0.174146 0.090212
vn -1.897076 -1.397614 1.754138
v 0.037558 0.174146 0.105512
vn -1.039359 -1.344516 2.321780
v 0.051468 0.174146 0.115736
vn -0.000001 -1.321562 2.525890
v 0.067876 0.174146 0.119326
vn 1.039356 -1.344515 2.321781
v 0.084283 0.174146 0.115736
vn 1.897083 -1.397607 1.754122
v 0.098193 0.174146 0.105512
vn 2.446421 -1.447469 0.936424
v 0.107487 0.174146 0.090212
vn 2.633189 -1.467187 -0.000002
v 0.110751 0.174146 0.072163
vn 2.446430 -1.447475 -0.936412
v 0.107487 0.174146 0.054115
vn 1.897070 -1.397590 -1.754115
v 0.098193 0.174146 0.038814
vn 1.039351 -1.344516 -2.321786
v 0.084283 0.174146 0.028590
vn 1.039354 -4.938650 2.321803
v 0.053519 0.174146 0.034037
vn 0.000003 -4.961640 2.525874
v 0.067876 0.174146 0.030895
vn 1.897049 -4.885602 1.754130
v 0.041348 0.174146 0.042982
vn 2.446420 -4.835725 0.936409
v 0.033215 0.174146 0.056371
vn 2.633190 -4.815999 -0.000001
v 0.030359 0.174146 0.072163
vn 2.446419 -4.835730 -0.936403
v 0.033215 0.174146 0.087956
vn 1.897007 -4.885633 -1.754138
v 0.041348 0.174146 0.101344
vn 1.039384 -4.938592 -2.321845
v 0.053519 0.174146 0.110289
vn 0.000003 -4.961699 -2.525821
v 0.067876 0.174146 0.113431
vn -1.039383 -4.938590 -2.321847
v 0.082232 0.174146 0.110289
vn -1.897005 -4.885622 -1.754153
v 0.094403 0.174146 0.101344
vn -2.446406 -4.835739 -0.936418
v 0.102536 0.174146 0.087956
vn -2.633173 -4.816023 0.000002
v 0.105392 0.174146 0.072163
vn -2.446404 -4.835740 0.936422
v 0.102536 0.174146 0.056371
vn -1.897049 -4.885591 1.754143
v 0.094403 0.174146 0.042982
vn -1.039352 -4.938645 2.321807
v 0.082232 0.174146 0.034037
vn 0.032376 -0.081446 0.148077
v 0.067876 0.249178 0.072163
vn 0.290129 -2.244580 4.080956
v 0.067876 0.242973 0.068750
vn -0.784982 -1.219335 2.103900
v 0.069078 0.242894 0.068970
vn -1.664736 -1.356305 1.974153
v 0.070544 0.241631 0.069228
vn -2.191444 -1.562510 0.898235
v 0.070797 0.241247 0.069271
vn -2.309842 -1.322910 1.215710
v 0.072220 0.239775 0.070184
vn -2.433902 -1.559302 0.072839
v 0.073415 0.237658 0.070943
vn -2.603734 -1.301712 0.315276
v 0.074277 0.236374 0.072163
vn -2.217796 -1.538931 -0.753072
v 0.075112 0.234284 0.073330
vn -2.534782 -1.300431 -0.615410
v 0.075660 0.232327 0.075710
vn -1.830444 -1.641954 -1.459517
v 0.075820 0.231355 0.076390
vn -1.489145 -1.658808 -0.871131
v 0.075152 0.229640 0.079156
vn -1.754830 -1.172525 -1.419564
v 0.074779 0.229652 0.079757
vn -1.336869 -1.940986 -1.393688
v 0.073479 0.227841 0.081888
vn -0.938864 -1.163940 -1.937137
v 0.071862 0.228344 0.082750
vn -0.270440 -1.684429 -1.496351
v 0.070850 0.227750 0.083298
vn -0.183524 -1.240184 -2.254922
v 0.067876 0.227415 0.084133
vn 0.323283 -1.942455 -1.978614
v 0.067751 0.227301 0.084169
vn -0.284292 -1.632404 -1.204745
v 0.064744 0.227686 0.083299
vn 0.928713 -1.162900 -1.938860
v 0.063857 0.228176 0.082835
vn 0.320754 -1.964499 -1.921567
v 0.062022 0.227555 0.081889
vn 1.779449 -1.181812 -1.421004
v 0.060861 0.229338 0.079879
vn 0.777455 -1.635495 -1.133888
v 0.060438 0.229365 0.079157
vn 0.411510 -1.673644 -2.357918
v 0.059674 0.230920 0.076390
vn 2.552379 -1.307825 -0.612044
v 0.059822 0.231743 0.075833
vn 0.939041 -1.505732 -1.943623
v 0.060471 0.233948 0.073329
vn 2.589798 -1.294864 0.306681
v 0.061256 0.235940 0.072163
vn 1.791208 -1.560674 -1.594453
v 0.062072 0.237129 0.070941
vn 2.315012 -1.326794 1.222733
v 0.063400 0.239491 0.070124
vn 1.664361 -1.355047 1.971356
v 0.065180 0.241553 0.069198
vn 2.180302 -1.538923 -0.899983
v 0.064778 0.240946 0.069269
vn 1.057797 -1.898784 3.338253
v 0.066657 0.242813 0.068929
vn 1.525876 -2.982317 3.271715
v 0.067742 0.242874 0.068725
vn 0.786305 1.218970 -2.102930
v 0.069049 0.253762 0.069046
vn 0.123919 1.203193 -2.187628
v 0.067876 0.253836 0.068829
vn 1.664160 1.356281 -1.974414
v 0.070478 0.252536 0.069300
vn 3.953900 1.597419 -3.497283
v 0.070753 0.252119 0.069348
vn 2.310657 1.323300 -1.216185
v 0.072127 0.250695 0.070226
vn 4.961471 1.572928 -1.944227
v 0.073345 0.248537 0.070997
vn 2.602177 1.301030 -0.314894
v 0.074165 0.247318 0.072163
vn 5.293850 1.578389 0.130930
v 0.075018 0.245179 0.073361
vn 2.535187 1.300606 0.614926
v 0.075551 0.243282 0.075660
vn 4.881198 1.671946 2.221696
v 0.075723 0.242241 0.076387
vn 4.122877 1.709748 2.570598
v 0.075058 0.240554 0.079121
vn 1.757202 1.173578 1.420514
v 0.074712 0.240562 0.079683
vn 2.855086 1.945017 4.150310
v 0.073408 0.238733 0.081827
vn 0.937588 1.163655 1.937019
v 0.071830 0.239229 0.082665
vn 1.430466 1.709542 6.111730
v 0.070807 0.238632 0.083218
vn 0.184550 1.240468 2.255416
v 0.067876 0.238291 0.084047
vn -1.198147 1.969558 5.002590
v 0.067745 0.238170 0.084085
vn -1.180664 1.674024 3.977098
v 0.064772 0.238562 0.083218
vn -0.927201 1.162374 1.938214
v 0.063886 0.239049 0.082757
vn -3.026863 1.969609 3.526370
v 0.062079 0.238431 0.081829
vn -1.781261 1.182539 1.421381
v 0.060920 0.240224 0.079814
vn -3.796614 1.656012 1.980214
v 0.060517 0.240253 0.079122
vn -3.460842 1.690085 1.597166
v 0.059757 0.241782 0.076387
vn -2.552873 1.308051 0.612022
v 0.059916 0.242666 0.075790
vn -3.556480 1.538482 0.210777
v 0.060550 0.244813 0.073360
vn -2.588357 1.294225 -0.306225
v 0.061352 0.246851 0.072163
vn -3.472324 1.577384 -1.062747
v 0.062128 0.247980 0.070994
vn -2.315902 1.327168 -1.223088
v 0.063486 0.250394 0.070163
vn -1.664048 1.354618 -1.970524
v 0.065243 0.252451 0.069267
vn -2.749519 1.574094 -2.188231
v 0.064807 0.251792 0.069346
vn -0.787451 1.216730 -2.097874
v 0.066685 0.253676 0.069002
vn -0.575847 1.814472 -4.251066
v 0.067735 0.253731 0.068803
vn -0.614622 0.144471 -2.808764
v 0.065190 0.241583 0.069209
vn -0.626589 0.292767 -2.421792
v 0.066679 0.242927 0.068986
vn -0.299164 0.058133 -1.430385
v 0.067742 0.243049 0.068726
vn -0.526228 0.025221 -3.364182
v 0.065255 0.252486 0.069281
vn -0.714542 0.026933 -3.687242
v 0.066708 0.253797 0.069063
vn -0.412684 0.011388 -1.627897
v 0.067735 0.253915 0.068804
vn 0.378397 0.018079 -2.501933
v 0.069093 0.242814 0.068929
vn 0.363070 0.017502 -2.400545
v 0.067876 0.242965 0.068746
vn -0.191683 -1.136935 -2.574285
v 0.070615 0.241429 0.069149
vn 0.327687 -0.208332 -2.499369
v 0.070797 0.241147 0.069270
vn 0.576606 0.029865 -3.814016
v 0.067876 0.253827 0.068825
vn 0.562292 0.029051 -3.709799
v 0.069065 0.253679 0.069003
vn 1.486915 0.026635 -2.908421
v 0.070552 0.252326 0.069219
vn 0.357219 0.005291 -0.546413
v 0.070754 0.252013 0.069347
vn 1.741113 0.228725 -2.239581
v 0.072177 0.239866 0.070203
vn 1.407178 0.030419 -2.137825
v 0.073415 0.237689 0.070943
vn 1.829596 0.026175 -2.906648
v 0.072083 0.250788 0.070246
vn 0.303406 0.004428 -0.496455
v 0.073345 0.248570 0.070997
vn 2.122808 -0.271586 -1.922072
v 0.074340 0.236250 0.072163
vn 2.107547 0.008982 -1.486809
v 0.075114 0.234042 0.073330
vn 2.832125 0.029872 -1.884251
v 0.074229 0.247191 0.072163
vn 0.473421 0.004941 -0.303418
v 0.075020 0.244925 0.073361
vn 2.805973 0.496780 -0.193558
v 0.075595 0.232467 0.075680
vn 2.445878 0.056023 -0.513673
v 0.075819 0.231481 0.076390
vn 3.294130 0.028877 -0.900899
v 0.075485 0.243425 0.075630
vn 0.616423 0.005416 -0.185924
v 0.075722 0.242375 0.076387
vn 2.083842 0.018657 0.514773
v 0.075153 0.229512 0.079156
vn 0.965443 0.009072 0.240657
v 0.075059 0.240418 0.079122
vn 2.056080 0.141874 1.346632
v 0.074765 0.229693 0.079741
vn 1.847969 0.024360 1.147260
v 0.073478 0.227970 0.081887
vn 3.234170 0.032967 2.031823
v 0.074697 0.240603 0.079667
vn 0.826325 0.008120 0.499896
v 0.073408 0.238869 0.081826
vn 1.140547 -0.166867 2.094680
v 0.071878 0.228260 0.082793
vn 0.993211 -0.017849 1.845215
v 0.070851 0.227597 0.083299
vn 1.798109 0.031971 3.447152
v 0.071847 0.239141 0.082710
vn 0.455321 0.008764 0.941338
v 0.070808 0.238470 0.083219
vn 0.409959 0.012032 1.518277
v 0.071063 0.174146 0.083694
vn -0.433196 0.034942 4.543818
v 0.067784 0.174146 0.084581
vn 1.867230 0.011006 2.959006
v 0.067876 0.227583 0.084041
vn 0.728822 0.006022 0.718393
v 0.067751 0.227476 0.084168
vn 3.021471 0.205033 5.213458
v 0.067876 0.238468 0.083949
vn 2.013513 0.255900 2.393387
v 0.067744 0.238355 0.084083
vn -0.843539 0.022970 3.026137
v 0.064604 0.174146 0.083694
vn -0.416691 0.011767 1.445364
v 0.064743 0.227511 0.083300
vn -0.457200 0.011902 1.572269
v 0.064772 0.238378 0.083220
vn -1.101036 0.119789 2.124471
v 0.063865 0.228219 0.082813
vn -0.841650 0.024285 1.624362
v 0.062023 0.227678 0.081889
vn -1.806579 0.029289 3.440703
v 0.063895 0.239094 0.082734
vn -0.587658 0.009594 1.172719
v 0.062079 0.238561 0.081828
vn -2.212873 -0.329722 1.087504
v 0.060814 0.229204 0.079931
vn -1.395825 -0.059041 0.775267
v 0.060437 0.229182 0.079157
vn -3.302999 0.028773 1.844705
v 0.060870 0.240082 0.079869
vn -1.394999 0.012191 0.661453
v 0.060515 0.240060 0.079123
vn -1.005652 0.007761 0.281992
v 0.059675 0.231039 0.076390
vn -2.017844 0.016414 0.570045
v 0.059758 0.241908 0.076387
vn -2.749951 -0.105507 -0.814382
v 0.059807 0.231712 0.075839
vn -0.865264 0.004181 -0.221003
v 0.060470 0.233806 0.073329
vn -3.320127 0.025130 -0.789653
v 0.059899 0.242630 0.075797
vn -2.175632 0.016494 -0.566463
v 0.060549 0.244663 0.073360
vn -2.598197 0.348070 -1.246046
v 0.061312 0.236052 0.072163
vn -0.707839 0.021261 -0.444463
v 0.062073 0.237356 0.070942
vn -2.791152 0.025503 -1.894861
v 0.061414 0.246973 0.072163
vn -1.975343 0.017379 -1.192467
v 0.062130 0.248219 0.070996
vn -1.325372 -0.184136 -2.555461
v 0.063363 0.239409 0.070107
vn -0.443013 -0.003905 -0.725639
v 0.064778 0.240858 0.069268
vn -1.838204 0.023862 -2.854195
v 0.063445 0.250305 0.070144
vn -1.172495 0.016143 -1.970184
v 0.064806 0.251699 0.069345
vn -0.000220 1.746919 -2.397221
v 0.067287 0.975000 0.073962
vn 1.288830 3.694900 -2.739400
v 0.067886 0.975000 0.074473
vn 1.842874 1.863539 -1.702261
v 0.068653 0.975000 0.074608
vn 2.865535 3.659577 -1.022651
v 0.068733 0.975000 0.075440
vn 2.565828 1.927875 0.079610
v 0.069219 0.975000 0.076169
vn 2.811680 3.729794 1.083492
v 0.068733 0.975000 0.076808
vn 1.666996 1.742589 1.711321
v 0.068653 0.975000 0.077729
vn 1.205555 3.889879 2.672894
v 0.067886 0.975000 0.077775
vn -0.000784 1.593844 2.231220
v 0.067287 0.975000 0.078375
vn -1.205024 3.888355 2.673490
v 0.066688 0.975000 0.077775
vn -1.667049 1.740375 1.710004
v 0.065920 0.975000 0.077729
vn -2.812189 3.726161 1.084036
v 0.065841 0.975000 0.076808
vn -2.564618 1.924515 0.079451
v 0.065354 0.975000 0.076169
vn -2.866073 3.655858 -1.022948
v 0.065841 0.975000 0.075440
vn -1.842737 1.861184 -1.701080
v 0.065920 0.975000 0.074608
vn -1.289009 3.694385 -2.739387
v 0.066688 0.975000 0.074473
vn -0.012086 -0.389252 -6.151705
v 0.067876 0.027487 0.067184
vn -1.095594 -2.652174 -2.808510
v 0.064217 0.025000 0.067738
vn -4.236517 -0.459978 -4.378916
v 0.060978 0.027487 0.069898
vn -2.171054 -2.370869 -0.244741
v 0.058957 0.025000 0.072734
vn -3.642921 -2.422986 0.582365
v 0.058121 0.027487 0.076451
vn -0.057241 -0.411252 0.017215
v 0.058957 0.025000 0.079800
vn -2.109116 -2.572790 2.248104
v 0.060978 0.027487 0.083003
vn -0.017014 -0.355170 0.039935
v 0.064217 0.025000 0.084797
vn -0.013609 -2.592074 3.083453
v 0.067876 0.027487 0.085717
vn 0.024015 -0.385667 0.045691
v 0.071654 0.025000 0.084797
vn 2.110383 -2.606197 2.275193
v 0.074773 0.027487 0.083003
vn 0.080112 -0.482621 0.023123
v 0.076914 0.025000 0.079800
vn 3.675165 -2.468046 0.587799
v 0.077630 0.027487 0.076451
vn 2.159045 -2.323767 -0.247695
v 0.076914 0.025000 0.072734
vn 4.247161 -0.400318 -4.426822
v 0.074773 0.027487 0.069898
vn 1.108764 -2.631631 -2.797362
v 0.071654 0.025000 0.067738
# 196 vertices, 0 vertices normals

f 187//187 186//186 185//185
f 193//193 192//192 191//191
f 196//196 195//195 194//194
f 184//184 183//183 182//182
f 189//189 188//188 187//187
f 191//191 190//190 189//189
f 191//191 189//189 187//187
f 182//182 181//181 196//196
f 184//184 182//182 196//196
f 191//191 187//187 185//185
f 193//193 191//191 185//185
f 184//184 196//196 194//194
f 185//185 184//184 194//194
f 194//194 193//193 185//185
f 48//48 80//80 138//138
f 48//48 138//138 139//139
f 136//136 48//48 139//139
f 139//139 137//137 136//136
f 170//170 169//169 168//168
f 178//178 177//177 176//176
f 180//180 179//179 178//178
f 168//168 167//167 166//166
f 176//176 175//175 174//174
f 172//172 171//171 170//170
f 174//174 173//173 172//172
f 166//166 165//165 180//180
f 168//168 166//166 180//180
f 168//168 180//180 178//178
f 170//170 168//168 178//178
f 170//170 178//178 176//176
f 174//174 172//172 170//170
f 176//176 174//174 170//170
f 35//35 34//34 18//18
f 32//32 35//35 18//18
f 36//36 35//35 32//32
f 31//31 36//36 32//32
f 31//31 30//30 38//38
f 37//37 36//36 31//31
f 38//38 37//37 31//31
f 30//30 29//29 40//40
f 39//39 38//38 30//30
f 40//40 39//39 30//30
f 29//29 28//28 42//42
f 41//41 40//40 29//29
f 42//42 41//41 29//29
f 28//28 27//27 45//45
f 28//28 45//45 44//44
f 43//43 42//42 28//28
f 44//44 43//43 28//28
f 45//45 27//27 26//26
f 46//46 45//45 26//26
f 26//26 47//47 46//46
f 26//26 25//25 49//49
f 48//48 47//47 26//26
f 49//49 48//48 26//26
f 25//25 24//24 52//52
f 25//25 52//52 51//51
f 50//50 49//49 25//25
f 51//51 50//50 25//25
f 24//24 23//23 54//54
f 53//53 52//52 24//24
f 54//54 53//53 24//24
f 54//54 23//23 22//22
f 55//55 54//54 22//22
f 56//56 55//55 22//22
f 57//57 56//56 22//22
f 57//57 22//22 21//21
f 58//58 57//57 21//21
f 59//59 58//58 21//21
f 59//59 21//21 20//20
f 60//60 59//59 20//20
f 61//61 60//60 20//20
f 61//61 20//20 19//19
f 63//63 61//61 19//19
f 62//62 63//63 19//19
f 62//62 19//19 17//17
f 64//64 62//62 17//17
f 64//64 17//17 18//18
f 18//18 34//34 65//65
f 65//65 64//64 18//18
f 34//34 33//33 64//64
f 64//64 65//65 34//34
f 1//1 67//67 66//66
f 66//66 16//16 1//1
f 16//16 66//66 68//68
f 68//68 15//15 16//16
f 70//70 14//14 15//15
f 69//69 70//70 15//15
f 68//68 69//69 15//15
f 72//72 13//13 14//14
f 71//71 72//72 14//14
f 70//70 71//71 14//14
f 74//74 12//12 13//13
f 73//73 74//74 13//13
f 72//72 73//73 13//13
f 77//77 11//11 12//12
f 76//76 77//77 12//12
f 75//75 76//76 12//12
f 74//74 75//75 12//12
f 10//10 11//11 77//77
f 78//78 79//79 10//10
f 77//77 78//78 10//10
f 81//81 9//9 10//10
f 80//80 81//81 10//10
f 79//79 80//80 10//10
f 84//84 8//8 9//9
f 83//83 84//84 9//9
f 82//82 83//83 9//9
f 9//9 81//81 82//82
f 86//86 7//7 8//8
f 85//85 86//86 8//8
f 8//8 84//84 85//85
f 6//6 7//7 86//86
f 6//6 86//86 87//87
f 88//88 89//89 6//6
f 87//87 88//88 6//6
f 5//5 6//6 89//89
f 90//90 91//91 5//5
f 89//89 90//90 5//5
f 4//4 5//5 91//91
f 92//92 93//93 4//4
f 91//91 92//92 4//4
f 3//3 4//4 93//93
f 95//95 94//94 3//3
f 93//93 95//95 3//3
f 2//2 3//3 94//94
f 94//94 96//96 2//2
f 1//1 2//2 96//96
f 97//97 67//67 1//1
f 96//96 97//97 1//1
f 60//60 161//161 162//162
f 60//60 162//162 182//182
f 183//183 60//60 182//182
f 163//163 92//92 179//179
f 164//164 163//163 179//179
f 179//179 180//180 164//164
f 58//58 157//157 158//158
f 58//58 158//158 183//183
f 184//184 58//58 183//183
f 159//159 90//90 178//178
f 160//160 159//159 178//178
f 178//178 179//179 160//160
f 56//56 153//153 154//154
f 56//56 154//154 184//184
f 185//185 56//56 184//184
f 177//177 178//178 156//156
f 177//177 156//156 155//155
f 155//155 88//88 177//177
f 185//185 186//186 55//55
f 55//55 151//151 185//185
f 152//152 87//87 176//176
f 176//176 177//177 152//152
f 148//148 186//186 187//187
f 53//53 147//147 148//148
f 187//187 53//53 148//148
f 149//149 85//85 175//175
f 176//176 150//150 149//149
f 175//175 176//176 149//149
f 187//187 188//188 51//51
f 144//144 187//187 51//51
f 51//51 143//143 144//144
f 145//145 83//83 174//174
f 175//175 146//146 145//145
f 145//145 174//174 175//175
f 50//50 141//141 140//140
f 135//135 50//50 140//140
f 140//140 188//188 189//189
f 189//189 135//135 140//140
f 142//142 82//82 173//173
f 173//173 174//174 142//142
f 189//189 190//190 134//134
f 134//134 135//135 189//189
f 80//80 172//172 173//173
f 138//138 80//80 173//173
f 173//173 139//139 138//138
f 131//131 190//190 191//191
f 46//46 130//130 131//131
f 191//191 46//46 131//131
f 172//172 133//133 132//132
f 132//132 78//78 171//171
f 171//171 172//172 132//132
f 191//191 192//192 44//44
f 127//127 191//191 44//44
f 44//44 126//126 127//127
f 171//171 129//129 128//128
f 170//170 171//171 128//128
f 128//128 76//76 170//170
f 124//124 192//192 193//193
f 193//193 43//43 124//124
f 170//170 125//125 75//75
f 75//75 169//169 170//170
f 121//121 193//193 194//194
f 121//121 194//194 41//41
f 41//41 120//120 121//121
f 169//169 123//123 122//122
f 169//169 122//122 73//73
f 168//168 169//169 73//73
f 117//117 194//194 195//195
f 117//117 195//195 39//39
f 39//39 116//116 117//117
f 168//168 119//119 118//118
f 71//71 167//167 168//168
f 118//118 71//71 168//168
f 113//113 195//195 196//196
f 113//113 196//196 37//37
f 37//37 112//112 113//113
f 167//167 115//115 114//114
f 167//167 114//114 69//69
f 166//166 167//167 69//69
f 65//65 105//105 104//104
f 65//65 104//104 106//106
f 107//107 196//196 181//181
f 65//65 106//106 107//107
f 181//181 65//65 107//107
f 97//97 165//165 166//166
f 166//166 111//111 110//110
f 166//166 110//110 109//109
f 108//108 97//97 166//166
f 109//109 108//108 166//166
f 98//98 99//99 100//100
f 63//63 98//98 100//100
f 63//63 100//100 181//181
f 182//182 63//63 181//181
f 165//165 103//103 102//102
f 180//180 165//165 102//102
f 101//101 95//95 180//180
f 102//102 101//101 180//180
f 5//5 21//21 22//22
f 6//6 5//5 22//22
f 6//6 22//22 23//23
f 7//7 6//6 23//23
f 7//7 23//23 24//24
f 8//8 7//7 24//24
f 8//8 24//24 25//25
f 9//9 8//8 25//25
f 10//10 9//9 25//25
f 10//10 25//25 26//26
f 11//11 10//10 26//26
f 11//11 26//26 27//27
f 12//12 11//11 27//27
f 12//12 27//27 28//28
f 13//13 12//12 28//28
f 20//20 21//21 5//5
f 20//20 5//5 4//4
f 19//19 20//20 4//4
f 19//19 4//4 3//3
f 17//17 19//19 3//3
f 17//17 3//3 2//2
f 18//18 17//17 2//2
f 18//18 2//2 1//1
f 18//18 1//1 16//16
f 32//32 18//18 16//16
f 32//32 16//16 15//15
f 31//31 32//32 15//15
f 31//31 15//15 14//14
f 30//30 31//31 14//14
f 30//30 14//14 13//13
f 29//29 30//30 13//13
f 28//28 29//29 13//13
# 259 faces, 0 coords texture

# End of File
