####
#
# OBJ File Generated by Meshlab
#
####
# Object m782.obj
#
# Vertices: 40
# Faces: 46
#
####
vn -1.668653 1.717858 1.559677
v 0.119962 0.404848 0.062985
vn 1.668653 1.730698 1.566878
v 0.195932 0.404848 0.062985
vn 1.478324 1.430800 -1.567688
v 0.195932 0.404848 0.025000
vn -1.478324 1.420719 -1.560480
v 0.119962 0.404848 0.025000
vn 0.000000 1.570796 0.000000
v 0.974620 0.423840 0.043992
vn 0.000000 1.570796 0.000000
v 0.025000 0.423840 0.043992
vn 0.000000 1.570796 -0.000000
v 0.025000 0.423840 0.081977
vn 0.000000 1.570796 0.000000
v 0.974620 0.423840 0.081977
vn 0.000000 0.000000 0.000000
v 0.975000 0.252149 0.100970
vn 0.000000 0.000000 0.000000
v 0.025760 0.252149 0.100970
vn 3.123370 -0.315579 -3.115652
v 0.196691 0.195932 0.044372
vn 1.472919 0.158484 1.559681
v 0.196691 0.195932 0.083497
vn -3.123370 -0.321424 -3.134911
v 0.120722 0.195932 0.044372
vn -1.472919 0.148482 1.566883
v 0.120722 0.195932 0.083497
vn 1.478324 1.420719 -1.560480
v 0.879658 0.404848 0.025000
vn -1.478324 1.430806 -1.567693
v 0.803689 0.404848 0.025000
vn -1.668653 1.730706 1.566883
v 0.803689 0.404848 0.062985
vn 1.668653 1.717858 1.559677
v 0.879658 0.404848 0.062985
vn 3.123370 -0.321424 -3.134911
v 0.878898 0.195932 0.044372
vn -3.123370 -0.315575 -3.115639
v 0.802929 0.195932 0.044372
vn 1.472919 0.148482 1.566883
v 0.878898 0.195932 0.083497
vn -1.472919 0.158490 1.559677
v 0.802929 0.195932 0.083497
vn 0.000000 1.567153 1.570796
v 0.025000 0.214924 0.347871
vn 0.000000 0.000000 1.570796
v 0.025000 0.176939 0.347871
vn 0.000000 0.000000 1.570796
v 0.974620 0.176939 0.347871
vn 0.000000 1.572619 1.570796
v 0.974620 0.214924 0.347871
vn 0.000000 1.568974 0.000000
v 0.975000 0.214924 0.139334
vn 0.000000 1.574439 0.000000
v 0.025760 0.214924 0.139334
vn 1.681436 -0.165502 -1.556797
v 0.879658 0.025000 0.063365
vn -1.681436 -0.181430 -1.565581
v 0.803689 0.025000 0.063365
vn 1.570790 0.000000 1.566300
v 0.879658 0.195932 0.309886
vn 1.570793 0.002543 1.567937
v 0.879658 0.025000 0.309886
vn -1.570790 0.000000 1.575293
v 0.803689 0.195932 0.309886
vn -1.570793 -0.002543 1.573655
v 0.803689 0.025000 0.309886
vn 1.681436 -0.181419 -1.565575
v 0.195932 0.025000 0.063365
vn -1.681436 -0.165502 -1.556797
v 0.119962 0.025000 0.063365
vn 1.570790 0.000000 1.575287
v 0.195932 0.195932 0.309886
vn 1.570793 -0.002540 1.573652
v 0.195932 0.025000 0.309886
vn -1.570793 0.002543 1.567937
v 0.119962 0.025000 0.309886
vn -1.570790 0.000000 1.566300
v 0.119962 0.195932 0.309886
# 40 vertices, 0 vertices normals

f 1//1 2//2 3//3
f 5//5 6//6 7//7
f 7//7 8//8 9//9
f 7//7 10//10 9//9
f 11//11 3//3 2//2
f 11//11 13//13 4//4
f 12//12 2//2 1//1
f 13//13 14//14 1//1
f 15//15 16//16 17//17
f 19//19 20//20 16//16
f 19//19 15//15 18//18
f 21//21 18//18 17//17
f 20//20 22//22 17//17
f 23//23 24//24 25//25
f 27//27 28//28 23//23
f 20//20 19//19 29//29
f 19//19 31//31 32//32
f 33//33 34//34 32//32
f 20//20 30//30 34//34
f 11//11 35//35 36//36
f 11//11 37//37 38//38
f 13//13 36//36 39//39
f 40//40 39//39 38//38
f 1//1 3//3 4//4
f 5//5 7//7 8//8
f 7//7 9//9 10//10
f 7//7 9//9 8//8
f 11//11 2//2 12//12
f 11//11 4//4 3//3
f 12//12 1//1 14//14
f 13//13 1//1 4//4
f 15//15 17//17 18//18
f 19//19 16//16 15//15
f 19//19 18//18 21//21
f 21//21 17//17 22//22
f 20//20 17//17 16//16
f 23//23 25//25 26//26
f 27//27 23//23 26//26
f 20//20 29//29 30//30
f 19//19 32//32 29//29
f 33//33 32//32 31//31
f 20//20 34//34 33//33
f 11//11 36//36 13//13
f 11//11 38//38 35//35
f 13//13 39//39 40//40
f 40//40 38//38 37//37
# 46 faces, 0 coords texture

# End of File
