####
#
# OBJ File Generated by Meshlab
#
####
# Object m836.obj
#
# Vertices: 28
# Faces: 44
#
####
vn 1.570796 0.000000 1.570796
v 0.975000 0.025000 0.500000
vn -1.570796 0.000000 1.570796
v 0.025000 0.025000 0.500000
vn 0.000000 0.000000 6.283185
v 0.093400 0.167500 0.500000
vn 0.000000 0.000000 6.283185
v 0.906600 0.167500 0.500000
vn -1.570796 1.570796 1.570796
v 0.906600 0.333750 0.500000
vn 1.570796 1.570796 1.570796
v 0.975000 0.333750 0.500000
vn 1.570796 1.570796 1.570796
v 0.093400 0.333750 0.500000
vn -1.570796 1.570796 1.570796
v 0.025000 0.333750 0.500000
vn 1.570796 0.000000 -1.570796
v 0.975000 0.025000 0.025000
vn 4.474443 1.941044 1.526538
v 0.975000 0.333750 0.122903
vn 1.808742 1.941044 1.526538
v 0.975000 0.500000 0.082581
vn 1.570796 1.570796 -1.570796
v 0.975000 0.500000 0.025000
vn -1.570796 0.000000 -1.570796
v 0.025000 0.025000 0.025000
vn -4.474443 1.941044 1.526538
v 0.025000 0.333750 0.122903
vn -1.808742 1.941044 1.526538
v 0.025000 0.500000 0.082581
vn -1.570796 1.570796 -1.570796
v 0.025000 0.500000 0.025000
vn 0.000000 0.000000 3.141593
v 0.338500 0.167500 0.500000
vn 0.000000 3.141593 3.141593
v 0.338500 0.262500 0.500000
vn 1.570796 1.570796 1.570796
v 0.093400 0.262500 0.500000
vn 1.808437 1.940578 1.526651
v 0.093400 0.262500 0.140161
vn 0.000000 3.141593 0.000000
v 0.338500 0.262500 0.140161
vn -1.333156 2.681073 4.579726
v 0.906600 0.333750 0.122903
vn 1.333156 2.681073 4.579726
v 0.093400 0.333750 0.122903
vn -1.808437 1.940578 1.526651
v 0.906600 0.262500 0.140161
vn 0.000000 0.000000 3.141593
v 0.661500 0.167500 0.500000
vn 0.000000 3.141593 3.141593
v 0.661500 0.262500 0.500000
vn 0.000000 3.141593 0.000000
v 0.661500 0.262500 0.140161
vn -1.570796 1.570796 1.570796
v 0.906600 0.262500 0.500000
# 28 vertices, 0 vertices normals

f 3//3 2//2 1//1
f 4//4 3//3 1//1
f 1//1 6//6 5//5
f 4//4 1//1 5//5
f 2//2 3//3 7//7
f 2//2 7//7 8//8
f 6//6 1//1 9//9
f 6//6 9//9 10//10
f 11//11 10//10 9//9
f 12//12 11//11 9//9
f 13//13 14//14 15//15
f 13//13 15//15 16//16
f 13//13 2//2 8//8
f 14//14 13//13 8//8
f 3//3 17//17 18//18
f 3//3 18//18 19//19
f 20//20 19//19 18//18
f 21//21 20//20 18//18
f 15//15 11//11 12//12
f 15//15 12//12 16//16
f 22//22 11//11 15//15
f 23//23 22//22 15//15
f 22//22 23//23 20//20
f 22//22 20//20 24//24
f 22//22 10//10 11//11
f 14//14 23//23 15//15
f 17//17 25//25 26//26
f 17//17 26//26 18//18
f 21//21 18//18 26//26
f 27//27 21//21 26//26
f 25//25 4//4 28//28
f 25//25 28//28 26//26
f 27//27 26//26 28//28
f 24//24 27//27 28//28
f 19//19 20//20 23//23
f 19//19 23//23 7//7
f 8//8 7//7 23//23
f 14//14 8//8 23//23
f 22//22 24//24 28//28
f 5//5 22//22 28//28
f 22//22 5//5 6//6
f 22//22 6//6 10//10
f 12//12 9//9 13//13
f 16//16 12//12 13//13
# 44 faces, 0 coords texture

# End of File
