####
#
# OBJ File Generated by Meshlab
#
####
# Object m841.obj
#
# Vertices: 36
# Faces: 68
#
####
vn -1.570796 -1.570796 1.570796
v 0.025000 0.025000 0.056667
vn -1.570796 1.570796 1.570796
v 0.025000 0.975000 0.056667
vn -1.570796 1.570796 -1.570796
v 0.025000 0.975000 0.025000
vn -1.570796 -1.570796 -1.570796
v 0.025000 0.025000 0.025000
vn -1.570796 -4.712389 1.570796
v 0.341667 0.025000 0.056667
vn -1.570796 -1.570796 1.570796
v 0.341667 0.975000 0.056667
vn -1.570796 1.570796 1.570796
v 0.341667 0.975000 0.341667
vn 1.570796 1.570796 1.570796
v 0.658333 0.975000 0.341667
vn 1.570796 1.570796 -1.570796
v 0.658333 0.975000 0.310000
vn 1.570796 -1.570796 -1.570796
v 0.373333 0.975000 0.310000
vn 1.570796 -1.570796 1.570796
v 0.373333 0.975000 0.056667
vn 1.570796 -1.570796 1.570796
v 0.658333 0.975000 0.056667
vn 1.570796 1.570796 -1.570796
v 0.658333 0.975000 0.025000
vn -1.570796 -1.570796 1.570796
v 0.341667 0.025000 0.341667
vn 1.570796 -1.570796 1.570796
v 0.658333 0.025000 0.341667
vn 1.570796 1.570796 1.570796
v 0.658333 0.056667 0.341667
vn 1.570796 1.570796 4.712389
v 0.373333 0.056667 0.341667
vn 1.570796 -1.570796 -1.570796
v 0.373333 0.943333 0.341667
vn 1.570796 -1.570796 1.570796
v 0.658333 0.943333 0.341667
vn 1.570796 -1.570796 -1.570796
v 0.658333 0.025000 0.025000
vn 1.570796 -1.570796 1.570796
v 0.658333 0.025000 0.056667
vn 1.570796 1.570796 1.570796
v 0.373333 0.025000 0.056667
vn 1.570796 1.570796 -1.570796
v 0.373333 0.025000 0.310000
vn 1.570796 1.570796 -1.570796
v 0.658333 0.025000 0.310000
vn 1.570796 -1.570796 -1.570796
v 0.658333 0.943333 0.025000
vn 1.570796 -1.570796 1.570796
v 0.373333 0.943333 0.025000
vn 1.570796 1.570796 1.570796
v 0.373333 0.056667 0.025000
vn 1.570796 1.570796 1.570796
v 0.658333 0.056667 0.025000
vn 1.570796 -1.570796 -1.570796
v 0.658333 0.943333 0.310000
vn 4.712389 -1.570796 -1.570796
v 0.373333 0.943333 0.310000
vn 1.570796 1.570796 -1.570796
v 0.658333 0.056667 0.310000
vn -1.570796 1.570796 -1.570796
v 0.373333 0.056667 0.310000
vn 1.570796 -1.570796 1.570796
v 0.658333 0.943333 0.056667
vn 1.570796 -1.570796 1.570796
v 0.373333 0.943333 0.056667
vn 1.570796 1.570796 1.570796
v 0.658333 0.056667 0.056667
vn -1.570796 1.570796 1.570796
v 0.373333 0.056667 0.056667
# 36 vertices, 0 vertices normals

f 1//1 2//2 3//3
f 5//5 6//6 2//2
f 8//8 9//9 10//10
f 14//14 15//15 16//16
f 20//20 21//21 22//22
f 25//25 26//26 27//27
f 9//9 29//29 30//30
f 29//29 19//19 18//18
f 16//16 31//31 32//32
f 31//31 24//24 23//23
f 25//25 33//33 34//34
f 33//33 12//12 11//11
f 21//21 35//35 36//36
f 35//35 28//28 27//27
f 24//24 31//31 16//16
f 20//20 28//28 35//35
f 25//25 13//13 12//12
f 29//29 9//9 8//8
f 14//14 7//7 6//6
f 22//22 36//36 27//27
f 1//1 3//3 4//4
f 5//5 2//2 1//1
f 8//8 10//10 11//11
f 8//8 11//11 12//12
f 8//8 12//12 13//13
f 8//8 13//13 3//3
f 8//8 3//3 2//2
f 8//8 2//2 6//6
f 8//8 6//6 7//7
f 14//14 16//16 17//17
f 14//14 17//17 18//18
f 14//14 18//18 19//19
f 14//14 19//19 8//8
f 14//14 8//8 7//7
f 20//20 22//22 23//23
f 20//20 23//23 24//24
f 20//20 24//24 15//15
f 20//20 15//15 14//14
f 20//20 14//14 5//5
f 20//20 5//5 1//1
f 20//20 1//1 4//4
f 25//25 27//27 28//28
f 25//25 28//28 20//20
f 25//25 20//20 4//4
f 25//25 4//4 3//3
f 25//25 3//3 13//13
f 9//9 30//30 10//10
f 29//29 18//18 30//30
f 16//16 32//32 17//17
f 31//31 23//23 32//32
f 25//25 34//34 26//26
f 33//33 11//11 34//34
f 21//21 36//36 22//22
f 35//35 27//27 36//36
f 24//24 16//16 15//15
f 20//20 35//35 21//21
f 25//25 12//12 33//33
f 29//29 8//8 19//19
f 14//14 6//6 5//5
f 22//22 27//27 26//26
f 22//22 26//26 34//34
f 22//22 34//34 11//11
f 22//22 11//11 10//10
f 22//22 10//10 30//30
f 22//22 30//30 18//18
f 22//22 18//18 17//17
f 22//22 17//17 32//32
f 22//22 32//32 23//23
# 68 faces, 0 coords texture

# End of File
