####
#
# OBJ File Generated by Meshlab
#
####
# Object m43.obj
#
# Vertices: 41
# Faces: 54
#
####
vn 0.190718 3.663769 -0.571555
v 0.428326 0.506968 0.416359
vn 0.041589 0.767768 -0.156026
v 0.487274 0.497852 0.387214
vn 0.052021 0.944669 -0.193152
v 0.307021 0.495741 0.328779
vn 0.184442 4.002072 -0.704964
v 0.323580 0.505785 0.382238
vn 0.214193 3.363801 -0.140248
v 0.351913 0.515974 0.548889
vn 0.203154 3.018976 -0.203167
v 0.276741 0.516428 0.444972
vn 0.128043 3.461986 0.107644
v 0.313862 0.524251 0.676291
vn 0.248142 2.592001 -0.098811
v 0.225369 0.527225 0.532073
vn 0.010333 0.316672 0.030986
v 0.324896 0.494663 0.975000
vn 0.057578 2.770517 0.169462
v 0.224307 0.524343 0.705215
vn 0.611161 2.966200 -2.276450
v 0.461179 0.459823 0.313041
vn -0.301680 -0.544414 0.623590
v 0.453335 0.330705 0.201908
vn 0.080308 0.417034 -0.421234
v 0.349068 0.381746 0.201263
vn 0.678802 3.057976 -2.626970
v 0.357536 0.457080 0.285542
vn 0.104094 0.580741 -0.416399
v 0.496772 0.480438 0.352926
vn 0.150702 0.637225 -0.532285
v 0.312486 0.487644 0.309377
vn -0.979839 -1.821125 2.549262
v 0.484006 0.225572 0.127874
vn -0.825938 -1.616474 1.941707
v 0.351693 0.319245 0.147172
vn -0.094721 -0.169887 0.257258
v 0.564341 0.025000 0.025000
vn -0.843618 -1.606470 2.303481
v 0.406634 0.221477 0.096682
vn -0.345590 1.056065 4.512513
v 0.218367 0.520376 0.306996
vn -0.872016 -4.136195 1.935950
v 0.219025 0.493855 0.298235
vn 2.025794 -2.851733 -3.079883
v 0.227595 0.502532 0.272610
vn -1.789854 -2.329600 1.167390
v 0.302700 0.459417 0.339022
vn -0.096912 1.056247 -3.714689
v 0.318010 0.494415 0.298110
vn -0.779781 3.082919 1.465336
v 0.307353 0.515021 0.337820
vn -0.962035 -3.227042 1.333644
v 0.371998 0.427536 0.366420
vn 0.426224 -0.240496 -1.637655
v 0.405169 0.461125 0.267229
vn -0.538673 1.417030 1.219341
v 0.369448 0.530197 0.400334
vn 0.036631 -2.949523 1.481604
v 0.470471 0.436537 0.394889
vn 1.503770 0.327795 -2.873287
v 0.490324 0.476155 0.340399
vn 0.457400 2.873332 1.790913
v 0.474885 0.506008 0.397926
vn -0.501525 -3.912159 1.993520
v 0.681127 0.445242 0.443900
vn 1.015646 -0.251082 -2.282171
v 0.688046 0.452248 0.423208
vn -0.178623 1.818722 1.685835
v 0.680595 0.466657 0.450975
vn 0.007687 -0.000144 0.002210
v 0.927106 0.450154 0.509453
vn 0.157979 -1.671309 1.392659
v 0.146503 0.476839 0.300596
vn -0.794862 0.054112 -3.514367
v 0.174537 0.514266 0.254825
vn -1.767431 3.082654 1.605084
v 0.164384 0.529474 0.288983
vn 0.128467 0.103242 -0.018656
v 0.312777 0.606166 0.265761
vn -0.069918 -0.027822 -0.001054
v 0.025000 0.450312 0.281286
# 41 vertices, 0 vertices normals

f 1//1 2//2 3//3
f 3//3 4//4 1//1
f 4//4 6//6 1//1
f 6//6 5//5 1//1
f 5//5 6//6 7//7
f 6//6 8//8 7//7
f 7//7 10//10 9//9
f 7//7 8//8 10//10
f 11//11 12//12 13//13
f 13//13 14//14 11//11
f 15//15 11//11 14//14
f 14//14 16//16 15//15
f 17//17 20//20 19//19
f 17//17 18//18 20//20
f 12//12 18//18 17//17
f 12//12 13//13 18//18
f 22//22 23//23 25//25
f 21//21 22//22 24//24
f 23//23 21//21 26//26
f 24//24 25//25 28//28
f 26//26 24//24 27//27
f 25//25 26//26 29//29
f 27//27 28//28 31//31
f 29//29 27//27 30//30
f 28//28 29//29 32//32
f 30//30 31//31 34//34
f 32//32 30//30 33//33
f 31//31 32//32 35//35
f 36//36 35//35 33//33
f 36//36 33//33 34//34
f 35//35 36//36 34//34
f 23//23 22//22 37//37
f 22//22 21//21 39//39
f 40//40 23//23 38//38
f 40//40 21//21 23//23
f 21//21 40//40 39//39
f 40//40 38//38 39//39
f 39//39 41//41 37//37
f 41//41 38//38 37//37
f 39//39 38//38 41//41
f 22//22 25//25 24//24
f 21//21 24//24 26//26
f 23//23 26//26 25//25
f 24//24 28//28 27//27
f 26//26 27//27 29//29
f 25//25 29//29 28//28
f 27//27 31//31 30//30
f 29//29 30//30 32//32
f 28//28 32//32 31//31
f 30//30 34//34 33//33
f 32//32 33//33 35//35
f 31//31 35//35 34//34
f 23//23 37//37 38//38
f 22//22 39//39 37//37
# 54 faces, 0 coords texture

# End of File
