####
#
# OBJ File Generated by Meshlab
#
####
# Object m50.obj
#
# Vertices: 93
# Faces: 182
#
####
vn -0.000013 5.692234 -0.000000
v 0.215524 0.564283 0.684475
vn -3.718744 3.902859 -0.027286
v 0.142750 0.539952 0.684475
vn -2.784577 4.194464 2.111217
v 0.164065 0.539952 0.747245
vn 0.084498 4.526831 3.169837
v 0.215524 0.539952 0.773245
vn 2.774143 4.115897 2.147871
v 0.266984 0.539952 0.747245
vn 3.721560 3.879909 -0.000001
v 0.288299 0.539952 0.684475
vn 2.733013 3.903619 -2.307226
v 0.266984 0.539952 0.621705
vn 0.000008 3.911036 -3.411723
v 0.215524 0.539952 0.595705
vn -2.733023 3.903670 -2.307213
v 0.164065 0.539952 0.621705
vn -5.061237 0.257550 -0.119176
v 0.112606 0.481219 0.684475
vn -4.629340 1.615394 1.917694
v 0.142750 0.476916 0.788360
vn 0.457755 5.535393 2.463929
v 0.215524 0.476916 0.833643
vn 4.463676 1.538350 2.067821
v 0.288299 0.476916 0.788360
vn 5.038020 0.252389 -0.086685
v 0.318442 0.481219 0.684475
vn 3.496502 0.207976 -3.135110
v 0.288298 0.481219 0.595705
vn 0.000015 0.196651 -4.312676
v 0.215524 0.481215 0.558935
vn -3.496521 0.207982 -3.135082
v 0.142750 0.481219 0.595705
vn -5.969886 -1.400721 0.054873
v 0.142750 0.406288 0.684475
vn -4.357784 -3.372842 1.928672
v 0.164065 0.401988 0.766129
vn 0.165399 -5.426620 2.440636
v 0.215524 0.401988 0.788360
vn 4.274468 -3.330374 2.075902
v 0.266984 0.401988 0.766129
vn 5.999669 -1.279192 0.059662
v 0.288299 0.406288 0.684475
vn 4.755081 -0.192550 -3.565930
v 0.266984 0.406288 0.621705
vn -0.027997 0.468587 -5.681754
v 0.215524 0.406288 0.595705
vn -4.757438 -0.243892 -3.562311
v 0.164065 0.406288 0.621705
vn -0.000010 -1.661576 -4.409945
v 0.215524 0.186418 0.099823
vn -5.913193 1.442717 0.014017
v 0.142750 0.335810 0.643765
vn -4.656605 -0.339147 3.692975
v 0.164065 0.326803 0.705885
vn -0.039552 -1.412833 5.676706
v 0.215524 0.323073 0.731616
vn 4.662690 -0.284518 3.701914
v 0.266984 0.326803 0.705885
vn 5.911894 1.531137 0.285889
v 0.288299 0.335810 0.643765
vn 3.462683 4.490640 -1.965508
v 0.266984 0.344817 0.581644
vn -0.383803 5.409983 -2.203328
v 0.215524 0.348548 0.555913
vn -4.034106 3.888688 -2.040212
v 0.164065 0.344817 0.581644
vn -5.495624 2.055719 1.441650
v 0.115560 0.275702 0.629955
vn -3.559664 -0.305699 3.001649
v 0.124136 0.202098 0.718807
vn 0.018132 -1.407178 4.415714
v 0.215524 0.166278 0.754404
vn 3.492136 -0.378730 3.531341
v 0.306913 0.202098 0.718807
vn 5.390812 2.717796 1.429741
v 0.315489 0.275702 0.629955
vn 3.770155 4.674131 -0.303217
v 0.286210 0.328191 0.527025
vn -0.204712 5.869074 -0.372078
v 0.215524 0.349932 0.484389
vn -3.386335 4.925300 -0.147451
v 0.144839 0.328191 0.527025
vn -4.691668 0.802234 1.551228
v 0.044445 0.206960 0.546813
vn -3.792713 -3.377729 2.170430
v 0.121958 0.081448 0.613394
vn -0.042493 -3.775650 2.337544
v 0.215524 0.041123 0.658467
vn 3.984759 -3.458461 2.429502
v 0.309091 0.081449 0.613394
vn 4.931146 0.820130 1.160443
v 0.386604 0.206960 0.546813
vn 3.834651 4.804065 -0.110525
v 0.309091 0.304316 0.437998
vn -0.141958 5.817030 -0.040393
v 0.215524 0.344641 0.392925
vn -3.827115 4.744345 -0.197350
v 0.121958 0.304315 0.437998
vn -5.195048 0.210357 0.023192
v 0.025000 0.171514 0.418782
vn -3.402075 -3.989823 0.521168
v 0.080803 0.055044 0.457736
vn -0.076551 -5.990401 0.264992
v 0.215524 0.025000 0.473871
vn 3.417184 -3.917611 0.368494
v 0.350245 0.055044 0.457736
vn 5.170458 0.143603 0.010509
v 0.406048 0.171514 0.418782
vn 3.994594 4.491243 -0.467339
v 0.319725 0.295024 0.379828
vn -0.015734 5.448835 -0.376041
v 0.215524 0.346184 0.363692
vn -3.980153 4.511791 -0.300060
v 0.111323 0.295024 0.379828
vn -4.859735 0.388305 -1.390842
v 0.041356 0.179804 0.276424
vn -3.579748 -4.047060 -1.488791
v 0.092369 0.074190 0.285469
vn 0.077823 -5.544148 -1.225158
v 0.215524 0.030443 0.289215
vn 3.522375 -4.089514 -1.349036
v 0.338679 0.074190 0.285469
vn 4.862015 0.422822 -1.296837
v 0.389692 0.179804 0.276424
vn 3.699507 4.396275 -1.378798
v 0.310780 0.285417 0.267379
vn 0.024630 5.303440 -1.473210
v 0.215524 0.329165 0.263632
vn -3.701181 4.384595 -1.480315
v 0.120269 0.285417 0.267379
vn -3.920449 -0.021593 -3.141352
v 0.088382 0.176974 0.180059
vn -2.760743 -3.601572 -3.246705
v 0.125621 0.099875 0.194623
vn -0.015228 -4.726572 -3.207075
v 0.215524 0.067941 0.200655
vn 2.735263 -3.623185 -3.295163
v 0.305427 0.099875 0.194623
vn 3.929845 -0.034907 -3.214679
v 0.342667 0.176974 0.180059
vn 3.925757 3.128098 -2.803181
v 0.285061 0.254071 0.165497
vn -0.012111 5.911538 -0.282065
v 0.215524 0.286006 0.159465
vn -3.935926 3.125869 -2.764707
v 0.145988 0.254071 0.165497
vn -0.000001 0.384065 -0.549433
v 0.215524 0.324085 0.025000
vn -4.220152 0.450180 1.387506
v 0.142719 0.453090 0.832667
vn -0.554963 6.233648 0.064636
v 0.215503 0.463348 0.916538
vn 3.925946 1.109886 0.945324
v 0.288268 0.453090 0.832667
vn -2.759313 -4.226027 0.437954
v 0.164034 0.401988 0.797124
vn 0.011038 -6.230393 0.808409
v 0.215498 0.412565 0.871667
vn 2.344717 -3.998700 0.108409
v 0.266953 0.401988 0.797124
vn -1.804501 1.933663 -0.107244
v 0.160900 0.468698 0.897579
vn 0.044415 6.272750 0.038275
v 0.215490 0.463871 0.942600
vn 2.172276 2.167237 0.163298
v 0.270064 0.468698 0.897579
vn -2.973355 -3.894151 0.897876
v 0.172806 0.412565 0.875664
vn 0.303902 -6.090396 1.396565
v 0.215482 0.416090 0.897895
vn 2.781059 -4.150808 1.203461
v 0.258149 0.412565 0.875664
vn -2.186977 1.229971 1.698336
v 0.168757 0.465385 0.930072
vn -0.065246 0.334662 1.303417
v 0.215479 0.462866 0.975000
vn 2.291559 1.500728 1.567755
v 0.262177 0.465385 0.930072
vn -2.279861 -3.410040 1.890780
v 0.178770 0.416090 0.908335
vn -0.636801 -4.754447 3.342600
v 0.215467 0.426667 0.930565
vn 1.962344 -3.565688 1.423612
v 0.252151 0.416090 0.908335
# 93 vertices, 0 vertices normals

f 1//1 2//2 3//3
f 1//1 3//3 4//4
f 1//1 4//4 5//5
f 1//1 5//5 6//6
f 1//1 6//6 7//7
f 1//1 7//7 8//8
f 1//1 8//8 9//9
f 1//1 9//9 2//2
f 2//2 10//10 11//11
f 2//2 11//11 3//3
f 3//3 11//11 12//12
f 3//3 12//12 4//4
f 4//4 12//12 13//13
f 4//4 13//13 5//5
f 5//5 13//13 14//14
f 5//5 14//14 6//6
f 6//6 14//14 15//15
f 6//6 15//15 7//7
f 7//7 15//15 16//16
f 7//7 16//16 8//8
f 8//8 16//16 17//17
f 8//8 17//17 9//9
f 9//9 17//17 10//10
f 9//9 10//10 2//2
f 10//10 18//18 19//19
f 10//10 19//19 11//11
f 13//13 21//21 22//22
f 13//13 22//22 14//14
f 14//14 22//22 23//23
f 14//14 23//23 15//15
f 15//15 23//23 24//24
f 15//15 24//24 16//16
f 16//16 24//24 25//25
f 16//16 25//25 17//17
f 17//17 25//25 18//18
f 17//17 18//18 10//10
f 26//26 72//72 71//71
f 26//26 71//71 70//70
f 26//26 70//70 69//69
f 26//26 69//69 68//68
f 26//26 68//68 67//67
f 26//26 67//67 74//74
f 34//34 25//25 24//24
f 24//24 33//33 34//34
f 33//33 24//24 23//23
f 23//23 32//32 33//33
f 32//32 23//23 22//22
f 22//22 31//31 32//32
f 31//31 22//22 21//21
f 21//21 30//30 31//31
f 30//30 21//21 20//20
f 20//20 29//29 30//30
f 29//29 20//20 19//19
f 19//19 28//28 29//29
f 28//28 19//19 18//18
f 18//18 27//27 28//28
f 27//27 18//18 25//25
f 25//25 34//34 27//27
f 42//42 34//34 33//33
f 33//33 41//41 42//42
f 41//41 33//33 32//32
f 32//32 40//40 41//41
f 40//40 32//32 31//31
f 31//31 39//39 40//40
f 39//39 31//31 30//30
f 30//30 38//38 39//39
f 38//38 30//30 29//29
f 29//29 37//37 38//38
f 37//37 29//29 28//28
f 28//28 36//36 37//37
f 36//36 28//28 27//27
f 27//27 35//35 36//36
f 35//35 27//27 34//34
f 34//34 42//42 35//35
f 50//50 42//42 41//41
f 41//41 49//49 50//50
f 49//49 41//41 40//40
f 40//40 48//48 49//49
f 48//48 40//40 39//39
f 39//39 47//47 48//48
f 47//47 39//39 38//38
f 38//38 46//46 47//47
f 46//46 38//38 37//37
f 37//37 45//45 46//46
f 45//45 37//37 36//36
f 36//36 44//44 45//45
f 44//44 36//36 35//35
f 35//35 43//43 44//44
f 43//43 35//35 42//42
f 42//42 50//50 43//43
f 58//58 50//50 49//49
f 49//49 57//57 58//58
f 57//57 49//49 48//48
f 48//48 56//56 57//57
f 56//56 48//48 47//47
f 47//47 55//55 56//56
f 55//55 47//47 46//46
f 46//46 54//54 55//55
f 54//54 46//46 45//45
f 45//45 53//53 54//54
f 53//53 45//45 44//44
f 44//44 52//52 53//53
f 52//52 44//44 43//43
f 43//43 51//51 52//52
f 51//51 43//43 50//50
f 50//50 58//58 51//51
f 66//66 58//58 57//57
f 57//57 65//65 66//66
f 65//65 57//57 56//56
f 56//56 64//64 65//65
f 64//64 56//56 55//55
f 55//55 63//63 64//64
f 63//63 55//55 54//54
f 54//54 62//62 63//63
f 62//62 54//54 53//53
f 53//53 61//61 62//62
f 61//61 53//53 52//52
f 52//52 60//60 61//61
f 60//60 52//52 51//51
f 51//51 59//59 60//60
f 59//59 51//51 58//58
f 58//58 66//66 59//59
f 74//74 66//66 65//65
f 65//65 73//73 74//74
f 73//73 65//65 64//64
f 64//64 72//72 73//73
f 72//72 64//64 63//63
f 63//63 71//71 72//72
f 71//71 63//63 62//62
f 62//62 70//70 71//71
f 70//70 62//62 61//61
f 61//61 69//69 70//70
f 69//69 61//61 60//60
f 60//60 68//68 69//69
f 68//68 60//60 59//59
f 59//59 67//67 68//68
f 67//67 59//59 66//66
f 66//66 74//74 67//67
f 75//75 26//26 74//74
f 75//75 74//74 73//73
f 75//75 73//73 72//72
f 75//75 72//72 26//26
f 88//88 91//91 92//92
f 88//88 92//92 89//89
f 89//89 92//92 93//93
f 89//89 93//93 90//90
f 76//76 11//11 19//19
f 19//19 79//79 76//76
f 79//79 19//19 20//20
f 20//20 80//80 79//79
f 77//77 12//12 11//11
f 11//11 76//76 77//77
f 80//80 20//20 21//21
f 21//21 81//81 80//80
f 81//81 21//21 13//13
f 13//13 78//78 81//81
f 78//78 13//13 12//12
f 12//12 77//77 78//78
f 82//82 76//76 79//79
f 79//79 85//85 82//82
f 85//85 79//79 80//80
f 80//80 86//86 85//85
f 83//83 77//77 76//76
f 76//76 82//82 83//83
f 86//86 80//80 81//81
f 81//81 87//87 86//86
f 87//87 81//81 78//78
f 78//78 84//84 87//87
f 84//84 78//78 77//77
f 77//77 83//83 84//84
f 88//88 82//82 85//85
f 85//85 91//91 88//88
f 91//91 85//85 86//86
f 86//86 92//92 91//91
f 89//89 83//83 82//82
f 82//82 88//88 89//89
f 92//92 86//86 87//87
f 87//87 93//93 92//92
f 93//93 87//87 84//84
f 84//84 90//90 93//93
f 90//90 84//84 83//83
f 83//83 89//89 90//90
# 182 faces, 0 coords texture

# End of File
