####
#
# OBJ File Generated by Meshlab
#
####
# Object m357.obj
#
# Vertices: 193
# Faces: 384
#
####
vn -2.034838 1.859350 -1.802928
v 0.032433 0.521129 0.365738
vn -2.147540 -1.326613 -2.247810
v 0.036116 0.391248 0.365039
vn 1.978266 -0.061854 -5.808900
v 0.058762 0.453259 0.366627
vn -4.214647 -0.115242 0.237143
v 0.084517 0.545123 0.492493
vn 2.060927 0.330451 -0.944781
v 0.084567 0.406035 0.368020
vn 0.723451 0.136966 -0.450862
v 0.105598 0.326621 0.411136
vn -3.191047 -0.667672 3.607975
v 0.110203 0.707700 0.568314
vn -3.604649 -0.438271 3.631744
v 0.168118 0.370177 0.731785
vn -3.564976 1.128042 3.885449
v 0.158716 0.551275 0.695268
vn -4.776210 -2.215910 1.894907
v 0.230515 0.081742 0.708975
vn -3.744124 -3.350054 2.577247
v 0.274773 0.070010 0.776984
vn -2.351673 -1.002651 5.447563
v 0.285439 0.536547 0.757696
vn -1.896282 -5.048643 -0.232410
v 0.264420 0.033633 0.649000
vn -1.121997 -1.102581 3.227315
v 0.337468 0.072106 0.855583
vn -0.186356 -6.015800 -0.527146
v 0.363387 0.025065 0.674923
vn -0.231919 0.180610 4.523373
v 0.365456 0.270494 0.881456
vn -1.822633 1.535275 3.720885
v 0.389108 0.384303 0.931279
vn 0.508157 -4.506283 3.333887
v 0.401118 0.327744 0.897222
vn -2.141413 0.508113 5.075606
v 0.323904 0.434412 0.794524
vn 0.408218 -5.904908 -0.336862
v 0.414829 0.025000 0.674301
vn 0.577053 0.858299 5.588694
v 0.430401 0.644559 0.819882
vn 1.395320 -5.489761 -0.310502
v 0.491242 0.033727 0.649907
vn 2.853317 -3.388124 3.982448
v 0.485699 0.155797 0.805976
vn 3.007241 -2.145240 2.608938
v 0.503443 0.070010 0.776984
vn 0.423251 0.347806 4.920473
v 0.517398 0.401250 0.797937
vn 2.359362 1.683066 5.351775
v 0.517970 0.436900 0.784982
vn 2.148681 -0.201637 4.556127
v 0.531413 0.639870 0.777832
vn 4.361155 -2.269315 1.968527
v 0.547701 0.081741 0.708975
vn 4.262637 1.184243 4.272241
v 0.575472 0.623924 0.747730
vn 0.000000 0.000000 0.000000
v 0.579139 0.458435 0.727690
vn 3.246956 0.200474 4.679102
v 0.571498 0.588263 0.764682
vn 3.091072 -0.069171 1.709671
v 0.618086 0.527025 0.719313
vn 5.284041 -2.135131 -2.541338
v 0.630421 0.311255 0.332951
vn 3.443785 -1.873990 -4.590974
v 0.656898 0.347514 0.341430
vn 4.914812 -0.222175 2.377311
v 0.693702 0.545121 0.492494
vn -0.008576 -0.031912 0.040441
v 0.696820 0.655393 0.524881
vn 0.988950 -1.094278 1.587049
v 0.715756 0.568884 0.447833
vn 3.697746 -3.209020 -2.252603
v 0.721155 0.351209 0.379970
vn 2.756471 2.016029 1.918241
v 0.736804 0.553068 0.457038
vn 3.663679 -1.539073 -1.049855
v 0.742102 0.391246 0.365040
vn 1.339949 2.199825 -1.239873
v 0.745787 0.521127 0.365739
vn 4.217638 1.104096 -0.422250
v 0.763762 0.507428 0.386574
vn 0.000000 0.000000 0.000000
v 0.356824 0.832505 0.746844
vn -3.511559 -2.911681 -3.369156
v 0.243069 0.263913 0.199482
vn 3.093237 -2.963994 -0.940035
v 0.601141 0.094217 0.499649
vn 2.142662 -3.480175 -2.043071
v 0.587847 0.146184 0.363747
vn 3.454218 -3.755422 -2.821902
v 0.568053 0.164560 0.326168
vn 2.758574 -3.421529 -3.353335
v 0.509341 0.196871 0.214935
vn 0.528247 -3.906770 -3.682045
v 0.450499 0.198877 0.181869
vn -2.002668 -3.328369 -3.113516
v 0.268877 0.199665 0.212372
vn -2.929636 -3.730303 -2.689571
v 0.228690 0.189892 0.274705
vn -2.902207 -3.659756 -1.510118
v 0.169560 0.117748 0.437313
vn -2.739629 -4.355085 -0.316548
v 0.206775 0.065777 0.580082
vn 3.819926 -4.486972 0.398189
v 0.571033 0.074180 0.577306
vn 4.749555 -2.740683 -2.964509
v 0.575255 0.257330 0.260774
vn -0.971089 -1.648761 2.708330
v 0.388837 0.345770 0.934332
vn 4.357709 0.239376 2.141235
v 0.444924 0.354592 0.879997
vn 5.185347 -1.621075 1.019405
v 0.607745 0.299470 0.698915
vn 1.440949 -0.868122 2.754335
v 0.433131 0.073299 0.849368
vn -2.749090 -3.244552 -3.783530
v 0.088371 0.350843 0.396457
vn 5.833119 -0.749549 2.076724
v 0.735209 0.427257 0.406660
vn 5.037879 -1.336363 3.018171
v 0.732626 0.454100 0.427854
vn -4.060006 2.007479 0.845167
v 0.028681 0.516491 0.421481
vn 3.884917 -0.001206 4.729736
v 0.454434 0.283624 0.843071
vn -2.714161 1.355492 5.444489
v 0.250209 0.475828 0.755895
vn -5.233184 -2.603717 1.924295
v 0.196708 0.102276 0.623582
vn 3.391169 -0.589961 -2.017597
v 0.753975 0.438144 0.366744
vn 4.503974 -1.829181 3.469000
v 0.530400 0.183356 0.783575
vn 5.075334 -0.907940 -0.844222
v 0.653761 0.342738 0.593408
vn 3.692211 -0.153429 4.947605
v 0.582580 0.487021 0.726394
vn 2.509546 -0.388683 5.639931
v 0.449123 0.215194 0.842407
vn 4.611060 -0.449071 4.029335
v 0.453974 0.326373 0.847981
vn -0.301377 -3.241956 4.682624
v 0.402315 0.310065 0.870586
vn 2.605189 -0.162660 5.262875
v 0.506299 0.269186 0.812168
vn -2.291537 -1.999704 0.081898
v 0.058603 0.331279 0.416380
vn 4.455191 -1.338382 3.374953
v 0.694827 0.419872 0.442085
vn 4.675654 -1.724774 2.034779
v 0.728702 0.362666 0.409411
vn 2.614057 -2.919244 4.692797
v 0.428858 0.150915 0.837712
vn 5.075325 0.134775 3.187128
v 0.714893 0.516224 0.481986
vn -5.781760 -0.350013 2.336879
v 0.111920 0.471953 0.606651
vn -2.276213 0.286479 5.339119
v 0.169957 0.674671 0.658660
vn -5.465873 0.313519 3.050304
v 0.140744 0.507847 0.664301
vn 3.544926 0.217320 4.869097
v 0.532930 0.351830 0.796432
vn 3.449033 -0.350637 4.067286
v 0.466552 0.303271 0.819315
vn 4.898510 -0.136174 2.339753
v 0.612163 0.381391 0.723681
vn 4.668757 0.849150 3.640719
v 0.613200 0.427667 0.715741
vn -5.492036 -1.145888 2.706696
v 0.045328 0.428370 0.417283
vn -1.433820 -2.845196 5.153303
v 0.369524 0.158021 0.846602
vn -3.816126 0.275458 4.724060
v 0.175839 0.500239 0.714865
vn 0.549925 0.916203 5.870979
v 0.386939 0.112515 0.841791
vn 5.247592 -0.788959 3.132607
v 0.538946 0.124205 0.718860
vn -0.599395 -5.629873 1.817375
v 0.351386 0.044476 0.800358
vn -4.362597 -0.707804 4.082885
v 0.268270 0.134374 0.793480
vn 2.834455 0.406673 5.234387
v 0.440123 0.505011 0.794088
vn -2.720628 0.325004 5.591807
v 0.311868 0.721989 0.764379
vn 4.396884 1.937298 3.220843
v 0.440871 0.377900 0.837234
vn 1.555366 0.915263 5.580348
v 0.483293 0.440816 0.786692
vn -2.545378 -0.298561 -2.177851
v 0.025000 0.443719 0.361946
vn -2.757928 2.516413 0.486448
v 0.049400 0.534277 0.467316
vn -5.603230 -1.312452 1.601286
v 0.158279 0.263602 0.651948
vn 0.053482 0.759623 5.763551
v 0.376634 0.208315 0.853062
vn 5.947157 -0.414034 1.869227
v 0.668672 0.486509 0.592320
vn -0.288574 -0.022405 5.660972
v 0.398149 0.570396 0.824095
vn -2.703865 -2.915945 -1.707457
v 0.096604 0.294463 0.438696
vn 5.601060 -0.360160 2.455878
v 0.648174 0.427717 0.654560
vn -3.645739 0.545620 4.847810
v 0.231376 0.377861 0.771978
vn -3.907571 0.197691 4.815155
v 0.310212 0.302322 0.827527
vn -2.281729 2.469501 4.344715
v 0.380310 0.492609 0.831063
vn 5.349735 -2.149101 0.150068
v 0.676390 0.288855 0.442050
vn -5.437812 -1.956916 1.413700
v 0.152884 0.154574 0.567071
vn -3.925034 1.291616 4.490640
v 0.361352 0.481394 0.810380
vn 5.635243 -2.008966 1.163755
v 0.607791 0.133452 0.568961
vn -5.056477 0.079837 3.223328
v 0.148313 0.417254 0.691555
vn -4.332151 -0.188841 4.232827
v 0.353329 0.342017 0.867217
vn 2.642161 -0.416688 3.280889
v 0.417231 0.363615 0.931675
vn 2.494891 2.688095 3.106644
v 0.412280 0.415280 0.907603
vn 2.442681 3.560091 3.659598
v 0.407580 0.482756 0.838904
vn -4.407344 -0.388616 3.883145
v 0.302512 0.230425 0.834201
vn -2.876424 -0.892962 4.046422
v 0.321497 0.246299 0.861322
vn 4.172552 -0.180903 3.521239
v 0.519384 0.209671 0.806250
vn 2.391635 -0.674912 3.060090
v 0.436776 0.180997 0.859113
vn -0.662951 -0.094489 4.015665
v 0.367481 0.183136 0.871239
vn -2.397966 -1.299207 2.006521
v 0.341440 0.180997 0.859113
vn -1.833913 -2.762936 -0.914157
v 0.087426 0.517291 0.531064
vn -4.335647 -3.049833 -0.881634
v 0.196078 0.339147 0.252961
vn 3.947187 -1.974805 -2.720826
v 0.639348 0.375208 0.327878
vn 5.176069 0.932073 -2.075340
v 0.716045 0.527000 0.360019
vn -0.221996 0.060194 1.160538
v 0.688641 0.606001 0.561732
vn 5.619974 -0.407476 1.979612
v 0.689422 0.659515 0.578779
vn 3.943397 -1.472322 4.315419
v 0.633981 0.746387 0.654943
vn 2.819137 -0.915467 5.344279
v 0.529210 0.760128 0.755426
vn 0.286667 -3.550065 4.951132
v 0.422797 0.800662 0.771962
vn 0.028226 -2.286635 4.890649
v 0.355422 0.800662 0.771962
vn -1.698159 -2.031062 5.533668
v 0.302551 0.777502 0.767957
vn -3.962462 -2.005697 4.276313
v 0.144239 0.746389 0.654942
vn -2.330035 0.293691 4.594532
v 0.088797 0.659516 0.578778
vn -0.924252 0.295281 -0.900609
v 0.089579 0.606003 0.561731
vn -0.021542 -2.458708 -5.545987
v 0.389110 0.458272 0.046851
vn 2.214955 -0.962910 -5.163298
v 0.509505 0.517315 0.044151
vn -3.463092 -2.145210 -1.772722
v 0.098796 0.406000 0.188566
vn -2.253083 -2.554581 -5.048271
v 0.237182 0.399841 0.113800
vn -3.811315 0.646394 2.665220
v 0.108863 0.787094 0.651579
vn -3.090820 0.019896 4.226412
v 0.221302 0.811572 0.746534
vn -3.119086 -0.022782 4.781550
v 0.280937 0.824403 0.781762
vn -4.602206 3.011484 0.871226
v 0.072924 0.829403 0.473705
vn 4.606493 -0.127320 3.134069
v 0.669356 0.787093 0.651580
vn 3.696518 2.985731 0.593554
v 0.695121 0.844974 0.559878
vn 3.048996 0.781397 3.610647
v 0.622521 0.808817 0.711812
vn 1.440473 3.792911 1.681328
v 0.652738 0.865068 0.622009
vn 2.900948 1.662333 4.180696
v 0.561768 0.809195 0.747892
vn 1.197885 1.921749 -0.977028
v 0.732795 0.791952 0.374409
vn 4.829056 3.849443 -0.749792
v 0.705296 0.829402 0.473706
vn 0.000008 -0.764097 -6.065901
v 0.389110 0.532540 0.026519
vn -3.687383 0.418691 -4.926733
v 0.150742 0.575976 0.130080
vn -4.567226 0.924467 -3.053632
v 0.063002 0.706162 0.226903
vn 3.485914 2.413284 -3.479149
v 0.626806 0.762039 0.149450
vn -5.404452 -1.673445 0.930189
v 0.048263 0.592737 0.487163
vn -5.307263 0.896200 -1.453734
v 0.062174 0.527002 0.360018
vn -2.913738 3.469219 -1.655323
v 0.084590 0.864524 0.294100
vn 0.289877 5.032022 1.064714
v 0.389110 0.975000 0.628707
vn -1.425833 4.434096 2.007205
v 0.337193 0.931329 0.759250
vn -0.035182 3.849031 3.442692
v 0.380778 0.923235 0.788189
vn -1.482517 -0.282076 4.163275
v 0.330706 0.841776 0.819525
vn -0.029664 -1.420447 4.542233
v 0.380778 0.835747 0.823580
vn 1.787458 4.470631 2.185363
v 0.424364 0.931329 0.759250
vn 1.481628 4.273934 -3.213411
v 0.484628 0.843103 0.120132
vn -0.231126 1.942757 -4.518949
v 0.389111 0.758964 0.025000
vn 4.716783 -2.032034 1.058643
v 0.728404 0.576493 0.478334
vn -5.656249 -1.834849 -0.691279
v 0.070500 0.462727 0.251592
vn -2.211564 -0.847660 -5.177104
v 0.268715 0.517315 0.044150
vn -5.527439 0.073011 1.166608
v 0.045355 0.676934 0.515661
vn 4.681139 -2.667118 -2.619437
v 0.611004 0.334066 0.228662
vn -5.051839 1.144860 -1.126768
v 0.038132 0.778869 0.301777
vn 2.059041 0.161037 5.020000
v 0.497283 0.824402 0.781762
vn 3.335817 3.679833 0.388656
v 0.676814 0.890315 0.509539
vn 1.513659 -3.859648 -2.556984
v 0.520351 0.268949 0.185384
vn 1.271909 -2.419443 -5.112772
v 0.456121 0.279911 0.139307
vn 1.430107 -0.481368 4.177741
v 0.430850 0.841776 0.819525
vn -0.316713 0.567221 0.341091
v 0.160549 0.811195 0.710454
vn -4.923050 -0.289613 -2.648971
v 0.068149 0.545420 0.200754
vn 2.830058 -2.261010 -5.083419
v 0.480906 0.332127 0.137928
vn 4.700603 -0.853789 -2.463534
v 0.710071 0.545215 0.203610
vn -3.630394 2.493414 -4.457456
v 0.087125 0.781215 0.253385
vn -2.170895 5.715339 0.086098
v 0.291804 0.943351 0.551243
vn 3.533079 -2.770253 -3.816305
v 0.591290 0.383862 0.158168
vn -0.562794 0.511115 -0.927092
v 0.049671 0.591156 0.417262
vn 4.926034 1.820452 -1.541649
v 0.726927 0.737046 0.295135
vn 5.343341 -1.865241 -2.315538
v 0.694658 0.466350 0.301862
vn 0.885397 5.547123 -0.267694
v 0.452839 0.972311 0.499760
vn -1.551709 4.502553 -2.992925
v 0.267891 0.870271 0.183313
vn -5.208418 0.366296 2.730220
v 0.065021 0.729542 0.548184
vn -1.836520 1.424810 4.867874
v 0.287145 0.494296 0.756562
vn -2.983447 0.041549 4.972497
v 0.250531 0.575313 0.761601
# 193 vertices, 0 vertices normals

f 123//123 122//122 101//101
f 118//118 123//123 101//101
f 101//101 71//71 73//73
f 65//65 89//89 113//113
f 91//91 59//59 24//24
f 13//13 66//66 53//53
f 13//13 11//11 10//10
f 34//34 109//109 33//33
f 13//13 10//10 66//66
f 14//14 93//93 11//11
f 122//122 123//123 88//88
f 71//71 121//121 78//78
f 123//123 118//118 88//88
f 78//78 91//91 23//23
f 42//42 61//61 67//67
f 77//77 67//67 61//61
f 38//38 67//67 77//77
f 77//77 62//62 76//76
f 54//54 45//45 112//112
f 28//28 54//54 112//112
f 78//78 88//88 90//90
f 15//15 92//92 13//13
f 13//13 92//92 11//11
f 14//14 59//59 90//90
f 93//93 90//90 88//88
f 76//76 109//109 77//77
f 91//91 58//58 68//68
f 109//109 76//76 112//112
f 24//24 28//28 91//91
f 47//47 33//33 109//109
f 46//46 47//47 109//109
f 91//91 105//105 58//58
f 91//91 28//28 112//112
f 91//91 69//69 105//105
f 38//38 77//77 109//109
f 54//54 28//28 22//22
f 61//61 62//62 77//77
f 67//67 38//38 40//40
f 82//82 9//9 81//81
f 98//98 2//2 75//75
f 119//119 16//16 107//107
f 92//92 14//14 11//11
f 66//66 93//93 100//100
f 93//93 14//14 90//90
f 16//16 101//101 73//73
f 68//68 58//58 74//74
f 120//120 68//68 74//74
f 84//84 74//74 83//83
f 84//84 120//120 74//74
f 84//84 72//72 64//64
f 18//18 64//64 72//72
f 21//21 29//29 27//27
f 103//103 31//31 21//21
f 70//70 30//30 86//86
f 21//21 31//31 29//29
f 112//112 76//76 102//102
f 58//58 86//86 85//85
f 112//112 102//102 69//69
f 31//31 70//70 105//105
f 70//70 86//86 105//105
f 32//32 31//31 105//105
f 70//70 26//26 86//86
f 25//25 83//83 85//85
f 58//58 105//105 86//86
f 39//39 37//37 79//79
f 32//32 29//29 31//31
f 69//69 102//102 105//105
f 102//102 76//76 79//79
f 79//79 35//35 102//102
f 95//95 103//103 21//21
f 85//85 83//83 58//58
f 97//97 94//94 96//96
f 25//25 26//26 97//97
f 97//97 26//26 94//94
f 72//72 57//57 18//18
f 115//115 56//56 18//18
f 57//57 96//96 115//115
f 96//96 72//72 83//83
f 74//74 58//58 83//83
f 97//97 83//83 25//25
f 26//26 25//25 85//85
f 31//31 94//94 70//70
f 30//30 70//70 86//86
f 98//98 87//87 63//63
f 75//75 87//87 98//98
f 63//63 1//1 98//98
f 3//3 5//5 98//98
f 2//2 60//60 75//75
f 75//75 60//60 104//104
f 110//110 53//53 66//66
f 104//104 6//6 110//110
f 93//93 88//88 118//118
f 87//87 104//104 99//99
f 93//93 66//66 10//10
f 93//93 10//10 11//11
f 106//106 93//93 107//107
f 99//99 104//104 110//110
f 107//107 118//118 119//119
f 73//73 71//71 64//64
f 19//19 114//114 111//111
f 115//115 18//18 57//57
f 18//18 107//107 73//73
f 89//89 9//9 82//82
f 89//89 82//82 113//113
f 82//82 80//80 113//113
f 104//104 60//60 6//6
f 80//80 100//100 113//113
f 80//80 66//66 100//100
f 1//1 3//3 98//98
f 4//4 63//63 99//99
f 80//80 110//110 66//66
f 99//99 80//80 4//4
f 5//5 2//2 98//98
f 1//1 158//158 3//3
f 50//50 125//125 44//44
f 2//2 5//5 60//60
f 99//99 110//110 80//80
f 111//111 65//65 106//106
f 113//113 100//100 8//8
f 107//107 16//16 73//73
f 57//57 72//72 96//96
f 96//96 83//83 97//97
f 93//93 106//106 100//100
f 106//106 8//8 100//100
f 114//114 18//18 56//56
f 17//17 115//115 116//116
f 107//107 93//93 118//118
f 106//106 107//107 114//114
f 19//19 106//106 114//114
f 19//19 111//111 106//106
f 114//114 17//17 108//108
f 107//107 18//18 114//114
f 108//108 116//116 117//117
f 73//73 64//64 18//18
f 37//37 127//127 168//168
f 36//36 128//128 129//129
f 176//176 172//172 55//55
f 126//126 34//34 33//33
f 43//43 133//133 134//134
f 108//108 17//17 116//116
f 115//115 96//96 116//116
f 116//116 96//96 117//117
f 96//96 94//94 117//117
f 108//108 111//111 114//114
f 161//161 144//144 163//163
f 146//146 147//147 148//148
f 147//147 149//149 148//148
f 148//148 149//149 150//150
f 147//147 152//152 149//149
f 170//170 153//153 138//138
f 155//155 167//167 154//154
f 190//190 184//184 189//189
f 162//162 160//160 184//184
f 161//161 162//162 184//184
f 162//162 165//165 189//189
f 183//183 159//159 190//190
f 190//190 167//167 183//183
f 161//161 143//143 144//144
f 148//148 131//131 130//130
f 130//130 146//146 148//148
f 131//131 148//148 150//150
f 180//180 154//154 170//170
f 176//176 177//177 181//181
f 172//172 176//176 181//181
f 153//153 139//139 138//138
f 168//168 147//147 128//128
f 145//145 171//171 191//191
f 180//180 140//140 169//169
f 180//180 155//155 154//154
f 183//183 155//155 173//173
f 174//174 131//131 150//150
f 175//175 149//149 152//152
f 128//128 147//147 129//129
f 188//188 172//172 185//185
f 172//172 181//181 185//185
f 174//174 132//132 131//131
f 132//132 174//174 178//178
f 174//174 165//165 178//178
f 156//156 167//167 166//166
f 133//133 164//164 163//163
f 133//133 163//163 134//134
f 134//134 163//163 144//144
f 144//144 143//143 134//134
f 157//157 137//137 136//136
f 145//145 191//191 142//142
f 7//7 135//135 191//191
f 136//136 7//7 191//191
f 191//191 171//171 136//136
f 135//135 142//142 191//191
f 167//167 155//155 183//183
f 189//189 184//184 160//160
f 189//189 160//160 162//162
f 184//184 190//190 159//159
f 150//150 165//165 174//174
f 178//178 164//164 132//132
f 164//164 133//133 132//132
f 12//12 192//192 111//111
f 94//94 31//31 103//103
f 65//65 111//111 192//192
f 12//12 89//89 65//65
f 12//12 65//65 192//192
f 118//118 101//101 119//119
f 119//119 101//101 16//16
f 84//84 83//83 72//72
f 85//85 86//86 26//26
f 104//104 87//87 75//75
f 48//48 49//49 177//177
f 50//50 44//44 177//177
f 55//55 48//48 177//177
f 176//176 55//55 177//177
f 71//71 101//101 121//121
f 23//23 91//91 68//68
f 147//147 151//151 152//152
f 88//88 78//78 122//122
f 101//101 122//122 121//121
f 122//122 78//78 121//121
f 115//115 17//17 56//56
f 17//17 114//114 56//56
f 64//64 71//71 120//120
f 84//84 64//64 120//120
f 23//23 68//68 120//120
f 71//71 78//78 120//120
f 78//78 23//23 120//120
f 112//112 69//69 91//91
f 90//90 59//59 91//91
f 94//94 26//26 70//70
f 111//111 108//108 103//103
f 108//108 117//117 94//94
f 81//81 9//9 89//89
f 87//87 99//99 63//63
f 158//158 1//1 63//63
f 76//76 62//62 79//79
f 61//61 42//42 39//39
f 79//79 62//62 39//39
f 42//42 41//41 127//127
f 89//89 193//193 95//95
f 193//193 103//103 95//95
f 193//193 89//89 12//12
f 111//111 103//103 12//12
f 103//103 193//193 12//12
f 106//106 65//65 113//113
f 113//113 8//8 106//106
f 53//53 110//110 52//52
f 177//177 49//49 50//50
f 20//20 92//92 15//15
f 24//24 59//59 22//22
f 33//33 55//55 172//172
f 126//126 33//33 172//172
f 188//188 126//126 172//172
f 55//55 33//33 47//47
f 45//45 54//54 22//22
f 112//112 45//45 46//46
f 150//150 149//149 175//175
f 175//175 156//156 166//166
f 152//152 151//151 187//187
f 167//167 156//156 139//139
f 156//156 187//187 182//182
f 138//138 141//141 170//170
f 141//141 140//140 180//180
f 138//138 181//181 177//177
f 138//138 177//177 44//44
f 153//153 170//170 167//167
f 170//170 154//154 167//167
f 140//140 141//141 44//44
f 187//187 151//151 127//127
f 127//127 151//151 168//168
f 151//151 147//147 168//168
f 147//147 146//146 129//129
f 146//146 130//130 129//129
f 145//145 142//142 161//161
f 142//142 179//179 143//143
f 183//183 173//173 159//159
f 162//162 161//161 163//163
f 167//167 190//190 166//166
f 190//190 189//189 166//166
f 173//173 145//145 159//159
f 145//145 184//184 159//159
f 43//43 134//134 133//133
f 132//132 133//133 131//131
f 21//21 27//27 130//130
f 105//105 102//102 130//130
f 27//27 29//29 130//130
f 29//29 32//32 105//105
f 102//102 36//36 129//129
f 130//130 102//102 129//129
f 36//36 102//102 128//128
f 102//102 35//35 128//128
f 35//35 168//168 128//128
f 179//179 142//142 135//135
f 134//134 143//143 135//135
f 143//143 179//179 135//135
f 95//95 134//134 135//135
f 7//7 80//80 135//135
f 82//82 81//81 135//135
f 80//80 82//82 135//135
f 81//81 95//95 135//135
f 80//80 7//7 136//136
f 4//4 80//80 124//124
f 80//80 136//136 124//124
f 136//136 137//137 124//124
f 21//21 130//130 131//131
f 131//131 133//133 21//21
f 133//133 134//134 95//95
f 67//67 40//40 127//127
f 109//109 34//34 38//38
f 126//126 188//188 40//40
f 188//188 127//127 40//40
f 185//185 182//182 188//188
f 182//182 127//127 188//188
f 182//182 185//185 139//139
f 185//185 181//181 139//139
f 181//181 138//138 139//139
f 6//6 60//60 5//5
f 110//110 6//6 60//60
f 125//125 50//50 51//51
f 6//6 5//5 60//60
f 5//5 3//3 60//60
f 155//155 180//180 158//158
f 186//186 171//171 158//158
f 173//173 155//155 158//158
f 171//171 145//145 158//158
f 180//180 169//169 158//158
f 145//145 173//173 158//158
f 60//60 3//3 158//158
f 158//158 169//169 60//60
f 169//169 125//125 60//60
f 186//186 158//158 4//4
f 157//157 186//186 4//4
f 186//186 157//157 171//171
f 157//157 136//136 171//171
f 51//51 52//52 60//60
f 52//52 110//110 60//60
f 59//59 14//14 92//92
f 20//20 22//22 92//92
f 22//22 59//59 92//92
f 61//61 39//39 62//62
f 124//124 137//137 157//157
f 37//37 168//168 35//35
f 90//90 91//91 78//78
f 108//108 94//94 103//103
f 81//81 89//89 95//95
f 158//158 63//63 4//4
f 42//42 127//127 37//37
f 42//42 37//37 39//39
f 24//24 22//22 28//28
f 55//55 47//47 48//48
f 45//45 22//22 20//20
f 45//45 20//20 15//15
f 45//45 15//15 13//13
f 45//45 13//13 53//53
f 45//45 53//53 52//52
f 45//45 52//52 51//51
f 45//45 51//51 50//50
f 45//45 50//50 49//49
f 45//45 49//49 48//48
f 45//45 48//48 47//47
f 45//45 47//47 46//46
f 112//112 46//46 109//109
f 150//150 175//175 189//189
f 150//150 189//189 165//165
f 175//175 166//166 189//189
f 152//152 187//187 156//156
f 152//152 156//156 175//175
f 167//167 139//139 153//153
f 156//156 182//182 139//139
f 141//141 180//180 170//170
f 138//138 44//44 141//141
f 140//140 44//44 125//125
f 140//140 125//125 169//169
f 187//187 127//127 182//182
f 145//145 161//161 184//184
f 142//142 143//143 161//161
f 162//162 163//163 164//164
f 162//162 164//164 178//178
f 162//162 178//178 165//165
f 29//29 105//105 130//130
f 133//133 95//95 21//21
f 67//67 127//127 41//41
f 67//67 41//41 42//42
f 126//126 40//40 38//38
f 126//126 38//38 34//34
f 125//125 51//51 60//60
f 157//157 4//4 124//124
f 37//37 35//35 79//79
# 384 faces, 0 coords texture

# End of File
