####
#
# OBJ File Generated by Meshlab
#
####
# Object m1470.obj
#
# Vertices: 145
# Faces: 270
#
####
vn -2.388359 -1.648187 -4.714998
v 0.084207 0.070332 0.973903
vn -3.165443 -2.989295 -3.640273
v 0.089486 0.079939 0.964229
vn 0.093857 -4.475715 -3.899220
v 0.080682 0.082803 0.964296
vn -3.671261 -3.726375 -2.373021
v 0.093659 0.085773 0.953493
vn -1.388974 -5.249249 -2.346235
v 0.087451 0.088957 0.953540
vn -4.667373 -3.312607 -0.816659
v 0.110513 0.089841 0.899843
vn -1.730098 -5.461734 -0.818502
v 0.091781 0.103435 0.899985
vn -5.627905 -0.141319 0.037597
v 0.116209 0.081036 0.278938
vn -5.008322 -3.644443 0.139875
v 0.110108 0.092972 0.278985
vn -3.595819 -5.027670 0.214933
v 0.100635 0.102445 0.279057
vn 0.474398 -6.066177 0.156023
v 0.075481 0.110634 0.279248
vn -1.940731 -5.863438 0.224931
v 0.088700 0.108546 0.279147
vn -4.532477 -2.848252 0.525548
v 0.107357 0.091420 0.198722
vn -0.368428 -5.757947 0.552372
v 0.074668 0.105281 0.172209
vn -5.773196 -1.328763 1.064519
v 0.102781 0.077076 0.121149
vn -4.504874 -3.848232 1.199577
v 0.098526 0.085425 0.121181
vn -1.838437 -5.499385 1.182850
v 0.083541 0.096317 0.121295
vn -1.403686 5.760334 1.024537
v 0.083541 0.039317 0.121295
vn -3.781662 4.561177 1.143858
v 0.091890 0.043572 0.121232
vn -5.522939 1.705351 1.068235
v 0.102781 0.058558 0.121149
vn -4.552909 2.826137 0.388345
v 0.107357 0.044214 0.198722
vn 0.001908 6.171298 0.250868
v 0.075481 0.025000 0.279248
vn -3.143369 4.648069 0.049692
v 0.088700 0.027087 0.279147
vn -5.153960 1.817967 -0.238830
v 0.119659 0.054838 0.835546
vn -5.888789 -0.584453 -0.752654
v 0.117658 0.067817 0.899788
vn -5.091539 2.737467 -0.678360
v 0.115811 0.056230 0.899802
vn -2.673536 4.731264 -1.419375
v 0.098046 0.043572 0.932051
vn -5.414833 1.803803 -1.645712
v 0.108937 0.058558 0.931968
vn -2.586455 4.339590 -2.489408
v 0.093659 0.049861 0.953493
vn -5.039360 -0.916663 -2.667499
v 0.102811 0.067817 0.953424
vn -4.982630 2.049720 -2.630842
v 0.101741 0.060966 0.953432
vn -4.069595 0.960947 -3.755852
v 0.094945 0.063187 0.964188
vn -1.409272 3.840909 -4.175959
v 0.083666 0.058665 0.969626
vn -2.215140 1.569896 -4.884617
v 0.084207 0.065301 0.973903
vn -0.079161 0.095077 -5.780024
v 0.080763 0.067817 0.975000
vn -0.012245 -0.749667 -1.612304
v 0.078935 0.158802 0.734163
vn -0.008990 -3.885567 -1.184168
v 0.078853 0.164154 0.723459
vn -4.691031 -2.239533 -0.760705
v 0.086820 0.158802 0.715370
vn 0.006587 -0.531458 0.867480
v 0.078325 0.158802 0.653884
vn -3.932797 -2.750698 0.639687
v 0.086576 0.158802 0.683258
vn -6.038399 0.000000 -1.191702
v 0.086820 0.134718 0.715370
vn -6.166028 0.000000 0.873475
v 0.086576 0.134718 0.683258
vn 0.000000 0.000000 0.000000
v 0.118851 0.134718 0.704422
vn -0.050768 6.195006 -0.101873
v 0.078935 0.025000 0.734163
vn -1.923239 5.874497 -0.171803
v 0.092154 0.027087 0.734062
vn -4.334383 3.860963 0.016171
v 0.104089 0.033189 0.733972
vn -5.787605 -0.552797 0.076376
v 0.119663 0.081036 0.733853
vn -5.010120 -3.644649 -0.061219
v 0.113562 0.092972 0.733900
vn -3.255958 -5.165101 -0.220205
v 0.104089 0.102445 0.733972
vn -0.227684 -5.286938 -1.642378
v 0.078935 0.110634 0.734163
vn -4.376223 -3.227549 -0.751047
v 0.086820 0.110634 0.715370
vn -4.254501 -3.180499 0.464594
v 0.086576 0.110634 0.683258
vn 0.007123 -5.684513 0.937798
v 0.078325 0.110634 0.653884
vn -1.960895 -5.892684 0.072526
v 0.091544 0.108546 0.653783
vn 4.294230 -3.387773 -0.805833
v 0.070764 0.110634 0.715492
vn 4.261075 -3.180495 0.399930
v 0.070521 0.110634 0.683380
vn 6.178582 -0.000000 0.779734
v 0.070521 0.134718 0.683380
vn 4.676780 -2.199695 -0.833496
v 0.070764 0.158802 0.715492
vn 3.942058 -2.750697 0.579889
v 0.070521 0.158802 0.683380
vn 6.178487 0.090142 -0.813613
v 0.070724 0.137394 0.710140
vn 1.961790 -5.892676 0.043476
v 0.065106 0.108546 0.653984
vn 1.560845 2.168090 -4.892458
v 0.078240 0.064365 0.973949
vn 4.349623 0.022966 -3.734367
v 0.065697 0.067817 0.964410
vn 3.072985 3.300047 -3.937028
v 0.071878 0.055694 0.964363
vn 0.537329 4.572266 -3.660934
v 0.076052 0.053553 0.964331
vn 4.381280 2.717697 -2.285570
v 0.062645 0.054758 0.953729
vn 1.133048 5.006172 -2.270431
v 0.073750 0.046676 0.953644
vn 4.709697 2.934812 -0.937494
v 0.049876 0.045793 0.900303
vn 1.041992 5.337140 -0.795547
v 0.068607 0.032199 0.900161
vn 5.780298 0.540006 -0.133270
v 0.038409 0.054597 0.761232
vn 4.986574 3.660143 -0.192422
v 0.044511 0.042662 0.761185
vn 3.658508 4.987586 -0.188974
v 0.053984 0.033189 0.761113
vn 1.714735 5.908590 -0.172750
v 0.065919 0.027087 0.761023
vn 6.063450 -0.432119 0.132451
v 0.032665 0.067817 0.279573
vn 5.893181 1.867908 0.139854
v 0.034752 0.054597 0.279557
vn 5.009829 3.644503 0.063790
v 0.040853 0.042662 0.279511
vn 3.601493 5.026636 0.155814
v 0.050326 0.033189 0.279439
vn 1.910908 5.867033 0.235242
v 0.062261 0.027087 0.279348
vn 4.527270 3.259839 0.467440
v 0.042385 0.044214 0.199215
vn 5.778983 1.413144 1.095882
v 0.045783 0.058558 0.121582
vn 4.522576 3.848186 1.131046
v 0.050037 0.050208 0.121549
vn 1.772034 5.514582 1.040770
v 0.065023 0.039317 0.121436
vn 2.740532 -0.590887 -4.971891
v 0.076688 0.069155 0.973961
vn 0.493945 -2.712828 -5.035018
v 0.079417 0.071884 0.973940
vn 2.649077 -3.218355 -4.172509
v 0.075076 0.075604 0.969691
vn 4.738379 -1.433665 -2.409927
v 0.059460 0.074667 0.953753
vn 1.793336 -4.772712 -2.559237
v 0.073750 0.088957 0.953644
vn 3.467293 -4.426217 -1.665678
v 0.062830 0.092062 0.932318
vn 5.176731 -1.591233 -0.810722
v 0.044577 0.079404 0.900343
vn 1.976638 -5.255565 -0.719350
v 0.068607 0.103435 0.900161
vn 3.886495 -4.024147 -0.151684
v 0.053984 0.102445 0.761113
vn 5.296578 -2.860871 -0.076828
v 0.043088 0.092972 0.573867
vn 5.194163 -3.186982 0.066877
v 0.040853 0.092972 0.279511
vn 3.177189 -5.196461 0.105870
v 0.050326 0.102445 0.279439
vn 3.344176 -4.789290 0.353680
v 0.051269 0.100304 0.199148
vn 5.598137 -1.416175 0.522421
v 0.039051 0.079404 0.172479
vn 5.779539 -1.400018 1.156249
v 0.045783 0.077076 0.121582
vn 4.531349 -3.842326 1.180490
v 0.050037 0.085425 0.121549
vn 1.833228 -5.509487 1.203384
v 0.065023 0.096317 0.121436
vn 0.006506 3.051956 0.884514
v 0.073550 0.063803 0.025031
vn 3.041742 -0.000019 0.874685
v 0.069536 0.067817 0.025061
vn -3.109737 2.795544 -0.199107
v 0.026070 0.041056 0.045462
vn -0.005226 0.134917 -0.303571
v 0.025566 0.041056 0.049480
vn 3.582158 2.890077 -0.188997
v 0.025000 0.041056 0.045470
vn 0.000953 0.079958 0.125561
v 0.025434 0.041056 0.032086
vn 2.251731 -0.028045 0.116054
v 0.025434 0.067817 0.032086
vn 5.914451 0.003177 1.260996
v 0.060558 0.067817 0.058581
vn 3.196021 3.805978 0.709810
v 0.062434 0.067148 0.051876
vn 0.004843 0.080970 0.034070
v 0.073167 0.027676 0.045104
vn 3.808183 3.168745 0.654816
v 0.073084 0.056497 0.051795
vn 2.925497 0.965336 0.817438
v 0.069724 0.066586 0.025059
vn 2.485101 1.821724 0.808531
v 0.070312 0.065462 0.025055
vn 0.971599 2.919264 0.832278
v 0.072319 0.063990 0.025040
vn 1.828361 2.479408 0.810965
v 0.071195 0.064579 0.025048
vn -1.816036 2.478064 0.842708
v 0.075905 0.064579 0.025013
vn -2.473088 1.822085 0.843619
v 0.076788 0.065462 0.025006
vn 0.000123 0.028394 -0.019824
v 0.121901 0.067817 0.048749
vn -2.235401 0.031885 0.135801
v 0.121769 0.067817 0.031355
vn -0.463443 0.000000 0.022036
v 0.122405 0.041056 0.044730
vn -3.028021 -0.000019 0.920751
v 0.077564 0.067817 0.025000
vn -2.912852 0.965256 0.861793
v 0.077377 0.066586 0.025001
vn -3.184878 3.805949 0.758266
v 0.085073 0.067148 0.051704
vn -5.929246 -0.000037 1.403220
v 0.087050 0.067817 0.058380
vn -0.957764 2.919389 0.848469
v 0.074781 0.063990 0.025021
vn -3.800503 2.939556 1.068662
v 0.074422 0.056497 0.051785
vn 0.006892 -3.051956 0.884511
v 0.073550 0.071831 0.025031
vn 3.106311 -2.795321 -0.246438
v 0.121335 0.094577 0.044739
vn 0.004440 -0.179353 -0.339144
v 0.121901 0.094577 0.048749
vn -3.590880 -2.957067 -0.097558
v 0.122405 0.094577 0.044730
vn 0.000947 -0.079928 0.125514
v 0.121769 0.094577 0.031355
vn -3.184843 -3.805952 0.758278
v 0.085073 0.068486 0.051704
vn -0.004325 -0.080972 0.034140
v 0.074238 0.107957 0.045096
vn -3.797756 -3.168741 0.712568
v 0.074422 0.079136 0.051785
vn -2.912847 -0.965273 0.861791
v 0.077377 0.069048 0.025001
vn -2.472531 -1.821693 0.846179
v 0.076788 0.070172 0.025006
vn -0.958863 -2.919280 0.846944
v 0.074781 0.071643 0.025021
vn -1.815747 -2.479432 0.838623
v 0.075905 0.071055 0.025013
vn 2.925492 -0.965353 0.817436
v 0.069724 0.069048 0.025059
vn 2.485101 -1.821723 0.808532
v 0.070312 0.070172 0.025055
vn 1.828361 -2.479408 0.810968
v 0.071195 0.071055 0.025048
vn 0.971598 -2.919264 0.832279
v 0.072319 0.071643 0.025040
vn 3.816283 -2.939572 1.010834
v 0.073084 0.079136 0.051795
vn 3.114191 -3.811319 0.731004
v 0.062434 0.068486 0.051876
vn 0.058316 -0.025377 -0.040762
v 0.026070 0.068352 0.045462
vn 0.463725 0.000000 0.015023
v 0.025000 0.094577 0.045470
# 145 vertices, 0 vertices normals

f 99//99 141//141 142//142
f 141//141 126//126 142//142
f 107//107 143//143 97//97
f 97//97 143//143 138//138
f 143//143 101//101 138//138
f 101//101 143//143 106//106
f 143//143 107//107 144//144
f 126//126 132//132 142//142
f 97//97 138//138 139//139
f 140//140 141//141 99//99
f 15//15 135//135 134//134
f 133//133 99//99 132//132
f 126//126 133//133 132//132
f 131//131 118//118 123//123
f 120//120 118//118 131//131
f 128//128 129//129 117//117
f 127//127 128//128 118//118
f 129//129 128//128 127//127
f 131//131 134//134 120//120
f 15//15 134//134 131//131
f 123//123 15//15 131//131
f 136//136 133//133 126//126
f 17//17 133//133 136//136
f 17//17 99//99 133//133
f 18//18 124//124 125//125
f 124//124 100//100 125//125
f 123//123 122//122 20//20
f 20//20 122//122 121//121
f 122//122 120//120 121//121
f 120//120 122//122 118//118
f 122//122 123//123 118//118
f 100//100 109//109 125//125
f 20//20 121//121 116//116
f 116//116 115//115 19//19
f 19//19 124//124 18//18
f 80//80 112//112 111//111
f 110//110 18//18 109//109
f 100//100 110//110 109//109
f 108//108 106//106 107//107
f 101//101 106//106 108//108
f 103//103 104//104 144//144
f 102//102 103//103 106//106
f 104//104 103//103 102//102
f 108//108 111//111 101//101
f 80//80 111//111 108//108
f 107//107 80//80 108//108
f 113//113 110//110 100//100
f 82//82 110//110 113//113
f 82//82 18//18 110//110
f 35//35 83//83 84//84
f 83//83 85//85 84//84
f 83//83 63//63 85//85
f 85//85 3//3 84//84
f 63//63 86//86 85//85
f 85//85 87//87 3//3
f 86//86 88//88 87//87
f 87//87 90//90 5//5
f 61//61 11//11 53//53
f 93//93 95//95 94//94
f 74//74 96//96 93//93
f 93//93 96//96 95//95
f 94//94 14//14 11//11
f 96//96 98//98 95//95
f 95//95 99//99 14//14
f 81//81 114//114 112//112
f 79//79 82//82 81//81
f 79//79 81//81 80//80
f 74//74 79//79 96//96
f 78//78 22//22 82//82
f 77//77 82//82 79//79
f 75//75 76//76 79//79
f 68//68 71//71 70//70
f 86//86 66//66 89//89
f 64//64 65//65 67//67
f 64//64 67//67 66//66
f 83//83 62//62 63//63
f 35//35 62//62 83//83
f 55//55 57//57 60//60
f 55//55 56//56 57//57
f 56//56 39//39 57//57
f 60//60 57//57 58//58
f 50//50 58//58 36//36
f 57//57 39//39 59//59
f 37//37 36//36 58//58
f 37//37 58//58 59//59
f 37//37 59//59 39//39
f 44//44 78//78 73//73
f 73//73 77//77 72//72
f 72//72 76//76 71//71
f 71//71 75//75 70//70
f 92//92 94//94 91//91
f 91//91 55//55 50//50
f 91//91 61//61 55//55
f 61//61 56//56 55//55
f 61//61 53//53 56//56
f 54//54 52//52 53//53
f 54//54 51//51 52//52
f 49//49 51//51 54//54
f 49//49 50//50 51//51
f 43//43 42//42 41//41
f 37//37 39//39 40//40
f 37//37 40//40 38//38
f 37//37 38//38 36//36
f 42//42 38//38 40//40
f 41//41 38//38 42//42
f 36//36 38//38 41//41
f 51//51 41//41 42//42
f 36//36 41//41 51//51
f 52//52 39//39 53//53
f 51//51 42//42 52//52
f 35//35 34//34 62//62
f 34//34 33//33 62//62
f 32//32 33//33 34//34
f 32//32 29//29 33//33
f 33//33 67//67 65//65
f 31//31 27//27 29//29
f 29//29 69//69 67//67
f 30//30 25//25 28//28
f 24//24 46//46 27//27
f 45//45 44//44 69//69
f 46//46 23//23 45//45
f 45//45 22//22 44//44
f 8//8 21//21 23//23
f 23//23 18//18 22//22
f 20//20 19//19 21//21
f 21//21 19//19 18//18
f 16//16 137//137 135//135
f 13//13 14//14 17//17
f 13//13 17//17 16//16
f 13//13 16//16 15//15
f 8//8 13//13 21//21
f 12//12 11//11 14//14
f 10//10 14//14 13//13
f 8//8 9//9 13//13
f 54//54 53//53 12//12
f 49//49 12//12 10//10
f 48//48 10//10 9//9
f 47//47 9//9 8//8
f 6//6 49//49 48//48
f 6//6 48//48 47//47
f 25//25 6//6 24//24
f 30//30 6//6 25//25
f 5//5 90//90 7//7
f 4//4 5//5 6//6
f 32//32 4//4 30//30
f 1//1 84//84 2//2
f 34//34 1//1 32//32
f 35//35 84//84 1//1
f 35//35 1//1 34//34
f 144//144 145//145 106//106
f 145//145 144//144 106//106
f 106//106 145//145 104//104
f 106//106 143//143 144//144
f 99//99 142//142 132//132
f 136//136 137//137 17//17
f 123//123 118//118 117//117
f 118//118 129//129 130//130
f 117//117 129//129 118//118
f 118//118 128//128 117//117
f 118//118 130//130 127//127
f 127//127 130//130 129//129
f 119//119 118//118 117//117
f 119//119 117//117 118//118
f 118//118 119//119 129//129
f 118//118 123//123 117//117
f 18//18 125//125 109//109
f 124//124 19//19 115//115
f 113//113 114//114 82//82
f 107//107 106//106 144//144
f 106//106 104//104 105//105
f 144//144 104//104 106//106
f 106//106 103//103 144//144
f 106//106 105//105 102//102
f 102//102 105//105 104//104
f 87//87 85//85 86//86
f 5//5 3//3 87//87
f 88//88 86//86 89//89
f 87//87 88//88 90//90
f 90//90 88//88 89//89
f 91//91 89//89 70//70
f 90//90 89//89 91//91
f 91//91 70//70 92//92
f 50//50 90//90 91//91
f 93//93 92//92 74//74
f 94//94 92//92 93//93
f 11//11 61//61 94//94
f 14//14 94//94 95//95
f 97//97 96//96 80//80
f 98//98 96//96 97//97
f 95//95 98//98 99//99
f 97//97 80//80 107//107
f 98//98 97//97 139//139
f 140//140 98//98 139//139
f 99//99 98//98 140//140
f 114//114 81//81 82//82
f 80//80 81//81 112//112
f 80//80 96//96 79//79
f 18//18 82//82 22//22
f 82//82 77//77 78//78
f 79//79 76//76 77//77
f 74//74 75//75 79//79
f 22//22 78//78 44//44
f 44//44 73//73 69//69
f 72//72 69//69 73//73
f 72//72 71//71 69//69
f 69//69 71//71 68//68
f 70//70 89//89 68//68
f 68//68 67//67 69//69
f 68//68 66//66 67//67
f 89//89 66//66 68//68
f 66//66 63//63 64//64
f 86//86 63//63 66//66
f 63//63 62//62 64//64
f 65//65 62//62 33//33
f 64//64 62//62 65//65
f 39//39 56//56 53//53
f 60//60 50//50 55//55
f 58//58 50//50 60//60
f 59//59 58//58 57//57
f 77//77 73//73 78//78
f 76//76 72//72 77//77
f 75//75 71//71 76//76
f 74//74 70//70 75//75
f 92//92 70//70 74//74
f 61//61 91//91 94//94
f 42//42 43//43 41//41
f 39//39 42//42 40//40
f 39//39 52//52 42//42
f 51//51 50//50 36//36
f 32//32 30//30 31//31
f 29//29 32//32 31//31
f 67//67 33//33 29//29
f 31//31 30//30 28//28
f 27//27 31//31 28//28
f 69//69 29//29 27//27
f 28//28 25//25 26//26
f 27//27 28//28 26//26
f 26//26 25//25 24//24
f 27//27 26//26 24//24
f 69//69 27//27 45//45
f 46//46 24//24 47//47
f 45//45 27//27 46//46
f 46//46 47//47 8//8
f 23//23 46//46 8//8
f 22//22 45//45 23//23
f 18//18 23//23 21//21
f 20//20 21//21 15//15
f 20//20 15//15 123//123
f 19//19 20//20 116//116
f 137//137 16//16 17//17
f 15//15 16//16 135//135
f 17//17 14//14 99//99
f 15//15 21//21 13//13
f 14//14 10//10 12//12
f 13//13 9//9 10//10
f 11//11 12//12 53//53
f 12//12 49//49 54//54
f 10//10 48//48 49//49
f 9//9 47//47 48//48
f 49//49 90//90 50//50
f 47//47 24//24 6//6
f 49//49 7//7 90//90
f 6//6 7//7 49//49
f 6//6 5//5 7//7
f 6//6 30//30 4//4
f 5//5 2//2 3//3
f 4//4 2//2 5//5
f 4//4 32//32 2//2
f 32//32 1//1 2//2
f 2//2 84//84 3//3
# 270 faces, 0 coords texture

# End of File
