####
#
# OBJ File Generated by Meshlab
#
####
# Object m105.obj
#
# Vertices: 146
# Faces: 260
#
####
vn -4.060748 -0.799132 3.779163
v 0.081546 0.456298 0.678058
vn 0.010333 -1.561393 5.443843
v 0.147276 0.456194 0.703239
vn 3.544659 -1.315655 3.747166
v 0.213005 0.450878 0.681617
vn -5.403012 0.380786 2.084042
v 0.066589 0.538431 0.666588
vn 5.641657 0.416565 1.865175
v 0.227962 0.538431 0.666588
vn -5.384072 2.431134 -1.483014
v 0.099520 0.624315 0.620972
vn -0.107924 4.392142 -2.427157
v 0.147276 0.655584 0.574037
vn 5.352864 2.571055 -1.336740
v 0.195031 0.624315 0.620972
vn -4.576474 3.505345 0.005780
v 0.065146 0.593151 0.513128
vn -0.122114 5.134065 -0.940814
v 0.147276 0.645890 0.513128
vn 4.667824 3.603456 0.074955
v 0.229405 0.593151 0.513128
vn -4.671490 3.372780 0.373750
v 0.057668 0.580956 0.439298
vn -0.083578 5.823062 -0.181112
v 0.147276 0.625462 0.439298
vn 4.691613 3.494892 0.151306
v 0.236883 0.580956 0.439298
vn -4.417464 3.375957 0.438605
v 0.047828 0.593151 0.330136
vn -0.001600 5.372119 0.451210
v 0.147276 0.645890 0.330136
vn 4.432012 3.306877 0.352323
v 0.246723 0.593151 0.330136
vn -3.628219 3.776266 -1.410631
v 0.052420 0.597216 0.195265
vn -0.057475 4.009376 -1.902584
v 0.147276 0.643806 0.169820
vn 3.857240 3.590138 -1.133346
v 0.242131 0.597216 0.195265
vn -3.639949 0.915682 -2.316674
v 0.025000 0.532385 0.147935
vn -0.015795 1.661647 -4.588630
v 0.147276 0.552189 0.094936
vn 3.660594 0.894904 -2.240355
v 0.269551 0.532385 0.147935
vn -4.280664 -0.980370 -2.968059
v 0.042056 0.450670 0.145957
vn 0.078609 -0.877960 -5.300308
v 0.147276 0.470473 0.094804
vn 3.988806 -1.080610 -2.863120
v 0.252496 0.431179 0.146089
vn -4.260009 -3.301861 1.021035
v 0.054388 0.384693 0.330136
vn -0.077975 -5.481309 1.865200
v 0.147276 0.372082 0.330136
vn 4.275377 -3.154348 1.283462
v 0.240163 0.384693 0.330136
vn -3.947971 -3.769045 0.006436
v 0.057668 0.392823 0.440748
vn -0.133645 -5.731997 0.474973
v 0.147276 0.361554 0.440748
vn 4.119199 -3.766692 -0.460974
v 0.236883 0.392823 0.440748
vn -3.943667 -2.678489 -0.890192
v 0.045991 0.384693 0.513128
vn -0.493702 -4.856616 -1.413615
v 0.147276 0.384693 0.513128
vn 4.434438 -2.495109 -0.766054
v 0.248560 0.384693 0.513128
vn 6.069862 -0.185304 0.188948
v 0.266927 0.488922 0.330136
vn 6.205848 0.116220 -0.135099
v 0.256169 0.493091 0.439298
vn 5.831353 0.247235 0.323752
v 0.266927 0.488922 0.513128
vn -6.067501 -0.261237 0.348019
v 0.027624 0.488922 0.330136
vn -6.177578 0.203967 -0.058419
v 0.038382 0.493091 0.439298
vn -5.749827 0.340922 0.286693
v 0.027624 0.488922 0.513128
vn -3.118390 -0.386235 -3.304188
v 0.075642 0.249509 0.155450
vn 3.121224 -0.475576 -3.275788
v 0.109884 0.249509 0.155450
vn 3.888349 -1.783915 2.702829
v 0.109884 0.256179 0.203439
vn -3.904205 -1.689683 2.804039
v 0.075642 0.256179 0.203439
vn -3.284108 -1.452535 -3.153452
v 0.184667 0.237314 0.199220
vn 3.312022 -1.238439 -3.080391
v 0.218909 0.237314 0.199220
vn 3.834000 -1.030754 3.088449
v 0.218909 0.252323 0.245232
vn -3.642337 -1.627279 3.381303
v 0.184667 0.252323 0.245232
vn -3.497194 -1.217066 -2.893855
v 0.080890 0.246278 0.596318
vn 3.448828 -1.698751 -2.928004
v 0.109884 0.246278 0.596318
vn 3.505401 -0.870690 3.325195
v 0.109884 0.255762 0.639693
vn -3.566183 -0.185105 3.085295
v 0.080890 0.255762 0.639693
vn -3.431661 -1.014966 -3.202714
v 0.185192 0.267749 0.549911
vn 3.413459 -0.920867 -3.370036
v 0.213924 0.267749 0.549911
vn 3.434771 -1.172395 3.291222
v 0.213793 0.267227 0.594340
vn -3.431579 -1.404728 3.055553
v 0.185060 0.267227 0.594340
vn -3.379127 0.242649 -3.100991
v 0.072100 0.050223 0.165206
vn 3.379153 0.240882 -3.101838
v 0.113296 0.050223 0.165206
vn 3.634954 0.744579 2.934795
v 0.113296 0.061897 0.201330
vn -3.634896 0.747134 2.932490
v 0.072100 0.061897 0.201330
vn -3.405535 -0.270556 -3.094141
v 0.181256 0.042823 0.244177
vn 3.405535 -0.270553 -3.094211
v 0.222452 0.042823 0.244177
vn 3.558160 1.157117 2.824983
v 0.222452 0.060750 0.277664
vn -3.558159 1.157119 2.824795
v 0.181256 0.060750 0.277664
vn -3.453859 0.018496 -3.080959
v 0.073805 0.049494 0.629937
vn 3.453046 -0.118651 -3.133128
v 0.100045 0.049494 0.629937
vn 3.458174 0.786548 3.049165
v 0.100045 0.058249 0.663951
vn -3.459233 0.916748 2.929047
v 0.073805 0.058249 0.663951
vn -3.452656 0.572934 -3.090394
v 0.197131 0.068463 0.538441
vn 3.453853 0.724002 -2.989230
v 0.222845 0.068463 0.538441
vn 3.474034 0.275567 3.045178
v 0.222845 0.069401 0.573510
vn -3.471768 0.081304 3.155116
v 0.197131 0.069401 0.573510
vn -1.381986 -1.275973 -1.542881
v 0.072100 0.030211 0.161382
vn 1.381986 -1.275973 -1.542881
v 0.113296 0.030211 0.161382
vn 1.087942 -0.841461 1.391212
v 0.113296 0.030211 0.217941
vn -1.087942 -0.841461 1.391212
v 0.072100 0.030211 0.217941
vn -1.496912 -1.511686 -1.511733
v 0.181256 0.025000 0.243518
vn 1.496912 -1.511686 -1.511733
v 0.222452 0.025000 0.243518
vn 1.023077 -0.702797 1.367890
v 0.222452 0.027085 0.299945
vn -1.023077 -0.702797 1.367890
v 0.181256 0.027085 0.299945
vn -1.426835 -1.345443 -1.554547
v 0.073805 0.029482 0.627036
vn 1.426835 -1.345443 -1.554547
v 0.100045 0.029482 0.627036
vn 1.129774 -0.900279 1.420496
v 0.100045 0.029482 0.677530
vn -1.129774 -0.900279 1.420496
v 0.073805 0.029482 0.677530
vn -1.400867 -0.969338 -1.777981
v 0.197131 0.049494 0.531058
vn 1.400828 -0.969387 -1.777741
v 0.222845 0.049494 0.531058
vn 1.130033 -1.171872 1.213770
v 0.222845 0.039384 0.580629
vn -1.143149 -1.183952 1.214480
v 0.197131 0.039384 0.580497
vn -3.079078 -2.685588 0.723913
v 0.116444 0.792436 0.740945
vn -0.312286 -3.419232 2.380318
v 0.147538 0.766274 0.743186
vn -5.673166 0.632412 -0.645223
v 0.095059 0.819431 0.730793
vn 3.448644 -2.345040 1.026729
v 0.178632 0.792436 0.740945
vn 5.642677 0.274054 -0.995209
v 0.200148 0.819431 0.730793
vn 0.128424 2.959041 -1.626240
v 0.147538 0.927099 0.712468
vn -4.103341 2.564908 -2.481907
v 0.123004 0.903335 0.713522
vn 3.686518 2.556024 -2.583426
v 0.172072 0.903335 0.713522
vn -3.825304 -3.538682 -1.656903
v 0.101750 0.772945 0.771531
vn -0.083773 -4.778889 -1.871639
v 0.147538 0.748243 0.770872
vn -5.706500 -0.596319 -0.208678
v 0.091123 0.797960 0.772191
vn 3.959746 -3.286669 -1.749905
v 0.193326 0.772945 0.771531
vn 5.408914 -0.847675 -0.545708
v 0.203953 0.797960 0.772191
vn 0.074945 4.368304 1.433642
v 0.147538 0.926161 0.782474
vn -3.887081 2.932276 1.067385
v 0.112377 0.906566 0.781156
vn 3.829121 3.064984 0.963201
v 0.182699 0.906566 0.781156
vn -4.485318 -3.818062 -0.450265
v 0.109753 0.756894 0.832968
vn 0.046434 -5.513855 -1.332480
v 0.147538 0.740217 0.818598
vn -5.710595 -0.709175 1.104079
v 0.102669 0.774613 0.848130
vn 4.373114 -3.930610 -0.428075
v 0.185323 0.756894 0.832968
vn 5.724537 -0.489504 1.013947
v 0.192539 0.774613 0.848130
vn -0.050853 3.393839 3.687632
v 0.147538 0.833502 0.890713
vn -4.508379 2.326678 2.950833
v 0.123004 0.816304 0.884385
vn 4.532020 2.254465 2.943662
v 0.172072 0.816304 0.884385
vn -5.104288 -3.617209 0.340263
v 0.129039 0.732713 0.889395
vn -0.123746 -3.044075 0.259036
v 0.147538 0.707385 0.902183
vn -0.256420 -2.886314 2.931941
v 0.147538 0.726251 0.938044
vn -3.704139 -2.201053 1.823337
v 0.126415 0.736048 0.927892
vn 4.649253 -4.116144 -0.626412
v 0.166037 0.732713 0.889395
vn 4.259907 -1.895855 2.102392
v 0.168792 0.736048 0.927892
vn -0.078337 0.689920 4.368489
v 0.147538 0.752621 0.946481
vn -2.948723 -0.120590 3.741453
v 0.133238 0.750015 0.940021
vn 3.349381 0.459314 3.849943
v 0.161839 0.750015 0.940021
vn -1.108656 0.191553 0.918373
v 0.170234 0.860530 0.774130
vn -2.543586 0.667129 1.791809
v 0.180882 0.920180 0.776405
vn -2.581614 0.719365 0.028825
v 0.187626 0.944346 0.777315
vn -2.536260 0.498807 0.039445
v 0.158302 0.865615 0.759146
vn -4.525751 1.555111 0.244330
v 0.171829 0.929964 0.761573
vn -0.834248 0.401234 0.026033
v 0.195805 0.974261 0.763272
vn -1.101589 0.231190 -0.917937
v 0.170240 0.861682 0.743829
vn -2.510740 0.656477 -1.865685
v 0.180888 0.921332 0.746074
vn -2.182048 1.067221 -1.227123
v 0.187631 0.945498 0.746984
vn 1.163276 0.216879 -0.851559
v 0.124628 0.861655 0.743206
vn 2.645993 0.695357 -1.620730
v 0.116871 0.921608 0.746000
vn 2.611690 0.573958 0.181191
v 0.111415 0.946104 0.747047
vn 2.552421 0.369556 0.122876
v 0.136067 0.864650 0.759110
vn 4.581283 1.332477 0.094914
v 0.125750 0.929591 0.762041
vn 0.851480 0.358490 0.048337
v 0.103928 0.975000 0.763431
vn 1.065630 0.092570 0.982477
v 0.123223 0.859949 0.773484
vn 2.435849 0.350370 2.034609
v 0.115430 0.920016 0.776277
vn 2.168322 0.838498 1.422226
v 0.109975 0.944513 0.777294
vn -0.417438 0.000000 0.000000
v 0.147276 0.339704 0.037332
vn -3.561762 0.000000 0.000000
v 0.147276 0.552112 0.094928
vn -0.374702 0.000000 0.000000
v 0.147276 0.643818 0.169842
vn -2.698123 0.000000 0.000000
v 0.147276 0.419865 0.025000
vn -2.771685 0.000000 0.000000
v 0.147276 0.552243 0.064621
vn -2.742660 0.000000 0.000000
v 0.147276 0.609970 0.109491
# 146 vertices, 0 vertices normals

f 114//114 115//115 116//116
f 115//115 118//118 119//119
f 117//117 116//116 120//120
f 116//116 119//119 122//122
f 6//6 7//7 10//10
f 7//7 8//8 11//11
f 9//9 10//10 13//13
f 10//10 11//11 14//14
f 12//12 13//13 16//16
f 13//13 14//14 17//17
f 15//15 16//16 19//19
f 16//16 17//17 20//20
f 18//18 19//19 22//22
f 19//19 20//20 23//23
f 21//21 22//22 25//25
f 22//22 23//23 26//26
f 74//74 75//75 76//76
f 78//78 79//79 80//80
f 27//27 28//28 31//31
f 28//28 29//29 32//32
f 30//30 31//31 34//34
f 31//31 32//32 35//35
f 82//82 83//83 84//84
f 86//86 87//87 88//88
f 29//29 26//26 23//23
f 32//32 29//29 36//36
f 35//35 32//32 37//37
f 3//3 35//35 38//38
f 36//36 23//23 20//20
f 37//37 36//36 17//17
f 38//38 37//37 14//14
f 5//5 38//38 11//11
f 24//24 27//27 39//39
f 27//27 30//30 40//40
f 30//30 33//33 41//41
f 33//33 1//1 4//4
f 21//21 39//39 15//15
f 39//39 40//40 12//12
f 40//40 41//41 9//9
f 41//41 4//4 6//6
f 24//24 25//25 43//43
f 25//25 28//28 44//44
f 28//28 27//27 45//45
f 27//27 24//24 42//42
f 25//25 26//26 47//47
f 26//26 29//29 48//48
f 29//29 28//28 49//49
f 28//28 25//25 46//46
f 33//33 34//34 51//51
f 34//34 2//2 52//52
f 2//2 1//1 53//53
f 1//1 33//33 50//50
f 34//34 35//35 55//55
f 35//35 3//3 56//56
f 3//3 2//2 57//57
f 2//2 34//34 54//54
f 42//42 43//43 59//59
f 43//43 44//44 60//60
f 44//44 45//45 61//61
f 45//45 42//42 58//58
f 46//46 47//47 63//63
f 47//47 48//48 64//64
f 48//48 49//49 65//65
f 49//49 46//46 62//62
f 50//50 51//51 67//67
f 51//51 52//52 68//68
f 52//52 53//53 69//69
f 53//53 50//50 66//66
f 54//54 55//55 71//71
f 55//55 56//56 72//72
f 56//56 57//57 73//73
f 57//57 54//54 70//70
f 58//58 59//59 75//75
f 59//59 60//60 76//76
f 60//60 61//61 77//77
f 61//61 58//58 74//74
f 62//62 63//63 79//79
f 63//63 64//64 80//80
f 64//64 65//65 81//81
f 65//65 62//62 78//78
f 66//66 67//67 83//83
f 67//67 68//68 84//84
f 68//68 69//69 85//85
f 69//69 66//66 82//82
f 70//70 71//71 87//87
f 71//71 72//72 88//88
f 72//72 73//73 89//89
f 73//73 70//70 86//86
f 1//1 2//2 91//91
f 4//4 1//1 90//90
f 2//2 3//3 93//93
f 3//3 5//5 94//94
f 7//7 6//6 96//96
f 6//6 4//4 92//92
f 5//5 8//8 97//97
f 8//8 7//7 95//95
f 90//90 91//91 99//99
f 92//92 90//90 98//98
f 91//91 93//93 101//101
f 93//93 94//94 102//102
f 95//95 96//96 104//104
f 96//96 92//92 100//100
f 94//94 97//97 105//105
f 97//97 95//95 103//103
f 98//98 99//99 107//107
f 100//100 98//98 106//106
f 99//99 101//101 109//109
f 101//101 102//102 110//110
f 103//103 104//104 112//112
f 104//104 100//100 108//108
f 102//102 105//105 113//113
f 105//105 103//103 111//111
f 106//106 107//107 115//115
f 108//108 106//106 114//114
f 107//107 109//109 118//118
f 109//109 110//110 119//119
f 111//111 112//112 121//121
f 112//112 108//108 117//117
f 110//110 113//113 122//122
f 113//113 111//111 120//120
f 123//123 124//124 127//127
f 124//124 125//125 128//128
f 126//126 127//127 130//130
f 127//127 128//128 131//131
f 132//132 133//133 136//136
f 133//133 134//134 137//137
f 135//135 136//136 139//139
f 136//136 137//137 140//140
f 141//141 142//142 145//145
f 142//142 143//143 146//146
f 114//114 116//116 117//117
f 115//115 119//119 116//116
f 117//117 120//120 121//121
f 116//116 122//122 120//120
f 6//6 10//10 9//9
f 7//7 11//11 10//10
f 9//9 13//13 12//12
f 10//10 14//14 13//13
f 12//12 16//16 15//15
f 13//13 17//17 16//16
f 15//15 19//19 18//18
f 16//16 20//20 19//19
f 18//18 22//22 21//21
f 19//19 23//23 22//22
f 21//21 25//25 24//24
f 22//22 26//26 25//25
f 74//74 76//76 77//77
f 78//78 80//80 81//81
f 27//27 31//31 30//30
f 28//28 32//32 31//31
f 30//30 34//34 33//33
f 31//31 35//35 34//34
f 82//82 84//84 85//85
f 86//86 88//88 89//89
f 29//29 23//23 36//36
f 32//32 36//36 37//37
f 35//35 37//37 38//38
f 3//3 38//38 5//5
f 36//36 20//20 17//17
f 37//37 17//17 14//14
f 38//38 14//14 11//11
f 5//5 11//11 8//8
f 24//24 39//39 21//21
f 27//27 40//40 39//39
f 30//30 41//41 40//40
f 33//33 4//4 41//41
f 21//21 15//15 18//18
f 39//39 12//12 15//15
f 40//40 9//9 12//12
f 41//41 6//6 9//9
f 24//24 43//43 42//42
f 25//25 44//44 43//43
f 28//28 45//45 44//44
f 27//27 42//42 45//45
f 25//25 47//47 46//46
f 26//26 48//48 47//47
f 29//29 49//49 48//48
f 28//28 46//46 49//49
f 33//33 51//51 50//50
f 34//34 52//52 51//51
f 2//2 53//53 52//52
f 1//1 50//50 53//53
f 34//34 55//55 54//54
f 35//35 56//56 55//55
f 3//3 57//57 56//56
f 2//2 54//54 57//57
f 42//42 59//59 58//58
f 43//43 60//60 59//59
f 44//44 61//61 60//60
f 45//45 58//58 61//61
f 46//46 63//63 62//62
f 47//47 64//64 63//63
f 48//48 65//65 64//64
f 49//49 62//62 65//65
f 50//50 67//67 66//66
f 51//51 68//68 67//67
f 52//52 69//69 68//68
f 53//53 66//66 69//69
f 54//54 71//71 70//70
f 55//55 72//72 71//71
f 56//56 73//73 72//72
f 57//57 70//70 73//73
f 58//58 75//75 74//74
f 59//59 76//76 75//75
f 60//60 77//77 76//76
f 61//61 74//74 77//77
f 62//62 79//79 78//78
f 63//63 80//80 79//79
f 64//64 81//81 80//80
f 65//65 78//78 81//81
f 66//66 83//83 82//82
f 67//67 84//84 83//83
f 68//68 85//85 84//84
f 69//69 82//82 85//85
f 70//70 87//87 86//86
f 71//71 88//88 87//87
f 72//72 89//89 88//88
f 73//73 86//86 89//89
f 1//1 91//91 90//90
f 4//4 90//90 92//92
f 2//2 93//93 91//91
f 3//3 94//94 93//93
f 7//7 96//96 95//95
f 6//6 92//92 96//96
f 5//5 97//97 94//94
f 8//8 95//95 97//97
f 90//90 99//99 98//98
f 92//92 98//98 100//100
f 91//91 101//101 99//99
f 93//93 102//102 101//101
f 95//95 104//104 103//103
f 96//96 100//100 104//104
f 94//94 105//105 102//102
f 97//97 103//103 105//105
f 98//98 107//107 106//106
f 100//100 106//106 108//108
f 99//99 109//109 107//107
f 101//101 110//110 109//109
f 103//103 112//112 111//111
f 104//104 108//108 112//112
f 102//102 113//113 110//110
f 105//105 111//111 113//113
f 106//106 115//115 114//114
f 108//108 114//114 117//117
f 107//107 118//118 115//115
f 109//109 119//119 118//118
f 111//111 121//121 120//120
f 112//112 117//117 121//121
f 110//110 122//122 119//119
f 113//113 120//120 122//122
f 123//123 127//127 126//126
f 124//124 128//128 127//127
f 126//126 130//130 129//129
f 127//127 131//131 130//130
f 132//132 136//136 135//135
f 133//133 137//137 136//136
f 135//135 139//139 138//138
f 136//136 140//140 139//139
f 141//141 145//145 144//144
f 142//142 146//146 145//145
# 260 faces, 0 coords texture

# End of File
