####
#
# OBJ File Generated by Meshlab
#
####
# Object m210.obj
#
# Vertices: 210
# Faces: 404
#
####
vn -1.570796 -1.570796 1.570796
v 0.289295 0.560359 0.160042
vn -3.141593 0.000000 3.141593
v 0.289295 0.570856 0.160042
vn -0.493839 0.592780 -1.478850
v 0.289295 0.570856 0.153290
vn -0.374540 -0.705078 -1.018023
v 0.289295 0.560359 0.153290
vn -0.240801 0.732550 0.261086
v 0.289295 0.576105 0.160042
vn 1.823238 0.686347 0.759434
v 0.295041 0.570856 0.160042
vn 1.196257 -0.865718 0.552773
v 0.295041 0.560359 0.160042
vn -0.032085 0.673717 0.225252
v 0.570825 0.765055 0.524654
vn -0.168291 0.322906 -0.556645
v 0.547844 0.717817 0.396364
vn -5.717238 -0.930122 1.105876
v 0.553589 0.623342 0.504397
vn 3.500070 1.552902 2.259250
v 0.616790 0.649586 0.544910
vn -2.879798 0.606110 3.833908
v 0.570825 0.644336 0.551663
vn -0.889891 1.904152 -2.825362
v 0.524863 0.502624 0.153290
vn 0.393374 1.917942 -4.297352
v 0.576572 0.623342 0.443629
vn 4.145649 0.363252 -1.674560
v 0.599554 0.612845 0.450380
vn 1.430062 -4.126624 -1.627681
v 0.582318 0.591851 0.450380
vn -5.606687 -1.625715 -1.053433
v 0.559335 0.607597 0.463885
vn -1.879946 -0.589192 -0.797778
v 0.507625 0.486878 0.160042
vn 0.048254 -0.669552 -0.233119
v 0.599554 0.492127 0.477388
vn 0.210935 -0.372471 0.575954
v 0.622535 0.539364 0.598927
vn 1.704709 0.013567 -1.612945
v 0.553589 0.492127 0.153290
vn 0.239333 -2.451643 -0.909432
v 0.536353 0.471132 0.160042
vn 5.083713 0.755239 -1.002176
v 0.622535 0.633840 0.497646
vn -5.042187 1.687244 -1.097599
v 0.070964 0.093231 0.133034
vn -2.471443 -1.605749 -0.759227
v 0.053728 0.030248 0.133034
vn -1.731891 -1.566142 1.763801
v 0.070964 0.035496 0.281579
vn 2.035424 0.982568 4.435893
v 0.409951 0.749309 0.254571
vn 1.650410 -1.068901 3.999696
v 0.478898 0.723067 0.220810
vn 2.589115 2.215501 -0.089247
v 0.524863 0.796547 0.146538
vn 4.595066 -1.447388 0.070218
v 0.214603 0.229695 0.166794
vn 5.520247 0.436338 -0.504197
v 0.157148 0.093231 0.139786
vn -0.045172 0.480346 -3.880548
v 0.116929 0.098479 0.079017
vn 0.805004 0.660056 -4.715986
v 0.392715 0.759807 0.058761
vn 0.403368 -0.509367 -4.361991
v 0.455916 0.733564 0.072264
vn 0.419360 -4.335599 0.917778
v 0.438679 0.686326 0.153290
vn 4.837505 1.563879 0.043398
v 0.455916 0.303176 0.227563
vn 0.280684 1.535760 4.114522
v 0.404206 0.297928 0.295083
vn -0.213552 0.471871 3.367661
v 0.404206 0.271684 0.308587
vn 5.388433 0.323379 -0.355468
v 0.341005 0.744060 0.058761
vn 1.662438 -0.567392 -4.450911
v 0.318023 0.759807 0.025000
vn 4.137950 0.501267 -0.183139
v 0.346750 0.770305 0.058761
vn 0.332656 -2.529202 4.162143
v 0.295041 0.497375 0.261323
vn -1.513990 -0.025459 4.299215
v 0.237585 0.507873 0.261323
vn 2.856963 -4.379754 -0.160719
v 0.283549 0.455386 0.180298
vn -4.761353 -1.213432 -0.914898
v 0.174384 0.612845 0.153290
vn -3.308314 0.526155 4.958759
v 0.243331 0.555110 0.241067
vn -3.430273 -0.833926 3.499509
v 0.197367 0.644336 0.247819
vn 4.153164 0.955131 0.194754
v 0.478898 0.255938 0.234315
vn 0.155972 3.264712 3.904100
v 0.444424 0.108977 0.274827
vn -2.283113 0.118600 3.003330
v 0.260567 0.822790 0.200554
vn -3.909433 2.157064 0.141266
v 0.237585 0.854281 0.160042
vn -1.477998 4.362113 0.442848
v 0.191621 0.849033 0.160042
vn -5.101863 0.299300 -0.509805
v 0.185875 0.565607 0.160042
vn 1.588547 1.618747 -5.488233
v 0.312277 0.854281 0.106025
vn 4.331669 2.415407 -0.270382
v 0.352496 0.859531 0.160042
vn 1.426062 4.628602 0.520216
v 0.392715 0.849033 0.160042
vn -2.388462 1.586437 -0.119411
v 0.059474 0.791298 0.153290
vn -1.131426 -0.729592 3.951975
v 0.122675 0.723067 0.234315
vn -1.846567 1.228314 4.647365
v 0.197367 0.754557 0.254571
vn -0.274938 0.376195 -3.125259
v 0.404206 0.250691 0.146538
vn 0.046368 -0.224161 -3.904751
v 0.438679 0.098479 0.173546
vn -1.386615 -2.924266 0.904463
v 0.174384 0.691574 0.160042
vn -0.788865 -0.719789 -4.366226
v 0.139911 0.728314 0.079017
vn -0.812518 0.391631 -4.666256
v 0.208858 0.754557 0.058761
vn 1.550421 -1.337197 1.490711
v 0.490389 0.030248 0.382860
vn 2.509854 -1.452304 -0.722840
v 0.507625 0.030248 0.234315
vn 5.183269 1.577351 -0.791754
v 0.484643 0.098479 0.234315
vn -4.718510 -2.324477 -0.531931
v 0.473153 0.639088 0.139786
vn 0.571564 0.771460 4.908690
v 0.513370 0.665331 0.180298
vn -1.927077 1.788701 -5.232418
v 0.266313 0.854281 0.106025
vn -2.489178 0.508169 -4.619939
v 0.266313 0.891022 0.106025
vn 0.072754 0.200310 6.208937
v 0.300786 0.560359 0.254571
vn 3.386359 0.469319 4.906409
v 0.358241 0.555110 0.241067
vn 3.403560 -0.980865 3.739346
v 0.398460 0.644336 0.247819
vn 5.040643 -1.137959 0.338201
v 0.220349 0.266436 0.173546
vn -0.018437 0.663006 4.500412
v 0.168639 0.282182 0.234315
vn 0.125535 -0.107923 3.049892
v 0.162893 0.250691 0.247819
vn 4.664071 -1.606684 -0.148843
v 0.254822 0.360911 0.173546
vn 0.114889 -0.221877 -4.052222
v 0.197367 0.376657 0.099273
vn -0.246546 2.649790 3.979680
v 0.116929 0.108977 0.180298
vn -5.077972 -0.361604 0.589115
v 0.346750 0.282182 0.234315
vn -4.510751 -0.890160 0.296517
v 0.346750 0.240193 0.234315
vn 1.845926 1.797589 2.367515
v 0.484643 0.061740 0.382860
vn -0.319415 -1.678399 -4.868753
v 0.300786 0.513121 0.092521
vn 1.286106 -0.475708 -3.914961
v 0.381224 0.502624 0.085769
vn -2.697899 -4.289861 -0.371764
v 0.300786 0.455386 0.180298
vn -4.729910 2.212287 0.419553
v 0.116929 0.292679 0.173546
vn -4.007873 1.424235 0.188104
v 0.093948 0.261188 0.166794
vn -5.406304 0.300392 -0.293953
v 0.398460 0.093231 0.234315
vn -0.041764 1.710965 5.037124
v 0.295041 0.754557 0.274827
vn -0.075346 -0.610933 6.170135
v 0.295041 0.623342 0.261323
vn 0.282465 0.923940 -3.078695
v 0.162893 0.261188 0.085769
vn -0.065654 -0.869939 -4.310214
v 0.513370 0.644336 0.085769
vn -3.363884 1.606626 0.486552
v 0.036491 0.644336 0.173546
vn -4.708473 1.490303 -0.645832
v 0.053728 0.665331 0.153290
vn -0.201290 -1.030023 -3.273324
v 0.093948 0.623342 0.092521
vn -0.192984 -0.381038 3.299931
v 0.197367 0.381906 0.261323
vn 0.030725 -1.114577 -1.772527
v 0.444424 0.025000 0.166794
vn -2.407084 0.099779 4.821906
v 0.260567 0.717817 0.085769
vn -5.481875 0.032657 -1.036694
v 0.249076 0.712569 0.058761
vn -3.121982 -0.209624 -0.294846
v 0.237585 0.691574 0.058761
vn 0.067167 -1.443794 -3.493990
v 0.386969 0.355663 0.126282
vn -4.758550 -1.275529 0.273096
v 0.323768 0.366160 0.207306
vn -2.097903 1.535649 2.610897
v 0.421442 0.056491 0.382860
vn -1.543724 -1.729945 1.884425
v 0.421442 0.030248 0.382860
vn 1.468760 -1.698478 1.794078
v 0.139911 0.030248 0.281579
vn 2.122406 1.492098 2.568908
v 0.139911 0.056491 0.281579
vn -1.913025 1.467500 2.118725
v 0.070964 0.061740 0.281579
vn 2.329088 -1.310309 -0.460605
v 0.180130 0.030248 0.139786
vn -2.372321 -1.579871 -0.399035
v 0.381224 0.025000 0.241067
vn -0.179784 2.258816 3.245187
v 0.519116 0.654834 0.193802
vn -0.142744 2.325797 4.378478
v 0.536353 0.560359 0.227563
vn 4.478042 0.640279 0.567934
v 0.570825 0.555110 0.200554
vn -4.365615 -0.393691 0.463078
v 0.473153 0.623342 0.153290
vn 2.506826 0.626619 4.856447
v 0.369732 0.618094 0.085769
vn 4.441253 1.318342 -0.316795
v 0.386969 0.628591 0.058761
vn 2.739455 -0.421917 4.996909
v 0.323768 0.738812 0.085769
vn -0.574952 0.520725 -4.764037
v 0.398460 0.282182 0.166794
vn 4.870805 0.385834 -0.876376
v 0.421442 0.560359 0.146538
vn 4.825982 0.425582 -0.412950
v 0.444424 0.402900 0.187050
vn -5.294454 -0.799373 -0.497570
v 0.226094 0.875276 0.173546
vn -1.273184 -2.212571 1.973595
v 0.260567 0.822790 0.241067
vn 0.032583 0.644354 3.575238
v 0.381224 0.402900 0.281579
vn 3.795041 0.485985 -0.268370
v 0.576572 0.644336 0.139786
vn -0.158761 -1.599703 -3.137624
v 0.519116 0.607597 0.092521
vn 2.496891 0.419298 -4.582171
v 0.318023 0.891022 0.106025
vn 0.067740 -0.969295 -1.763735
v 0.116929 0.030248 0.065513
vn -0.258731 0.144847 -6.059281
v 0.295041 0.581353 0.112777
vn 2.429587 0.161288 -5.503614
v 0.381224 0.576105 0.119529
vn -2.867477 -0.043934 -5.258139
v 0.226094 0.576105 0.126282
vn -4.648698 -0.717097 0.373897
v 0.501880 0.539364 0.200554
vn 0.199462 -2.447028 -3.932601
v 0.536353 0.528867 0.166794
vn 0.697394 1.071199 -4.295950
v 0.174384 0.287430 0.106025
vn -4.626454 1.099922 -0.329702
v 0.139911 0.413397 0.166794
vn 1.894762 -2.507539 2.142755
v 0.323768 0.828038 0.234315
vn 2.420615 -0.348300 2.933478
v 0.323768 0.828038 0.200554
vn -1.133989 -0.089830 -4.472475
v 0.231840 0.513121 0.092521
vn -1.381377 -2.590852 -0.550294
v 0.036491 0.455386 0.254571
vn -1.354456 -1.771617 -2.702891
v 0.042238 0.486878 0.214058
vn 3.625945 -1.483393 -0.434719
v 0.099693 0.492127 0.247819
vn -1.789524 -1.057208 -5.388358
v 0.306532 0.597099 0.038505
vn 0.063888 -2.523690 -2.722232
v 0.363987 0.460635 0.045256
vn -3.776266 -1.302748 -0.291550
v 0.295041 0.560359 0.058761
vn -0.933306 0.641872 -0.037100
v 0.185875 0.801795 0.058761
vn -2.615925 0.478605 5.595484
v 0.260567 0.796547 0.079017
vn -3.835577 2.850546 0.112282
v 0.243331 0.812293 0.058761
vn 2.565715 -0.664752 -5.279657
v 0.323768 0.738812 0.038505
vn 1.884294 2.169765 3.477284
v 0.076710 0.528867 0.281579
vn 4.392253 -1.716838 -0.961405
v 0.099693 0.528867 0.220810
vn -1.670189 -1.725623 -5.040341
v 0.220349 0.665331 0.085769
vn 0.030854 -1.213717 -6.008701
v 0.295041 0.670581 0.099273
vn 1.907632 1.112191 3.171638
v 0.329514 0.927762 0.254571
vn 3.286140 2.434604 0.379048
v 0.352496 0.959255 0.187050
vn -0.047615 5.343069 1.581242
v 0.289295 0.975000 0.193802
vn -3.736848 -3.280504 -0.343109
v 0.237585 0.728314 0.058761
vn -2.019864 -1.214963 -5.459495
v 0.254822 0.738812 0.038505
vn -1.829932 -0.533893 -5.610270
v 0.266313 0.717817 0.038505
vn 1.725630 0.690490 4.301995
v 0.111184 0.654834 0.200554
vn 1.591383 1.801404 2.709513
v 0.111184 0.644336 0.214058
vn 4.083536 -1.701360 -0.797049
v 0.134166 0.602348 0.153290
vn 1.638168 2.724391 -2.390043
v 0.318023 0.969752 0.126282
vn -1.719113 2.542134 -2.265316
v 0.260567 0.969752 0.126282
vn -3.443922 2.553127 0.366441
v 0.231840 0.959255 0.187050
vn 5.411699 -1.466415 -0.817437
v 0.134166 0.623342 0.146538
vn -1.525760 -1.866765 -2.954574
v 0.070964 0.597099 0.112777
vn -1.820565 -2.165535 -3.911336
v 0.053728 0.523618 0.200554
vn 1.880434 2.135055 3.776417
v 0.082455 0.560359 0.254571
vn -4.118870 1.770189 1.330962
v 0.036491 0.560359 0.234315
vn 3.834241 1.089477 -0.823419
v 0.565080 0.681076 0.126282
vn 4.890108 -0.865540 -0.912877
v 0.427188 0.612845 0.146538
vn 5.226326 -0.521605 -0.612008
v 0.358241 0.875276 0.166794
vn -1.953988 1.122892 3.037811
v 0.249076 0.927762 0.254571
vn -1.092455 -0.206772 0.212272
v 0.180130 0.770305 0.065513
vn 2.220280 0.467356 -5.214813
v 0.369732 0.618094 0.038505
vn 0.186517 0.205521 -6.134591
v 0.289295 0.754557 0.079017
vn -2.403567 -0.358768 5.598381
v 0.254822 0.738812 0.079017
vn 2.093273 -1.773539 2.488851
v 0.404206 0.476381 0.079017
vn -0.356624 -2.673567 2.505661
v 0.363987 0.460635 0.079017
vn -5.360625 -0.468834 -1.508997
v 0.174384 0.654834 0.139786
vn 1.747674 -1.476299 -4.991475
v 0.381224 0.654834 0.085769
vn 0.211096 -0.310378 2.964931
v 0.059474 0.486878 0.308587
vn 1.706304 -2.608157 1.184258
v 0.076710 0.460635 0.281579
vn 5.495112 -0.934330 -1.401655
v 0.427188 0.660083 0.139786
vn 2.958449 -0.984191 -0.623455
v 0.415697 0.481629 0.058761
vn 2.004592 -2.551485 -2.934930
v 0.404206 0.476381 0.052008
vn -2.093152 -1.117052 5.114701
v 0.306532 0.597099 0.085769
vn -2.309653 -1.919497 -0.182559
v 0.272058 0.597099 0.058761
vn -3.994435 -3.622489 -0.387274
v 0.295041 0.591851 0.058761
vn -0.872485 1.523016 1.294280
v 0.249076 0.938260 0.065513
vn 0.685346 0.906628 4.316842
v 0.295041 0.817541 0.099273
vn -3.670984 1.575920 1.272585
v 0.025000 0.528867 0.261323
vn -3.271376 -1.203423 2.380888
v 0.030745 0.481629 0.288331
vn -2.247347 0.367000 -5.753806
v 0.260567 0.796547 0.038505
vn 4.360098 2.095755 -0.250684
v 0.323768 0.822790 0.058761
vn 1.503839 -0.543966 4.129434
v 0.318023 0.759807 0.099273
vn 2.008204 0.516566 4.502310
v 0.363987 0.518370 0.254571
vn -1.684411 4.039759 -0.221185
v 0.145657 0.833288 0.153290
vn -1.476515 -2.891027 -0.255368
v 0.352496 0.455386 0.058761
vn 0.996050 0.673284 -4.999509
v 0.295041 0.812293 0.025000
vn -0.782440 1.333868 -1.286820
v 0.249076 0.938260 0.038505
vn 2.499760 2.070838 -0.123561
v 0.272058 0.933012 0.052008
vn -3.652726 -0.798702 0.428464
v 0.501880 0.497375 0.227563
vn 1.448102 3.995882 -0.047214
v 0.444424 0.838536 0.153290
vn 4.174658 0.020102 -0.450950
v 0.582318 0.507873 0.214058
vn 0.765427 -3.691788 -0.731000
v 0.553589 0.460635 0.220810
vn 0.265597 -2.404295 -2.986368
v 0.547844 0.481629 0.187050
vn 0.434221 1.729900 3.169241
v 0.547844 0.523618 0.261323
vn 0.762495 -0.788990 3.224841
v 0.553589 0.486878 0.268075
vn -2.040628 -2.164791 1.472659
v 0.519116 0.471132 0.247819
vn 2.845235 -1.944244 1.716007
v 0.570825 0.476381 0.247819
# 210 vertices, 0 vertices normals

f 1//1 2//2 3//3
f 5//5 6//6 3//3
f 7//7 4//4 3//3
f 5//5 2//2 6//6
f 1//1 7//7 6//6
f 3//3 2//2 5//5
f 3//3 4//4 1//1
f 4//4 7//7 1//1
f 3//3 6//6 7//7
f 6//6 2//2 1//1
f 8//8 9//9 10//10
f 11//11 8//8 12//12
f 13//13 14//14 15//15
f 16//16 17//17 18//18
f 19//19 10//10 17//17
f 20//20 12//12 10//10
f 21//21 22//22 18//18
f 15//15 16//16 22//22
f 23//23 19//19 16//16
f 11//11 20//20 19//19
f 14//14 9//9 23//23
f 15//15 21//21 13//13
f 23//23 15//15 14//14
f 11//11 23//23 9//9
f 9//9 8//8 11//11
f 14//14 13//13 18//18
f 9//9 14//14 17//17
f 10//10 12//12 8//8
f 12//12 20//20 11//11
f 17//17 10//10 9//9
f 18//18 22//22 16//16
f 17//17 16//16 19//19
f 10//10 19//19 20//20
f 18//18 17//17 14//14
f 22//22 21//21 15//15
f 16//16 15//15 23//23
f 19//19 23//23 11//11
f 18//18 13//13 21//21
f 24//24 25//25 26//26
f 27//27 28//28 29//29
f 30//30 31//31 32//32
f 33//33 34//34 35//35
f 36//36 37//37 38//38
f 39//39 40//40 41//41
f 42//42 43//43 44//44
f 45//45 46//46 47//47
f 48//48 38//38 49//49
f 50//50 51//51 52//52
f 46//46 45//45 53//53
f 54//54 55//55 56//56
f 57//57 58//58 59//59
f 60//60 48//48 61//61
f 62//62 63//63 64//64
f 64//64 63//63 57//57
f 65//65 66//66 67//67
f 68//68 69//69 28//28
f 54//54 70//70 71//71
f 72//72 73//73 74//74
f 75//75 76//76 77//77
f 44//44 78//78 79//79
f 30//30 77//77 80//80
f 59//59 58//58 62//62
f 81//81 82//82 38//38
f 67//67 49//49 83//83
f 64//64 52//52 70//70
f 84//84 85//85 86//86
f 87//87 88//88 77//77
f 82//82 89//89 49//49
f 88//88 24//24 80//80
f 27//27 90//90 91//91
f 92//92 88//88 87//87
f 32//32 24//24 88//88
f 34//34 93//93 68//68
f 75//75 30//30 92//92
f 94//94 95//95 96//96
f 44//44 43//43 97//97
f 67//67 66//66 98//98
f 99//99 100//100 101//101
f 102//102 103//103 86//86
f 65//65 104//104 105//105
f 106//106 107//107 26//26
f 107//107 80//80 108//108
f 109//109 106//106 25//25
f 98//98 110//110 89//89
f 111//111 112//112 113//113
f 114//114 111//111 69//69
f 115//115 116//116 117//117
f 81//81 103//103 118//118
f 119//119 120//120 102//102
f 121//121 51//51 122//122
f 123//123 37//37 120//120
f 124//124 125//125 93//93
f 126//126 54//54 71//71
f 127//127 25//25 24//24
f 69//69 111//111 124//124
f 128//128 129//129 85//85
f 53//53 45//45 130//130
f 111//111 114//114 131//131
f 125//125 132//132 131//131
f 113//113 132//132 125//125
f 133//133 87//87 134//134
f 60//60 82//82 81//81
f 114//114 68//68 93//93
f 76//76 75//75 78//78
f 31//31 109//109 127//127
f 135//135 136//136 55//55
f 128//128 84//84 137//137
f 36//36 48//48 60//60
f 61//61 89//89 82//82
f 123//123 120//120 119//119
f 86//86 103//103 123//123
f 138//138 139//139 140//140
f 141//141 142//142 143//143
f 144//144 145//145 146//146
f 70//70 51//51 121//121
f 116//116 147//147 39//39
f 91//91 59//59 47//47
f 148//148 140//140 149//149
f 150//150 64//64 151//151
f 78//78 75//75 133//133
f 152//152 153//153 154//154
f 155//155 156//156 157//157
f 158//158 159//159 160//160
f 154//154 161//161 162//162
f 162//162 163//163 154//154
f 94//94 159//159 158//158
f 50//50 136//136 135//135
f 48//48 67//67 61//61
f 60//60 61//61 82//82
f 63//63 62//62 164//164
f 94//94 165//165 166//166
f 139//139 166//166 149//149
f 72//72 43//43 42//42
f 166//166 165//165 160//160
f 155//155 100//100 99//99
f 103//103 102//102 118//118
f 76//76 97//97 134//134
f 162//162 161//161 126//126
f 117//117 99//99 115//115
f 148//148 167//167 168//168
f 169//169 93//93 34//34
f 96//96 63//63 164//164
f 51//51 50//50 122//122
f 168//168 94//94 166//166
f 129//129 170//170 119//119
f 171//171 126//126 161//161
f 160//160 159//159 167//167
f 152//152 154//154 172//172
f 95//95 158//158 58//58
f 156//156 155//155 173//173
f 168//168 166//166 139//139
f 141//141 157//157 174//174
f 151//151 175//175 33//33
f 128//128 85//85 84//84
f 103//103 81//81 37//37
f 120//120 36//36 118//118
f 176//176 145//145 144//144
f 37//37 36//36 120//120
f 72//72 91//91 47//47
f 64//64 175//175 151//151
f 153//153 161//161 154//154
f 177//177 178//178 142//142
f 128//128 130//130 150//150
f 179//179 64//64 150//150
f 151//151 33//33 180//180
f 171//171 55//55 54//54
f 36//36 38//38 48//48
f 76//76 134//134 87//87
f 181//181 182//182 140//140
f 32//32 127//127 24//24
f 79//79 133//133 134//134
f 74//74 170//170 183//183
f 100//100 157//157 101//101
f 97//97 76//76 78//78
f 52//52 51//51 70//70
f 78//78 133//133 79//79
f 31//31 127//127 32//32
f 59//59 62//62 179//179
f 97//97 53//53 134//134
f 106//106 26//26 25//25
f 184//184 177//177 185//185
f 137//137 79//79 53//53
f 186//186 187//187 188//188
f 105//105 89//89 110//110
f 128//128 137//137 130//130
f 44//44 97//97 78//78
f 189//189 145//145 190//190
f 181//181 191//191 192//192
f 144//144 146//146 193//193
f 115//115 184//184 116//116
f 129//129 119//119 85//85
f 187//187 141//141 188//188
f 41//41 194//194 190//190
f 137//137 53//53 130//130
f 84//84 86//86 44//44
f 186//186 101//101 187//187
f 125//125 114//114 93//93
f 39//39 41//41 195//195
f 28//28 69//69 169//169
f 44//44 79//79 137//137
f 186//186 99//99 101//101
f 101//101 141//141 187//187
f 118//118 60//60 81//81
f 160//160 165//165 96//96
f 170//170 73//73 119//119
f 195//195 176//176 117//117
f 140//140 139//139 149//149
f 86//86 123//123 196//196
f 148//148 168//168 191//191
f 77//77 88//88 80//80
f 85//85 102//102 86//86
f 182//182 138//138 140//140
f 138//138 192//192 191//191
f 27//27 91//91 74//74
f 137//137 84//84 44//44
f 176//176 99//99 117//117
f 197//197 57//57 59//59
f 99//99 186//186 115//115
f 179//179 62//62 64//64
f 143//143 198//198 178//178
f 81//81 38//38 37//37
f 91//91 72//72 74//74
f 191//191 168//168 139//139
f 39//39 147//147 40//40
f 111//111 113//113 124//124
f 79//79 134//134 53//53
f 186//186 188//188 143//143
f 68//68 114//114 69//69
f 188//188 141//141 143//143
f 186//186 177//177 115//115
f 95//95 94//94 158//158
f 121//121 163//163 162//162
f 91//91 90//90 59//59
f 196//196 123//123 119//119
f 173//173 155//155 176//176
f 128//128 150//150 151//151
f 164//164 62//62 58//58
f 63//63 96//96 95//95
f 116//116 184//184 174//174
f 116//116 174//174 147//147
f 85//85 119//119 102//102
f 160//160 167//167 149//149
f 103//103 37//37 123//123
f 64//64 57//57 197//197
f 167//167 159//159 94//94
f 144//144 193//193 156//156
f 163//163 172//172 154//154
f 128//128 151//151 180//180
f 145//145 176//176 195//195
f 135//135 152//152 172//172
f 179//179 45//45 47//47
f 193//193 199//199 40//40
f 33//33 183//183 180//180
f 181//181 148//148 191//191
f 94//94 96//96 165//165
f 27//27 74//74 183//183
f 185//185 177//177 142//142
f 97//97 43//43 53//53
f 148//148 149//149 167//167
f 138//138 182//182 181//181
f 174//174 185//185 141//141
f 194//194 199//199 200//200
f 45//45 179//179 150//150
f 107//107 108//108 26//26
f 116//116 39//39 117//117
f 70//70 54//54 175//175
f 130//130 45//45 150//150
f 52//52 64//64 197//197
f 128//128 180//180 129//129
f 156//156 40//40 147//147
f 30//30 80//80 31//31
f 194//194 201//201 189//189
f 157//157 147//147 174//174
f 73//73 196//196 119//119
f 54//54 33//33 175//175
f 72//72 46//46 43//43
f 101//101 157//157 141//141
f 46//46 53//53 43//43
f 59//59 179//179 47//47
f 162//162 126//126 71//71
f 109//109 31//31 106//106
f 135//135 55//55 171//171
f 50//50 135//135 122//122
f 120//120 118//118 102//102
f 66//66 65//65 105//105
f 112//112 131//131 202//202
f 109//109 25//25 127//127
f 98//98 66//66 110//110
f 66//66 105//105 110//110
f 26//26 108//108 24//24
f 164//164 160//160 96//96
f 164//164 158//158 160//160
f 31//31 107//107 106//106
f 135//135 172//172 122//122
f 65//65 83//83 104//104
f 171//171 54//54 126//126
f 70//70 121//121 71//71
f 73//73 72//72 196//196
f 183//183 170//170 180//180
f 170//170 74//74 73//73
f 124//124 113//113 125//125
f 30//30 32//32 92//92
f 163//163 121//121 172//172
f 181//181 140//140 148//148
f 27//27 29//29 203//203
f 33//33 29//29 34//34
f 153//153 152//152 171//171
f 181//181 192//192 138//138
f 149//149 166//166 160//160
f 204//204 205//205 206//206
f 153//153 171//171 161//161
f 202//202 207//207 112//112
f 202//202 131//131 132//132
f 205//205 208//208 209//209
f 71//71 121//121 162//162
f 209//209 208//208 207//207
f 209//209 202//202 206//206
f 112//112 204//204 113//113
f 200//200 189//189 201//201
f 112//112 207//207 204//204
f 204//204 208//208 210//210
f 204//204 207//207 208//208
f 189//189 200//200 146//146
f 210//210 205//205 204//204
f 117//117 39//39 195//195
f 75//75 92//92 133//133
f 90//90 27//27 56//56
f 28//28 27//27 35//35
f 132//132 204//204 206//206
f 50//50 52//52 59//59
f 111//111 131//131 112//112
f 113//113 204//204 132//132
f 143//143 178//178 186//186
f 144//144 156//156 173//173
f 173//173 176//176 144//144
f 27//27 203//203 56//56
f 156//156 193//193 40//40
f 190//190 145//145 195//195
f 29//29 28//28 169//169
f 167//167 94//94 168//168
f 201//201 194//194 200//200
f 33//33 35//35 183//183
f 194//194 189//189 190//190
f 76//76 87//87 77//77
f 115//115 177//177 184//184
f 61//61 67//67 98//98
f 184//184 185//185 174//174
f 56//56 136//136 90//90
f 75//75 77//77 30//30
f 195//195 41//41 190//190
f 199//199 194//194 41//41
f 105//105 104//104 89//89
f 199//199 41//41 40//40
f 169//169 124//124 93//93
f 29//29 169//169 34//34
f 48//48 49//49 67//67
f 132//132 206//206 202//202
f 57//57 95//95 58//58
f 63//63 95//95 57//57
f 82//82 49//49 38//38
f 178//178 198//198 142//142
f 61//61 98//98 89//89
f 33//33 203//203 29//29
f 59//59 90//90 50//50
f 104//104 49//49 89//89
f 207//207 202//202 209//209
f 56//56 55//55 136//136
f 121//121 122//122 172//172
f 164//164 58//58 158//158
f 170//170 129//129 180//180
f 27//27 183//183 35//35
f 197//197 59//59 52//52
f 169//169 69//69 124//124
f 185//185 142//142 141//141
f 68//68 28//28 35//35
f 142//142 198//198 143//143
f 176//176 155//155 99//99
f 64//64 70//70 175//175
f 72//72 42//42 196//196
f 155//155 157//157 100//100
f 114//114 125//125 131//131
f 118//118 36//36 60//60
f 133//133 92//92 87//87
f 136//136 50//50 90//90
f 193//193 200//200 199//199
f 42//42 44//44 86//86
f 54//54 56//56 33//33
f 157//157 156//156 147//147
f 139//139 138//138 191//191
f 208//208 205//205 210//210
f 49//49 104//104 83//83
f 34//34 68//68 35//35
f 196//196 42//42 86//86
f 92//92 32//32 88//88
f 145//145 189//189 146//146
f 146//146 200//200 193//193
f 56//56 203//203 33//33
f 152//152 135//135 171//171
f 46//46 72//72 47//47
f 186//186 178//178 177//177
f 206//206 205//205 209//209
f 107//107 31//31 80//80
f 80//80 24//24 108//108
f 83//83 65//65 67//67
# 404 faces, 0 coords texture

# End of File
