####
#
# OBJ File Generated by Meshlab
#
####
# Object m844.obj
#
# Vertices: 200
# Faces: 324
#
####
vn 1.570795 -1.570795 -1.570796
v 0.975000 0.797306 0.026187
vn 1.570798 -1.570797 1.570796
v 0.975000 0.797306 0.204295
vn 1.570798 1.570797 1.570796
v 0.975000 0.826961 0.204295
vn 1.570795 1.570795 -1.570796
v 0.975000 0.826961 0.026187
vn -1.570798 -1.570797 -1.570795
v 0.025094 0.797306 0.026188
vn -1.570795 -1.570796 1.570797
v 0.025094 0.797306 0.204296
vn -1.570795 1.570796 1.570797
v 0.025094 0.826961 0.204296
vn -1.570798 1.570797 -1.570795
v 0.025094 0.826961 0.026188
vn 1.570795 -1.570795 -1.570796
v 0.965085 0.789902 0.026187
vn 1.570798 -1.570797 1.570796
v 0.965085 0.789902 0.194404
vn 1.570798 1.570797 1.570796
v 0.965085 0.797320 0.194404
vn 1.570795 1.570795 -1.570796
v 0.965085 0.797320 0.026187
vn -1.570798 -1.570796 -1.570794
v 0.035008 0.789902 0.026188
vn -1.570795 -1.570796 1.570798
v 0.035009 0.789902 0.194405
vn -1.570795 1.570796 1.570798
v 0.035009 0.797320 0.194405
vn -1.570798 1.570796 -1.570794
v 0.035008 0.797320 0.026188
vn 1.570795 -1.570795 -1.570796
v 0.960158 0.782481 0.026247
vn 1.570798 -1.570797 1.570796
v 0.960158 0.782481 0.184525
vn 1.570798 1.570797 1.570796
v 0.960158 0.789899 0.184525
vn 1.570795 1.570795 -1.570796
v 0.960158 0.789899 0.026247
vn -1.570798 -1.570796 -1.570794
v 0.039936 0.782481 0.026248
vn -1.570795 -1.570797 1.570798
v 0.039936 0.782481 0.184526
vn -1.570795 1.570797 1.570798
v 0.039936 0.789899 0.184526
vn -1.570798 1.570796 -1.570794
v 0.039936 0.789899 0.026248
vn -1.568918 1.574132 -1.571724
v 0.025063 0.055789 0.026188
vn -1.568915 1.574132 1.571728
v 0.025063 0.055789 0.204296
vn -1.572668 -1.567458 1.569868
v 0.025000 0.026135 0.204296
vn -1.572671 -1.567458 -1.569865
v 0.025000 0.026135 0.026188
vn 1.572668 1.567457 -1.569866
v 0.974968 0.054655 0.026187
vn 1.572671 1.567459 1.569866
v 0.974968 0.054655 0.204295
vn 1.568918 -1.574133 1.571726
v 0.974905 0.025000 0.204295
vn 1.568915 -1.574131 -1.571726
v 0.974905 0.025000 0.026187
vn -1.568918 1.574119 -1.571716
v 0.034993 0.063183 0.026188
vn -1.568915 1.574140 1.571733
v 0.034993 0.063183 0.194405
vn -1.572667 -1.567449 1.569862
v 0.034978 0.055764 0.194405
vn -1.572671 -1.567471 -1.569873
v 0.034978 0.055764 0.026188
vn 1.572668 1.567406 -1.569834
v 0.965069 0.062072 0.026187
vn 1.572671 1.567408 1.569834
v 0.965069 0.062072 0.194404
vn 1.568918 -1.574184 1.571759
v 0.965053 0.054653 0.194404
vn 1.568915 -1.574182 -1.571759
v 0.965053 0.054653 0.026187
vn -1.568918 1.574119 -1.571716
v 0.039937 0.070597 0.026248
vn -1.568915 1.574140 1.571733
v 0.039937 0.070597 0.184526
vn -1.572667 -1.567449 1.569862
v 0.039921 0.063179 0.184526
vn -1.572671 -1.567471 -1.569872
v 0.039921 0.063179 0.026248
vn 1.572667 1.567406 -1.569834
v 0.960157 0.069498 0.026247
vn 1.572671 1.567408 1.569834
v 0.960157 0.069498 0.184525
vn 1.568918 -1.574184 1.571759
v 0.960141 0.062080 0.184525
vn 1.568915 -1.574182 -1.571759
v 0.960141 0.062080 0.026247
vn 1.570795 -1.570795 -1.570796
v 0.945315 0.070050 0.025000
vn 1.570798 -1.570797 1.570796
v 0.945315 0.070050 0.027375
vn 1.570798 1.570797 1.570796
v 0.945315 0.782479 0.027375
vn 1.570795 1.570795 -1.570796
v 0.945315 0.782479 0.025000
vn -1.570798 -1.570797 -1.570796
v 0.054778 0.070050 0.025001
vn -1.570795 -1.570795 1.570796
v 0.054778 0.070050 0.027376
vn -1.570795 1.570795 1.570796
v 0.054778 0.782479 0.027376
vn -1.570798 1.570797 -1.570796
v 0.054778 0.782479 0.025001
vn 1.570795 -1.570795 -1.570796
v 0.940370 0.090458 0.026187
vn 1.570798 -1.570797 1.570796
v 0.940370 0.090458 0.159768
vn 1.570798 1.570797 1.570796
v 0.940370 0.094168 0.159768
vn 1.570795 1.570795 -1.570796
v 0.940370 0.094168 0.026187
vn -1.570798 -1.570797 -1.570795
v 0.059724 0.090458 0.026188
vn -1.570795 -1.570796 1.570798
v 0.059724 0.090458 0.159769
vn -1.570795 1.570796 1.570798
v 0.059724 0.094168 0.159769
vn -1.570798 1.570797 -1.570795
v 0.059724 0.094168 0.026188
vn 1.570795 -1.570795 -1.570796
v 0.940370 0.268565 0.026187
vn 1.570798 -1.570797 1.570796
v 0.940370 0.268565 0.159768
vn 1.570798 1.570797 1.570796
v 0.940370 0.272276 0.159768
vn 1.570795 1.570795 -1.570796
v 0.940370 0.272276 0.026187
vn -1.570798 -1.570797 -1.570795
v 0.059724 0.268565 0.026188
vn -1.570795 -1.570796 1.570798
v 0.059724 0.268565 0.159769
vn -1.570795 1.570796 1.570798
v 0.059724 0.272276 0.159769
vn -1.570798 1.570797 -1.570795
v 0.059724 0.272276 0.026188
vn 1.570795 -1.570795 -1.570796
v 0.940370 0.446672 0.026187
vn 1.570798 -1.570797 1.570796
v 0.940370 0.446672 0.159768
vn 1.570798 1.570797 1.570796
v 0.940370 0.450383 0.159768
vn 1.570795 1.570795 -1.570796
v 0.940370 0.450383 0.026187
vn -1.570798 -1.570797 -1.570795
v 0.059724 0.446672 0.026188
vn -1.570795 -1.570796 1.570798
v 0.059724 0.446672 0.159769
vn -1.570795 1.570796 1.570798
v 0.059724 0.450383 0.159769
vn -1.570798 1.570797 -1.570795
v 0.059724 0.450383 0.026188
vn 1.570795 -1.570795 -1.570796
v 0.940370 0.624780 0.026187
vn 1.570798 -1.570797 1.570796
v 0.940370 0.624780 0.159768
vn 1.570798 1.570797 1.570796
v 0.940370 0.628491 0.159768
vn 1.570795 1.570795 -1.570796
v 0.940370 0.628491 0.026187
vn -1.570798 -1.570797 -1.570795
v 0.059724 0.624780 0.026188
vn -1.570795 -1.570796 1.570798
v 0.059724 0.624780 0.159769
vn -1.570795 1.570796 1.570798
v 0.059724 0.628491 0.159769
vn -1.570798 1.570797 -1.570795
v 0.059724 0.628491 0.026188
vn 1.570795 -1.570795 -1.570796
v 0.950261 0.070050 0.159764
vn 1.570796 -1.570796 1.570796
v 0.950261 0.070050 0.164712
vn 1.570796 1.570796 1.570796
v 0.950261 0.092313 0.164712
vn 1.570795 1.570795 -1.570796
v 0.950261 0.092313 0.159764
vn -1.570798 -1.570797 -1.570796
v 0.049833 0.070050 0.159765
vn -1.570796 -1.570796 1.570796
v 0.049833 0.070050 0.164712
vn -1.570796 1.570796 1.570796
v 0.049833 0.092313 0.164712
vn -1.570798 1.570797 -1.570796
v 0.049833 0.092313 0.159765
vn 1.570795 -1.570795 -1.570796
v 0.950261 0.760216 0.159764
vn 1.570796 -1.570796 1.570796
v 0.950261 0.760216 0.164712
vn 1.570796 1.570796 1.570796
v 0.950261 0.782479 0.164712
vn 1.570795 1.570795 -1.570796
v 0.950261 0.782479 0.159764
vn -1.570798 -1.570797 -1.570796
v 0.049833 0.760216 0.159765
vn -1.570796 -1.570796 1.570796
v 0.049833 0.760216 0.164712
vn -1.570796 1.570796 1.570796
v 0.049833 0.782479 0.164712
vn -1.570798 1.570797 -1.570796
v 0.049833 0.782479 0.159765
vn 1.570796 -1.570796 -1.570796
v 0.079120 0.092313 0.159765
vn 1.570796 -1.570796 1.570796
v 0.079120 0.092313 0.164712
vn 1.570796 1.570796 1.570796
v 0.079120 0.760216 0.164712
vn 1.570796 1.570796 -1.570796
v 0.079120 0.760216 0.159765
vn -1.570796 -1.570796 -1.570796
v 0.049435 0.092313 0.159765
vn -1.570796 -1.570796 1.570796
v 0.049435 0.092313 0.164712
vn -1.570796 1.570796 1.570796
v 0.049435 0.760216 0.164712
vn -1.570796 1.570796 -1.570796
v 0.049435 0.760216 0.159765
vn 1.570796 -1.570796 -1.570796
v 0.514889 0.092313 0.159764
vn 1.570796 -1.570796 1.570796
v 0.514889 0.092313 0.164712
vn 1.570796 1.570796 1.570796
v 0.514889 0.760216 0.164712
vn 1.570796 1.570796 -1.570796
v 0.514889 0.760216 0.159764
vn -1.570796 -1.570796 -1.570796
v 0.485205 0.092313 0.159764
vn -1.570796 -1.570796 1.570796
v 0.485205 0.092313 0.164712
vn -1.570796 1.570796 1.570796
v 0.485205 0.760216 0.164712
vn -1.570796 1.570796 -1.570796
v 0.485205 0.760216 0.159764
vn 1.570796 -1.570796 -1.570796
v 0.950659 0.092313 0.159764
vn 1.570796 -1.570796 1.570796
v 0.950659 0.092313 0.164712
vn 1.570796 1.570796 1.570796
v 0.950659 0.760216 0.164712
vn 1.570796 1.570796 -1.570796
v 0.950659 0.760216 0.159764
vn -1.570796 -1.570796 -1.570796
v 0.920974 0.092313 0.159764
vn -1.570796 -1.570796 1.570796
v 0.920974 0.092313 0.164712
vn -1.570796 1.570796 1.570796
v 0.920974 0.760216 0.164712
vn -1.570796 1.570796 -1.570796
v 0.920974 0.760216 0.159764
vn 1.570796 -1.570797 -1.570798
v 0.065661 0.070050 0.026188
vn 1.570796 -1.570796 1.570795
v 0.065661 0.070050 0.159769
vn 1.570796 1.570796 1.570795
v 0.065661 0.782479 0.159769
vn 1.570796 1.570797 -1.570798
v 0.065661 0.782479 0.026188
vn -1.570796 -1.570796 -1.570795
v 0.055770 0.070050 0.026188
vn -1.570796 -1.570797 1.570798
v 0.055770 0.070050 0.159769
vn -1.570796 1.570797 1.570798
v 0.055770 0.782479 0.159769
vn -1.570796 1.570796 -1.570795
v 0.055770 0.782479 0.026188
vn 1.570796 -1.570796 -1.570796
v 0.504992 0.070050 0.026188
vn 1.570796 -1.570796 1.570796
v 0.504992 0.070050 0.159768
vn 1.570796 1.570796 1.570796
v 0.504992 0.782479 0.159768
vn 1.570796 1.570796 -1.570796
v 0.504992 0.782479 0.026188
vn -1.570796 -1.570789 -1.570785
v 0.495101 0.070050 0.026188
vn -1.570796 -1.570804 1.570808
v 0.495102 0.070050 0.159768
vn -1.570796 1.570804 1.570808
v 0.495102 0.782479 0.159768
vn -1.570796 1.570789 -1.570785
v 0.495101 0.782479 0.026188
vn 1.570796 -1.570796 -1.570796
v 0.944324 0.070050 0.026187
vn 1.570796 -1.570796 1.570796
v 0.944324 0.070050 0.159768
vn 1.570796 1.570796 1.570796
v 0.944324 0.782479 0.159768
vn 1.570796 1.570796 -1.570796
v 0.944324 0.782479 0.026187
vn -1.570796 -1.570796 -1.570796
v 0.934433 0.070050 0.026187
vn -1.570796 -1.570796 1.570796
v 0.934433 0.070050 0.159768
vn -1.570796 1.570796 1.570796
v 0.934433 0.782479 0.159768
vn -1.570796 1.570796 -1.570796
v 0.934433 0.782479 0.026187
vn 3.141593 -3.141579 -0.000021
v 0.949274 0.070050 0.130083
vn 1.570796 -1.570796 1.570796
v 0.949274 0.070050 0.159768
vn 1.570796 1.570796 1.570796
v 0.949274 0.782479 0.159768
vn 3.141593 3.141579 -0.000021
v 0.949274 0.782479 0.130083
vn -1.570796 -1.570796 1.570796
v 0.944326 0.070050 0.159768
vn -1.570796 1.570796 1.570796
v 0.944326 0.782479 0.159768
vn 1.570796 -1.570796 -1.570796
v 0.949273 0.070050 0.026187
vn 3.141593 -3.141606 -0.000021
v 0.949273 0.070050 0.055872
vn 3.141593 3.141606 -0.000021
v 0.949273 0.782479 0.055872
vn 1.570796 1.570796 -1.570796
v 0.949273 0.782479 0.026187
vn -1.570796 -1.570796 -1.570796
v 0.944326 0.070050 0.026187
vn -1.570796 1.570796 -1.570796
v 0.944326 0.782479 0.026187
vn 1.570796 -1.570810 -1.570817
v 0.949273 0.760216 0.055872
vn 1.570796 -1.570783 1.570775
v 0.949274 0.760216 0.130083
vn -1.570796 -1.570796 -1.570796
v 0.944326 0.760216 0.055872
vn -1.570796 -1.570796 1.570796
v 0.944326 0.760216 0.130083
vn -3.141593 3.141593 -0.000000
v 0.944326 0.782479 0.130083
vn -3.141593 3.141593 0.000000
v 0.944326 0.782479 0.055872
vn 1.570796 1.570783 1.570775
v 0.949274 0.092313 0.130083
vn 1.570796 1.570810 -1.570817
v 0.949273 0.092313 0.055872
vn -3.141593 -3.141593 -0.000000
v 0.944326 0.070050 0.055872
vn -3.141593 -3.141593 0.000000
v 0.944326 0.070050 0.130083
vn -1.570796 1.570796 1.570796
v 0.944326 0.092313 0.130083
vn -1.570796 1.570796 -1.570796
v 0.944326 0.092313 0.055872
vn 3.141593 -3.141591 -0.000002
v 0.058737 0.070050 0.130084
vn 1.570796 -1.570796 1.570796
v 0.058737 0.070050 0.159769
vn 1.570796 1.570796 1.570796
v 0.058737 0.782479 0.159769
vn 3.141593 3.141591 -0.000002
v 0.058737 0.782479 0.130084
vn -3.141593 -3.141589 0.000005
v 0.053789 0.070050 0.130084
vn -1.570796 -1.570800 1.570802
v 0.053789 0.070050 0.159769
vn -1.570796 1.570800 1.570802
v 0.053789 0.782479 0.159769
vn -3.141593 3.141589 0.000005
v 0.053789 0.782479 0.130084
vn 1.570796 -1.570796 -1.570796
v 0.058737 0.070050 0.026188
vn 3.141593 -3.141594 -0.000002
v 0.058737 0.070050 0.055873
vn 3.141593 3.141594 -0.000002
v 0.058737 0.782479 0.055873
vn 1.570796 1.570796 -1.570796
v 0.058737 0.782479 0.026188
vn -1.570796 -1.570793 -1.570791
v 0.053789 0.070050 0.026188
vn -1.570796 1.570793 -1.570791
v 0.053789 0.782479 0.026188
vn 1.570765 -1.570777 -1.570798
v 0.058737 0.760216 0.055873
vn 1.570796 -1.570795 1.570794
v 0.058737 0.760216 0.130084
vn -1.570828 -1.570817 -1.570796
v 0.053789 0.760216 0.055873
vn -1.570796 -1.570796 1.570796
v 0.053789 0.760216 0.130084
vn -3.141593 3.141596 0.000005
v 0.053789 0.782479 0.055873
vn 1.570796 1.570795 1.570794
v 0.058737 0.092313 0.130084
vn 1.570765 1.570777 -1.570798
v 0.058737 0.092313 0.055873
vn -3.141593 -3.141596 0.000005
v 0.053789 0.070050 0.055873
vn -1.570796 1.570796 1.570796
v 0.053789 0.092313 0.130084
vn -1.570828 1.570817 -1.570796
v 0.053789 0.092313 0.055873
# 200 vertices, 0 vertices normals

f 1//1 4//4 2//2
f 2//2 4//4 3//3
f 1//1 6//6 5//5
f 1//1 2//2 6//6
f 1//1 5//5 4//4
f 4//4 5//5 8//8
f 4//4 8//8 7//7
f 4//4 7//7 3//3
f 2//2 7//7 6//6
f 2//2 3//3 7//7
f 6//6 8//8 5//5
f 6//6 7//7 8//8
f 9//9 12//12 10//10
f 10//10 12//12 11//11
f 9//9 14//14 13//13
f 9//9 10//10 14//14
f 9//9 13//13 12//12
f 12//12 13//13 16//16
f 12//12 16//16 15//15
f 12//12 15//15 11//11
f 10//10 15//15 14//14
f 10//10 11//11 15//15
f 14//14 16//16 13//13
f 14//14 15//15 16//16
f 17//17 20//20 18//18
f 18//18 20//20 19//19
f 17//17 22//22 21//21
f 17//17 18//18 22//22
f 17//17 21//21 20//20
f 20//20 21//21 24//24
f 20//20 24//24 23//23
f 20//20 23//23 19//19
f 18//18 23//23 22//22
f 18//18 19//19 23//23
f 22//22 24//24 21//21
f 22//22 23//23 24//24
f 25//25 28//28 26//26
f 26//26 28//28 27//27
f 25//25 30//30 29//29
f 25//25 26//26 30//30
f 25//25 29//29 28//28
f 28//28 29//29 32//32
f 28//28 32//32 31//31
f 28//28 31//31 27//27
f 26//26 31//31 30//30
f 26//26 27//27 31//31
f 30//30 32//32 29//29
f 30//30 31//31 32//32
f 33//33 36//36 34//34
f 34//34 36//36 35//35
f 33//33 38//38 37//37
f 33//33 34//34 38//38
f 33//33 37//37 36//36
f 36//36 37//37 40//40
f 36//36 40//40 39//39
f 36//36 39//39 35//35
f 34//34 39//39 38//38
f 34//34 35//35 39//39
f 38//38 40//40 37//37
f 38//38 39//39 40//40
f 41//41 44//44 42//42
f 42//42 44//44 43//43
f 41//41 46//46 45//45
f 41//41 42//42 46//46
f 41//41 45//45 44//44
f 44//44 45//45 48//48
f 44//44 48//48 47//47
f 44//44 47//47 43//43
f 42//42 47//47 46//46
f 42//42 43//43 47//47
f 46//46 48//48 45//45
f 46//46 47//47 48//48
f 49//49 52//52 50//50
f 50//50 52//52 51//51
f 49//49 54//54 53//53
f 49//49 50//50 54//54
f 49//49 53//53 52//52
f 52//52 53//53 56//56
f 52//52 56//56 55//55
f 52//52 55//55 51//51
f 50//50 55//55 54//54
f 50//50 51//51 55//55
f 54//54 56//56 53//53
f 54//54 55//55 56//56
f 57//57 60//60 58//58
f 58//58 60//60 59//59
f 57//57 62//62 61//61
f 57//57 58//58 62//62
f 57//57 61//61 60//60
f 60//60 61//61 64//64
f 60//60 64//64 63//63
f 60//60 63//63 59//59
f 58//58 63//63 62//62
f 58//58 59//59 63//63
f 62//62 64//64 61//61
f 62//62 63//63 64//64
f 65//65 68//68 66//66
f 66//66 68//68 67//67
f 65//65 70//70 69//69
f 65//65 66//66 70//70
f 65//65 69//69 68//68
f 68//68 69//69 72//72
f 68//68 72//72 71//71
f 68//68 71//71 67//67
f 66//66 71//71 70//70
f 66//66 67//67 71//71
f 70//70 72//72 69//69
f 70//70 71//71 72//72
f 73//73 76//76 74//74
f 74//74 76//76 75//75
f 73//73 78//78 77//77
f 73//73 74//74 78//78
f 73//73 77//77 76//76
f 76//76 77//77 80//80
f 76//76 80//80 79//79
f 76//76 79//79 75//75
f 74//74 79//79 78//78
f 74//74 75//75 79//79
f 78//78 80//80 77//77
f 78//78 79//79 80//80
f 81//81 84//84 82//82
f 82//82 84//84 83//83
f 81//81 86//86 85//85
f 81//81 82//82 86//86
f 81//81 85//85 84//84
f 84//84 85//85 88//88
f 84//84 88//88 87//87
f 84//84 87//87 83//83
f 82//82 87//87 86//86
f 82//82 83//83 87//87
f 86//86 88//88 85//85
f 86//86 87//87 88//88
f 89//89 92//92 90//90
f 90//90 92//92 91//91
f 89//89 94//94 93//93
f 89//89 90//90 94//94
f 89//89 93//93 92//92
f 92//92 93//93 96//96
f 92//92 96//96 95//95
f 92//92 95//95 91//91
f 90//90 95//95 94//94
f 90//90 91//91 95//95
f 94//94 96//96 93//93
f 94//94 95//95 96//96
f 97//97 100//100 98//98
f 98//98 100//100 99//99
f 97//97 102//102 101//101
f 97//97 98//98 102//102
f 97//97 101//101 100//100
f 100//100 101//101 104//104
f 100//100 104//104 103//103
f 100//100 103//103 99//99
f 98//98 103//103 102//102
f 98//98 99//99 103//103
f 102//102 104//104 101//101
f 102//102 103//103 104//104
f 105//105 108//108 106//106
f 106//106 108//108 107//107
f 105//105 110//110 109//109
f 105//105 106//106 110//110
f 105//105 109//109 108//108
f 108//108 109//109 112//112
f 108//108 112//112 111//111
f 108//108 111//111 107//107
f 106//106 111//111 110//110
f 106//106 107//107 111//111
f 110//110 112//112 109//109
f 110//110 111//111 112//112
f 113//113 116//116 114//114
f 114//114 116//116 115//115
f 113//113 118//118 117//117
f 113//113 114//114 118//118
f 113//113 117//117 116//116
f 116//116 117//117 120//120
f 116//116 120//120 119//119
f 116//116 119//119 115//115
f 114//114 119//119 118//118
f 114//114 115//115 119//119
f 118//118 120//120 117//117
f 118//118 119//119 120//120
f 121//121 124//124 122//122
f 122//122 124//124 123//123
f 121//121 126//126 125//125
f 121//121 122//122 126//126
f 121//121 125//125 124//124
f 124//124 125//125 128//128
f 124//124 128//128 127//127
f 124//124 127//127 123//123
f 122//122 127//127 126//126
f 122//122 123//123 127//127
f 126//126 128//128 125//125
f 126//126 127//127 128//128
f 129//129 132//132 130//130
f 130//130 132//132 131//131
f 129//129 134//134 133//133
f 129//129 130//130 134//134
f 129//129 133//133 132//132
f 132//132 133//133 136//136
f 132//132 136//136 135//135
f 132//132 135//135 131//131
f 130//130 135//135 134//134
f 130//130 131//131 135//135
f 134//134 136//136 133//133
f 134//134 135//135 136//136
f 137//137 140//140 138//138
f 138//138 140//140 139//139
f 137//137 142//142 141//141
f 137//137 138//138 142//142
f 137//137 141//141 140//140
f 140//140 141//141 144//144
f 140//140 144//144 143//143
f 140//140 143//143 139//139
f 138//138 143//143 142//142
f 138//138 139//139 143//143
f 142//142 144//144 141//141
f 142//142 143//143 144//144
f 145//145 148//148 146//146
f 146//146 148//148 147//147
f 145//145 150//150 149//149
f 145//145 146//146 150//150
f 145//145 149//149 148//148
f 148//148 149//149 152//152
f 148//148 152//152 151//151
f 148//148 151//151 147//147
f 146//146 151//151 150//150
f 146//146 147//147 151//151
f 150//150 152//152 149//149
f 150//150 151//151 152//152
f 153//153 156//156 154//154
f 154//154 156//156 155//155
f 153//153 157//157 174//174
f 153//153 154//154 157//157
f 153//153 174//174 156//156
f 156//156 174//174 169//169
f 156//156 169//169 158//158
f 156//156 158//158 155//155
f 154//154 158//158 157//157
f 154//154 155//155 158//158
f 157//157 169//169 174//174
f 157//157 158//158 169//169
f 159//159 162//162 160//160
f 160//160 162//162 161//161
f 159//159 173//173 163//163
f 159//159 160//160 173//173
f 159//159 163//163 162//162
f 162//162 163//163 164//164
f 162//162 164//164 170//170
f 162//162 170//170 161//161
f 160//160 170//170 173//173
f 160//160 161//161 170//170
f 173//173 164//164 163//163
f 173//173 170//170 164//164
f 165//165 161//161 166//166
f 166//166 161//161 156//156
f 165//165 168//168 167//167
f 165//165 166//166 168//168
f 165//165 167//167 161//161
f 161//161 167//167 170//170
f 161//161 170//170 169//169
f 161//161 169//169 156//156
f 166//166 169//169 168//168
f 166//166 156//156 169//169
f 168//168 170//170 167//167
f 168//168 169//169 170//170
f 160//160 172//172 153//153
f 153//153 172//172 171//171
f 160//160 174//174 173//173
f 160//160 153//153 174//174
f 160//160 173//173 172//172
f 172//172 173//173 176//176
f 172//172 176//176 175//175
f 172//172 175//175 171//171
f 153//153 175//175 174//174
f 153//153 171//171 175//175
f 174//174 176//176 173//173
f 174//174 175//175 176//176
f 177//177 180//180 178//178
f 178//178 180//180 179//179
f 177//177 182//182 181//181
f 177//177 178//178 182//182
f 177//177 181//181 180//180
f 180//180 181//181 184//184
f 180//180 184//184 183//183
f 180//180 183//183 179//179
f 178//178 183//183 182//182
f 178//178 179//179 183//183
f 182//182 184//184 181//181
f 182//182 183//183 184//184
f 185//185 188//188 186//186
f 186//186 188//188 187//187
f 185//185 198//198 189//189
f 185//185 186//186 198//198
f 185//185 189//189 188//188
f 188//188 189//189 190//190
f 188//188 190//190 195//195
f 188//188 195//195 187//187
f 186//186 195//195 198//198
f 186//186 187//187 195//195
f 198//198 190//190 189//189
f 198//198 195//195 190//190
f 191//191 187//187 192//192
f 192//192 187//187 180//180
f 191//191 194//194 193//193
f 191//191 192//192 194//194
f 191//191 193//193 187//187
f 187//187 193//193 195//195
f 187//187 195//195 184//184
f 187//187 184//184 180//180
f 192//192 184//184 194//194
f 192//192 180//180 184//184
f 194//194 195//195 193//193
f 194//194 184//184 195//195
f 186//186 197//197 177//177
f 177//177 197//197 196//196
f 186//186 181//181 198//198
f 186//186 177//177 181//181
f 186//186 198//198 197//197
f 197//197 198//198 200//200
f 197//197 200//200 199//199
f 197//197 199//199 196//196
f 177//177 199//199 181//181
f 177//177 196//196 199//199
f 181//181 200//200 198//198
f 181//181 199//199 200//200
# 324 faces, 0 coords texture

# End of File
