####
#
# OBJ File Generated by Meshlab
#
####
# Object m865.obj
#
# Vertices: 255
# Faces: 318
#
####
vn 2.848979 -2.750859 1.175538
v 0.722875 0.025001 0.256992
vn 2.844384 0.000055 1.179660
v 0.722858 0.974994 0.256992
vn 3.112157 0.000056 0.302322
v 0.722939 0.974994 0.256579
vn 3.111651 -2.945535 0.305918
v 0.722957 0.025001 0.256579
vn 2.179581 -2.745436 2.176674
v 0.722643 0.025001 0.257341
vn 2.177715 0.000044 2.182028
v 0.722623 0.974994 0.257341
vn 1.178791 -2.750493 2.847635
v 0.722292 0.025001 0.257575
vn 1.180670 0.000023 2.845403
v 0.722274 0.974994 0.257575
vn 0.307465 -2.944659 3.111890
v 0.721881 0.025001 0.257657
vn 0.305902 0.000006 3.111519
v 0.721861 0.974994 0.257657
vn -3.111385 -2.945647 0.305886
v 0.703569 0.025000 0.256579
vn -3.112150 -0.000057 0.302313
v 0.703552 0.974994 0.256579
vn -2.847830 -0.000052 1.174495
v 0.703633 0.974994 0.256992
vn -2.845319 -2.747003 1.180586
v 0.703651 0.025000 0.256992
vn -2.177726 -0.000042 2.179159
v 0.703866 0.974994 0.257341
vn -2.176721 -2.752121 2.176730
v 0.703885 0.025000 0.257341
vn -1.178665 -0.000023 2.847413
v 0.704217 0.974994 0.257575
vn -1.180633 -2.746970 2.845431
v 0.704234 0.025000 0.257575
vn -0.307341 -0.000006 3.111232
v 0.704628 0.974994 0.257657
vn -0.305769 -2.945600 3.111267
v 0.704647 0.025000 0.257657
vn 1.570869 -1.570767 -1.570824
v 0.722957 0.025001 0.025014
vn -1.570723 -1.570829 -1.570775
v 0.703570 0.025000 0.025014
vn 0.000000 2.947925 0.000000
v 0.703552 0.974977 0.256579
vn -1.570870 1.570767 -1.570777
v 0.703552 0.974977 0.025014
vn 1.570870 1.570820 -1.570807
v 0.722940 0.974977 0.025014
vn 0.000000 2.947929 0.000000
v 0.722939 0.974977 0.256579
vn 0.000000 2.742643 0.000000
v 0.722858 0.974977 0.256992
vn 0.000000 2.754056 0.000000
v 0.722623 0.974977 0.257341
vn 0.000000 2.746948 0.000000
v 0.722274 0.974977 0.257575
vn 0.000000 2.945594 0.000000
v 0.721861 0.974977 0.257657
vn 0.000000 2.944665 0.000000
v 0.704628 0.974977 0.257657
vn 0.000000 2.750518 0.000000
v 0.704217 0.974977 0.257575
vn 0.000000 2.747462 0.000000
v 0.703866 0.974977 0.257341
vn 0.000000 2.746597 0.000000
v 0.703633 0.974977 0.256992
vn 2.848055 -2.748532 1.175911
v 0.044324 0.025001 0.256990
vn 2.844652 0.000055 1.180779
v 0.044306 0.974994 0.256990
vn 3.111734 0.000057 0.304466
v 0.044388 0.974994 0.256578
vn 3.111938 -2.946478 0.304477
v 0.044405 0.025001 0.256578
vn 2.178544 -2.746958 2.178377
v 0.044091 0.025001 0.257339
vn 2.178407 0.000043 2.180999
v 0.044072 0.974994 0.257339
vn 1.178962 -2.750363 2.847520
v 0.043740 0.025001 0.257573
vn 1.180670 0.000022 2.845403
v 0.043723 0.974994 0.257573
vn 0.307464 -2.944659 3.111890
v 0.043329 0.025001 0.257655
vn 0.305902 0.000006 3.111519
v 0.043310 0.974994 0.257655
vn -3.111600 -2.946353 0.304804
v 0.025017 0.025000 0.256578
vn -3.111727 -0.000057 0.304456
v 0.025000 0.974994 0.256578
vn -2.847927 -0.000052 1.175864
v 0.025081 0.974994 0.256990
vn -2.844497 -2.745114 1.181046
v 0.025099 0.025000 0.256990
vn -2.178416 -0.000042 2.178268
v 0.025314 0.974994 0.257339
vn -2.175849 -2.753440 2.178150
v 0.025333 0.025000 0.257339
vn -1.178837 -0.000023 2.847298
v 0.025665 0.974994 0.257573
vn -1.180806 -2.746838 2.845315
v 0.025682 0.025000 0.257573
vn -0.307341 -0.000006 3.111232
v 0.026076 0.974994 0.257655
vn -0.305769 -2.945601 3.111267
v 0.026095 0.025000 0.257655
vn 1.570869 -1.570765 -1.570820
v 0.044406 0.025001 0.025012
vn -1.570723 -1.570828 -1.570773
v 0.025018 0.025000 0.025012
vn 0.000000 2.946529 0.000000
v 0.025000 0.974977 0.256578
vn -1.570870 1.570770 -1.570782
v 0.025001 0.974977 0.025012
vn 1.570870 1.570823 -1.570811
v 0.044388 0.974977 0.025012
vn 0.000000 2.946535 0.000000
v 0.044388 0.974977 0.256578
vn 0.000000 2.744825 0.000000
v 0.044306 0.974977 0.256990
vn 0.000000 2.753267 0.000000
v 0.044072 0.974977 0.257339
vn 0.000000 2.746948 0.000000
v 0.043723 0.974977 0.257573
vn 0.000000 2.945594 0.000000
v 0.043310 0.974977 0.257655
vn 0.000000 2.944665 0.000000
v 0.026076 0.974977 0.257655
vn 0.000000 2.750386 0.000000
v 0.025665 0.974977 0.257573
vn 0.000000 2.746999 0.000000
v 0.025314 0.974977 0.257339
vn 0.000000 2.748585 0.000000
v 0.025081 0.974977 0.256990
vn 2.749719 2.847273 1.178373
v 0.703569 0.083090 0.256979
vn 2.747389 2.178359 2.178503
v 0.703569 0.082857 0.257329
vn 2.945214 0.306477 3.111404
v 0.703569 0.082095 0.257644
vn -0.000001 3.111340 0.306620
v 0.044397 0.083172 0.256565
vn -0.000004 2.847275 1.178371
v 0.044397 0.083090 0.256977
vn -0.000007 2.178362 2.178503
v 0.044397 0.082857 0.257327
vn -0.000009 1.178144 2.847360
v 0.044397 0.082507 0.257560
vn -0.000009 0.306477 3.111405
v 0.044397 0.082095 0.257642
vn 2.945130 3.111380 0.306628
v 0.703569 0.083172 0.256567
vn 2.749686 1.178143 2.847358
v 0.703569 0.082507 0.257562
vn 2.749916 -2.847445 1.178114
v 0.703569 0.063866 0.256979
vn -0.000004 -2.847447 1.178113
v 0.044397 0.063866 0.256977
vn -0.000001 -1.540577 0.306620
v 0.044397 0.063784 0.256565
vn 2.945130 -1.540582 0.306628
v 0.703569 0.063784 0.256567
vn 2.747059 -2.178359 2.178360
v 0.703569 0.064100 0.257329
vn -0.000007 -2.178361 2.178360
v 0.044397 0.064100 0.257327
vn 2.749818 -1.177970 2.847474
v 0.703569 0.064449 0.257562
vn -0.000009 -1.177972 2.847475
v 0.044397 0.064449 0.257560
vn 2.945214 -0.306477 3.111404
v 0.703569 0.064861 0.257644
vn -0.000009 -0.306477 3.111405
v 0.044397 0.064861 0.257642
vn 1.570800 0.000000 -1.570790
v 0.703570 0.063784 0.025002
vn 1.570800 1.570795 -1.570790
v 0.703570 0.083172 0.025002
vn -2.945131 0.000000 -0.000004
v 0.044405 0.083172 0.256565
vn -1.570792 1.570830 -1.570800
v 0.044406 0.083172 0.025000
vn -1.570792 0.000000 -1.570800
v 0.044406 0.063784 0.025000
vn -2.945131 0.000000 -0.000004
v 0.044405 0.063784 0.256565
vn -2.749920 0.000000 0.000000
v 0.044405 0.063866 0.256977
vn -2.747065 0.000000 0.000000
v 0.044405 0.064100 0.257327
vn -2.749827 0.000000 0.000000
v 0.044405 0.064449 0.257560
vn -2.945224 0.000000 0.000000
v 0.044405 0.064861 0.257642
vn -2.945224 0.000000 0.000000
v 0.044405 0.082095 0.257642
vn -2.749695 0.000000 0.000000
v 0.044405 0.082507 0.257560
vn -2.747395 0.000000 0.000000
v 0.044405 0.082857 0.257327
vn -2.749722 0.000000 0.000000
v 0.044405 0.083090 0.256977
vn 0.000000 -1.570798 0.000000
v 0.703569 0.063784 0.256567
vn 0.000000 -1.570764 0.000000
v 0.044397 0.063784 0.256565
vn 0.000000 -1.570830 0.000000
v 0.044406 0.063784 0.025000
vn 0.000000 -1.570795 0.000000
v 0.703570 0.063784 0.025002
vn 2.748372 2.848847 1.173480
v 0.703569 0.306047 0.256979
vn 2.744160 2.176293 2.179159
v 0.703569 0.305814 0.257329
vn 2.944656 0.307338 3.111232
v 0.703569 0.305052 0.257644
vn -0.000001 3.112052 0.303020
v 0.044397 0.306128 0.256565
vn -0.000004 2.848848 1.173479
v 0.044397 0.306047 0.256977
vn -0.000007 2.176295 2.179159
v 0.044397 0.305814 0.257327
vn -0.000009 1.176077 2.849137
v 0.044397 0.305463 0.257560
vn -0.000009 0.307338 3.111233
v 0.044397 0.305052 0.257642
vn 2.947466 3.112092 0.303028
v 0.703569 0.306128 0.256567
vn 2.752484 1.176075 2.849136
v 0.703569 0.305463 0.257562
vn 2.753042 -2.847415 1.180674
v 0.703569 0.286824 0.256979
vn -0.000004 -2.847417 1.180672
v 0.044397 0.286824 0.256977
vn -0.000001 -3.110620 0.310214
v 0.044397 0.286741 0.256565
vn 2.942796 -3.110660 0.310222
v 0.703569 0.286741 0.256567
vn 2.746796 -2.179740 2.176864
v 0.703569 0.287057 0.257329
vn -0.000007 -2.179742 2.176864
v 0.044397 0.287057 0.257327
vn 2.748919 -1.178090 2.847126
v 0.703569 0.287406 0.257562
vn -0.000009 -1.178091 2.847128
v 0.044397 0.287406 0.257560
vn 2.945585 -0.305906 3.111517
v 0.703569 0.287819 0.257644
vn -0.000009 -0.305906 3.111518
v 0.044397 0.287819 0.257642
vn 1.570800 -1.570795 -1.570790
v 0.703570 0.286741 0.025002
vn 1.570800 1.570795 -1.570790
v 0.703570 0.306128 0.025002
vn -2.947467 0.000000 -0.000004
v 0.044405 0.306128 0.256565
vn -1.570792 1.570830 -1.570800
v 0.044406 0.306128 0.025000
vn -1.570792 -1.570830 -1.570800
v 0.044406 0.286741 0.025000
vn -2.942797 0.000000 -0.000004
v 0.044405 0.286741 0.256565
vn -2.753045 0.000000 0.000000
v 0.044405 0.286824 0.256977
vn -2.746803 0.000000 0.000000
v 0.044405 0.287057 0.257327
vn -2.748927 0.000000 0.000000
v 0.044405 0.287406 0.257560
vn -2.945594 0.000000 0.000000
v 0.044405 0.287819 0.257642
vn -2.944665 0.000000 0.000000
v 0.044405 0.305052 0.257642
vn -2.752493 0.000000 0.000000
v 0.044405 0.305463 0.257560
vn -2.744167 0.000000 0.000000
v 0.044405 0.305814 0.257327
vn -2.748376 0.000000 0.000000
v 0.044405 0.306047 0.256977
vn 2.752690 2.849858 1.174486
v 0.703569 0.529004 0.256979
vn 2.742178 2.178016 2.176565
v 0.703569 0.528772 0.257329
vn 2.944656 0.307338 3.111232
v 0.703569 0.528010 0.257644
vn -0.000001 3.111340 0.306620
v 0.044397 0.529086 0.256565
vn -0.000004 2.849859 1.174484
v 0.044397 0.529004 0.256977
vn -0.000007 2.178018 2.176565
v 0.044397 0.528772 0.257327
vn -0.000009 1.176077 2.849137
v 0.044397 0.528421 0.257560
vn -0.000009 0.307338 3.111233
v 0.044397 0.528010 0.257642
vn 2.945130 3.111380 0.306628
v 0.703569 0.529086 0.256567
vn 2.752484 1.176075 2.849136
v 0.703569 0.528421 0.257562
vn 2.753042 -2.847415 1.180674
v 0.703569 0.509781 0.256979
vn -0.000004 -2.847417 1.180672
v 0.044397 0.509781 0.256977
vn -0.000001 -3.110620 0.310214
v 0.044397 0.509698 0.256565
vn 2.942796 -3.110660 0.310222
v 0.703569 0.509698 0.256567
vn 2.746796 -2.179740 2.176864
v 0.703569 0.510014 0.257329
vn -0.000007 -2.179742 2.176864
v 0.044397 0.510014 0.257327
vn 2.748919 -1.178090 2.847126
v 0.703569 0.510363 0.257562
vn -0.000009 -1.178091 2.847128
v 0.044397 0.510363 0.257560
vn 2.945585 -0.305906 3.111517
v 0.703569 0.510776 0.257644
vn -0.000009 -0.305906 3.111518
v 0.044397 0.510776 0.257642
vn 1.570800 -1.570795 -1.570790
v 0.703570 0.509698 0.025002
vn 1.570800 1.570795 -1.570790
v 0.703570 0.529086 0.025002
vn -2.945131 0.000000 -0.000004
v 0.044405 0.529086 0.256565
vn -1.570792 1.570830 -1.570800
v 0.044406 0.529086 0.025000
vn -1.570792 -1.570830 -1.570800
v 0.044406 0.509698 0.025000
vn -2.942797 0.000000 -0.000004
v 0.044405 0.509698 0.256565
vn -2.753045 0.000000 0.000000
v 0.044405 0.509781 0.256977
vn -2.746803 0.000000 0.000000
v 0.044405 0.510014 0.257327
vn -2.748927 0.000000 0.000000
v 0.044405 0.510363 0.257560
vn -2.945594 0.000000 0.000000
v 0.044405 0.510776 0.257642
vn -2.944665 0.000000 0.000000
v 0.044405 0.528010 0.257642
vn -2.752493 0.000000 0.000000
v 0.044405 0.528421 0.257560
vn -2.742185 0.000000 0.000000
v 0.044405 0.528772 0.257327
vn -2.752694 0.000000 0.000000
v 0.044405 0.529004 0.256977
vn 2.752690 2.849858 1.174486
v 0.703569 0.751961 0.256979
vn 2.742178 2.178016 2.176565
v 0.703569 0.751729 0.257329
vn 2.944656 0.307338 3.111232
v 0.703569 0.750967 0.257644
vn -0.000001 3.111340 0.306620
v 0.044397 0.752043 0.256565
vn -0.000004 2.849859 1.174484
v 0.044397 0.751961 0.256977
vn -0.000007 2.178018 2.176565
v 0.044397 0.751729 0.257327
vn -0.000009 1.176077 2.849137
v 0.044397 0.751378 0.257560
vn -0.000009 0.307338 3.111233
v 0.044397 0.750967 0.257642
vn 2.945130 3.111380 0.306628
v 0.703569 0.752043 0.256567
vn 2.752484 1.176075 2.849136
v 0.703569 0.751378 0.257562
vn 2.757355 -2.848411 1.181669
v 0.703569 0.732739 0.256979
vn -0.000004 -2.848412 1.181668
v 0.044397 0.732739 0.256977
vn -0.000001 -3.109893 0.313803
v 0.044397 0.732655 0.256565
vn 2.940465 -3.109933 0.313811
v 0.703569 0.732655 0.256567
vn 2.744814 -2.181463 2.174270
v 0.703569 0.732971 0.257329
vn -0.000007 -2.181465 2.174270
v 0.044397 0.732971 0.257327
vn 2.748919 -1.178090 2.847126
v 0.703569 0.733320 0.257562
vn -0.000009 -1.178091 2.847128
v 0.044397 0.733320 0.257560
vn 2.945585 -0.305906 3.111517
v 0.703569 0.733733 0.257644
vn -0.000009 -0.305906 3.111518
v 0.044397 0.733733 0.257642
vn 1.570800 -1.570795 -1.570790
v 0.703570 0.732655 0.025002
vn 1.570800 1.570795 -1.570790
v 0.703570 0.752043 0.025002
vn -2.945131 0.000000 -0.000004
v 0.044405 0.752043 0.256565
vn -1.570792 1.570830 -1.570800
v 0.044406 0.752043 0.025000
vn -1.570792 -1.570830 -1.570800
v 0.044406 0.732655 0.025000
vn -2.940466 0.000000 -0.000004
v 0.044405 0.732655 0.256565
vn -2.757359 0.000000 0.000000
v 0.044405 0.732739 0.256977
vn -2.744820 0.000000 0.000000
v 0.044405 0.732971 0.257327
vn -2.748927 0.000000 0.000000
v 0.044405 0.733320 0.257560
vn -2.945594 0.000000 0.000000
v 0.044405 0.733733 0.257642
vn -2.944665 0.000000 0.000000
v 0.044405 0.750967 0.257642
vn -2.752493 0.000000 0.000000
v 0.044405 0.751378 0.257560
vn -2.742185 0.000000 0.000000
v 0.044405 0.751729 0.257327
vn -2.752694 0.000000 0.000000
v 0.044405 0.751961 0.256977
vn 2.748372 2.848847 1.173480
v 0.703569 0.974919 0.256979
vn 2.744160 2.176293 2.179159
v 0.703569 0.974686 0.257329
vn 2.944656 0.307338 3.111232
v 0.703569 0.973924 0.257644
vn -0.000001 3.112052 0.303020
v 0.044397 0.975000 0.256565
vn -0.000004 2.848848 1.173479
v 0.044397 0.974919 0.256977
vn -0.000007 2.176295 2.179159
v 0.044397 0.974686 0.257327
vn -0.000009 1.176077 2.849137
v 0.044397 0.974335 0.257560
vn -0.000009 0.307338 3.111233
v 0.044397 0.973924 0.257642
vn 2.947466 3.112092 0.303028
v 0.703569 0.975000 0.256567
vn 2.752484 1.176075 2.849136
v 0.703569 0.974335 0.257562
vn 2.757355 -2.848411 1.181669
v 0.703569 0.955696 0.256979
vn -0.000004 -2.848412 1.181668
v 0.044397 0.955696 0.256977
vn -0.000001 -3.109893 0.313803
v 0.044397 0.955612 0.256565
vn 2.940465 -3.109933 0.313811
v 0.703569 0.955612 0.256567
vn 2.744814 -2.181463 2.174270
v 0.703569 0.955928 0.257329
vn -0.000007 -2.181465 2.174270
v 0.044397 0.955928 0.257327
vn 2.748919 -1.178090 2.847126
v 0.703569 0.956277 0.257562
vn -0.000009 -1.178091 2.847128
v 0.044397 0.956277 0.257560
vn 2.945585 -0.305906 3.111517
v 0.703569 0.956690 0.257644
vn -0.000009 -0.305906 3.111518
v 0.044397 0.956690 0.257642
vn 1.570800 -1.570795 -1.570790
v 0.703570 0.955612 0.025002
vn 1.570800 1.570795 -1.570790
v 0.703570 0.975000 0.025002
vn -2.947467 0.000000 -0.000004
v 0.044405 0.975000 0.256565
vn -1.570792 1.570830 -1.570800
v 0.044406 0.975000 0.025000
vn -1.570792 -1.570830 -1.570800
v 0.044406 0.955612 0.025000
vn -2.940466 0.000000 -0.000004
v 0.044405 0.955612 0.256565
vn -2.757359 0.000000 0.000000
v 0.044405 0.955696 0.256977
vn -2.744820 0.000000 0.000000
v 0.044405 0.955928 0.257327
vn -2.748927 0.000000 0.000000
v 0.044405 0.956277 0.257560
vn -2.945594 0.000000 0.000000
v 0.044405 0.956690 0.257642
vn -2.944665 0.000000 0.000000
v 0.044405 0.973924 0.257642
vn -2.752493 0.000000 0.000000
v 0.044405 0.974335 0.257560
vn -2.744167 0.000000 0.000000
v 0.044405 0.974686 0.257327
vn -2.748376 0.000000 0.000000
v 0.044405 0.974919 0.256977
vn 0.000005 -0.000730 -1.570595
v 0.044397 0.063770 0.207173
vn 1.570414 -0.000730 -1.570796
v 0.703569 0.063770 0.207175
vn 1.571184 0.000000 0.000000
v 0.703569 0.063771 0.226563
vn 1.571188 -1.571529 -1.570675
v 0.703569 0.025027 0.207193
vn 1.570409 -1.570793 0.000122
v 0.703569 0.025028 0.226581
vn -1.571184 -0.000000 -0.000008
v 0.044405 0.063771 0.226561
vn -1.570409 -1.570794 0.000113
v 0.044405 0.025028 0.226579
vn -1.571179 -1.571528 -1.570884
v 0.044405 0.025027 0.207191
vn -1.570409 -0.000000 -0.000008
v 0.044405 0.063770 0.207173
vn -0.000002 0.000770 1.570796
v 0.703569 0.063771 0.226562
vn -0.000002 0.000769 1.570796
v 0.703569 0.025028 0.226581
vn -0.000005 0.000730 1.570995
v 0.044405 0.025028 0.226579
vn -0.000005 0.000731 1.570597
v 0.044397 0.063771 0.226561
# 255 vertices, 0 vertices normals

f 3//3 2//2 1//1
f 4//4 3//3 1//1
f 2//2 6//6 5//5
f 1//1 2//2 5//5
f 6//6 8//8 7//7
f 5//5 6//6 7//7
f 8//8 10//10 9//9
f 7//7 8//8 9//9
f 13//13 12//12 11//11
f 14//14 13//13 11//11
f 15//15 13//13 14//14
f 16//16 15//15 14//14
f 17//17 15//15 16//16
f 18//18 17//17 16//16
f 19//19 17//17 18//18
f 20//20 19//19 18//18
f 10//10 19//19 20//20
f 9//9 10//10 20//20
f 22//22 21//21 4//4
f 11//11 22//22 4//4
f 18//18 16//16 14//14
f 20//20 18//18 14//14
f 9//9 20//20 14//14
f 7//7 9//9 14//14
f 5//5 7//7 14//14
f 1//1 5//5 14//14
f 4//4 1//1 14//14
f 11//11 4//4 14//14
f 25//25 24//24 23//23
f 26//26 25//25 23//23
f 28//28 27//27 26//26
f 29//29 28//28 26//26
f 30//30 29//29 26//26
f 31//31 30//30 26//26
f 32//32 31//31 26//26
f 33//33 32//32 26//26
f 34//34 33//33 26//26
f 23//23 34//34 26//26
f 21//21 25//25 3//3
f 4//4 21//21 3//3
f 12//12 24//24 22//22
f 11//11 12//12 22//22
f 21//21 22//22 24//24
f 25//25 21//21 24//24
f 37//37 36//36 35//35
f 38//38 37//37 35//35
f 36//36 40//40 39//39
f 35//35 36//36 39//39
f 40//40 42//42 41//41
f 39//39 40//40 41//41
f 42//42 44//44 43//43
f 41//41 42//42 43//43
f 47//47 46//46 45//45
f 48//48 47//47 45//45
f 49//49 47//47 48//48
f 50//50 49//49 48//48
f 51//51 49//49 50//50
f 52//52 51//51 50//50
f 53//53 51//51 52//52
f 54//54 53//53 52//52
f 44//44 53//53 54//54
f 43//43 44//44 54//54
f 56//56 55//55 38//38
f 45//45 56//56 38//38
f 52//52 50//50 48//48
f 54//54 52//52 48//48
f 43//43 54//54 48//48
f 41//41 43//43 48//48
f 39//39 41//41 48//48
f 35//35 39//39 48//48
f 38//38 35//35 48//48
f 45//45 38//38 48//48
f 59//59 58//58 57//57
f 60//60 59//59 57//57
f 62//62 61//61 60//60
f 63//63 62//62 60//60
f 64//64 63//63 60//60
f 65//65 64//64 60//60
f 66//66 65//65 60//60
f 67//67 66//66 60//60
f 68//68 67//67 60//60
f 57//57 68//68 60//60
f 55//55 59//59 37//37
f 38//38 55//55 37//37
f 46//46 58//58 56//56
f 45//45 46//46 56//56
f 55//55 56//56 58//58
f 59//59 55//55 58//58
f 72//72 73//73 69//69
f 77//77 72//72 69//69
f 73//73 74//74 70//70
f 69//69 73//73 70//70
f 74//74 75//75 78//78
f 70//70 74//74 78//78
f 75//75 76//76 71//71
f 78//78 75//75 71//71
f 80//80 81//81 82//82
f 79//79 80//80 82//82
f 84//84 80//80 79//79
f 83//83 84//84 79//79
f 86//86 84//84 83//83
f 85//85 86//86 83//83
f 88//88 86//86 85//85
f 87//87 88//88 85//85
f 76//76 88//88 87//87
f 71//71 76//76 87//87
f 89//89 90//90 77//77
f 82//82 89//89 77//77
f 85//85 83//83 79//79
f 87//87 85//85 79//79
f 71//71 87//87 79//79
f 78//78 71//71 79//79
f 70//70 78//78 79//79
f 69//69 70//70 79//79
f 77//77 69//69 79//79
f 82//82 77//77 79//79
f 92//92 93//93 94//94
f 91//91 92//92 94//94
f 101//101 102//102 91//91
f 100//100 101//101 91//91
f 99//99 100//100 91//91
f 98//98 99//99 91//91
f 97//97 98//98 91//91
f 96//96 97//97 91//91
f 95//95 96//96 91//91
f 94//94 95//95 91//91
f 90//90 92//92 72//72
f 77//77 90//90 72//72
f 104//104 105//105 106//106
f 103//103 104//104 106//106
f 90//90 89//89 93//93
f 92//92 90//90 93//93
f 110//110 111//111 107//107
f 115//115 110//110 107//107
f 111//111 112//112 108//108
f 107//107 111//111 108//108
f 112//112 113//113 116//116
f 108//108 112//112 116//116
f 113//113 114//114 109//109
f 116//116 113//113 109//109
f 118//118 119//119 120//120
f 117//117 118//118 120//120
f 122//122 118//118 117//117
f 121//121 122//122 117//117
f 124//124 122//122 121//121
f 123//123 124//124 121//121
f 126//126 124//124 123//123
f 125//125 126//126 123//123
f 114//114 126//126 125//125
f 109//109 114//114 125//125
f 127//127 128//128 115//115
f 120//120 127//127 115//115
f 123//123 121//121 117//117
f 125//125 123//123 117//117
f 109//109 125//125 117//117
f 116//116 109//109 117//117
f 108//108 116//116 117//117
f 107//107 108//108 117//117
f 115//115 107//107 117//117
f 120//120 115//115 117//117
f 130//130 131//131 132//132
f 129//129 130//130 132//132
f 139//139 140//140 129//129
f 138//138 139//139 129//129
f 137//137 138//138 129//129
f 136//136 137//137 129//129
f 135//135 136//136 129//129
f 134//134 135//135 129//129
f 133//133 134//134 129//129
f 132//132 133//133 129//129
f 128//128 130//130 110//110
f 115//115 128//128 110//110
f 119//119 131//131 127//127
f 120//120 119//119 127//127
f 128//128 127//127 131//131
f 130//130 128//128 131//131
f 144//144 145//145 141//141
f 149//149 144//144 141//141
f 145//145 146//146 142//142
f 141//141 145//145 142//142
f 146//146 147//147 150//150
f 142//142 146//146 150//150
f 147//147 148//148 143//143
f 150//150 147//147 143//143
f 152//152 153//153 154//154
f 151//151 152//152 154//154
f 156//156 152//152 151//151
f 155//155 156//156 151//151
f 158//158 156//156 155//155
f 157//157 158//158 155//155
f 160//160 158//158 157//157
f 159//159 160//160 157//157
f 148//148 160//160 159//159
f 143//143 148//148 159//159
f 161//161 162//162 149//149
f 154//154 161//161 149//149
f 157//157 155//155 151//151
f 159//159 157//157 151//151
f 143//143 159//159 151//151
f 150//150 143//143 151//151
f 142//142 150//150 151//151
f 141//141 142//142 151//151
f 149//149 141//141 151//151
f 154//154 149//149 151//151
f 164//164 165//165 166//166
f 163//163 164//164 166//166
f 173//173 174//174 163//163
f 172//172 173//173 163//163
f 171//171 172//172 163//163
f 170//170 171//171 163//163
f 169//169 170//170 163//163
f 168//168 169//169 163//163
f 167//167 168//168 163//163
f 166//166 167//167 163//163
f 162//162 164//164 144//144
f 149//149 162//162 144//144
f 153//153 165//165 161//161
f 154//154 153//153 161//161
f 162//162 161//161 165//165
f 164//164 162//162 165//165
f 178//178 179//179 175//175
f 183//183 178//178 175//175
f 179//179 180//180 176//176
f 175//175 179//179 176//176
f 180//180 181//181 184//184
f 176//176 180//180 184//184
f 181//181 182//182 177//177
f 184//184 181//181 177//177
f 186//186 187//187 188//188
f 185//185 186//186 188//188
f 190//190 186//186 185//185
f 189//189 190//190 185//185
f 192//192 190//190 189//189
f 191//191 192//192 189//189
f 194//194 192//192 191//191
f 193//193 194//194 191//191
f 182//182 194//194 193//193
f 177//177 182//182 193//193
f 195//195 196//196 183//183
f 188//188 195//195 183//183
f 191//191 189//189 185//185
f 193//193 191//191 185//185
f 177//177 193//193 185//185
f 184//184 177//177 185//185
f 176//176 184//184 185//185
f 175//175 176//176 185//185
f 183//183 175//175 185//185
f 188//188 183//183 185//185
f 198//198 199//199 200//200
f 197//197 198//198 200//200
f 207//207 208//208 197//197
f 206//206 207//207 197//197
f 205//205 206//206 197//197
f 204//204 205//205 197//197
f 203//203 204//204 197//197
f 202//202 203//203 197//197
f 201//201 202//202 197//197
f 200//200 201//201 197//197
f 196//196 198//198 178//178
f 183//183 196//196 178//178
f 187//187 199//199 195//195
f 188//188 187//187 195//195
f 196//196 195//195 199//199
f 198//198 196//196 199//199
f 212//212 213//213 209//209
f 217//217 212//212 209//209
f 213//213 214//214 210//210
f 209//209 213//213 210//210
f 214//214 215//215 218//218
f 210//210 214//214 218//218
f 215//215 216//216 211//211
f 218//218 215//215 211//211
f 220//220 221//221 222//222
f 219//219 220//220 222//222
f 224//224 220//220 219//219
f 223//223 224//224 219//219
f 226//226 224//224 223//223
f 225//225 226//226 223//223
f 228//228 226//226 225//225
f 227//227 228//228 225//225
f 216//216 228//228 227//227
f 211//211 216//216 227//227
f 229//229 230//230 217//217
f 222//222 229//229 217//217
f 225//225 223//223 219//219
f 227//227 225//225 219//219
f 211//211 227//227 219//219
f 218//218 211//211 219//219
f 210//210 218//218 219//219
f 209//209 210//210 219//219
f 217//217 209//209 219//219
f 222//222 217//217 219//219
f 232//232 233//233 234//234
f 231//231 232//232 234//234
f 241//241 242//242 231//231
f 240//240 241//241 231//231
f 239//239 240//240 231//231
f 238//238 239//239 231//231
f 237//237 238//238 231//231
f 236//236 237//237 231//231
f 235//235 236//236 231//231
f 234//234 235//235 231//231
f 230//230 232//232 212//212
f 217//217 230//230 212//212
f 221//221 233//233 229//229
f 222//222 221//221 229//229
f 230//230 229//229 233//233
f 232//232 230//230 233//233
f 247//247 246//246 244//244
f 245//245 247//247 244//244
f 250//250 249//249 248//248
f 251//251 250//250 248//248
f 246//246 250//250 243//243
f 244//244 246//246 243//243
f 255//255 254//254 253//253
f 252//252 255//255 253//253
f 246//246 247//247 249//249
f 250//250 246//246 249//249
# 318 faces, 0 coords texture

# End of File
